<svg id="Layer_1" data-name="Layer 1" xmlns="http://www.w3.org/2000/svg" viewBox="0 0 450 120"><title>solarus_logo_stroke</title><path id="stroke" d="M436.961,82.684c.257-.179.517-.356.768-.542,6.748-5.012,10.315-12.348,10.315-21.215,0-7.194-1.923-13.074-5.716-17.477-3.551-4.119-9.128-7.384-17.051-9.984-2.391-.813-4.168-1.48-5.479-2.011-.586-.237-.083-.8.908-.8a32.2,32.2,0,0,1,12.026,2.565l9.349,4.285.949-10.24,1.178-12.719.523-5.65L439.383,7a54.321,54.321,0,0,0-8.647-2.166,60.765,60.765,0,0,0-10.508-.892c-9.744,0-17.739,2.162-23.791,6.414V5.114H365.805V51.731c0,5.59-1.163,8.09-1.856,9.082-.325.465-1,1.433-3.958,1.433s-3.677-.973-4.022-1.441c-1.15-1.57-1.792-4.59-1.792-8.484V5.114H323.544V9.973c-5.38-3.265-12.321-4.859-21.163-4.859H268.96V42.258L254.3,5.114H225.473L203.722,61.267H188.907V5.114H158.273V30.238a54.086,54.086,0,0,0-100.368,12.4C54.337,38.9,48.988,35.892,41.6,33.466c-2.424-.824-4.216-1.5-5.532-2.032-.563-.229-.323-.476-.323-.476s.293-.306,1.284-.306a28.692,28.692,0,0,1,6.367.765,28.3,28.3,0,0,1,5.674,1.8l9.348,4.271,2.633-28.6L55.7,7a54.276,54.276,0,0,0-8.651-2.167,60.784,60.784,0,0,0-10.5-.891c-10.042,0-18.234,2.289-24.347,6.8C5.5,15.7,1.956,23.005,1.956,31.871c0,7.687,2.379,13.8,7.072,18.159,3.988,3.7,9.586,6.682,17.121,9.118,3.718,1.243,5.946,2.227,5.8,2.6s-1.567.592-3.038.592A31.365,31.365,0,0,1,18.6,60.4C14.908,59.031,5.3,51.776,5.3,51.776L2.319,84.03l5.748,1.7c1.789.528,3.88,1.046,6.328,1.569L2.128,118.97H20.006l2.078-5.573h2.454l2.03,5.573h41V86.16H80.286l-.007.019L67.591,118.97H85.472l2.07-5.573H90l2.038,5.573h47.682v-9.452a16.3,16.3,0,0,0,5.007-1.427,16.357,16.357,0,0,0,4.465,6.5c3.6,3.188,8.433,4.808,14.366,4.808a33.206,33.206,0,0,0,6-.552,40.824,40.824,0,0,0,4.451-1.026l3.863-1.186V87.962l8.5-.015c-2.417,2.452-4.9,6.524-4.9,12.9,0,7.192,3.11,11.446,5.719,13.749,3.6,3.188,8.434,4.808,14.367,4.808a32.919,32.919,0,0,0,5.234-.43h16.2l2.07-5.573h2.451l2.038,5.573h70.707V82.686l-.666,0V63.271l7.032,19.413h-2.176V118.97h54.614v-3.52c3.477,2.613,7.933,3.95,13.289,3.95a32.811,32.811,0,0,0,6-.554c.913-.168,1.707-.331,2.416-.492v.616h66.365V82.684Z" fill="#3e2d72"/><g id="solarus"><path d="M323.511,61.516l-.4-.884q-1.457-4.006-3.472-8.311a9.508,9.508,0,0,0-6.305-5.482q7.141-1.463,10.461-6.063A16.989,16.989,0,0,0,327.125,30.6q0-9.3-6.353-13.745-6.378-4.455-18.391-4.451h-26.13V80.6H292.3V52.906h4.888a7.689,7.689,0,0,1,6.163,2.5,18.4,18.4,0,0,1,3.423,6.311L313.623,80.6h17.213ZM307.651,39.06q-3.128,2.109-8.6,2.106H292.3V24.144h6.258q6.067,0,9.14,2t3.089,6.508A7.19,7.19,0,0,1,307.651,39.06Z" fill="#fff"/><path d="M53.123,48.208q-3.965-4.6-13.837-7.826-8.91-3.027-11.21-4.893a5.608,5.608,0,0,1-2.293-4.5,6.316,6.316,0,0,1,3.025-5.725,15.345,15.345,0,0,1,8.217-1.906A34.993,34.993,0,0,1,52.1,26.589l1.17-12.719a47.6,47.6,0,0,0-7.484-1.859,53.316,53.316,0,0,0-9.235-.78q-12.73,0-20.016,5.378T9.247,31.871q0,8.413,4.745,12.819t14.434,7.531q7.332,2.448,9.777,4.745a6.838,6.838,0,0,1,2.452,5.04,6.309,6.309,0,0,1-3.28,5.573,15.727,15.727,0,0,1-8.463,2.054,34.038,34.038,0,0,1-10.565-1.711,29.906,29.906,0,0,1-6.95-2.887l-1.266,13.7q3.319.979,8.606,2.006A57.781,57.781,0,0,0,29.8,81.766q12.515,0,19.9-5.477t7.388-15.362Q57.088,52.806,53.123,48.208Z" fill="#fff"/><path d="M436.8,48.208q-3.964-4.6-13.837-7.826-8.908-3.027-11.21-4.893a5.608,5.608,0,0,1-2.293-4.5,6.314,6.314,0,0,1,3.026-5.725,15.341,15.341,0,0,1,8.216-1.906,34.922,34.922,0,0,1,15.063,3.228l1.179-12.719a47.867,47.867,0,0,0-7.485-1.859,53.307,53.307,0,0,0-9.235-.78q-12.731,0-20.015,5.378T392.92,31.871c0,5.609,1.592,9.88,4.746,12.819s7.977,5.445,14.441,7.531q7.333,2.448,9.778,4.745a6.865,6.865,0,0,1,2.451,5.04,6.309,6.309,0,0,1-3.28,5.573,15.771,15.771,0,0,1-8.471,2.054,34.027,34.027,0,0,1-10.557-1.711,30.18,30.18,0,0,1-6.958-2.887l-1.258,13.7q3.319.979,8.6,2.006a57.873,57.873,0,0,0,11.067,1.027q12.514,0,19.9-5.477t7.372-15.362C440.753,55.513,439.448,51.278,436.8,48.208Z" fill="#fff"/><path d="M249.341,12.405H230.468L208.717,68.558h-27.1V12.405H165.565V80.6h54.919l5.573-14.972h27.105L258.64,80.6h17.611ZM230.268,53.786,239.85,26.1l9.2,27.687Z" fill="#fff"/><path d="M373.1,12.405V51.731q0,8.712-3.169,13.256t-9.936,4.55c-4.443,0-7.723-1.469-9.888-4.4s-3.217-7.205-3.217-12.814V12.405h-16.05V55.35q0,13.017,7.531,19.713,7.548,6.7,21.72,6.7,14.474,0,21.766-6.942t7.293-20.939V12.405Z" fill="#fff"/></g><g id="tagline"><path d="M143.881,90.1q-2.686-1.935-7.81-1.943h-7.787V113.5h5.964v-9.284h2.691c3.033,0,5.4-.7,7.094-2.117a7.457,7.457,0,0,0,2.547-6.051A6.86,6.86,0,0,0,143.881,90.1Zm-4.451,8.789a4.671,4.671,0,0,1-3.144.972l-2.038-.064V92.515h2.038a4.876,4.876,0,0,1,3.129.939,3.245,3.245,0,0,1,1.162,2.66A3.416,3.416,0,0,1,139.43,98.884Z" fill="#fff"/><path d="M85.379,88.152,75.57,113.5h6.1l2.07-5.573h10.08l2.038,5.573H102.4l-10-25.35ZM85.3,103.534l3.567-10.287,3.423,10.287Z" fill="#fff"/><path d="M19.927,88.152,10.11,113.5h6.1l2.078-5.573H28.366L30.4,113.5h6.545l-10-25.35Zm-.072,15.382,3.559-10.287,3.416,10.287Z" fill="#fff"/><path d="M122.393,106.082c-.359-.987-.789-2.023-1.29-3.09a3.524,3.524,0,0,0-2.349-2.038,6.073,6.073,0,0,0,3.9-2.261,6.324,6.324,0,0,0,1.226-3.773,5.794,5.794,0,0,0-2.356-5.111c-1.576-1.1-3.862-1.657-6.839-1.657H104.98V113.5h5.964V103.2h1.807a2.851,2.851,0,0,1,2.293.94,6.824,6.824,0,0,1,1.282,2.341l2.547,7.022h6.394l-2.715-7.086Zm-5.749-8.025a5.634,5.634,0,0,1-3.2.78h-2.5V92.515h2.317a6.369,6.369,0,0,1,3.415.749,2.679,2.679,0,0,1,1.139,2.42A2.639,2.639,0,0,1,116.644,98.057Z" fill="#fff"/><polygon points="56.51 106.225 47.228 88.152 39.815 88.152 39.815 113.502 45.42 113.502 45.42 95.573 54.656 113.104 54.871 113.502 62.1 113.502 62.1 88.152 56.51 88.152 56.51 106.225" fill="#fff"/><path d="M162.065,103.311h4.586v5.6a8.471,8.471,0,0,1-1.218.334,9.064,9.064,0,0,1-1.759.144,8.488,8.488,0,0,1-6.218-2.325,8.288,8.288,0,0,1-2.381-6.194,8.082,8.082,0,0,1,2.588-6.306,10.208,10.208,0,0,1,7.022-2.309,15.8,15.8,0,0,1,3.487.383,12.254,12.254,0,0,1,3.137,1.146l.4-4.65v-.254a15.964,15.964,0,0,0-3.336-.86,28.537,28.537,0,0,0-4.451-.3q-7.021,0-11,3.44-3.977,3.415-3.981,9.681c0,4.14,1.291,7.373,3.87,9.65q3.88,3.438,10.748,3.439a27.532,27.532,0,0,0,5.008-.462,36.293,36.293,0,0,0,3.838-.875V98.916H162.065Z" fill="#fff"/><path d="M370.855,103.311h4.585v5.6a7.591,7.591,0,0,1-1.21.334,9.164,9.164,0,0,1-1.768.144,8.473,8.473,0,0,1-6.21-2.325,8.316,8.316,0,0,1-2.372-6.194,8.052,8.052,0,0,1,2.579-6.306,10.194,10.194,0,0,1,7.022-2.309,15.806,15.806,0,0,1,3.488.383,12.233,12.233,0,0,1,3.136,1.146l.383-4.65v-.254a15.584,15.584,0,0,0-3.312-.86,28.716,28.716,0,0,0-4.459-.3q-7.021,0-11,3.44-3.99,3.415-3.981,9.681c0,4.14,1.289,7.373,3.869,9.65q3.894,3.438,10.748,3.439a27.379,27.379,0,0,0,5-.462,35.283,35.283,0,0,0,3.837-.875V98.916H370.855Z" fill="#fff"/><rect x="386.236" y="88.152" width="5.971" height="25.35" fill="#fff"/><path d="M200.074,103.311h4.57v5.6a7.869,7.869,0,0,1-1.21.334,9.132,9.132,0,0,1-1.76.144,8.5,8.5,0,0,1-6.226-2.325,8.311,8.311,0,0,1-2.364-6.194,8.052,8.052,0,0,1,2.579-6.306,10.208,10.208,0,0,1,7.022-2.309,15.919,15.919,0,0,1,3.488.383,12.175,12.175,0,0,1,3.128,1.146l.4-4.65v-.254a15.766,15.766,0,0,0-3.328-.86,28.546,28.546,0,0,0-4.451-.3q-7.021,0-11,3.44c-2.651,2.277-3.988,5.51-3.988,9.681,0,4.14,1.289,7.373,3.869,9.65q3.881,3.438,10.748,3.439a27.33,27.33,0,0,0,5-.462,35.283,35.283,0,0,0,3.837-.875V98.916H200.074Z" fill="#fff"/><polygon points="347.989 106.225 338.722 88.152 331.301 88.152 331.301 113.502 336.89 113.502 336.89 95.573 346.126 113.104 346.365 113.502 353.594 113.502 353.594 88.152 347.989 88.152 347.989 106.225" fill="#fff"/><polygon points="414.086 106.225 404.819 88.152 397.414 88.152 397.414 113.502 403.003 113.502 403.003 95.573 412.238 113.104 412.462 113.502 419.691 113.502 419.691 88.152 414.086 88.152 414.086 106.225" fill="#fff"/><polygon points="430.837 109.091 430.837 102.658 440.677 102.658 440.677 98.296 430.837 98.296 430.837 92.515 441.458 92.515 441.458 88.152 424.866 88.152 424.866 113.502 441.665 113.502 441.665 109.091 430.837 109.091" fill="#fff"/><polygon points="257.879 105.827 251.988 88.152 242.752 88.152 242.752 113.502 248.533 113.502 248.453 93.359 255.125 113.104 260.427 113.104 267.226 93.391 267.162 113.502 272.894 113.502 272.894 88.152 263.914 88.152 257.879 105.827" fill="#fff"/><path d="M222.892,88.152l-9.809,25.35h6.107l2.07-5.573h10.075l2.039,5.573h6.544l-10-25.35Zm-.064,15.382L226.4,93.247l3.412,10.287Z" fill="#fff"/><polygon points="283.962 102.658 293.802 102.658 293.802 98.296 283.962 98.296 283.962 92.515 294.582 92.515 294.582 88.152 277.99 88.152 277.99 113.502 294.789 113.502 294.789 109.091 283.962 109.091 283.962 102.658" fill="#fff"/><polygon points="315.888 102.658 325.744 102.658 325.744 98.296 315.888 98.296 315.888 92.515 326.493 92.515 326.493 88.152 309.917 88.152 309.917 113.502 326.715 113.502 326.715 109.091 315.888 109.091 315.888 102.658" fill="#fff"/></g><path id="logo" d="M110.454,6.868a48.636,48.636,0,0,0-48.64,48.637A47.954,47.954,0,0,0,68.9,80.6h2.793c9.455-9.464,31.041-30.95,36.9-36.816,3.38,3.376,8.009-1.174,9.353-2.653-.729-.718-1.511-1.508-2.316-2.321-3.213-3.2-5.97,1.7-5.97,1.7l-7.025-7.037s10.968-5,16.933.96c2.138,2.143,3.539,3.542,4.475,4.475l8.171-8.167a6.068,6.068,0,1,1,3.649,3.609l-8.191,8.183c.928.936,2.324,2.332,4.439,4.45,5.977,5.966.959,16.937.959,16.937l-7.028-7.036s4.89-2.757,1.693-5.962c-.805-.806-1.586-1.591-2.316-2.321-1.48,1.353-6.029,5.982-2.653,9.353-3.682,3.685-13.554,13.461-22.74,22.648h51.98a47.987,47.987,0,0,0,7.08-25.091A48.629,48.629,0,0,0,110.454,6.868Z" fill="#ffbc00"/></svg>