<?xml version="1.0" encoding="UTF-8" standalone="no"?>
<!DOCTYPE svg PUBLIC "-//W3C//DTD SVG 1.1//EN" "http://www.w3.org/Graphics/SVG/1.1/DTD/svg11.dtd">
<svg width="100%" height="100%" viewBox="0 0 256 256" version="1.1" xmlns="http://www.w3.org/2000/svg" xmlns:xlink="http://www.w3.org/1999/xlink" xml:space="preserve" xmlns:serif="http://www.serif.com/" style="fill-rule:evenodd;clip-rule:evenodd;stroke-linejoin:round;stroke-miterlimit:2;">
    <g transform="matrix(1.88235,0,0,1.86861,-7.52941,-5.60584)">
        <path d="M140,37.25C140,18.347 124.765,3 106,3L38,3C19.235,3 4,18.347 4,37.25L4,105.75C4,124.653 19.235,140 38,140L106,140C124.765,140 140,124.653 140,105.75L140,37.25Z" style="fill:rgb(17,17,17);"/>
    </g>
    <g transform="matrix(2.02105,0,0,2.02105,-13.4737,-13.4737)">
        <g id="D" transform="matrix(-0.674885,8.26495e-17,-8.26495e-17,-0.674885,223.747,109.037)">
            <path d="M172.54,-2.511C175.786,-5.757 179.378,-8.24 183.315,-9.96C187.251,-11.68 191.533,-12.54 196.16,-12.54L271.855,-12.54L271.855,6.901L196.16,6.901C194.44,6.901 192.823,7.222 191.309,7.864C189.795,8.506 188.475,9.39 187.348,10.517C186.222,11.643 185.337,12.964 184.695,14.478C184.053,15.992 183.732,17.609 183.732,19.329L183.732,96.355C183.732,97.954 184.084,99.498 184.786,100.988C185.489,102.478 186.416,103.798 187.566,104.949C188.717,106.1 190.037,107.027 191.527,107.729C193.017,108.432 194.562,108.783 196.16,108.783L271.855,108.783L271.855,128.224L196.16,128.224C193.859,128.224 191.624,127.982 189.456,127.498C187.288,127.013 185.204,126.329 183.206,125.444C181.207,124.56 179.311,123.5 177.518,122.265C175.726,121.029 174.066,119.673 172.54,118.195C169.366,115.118 166.901,111.575 165.145,107.566C163.389,103.556 162.51,99.226 162.51,94.574L162.51,21.11C162.51,16.458 163.37,12.17 165.09,8.246C166.811,4.321 169.294,0.736 172.54,-2.511Z" style="fill:white;fill-rule:nonzero;"/>
        </g>
        <g transform="matrix(1.16544,0,0,1.16544,-28.4405,-16.5614)">
            <g transform="matrix(12,0,0,12,43.8377,91.0739)">
                <path d="M0.554,-2.8L3.051,-2.8C3.145,-2.8 3.231,-2.789 3.309,-2.766C3.386,-2.743 3.456,-2.712 3.519,-2.673C3.581,-2.634 3.635,-2.587 3.682,-2.533C3.728,-2.479 3.766,-2.421 3.797,-2.358C3.828,-2.294 3.851,-2.229 3.866,-2.16C3.881,-2.091 3.889,-2.021 3.888,-1.951C3.888,-1.88 3.88,-1.809 3.865,-1.739C3.85,-1.669 3.827,-1.603 3.796,-1.54C3.765,-1.477 3.727,-1.418 3.681,-1.365C3.634,-1.312 3.58,-1.266 3.518,-1.227C3.456,-1.188 3.386,-1.157 3.309,-1.135C3.231,-1.113 3.145,-1.102 3.051,-1.102L3.04,-1.102L3.94,-0L3.215,-0L2.315,-1.102L0.818,-1.102L0.818,-0L0.234,-0L0.233,-2.479C0.233,-2.527 0.241,-2.571 0.256,-2.61C0.271,-2.649 0.293,-2.683 0.322,-2.712C0.35,-2.74 0.384,-2.762 0.423,-2.777C0.462,-2.792 0.506,-2.8 0.554,-2.8ZM3.04,-1.637C3.083,-1.637 3.121,-1.646 3.154,-1.664C3.187,-1.682 3.214,-1.706 3.236,-1.735C3.258,-1.764 3.274,-1.798 3.286,-1.836C3.297,-1.873 3.302,-1.912 3.303,-1.951C3.303,-1.99 3.298,-2.029 3.287,-2.067C3.276,-2.104 3.26,-2.138 3.239,-2.167C3.217,-2.196 3.19,-2.22 3.157,-2.238C3.124,-2.256 3.085,-2.265 3.04,-2.265L0.818,-2.265L0.818,-1.637L3.04,-1.637Z" style="fill:rgb(200,87,229);fill-rule:nonzero;stroke:rgb(26,159,255);stroke-width:0.04px;"/>
            </g>
        </g>
    </g>
</svg>
