<?xml version="1.0" encoding="UTF-8" standalone="no"?>
<!DOCTYPE svg PUBLIC "-//W3C//DTD SVG 1.1//EN" "http://www.w3.org/Graphics/SVG/1.1/DTD/svg11.dtd">
<svg width="100%" height="100%" viewBox="0 0 256 256" version="1.1" xmlns="http://www.w3.org/2000/svg" xmlns:xlink="http://www.w3.org/1999/xlink" xml:space="preserve" xmlns:serif="http://www.serif.com/" style="fill-rule:evenodd;clip-rule:evenodd;stroke-linejoin:round;stroke-miterlimit:2;">
    <g id="g4" transform="matrix(1.88235,0,0,1.86861,-7.52941,-5.60584)">
        <path id="path2" d="M140,37.25C140,18.347 124.765,3 106,3L38,3C19.235,3 4,18.347 4,37.25L4,105.75C4,124.653 19.235,140 38,140L106,140C124.765,140 140,124.653 140,105.75L140,37.25Z"/>
    </g>
    <g id="g3027" transform="matrix(0.0621375,-8.60475e-34,-8.76175e-34,-0.0632712,46.4208,168.494)">
        <path id="path3029" d="M1024,640C1024,710.667 999,771 949,821C899,871 838.667,896 768,896C697.333,896 637,871 587,821C537,771 512,710.667 512,640C512,569.333 537,509 587,459C637,409 697.333,384 768,384C838.667,384 899,409 949,459C999,509 1024,569.333 1024,640ZM1536,749L1536,527C1536,519 1533.33,511.333 1528,504C1522.67,496.667 1516,492.333 1508,491L1323,463C1310.33,427 1297.33,396.667 1284,372C1307.33,338.667 1343,292.667 1391,234C1397.67,226 1401,217.667 1401,209C1401,200.333 1398,192.667 1392,186C1374,161.333 1341,125.333 1293,78C1245,30.667 1213.67,7 1199,7C1191,7 1182.33,10 1173,16L1035,124C1005.67,108.667 975.333,96 944,86C933.333,-4.667 923.667,-66.667 915,-100C910.333,-118.667 898.333,-128 879,-128L657,-128C647.667,-128 639.5,-125.167 632.5,-119.5C625.5,-113.833 621.667,-106.667 621,-98L593,86C560.333,96.667 530.333,109 503,123L362,16C355.333,10 347,7 337,7C327.667,7 319.333,10.667 312,18C228,94 173,150 147,186C142.333,192.667 140,200.333 140,209C140,217 142.667,224.667 148,232C158,246 175,268.167 199,298.5C223,328.833 241,352.333 253,369C235,402.333 221.333,435.333 212,468L29,495C20.333,496.333 13.333,500.5 8,507.5C2.667,514.5 0,522.333 0,531L0,753C0,761 2.667,768.667 8,776C13.333,783.333 19.667,787.667 27,789L213,817C222.333,847.667 235.333,878.333 252,909C225.333,947 189.667,993 145,1047C138.333,1055 135,1063 135,1071C135,1077.67 138,1085.33 144,1094C161.333,1118 194.167,1153.83 242.5,1201.5C290.833,1249.17 322.333,1273 337,1273C345.667,1273 354.333,1269.67 363,1263L501,1156C530.333,1171.33 560.667,1184 592,1194C602.667,1284.67 612.333,1346.67 621,1380C625.667,1398.67 637.667,1408 657,1408L879,1408C888.333,1408 896.5,1405.17 903.5,1399.5C910.5,1393.83 914.333,1386.67 915,1378L943,1194C975.667,1183.33 1005.67,1171 1033,1157L1175,1264C1181,1270 1189,1273 1199,1273C1207.67,1273 1216,1269.67 1224,1263C1310,1183.67 1365,1127 1389,1093C1393.67,1087.67 1396,1080.33 1396,1071C1396,1063 1393.33,1055.33 1388,1048C1378,1034 1361,1011.83 1337,981.5C1313,951.167 1295,927.667 1283,911C1300.33,877.667 1314,845 1324,813L1507,785C1515.67,783.667 1522.67,779.5 1528,772.5C1533.33,765.5 1536,757.667 1536,749Z" style="fill:url(#_Linear1);"/>
    </g>
    <g id="D" transform="matrix(-1.36398,1.67039e-16,-1.67039e-16,-1.36398,438.73,206.896)">
        <g id="g12">
            <g id="D1" serif:id="D">
                <path id="path6" d="M172.54,-2.511C175.786,-5.757 179.378,-8.24 183.315,-9.96C187.251,-11.68 191.533,-12.54 196.16,-12.54L271.855,-12.54L271.855,6.901L196.16,6.901C194.44,6.901 192.823,7.222 191.309,7.864C189.795,8.506 188.475,9.39 187.348,10.517C186.222,11.643 185.337,12.964 184.695,14.478C184.053,15.992 183.732,17.609 183.732,19.329L183.732,96.355C183.732,97.954 184.084,99.498 184.786,100.988C185.489,102.478 186.416,103.798 187.566,104.949C188.717,106.1 190.037,107.027 191.527,107.729C193.017,108.432 194.562,108.783 196.16,108.783L271.855,108.783L271.855,128.224L196.16,128.224C193.859,128.224 191.624,127.982 189.456,127.498C187.288,127.013 185.204,126.329 183.206,125.444C181.207,124.56 179.311,123.5 177.518,122.265C175.726,121.029 174.066,119.673 172.54,118.195C169.366,115.118 166.901,111.575 165.145,107.566C163.389,103.556 162.51,99.226 162.51,94.574L162.51,21.11C162.51,16.458 163.37,12.17 165.09,8.246C166.811,4.321 169.294,0.736 172.54,-2.511Z" style="fill:white;fill-rule:nonzero;"/>
            </g>
        </g>
    </g>
    <defs>
        <linearGradient id="_Linear1" x1="0" y1="0" x2="1" y2="0" gradientUnits="userSpaceOnUse" gradientTransform="matrix(1536,0,0,1536,0,640)"><stop offset="0" style="stop-color:rgb(201,87,230);stop-opacity:1"/><stop offset="1" style="stop-color:rgb(26,159,255);stop-opacity:1"/></linearGradient>
    </defs>
</svg>
