<?xml version="1.0" encoding="UTF-8" standalone="no"?>
<!DOCTYPE svg PUBLIC "-//W3C//DTD SVG 1.1//EN" "http://www.w3.org/Graphics/SVG/1.1/DTD/svg11.dtd">
<svg width="100%" height="100%" viewBox="0 0 2750 1000" version="1.1" xmlns="http://www.w3.org/2000/svg" xmlns:xlink="http://www.w3.org/1999/xlink" xml:space="preserve" xmlns:serif="http://www.serif.com/" style="fill-rule:evenodd;clip-rule:evenodd;stroke-linejoin:round;stroke-miterlimit:2;">
    <path id="DECK" d="M1650,476.924L1728.84,476.924L1728.84,681.584L1999.38,476.789L2117.24,476.789L1953.35,600.854L2133.97,855.059L2036.91,854.789L1890.57,648.509L1728.84,771.089L1728.84,854.924L1650,854.924L1650,476.924ZM1137.26,514.319C1149.32,502.259 1162.66,493.034 1177.29,486.644C1191.91,480.254 1207.82,477.059 1225.01,477.059L1585.19,477.059L1585.19,549.284L1225.01,549.284C1218.62,549.284 1212.61,550.476 1206.99,552.861C1201.36,555.246 1196.46,558.531 1192.27,562.716C1188.09,566.901 1184.8,571.806 1182.42,577.431C1180.03,583.056 1178.84,589.064 1178.84,595.454L1178.84,736.664C1178.84,742.604 1180.14,748.341 1182.76,753.876C1185.37,759.411 1188.81,764.316 1193.08,768.591C1197.36,772.866 1202.26,776.309 1207.8,778.919C1213.33,781.529 1219.07,782.834 1225.01,782.834L1585.19,782.834L1585.19,855.059L1225.01,855.059C1216.46,855.059 1208.16,854.159 1200.1,852.359C1192.05,850.559 1184.31,848.016 1176.88,844.731C1169.46,841.446 1162.41,837.509 1155.76,832.919C1149.1,828.329 1142.93,823.289 1137.26,817.799C1125.47,806.369 1116.31,793.206 1109.79,778.311C1103.26,763.416 1100,747.329 1100,730.049L1100,602.069C1100,584.789 1103.19,568.859 1109.59,554.279C1115.98,539.699 1125.2,526.379 1137.26,514.319ZM550,811.724L550,520.394C550,513.914 551.035,508.019 553.105,502.709C555.175,497.399 558.123,492.831 561.947,489.006C565.773,485.181 570.34,482.234 575.65,480.164C580.96,478.094 586.855,477.059 593.335,477.059L1033.7,477.059L1033.7,549.284L628.975,549.284L628.975,625.829L984.565,625.829L984.565,698.054L628.975,698.054L628.975,782.834L1033.7,782.834L1033.7,855.059L593.335,855.059C586.855,855.059 580.96,854.024 575.65,851.954C570.34,849.884 565.773,846.936 561.947,843.111C558.123,839.286 555.175,834.719 553.105,829.409C551.035,824.099 550,818.204 550,811.724ZM447.93,962.74C435.87,974.8 422.527,984.025 407.902,990.415C393.277,996.805 377.37,1000 360.18,1000L78.975,1000L78.975,927.775L360.18,927.775C366.57,927.775 372.577,926.583 378.202,924.197C383.827,921.813 388.732,918.527 392.917,914.342C397.102,910.157 400.387,905.253 402.772,899.627C405.157,894.003 406.35,887.995 406.35,881.605L406.35,595.454C406.35,589.514 405.045,583.776 402.435,578.241C399.825,572.706 396.382,567.801 392.107,563.526C387.832,559.251 382.927,555.809 377.392,553.199C371.857,550.589 366.12,549.284 360.18,549.284L78.975,549.284L78.975,477.059L360.18,477.059C368.73,477.059 377.032,477.959 385.087,479.759C393.142,481.559 400.882,484.101 408.307,487.386C415.732,490.671 422.775,494.609 429.435,499.199C436.095,503.789 442.26,508.829 447.93,514.319C459.72,525.749 468.877,538.911 475.402,553.806C481.927,568.701 485.19,584.789 485.19,602.069L485.19,874.99C485.19,892.27 481.995,908.2 475.605,922.78C469.215,937.36 459.99,950.68 447.93,962.74Z" style="fill:white;fill-rule:nonzero;"/>
    <g id="Gamepad" transform="matrix(1,0,0,1,1.77636e-15,663.529)">
        <path d="M282.082,50C282.082,22.404 259.678,0 232.082,0L50,0C22.404,0 0,22.404 0,50L0,100C0,127.596 22.404,150 50,150L232.082,150C259.678,150 282.082,127.596 282.082,100L282.082,50ZM41.412,60.799L28.71,60.799C23.304,60.799 18.916,65.188 18.916,70.593L18.916,80.387C18.916,85.792 23.304,90.18 28.71,90.18L41.412,90.18L41.412,102.216C41.412,107.735 45.893,112.216 51.412,112.216L61.412,112.216C66.932,112.216 71.412,107.735 71.412,102.216L71.412,90.18L84.122,90.18C89.528,90.18 93.916,85.792 93.916,80.387L93.916,70.593C93.916,65.188 89.528,60.799 84.122,60.799L71.412,60.799L71.412,48.763C71.412,43.244 66.932,38.763 61.412,38.763L51.412,38.763C45.893,38.763 41.412,43.244 41.412,48.763L41.412,60.799ZM206.914,38.763C217.262,38.763 225.664,46.992 225.664,57.127C225.664,67.261 217.262,75.49 206.914,75.49C196.566,75.49 188.164,67.261 188.164,57.127C188.164,46.992 196.566,38.763 206.914,38.763ZM244.414,75.49C254.762,75.49 263.164,83.718 263.164,93.853C263.164,103.988 254.762,112.216 244.414,112.216C234.066,112.216 225.664,103.988 225.664,93.853C225.664,83.718 234.066,75.49 244.414,75.49Z" style="fill:url(#_Linear1);"/>
    </g>
    <path id="RETRO" d="M603.159,933.621C603.159,936.837 602.649,939.898 601.628,942.805C600.608,945.712 599.139,948.14 597.222,950.088C596.047,951.294 594.755,952.407 593.348,953.428C591.941,954.448 590.387,955.314 588.687,956.025C586.986,956.737 585.138,957.293 583.143,957.695C581.149,958.097 578.914,958.298 576.44,958.298L567.349,958.298L567.349,980.889L550,980.889L550,911.819L576.812,911.819C580.801,911.819 584.241,912.182 587.133,912.909C590.024,913.636 592.645,914.788 594.995,916.365C597.593,918.097 599.603,920.408 601.025,923.3C602.448,926.191 603.159,929.631 603.159,933.621ZM585.347,934.038C585.347,932.09 584.883,930.412 583.955,929.005C583.027,927.598 581.914,926.632 580.615,926.106C578.976,925.395 577.407,924.985 575.907,924.877C574.407,924.768 572.374,924.714 569.807,924.714L567.349,924.714L567.349,945.403L568.555,945.403C570.194,945.403 571.74,945.387 573.193,945.356C574.647,945.326 575.915,945.217 576.997,945.032C577.925,944.877 578.907,944.576 579.943,944.127C580.979,943.679 581.775,943.176 582.332,942.62C583.507,941.475 584.303,940.285 584.72,939.048C585.138,937.811 585.347,936.141 585.347,934.038ZM661.514,954.866C661.514,963.432 659.171,970.181 654.486,975.114C649.801,980.046 643.175,982.512 634.609,982.512C626.105,982.512 619.495,980.046 614.779,975.114C610.063,970.181 607.705,963.432 607.705,954.866C607.705,946.207 610.063,939.427 614.779,934.525C619.495,929.624 626.105,927.173 634.609,927.173C643.145,927.173 649.762,929.639 654.463,934.572C659.163,939.504 661.514,946.269 661.514,954.866ZM644.861,954.958C644.861,951.866 644.606,949.292 644.095,947.235C643.585,945.179 642.882,943.532 641.985,942.295C641.026,940.996 639.944,940.092 638.738,939.581C637.532,939.071 636.156,938.816 634.609,938.816C633.156,938.816 631.842,939.04 630.667,939.489C629.491,939.937 628.409,940.795 627.419,942.063C626.492,943.269 625.75,944.924 625.193,947.026C624.636,949.129 624.358,951.773 624.358,954.958C624.358,958.144 624.621,960.718 625.146,962.682C625.672,964.646 626.353,966.215 627.187,967.39C628.053,968.596 629.136,969.478 630.435,970.034C631.733,970.591 633.171,970.869 634.749,970.869C636.047,970.869 637.369,970.591 638.715,970.034C640.06,969.478 641.134,968.643 641.938,967.529C642.897,966.2 643.624,964.599 644.119,962.728C644.613,960.857 644.861,958.267 644.861,954.958ZM747.747,928.796L732.532,980.889L715.276,980.889L706.138,947.212L696.953,980.889L679.697,980.889L664.622,928.796L681.692,928.796L689.67,963.262L699.551,928.796L713.884,928.796L723.208,963.262L731.047,928.796L747.747,928.796ZM781.331,982.28C771.497,982.28 763.959,979.93 758.717,975.229C753.475,970.529 750.854,963.834 750.854,955.144C750.854,946.64 753.298,939.852 758.184,934.78C763.07,929.709 769.904,927.173 778.687,927.173C786.665,927.173 792.664,929.322 796.685,933.621C800.705,937.919 802.715,944.073 802.715,952.083L802.715,957.927L767.136,957.927C767.291,960.339 767.801,962.357 768.667,963.981C769.533,965.604 770.677,966.895 772.1,967.854C773.491,968.813 775.115,969.501 776.97,969.918C778.826,970.336 780.851,970.544 783.047,970.544C784.933,970.544 786.789,970.336 788.613,969.918C790.438,969.501 792.108,968.952 793.623,968.271C794.953,967.684 796.182,967.05 797.311,966.37C798.44,965.689 799.36,965.086 800.071,964.561L801.787,964.561L801.787,977.966C800.457,978.492 799.244,978.979 798.146,979.427C797.048,979.876 795.54,980.332 793.623,980.796C791.86,981.26 790.044,981.623 788.173,981.886C786.302,982.149 784.021,982.28 781.331,982.28ZM786.711,948.14C786.619,944.707 785.822,942.094 784.323,940.3C782.823,938.507 780.527,937.61 777.434,937.61C774.28,937.61 771.814,938.553 770.035,940.439C768.257,942.326 767.275,944.893 767.09,948.14L786.711,948.14ZM846.04,944.15L844.695,944.15C844.076,943.934 843.18,943.772 842.004,943.663C840.829,943.555 839.53,943.501 838.108,943.501C836.407,943.501 834.621,943.748 832.75,944.243C830.879,944.738 829.062,945.326 827.3,946.006L827.3,980.889L811.064,980.889L811.064,928.796L827.3,928.796L827.3,936.265C828.042,935.584 829.07,934.726 830.385,933.69C831.699,932.654 832.897,931.827 833.979,931.208C835.155,930.497 836.523,929.886 838.085,929.376C839.646,928.866 841.123,928.611 842.515,928.611C843.04,928.611 843.628,928.626 844.277,928.657C844.927,928.688 845.514,928.735 846.04,928.796L846.04,944.15ZM878.928,982.28C869.094,982.28 861.556,979.93 856.315,975.229C851.073,970.529 848.452,963.834 848.452,955.144C848.452,946.64 850.895,939.852 855.781,934.78C860.667,929.709 867.502,927.173 876.284,927.173C884.263,927.173 890.262,929.322 894.282,933.621C898.302,937.919 900.312,944.073 900.312,952.083L900.312,957.927L864.734,957.927C864.889,960.339 865.399,962.357 866.265,963.981C867.131,965.604 868.275,966.895 869.697,967.854C871.089,968.813 872.712,969.501 874.568,969.918C876.423,970.336 878.449,970.544 880.645,970.544C882.531,970.544 884.386,970.336 886.211,969.918C888.035,969.501 889.705,968.952 891.221,968.271C892.55,967.684 893.78,967.05 894.908,966.37C896.037,965.689 896.957,965.086 897.668,964.561L899.385,964.561L899.385,977.966C898.055,978.492 896.841,978.979 895.743,979.427C894.646,979.876 893.138,980.332 891.221,980.796C889.458,981.26 887.641,981.623 885.77,981.886C883.899,982.149 881.619,982.28 878.928,982.28ZM884.309,948.14C884.216,944.707 883.42,942.094 881.92,940.3C880.42,938.507 878.124,937.61 875.032,937.61C871.877,937.61 869.411,938.553 867.633,940.439C865.855,942.326 864.873,944.893 864.687,948.14L884.309,948.14ZM956.023,980.889L939.788,980.889L939.788,975.461C938.736,976.327 937.538,977.255 936.193,978.245C934.847,979.234 933.665,979.976 932.644,980.471C931.345,981.09 930.062,981.554 928.794,981.863C927.526,982.172 926.011,982.327 924.248,982.327C918.311,982.327 913.61,979.868 910.146,974.951C906.683,970.034 904.951,963.463 904.951,955.237C904.951,950.691 905.539,946.748 906.714,943.408C907.889,940.068 909.513,937.161 911.584,934.687C913.471,932.43 915.759,930.644 918.45,929.33C921.14,928.016 923.985,927.358 926.985,927.358C929.706,927.358 931.941,927.644 933.688,928.217C935.435,928.789 937.468,929.678 939.788,930.884L939.788,908.711L956.023,908.711L956.023,980.889ZM939.788,966.509L939.788,940.95C938.984,940.548 937.932,940.215 936.633,939.952C935.334,939.69 934.221,939.558 933.293,939.558C929.397,939.558 926.467,940.919 924.503,943.64C922.539,946.361 921.558,950.165 921.558,955.051C921.558,960.185 922.338,963.896 923.9,966.184C925.462,968.472 927.99,969.617 931.484,969.617C932.907,969.617 934.345,969.338 935.798,968.782C937.252,968.225 938.582,967.467 939.788,966.509ZM1030.75,954.448C1030.75,949.253 1029.96,945.542 1028.39,943.315C1026.81,941.089 1024.38,939.976 1021.1,939.976C1019.65,939.976 1018.2,940.208 1016.77,940.671C1015.33,941.135 1013.91,941.831 1012.52,942.759L1012.52,968.921C1013.6,969.354 1014.69,969.648 1015.79,969.802C1016.89,969.957 1017.98,970.034 1019.06,970.034C1022.99,970.034 1025.92,968.735 1027.85,966.138C1029.79,963.54 1030.75,959.644 1030.75,954.448ZM1047.36,954.124C1047.36,962.411 1045.26,969.114 1041.05,974.232C1036.84,979.35 1031.63,981.909 1025.42,981.909C1022.82,981.909 1020.56,981.615 1018.64,981.028C1016.73,980.44 1014.69,979.528 1012.52,978.291L1011.83,980.889L996.287,980.889L996.287,908.711L1012.52,908.711L1012.52,934.224C1014.9,932.183 1017.33,930.528 1019.81,929.26C1022.28,927.992 1025.14,927.358 1028.39,927.358C1034.45,927.358 1039.12,929.724 1042.42,934.456C1045.71,939.187 1047.36,945.743 1047.36,954.124ZM1104.92,928.796L1078.62,1000L1061.18,1000L1069.07,979.636L1049.96,928.796L1067.03,928.796L1077.97,961.453L1088.22,928.796L1104.92,928.796ZM1139.76,980.889L1139.76,911.819L1186.47,911.819L1186.47,924.993L1157.02,924.993L1157.02,937.1L1184.15,937.1L1184.15,950.273L1157.02,950.273L1157.02,967.715L1186.47,967.715L1186.47,980.889L1139.76,980.889ZM1259.53,980.889L1259.53,954.866C1259.53,952.299 1259.49,950.134 1259.39,948.372C1259.3,946.609 1259.02,945.171 1258.56,944.058C1258.09,942.944 1257.37,942.133 1256.4,941.622C1255.43,941.112 1254.06,940.857 1252.3,940.857C1251.06,940.857 1249.84,941.128 1248.63,941.669C1247.42,942.21 1246.11,942.975 1244.69,943.965L1244.69,980.889L1228.36,980.889L1228.36,954.866C1228.36,952.33 1228.31,950.173 1228.2,948.395C1228.09,946.617 1227.8,945.171 1227.34,944.058C1226.88,942.944 1226.16,942.133 1225.18,941.622C1224.21,941.112 1222.86,940.857 1221.12,940.857C1219.79,940.857 1218.49,941.166 1217.23,941.785C1215.96,942.403 1214.72,943.13 1213.52,943.965L1213.52,980.889L1197.28,980.889L1197.28,928.796L1213.52,928.796L1213.52,934.548C1216.17,932.291 1218.68,930.528 1221.03,929.26C1223.38,927.992 1226.03,927.358 1228.96,927.358C1232.15,927.358 1234.95,928.116 1237.36,929.631C1239.77,931.147 1241.61,933.404 1242.88,936.404C1246,933.497 1248.95,931.263 1251.71,929.701C1254.48,928.139 1257.29,927.358 1260.13,927.358C1262.55,927.358 1264.71,927.745 1266.63,928.518C1268.55,929.291 1270.17,930.451 1271.5,931.997C1272.95,933.667 1274.04,935.654 1274.77,937.958C1275.5,940.262 1275.86,943.269 1275.86,946.98L1275.86,980.889L1259.53,980.889ZM1336.26,980.889L1320.02,980.889L1320.02,975.137C1317.2,977.487 1314.62,979.273 1312.27,980.494C1309.92,981.716 1307.12,982.327 1303.88,982.327C1298.71,982.327 1294.68,980.695 1291.79,977.433C1288.9,974.17 1287.46,969.261 1287.46,962.705L1287.46,928.796L1303.78,928.796L1303.78,954.634C1303.78,957.324 1303.85,959.52 1303.99,961.221C1304.13,962.922 1304.46,964.36 1304.99,965.535C1305.49,966.617 1306.25,967.437 1307.29,967.993C1308.32,968.55 1309.77,968.828 1311.62,968.828C1312.77,968.828 1314.12,968.55 1315.68,967.993C1317.24,967.437 1318.69,966.679 1320.02,965.72L1320.02,928.796L1336.26,928.796L1336.26,980.889ZM1364.92,980.889L1348.69,980.889L1348.69,908.711L1364.92,908.711L1364.92,980.889ZM1406.07,967.297L1406.07,956.443C1403.32,956.721 1401.09,956.961 1399.39,957.162C1397.69,957.363 1396.02,957.757 1394.38,958.345C1392.95,958.84 1391.85,959.589 1391.06,960.594C1390.27,961.6 1389.88,962.937 1389.88,964.607C1389.88,967.05 1390.54,968.728 1391.85,969.64C1393.16,970.552 1395.1,971.008 1397.67,971.008C1399.09,971.008 1400.55,970.684 1402.03,970.034C1403.52,969.385 1404.86,968.472 1406.07,967.297ZM1406.07,975.369C1404.95,976.296 1403.96,977.131 1403.08,977.874C1402.19,978.616 1401.01,979.358 1399.53,980.1C1398.07,980.811 1396.66,981.353 1395.28,981.724C1393.91,982.095 1391.98,982.28 1389.51,982.28C1384.9,982.28 1381.07,980.734 1378.03,977.642C1374.98,974.549 1373.46,970.653 1373.46,965.952C1373.46,962.087 1374.23,958.963 1375.78,956.582C1377.32,954.201 1379.55,952.314 1382.46,950.923C1385.39,949.5 1388.9,948.511 1392.99,947.954C1397.07,947.397 1401.46,946.965 1406.16,946.655L1406.16,946.377C1406.16,943.501 1405.1,941.514 1402.98,940.416C1400.86,939.318 1397.69,938.77 1393.45,938.77C1391.53,938.77 1389.29,939.117 1386.72,939.813C1384.16,940.509 1381.65,941.398 1379.21,942.48L1377.82,942.48L1377.82,929.91C1379.42,929.446 1382.02,928.897 1385.61,928.263C1389.2,927.629 1392.82,927.312 1396.46,927.312C1405.43,927.312 1411.97,928.804 1416.06,931.788C1420.16,934.773 1422.21,939.326 1422.21,945.449L1422.21,980.889L1406.07,980.889L1406.07,975.369ZM1454.17,981.909C1447.55,981.909 1442.74,980.549 1439.72,977.827C1436.7,975.106 1435.2,970.653 1435.2,964.468L1435.2,940.115L1428.98,940.115L1428.98,928.796L1435.2,928.796L1435.2,913.906L1451.43,913.906L1451.43,928.796L1467.07,928.796L1467.07,940.115L1451.43,940.115L1451.43,958.577C1451.43,960.401 1451.45,961.994 1451.48,963.354C1451.51,964.715 1451.76,965.937 1452.22,967.019C1452.65,968.101 1453.42,968.96 1454.52,969.594C1455.62,970.227 1457.22,970.544 1459.32,970.544C1460.18,970.544 1461.32,970.359 1462.73,969.988C1464.13,969.617 1465.12,969.277 1465.67,968.967L1467.07,968.967L1467.07,980.425C1465.3,980.889 1463.43,981.252 1461.45,981.515C1459.47,981.778 1457.05,981.909 1454.17,981.909ZM1489.93,980.889L1473.7,980.889L1473.7,928.796L1489.93,928.796L1489.93,980.889ZM1490.4,921.375L1473.24,921.375L1473.24,908.711L1490.4,908.711L1490.4,921.375ZM1552.37,954.866C1552.37,963.432 1550.03,970.181 1545.34,975.114C1540.66,980.046 1534.03,982.512 1525.47,982.512C1516.96,982.512 1510.35,980.046 1505.64,975.114C1500.92,970.181 1498.56,963.432 1498.56,954.866C1498.56,946.207 1500.92,939.427 1505.64,934.525C1510.35,929.624 1516.96,927.173 1525.47,927.173C1534,927.173 1540.62,929.639 1545.32,934.572C1550.02,939.504 1552.37,946.269 1552.37,954.866ZM1535.72,954.958C1535.72,951.866 1535.46,949.292 1534.95,947.235C1534.44,945.179 1533.74,943.532 1532.84,942.295C1531.88,940.996 1530.8,940.092 1529.6,939.581C1528.39,939.071 1527.01,938.816 1525.47,938.816C1524.01,938.816 1522.7,939.04 1521.52,939.489C1520.35,939.937 1519.27,940.795 1518.28,942.063C1517.35,943.269 1516.61,944.924 1516.05,947.026C1515.49,949.129 1515.21,951.773 1515.21,954.958C1515.21,958.144 1515.48,960.718 1516,962.682C1516.53,964.646 1517.21,966.215 1518.04,967.39C1518.91,968.596 1519.99,969.478 1521.29,970.034C1522.59,970.591 1524.03,970.869 1525.61,970.869C1526.9,970.869 1528.23,970.591 1529.57,970.034C1530.92,969.478 1531.99,968.643 1532.8,967.529C1533.75,966.2 1534.48,964.599 1534.98,962.728C1535.47,960.857 1535.72,958.267 1535.72,954.958ZM1609.8,980.889L1593.47,980.889L1593.47,955.051C1593.47,952.948 1593.38,950.853 1593.21,948.766C1593.04,946.678 1592.73,945.14 1592.26,944.15C1591.71,942.975 1590.9,942.133 1589.85,941.622C1588.8,941.112 1587.39,940.857 1585.63,940.857C1584.3,940.857 1582.95,941.104 1581.59,941.599C1580.23,942.094 1578.78,942.882 1577.23,943.965L1577.23,980.889L1561,980.889L1561,928.796L1577.23,928.796L1577.23,934.548C1579.89,932.291 1582.48,930.528 1585,929.26C1587.52,927.992 1590.32,927.358 1593.38,927.358C1598.69,927.358 1602.76,929.036 1605.58,932.391C1608.39,935.747 1609.8,940.61 1609.8,946.98L1609.8,980.889ZM1644.08,982.141C1638.79,982.141 1634.14,981.631 1630.14,980.61C1626.13,979.59 1622.41,978.322 1618.98,976.807L1618.98,960.386L1620.56,960.386C1624.02,963.324 1627.84,965.581 1632.02,967.158C1636.19,968.735 1640.24,969.524 1644.17,969.524C1645.16,969.524 1646.47,969.416 1648.09,969.199C1649.71,968.983 1651.02,968.643 1652.01,968.179C1653.22,967.653 1654.24,966.919 1655.07,965.975C1655.91,965.032 1656.32,963.787 1656.32,962.241C1656.32,960.509 1655.64,959.102 1654.28,958.02C1652.92,956.938 1651.3,956.149 1649.41,955.654C1647.06,955.036 1644.55,954.448 1641.87,953.892C1639.2,953.335 1636.7,952.655 1634.38,951.851C1629.03,949.964 1625.2,947.428 1622.88,944.243C1620.56,941.058 1619.4,937.069 1619.4,932.275C1619.4,925.812 1622.14,920.578 1627.61,916.573C1633.08,912.569 1639.92,910.566 1648.11,910.566C1652.23,910.566 1656.32,910.984 1660.38,911.819C1664.45,912.654 1668.09,913.783 1671.31,915.205L1671.31,930.977L1669.78,930.977C1667.21,928.781 1664.08,926.925 1660.38,925.41C1656.69,923.895 1652.89,923.137 1648.99,923.137C1647.48,923.137 1646.12,923.245 1644.91,923.462C1643.71,923.678 1642.44,924.096 1641.11,924.714C1640.03,925.209 1639.09,925.944 1638.3,926.918C1637.51,927.892 1637.12,928.982 1637.12,930.188C1637.12,931.951 1637.75,933.35 1639,934.386C1640.25,935.422 1642.67,936.357 1646.26,937.192C1648.58,937.718 1650.81,938.228 1652.96,938.723C1655.11,939.218 1657.41,939.898 1659.85,940.764C1664.64,942.496 1668.21,944.823 1670.54,947.745C1672.88,950.668 1674.04,954.526 1674.04,959.319C1674.04,966.184 1671.35,971.704 1665.95,975.879C1660.55,980.054 1653.26,982.141 1644.08,982.141ZM1701.92,981.909C1695.3,981.909 1690.49,980.549 1687.47,977.827C1684.46,975.106 1682.95,970.653 1682.95,964.468L1682.95,940.115L1676.73,940.115L1676.73,928.796L1682.95,928.796L1682.95,913.906L1699.18,913.906L1699.18,928.796L1714.82,928.796L1714.82,940.115L1699.18,940.115L1699.18,958.577C1699.18,960.401 1699.2,961.994 1699.23,963.354C1699.26,964.715 1699.51,965.937 1699.97,967.019C1700.41,968.101 1701.17,968.96 1702.27,969.594C1703.37,970.227 1704.97,970.544 1707.07,970.544C1707.94,970.544 1709.07,970.359 1710.48,969.988C1711.89,969.617 1712.87,969.277 1713.42,968.967L1714.82,968.967L1714.82,980.425C1713.05,980.889 1711.18,981.252 1709.2,981.515C1707.23,981.778 1704.8,981.909 1701.92,981.909ZM1750.16,967.297L1750.16,956.443C1747.41,956.721 1745.18,956.961 1743.48,957.162C1741.78,957.363 1740.11,957.757 1738.47,958.345C1737.05,958.84 1735.95,959.589 1735.16,960.594C1734.37,961.6 1733.98,962.937 1733.98,964.607C1733.98,967.05 1734.63,968.728 1735.95,969.64C1737.26,970.552 1739.2,971.008 1741.77,971.008C1743.19,971.008 1744.64,970.684 1746.13,970.034C1747.61,969.385 1748.96,968.472 1750.16,967.297ZM1750.16,975.369C1749.05,976.296 1748.05,977.131 1747.17,977.874C1746.29,978.616 1745.11,979.358 1743.62,980.1C1742.17,980.811 1740.76,981.353 1739.38,981.724C1738,982.095 1736.08,982.28 1733.6,982.28C1729,982.28 1725.17,980.734 1722.12,977.642C1719.08,974.549 1717.55,970.653 1717.55,965.952C1717.55,962.087 1718.33,958.963 1719.87,956.582C1721.42,954.201 1723.65,952.314 1726.55,950.923C1729.49,949.5 1733,948.511 1737.08,947.954C1741.16,947.397 1745.56,946.965 1750.26,946.655L1750.26,946.377C1750.26,943.501 1749.2,941.514 1747.08,940.416C1744.96,939.318 1741.78,938.77 1737.55,938.77C1735.63,938.77 1733.39,939.117 1730.82,939.813C1728.25,940.509 1725.75,941.398 1723.31,942.48L1721.91,942.48L1721.91,929.91C1723.52,929.446 1726.12,928.897 1729.71,928.263C1733.29,927.629 1736.91,927.312 1740.56,927.312C1749.53,927.312 1756.06,928.804 1760.16,931.788C1764.26,934.773 1766.31,939.326 1766.31,945.449L1766.31,980.889L1750.16,980.889L1750.16,975.369ZM1798.27,981.909C1791.65,981.909 1786.83,980.549 1783.82,977.827C1780.8,975.106 1779.29,970.653 1779.29,964.468L1779.29,940.115L1773.08,940.115L1773.08,928.796L1779.29,928.796L1779.29,913.906L1795.53,913.906L1795.53,928.796L1811.16,928.796L1811.16,940.115L1795.53,940.115L1795.53,958.577C1795.53,960.401 1795.55,961.994 1795.58,963.354C1795.61,964.715 1795.85,965.937 1796.32,967.019C1796.75,968.101 1797.52,968.96 1798.62,969.594C1799.71,970.227 1801.31,970.544 1803.42,970.544C1804.28,970.544 1805.42,970.359 1806.83,969.988C1808.23,969.617 1809.21,969.277 1809.77,968.967L1811.16,968.967L1811.16,980.425C1809.4,980.889 1807.53,981.252 1805.55,981.515C1803.57,981.778 1801.14,981.909 1798.27,981.909ZM1834.03,980.889L1817.8,980.889L1817.8,928.796L1834.03,928.796L1834.03,980.889ZM1834.5,921.375L1817.33,921.375L1817.33,908.711L1834.5,908.711L1834.5,921.375ZM1896.47,954.866C1896.47,963.432 1894.12,970.181 1889.44,975.114C1884.76,980.046 1878.13,982.512 1869.56,982.512C1861.06,982.512 1854.45,980.046 1849.73,975.114C1845.02,970.181 1842.66,963.432 1842.66,954.866C1842.66,946.207 1845.02,939.427 1849.73,934.525C1854.45,929.624 1861.06,927.173 1869.56,927.173C1878.1,927.173 1884.72,929.639 1889.42,934.572C1894.12,939.504 1896.47,946.269 1896.47,954.866ZM1879.81,954.958C1879.81,951.866 1879.56,949.292 1879.05,947.235C1878.54,945.179 1877.84,943.532 1876.94,942.295C1875.98,940.996 1874.9,940.092 1873.69,939.581C1872.49,939.071 1871.11,938.816 1869.56,938.816C1868.11,938.816 1866.8,939.04 1865.62,939.489C1864.44,939.937 1863.36,940.795 1862.37,942.063C1861.44,943.269 1860.7,944.924 1860.15,947.026C1859.59,949.129 1859.31,951.773 1859.31,954.958C1859.31,958.144 1859.57,960.718 1860.1,962.682C1860.63,964.646 1861.31,966.215 1862.14,967.39C1863.01,968.596 1864.09,969.478 1865.39,970.034C1866.69,970.591 1868.12,970.869 1869.7,970.869C1871,970.869 1872.32,970.591 1873.67,970.034C1875.01,969.478 1876.09,968.643 1876.89,967.529C1877.85,966.2 1878.58,964.599 1879.07,962.728C1879.57,960.857 1879.81,958.267 1879.81,954.958ZM1953.89,980.889L1937.57,980.889L1937.57,955.051C1937.57,952.948 1937.48,950.853 1937.31,948.766C1937.14,946.678 1936.82,945.14 1936.36,944.15C1935.8,942.975 1935,942.133 1933.95,941.622C1932.9,941.112 1931.49,940.857 1929.73,940.857C1928.4,940.857 1927.05,941.104 1925.69,941.599C1924.33,942.094 1922.88,942.882 1921.33,943.965L1921.33,980.889L1905.1,980.889L1905.1,928.796L1921.33,928.796L1921.33,934.548C1923.99,932.291 1926.58,930.528 1929.1,929.26C1931.62,927.992 1934.41,927.358 1937.47,927.358C1942.79,927.358 1946.86,929.036 1949.67,932.391C1952.49,935.747 1953.89,940.61 1953.89,946.98L1953.89,980.889ZM1995.55,956.86L1964.8,956.86L1964.8,943.965L1995.55,943.965L1995.55,956.86ZM2069.49,946.423C2069.49,952.856 2068.08,958.615 2065.27,963.702C2062.45,968.789 2058.9,972.694 2054.6,975.415C2051.01,977.734 2047.11,979.226 2042.89,979.891C2038.67,980.556 2034.17,980.889 2029.41,980.889L2007.8,980.889L2007.8,911.819L2029.23,911.819C2034.08,911.819 2038.63,912.128 2042.86,912.747C2047.1,913.365 2051.07,914.865 2054.78,917.246C2059.33,920.153 2062.92,924.073 2065.55,929.005C2068.18,933.938 2069.49,939.744 2069.49,946.423ZM2051.68,946.284C2051.68,941.738 2050.9,937.85 2049.34,934.618C2047.77,931.386 2045.37,928.858 2042.12,927.034C2039.77,925.735 2037.31,925.024 2034.72,924.9C2032.14,924.776 2029.06,924.714 2025.47,924.714L2025.14,924.714L2025.14,967.947L2025.47,967.947C2029.37,967.947 2032.65,967.877 2035.33,967.738C2038,967.599 2040.54,966.772 2042.96,965.256C2045.8,963.463 2047.97,960.989 2049.45,957.834C2050.93,954.68 2051.68,950.83 2051.68,946.284ZM2079.74,980.889L2079.74,911.819L2126.45,911.819L2126.45,924.993L2097,924.993L2097,937.1L2124.13,937.1L2124.13,950.273L2097,950.273L2097,967.715L2126.45,967.715L2126.45,980.889L2079.74,980.889ZM2237.26,340.74C2225.47,329.31 2216.31,316.147 2209.79,301.252C2203.26,286.357 2200,270.27 2200,252.99L2200,125.01C2200,107.73 2203.2,91.8 2209.59,77.22C2215.97,62.64 2225.2,49.32 2237.26,37.26C2249.32,25.2 2262.66,15.975 2277.29,9.585C2291.91,3.195 2307.82,0 2325.01,0L2558.83,0C2576.02,0 2591.93,3.195 2606.55,9.585C2621.18,15.975 2634.52,25.2 2646.58,37.26C2658.64,49.32 2667.87,62.64 2674.26,77.22C2680.64,91.8 2683.84,107.73 2683.84,125.01L2683.84,252.99C2683.84,270.27 2680.58,286.357 2674.05,301.252C2667.53,316.147 2658.37,329.31 2646.58,340.74C2640.91,346.23 2634.74,351.27 2628.09,355.86C2621.43,360.45 2614.38,364.387 2606.96,367.672C2599.53,370.957 2591.79,373.5 2583.74,375.3C2575.68,377.1 2567.38,378 2558.83,378L2325.01,378C2316.46,378 2308.16,377.1 2300.1,375.3C2292.05,373.5 2284.31,370.957 2276.88,367.672C2269.46,364.387 2262.41,360.45 2255.76,355.86C2249.1,351.27 2242.93,346.23 2237.26,340.74ZM2278.84,259.605C2278.84,265.545 2280.14,271.282 2282.76,276.817C2285.37,282.352 2288.81,287.257 2293.08,291.532C2297.36,295.807 2302.26,299.25 2307.8,301.86C2313.33,304.47 2319.07,305.775 2325.01,305.775L2558.83,305.775C2564.77,305.775 2570.51,304.47 2576.04,301.86C2581.58,299.25 2586.48,295.807 2590.76,291.532C2595.03,287.257 2598.47,282.352 2601.09,276.817C2603.7,271.282 2605,265.545 2605,259.605L2605,118.395C2605,112.005 2603.81,105.997 2601.42,100.373C2599.04,94.747 2595.75,89.843 2591.57,85.658C2587.38,81.473 2582.48,78.187 2576.85,75.803C2571.23,73.417 2565.22,72.225 2558.83,72.225L2325.01,72.225C2318.62,72.225 2312.61,73.417 2306.99,75.803C2301.36,78.187 2296.46,81.473 2292.27,85.658C2288.09,89.843 2284.8,94.747 2282.42,100.373C2280.03,105.997 2278.84,112.005 2278.84,118.395L2278.84,259.605ZM1693.34,0L2030.43,0C2043.12,0 2054.71,1.53 2065.19,4.59C2075.68,7.65 2085.13,11.835 2093.54,17.145C2101.96,22.455 2109.29,28.755 2115.55,36.045C2121.8,43.335 2127,51.232 2131.14,59.738C2135.28,68.242 2138.39,77.152 2140.45,86.467C2142.53,95.783 2143.51,105.165 2143.43,114.615C2143.43,124.245 2142.39,133.785 2140.32,143.235C2138.25,152.685 2135.14,161.662 2131.01,170.167C2126.87,178.672 2121.67,186.525 2115.41,193.725C2109.16,200.925 2101.85,207.157 2093.47,212.422C2085.11,217.687 2075.68,221.805 2065.19,224.775C2054.71,227.745 2043.12,229.23 2030.43,229.23L2028.94,229.23L2150.45,378L2052.57,378L1931.07,229.23L1728.98,229.23L1728.98,378L1650.13,378L1650,43.335C1650,36.855 1651.04,30.96 1653.11,25.65C1655.17,20.34 1658.12,15.772 1661.95,11.948C1665.77,8.122 1670.34,5.175 1675.65,3.105C1680.96,1.035 1686.86,0 1693.34,0ZM2028.94,157.005C2034.8,157.005 2039.92,155.79 2044.34,153.36C2048.74,150.93 2052.43,147.735 2055.41,143.775C2058.38,139.815 2060.6,135.292 2062.09,130.207C2063.57,125.122 2064.34,119.925 2064.38,114.615C2064.43,109.305 2063.73,104.107 2062.29,99.022C2060.85,93.937 2058.67,89.415 2055.74,85.455C2052.82,81.495 2049.13,78.3 2044.67,75.87C2040.22,73.44 2034.98,72.225 2028.94,72.225L1728.98,72.225L1728.98,157.005L2028.94,157.005ZM1100,72.225L1100,-0L1583.84,-0L1583.84,72.225L1381.48,72.225L1381.48,378L1302.5,378L1302.5,72.225L1100,72.225ZM550,334.665L550,43.335C550,36.855 551.035,30.96 553.105,25.65C555.175,20.34 558.123,15.772 561.947,11.947C565.773,8.122 570.34,5.175 575.65,3.105C580.96,1.035 586.855,-0 593.335,-0L1033.7,-0L1033.7,72.225L628.975,72.225L628.975,148.77L984.565,148.77L984.565,220.995L628.975,220.995L628.975,305.775L1033.7,305.775L1033.7,378L593.335,378C586.855,378 580.96,376.965 575.65,374.895C570.34,372.825 565.773,369.877 561.947,366.052C558.123,362.227 555.175,357.66 553.105,352.35C551.035,347.04 550,341.145 550,334.665ZM43.335,0L380.43,0C393.12,0 404.708,1.53 415.192,4.59C425.678,7.65 435.128,11.835 443.542,17.145C451.958,22.455 459.293,28.755 465.547,36.045C471.803,43.335 477,51.232 481.14,59.737C485.28,68.242 488.385,77.152 490.455,86.467C492.525,95.782 493.515,105.165 493.425,114.615C493.425,124.245 492.39,133.785 490.32,143.235C488.25,152.685 485.145,161.662 481.005,170.167C476.865,178.672 471.668,186.525 465.412,193.725C459.158,200.925 451.845,207.157 443.475,212.422C435.105,217.687 425.678,221.805 415.192,224.775C404.708,227.745 393.12,229.23 380.43,229.23L378.945,229.23L500.445,378L402.57,378L281.07,229.23L78.975,229.23L78.975,378L0.135,378L-0,43.335C-0,36.855 1.035,30.96 3.105,25.65C5.175,20.34 8.123,15.772 11.947,11.947C15.773,8.122 20.34,5.175 25.65,3.105C30.96,1.035 36.855,0 43.335,0ZM378.945,157.005C384.795,157.005 389.925,155.79 394.335,153.36C398.745,150.93 402.435,147.735 405.405,143.775C408.375,139.815 410.602,135.292 412.087,130.207C413.572,125.122 414.338,119.925 414.382,114.615C414.428,109.305 413.73,104.107 412.29,99.022C410.85,93.937 408.668,89.415 405.742,85.455C402.818,81.495 399.127,78.3 394.672,75.87C390.217,73.44 384.975,72.225 378.945,72.225L78.975,72.225L78.975,157.005L378.945,157.005Z" style="fill:url(#_Linear2);fill-rule:nonzero;"/>
    <defs>
        <linearGradient id="_Linear1" x1="0" y1="0" x2="1" y2="0" gradientUnits="userSpaceOnUse" gradientTransform="matrix(282.082,0,0,150,0,75)"><stop offset="0" style="stop-color:rgb(201,87,230);stop-opacity:1"/><stop offset="0.01" style="stop-color:rgb(201,87,230);stop-opacity:1"/><stop offset="0.9" style="stop-color:rgb(26,159,255);stop-opacity:1"/><stop offset="1" style="stop-color:rgb(26,159,255);stop-opacity:1"/></linearGradient>
        <linearGradient id="_Linear2" x1="0" y1="0" x2="1" y2="0" gradientUnits="userSpaceOnUse" gradientTransform="matrix(2683.84,0,0,1000,-2.30926e-13,500)"><stop offset="0" style="stop-color:rgb(201,87,230);stop-opacity:1"/><stop offset="0.01" style="stop-color:rgb(201,87,230);stop-opacity:1"/><stop offset="0.9" style="stop-color:rgb(26,159,255);stop-opacity:1"/><stop offset="1" style="stop-color:rgb(26,159,255);stop-opacity:1"/></linearGradient>
    </defs>
</svg>
