<svg height="48pt" viewBox="0 0 48 48" width="48pt" xmlns="http://www.w3.org/2000/svg" xmlns:xlink="http://www.w3.org/1999/xlink"><linearGradient id="a" gradientTransform="matrix(48.573 11.542 -6.098 25.664 4.037 6.153)" gradientUnits="userSpaceOnUse" x1="0" x2="1" y1=".5" y2=".5"><stop offset="0" stop-color="#b2fefa"/><stop offset=".98260869565" stop-color="#0ed2f7"/></linearGradient><path d="m45.29 35.654c-1.256-4.657-2.478-8.063-4.97-11.82-.802-1.208-1.573-2.301-2.406-3.316l.001.001s-.007-.008-.019-.022c-.015-.019-.03-.037-.045-.055-.308-.381-1.589-2.109-.667-3.461 1.013-1.484 4.702-1.379 4.702-1.379s-1.584-.995-4.646-1.518c-2.874-.491-5.81.56-6.341.68-1.421-.799-3.068-1.597-5.02-2.425-6.752-2.866-13.159-2.378-16.64-1.014-4.562 1.787-5.055 4.346-5.679 5.536-.449.856-3.242 2.106-2.673 3.283.355.735 2.221.295 3.697.061 1.552-.245 1.736-.536 5.738-.194 1.841.157 3.73.526 5.126.845.27 1.274 1.059 3.947 3.126 5.631 2.791 2.273 6.735 3.19 6.735 3.19s-2.04-1.479-3.102-3.202c-.723-1.173-.607-2.667-.46-3.501l.008.003c2.179.975 4.098 1.762 8.43 4.72 3.791 2.588 6.088 5.588 6.088 5.588s-2.061-4.349-6.425-7.961c-3.583-2.966-6.68-4.747-11.244-6.068-4.988-1.444-8.861-1.68-8.861-1.68s.637-2.217 4.872-3.099c3.682-.767 8.956.211 14.574 3.158 7.939 4.164 9.948 8.52 12.682 13.177 2.909 4.957 4.64 12.547 4.64 12.547s-.178-3.835-1.221-7.705z" fill="url(#a)"/></svg>