<?xml version="1.0" encoding="UTF-8" standalone="no"?>
<svg
   viewBox="0 0 48 48"
   version="1.1"
   id="svg1"
   sodipodi:docname="retroarch2.svg"
   inkscape:version="1.3.2 (091e20ef0f, 2023-11-25, custom)"
   xmlns:inkscape="http://www.inkscape.org/namespaces/inkscape"
   xmlns:sodipodi="http://sodipodi.sourceforge.net/DTD/sodipodi-0.dtd"
   xmlns="http://www.w3.org/2000/svg"
   xmlns:svg="http://www.w3.org/2000/svg">
  <defs
     id="defs1" />
  <sodipodi:namedview
     id="namedview1"
     pagecolor="#ffffff"
     bordercolor="#000000"
     borderopacity="0.25"
     inkscape:showpageshadow="2"
     inkscape:pageopacity="0.0"
     inkscape:pagecheckerboard="0"
     inkscape:deskcolor="#d1d1d1"
     inkscape:zoom="40.25"
     inkscape:cx="23.987578"
     inkscape:cy="24"
     inkscape:window-width="3840"
     inkscape:window-height="2136"
     inkscape:window-x="0"
     inkscape:window-y="0"
     inkscape:window-maximized="1"
     inkscape:current-layer="svg1" />
  <path
     d="m15.74 12.05h3.12l2.53 4.38h5.22l2.53-4.38h3.12l-2.53 4.38h3.94l1.73 6.48h4.11l-1.61-6h3.16l1.62 6 .82 3.09h-7.28l1.32 4.9h-5l3.43 5.95h-4.56l-3.41-5.98h-8l-3.43 5.95h-4.5l3.43-5.95h-5l1.28-4.87h-7.28l.82-3.06 1.62-6h3.16l-1.61 6h4.11l1.73-6.48h3.94l-2.53-4.38zm.89 6.66v4.41h4.37v-4.41zm10.34 0v4.41h4.4v-4.41z"
     fill="none"
     stroke="#000"
     stroke-linecap="round"
     stroke-linejoin="round"
     id="path1"
     style="fill:#ffffff;fill-opacity:1" />
</svg>
