<svg width="433.93" height="433.93" xmlns:xlink="http://www.w3.org/1999/xlink" xmlns="http://www.w3.org/2000/svg"><defs><radialGradient id="j" cx="0" cy="0" r="1" fx=".339" fy="-.553" gradientTransform="matrix(135.72 53.102 32.823 -83.888 479.47 287.23)" gradientUnits="userSpaceOnUse"><stop stop-color="#ffff87" offset="0"/><stop stop-color="#ffff87" offset=".126"/><stop stop-color="#ffc503" offset=".144"/><stop stop-color="#ffc503" offset=".216"/><stop stop-color="#ffc503" offset=".395"/><stop stop-color="#ffc503" offset=".441"/><stop stop-color="#ffc003" offset=".5"/><stop stop-color="#ffc003" offset=".628"/><stop stop-color="#ffc003" offset=".729"/><stop stop-color="#ff8904" stop-opacity=".869" offset=".849"/><stop stop-color="#ff8904" offset=".987"/><stop stop-color="#ff8904" offset="1"/></radialGradient><radialGradient id="b" cx="-.042" cy=".043" r="1" gradientTransform="scale(126.604 -126.604) rotate(39.987 6.737 3.895)" gradientUnits="userSpaceOnUse"><stop stop-color="#ff0" offset="0"/><stop stop-color="#ffba05" offset=".666"/><stop stop-color="#ffba05" offset="1"/></radialGradient><radialGradient id="c" cx="0" cy="0" r="1" gradientTransform="scale(-92.677 92.677) rotate(-82.34 -.07 5.315)" gradientUnits="userSpaceOnUse"><stop stop-color="#ff0" offset="0"/><stop stop-color="#ffba05" offset="1"/></radialGradient><radialGradient id="d" cx="0" cy="0" r="1" fx="-.892" fy="-.452" gradientTransform="matrix(58.797 44.174 44.174 -58.797 591.5 452.83)" gradientUnits="userSpaceOnUse"><stop stop-color="#ff0" offset="0"/><stop stop-color="#ffba05" offset="1"/></radialGradient><radialGradient id="e" cx="0" cy="0" r="1" gradientTransform="scale(-82.392 82.392) rotate(-39.105 4.252 10.756)" gradientUnits="userSpaceOnUse"><stop stop-color="#ff0" offset="0"/><stop stop-color="#ffba05" offset="1"/></radialGradient><radialGradient id="f" cx="-.277" cy="-.013" r="1" gradientTransform="matrix(166.21 117.68 75.941 -107.26 545.45 466.23)" gradientUnits="userSpaceOnUse"><stop stop-color="#ff0" offset="0"/><stop stop-color="#ffee05" offset=".497"/><stop stop-color="#ffba05" offset="1"/></radialGradient><radialGradient id="g" cx=".069" cy=".001" r="1" gradientTransform="matrix(92.166 1.56 1.3981 -82.601 484.17 431.17)" gradientUnits="userSpaceOnUse"><stop stop-color="#ff0" offset="0"/><stop stop-color="#ffba05" offset="1"/></radialGradient><radialGradient id="h" cx="0" cy="0" r="1" gradientTransform="matrix(112.47 78.731 51.056 -72.937 527.5 460.5)" gradientUnits="userSpaceOnUse"><stop stop-color="#ff0" offset="0"/><stop stop-color="#ffba05" offset="1"/></radialGradient><radialGradient id="i" cx=".132" cy="-.001" r="1" fx="-.08" fy=".039" gradientTransform="matrix(64.042 -58.572 -66.76 -72.994 505.91 439.83)" gradientUnits="userSpaceOnUse"><stop stop-color="#ff0" offset="0"/><stop stop-color="#ffcf05" offset=".63"/><stop stop-color="#ffcf05" offset="1"/></radialGradient><radialGradient id="p" cx="698.21" cy="478.94" r="186.38" gradientTransform="matrix(1.2034 -.41433 .38181 1.1089 -338.27 245.75)" gradientUnits="userSpaceOnUse"><stop stop-color="#f15a24" stop-opacity="0" offset="0"/><stop stop-color="#f15a24" stop-opacity="0" offset=".685"/><stop stop-color="#f14a24" offset="1"/></radialGradient><linearGradient id="a"><stop stop-color="#f15a24" offset="0"/><stop stop-color="#f15a24" stop-opacity="0" offset="1"/></linearGradient><linearGradient id="k" x1="382.8" x2="662.93" y1="393.32" y2="393.32" gradientUnits="userSpaceOnUse" xlink:href="#a"/><linearGradient xlink:href="#a" id="o" gradientUnits="userSpaceOnUse" x1="382.8" y1="393.32" x2="662.93" y2="393.32"/><linearGradient xlink:href="#a" id="n" gradientUnits="userSpaceOnUse" x1="382.8" y1="393.32" x2="662.93" y2="393.32"/><linearGradient xlink:href="#a" id="m" gradientUnits="userSpaceOnUse" x1="382.8" y1="393.32" x2="662.93" y2="393.32"/><clipPath id="l"><path d="M640.25 512.56c.366-.686 1.015-1.901 1.507-3.229.237-.588.284-.774.375-1.057.174-.52.277-.819.368-1.099.09-.28.019-.115.107-.392.087-.277.181-.577.264-.852.082-.276.15-.659.224-.934.076-.276.167-.604.233-.881.066-.276.257-1.337.312-1.615.316-1.599.241-2.12.401-3.701.16-1.58.244-3.151.26-4.712a54.705 54.705 0 00-.154-4.66 59.33 59.33 0 00-.533-4.61 65.494 65.494 0 00-.877-4.562 74.494 74.494 0 00-1.184-4.518c-.442-1.5-.93-2.992-1.457-4.478a104.304 104.304 0 00-1.694-4.438 140.583 140.583 0 00-3.805-8.51 147.745 147.745 0 00-4.302-8.169 160.267 160.267 0 00-4.755-7.858 178.142 178.142 0 00-5.165-7.574 201.52 201.52 0 00-5.53-7.318c-1.9-2.4-3.853-4.762-5.852-7.09a268.79 268.79 0 00-6.129-6.89 324.398 324.398 0 00-6.362-6.72 277.805 277.805 0 00-6.76-6.714 290.808 290.808 0 00-6.961-6.47 306.226 306.226 0 00-7.152-6.237 324.926 324.926 0 00-7.334-6.016 343.895 343.895 0 00-7.504-5.806 365.084 365.084 0 00-7.664-5.609 393.526 393.526 0 00-7.816-5.423 413.737 413.737 0 00-7.957-5.247 325.225 325.225 0 00-10.058-6.225 305.995 305.995 0 00-10.232-5.813 285.632 285.632 0 00-10.416-5.38 268.036 268.036 0 00-10.611-4.924 252.218 252.218 0 00-16.384-6.51 239.711 239.711 0 00-16.731-5.3 234.18 234.18 0 00-11.502-2.872 139.08 139.08 0 00-9.762-1.823 129.283 129.283 0 00-4.896-.638 122.452 122.452 0 00-9.822-.69c-1.639-.046-3.28-.058-4.923-.034a109.843 109.843 0 00-9.866.591 72.33 72.33 0 00-3.979.531 63.98 63.98 0 00-3.906.759 57.117 57.117 0 00-3.819 1.007c-1.256.38-2.496.805-3.717 1.278-1.22.475-2.422.997-3.602 1.571a44.693 44.693 0 00-3.471 1.884 42.734 42.734 0 00-3.326 2.22c-1.084.798-2.656 1.973-3.685 2.893l-3.143-7.259c-3.143-7.26 1.5-6 3.143-8.5 1.644-2.5.357-9 .217-15-.14-6 6.64-11.5 9.64-14.5 3-3.001 10-10.5 14.5-11.82 4.5-1.319 23.5-16.18 30-18.181 6.5-1.999 13.5-6.999 22-8.499 8.5-1.5 19-3 27.5-3s26.5-.5 38.5 0 27 3 33 4 20 2.5 27.5 4.5 23.5 8 27 11.5 28 13.999 33.5 20c5.5 6 24 39.5 25 45.5s14 47.499 17 53c3 5.5 0 39.499 0 45.5 0 6-10 45-10 45l-13.5 28.5-14 14.5z"/></clipPath></defs><path d="M180.02 415.68c-17.986-2.258-43.941-8.138-59.303-13.436-45.416-15.66-91.627-51.387-112.29-86.813-7.392-12.675-9.855-29.065-7.64-50.846 1.57-15.448 4.238-24.955 10.938-38.978 20.81-43.561 55.61-85.05 100.64-119.99 33.898-26.298 69.589-47.881 101.64-61.46 27.534-11.666 61.915-21.532 84.068-24.123 27.343-3.198 56.096 1.164 74.647 11.325 18.752 10.271 30.61 25.375 43.922 55.939 12.492 28.684 17.312 55.294 17.29 95.461-.015 34.075-4.172 58.552-14.29 84.174-8.401 21.279-21.717 44.014-36.541 62.391-6.601 8.182-26.727 28.053-35.45 35-19.832 15.793-45.654 30.387-66.248 37.441-17.156 5.877-39.99 11.132-59.144 13.612-9.676 1.253-33.307 1.42-42.243.298z" fill="#fff"/><path d="M508.37 418.38c-1.948-9.873-2.175-19.875-2.148-30.734.105-4.803-.008-10.436.607-16.082 1.248-11.467 5.143-14.109 15.617-9.51 17.862 7.84 33.696 18.829 47.854 32.241 3.988 3.779 8.185 7.422 11.089 12.202 2.673 4.397 2.097 6.88-2.266 9.608-1.396.873-2.949 1.54-4.502 2.103-5.181 1.881-10.542 3.121-15.918 4.281-12.621 2.721-25.222 5.644-38.216 5.823l-.239.001c-6.452 0-10.63-3.605-11.878-9.933" fill="url(#b)" transform="matrix(1.3333 0 0 -1.3333 -471.81 755.15)"/><path d="M492.04 416.52c-3.243-1.617-5.823-4.156-8.361-6.684-16.977-16.905-32.998-34.704-48.672-52.819-4.26-4.924-8.651-9.823-11.376-15.886-1.919-4.27-.934-6.454 3.654-7.668 4.725-1.249 9.544-1.787 14.436-1.358 11.696 1.026 22.799 4.32 33.655 8.677 10.044 4.032 16.339 11.18 18.544 21.838 2.891 13.979 3.907 28.175 4.618 42.392 0 2.182.021 4.364-.013 6.545-.01.636-.15 1.274-.276 1.902-.545 2.722-1.447 4.01-3.104 4.01-.83 0-1.848-.323-3.105-.949" fill="url(#c)" transform="matrix(1.3333 0 0 -1.3333 -471.81 755.15)"/><path d="M623.43 485.96c-2.879-.515-5.736-1.318-8.503-2.282-15.719-5.482-30.649-12.847-45.782-19.703-12.92-5.855-25.833-11.785-38.083-19.013-2.413-1.425-5.354-3.1-4.765-6.319.504-2.751 3.758-2.789 6.016-3.319 17.339-4.073 35.01-5.712 51.316-7.058 10.474.119 18.926 1.786 25.516 8.829 6.88 7.354 12.632 15.489 16.919 24.601 2.691 5.72 4.477 11.786 4.479 18.169.002 4.153-1.835 6.272-5.267 6.272-.571 0-1.188-.059-1.846-.177" fill="url(#d)" transform="matrix(1.3333 0 0 -1.3333 -471.81 755.15)"/><path d="M475.92 419.25c-.367-.104-.71-.292-1.065-.437-22.555-9.166-44.21-20.249-65.865-31.321-5.464-2.792-10.748-5.939-15.684-9.652-5.297-3.984-8.316-8.98-7.651-15.694 0-.89-.035-1.662.005-2.431.397-7.627 4.249-12.981 10.812-16.559 6.098-3.323 11.35-1.172 16.365 2.52 1.236.911 2.498 1.799 3.649 2.811 22.843 20.104 43.28 42.565 63.347 65.381 1.264 1.437 3.447 3.141 2.012 5.299-.613.922-1.333 1.232-2.102 1.231-1.232 0-2.589-.797-3.823-1.148" fill="url(#e)" transform="matrix(1.3333 0 0 -1.3333 -471.81 755.15)"/><path d="M589.81 520.12c-2.155-1.598-4.18-3.381-6.195-5.159-14.338-12.647-27.085-26.892-40.259-40.697-5.472-5.734-10.87-11.588-15.617-17.981-.828-1.116-1.856-2.369-.83-3.824.972-1.379 2.519-1.147 3.87-.737 1.831.556 3.62 1.272 5.386 2.018 23.705 10.024 46.647 21.655 69.496 33.464 6.568 3.394 13.185 6.854 18.588 12.131 2.02 1.974 3.277 4.24 3.342 7.436-.072 2.307-.943 4.698-2.221 6.96-4.063 7.191-12.308 11.156-20.705 11.156-5.215 0-10.489-1.53-14.855-4.767" fill="url(#f)" transform="matrix(1.3333 0 0 -1.3333 -471.81 755.15)"/><path d="M413.44 432.07c-5.861-6.67-11.407-13.524-15.914-21.172-2.874-4.876-5.175-10.064-6.355-15.632-.819-3.866.412-5.458 3.711-5.517 2.078.023 4.038.607 5.971 1.3 18.942 6.786 36.964 15.693 55.17 24.173 7.774 3.62 15.486 7.375 22.781 11.914 2.187 1.361 4.634 2.997 4.191 5.914-.396 2.604-3.356 2.319-5.257 3.169-.692.308-1.469.436-2.215.612-11.727 2.765-23.679 4.039-35.625 5.305a38.338 38.338 0 01-4.058.221c-8.707 0-16.182-3.211-22.4-10.287" fill="url(#g)" transform="matrix(1.3333 0 0 -1.3333 -471.81 755.15)"/><path d="M567.31 526.82c-14.169-1.46-27.39-6.06-40.199-12.109-7.73-3.652-12.567-9.493-14.146-17.954-1.793-9.597-3.042-19.253-2.904-29.045 0-2.697-.068-5.395.022-8.089.067-1.997-.399-4.391 1.83-5.503 2.219-1.108 4.351.084 6.055 1.392 2.834 2.177 5.567 4.529 8.099 7.054 14.061 14.024 27.283 28.841 40.42 43.726 4.051 4.589 8.321 9.1 10.964 14.772 1.594 3.423.812 4.978-2.88 5.7-1.112.218-2.231.3-3.353.3-1.302 0-2.607-.11-3.908-.244" fill="url(#h)" transform="matrix(1.3333 0 0 -1.3333 -471.81 755.15)"/><path d="M493.43 497.7c-3.943-1.236-7.454-3.334-11.002-5.368-14.602-8.364-28.162-18.128-39.782-30.405-5.392-5.696-4.536-9.429 2.935-11.564 13.892-3.97 27.998-7.036 42.519-7.395 7.646-.189 11.495 3.378 12.86 10.836 1.395 7.615 1.69 15.275 1.485 25.395-.22 3.072.784 8.645-.687 14.051-.943 3.472-2.527 5.026-5.134 5.025-.929 0-1.988-.197-3.194-.575" fill="url(#i)" transform="matrix(1.3333 0 0 -1.3333 -471.81 755.15)"/><path d="M641.75 509.34c.237-.588.284-.774.375-1.057.174-.52.277-.819.368-1.099.09-.28.019-.115.107-.392.087-.277.181-.577.264-.852.082-.276.15-.659.224-.934.076-.276.167-.604.233-.881.066-.276.257-1.337.312-1.615.316-1.599.241-2.12.401-3.701.16-1.58.244-3.151.26-4.712a54.705 54.705 0 00-.154-4.66 59.33 59.33 0 00-.533-4.61 65.494 65.494 0 00-.877-4.562 74.494 74.494 0 00-1.184-4.518c-.442-1.5-.93-2.992-1.457-4.478a104.304 104.304 0 00-1.694-4.438 140.583 140.583 0 00-3.805-8.51 147.745 147.745 0 00-4.302-8.169 160.267 160.267 0 00-4.755-7.858 178.142 178.142 0 00-5.165-7.574 201.52 201.52 0 00-5.53-7.318c-1.9-2.4-3.853-4.762-5.852-7.09a268.79 268.79 0 00-6.129-6.89 324.398 324.398 0 00-6.362-6.72 277.805 277.805 0 00-6.76-6.714 290.808 290.808 0 00-6.961-6.47 306.226 306.226 0 00-7.152-6.237 324.926 324.926 0 00-7.334-6.016 343.895 343.895 0 00-7.504-5.806 365.084 365.084 0 00-7.664-5.609 393.526 393.526 0 00-7.816-5.423 413.737 413.737 0 00-7.957-5.247 325.225 325.225 0 00-10.058-6.225 305.995 305.995 0 00-10.232-5.813 285.632 285.632 0 00-10.416-5.38 268.036 268.036 0 00-10.611-4.924 252.218 252.218 0 00-16.384-6.51 239.711 239.711 0 00-16.731-5.3 234.18 234.18 0 00-11.502-2.872 139.08 139.08 0 00-9.762-1.823 129.283 129.283 0 00-4.896-.638 122.452 122.452 0 00-9.822-.69c-1.639-.046-3.28-.058-4.923-.034a109.843 109.843 0 00-9.866.591 72.33 72.33 0 00-3.979.531 63.98 63.98 0 00-3.906.759 57.117 57.117 0 00-3.819 1.007c-1.256.38-2.496.805-3.717 1.278-1.22.475-2.422.997-3.602 1.571-.749.365-1.489.751-2.22 1.159a43.217 43.217 0 00-4.877 3.11 43.23 43.23 0 00-2.194 1.731c-.282.225-.554.448-.806.662 5.18-5.701 10.508-11.008 15.987-15.904 5.538-4.95 11.227-9.48 17.07-13.573a161.243 161.243 0 0117.987-10.956 146.757 146.757 0 0118.901-8.236 140.527 140.527 0 0119.816-5.415 142.482 142.482 0 0120.731-2.495c7.063-.333 14.278-.163 21.645.528 7.368.692 14.887 1.904 22.56 3.654 8.186 1.866 15.978 4.164 23.376 6.884 7.397 2.719 14.401 5.861 21.012 9.414a147.457 147.457 0 0118.655 11.891 140.839 140.839 0 0116.304 14.311 143.678 143.678 0 0113.962 16.675c4.264 5.947 8.14 12.278 11.626 18.985 3.487 6.707 6.586 13.789 9.296 21.238 2.712 7.449 5.037 15.264 6.975 23.436.548 2.31 1.025 4.624 1.432 6.944.408 2.318.747 4.641 1.023 6.968.275 2.327.486 4.658.637 6.991.15 2.333.241 4.671.276 7.01a152.36 152.36 0 01-.061 7.024c-.074 2.345-.2 4.69-.374 7.037a178.597 178.597 0 01-.664 7.046 200.27 200.27 0 01-.928 7.049c-.39 2.617-.912 5.345-1.535 8.125a159.46 159.46 0 01-2.142 8.427 189.92 189.92 0 01-2.569 8.359 194.51 194.51 0 01-2.816 7.915 163.996 163.996 0 01-2.883 7.098 106.178 106.178 0 01-2.773 5.909c-.886 1.73-1.723 3.199-2.481 4.346a75.308 75.308 0 01-1.946 2.775c.215-.462.433-.967.627-1.49" fill="url(#j)" transform="matrix(1.3333 0 0 -1.3333 -471.81 755.15)"/><g clip-path="url(#l)" fill="url(#m)" transform="matrix(1.3333 0 0 -1.3333 -471.81 755.15)"><path d="M0 0c6.615-7.221 13.678-14.033 21.222-20.267 7.539-6.237 15.577-11.868 24.046-16.747 8.468-4.879 17.397-8.961 26.656-12.07a139.849 139.849 0 0128.533-6.374c9.697-1.126 19.503-1.24 29.23-.453 9.731.785 19.379 2.465 28.846 4.853 18.922 4.75 37.215 12.333 53.364 23.285a140.677 140.677 0 0122.33 18.787c6.768 7.012 12.789 14.739 18.015 22.967 10.462 16.478 17.733 34.859 22.474 53.789l.439 1.778.209.872.186.899.747 3.597.373 1.798.093.45.024.112c-.007-.038.007.055.01.076l.034.227.134.908.539 3.634.269 1.817c.077.534.118 1.199.18 1.791l.338 3.658.164 1.796.075 1.835.15 3.671c.264 9.752-.472 19.521-1.882 29.184-1.502 9.646-4.173 19.05-7.353 28.281l-1.228 3.463-.307.865-.144.409-.173.426-.689 1.702-1.379 3.405-.685 1.671-.778 1.664-1.557 3.327-.371.788-.455.798-.909 1.596-1.804 3.187C246.083 207.78 79.466-59.085-.104-.105zm-.008.008c92.186-40.479 231.35 107.76 257.54 180.96.828-.982 1.523-1.975 2.238-2.986.351-.52.707-.981 1.036-1.569l.913-1.594.912-1.594.457-.797c.183-.358.275-.576.417-.871l2.346-4.986c.271-.617.473-1.148.713-1.726l1.387-3.402.693-1.701.173-.425.164-.457.309-.865 1.235-3.459c3.22-9.271 5.937-18.782 7.475-28.508 1.444-9.716 2.213-19.555 1.972-29.393l-.14-3.671-.069-1.836-.164-1.863-.329-3.659c-.063-.625-.09-1.185-.183-1.864l-.264-1.818-.528-3.635-.132-.909-.033-.227-.024-.152-.023-.112-.092-.45-.369-1.8-.736-3.599-.185-.9-.216-.915-.436-1.79c-2.367-9.534-5.355-18.932-9.077-28.033-3.717-9.105-8.196-17.911-13.474-26.221-5.276-8.31-11.358-16.118-18.197-23.206a142.253 142.253 0 00-22.563-18.989c-8.15-5.528-16.852-10.229-25.9-14.096-9.054-3.857-18.44-6.901-27.983-9.247-9.54-2.354-19.27-3.997-29.075-4.737-9.804-.741-19.683-.576-29.444.61a140.857 140.857 0 00-28.694 6.565c-9.3 3.177-18.256 7.329-26.737 12.275-8.488 4.941-16.474 10.71-23.972 17.028C13.436-14.291 6.433-7.396-.111-.104z" fill="url(#o)" transform="translate(382.92 331.6)"/></g><path d="M512.59 583.25c24.074 19.047 61.695 18.896 102.99 7.79 41.299-11.105 86.278-33.164 124.63-62.438 43.462-33.178 74.436-61.06 97.049-98.852 10.211-17.065 16.881-32.679 20.405-47.4 3.524-14.72 2.135-27.046-3.417-40.626 0 0 22.052 31.822 28.025 81.607 2.986 24.893 1.448 59.407-11.26 93.337-11.843 31.622-27.743 61.223-54.874 85.55-1.03.924-12.207 12.478-32.938 24.374-25.596 14.688-46.884 22.5-75.534 27.634-34.926 6.259-59.47 4.452-85.833-1.81-36.815-8.747-71.794-28.543-110.24-69.042" fill="url(#p)" transform="translate(-471.81 -268.85)"/></svg>