<?xml version="1.0" encoding="UTF-8" standalone="no"?>
<svg
   id="svg29"
   version="1.1"
   viewBox="0 0 1280 800"
   sodipodi:docname="rd-april-fools-2026-splash.svg"
   inkscape:version="1.4.3 (0d15f75042, 2025-12-25)"
   xml:space="preserve"
   xmlns:inkscape="http://www.inkscape.org/namespaces/inkscape"
   xmlns:sodipodi="http://sodipodi.sourceforge.net/DTD/sodipodi-0.dtd"
   xmlns="http://www.w3.org/2000/svg"
   xmlns:svg="http://www.w3.org/2000/svg"><sodipodi:namedview
     id="namedview1"
     pagecolor="#ffffff"
     bordercolor="#000000"
     borderopacity="0.25"
     inkscape:showpageshadow="2"
     inkscape:pageopacity="0.0"
     inkscape:pagecheckerboard="0"
     inkscape:deskcolor="#d1d1d1"
     inkscape:zoom="1.0939022"
     inkscape:cx="852.45281"
     inkscape:cy="184.66002"
     inkscape:window-width="3840"
     inkscape:window-height="2082"
     inkscape:window-x="0"
     inkscape:window-y="0"
     inkscape:window-maximized="1"
     inkscape:current-layer="svg29" /><defs
     id="defs33"><rect
       x="647.10448"
       y="624.44874"
       width="72.21516"
       height="60.887292"
       id="rect1" /><linearGradient
       id="linearGradient21"
       x2="1"
       gradientTransform="matrix(282.08 0 0 150 0 75)"
       gradientUnits="userSpaceOnUse"><stop
         id="stop18"
         stop-color="#c957e6"
         offset="0" /><stop
         id="stop21"
         stop-color="#1a9fff"
         offset="0.56974316" /></linearGradient><linearGradient
       id="linearGradient10"
       inkscape:swatch="gradient"><stop
         style="stop-color:#000000;stop-opacity:1;"
         offset="0"
         id="stop10" /><stop
         style="stop-color:#000000;stop-opacity:0;"
         offset="1"
         id="stop11" /></linearGradient><linearGradient
       id="linearGradient8947"
       x1="44.404"
       x2="1324.4"
       y1="472.79"
       y2="472.79"
       gradientUnits="userSpaceOnUse"><stop
         id="stop8941"
         stop-color="#c957e6"
         offset="0"
         style="stop-color:#cd1e1e;stop-opacity:1;" /><stop
         id="stop8943"
         stop-color="#1a9fff"
         offset="1"
         style="stop-color:#fff01a;stop-opacity:1;" /></linearGradient><style
       id="style1">.a{fill:none;stroke:#000000;stroke-linecap:round;stroke-linejoin:round;}</style></defs><linearGradient
     id="_Linear1"
     x2="1"
     gradientTransform="matrix(282.08 0 0 150 0 75)"
     gradientUnits="userSpaceOnUse"><stop
       id="stop2"
       stop-color="#c957e6"
       offset="0" /><stop
       id="stop4"
       stop-color="#c957e6"
       offset=".01" /><stop
       id="stop6"
       stop-color="#1a9fff"
       offset="0.89999998"
       style="stop-color:#fff01a;stop-opacity:1;" /><stop
       id="stop8"
       stop-color="#1a9fff"
       offset="1"
       style="stop-color:#fff01a;stop-opacity:1;" /></linearGradient><g
     id="g8"
     transform="matrix(34.571045,0,0,21.525414,-190.70109,-115.35025)"
     style="stroke-width:0.0758552;stroke-dasharray:none;stroke:#ffffff;stroke-opacity:1;fill:none;fill-opacity:1"><path
       class="a"
       d="m 5.5,5.5 v 35 a 2,2 0 0 0 2,2 h 35"
       id="path1-2"
       style="stroke-width:0.0758552;stroke-dasharray:none;stroke:#ffffff;stroke-opacity:1;fill:none;fill-opacity:1" /><line
       class="a"
       x1="5.5"
       y1="36"
       x2="8.5"
       y2="36"
       id="line1"
       style="stroke-width:0.0758552;stroke-dasharray:none;stroke:#ffffff;stroke-opacity:1;fill:none;fill-opacity:1" /><line
       class="a"
       x1="5.5"
       y1="30"
       x2="8.5"
       y2="30"
       id="line2"
       style="stroke-width:0.0758552;stroke-dasharray:none;stroke:#ffffff;stroke-opacity:1;fill:none;fill-opacity:1" /><line
       class="a"
       x1="5.5"
       y1="24"
       x2="8.5"
       y2="24"
       id="line3"
       style="stroke-width:0.0758552;stroke-dasharray:none;stroke:#ffffff;stroke-opacity:1;fill:none;fill-opacity:1" /><line
       class="a"
       x1="5.5"
       y1="18"
       x2="8.5"
       y2="18"
       id="line4"
       style="stroke-width:0.0758552;stroke-dasharray:none;stroke:#ffffff;stroke-opacity:1;fill:none;fill-opacity:1" /><line
       class="a"
       x1="5.5"
       y1="12"
       x2="8.5"
       y2="12"
       id="line5"
       style="stroke-width:0.0758552;stroke-dasharray:none;stroke:#ffffff;stroke-opacity:1;fill:none;fill-opacity:1" /><circle
       class="a"
       cx="39"
       cy="12"
       r="3.5"
       id="circle5"
       style="stroke-width:0.0758552;stroke-dasharray:none;stroke:#ffffff;stroke-opacity:1;fill:none;fill-opacity:1" /><circle
       class="a"
       cx="33.279999"
       cy="25.08"
       r="3.5"
       id="circle6"
       style="stroke-width:0.0758552;stroke-dasharray:none;stroke:#ffffff;stroke-opacity:1;fill:none;fill-opacity:1" /><circle
       class="a"
       cx="21.85"
       cy="18"
       r="3.5"
       id="circle7"
       style="stroke-width:0.0758552;stroke-dasharray:none;stroke:#ffffff;stroke-opacity:1;fill:none;fill-opacity:1" /><circle
       class="a"
       cx="15.2"
       cy="33"
       r="3.5"
       id="circle8"
       style="stroke-width:0.0758552;stroke-dasharray:none;stroke:#ffffff;stroke-opacity:1;fill:none;fill-opacity:1" /><line
       class="a"
       x1="16.620001"
       y1="29.799999"
       x2="20.43"
       y2="21.200001"
       id="line8"
       style="stroke-width:0.0758552;stroke-dasharray:none;stroke:#ffffff;stroke-opacity:1;fill:none;fill-opacity:1" /><line
       class="a"
       x1="30.309999"
       y1="23.24"
       x2="24.82"
       y2="19.84"
       id="line9"
       style="stroke-width:0.0758552;stroke-dasharray:none;stroke:#ffffff;stroke-opacity:1;fill:none;fill-opacity:1" /><line
       class="a"
       x1="37.610001"
       y1="15.21"
       x2="34.73"
       y2="21.9"
       id="line10"
       style="stroke-width:0.0758552;stroke-dasharray:none;stroke:#ffffff;stroke-opacity:1;fill:none;fill-opacity:1" /></g><path
     fill="#000000"
     d="m 568.73531,615.03565 v 50.9874 h 116.62036 v -50.9874 z m 163.0389,51.91256 v 21.32309 h 16.98547 v -21.32307 z m -110.11467,7.41608 -4.90701,12.05299 h 20.58591 l -4.90701,-12.05299 z m -89.1551,20.39423 v 8.34496 h 243.4284 v -8.34496 z m 7.92778,16.68619 v 84.82239 h 10.18767 v -57.60025 l 33.24747,-27.22214 h -14.40912 l -18.83835,15.42407 v -15.42407 z m 164.16883,0 v 21.32311 h 53.21636 v -21.32311 z m 27.89379,3.24546 a 5.8150533,3.7080412 0 0 1 5.81506,3.70806 5.8150533,3.7080412 0 0 1 -5.81506,3.70803 5.8150533,3.7080412 0 0 1 -5.81447,-3.70803 5.8150533,3.7080412 0 0 1 5.81447,-3.70806 z m -27.89379,26.41888 v 21.32309 h 53.21636 v -21.32309 z m 27.89379,3.24546 a 5.8150533,3.7080412 0 0 1 5.81506,3.70804 5.8150533,3.7080412 0 0 1 -5.81506,3.70804 5.8150533,3.7080412 0 0 1 -5.81447,-3.70804 5.8150533,3.7080412 0 0 1 5.81447,-3.70804 z m -27.89379,26.41886 v 21.3231 h 53.21636 v -21.3231 z m 27.89379,3.24548 a 5.8150533,3.7080412 0 0 1 5.81506,3.70803 5.8150533,3.7080412 0 0 1 -5.81506,3.70805 5.8150533,3.7080412 0 0 1 -5.81447,-3.70805 5.8150533,3.7080412 0 0 1 5.81447,-3.70803 z"
     id="path1-56"
     style="fill:#ffffff;fill-opacity:1;stroke:#000000;stroke-width:2.8032;stroke-dasharray:none;stroke-opacity:1" /><g
     inkscape:groupmode="layer"
     id="layer2"
     inkscape:label="Powered by ES-DE"><text
       xml:space="preserve"
       id="text1"
       style="font-weight:500;font-family:'TeX Gyre Chorus';-inkscape-font-specification:'TeX Gyre Chorus Medium';writing-mode:lr-tb;direction:ltr;white-space:pre;shape-inside:url(#rect1);display:inline;fill:#c957e6;stroke:#000000;stroke-width:2.024" /></g><g
     id="DECK"
     transform="matrix(.47693 0 0 .47693 1.1014e-13 161.54)"
     style="stroke-width:4.24380936;stroke-dasharray:none"><path
       id="path20"
       d="m1650 476.92h78.84v204.66l270.54-204.8h117.86l-163.89 124.06 180.62 254.2-97.06-0.27-146.34-206.28-161.73 122.58v83.835h-78.84v-378zm-512.74 37.395c12.06-12.06 25.4-21.285 40.03-27.675 14.62-6.39 30.53-9.585 47.72-9.585h360.18v72.225h-360.18c-6.39 0-12.4 1.192-18.02 3.577-5.63 2.385-10.53 5.67-14.72 9.855-4.18 4.185-7.47 9.09-9.85 14.715-2.39 5.625-3.58 11.633-3.58 18.023v141.21c0 5.94 1.3 11.677 3.92 17.212 2.61 5.535 6.05 10.44 10.32 14.715 4.28 4.275 9.18 7.718 14.72 10.328 5.53 2.61 11.27 3.915 17.21 3.915h360.18v72.225h-360.18c-8.55 0-16.85-0.9-24.91-2.7-8.05-1.8-15.79-4.343-23.22-7.628-7.42-3.285-14.47-7.222-21.12-11.812-6.66-4.59-12.83-9.63-18.5-15.12-11.79-11.43-20.95-24.593-27.47-39.488-6.53-14.895-9.79-30.982-9.79-48.262v-127.98c0-17.28 3.19-33.21 9.59-47.79 6.39-14.58 15.61-27.9 27.67-39.96zm-587.26 297.4v-291.33c0-6.48 1.035-12.375 3.105-17.685s5.018-9.878 8.842-13.703c3.826-3.825 8.393-6.772 13.703-8.842s11.205-3.105 17.685-3.105h440.36v72.225h-404.72v76.545h355.59v72.225h-355.59v84.78h404.72v72.225h-440.36c-6.48 0-12.375-1.035-17.685-3.105s-9.877-5.018-13.703-8.843c-3.824-3.825-6.772-8.392-8.842-13.702s-3.105-11.205-3.105-17.685zm-102.07 151.02c-12.06 12.06-25.403 21.285-40.028 27.675s-30.532 9.585-47.722 9.585h-281.2v-72.225h281.2c6.39 0 12.397-1.192 18.022-3.578 5.625-2.384 10.53-5.67 14.715-9.855s7.47-9.089 9.855-14.715c2.385-5.624 3.578-11.632 3.578-18.022v-286.15c0-5.94-1.305-11.678-3.915-17.213s-6.053-10.44-10.328-14.715-9.18-7.717-14.715-10.327-11.272-3.915-17.212-3.915h-281.2v-72.225h281.2c8.55 0 16.852 0.9 24.907 2.7s15.795 4.342 23.22 7.627 14.468 7.223 21.128 11.813 12.825 9.63 18.495 15.12c11.79 11.43 20.947 24.592 27.472 39.487s9.788 30.983 9.788 48.263v272.92c0 17.28-3.195 33.21-9.585 47.79s-15.615 27.9-27.675 39.96z"
       fill="#fff"
       style="stroke:#000000;stroke-opacity:1;stroke-width:4.24380936;stroke-dasharray:none" /></g><g
     id="RETRO"
     transform="matrix(.47693 0 0 .47693 1.1014e-13 161.54)"
     style="stroke-width:4.24380936;stroke-dasharray:none;fill:#ffffff;fill-opacity:1"><g
       id="text750"
       transform="matrix(2.0967 0 0 2.0967 -93.103 -496.13)"
       fill="#008000"
       stroke-linecap="round"
       stroke-linejoin="round"
       stroke-width="2.315"
       style="paint-order:fill markers stroke;shape-inside:url(#rect752);white-space:pre;stroke-width:2.02404224;stroke-dasharray:none;fill:#ffffff;fill-opacity:1"
       aria-label="Powered by ES-DE Frontend"><path
         id="path8936"
         style="stroke:#000000;stroke-opacity:1;stroke-width:2.02404224;stroke-dasharray:none;fill:#ffffff;fill-opacity:1"
         d="m 1153.2617,236.62133 c -8.198,0 -15.7856,1.52281 -22.7583,4.57041 -6.978,3.048 -13.3404,7.44769 -19.0922,13.19949 -5.7521,5.752 -10.1548,12.10344 -13.1976,19.05704 -3.0476,6.953 -4.5723,14.55214 -4.5723,22.79344 v 61.03643 c 0,8.242 1.5536,15.91416 4.668,23.01806 3.1094,7.104 7.4789,13.38113 13.1019,18.83243 h 0 c 2.7042,2.6184 5.6462,5.02198 8.8225,7.21108 3.1718,2.1891 6.5337,4.06623 10.0725,5.63293 3.5433,1.5667 7.2351,2.78028 11.0744,3.63875 3.8437,0.85846 7.8033,1.28714 11.8811,1.28714 h 111.5199 c 4.0774,0 8.0351,-0.42867 11.8792,-1.28714 3.839,-0.8584 7.5308,-2.07205 11.0744,-3.63875 3.5393,-1.5667 6.902,-3.44383 10.0784,-5.63293 3.1716,-2.1891 6.1143,-4.59278 8.8185,-7.21108 5.6227,-5.451 9.9903,-11.72853 13.0999,-18.83243 3.1143,-7.104 4.67,-14.77676 4.67,-23.01806 v -61.03643 c 0,-8.241 -1.5276,-15.83984 -4.5704,-22.79344 -3.047,-6.954 -7.4477,-13.30524 -13.1995,-19.05704 -5.752,-5.7518 -12.1147,-10.15189 -19.0922,-13.19949 -6.973,-3.0476 -14.5618,-4.57041 -22.7602,-4.57041 z m -584.24074,0.002 v 34.44603 h 96.58209 v 145.82922 h 37.6668 V 271.06931 h 96.51178 v -34.44603 z m 282.98051,0 v 0.002 c -3.0905,0 -5.90322,0.49522 -8.43572,1.48246 -2.5325,0.9873 -4.71339,2.39218 -6.53529,4.21688 -1.8267,1.8238 -3.23245,4.00279 -4.21493,6.53529 -0.98719,2.5325 -1.48246,5.34327 -1.48246,8.43377 l 0.0606,159.61076 h 37.60625 v -70.95266 h 96.38287 l 57.94656,70.95266 h 46.6826 l -57.9524,-70.95266 h 0.711 c 6.052,0 11.5802,-0.70854 16.5784,-2.12504 5.0034,-1.4165 9.5015,-3.3817 13.4886,-5.8927 3.9968,-2.511 7.4823,-5.4823 10.4631,-8.9162 2.9856,-3.4344 5.4651,-7.18026 7.4396,-11.23656 1.9697,-4.0566 3.4543,-8.33702 4.4415,-12.84402 0.9873,-4.5073 1.4825,-9.05788 1.4825,-13.65068 0.038,-4.5074 -0.4299,-8.98101 -1.4219,-13.42411 -0.9825,-4.4428 -2.4651,-8.69251 -4.4396,-12.74831 -1.9745,-4.0569 -4.4549,-7.82422 -7.4357,-11.30102 -2.9854,-3.4769 -6.4806,-6.48136 -10.4963,-9.01386 -4.011,-2.5324 -8.5188,-4.52705 -13.5218,-5.98645 -4.998,-1.4594 -10.5243,-2.1895 -16.5765,-2.1895 z m -786.930483,0.006 0.002,0.002 c -3.0905,0 -5.903223,0.49326 -8.435723,1.4805 -2.5325,0.9872 -4.710593,2.39269 -6.535293,4.21689 -1.8238,1.8243 -3.229645,4.00279 -4.216885,6.53529 -0.98728,2.5325 -1.4805,5.34522 -1.4805,8.43572 l 0.06446,159.6088 h 37.600394 v -70.95265 h 96.384821 l 57.94848,70.95265 h 46.67871 l -57.94653,-70.95265 h 0.70705 c 6.052,0 11.57837,-0.70854 16.57847,-2.12504 5.0011,-1.4165 9.49902,-3.37975 13.49052,-5.89075 3.9915,-2.511 7.47845,-5.48426 10.46115,-8.91816 2.9837,-3.4344 5.46316,-7.17831 7.43766,-11.23461 1.9745,-4.0566 3.45426,-8.33897 4.4415,-12.84597 0.98728,-4.5073 1.4805,-9.05592 1.4805,-13.64872 0.0429,-4.5074 -0.42881,-8.98346 -1.41605,-13.42606 -0.9872,-4.4423 -2.467,-8.69241 -4.4415,-12.74831 -1.9745,-4.0559 -4.45395,-7.82227 -7.43765,-11.29907 -2.9829,-3.4769 -6.48056,-6.48136 -10.49436,-9.01386 -4.0129,-2.5324 -8.52067,-4.52705 -13.52177,-5.98645 -5,-1.4594 -10.52627,-2.1895 -16.57847,-2.1895 z m 262.308213,0.002 c -3.0905,0 -5.90127,0.49326 -8.43377,1.4805 -2.5325,0.9872 -4.7106,2.39269 -6.5353,4.21689 -1.8238,1.8243 -3.22963,4.00279 -4.21688,6.53529 -0.98728,2.5325 -1.48245,5.34522 -1.48245,8.43572 v 138.93845 0.004 c 0,3.0905 0.49521,5.90322 1.48245,8.43572 0.9872,2.5325 2.39308,4.70914 4.21688,6.53334 1.8248,1.8243 4.0028,3.2316 6.5353,4.21884 2.5325,0.98728 5.34327,1.4805 8.43377,1.4805 h 210.02 V 382.46422 H 344.36978 V 342.02978 H 513.95926 V 307.58375 H 344.36978 V 271.07713 H 537.3992 v -34.44604 z m 825.8825,34.43432 h 111.5199 c 3.0476,0 5.9136,0.56906 8.5939,1.70706 2.6852,1.137 5.0214,2.70332 7.0197,4.69932 1.9936,1.9959 3.5642,4.33648 4.6993,7.01968 1.1399,2.6822 1.7071,5.54633 1.7071,8.59393 v 67.34711 c 0,2.833 -0.6205,5.56935 -1.8653,8.20915 -1.2496,2.6398 -2.8894,4.97883 -4.9259,7.01773 -2.0412,2.0389 -4.3794,3.68108 -7.0216,4.92588 -2.6374,1.24481 -5.3743,1.86723 -8.2072,1.86723 h -111.5199 c -2.833,0 -5.5718,-0.62243 -8.2092,-1.86723 -2.6422,-1.2448 -4.9784,-2.88698 -7.0197,-4.92588 -2.0365,-2.0389 -3.6771,-4.37793 -4.9219,-7.01773 -1.2495,-2.6398 -1.8692,-5.37615 -1.8692,-8.20915 V 293.0854 c 0,-3.0476 0.5671,-5.91173 1.707,-8.59393 1.1351,-2.6832 2.7039,-5.02368 4.6974,-7.01968 1.9983,-1.9959 4.3365,-3.56232 7.0216,-4.69932 2.6804,-1.13791 5.5464,-1.70706 8.594,-1.70706 z m -284.25987,0.004 h 143.05967 c 2.8807,0 5.3798,0.57942 7.5021,1.73832 2.1271,1.159 3.8868,2.68181 5.2794,4.57041 1.3974,1.8886 2.4383,4.04564 3.125,6.47084 0.6868,2.4252 1.0201,4.90515 0.9961,7.43765 -0.019,2.5325 -0.3859,5.0105 -1.0918,7.4357 -0.7106,2.4252 -1.7692,4.58224 -3.1856,6.47084 -1.4213,1.8887 -3.1828,3.41151 -5.2813,4.57041 -2.108,1.15893 -4.5491,1.73832 -7.3439,1.73832 H 869.00183 Z m -786.930488,0.006 H 225.13097 c 2.8759,0 5.37741,0.57932 7.50211,1.73832 2.1247,1.159 3.88491,2.68181 5.27941,4.57041 1.3955,1.8886 2.43634,4.04564 3.12311,6.47084 0.68678,2.4252 1.01801,4.90515 0.99611,7.43765 -0.021,2.5325 -0.38553,5.0105 -1.09377,7.4357 -0.7082,2.4252 -1.77107,4.58224 -3.18757,6.47084 -1.4165,1.8887 -3.1762,3.41343 -5.2794,4.57236 -2.1032,1.15893 -4.55,1.73832 -7.34,1.73832 l -143.059628,-0.002 z" /></g></g><g
     style="fill:#ffffff;fill-opacity:1;stroke:#000000;stroke-opacity:1;stroke-width:0.40988125;stroke-dasharray:none"
     id="g1"
     transform="matrix(5.8088785,0,0,4.1977119,998.05633,353.66489)"><path
       d="m 15.5547,53.125 h 24.8906 c 4.8516,0 7.2656,-2.4375 7.2656,-7.336 V 10.2344 c 0,-4.875 -2.414,-7.3594 -7.2656,-7.3594 H 15.5547 c -4.8281,0 -7.2656,2.4844 -7.2656,7.3594 V 45.789 c 0,4.8985 2.4375,7.336 7.2656,7.336 z m 0.1875,-3.7735 c -2.4141,0 -3.6797,-1.289 -3.6797,-3.6328 v -35.414 c 0,-2.3203 1.2656,-3.6563 3.7031,-3.6563 h 24.4922 c 2.4375,0 3.6797,1.3125 3.6797,3.6563 v 35.414 c 0,2.3438 -1.2422,3.6328 -3.6562,3.6328 z m 1.664,-24.1171 c 0.6329,0 1.0313,-0.3282 1.2422,-1.125 l 0.8203,-2.3203 h 4.3828 l 0.8438,2.3203 c 0.2109,0.7734 0.6094,1.125 1.2187,1.125 0.8204,0 1.2657,-0.4453 1.2657,-1.1953 0,-0.1641 -0.0703,-0.4688 -0.1641,-0.7735 l -3.4453,-9.539 c -0.3516,-0.9844 -0.9375,-1.4532 -1.9219,-1.4532 -0.9609,0 -1.5234,0.4688 -1.875,1.4532 l -3.4453,9.539 c -0.1172,0.2813 -0.1641,0.6094 -0.1641,0.7735 0,0.75 0.4688,1.1953 1.2422,1.1953 z m 13.8985,-8.9063 h 6.8906 c 0.8203,0 1.4531,-0.6328 1.4531,-1.4531 0,-0.7969 -0.6328,-1.4297 -1.4531,-1.4297 h -6.8906 c -0.8672,0 -1.4766,0.6328 -1.4766,1.4297 0,0.8203 0.6094,1.4531 1.4766,1.4531 z m -11.3203,3.5156 1.5937,-4.9219 h 0.1641 l 1.5937,4.9219 z m 11.3203,4.6641 h 6.8906 c 0.8203,0 1.4531,-0.6328 1.4531,-1.4531 0,-0.7969 -0.6328,-1.4297 -1.4531,-1.4297 h -6.8906 c -0.8672,0 -1.4766,0.6328 -1.4766,1.4297 0,0.8203 0.6094,1.4531 1.4766,1.4531 z M 15.7891,43.8906 h 1.664 l 3.0703,-3.1172 c 0.4453,-0.4219 0.9141,-0.5859 1.3828,-0.5859 0.4688,0 0.9844,0.1875 1.4297,0.5859 l 1.9219,1.7578 4.8047,-4.2656 c 0.539,-0.4687 1.1015,-0.6797 1.6641,-0.6797 0.5625,0 1.1718,0.1875 1.5937,0.6797 l 4.6875,5.3906 h 1.6406 V 32.4531 c 0,-2.0625 -1.0781,-3.1172 -3.1406,-3.1172 H 18.9531 c -1.9922,0 -3.164,1.0547 -3.164,3.1172 z m 7.7343,-5.625 c -1.4062,0 -2.5312,-1.1719 -2.5312,-2.5312 0,-1.4063 1.125,-2.5782 2.5312,-2.5313 1.3828,0.0469 2.5313,1.125 2.5313,2.5313 0,1.3593 -1.1485,2.5312 -2.5313,2.5312 z"
       id="path1"
       style="fill:#ffffff;fill-opacity:1;stroke:#000000;stroke-opacity:1;stroke-width:0.40988125;stroke-dasharray:none" /></g><g
     style="fill:#ffffff;fill-opacity:1;stroke:#ffffff;stroke-width:0.122793;stroke-dasharray:none;stroke-opacity:1"
     id="g7"
     transform="matrix(4.787514,0,0,5.2260735,606.34147,413.7305)"><path
       d="M 15.6287,5.12132 4.31497,16.435 M 15.6287,5.12132 19.1642,8.65685 M 15.6287,5.12132 17.0429,3.70711 c 0.3905,-0.39053 1.0237,-0.39053 1.4142,0 l 2.1213,2.12132 c 0.3906,0.39052 0.3906,1.02369 0,1.41421 L 19.1642,8.65685 M 7.85051,19.9706 4.31497,16.435 M 7.85051,19.9706 19.1642,8.65685 M 7.85051,19.9706 3.25431,21.0312 4.31497,16.435"
       stroke="#000000"
       stroke-linecap="round"
       stroke-linejoin="round"
       id="path1-5"
       style="fill:#ffffff;fill-opacity:1;stroke:#ffffff;stroke-width:0.122793;stroke-dasharray:none;stroke-opacity:1" /></g></svg>
