<?xml version="1.0" encoding="UTF-8" standalone="no"?>
<svg
   id="svg29"
   version="1.1"
   viewBox="0 0 1280 800"
   sodipodi:docname="rd-gm-bday-splash.svg"
   inkscape:version="1.4.3 (0d15f75042, 2025-12-25)"
   xmlns:inkscape="http://www.inkscape.org/namespaces/inkscape"
   xmlns:sodipodi="http://sodipodi.sourceforge.net/DTD/sodipodi-0.dtd"
   xmlns:xlink="http://www.w3.org/1999/xlink"
   xmlns="http://www.w3.org/2000/svg"
   xmlns:svg="http://www.w3.org/2000/svg">
  <sodipodi:namedview
     id="namedview1"
     pagecolor="#ffffff"
     bordercolor="#000000"
     borderopacity="0.25"
     inkscape:showpageshadow="2"
     inkscape:pageopacity="0.0"
     inkscape:pagecheckerboard="0"
     inkscape:deskcolor="#d1d1d1"
     inkscape:zoom="0.98625"
     inkscape:cx="640.81115"
     inkscape:cy="400"
     inkscape:window-width="1920"
     inkscape:window-height="1008"
     inkscape:window-x="0"
     inkscape:window-y="0"
     inkscape:window-maximized="1"
     inkscape:current-layer="svg29" />
  <defs
     id="defs33">
    <linearGradient
       id="linearGradient8947"
       x1="44.404"
       x2="1324.4"
       y1="472.79"
       y2="472.79"
       gradientUnits="userSpaceOnUse">
      <stop
         id="stop8941"
         stop-color="#c957e6"
         offset="0" />
      <stop
         id="stop8943"
         stop-color="#1a9fff"
         offset="1" />
    </linearGradient>
    <linearGradient
       id="linearGradient10825"
       x1="245.77"
       x2="251.43"
       y1="48.391"
       y2="48.391"
       gradientTransform="matrix(2.5718 0 0 2.5718 -130.56 111.33)"
       gradientUnits="userSpaceOnUse">
      <stop
         id="stop10819"
         stop-color="#ff6f00"
         offset="0" />
      <stop
         id="stop10821"
         stop-color="#ff6f00"
         stop-opacity=".55396"
         offset="1" />
    </linearGradient>
    <linearGradient
       id="linearGradient10817"
       x1="245.9"
       x2="250.47"
       y1="102.18"
       y2="102.18"
       gradientTransform="matrix(2.5718 0 0 2.5718 -130.56 111.33)"
       gradientUnits="userSpaceOnUse">
      <stop
         id="stop10811"
         stop-color="#fff"
         offset="0" />
      <stop
         id="stop10813"
         stop-color="#959596"
         offset="1" />
    </linearGradient>
    <linearGradient
       id="linearGradient10809"
       x1="171.04"
       x2="427.73"
       y1="201.36"
       y2="201.36"
       gradientTransform="matrix(2.5718 0 0 2.5718 -251.68 101.81)"
       gradientUnits="userSpaceOnUse">
      <stop
         id="stop10803"
         stop-color="#e457e6"
         offset="0" />
      <stop
         id="stop10805"
         stop-color="#b657c9"
         offset="1" />
    </linearGradient>
    <linearGradient
       id="linearGradient12547"
       x1=".024385"
       x2="511.98"
       y1="256"
       y2="256"
       gradientUnits="userSpaceOnUse"
       xlink:href="#linearGradient12545" />
    <linearGradient
       id="linearGradient12545">
      <stop
         id="stop12541"
         stop-color="#3f4344"
         offset="0" />
      <stop
         id="stop12543"
         stop-color="#a1a2a1"
         offset="1" />
    </linearGradient>
    <linearGradient
       id="linearGradient12578"
       x1="-.47467"
       x2="512.46"
       y1="256.01"
       y2="256.01"
       gradientUnits="userSpaceOnUse"
       xlink:href="#linearGradient12576" />
    <linearGradient
       id="linearGradient12576">
      <stop
         id="stop12572"
         stop-color="#9d999d"
         offset="0" />
      <stop
         id="stop12574"
         stop-color="#37393b"
         offset="1" />
    </linearGradient>
    <linearGradient
       id="linearGradient13084"
       x1="90.905"
       x2="487.55"
       y1="333.68"
       y2="28.365"
       gradientTransform="translate(83.627,-52.044)"
       gradientUnits="userSpaceOnUse">
      <stop
         id="stop13118"
         stop-color="#3f4344"
         offset="0" />
      <stop
         id="stop13124"
         stop-color="#707272"
         offset=".78725" />
      <stop
         id="stop13120"
         stop-color="#a1a2a1"
         stop-opacity="0"
         offset=".82944" />
    </linearGradient>
    <linearGradient
       id="linearGradient13086"
       x1="90.905"
       x2="484.61"
       y1="333.68"
       y2="71.154"
       gradientTransform="translate(83.627,-52.044)"
       gradientUnits="userSpaceOnUse">
      <stop
         id="stop13126"
         stop-color="#9d999d"
         offset="0" />
      <stop
         id="stop13132"
         stop-color="#6a696c"
         offset=".79264" />
      <stop
         id="stop13128"
         stop-color="#37393b"
         stop-opacity="0"
         offset=".80251" />
    </linearGradient>
    <linearGradient
       inkscape:collect="always"
       xlink:href="#linearGradient12545"
       id="linearGradient1"
       gradientUnits="userSpaceOnUse"
       x1=".024385"
       y1="256"
       x2="511.98"
       y2="256" />
    <linearGradient
       inkscape:collect="always"
       xlink:href="#linearGradient12576"
       id="linearGradient2"
       gradientUnits="userSpaceOnUse"
       x1="-.47467"
       y1="256.01"
       x2="512.46"
       y2="256.01" />
  </defs>
  <g
     id="RETRO"
     transform="matrix(.47693 0 0 .47693 1.1014e-13 161.54)">
    <g
       id="text750"
       transform="matrix(2.0967 0 0 2.0967 -93.103 -496.13)"
       fill="#008000"
       stroke-linecap="round"
       stroke-linejoin="round"
       stroke-width="2.315"
       style="paint-order:fill markers stroke;shape-inside:url(#rect752);white-space:pre"
       aria-label="Powered by ES-DE Frontend">
      <path
         id="path10972"
         d="m938.79 719.7c0 57.571-184.99 104.24-413.19 104.24-228.2 0-413.19-46.671-413.19-104.24 0-57.571 189.52-55.898 417.72-55.898 228.2 0 408.66-1.6734 408.66 55.898z"
         fill="#dfdfe6"
         stroke-linecap="round"
         stroke-linejoin="round"
         stroke-width="2.6861"
         style="paint-order:fill markers stroke" />
      <g
         id="g1">
        <path
           id="rect975"
           d="m195.82 471.42h642.95s21.591 142.54 0 242.47c-112.74 31.688-213.98 54.075-321.84 54.008-107.86-0.0674-256.34-34.418-321.12-54.008-17.133-102.7 0-242.47 0-242.47z"
           fill="url(#linearGradient10809)"
           style="paint-order:fill markers stroke" />
        <path
           id="path899"
           d="m838.77 468.75c0 29.794-144.9 53.947-321.3 53.947s-321.65-24.153-321.65-53.947c-3e-5 -29.794 145.25-53.947 321.65-53.947s321.3 24.153 321.3 53.947z"
           fill="#e457e6"
           style="paint-order:fill markers stroke" />
        <path
           id="path1644"
           transform="matrix(3.2604 .39746 -.449 2.8862 487.29 402.93)"
           d="m5.7193 8.3158-7.9386 1.0483-4.8772-6.3509 3.0614-7.3992 7.9386-1.0483 4.8772 6.3509z"
           fill="#0062ff"
           style="paint-order:fill markers stroke" />
      </g>
      <path
         id="path253"
         d="m498.17 396.91 1.7027-5.8798h-17.027zm-19.837-5.3144v15.492l17.944-8.6064zm0 34.709 17.923-5.1577-17.923-10.315zm6.2752 0.40655h15.135l-1.5135-3.9198zm13.174-7.2081v-19.343l-18.332 8.7924zm2.4311-18.886v18.314l11.571-9.9892zm1.4946 24.548 6.5966-10.251-7.916 6.8339zm0.1113-32.204-1.457 5.0316 8.9179 6.4158zm-25.918 30.752v-13.792h-8.8757zm-8.8757-15.891h8.8757v-13.793zm34.246-18.89c0.4391 0 0.844 0.20446 1.0594 0.53483l12.312 18.89c0.207 0.31775 0.2083 0.70557 0 1.0243l-12.156 18.89c-0.2145 0.33318-0.6212 0.53975-1.0626 0.53975h-24.312c-0.4415 0-0.8483-0.20677-1.0627-0.53975l-12.156-18.89c-0.2039-0.31695-0.2039-0.70236 0-1.0193l12.156-18.89c0.2145-0.33317 0.6212-0.53974 1.0627-0.53974z"
         fill="none"
         stroke="#00dcff"
         stroke-width=".47881" />
      <path
         id="path1644-6"
         transform="matrix(3.2604 .39746 -.449 2.8862 519.88 403.46)"
         d="m5.7193 8.3158-7.9386 1.0483-4.8772-6.3509 3.0614-7.3992 7.9386-1.0483 4.8772 6.3509z"
         fill="#0062ff"
         style="paint-order:fill markers stroke" />
      <path
         id="path253-2"
         d="m530.76 397.44 1.7027-5.8798h-17.027zm-19.837-5.3144v15.492l17.944-8.6064zm0 34.709 17.923-5.1577-17.923-10.315zm6.2753 0.40655h15.134l-1.5134-3.9198zm13.174-7.2081v-19.343l-18.332 8.7924zm2.4312-18.886v18.314l11.571-9.9892zm1.4945 24.548 6.5966-10.251-7.9159 6.8339zm0.1114-32.204-1.4571 5.0316 8.918 6.4158zm-25.918 30.752v-13.792h-8.8756zm-8.8756-15.891h8.8756v-13.793zm34.246-18.89c0.4391 0 0.844 0.20446 1.0595 0.53484l12.312 18.89c0.2071 0.31774 0.2083 0.70557 0 1.0243l-12.156 18.89c-0.2145 0.33318-0.6212 0.53975-1.0626 0.53975h-24.312c-0.4415 0-0.8483-0.20678-1.0627-0.53975l-12.156-18.89c-0.204-0.31695-0.204-0.70236 0-1.0193l12.156-18.89c0.2145-0.33318 0.6212-0.53974 1.0626-0.53974z"
         fill="none"
         stroke="#00dcff"
         stroke-width=".47881" />
      <path
         id="path1644-5"
         transform="matrix(3.2604 .39746 -.449 2.8862 559.4 403.46)"
         d="m5.7193 8.3158-7.9386 1.0483-4.8772-6.3509 3.0614-7.3992 7.9386-1.0483 4.8772 6.3509z"
         fill="#0062ff"
         style="paint-order:fill markers stroke" />
      <path
         id="path253-4"
         d="m570.28 397.44 1.7027-5.8798h-17.027zm-19.837-5.3144v15.492l17.944-8.6064zm0 34.709 17.923-5.1577-17.923-10.315zm6.2753 0.40655h15.135l-1.5135-3.9198zm13.174-7.2081v-19.343l-18.332 8.7924zm2.4312-18.886v18.314l11.571-9.9892zm1.4945 24.548 6.5966-10.251-7.9159 6.8339zm0.1114-32.204-1.4571 5.0316 8.918 6.4158zm-25.918 30.752v-13.792h-8.8756zm-8.8756-15.891h8.8756v-13.793zm34.246-18.89c0.4391 0 0.8441 0.20446 1.0595 0.53484l12.312 18.89c0.207 0.31774 0.2082 0.70557 0 1.0243l-12.156 18.89c-0.2144 0.33318-0.6211 0.53975-1.0626 0.53975h-24.312c-0.4415 0-0.8483-0.20678-1.0626-0.53975l-12.156-18.89c-0.2039-0.31695-0.2039-0.70236 0-1.0193l12.156-18.89c0.2145-0.33318 0.6212-0.53974 1.0626-0.53974z"
         fill="none"
         stroke="#00dcff"
         stroke-width=".47881" />
      <path
         id="path1644-3"
         transform="matrix(3.2604 .39746 -.449 2.8862 597.86 405.6)"
         d="m5.7193 8.3158-7.9386 1.0483-4.8772-6.3509 3.0614-7.3992 7.9386-1.0483 4.8772 6.3509z"
         fill="#0062ff"
         style="paint-order:fill markers stroke" />
      <path
         id="path253-1"
         d="m608.74 399.58 1.7027-5.8798h-17.027zm-19.837-5.3144v15.492l17.944-8.6065zm0 34.709 17.923-5.1577-17.923-10.315zm6.2753 0.40656h15.135l-1.5135-3.9198zm13.174-7.2081v-19.343l-18.332 8.7924zm2.4311-18.886v18.314l11.571-9.9892zm1.4946 24.548 6.5965-10.251-7.9159 6.8339zm0.1113-32.204-1.4571 5.0316 8.918 6.4158zm-25.918 30.752v-13.792h-8.8756zm-8.8756-15.891h8.8756v-13.793zm34.246-18.89c0.4391 0 0.8441 0.20446 1.0594 0.53484l12.312 18.89c0.207 0.31775 0.2083 0.70558 0 1.0243l-12.156 18.89c-0.2145 0.33318-0.6213 0.53975-1.0626 0.53975h-24.312c-0.4414 0-0.8483-0.20678-1.0626-0.53975l-12.156-18.89c-0.204-0.31695-0.204-0.70236 0-1.0193l12.156-18.89c0.2145-0.33318 0.6212-0.53975 1.0626-0.53975z"
         fill="none"
         stroke="#00dcff"
         stroke-width=".47881" />
      <path
         id="path1644-8"
         transform="matrix(3.2604 .39746 -.449 2.8862 637.14 409.04)"
         d="m5.7193 8.3158-7.9386 1.0483-4.8772-6.3509 3.0614-7.3992 7.9386-1.0483 4.8772 6.3509z"
         fill="#0062ff"
         style="paint-order:fill markers stroke" />
      <path
         id="path253-3"
         d="m648.02 403.02 1.7026-5.8798h-17.027zm-19.837-5.3144v15.492l17.944-8.6064zm0 34.709 17.923-5.1577-17.923-10.315zm6.2752 0.40655h15.135l-1.5134-3.9198zm13.174-7.2081v-19.343l-18.332 8.7924zm2.4312-18.886v18.314l11.571-9.9892zm1.4945 24.548 6.5966-10.251-7.9159 6.8339zm0.1114-32.204-1.4571 5.0316 8.918 6.4158zm-25.918 30.752v-13.792h-8.8758zm-8.8758-15.891h8.8758v-13.793zm34.246-18.89c0.4391 0 0.844 0.20446 1.0595 0.53483l12.312 18.89c0.2071 0.31775 0.2084 0.70558 0 1.0243l-12.156 18.89c-0.2145 0.33318-0.6212 0.53974-1.0627 0.53974h-24.312c-0.4414 0-0.8482-0.20677-1.0626-0.53974l-12.156-18.89c-0.2039-0.31695-0.2039-0.70236 0-1.0193l12.156-18.89c0.2146-0.33318 0.6213-0.53975 1.0627-0.53975z"
         fill="none"
         stroke="#00dcff"
         stroke-width=".47881" />
      <path
         id="path1644-52"
         transform="matrix(3.2604 .39746 -.449 2.8862 672.77 412.88)"
         d="m5.7193 8.3158-7.9386 1.0483-4.8772-6.3509 3.0614-7.3992 7.9386-1.0483 4.8772 6.3509z"
         fill="#0062ff"
         style="paint-order:fill markers stroke" />
      <path
         id="path253-13"
         d="m683.65 406.87 1.7026-5.8799h-17.027zm-19.837-5.3144v15.492l17.944-8.6065zm0 34.709 17.923-5.1577-17.923-10.315zm6.2752 0.40655h15.135l-1.5134-3.9198zm13.174-7.2082v-19.343l-18.332 8.7925zm2.4312-18.886v18.314l11.571-9.9893zm1.4945 24.548 6.5966-10.251-7.9159 6.834zm0.1114-32.204-1.4571 5.0316 8.9179 6.4158zm-25.918 30.753v-13.793h-8.8758zm-8.8758-15.891h8.8758v-13.793zm34.246-18.89c0.4391 0 0.844 0.20446 1.0594 0.53484l12.312 18.89c0.2071 0.31775 0.2084 0.7056 0 1.0243l-12.156 18.89c-0.2145 0.33318-0.6212 0.53975-1.0627 0.53975h-24.312c-0.4414 0-0.8482-0.20677-1.0626-0.53975l-12.156-18.89c-0.2039-0.31695-0.2039-0.70239 0-1.0193l12.156-18.89c0.2146-0.33318 0.6213-0.53974 1.0627-0.53974z"
         fill="none"
         stroke="#00dcff"
         stroke-width=".47881" />
      <path
         id="path1644-37"
         transform="matrix(3.2604 .39746 -.449 2.8862 712.24 416.97)"
         d="m5.7193 8.3158-7.9386 1.0483-4.8772-6.3509 3.0614-7.3992 7.9386-1.0483 4.8772 6.3509z"
         fill="#0062ff"
         style="paint-order:fill markers stroke" />
      <path
         id="path253-9"
         d="m723.12 410.95 1.7026-5.8799h-17.027zm-19.837-5.3144v15.492l17.944-8.6065zm0 34.709 17.923-5.1577-17.923-10.315zm6.2752 0.40655h15.135l-1.5135-3.9198zm13.174-7.2082v-19.343l-18.332 8.7925zm2.4313-18.886v18.314l11.571-9.9893zm1.4945 24.548 6.5966-10.251-7.9159 6.834zm0.1113-32.204-1.457 5.0316 8.9179 6.4158zm-25.918 30.753v-13.793h-8.8757zm-8.8757-15.891h8.8757v-13.793zm34.246-18.89c0.4391 0 0.844 0.20446 1.0594 0.53484l12.312 18.89c0.207 0.31775 0.2083 0.70561 0 1.0243l-12.156 18.89c-0.2145 0.33317-0.6212 0.53974-1.0627 0.53974h-24.312c-0.4415 0-0.8482-0.20677-1.0626-0.53974l-12.156-18.89c-0.204-0.31694-0.204-0.70238 0-1.0193l12.156-18.89c0.2145-0.33318 0.6212-0.53975 1.0627-0.53975z"
         fill="none"
         stroke="#00dcff"
         stroke-width=".47881" />
      <path
         id="path1644-69"
         transform="matrix(3.2604 .39746 -.449 2.8862 751.7 425.13)"
         d="m5.7193 8.3158-7.9386 1.0483-4.8772-6.3509 3.0614-7.3992 7.9386-1.0483 4.8772 6.3509z"
         fill="#0062ff"
         style="paint-order:fill markers stroke" />
      <path
         id="path253-7"
         d="m762.58 419.11 1.7027-5.8799h-17.027zm-19.837-5.3144v15.492l17.944-8.6065zm0 34.709 17.923-5.1577-17.923-10.315zm6.2753 0.40655h15.135l-1.5136-3.9198zm13.174-7.2082v-19.343l-18.332 8.7925zm2.4312-18.886v18.314l11.571-9.9893zm1.4945 24.548 6.5966-10.251-7.9159 6.834zm0.1113-32.204-1.457 5.0317 8.918 6.4158zm-25.918 30.753v-13.793h-8.8756zm-8.8756-15.891h8.8756v-13.793zm34.246-18.89c0.4391 0 0.8441 0.20446 1.0595 0.53483l12.312 18.89c0.207 0.31775 0.2083 0.70561 0 1.0243l-12.156 18.89c-0.2144 0.33318-0.6212 0.53975-1.0626 0.53975h-24.312c-0.4415 0-0.8483-0.20678-1.0627-0.53975l-12.156-18.89c-0.204-0.31696-0.204-0.70239 0-1.0193l12.156-18.89c0.2144-0.33318 0.6211-0.53974 1.0626-0.53974z"
         fill="none"
         stroke="#00dcff"
         stroke-width=".47881" />
      <path
         id="path1644-55"
         transform="matrix(3.2604 .39746 -.449 2.8862 783 434.66)"
         d="m5.7193 8.3158-7.9386 1.0483-4.8772-6.3509 3.0614-7.3992 7.9386-1.0483 4.8772 6.3509z"
         fill="#0062ff"
         style="paint-order:fill markers stroke" />
      <path
         id="path253-0"
         d="m793.88 428.64 1.7027-5.8799h-17.027zm-19.837-5.3144v15.492l17.944-8.6065zm0 34.709 17.923-5.1577-17.923-10.315zm6.2752 0.40655h15.135l-1.5134-3.9198zm13.174-7.2082v-19.343l-18.332 8.7925zm2.4312-18.886v18.314l11.571-9.9893zm1.4945 24.548 6.5966-10.251-7.9159 6.834zm0.1114-32.204-1.4571 5.0316 8.918 6.4158zm-25.918 30.753v-13.793h-8.8756zm-8.8756-15.891h8.8756v-13.793zm34.246-18.89c0.4391 0 0.844 0.20446 1.0595 0.53483l12.312 18.89c0.2071 0.31774 0.2083 0.7056 0 1.0243l-12.156 18.89c-0.2145 0.33318-0.6212 0.53975-1.0626 0.53975h-24.312c-0.4414 0-0.8482-0.20678-1.0625-0.53975l-12.156-18.89c-0.204-0.31695-0.204-0.70239 0-1.0193l12.156-18.89c0.2145-0.33318 0.6212-0.53974 1.0626-0.53974z"
         fill="none"
         stroke="#00dcff"
         stroke-width=".47881" />
      <path
         id="path1644-63"
         transform="matrix(3.2604 .39746 -.449 2.8862 811.58 450.99)"
         d="m5.7193 8.3158-7.9386 1.0483-4.8772-6.3509 3.0614-7.3992 7.9386-1.0483 4.8772 6.3509z"
         fill="#0062ff"
         style="paint-order:fill markers stroke" />
      <path
         id="path253-40"
         d="m822.46 444.97 1.7027-5.8799h-17.027zm-19.837-5.3145v15.492l17.944-8.6065zm0 34.709 17.923-5.1577-17.923-10.315zm6.2753 0.40655h15.135l-1.5135-3.9198zm13.174-7.2082v-19.343l-18.332 8.7925zm2.4312-18.886v18.314l11.571-9.9893zm1.4945 24.548 6.5967-10.251-7.916 6.834zm0.1114-32.204-1.4571 5.0316 8.918 6.4158zm-25.918 30.753v-13.793h-8.8757zm-8.8757-15.891h8.8757v-13.793zm34.246-18.89c0.439 0 0.844 0.20446 1.0594 0.53484l12.312 18.89c0.2071 0.31775 0.2084 0.7056 0 1.0243l-12.156 18.89c-0.2144 0.33318-0.6211 0.53975-1.0626 0.53975h-24.312c-0.4415 0-0.8483-0.20677-1.0626-0.53975l-12.156-18.89c-0.2039-0.31695-0.2039-0.70239 0-1.0193l12.156-18.89c0.2145-0.33318 0.6212-0.53974 1.0626-0.53974z"
         fill="none"
         stroke="#00dcff"
         stroke-width=".47881" />
      <path
         id="path1644-9"
         transform="matrix(3.2604 .39746 -.449 2.8862 449.58 404.72)"
         d="m5.7193 8.3158-7.9386 1.0483-4.8772-6.3509 3.0614-7.3992 7.9386-1.0483 4.8772 6.3509z"
         fill="#0062ff"
         style="paint-order:fill markers stroke" />
      <path
         id="path253-8"
         d="m460.46 398.7 1.7027-5.8799h-17.027zm-19.837-5.3145v15.492l17.944-8.6065zm0 34.709 17.923-5.1577-17.923-10.315zm6.2753 0.40655h15.135l-1.5135-3.9198zm13.174-7.2082v-19.343l-18.332 8.7925zm2.4312-18.886v18.314l11.571-9.9893zm1.4946 24.548 6.5966-10.251-7.916 6.834zm0.1113-32.204-1.4571 5.0316 8.918 6.4158zm-25.918 30.753v-13.793h-8.8757zm-8.8757-15.891h8.8757v-13.793zm34.246-18.89c0.4391 0 0.844 0.20445 1.0594 0.53483l12.312 18.89c0.207 0.31774 0.2083 0.70561 0 1.0243l-12.156 18.89c-0.2145 0.33317-0.6212 0.53974-1.0626 0.53974h-24.312c-0.4414 0-0.8482-0.20678-1.0626-0.53974l-12.156-18.89c-0.204-0.31696-0.204-0.70239 0-1.0194l12.156-18.89c0.2145-0.33318 0.6212-0.53975 1.0626-0.53975z"
         fill="none"
         stroke="#00dcff"
         stroke-width=".47881" />
      <path
         id="path1644-2"
         transform="matrix(3.2604 .39746 -.449 2.8862 412.83 407.44)"
         d="m5.7193 8.3158-7.9386 1.0483-4.8772-6.3509 3.0614-7.3992 7.9386-1.0483 4.8772 6.3509z"
         fill="#0062ff"
         style="paint-order:fill markers stroke" />
      <path
         id="path253-72"
         d="m423.71 401.42 1.7027-5.8799h-17.027zm-19.837-5.3144v15.492l17.944-8.6065zm0 34.709 17.923-5.1577-17.923-10.315zm6.2753 0.40655h15.134l-1.5134-3.9198zm13.174-7.2082v-19.343l-18.332 8.7925zm2.4312-18.886v18.314l11.571-9.9893zm1.4945 24.548 6.5966-10.251-7.9159 6.834zm0.1114-32.204-1.4571 5.0316 8.918 6.4158zm-25.918 30.753v-13.793h-8.8756zm-8.8756-15.891h8.8756v-13.793zm34.246-18.89c0.4391 0 0.8441 0.20446 1.0595 0.53484l12.312 18.89c0.2071 0.31775 0.2083 0.7056 0 1.0243l-12.156 18.89c-0.2145 0.33318-0.6212 0.53975-1.0627 0.53975h-24.312c-0.4415 0-0.8483-0.20677-1.0626-0.53975l-12.156-18.89c-0.204-0.31695-0.204-0.70239 0-1.0193l12.156-18.89c0.2145-0.33317 0.6212-0.53974 1.0626-0.53974z"
         fill="none"
         stroke="#00dcff"
         stroke-width=".47881" />
      <path
         id="path1644-83"
         transform="matrix(3.2604 .39746 -.449 2.8862 374.55 410.45)"
         d="m5.7193 8.3158-7.9386 1.0483-4.8772-6.3509 3.0614-7.3992 7.9386-1.0483 4.8772 6.3509z"
         fill="#0062ff"
         style="paint-order:fill markers stroke" />
      <path
         id="path253-95"
         d="m385.43 404.44 1.7027-5.8798h-17.027zm-19.837-5.3144v15.492l17.944-8.6065zm0 34.709 17.923-5.1577-17.923-10.315zm6.2753 0.40655h15.135l-1.5135-3.9198zm13.174-7.2082v-19.343l-18.332 8.7925zm2.4311-18.886v18.314l11.571-9.9893zm1.4946 24.548 6.5966-10.251-7.916 6.834zm0.1113-32.204-1.4571 5.0317 8.918 6.4158zm-25.918 30.753v-13.793h-8.8757zm-8.8757-15.891h8.8757v-13.793zm34.246-18.89c0.4391 0 0.844 0.20446 1.0594 0.53484l12.312 18.89c0.207 0.31775 0.2083 0.70557 0 1.0243l-12.156 18.89c-0.2145 0.33318-0.6212 0.53975-1.0626 0.53975h-24.312c-0.4415 0-0.8483-0.20677-1.0627-0.53975l-12.156-18.89c-0.2039-0.31695-0.2039-0.70236 0-1.0193l12.156-18.89c0.2145-0.33318 0.6212-0.53974 1.0627-0.53974z"
         fill="none"
         stroke="#00dcff"
         stroke-width=".47881" />
      <path
         id="path1644-59"
         transform="matrix(3.2604 .39746 -.449 2.8862 335.08 414.54)"
         d="m5.7193 8.3158-7.9386 1.0483-4.8772-6.3509 3.0614-7.3992 7.9386-1.0483 4.8772 6.3509z"
         fill="#0062ff"
         style="paint-order:fill markers stroke" />
      <path
         id="path253-5"
         d="m345.96 408.52 1.7026-5.8798h-17.027zm-19.837-5.3144v15.492l17.944-8.6065zm0 34.709 17.923-5.1577-17.923-10.315zm6.2753 0.40655h15.134l-1.5135-3.9198zm13.174-7.2082v-19.343l-18.332 8.7925zm2.4312-18.886v18.314l11.571-9.9893zm1.4945 24.548 6.5966-10.251-7.916 6.834zm0.1114-32.204-1.4571 5.0317 8.918 6.4158zm-25.918 30.753v-13.793h-8.8756zm-8.8756-15.891h8.8756v-13.793zm34.246-18.89c0.4391 0 0.8441 0.20445 1.0595 0.53483l12.312 18.89c0.2071 0.31775 0.2084 0.70558 0 1.0243l-12.156 18.89c-0.2145 0.33318-0.6212 0.53974-1.0627 0.53974h-24.312c-0.4414 0-0.8482-0.20677-1.0626-0.53974l-12.156-18.89c-0.20394-0.31695-0.20394-0.70236 0-1.0193l12.156-18.89c0.2145-0.33318 0.6212-0.53975 1.0626-0.53975z"
         fill="none"
         stroke="#00dcff"
         stroke-width=".47881" />
      <path
         id="path1644-7"
         transform="matrix(3.2604 .39746 -.449 2.8862 295.51 422.07)"
         d="m5.7193 8.3158-7.9386 1.0483-4.8772-6.3509 3.0614-7.3992 7.9386-1.0483 4.8772 6.3509z"
         fill="#0062ff"
         style="paint-order:fill markers stroke" />
      <path
         id="path253-59"
         d="m306.39 416.06 1.7027-5.8798h-17.027zm-19.837-5.3144v15.492l17.944-8.6065zm0 34.709 17.923-5.1577-17.923-10.315zm6.2753 0.40656h15.135l-1.5135-3.9198zm13.174-7.2081v-19.343l-18.332 8.7925zm2.4312-18.886v18.314l11.571-9.9892zm1.4945 24.548 6.5966-10.251-7.9159 6.8339zm0.11136-32.204-1.4571 5.0316 8.918 6.4158zm-25.918 30.753v-13.792h-8.8757zm-8.8757-15.891h8.8757v-13.793zm34.246-18.89c0.43909 0 0.84402 0.20446 1.0594 0.53483l12.312 18.89c0.207 0.31775 0.2083 0.70558 0 1.0243l-12.156 18.89c-0.21449 0.33318-0.62122 0.53975-1.0626 0.53975h-24.312c-0.44145 0-0.84826-0.20678-1.0626-0.53975l-12.153-18.89c-0.20395-0.31695-0.20395-0.70236 0-1.0193l12.156-18.89c0.21449-0.33318 0.6212-0.53974 1.0626-0.53974z"
         fill="none"
         stroke="#00dcff"
         stroke-width=".47881" />
      <path
         id="path1644-4"
         transform="matrix(3.2604 .39746 -.449 2.8862 256.05 432.96)"
         d="m5.7193 8.3158-7.9386 1.0483-4.8772-6.3509 3.0614-7.3992 7.9386-1.0483 4.8772 6.3509z"
         fill="#0062ff"
         style="paint-order:fill markers stroke" />
      <path
         id="path253-18"
         d="m266.92 426.94 1.7027-5.8798h-17.027zm-19.837-5.3144v15.492l17.944-8.6065zm0 34.709 17.923-5.1577-17.923-10.315zm6.2753 0.40655h15.135l-1.5135-3.9198zm13.174-7.2081v-19.343l-18.332 8.7925zm2.4312-18.886v18.314l11.571-9.9892zm1.4945 24.548 6.5966-10.251-7.9159 6.8339zm0.11136-32.204-1.4571 5.0317 8.918 6.4158zm-25.918 30.753v-13.792h-8.8757zm-8.8757-15.891h8.8757v-13.793zm34.246-18.89c0.43908 0 0.84401 0.20446 1.0594 0.53484l12.312 18.89c0.20703 0.31775 0.20832 0.70557 3e-3 1.0243l-12.156 18.89c-0.21449 0.33318-0.62123 0.53975-1.0626 0.53975h-24.312c-0.44145 0-0.84826-0.20677-1.0626-0.53975l-12.156-18.89c-0.20395-0.31695-0.20395-0.70236 0-1.0193l12.156-18.89c0.21449-0.33318 0.62119-0.53975 1.0626-0.53975z"
         fill="none"
         stroke="#00dcff"
         stroke-width=".47881" />
      <path
         id="path1644-24"
         transform="matrix(3.2604 .39746 -.449 2.8862 226.11 445.21)"
         d="m5.7193 8.3158-7.9386 1.0483-4.8772-6.3509 3.0614-7.3992 7.9386-1.0483 4.8772 6.3509z"
         fill="#0062ff"
         style="paint-order:fill markers stroke" />
      <path
         id="path253-6"
         d="m236.98 439.19 1.7027-5.8798h-17.027zm-19.837-5.3144v15.492l17.944-8.6065zm0 34.709 17.923-5.1577-17.923-10.315zm6.2753 0.40655h15.135l-1.5135-3.9198zm13.174-7.2081v-19.343l-18.332 8.7925zm2.4312-18.886v18.314l11.571-9.9892zm1.4945 24.548 6.5966-10.251-7.916 6.8339zm0.11135-32.204-1.4571 5.0316 8.918 6.4158zm-25.918 30.753v-13.792h-8.8757zm-8.8757-15.891h8.8757v-13.793zm34.246-18.89c0.43908 0 0.84401 0.20446 1.0594 0.53483l12.312 18.89c0.20703 0.31775 0.20832 0.70558 3e-3 1.0243l-12.156 18.89c-0.21449 0.33318-0.62122 0.53974-1.0626 0.53974h-24.312c-0.44146 0-0.84827-0.20677-1.0626-0.53974l-12.156-18.89c-0.20395-0.31695-0.20395-0.70236 0-1.0193l12.156-18.89c0.21449-0.33318 0.6212-0.53975 1.0626-0.53975z"
         fill="none"
         stroke="#00dcff"
         stroke-width=".47881" />
      <path
         id="path1644-65"
         transform="matrix(3.2604 .39746 -.449 2.8862 208.41 454.74)"
         d="m5.7193 8.3158-7.9386 1.0483-4.8772-6.3509 3.0614-7.3992 7.9386-1.0483 4.8772 6.3509z"
         fill="#0062ff"
         style="paint-order:fill markers stroke" />
      <path
         id="path253-02"
         d="m219.29 448.72 1.7027-5.8798h-17.027zm-19.837-5.3144v15.492l17.944-8.6065zm0 34.709 17.923-5.1577-17.923-10.315zm6.2753 0.40655h15.135l-1.5135-3.9198zm13.174-7.2081v-19.343l-18.332 8.7925zm2.4312-18.886v18.314l11.571-9.9892zm1.4945 24.548 6.5966-10.251-7.9159 6.8339zm0.11136-32.204-1.4571 5.0316 8.918 6.4158zm-25.918 30.753v-13.792h-8.8757zm-8.8757-15.891h8.8757v-13.793zm34.246-18.89c0.43908 0 0.84402 0.20446 1.0594 0.53483l12.312 18.89c0.20703 0.31775 0.20832 0.70558 3e-3 1.0243l-12.156 18.89c-0.21449 0.33318-0.62122 0.53974-1.0626 0.53974h-24.312c-0.44145 0-0.84826-0.20677-1.0626-0.53974l-12.156-18.89c-0.20395-0.31695-0.20395-0.70236 0-1.0193l12.156-18.89c0.21449-0.33318 0.62119-0.53975 1.0626-0.53975z"
         fill="none"
         stroke="#00dcff"
         stroke-width=".47881" />
      <path
         id="path1644-99"
         transform="matrix(3.2604 .39746 -.449 2.8862 220.66 469.71)"
         d="m5.7193 8.3158-7.9386 1.0483-4.8772-6.3509 3.0614-7.3992 7.9386-1.0483 4.8772 6.3509z"
         fill="#0062ff"
         style="paint-order:fill markers stroke" />
      <path
         id="path253-85"
         d="m231.54 463.69 1.7027-5.8798h-17.027zm-19.837-5.3144v15.492l17.944-8.6065zm0 34.709 17.923-5.1577-17.923-10.315zm6.2753 0.40655h15.135l-1.5135-3.9198zm13.174-7.2081v-19.343l-18.332 8.7925zm2.4312-18.886v18.314l11.571-9.9892zm1.4945 24.548 6.5966-10.251-7.916 6.8339zm0.11136-32.204-1.4571 5.0316 8.918 6.4158zm-25.918 30.753v-13.792h-8.8757zm-8.8757-15.891h8.8757v-13.793zm34.246-18.89c0.43909 0 0.84402 0.20446 1.0594 0.53483l12.312 18.89c0.20704 0.31775 0.20832 0.70559 3e-3 1.0243l-12.156 18.89c-0.21449 0.33318-0.62122 0.53975-1.0626 0.53975h-24.312c-0.44145 0-0.84826-0.20678-1.0626-0.53975l-12.156-18.89c-0.20394-0.31696-0.20394-0.70237 0-1.0193l12.156-18.89c0.21449-0.33318 0.6212-0.53975 1.0626-0.53975z"
         fill="none"
         stroke="#00dcff"
         stroke-width=".47881" />
      <path
         id="path1644-95"
         transform="matrix(3.2604 .39746 -.449 2.8862 250.6 483.32)"
         d="m5.7193 8.3158-7.9386 1.0483-4.8772-6.3509 3.0614-7.3992 7.9386-1.0483 4.8772 6.3509z"
         fill="#0062ff"
         style="paint-order:fill markers stroke" />
      <path
         id="path253-24"
         d="m261.48 477.3 1.7027-5.8798h-17.027zm-19.837-5.3144v15.492l17.944-8.6065zm0 34.709 17.923-5.1577-17.923-10.315zm6.2753 0.40655h15.135l-1.5135-3.9198zm13.174-7.2081v-19.343l-18.332 8.7924zm2.4312-18.886v18.314l11.571-9.9892zm1.4945 24.548 6.5966-10.251-7.916 6.8339zm0.11136-32.204-1.4571 5.0316 8.918 6.4158zm-25.918 30.753v-13.792h-8.8757zm-8.8757-15.891h8.8757v-13.793zm34.246-18.89c0.43908 0 0.84401 0.20446 1.0594 0.53484l12.312 18.89c0.20703 0.31774 0.20832 0.70558 3e-3 1.0243l-12.156 18.89c-0.21449 0.33317-0.62122 0.53974-1.0626 0.53974h-24.312c-0.44145 0-0.84826-0.20678-1.0626-0.53974l-12.156-18.89c-0.20395-0.31695-0.20395-0.70237 0-1.0193l12.156-18.89c0.21449-0.33318 0.6212-0.53974 1.0626-0.53974z"
         fill="none"
         stroke="#00dcff"
         stroke-width=".47881" />
      <path
         id="path1644-34"
         transform="matrix(3.2604 .39746 -.449 2.8862 286.45 493.22)"
         d="m5.7193 8.3158-7.9386 1.0483-4.8772-6.3509 3.0614-7.3992 7.9386-1.0483 4.8772 6.3509z"
         fill="#0062ff"
         style="paint-order:fill markers stroke" />
      <path
         id="path253-04"
         d="m297.33 487.21 1.7027-5.8798h-17.027zm-19.837-5.3144v15.492l17.944-8.6065zm0 34.709 17.923-5.1577-17.923-10.315zm6.2753 0.40656h15.135l-1.5135-3.9198zm13.174-7.2081v-19.343l-18.332 8.7924zm2.4312-18.886v18.314l11.571-9.9892zm1.4945 24.548 6.5966-10.251-7.9159 6.8339zm0.11136-32.204-1.4571 5.0316 8.918 6.4158zm-25.918 30.752v-13.792h-8.8757zm-8.8757-15.891h8.8757v-13.793zm34.246-18.89c0.43909 0 0.84402 0.20446 1.0594 0.53484l12.312 18.89c0.20703 0.31774 0.20831 0.70557 3e-3 1.0243l-12.156 18.89c-0.21449 0.33318-0.62122 0.53975-1.0626 0.53975h-24.312c-0.44145 0-0.84825-0.20678-1.0626-0.53975l-12.156-18.89c-0.20395-0.31695-0.20395-0.70236 0-1.0193l12.156-18.89c0.21449-0.33318 0.6212-0.53975 1.0626-0.53975z"
         fill="none"
         stroke="#00dcff"
         stroke-width=".47881" />
      <path
         id="path1644-693"
         transform="matrix(3.2604 .39746 -.449 2.8862 325.92 500.03)"
         d="m5.7193 8.3158-7.9386 1.0483-4.8772-6.3509 3.0614-7.3992 7.9386-1.0483 4.8772 6.3509z"
         fill="#0062ff"
         style="paint-order:fill markers stroke" />
      <path
         id="path253-08"
         d="m336.8 494.01 1.7027-5.8798h-17.027zm-19.837-5.3144v15.492l17.944-8.6064zm0 34.709 17.923-5.1577-17.923-10.315zm6.2753 0.40655h15.135l-1.5135-3.9198zm13.174-7.2081v-19.343l-18.332 8.7924zm2.4312-18.886v18.314l11.571-9.9892zm1.4946 24.548 6.5966-10.251-7.916 6.8339zm0.1113-32.204-1.4571 5.0316 8.918 6.4158zm-25.918 30.752v-13.792h-8.8757zm-8.8757-15.891h8.8757v-13.793zm34.246-18.89c0.4391 0 0.844 0.20446 1.0594 0.53484l12.312 18.89c0.207 0.31775 0.2083 0.70557 0 1.0243l-12.156 18.89c-0.2145 0.33318-0.6212 0.53975-1.0626 0.53975h-24.312c-0.44145 0-0.84825-0.20677-1.0626-0.53975l-12.156-18.89c-0.20394-0.31695-0.20394-0.70236 0-1.0193l12.156-18.89c0.21449-0.33317 0.6212-0.53974 1.0626-0.53974z"
         fill="none"
         stroke="#00dcff"
         stroke-width=".47881" />
      <path
         id="path1644-32"
         transform="matrix(3.2604 .39746 -.449 2.8862 365.39 504.11)"
         d="m5.7193 8.3158-7.9386 1.0483-4.8772-6.3509 3.0614-7.3992 7.9386-1.0483 4.8772 6.3509z"
         fill="#0062ff"
         style="paint-order:fill markers stroke" />
      <path
         id="path253-93"
         d="m376.27 498.09 1.7027-5.8798h-17.027zm-19.837-5.3144v15.492l17.944-8.6064zm0 34.709 17.923-5.1577-17.923-10.315zm6.2753 0.40656h15.135l-1.5135-3.9198zm13.174-7.2081v-19.343l-18.332 8.7924zm2.4312-18.886v18.314l11.571-9.9892zm1.4946 24.548 6.5966-10.251-7.916 6.8339zm0.1113-32.204-1.4571 5.0316 8.918 6.4158zm-25.918 30.752v-13.792h-8.8757zm-8.8757-15.891h8.8757v-13.793zm34.246-18.89c0.4391 0 0.844 0.20445 1.0594 0.53483l12.312 18.89c0.207 0.31775 0.2083 0.70558 0 1.0243l-12.156 18.89c-0.2145 0.33317-0.6212 0.53974-1.0626 0.53974h-24.312c-0.4414 0-0.8482-0.20677-1.0626-0.53974l-12.156-18.89c-0.204-0.31695-0.204-0.70236 0-1.0193l12.156-18.89c0.2145-0.33318 0.6212-0.53975 1.0626-0.53975z"
         fill="none"
         stroke="#00dcff"
         stroke-width=".47881" />
      <path
         id="path1644-91"
         transform="matrix(3.2604 .39746 -.449 2.8862 407.58 508.19)"
         d="m5.7193 8.3158-7.9386 1.0483-4.8772-6.3509 3.0614-7.3992 7.9386-1.0483 4.8772 6.3509z"
         fill="#0062ff"
         style="paint-order:fill markers stroke" />
      <path
         id="path253-88"
         d="m418.46 502.18 1.7027-5.8798h-17.027zm-19.837-5.3144v15.492l17.944-8.6064zm0 34.709 17.923-5.1577-17.923-10.315zm6.2752 0.40655h15.135l-1.5135-3.9198zm13.174-7.2081v-19.343l-18.332 8.7924zm2.4312-18.886v18.314l11.571-9.9892zm1.4945 24.548 6.5966-10.251-7.9159 6.8339zm0.1114-32.204-1.4571 5.0316 8.9179 6.4158zm-25.918 30.752v-13.792h-8.8756zm-8.8756-15.891h8.8756v-13.793zm34.246-18.89c0.4391 0 0.844 0.20446 1.0594 0.53484l12.312 18.89c0.2071 0.31775 0.2083 0.70557 0 1.0243l-12.156 18.89c-0.2145 0.33318-0.6213 0.53975-1.0627 0.53975h-24.312c-0.4415 0-0.8483-0.20677-1.0626-0.53975l-12.156-18.89c-0.2039-0.31695-0.2039-0.70236 0-1.0193l12.156-18.89c0.2145-0.33318 0.6212-0.53974 1.0626-0.53974z"
         fill="none"
         stroke="#00dcff"
         stroke-width=".47881" />
      <path
         id="path1644-84"
         transform="matrix(3.2604 .39746 -.449 2.8862 449.77 512.28)"
         d="m5.7193 8.3158-7.9386 1.0483-4.8772-6.3509 3.0614-7.3992 7.9386-1.0483 4.8772 6.3509z"
         fill="#0062ff"
         style="paint-order:fill markers stroke" />
      <path
         id="path253-38"
         d="m460.65 506.26 1.7027-5.8798h-17.027zm-19.837-5.3144v15.492l17.944-8.6064zm0 34.709 17.923-5.1577-17.923-10.315zm6.2753 0.40655h15.135l-1.5135-3.9198zm13.174-7.2081v-19.343l-18.332 8.7924zm2.4312-18.886v18.314l11.571-9.9892zm1.4945 24.548 6.5966-10.251-7.9159 6.8339zm0.1114-32.204-1.4571 5.0316 8.918 6.4158zm-25.918 30.752v-13.792h-8.8757zm-8.8757-15.891h8.8757v-13.793zm34.246-18.89c0.4391 0 0.844 0.20446 1.0594 0.53484l12.312 18.89c0.207 0.31774 0.2083 0.70558 0 1.0243l-12.156 18.89c-0.2145 0.33318-0.6212 0.53975-1.0627 0.53975h-24.312c-0.4414 0-0.8482-0.20677-1.0626-0.53975l-12.156-18.89c-0.204-0.31694-0.204-0.70236 0-1.0193l12.156-18.89c0.2145-0.33318 0.6212-0.53975 1.0627-0.53975z"
         fill="none"
         stroke="#00dcff"
         stroke-width=".47881" />
      <path
         id="path1644-849"
         transform="matrix(3.2604 .39746 -.449 2.8862 819.19 464.1)"
         d="m5.7193 8.3158-7.9386 1.0483-4.8772-6.3509 3.0614-7.3992 7.9386-1.0483 4.8772 6.3509z"
         fill="#0062ff"
         style="paint-order:fill markers stroke" />
      <path
         id="path253-721"
         d="m830.07 458.09 1.7026-5.8798h-17.027zm-19.837-5.3144v15.492l17.944-8.6064zm0 34.709 17.923-5.1577-17.923-10.315zm6.2752 0.40655h15.135l-1.5134-3.9198zm13.174-7.2081v-19.343l-18.332 8.7924zm2.4312-18.886v18.314l11.571-9.9892zm1.4945 24.548 6.5966-10.251-7.9159 6.8339zm0.1114-32.204-1.4571 5.0316 8.918 6.4158zm-25.918 30.752v-13.792h-8.8757zm-8.8757-15.891h8.8757v-13.793zm34.246-18.89c0.4391 0 0.844 0.20446 1.0595 0.53483l12.312 18.89c0.2071 0.31775 0.2084 0.70558 0 1.0243l-12.156 18.89c-0.2145 0.33318-0.6212 0.53975-1.0626 0.53975h-24.312c-0.4414 0-0.8482-0.20677-1.0626-0.53975l-12.156-18.89c-0.2039-0.31695-0.2039-0.70237 0-1.0193l12.156-18.89c0.2146-0.33318 0.6213-0.53975 1.0627-0.53975z"
         fill="none"
         stroke="#00dcff"
         stroke-width=".47881" />
      <path
         id="path1644-76"
         transform="matrix(3.2604 .39746 -.449 2.8862 793.34 480.43)"
         d="m5.7193 8.3158-7.9386 1.0483-4.8772-6.3509 3.0614-7.3992 7.9386-1.0483 4.8772 6.3509z"
         fill="#0062ff"
         style="paint-order:fill markers stroke" />
      <path
         id="path253-76"
         d="m804.22 474.42 1.7028-5.8798h-17.027zm-19.837-5.3144v15.492l17.944-8.6064zm0 34.709 17.923-5.1577-17.923-10.315zm6.2752 0.40655h15.135l-1.5135-3.9198zm13.174-7.2081v-19.343l-18.332 8.7924zm2.4313-18.886v18.314l11.571-9.9892zm1.4945 24.548 6.5966-10.251-7.916 6.8339zm0.1113-32.204-1.457 5.0316 8.9179 6.4158zm-25.918 30.752v-13.792h-8.8757zm-8.8757-15.891h8.8757v-13.793zm34.246-18.89c0.4391 0 0.844 0.20446 1.0594 0.53483l12.312 18.89c0.207 0.31774 0.2083 0.70558 0 1.0243l-12.156 18.89c-0.2145 0.33317-0.6213 0.53974-1.0627 0.53974h-24.312c-0.4415 0-0.8482-0.20678-1.0627-0.53974l-12.156-18.89c-0.2039-0.31695-0.2039-0.70237 0-1.0193l12.156-18.89c0.2145-0.33318 0.6212-0.53974 1.0627-0.53974z"
         fill="none"
         stroke="#00dcff"
         stroke-width=".47881" />
      <path
         id="path1644-341"
         transform="matrix(3.2604 .39746 -.449 2.8862 760.67 487.24)"
         d="m5.7193 8.3158-7.9386 1.0483-4.8772-6.3509 3.0614-7.3992 7.9386-1.0483 4.8772 6.3509z"
         fill="#0062ff"
         style="paint-order:fill markers stroke" />
      <path
         id="path253-66"
         d="m771.55 481.22 1.7027-5.8798h-17.027zm-19.837-5.3144v15.492l17.944-8.6064zm0 34.709 17.923-5.1577-17.923-10.315zm6.2753 0.40655h15.135l-1.5135-3.9198zm13.174-7.2081v-19.343l-18.332 8.7924zm2.4311-18.886v18.314l11.571-9.9892zm1.4945 24.548 6.5966-10.251-7.9159 6.8339zm0.1114-32.204-1.4571 5.0316 8.918 6.4158zm-25.918 30.752v-13.792h-8.8757zm-8.8757-15.891h8.8757v-13.793zm34.246-18.89c0.439 0 0.844 0.20446 1.0594 0.53484l12.312 18.89c0.207 0.31774 0.2083 0.70557 0 1.0243l-12.156 18.89c-0.2145 0.33318-0.6212 0.53974-1.0627 0.53974h-24.312c-0.4414 0-0.8483-0.20677-1.0626-0.53974l-12.156-18.89c-0.2039-0.31695-0.2039-0.70236 0-1.0193l12.156-18.89c0.2145-0.33318 0.6212-0.53975 1.0626-0.53975z"
         fill="none"
         stroke="#00dcff"
         stroke-width=".47881" />
      <path
         id="path1644-348"
         transform="matrix(3.2604 .39746 -.449 2.8862 722.57 496.76)"
         d="m5.7193 8.3158-7.9386 1.0483-4.8772-6.3509 3.0614-7.3992 7.9386-1.0483 4.8772 6.3509z"
         fill="#0062ff"
         style="paint-order:fill markers stroke" />
      <path
         id="path253-882"
         d="m733.45 490.75 1.7027-5.8798h-17.027zm-19.837-5.3144v15.492l17.944-8.6064zm0 34.709 17.923-5.1577-17.923-10.315zm6.2752 0.40655h15.135l-1.5135-3.9198zm13.174-7.2081v-19.343l-18.332 8.7924zm2.4313-18.886v18.314l11.571-9.9892zm1.4945 24.548 6.5966-10.251-7.916 6.8339zm0.1113-32.204-1.457 5.0316 8.918 6.4158zm-25.918 30.752v-13.792h-8.8756zm-8.8756-15.891h8.8756v-13.793zm34.246-18.89c0.4391 0 0.844 0.20446 1.0595 0.53484l12.312 18.89c0.207 0.31774 0.2083 0.70557 0 1.0243l-12.156 18.89c-0.2145 0.33318-0.6212 0.53975-1.0626 0.53975h-24.312c-0.4414 0-0.8482-0.20678-1.0626-0.53975l-12.156-18.89c-0.204-0.31695-0.204-0.70236 0-1.0193l12.156-18.89c0.2144-0.33318 0.6211-0.53975 1.0626-0.53975z"
         fill="none"
         stroke="#00dcff"
         stroke-width=".47881" />
      <path
         id="path1644-75"
         transform="matrix(3.2604 .39746 -.449 2.8862 685.82 503.57)"
         d="m5.7193 8.3158-7.9386 1.0483-4.8772-6.3509 3.0614-7.3992 7.9386-1.0483 4.8772 6.3509z"
         fill="#0062ff"
         style="paint-order:fill markers stroke" />
      <path
         id="path253-29"
         d="m696.7 497.55 1.7027-5.8798h-17.027zm-19.837-5.3144v15.492l17.944-8.6064zm0 34.709 17.923-5.1577-17.923-10.315zm6.2753 0.40655h15.135l-1.5135-3.9198zm13.174-7.2081v-19.343l-18.332 8.7924zm2.4312-18.886v18.314l11.571-9.9892zm1.4945 24.548 6.5966-10.251-7.9159 6.8339zm0.1114-32.204-1.4571 5.0316 8.9179 6.4158zm-25.918 30.752v-13.792h-8.8757zm-8.8757-15.891h8.8757v-13.793zm34.246-18.89c0.4391 0 0.844 0.20446 1.0593 0.53483l12.312 18.89c0.207 0.31775 0.2083 0.70557 0 1.0243l-12.156 18.89c-0.2145 0.33318-0.6213 0.53975-1.0627 0.53975h-24.312c-0.4415 0-0.8483-0.20677-1.0627-0.53975l-12.156-18.89c-0.2039-0.31695-0.2039-0.70236 0-1.0193l12.156-18.89c0.2145-0.33318 0.6212-0.53974 1.0626-0.53974z"
         fill="none"
         stroke="#00dcff"
         stroke-width=".47881" />
      <path
         id="path1644-57"
         transform="matrix(3.2604 .39746 -.449 2.8862 648.43 510.23)"
         d="m5.7193 8.3158-7.9386 1.0483-4.8772-6.3509 3.0614-7.3992 7.9386-1.0483 4.8772 6.3509z"
         fill="#0062ff"
         style="paint-order:fill markers stroke" />
      <path
         id="path253-06"
         d="m659.31 504.21 1.7027-5.8798h-17.027zm-19.837-5.3144v15.492l17.944-8.6064zm0 34.709 17.923-5.1577-17.923-10.315zm6.2753 0.40655h15.135l-1.5135-3.9198zm13.174-7.2081v-19.343l-18.332 8.7924zm2.4312-18.886v18.314l11.571-9.9892zm1.4945 24.548 6.5966-10.251-7.9159 6.8339zm0.1114-32.204-1.4571 5.0316 8.918 6.4158zm-25.918 30.752v-13.792h-8.8757zm-8.8757-15.891h8.8757v-13.793zm34.246-18.89c0.4391 0 0.8441 0.20446 1.0595 0.53484l12.312 18.89c0.207 0.31774 0.2083 0.70557 0 1.0243l-12.156 18.89c-0.2144 0.33318-0.6211 0.53975-1.0626 0.53975h-24.312c-0.4414 0-0.8483-0.20677-1.0626-0.53975l-12.156-18.89c-0.2039-0.31695-0.2039-0.70236 0-1.0193l12.156-18.89c0.2145-0.33317 0.6212-0.53974 1.0626-0.53974z"
         fill="none"
         stroke="#00dcff"
         stroke-width=".47881" />
      <path
         id="path1644-570"
         transform="matrix(3.2604 .39746 -.449 2.8862 610.33 514.31)"
         d="m5.7193 8.3158-7.9386 1.0483-4.8772-6.3509 3.0614-7.3992 7.9386-1.0483 4.8772 6.3509z"
         fill="#0062ff"
         style="paint-order:fill markers stroke" />
      <path
         id="path253-17"
         d="m621.21 508.29 1.7026-5.8798h-17.027zm-19.837-5.3144v15.492l17.944-8.6064zm0 34.709 17.923-5.1577-17.923-10.315zm6.2752 0.40656h15.135l-1.5134-3.9198zm13.174-7.2081v-19.343l-18.332 8.7924zm2.4312-18.886v18.314l11.571-9.9892zm1.4945 24.548 6.5966-10.251-7.9159 6.8339zm0.1114-32.204-1.4571 5.0316 8.918 6.4158zm-25.918 30.752v-13.792h-8.8757zm-8.8757-15.891h8.8757v-13.793zm34.246-18.89c0.4391 0 0.8439 0.20445 1.0594 0.53483l12.312 18.89c0.2071 0.31774 0.2084 0.70558 0 1.0243l-12.156 18.89c-0.2145 0.33317-0.6212 0.53974-1.0627 0.53974h-24.312c-0.4414 0-0.8482-0.20677-1.0626-0.53974l-12.156-18.89c-0.2039-0.31695-0.2039-0.70236 0-1.0193l12.156-18.89c0.2145-0.33318 0.6212-0.53975 1.0626-0.53975z"
         fill="none"
         stroke="#00dcff"
         stroke-width=".47881" />
      <path
         id="path1644-62"
         transform="matrix(3.2604 .39746 -.449 2.8862 490.57 515.67)"
         d="m5.7193 8.3158-7.9386 1.0483-4.8772-6.3509 3.0614-7.3992 7.9386-1.0483 4.8772 6.3509z"
         fill="#0062ff"
         style="paint-order:fill markers stroke" />
      <path
         id="path253-83"
         d="m501.44 509.65 1.7027-5.8798h-17.027zm-19.837-5.3144v15.492l17.944-8.6064zm0 34.709 17.923-5.1577-17.923-10.315zm6.2753 0.40655h15.134l-1.5134-3.9198zm13.174-7.2081v-19.343l-18.332 8.7924zm2.4312-18.886v18.314l11.571-9.9892zm1.4945 24.548 6.5966-10.251-7.9159 6.8339zm0.1114-32.204-1.4571 5.0316 8.918 6.4158zm-25.918 30.752v-13.792h-8.8757zm-8.8757-15.891h8.8757v-13.793zm34.246-18.89c0.4391 0 0.8441 0.20446 1.0595 0.53484l12.312 18.89c0.2071 0.31775 0.2084 0.70557 0 1.0243l-12.156 18.89c-0.2145 0.33318-0.6212 0.53975-1.0627 0.53975h-24.312c-0.4415 0-0.8483-0.20677-1.0626-0.53975l-12.156-18.89c-0.2039-0.31695-0.2039-0.70236 0-1.0193l12.156-18.89c0.2145-0.33318 0.6212-0.53974 1.0626-0.53974z"
         fill="none"
         stroke="#00dcff"
         stroke-width=".47881" />
      <path
         id="path1644-0"
         transform="matrix(3.2604 .39746 -.449 2.8862 570.86 517.03)"
         d="m5.7193 8.3158-7.9386 1.0483-4.8772-6.3509 3.0614-7.3992 7.9386-1.0483 4.8772 6.3509z"
         fill="#0062ff"
         style="paint-order:fill markers stroke" />
      <path
         id="path253-57"
         d="m581.74 511.01 1.7027-5.8798h-17.027zm-19.837-5.3144v15.492l17.944-8.6064zm0 34.709 17.923-5.1577-17.923-10.315zm6.2753 0.40655h15.134l-1.5134-3.9198zm13.174-7.2081v-19.343l-18.332 8.7924zm2.4312-18.886v18.314l11.571-9.9892zm1.4945 24.548 6.5966-10.251-7.9159 6.8339zm0.1114-32.204-1.4571 5.0316 8.9179 6.4158zm-25.918 30.752v-13.792h-8.8757zm-8.8757-15.891h8.8757v-13.793zm34.246-18.89c0.4391 0 0.844 0.20446 1.0593 0.53483l12.312 18.89c0.2071 0.31775 0.2084 0.70558 0 1.0243l-12.156 18.89c-0.2146 0.33317-0.6213 0.53974-1.0627 0.53974h-24.312c-0.4415 0-0.8483-0.20677-1.0627-0.53974l-12.156-18.89c-0.2039-0.31695-0.2039-0.70237 0-1.0193l12.156-18.89c0.2145-0.33318 0.6212-0.53975 1.0626-0.53975z"
         fill="none"
         stroke="#00dcff"
         stroke-width=".47881" />
      <path
         id="path1644-70"
         transform="matrix(3.2604 .39746 -.449 2.8862 530.03 517.03)"
         d="m5.7193 8.3158-7.9386 1.0483-4.8772-6.3509 3.0614-7.3992 7.9386-1.0483 4.8772 6.3509z"
         fill="#0062ff"
         style="paint-order:fill markers stroke" />
      <path
         id="path253-48"
         d="m540.91 511.01 1.7027-5.8798h-17.027zm-19.837-5.3144v15.492l17.944-8.6064zm0 34.709 17.923-5.1577-17.923-10.315zm6.2752 0.40655h15.135l-1.5134-3.9198zm13.174-7.2081v-19.343l-18.332 8.7924zm2.4312-18.886v18.314l11.571-9.9892zm1.4945 24.548 6.5966-10.251-7.9159 6.8339zm0.1114-32.204-1.4571 5.0316 8.918 6.4158zm-25.918 30.752v-13.792h-8.8756zm-8.8756-15.891h8.8756v-13.793zm34.246-18.89c0.439 0 0.8439 0.20446 1.0594 0.53483l12.312 18.89c0.2071 0.31775 0.2084 0.70558 0 1.0243l-12.156 18.89c-0.2145 0.33317-0.6212 0.53974-1.0626 0.53974h-24.312c-0.4414 0-0.8482-0.20677-1.0626-0.53974l-12.156-18.89c-0.204-0.31695-0.204-0.70237 0-1.0193l12.156-18.89c0.2145-0.33318 0.6212-0.53975 1.0626-0.53975z"
         fill="none"
         stroke="#00dcff"
         stroke-width=".47881" />
      <path
         id="path1644-65-6"
         transform="matrix(3.2604 .39746 -.449 2.8862 208.09 695.67)"
         d="m5.7193 8.3158-7.9386 1.0483-4.8772-6.3509 3.0614-7.3992 7.9386-1.0483 4.8772 6.3509z"
         fill="#0062ff"
         style="paint-order:fill markers stroke" />
      <path
         id="path253-02-6"
         d="m218.97 689.66 1.7027-5.8799h-17.027zm-19.837-5.3144v15.492l17.944-8.6065zm0 34.709 17.923-5.1577-17.923-10.315zm6.2753 0.40657h15.135l-1.5135-3.9198zm13.174-7.2082v-19.343l-18.332 8.7925zm2.4312-18.886v18.314l11.571-9.9892zm1.4945 24.548 6.5966-10.251-7.9159 6.8339zm0.11136-32.204-1.4571 5.0316 8.918 6.4158zm-25.918 30.753v-13.792h-8.8757zm-8.8757-15.891h8.8757v-13.793zm34.246-18.89c0.43909 0 0.84402 0.20447 1.0594 0.53483l12.312 18.89c0.20702 0.31777 0.20831 0.70555 3e-3 1.0243l-12.156 18.89c-0.21449 0.33315-0.62122 0.53973-1.0626 0.53973h-24.312c-0.44145 0-0.84825-0.20678-1.0626-0.53973l-12.156-18.89c-0.20395-0.31695-0.20395-0.70235 0-1.0193l12.156-18.89c0.21449-0.33315 0.6212-0.53973 1.0626-0.53973z"
         fill="none"
         stroke="#00dcff"
         stroke-width=".47881" />
      <path
         id="path1644-99-5"
         transform="matrix(3.2604 .39746 -.449 2.8862 220.34 710.64)"
         d="m5.7193 8.3158-7.9386 1.0483-4.8772-6.3509 3.0614-7.3992 7.9386-1.0483 4.8772 6.3509z"
         fill="#0062ff"
         style="paint-order:fill markers stroke" />
      <path
         id="path253-85-7"
         d="m231.22 704.63 1.7027-5.8799h-17.027zm-19.837-5.3145v15.492l17.944-8.6065zm0 34.709 17.923-5.1577-17.923-10.315zm6.2753 0.4065h15.135l-1.5135-3.9198zm13.174-7.2081v-19.343l-18.332 8.7924zm2.4312-18.886v18.314l11.571-9.9893zm1.4945 24.548 6.5966-10.251-7.916 6.8339zm0.11136-32.204-1.4571 5.0317 8.918 6.4158zm-25.918 30.753v-13.792h-8.8757zm-8.8757-15.891h8.8757v-13.793zm34.246-18.89c0.43908 0 0.84401 0.20447 1.0594 0.53483l12.312 18.89c0.20703 0.31777 0.20831 0.70562 3e-3 1.0243l-12.156 18.89c-0.21449 0.33315-0.62122 0.53973-1.0626 0.53973h-24.312c-0.44146 0-0.84827-0.20678-1.0626-0.53973l-12.156-18.89c-0.20395-0.31695-0.20395-0.70235 0-1.0193l12.156-18.89c0.21449-0.33322 0.62119-0.53973 1.0626-0.53973z"
         fill="none"
         stroke="#00dcff"
         stroke-width=".47881" />
      <path
         id="path1644-95-2"
         transform="matrix(3.2604 .39746 -.449 2.8862 250.28 724.25)"
         d="m5.7193 8.3158-7.9386 1.0483-4.8772-6.3509 3.0614-7.3992 7.9386-1.0483 4.8772 6.3509z"
         fill="#0062ff"
         style="paint-order:fill markers stroke" />
      <path
         id="path253-24-5"
         d="m261.16 718.23 1.7027-5.8799h-17.027zm-19.837-5.3145v15.492l17.944-8.6065zm0 34.709 17.923-5.1577-17.923-10.315zm6.2753 0.40656h15.135l-1.5135-3.9198zm13.174-7.2081v-19.343l-18.332 8.7924zm2.4312-18.886v18.314l11.571-9.9893zm1.4945 24.548 6.5966-10.251-7.9159 6.8339zm0.11136-32.204-1.4571 5.0316 8.918 6.4158zm-25.918 30.753v-13.792h-8.8757zm-8.8757-15.891h8.8757v-13.793zm34.246-18.89c0.43908 0 0.84401 0.20448 1.0594 0.53483l12.312 18.89c0.20703 0.31777 0.20831 0.70556 3e-3 1.0243l-12.156 18.89c-0.21449 0.33321-0.62123 0.5398-1.0626 0.5398h-24.312c-0.44145 0-0.84826-0.20679-1.0626-0.5398l-12.156-18.89c-0.20394-0.31696-0.20394-0.70236 0-1.0193l12.156-18.89c0.21449-0.33315 0.62119-0.53973 1.0626-0.53973z"
         fill="none"
         stroke="#00dcff"
         stroke-width=".47881" />
      <path
         id="path1644-34-6"
         transform="matrix(3.2604 .39746 -.449 2.8862 286.13 734.16)"
         d="m5.7193 8.3158-7.9386 1.0483-4.8772-6.3509 3.0614-7.3992 7.9386-1.0483 4.8772 6.3509z"
         fill="#0062ff"
         style="paint-order:fill markers stroke" />
      <path
         id="path253-04-5"
         d="m297.01 728.14 1.7027-5.8798h-17.027zm-19.837-5.3144v15.492l17.944-8.6065zm0 34.709 17.923-5.1576-17.923-10.315zm6.2753 0.40657h15.135l-1.5135-3.9198zm13.174-7.2081v-19.343l-18.332 8.7924zm2.4312-18.886v18.314l11.571-9.9893zm1.4945 24.548 6.5966-10.251-7.9159 6.8339zm0.11136-32.204-1.4571 5.0316 8.918 6.4158zm-25.918 30.753v-13.792h-8.8757zm-8.8757-15.891h8.8757v-13.792zm34.246-18.89c0.43909 0 0.84402 0.20448 1.0594 0.53483l12.312 18.89c0.20704 0.31777 0.20832 0.70563 3e-3 1.0243l-12.156 18.89c-0.21449 0.33321-0.62123 0.5398-1.0626 0.5398h-24.312c-0.44146 0-0.84827-0.20679-1.0626-0.5398l-12.156-18.89c-0.20394-0.31695-0.20394-0.70236 0-1.0193l12.156-18.89c0.21449-0.33315 0.62119-0.53973 1.0626-0.53973z"
         fill="none"
         stroke="#00dcff"
         stroke-width=".47881" />
      <path
         id="path1644-693-3"
         transform="matrix(3.2604 .39746 -.449 2.8862 325.6 740.96)"
         d="m5.7193 8.3158-7.9386 1.0483-4.8772-6.3509 3.0614-7.3992 7.9386-1.0483 4.8772 6.3509z"
         fill="#0062ff"
         style="paint-order:fill markers stroke" />
      <path
         id="path253-08-6"
         d="m336.48 734.95 1.7027-5.8798h-17.027zm-19.837-5.3144v15.492l17.944-8.6065zm0 34.709 17.923-5.1577-17.923-10.315zm6.2753 0.40656h15.134l-1.5134-3.9198zm13.174-7.2082v-19.343l-18.332 8.7924zm2.4312-18.886v18.314l11.571-9.9892zm1.4945 24.548 6.5966-10.251-7.9159 6.8339zm0.1114-32.204-1.4571 5.0316 8.918 6.4158zm-25.918 30.753v-13.792h-8.8757zm-8.8757-15.891h8.8757v-13.793zm34.246-18.89c0.439 0 0.844 0.20447 1.0594 0.53483l12.312 18.89c0.2071 0.31777 0.2084 0.70555 0 1.0243l-12.156 18.89c-0.2145 0.33321-0.6212 0.53972-1.0627 0.53972h-24.312c-0.44145 0-0.84826-0.20678-1.0626-0.53972l-12.156-18.89c-0.20395-0.31695-0.20395-0.70235 0-1.0193l12.156-18.89c0.21449-0.33322 0.6212-0.5398 1.0626-0.5398z"
         fill="none"
         stroke="#00dcff"
         stroke-width=".47881" />
      <path
         id="path1644-32-9"
         transform="matrix(3.2604 .39746 -.449 2.8862 365.07 745.05)"
         d="m5.7193 8.3158-7.9386 1.0483-4.8772-6.3509 3.0614-7.3992 7.9386-1.0483 4.8772 6.3509z"
         fill="#0062ff"
         style="paint-order:fill markers stroke" />
      <path
         id="path253-93-8"
         d="m375.95 739.03 1.7027-5.8799h-17.027zm-19.837-5.3144v15.492l17.944-8.6064zm0 34.709 17.923-5.1577-17.923-10.315zm6.2753 0.40657h15.134l-1.5134-3.9198zm13.174-7.2082v-19.343l-18.332 8.7924zm2.4312-18.886v18.314l11.571-9.9892zm1.4945 24.548 6.5966-10.251-7.9159 6.8339zm0.1114-32.204-1.4571 5.0317 8.918 6.4158zm-25.918 30.753v-13.792h-8.8757zm-8.8757-15.891h8.8757v-13.792zm34.246-18.89c0.4391 0 0.8441 0.20447 1.0595 0.53483l12.312 18.89c0.2071 0.3177 0.2084 0.70555 0 1.0243l-12.156 18.89c-0.2145 0.33315-0.6213 0.53973-1.0627 0.53973h-24.312c-0.4415 0-0.8483-0.20679-1.0626-0.53973l-12.156-18.89c-0.2039-0.31695-0.2039-0.70242 0-1.0194l12.156-18.89c0.2145-0.33314 0.6212-0.53973 1.0626-0.53973z"
         fill="none"
         stroke="#00dcff"
         stroke-width=".47881" />
      <path
         id="path1644-91-5"
         transform="matrix(3.2604 .39746 -.449 2.8862 407.26 749.13)"
         d="m5.7193 8.3158-7.9386 1.0483-4.8772-6.3509 3.0614-7.3992 7.9386-1.0483 4.8772 6.3509z"
         fill="#0062ff"
         style="paint-order:fill markers stroke" />
      <path
         id="path253-88-8"
         d="m418.13 743.11 1.7027-5.8798h-17.027zm-19.837-5.3144v15.492l17.944-8.6065zm0 34.709 17.923-5.1577-17.923-10.315zm6.2753 0.40657h15.135l-1.5135-3.9198zm13.174-7.2082v-19.343l-18.332 8.7924zm2.4312-18.886v18.314l11.571-9.9892zm1.4946 24.548 6.5966-10.251-7.916 6.8339zm0.1113-32.204-1.4571 5.0316 8.918 6.4158zm-25.918 30.752v-13.792h-8.8757zm-8.8757-15.891h8.8757v-13.793zm34.246-18.89c0.4391 0 0.844 0.20441 1.0594 0.53483l12.312 18.89c0.207 0.3177 0.2083 0.70556 0 1.0243l-12.156 18.89c-0.2145 0.33315-0.6212 0.53973-1.0626 0.53973h-24.312c-0.4415 0-0.8483-0.20679-1.0626-0.53973l-12.156-18.89c-0.2039-0.31695-0.2039-0.70236 0-1.0193l12.156-18.89c0.2145-0.33321 0.6212-0.5398 1.0626-0.5398z"
         fill="none"
         stroke="#00dcff"
         stroke-width=".47881" />
      <path
         id="path1644-84-0"
         transform="matrix(3.2604 .39746 -.449 2.8862 449.44 753.21)"
         d="m5.7193 8.3158-7.9386 1.0483-4.8772-6.3509 3.0614-7.3992 7.9386-1.0483 4.8772 6.3509z"
         fill="#0062ff"
         style="paint-order:fill markers stroke" />
      <path
         id="path253-38-4"
         d="m460.32 747.2 1.7027-5.8799h-17.027zm-19.837-5.3145v15.492l17.944-8.6064zm0 34.709 17.923-5.1577-17.923-10.315zm6.2752 0.40649h15.135l-1.5135-3.9198zm13.174-7.2081v-19.343l-18.332 8.7924zm2.4312-18.886v18.314l11.571-9.9893zm1.4945 24.548 6.5966-10.251-7.9159 6.8339zm0.1114-32.204-1.4571 5.0316 8.9179 6.4158zm-25.918 30.753v-13.792h-8.8756zm-8.8756-15.891h8.8756v-13.792zm34.246-18.89c0.4391 0 0.844 0.20448 1.0594 0.53483l12.312 18.89c0.2071 0.31777 0.2083 0.70562 0 1.0243l-12.156 18.89c-0.2145 0.33314-0.6213 0.53973-1.0627 0.53973h-24.312c-0.4415 0-0.8483-0.20679-1.0627-0.53973l-12.156-18.89c-0.2039-0.31695-0.2039-0.70236 0-1.0193l12.156-18.89c0.2145-0.33315 0.6212-0.53973 1.0626-0.53973z"
         fill="none"
         stroke="#00dcff"
         stroke-width=".47881" />
      <path
         id="path1644-849-9"
         transform="matrix(3.2604 .39746 -.449 2.8862 818.87 705.04)"
         d="m5.7193 8.3158-7.9386 1.0483-4.8772-6.3509 3.0614-7.3992 7.9386-1.0483 4.8772 6.3509z"
         fill="#0062ff"
         style="paint-order:fill markers stroke" />
      <path
         id="path253-721-9"
         d="m829.75 699.02 1.7027-5.8798h-17.027zm-19.837-5.3144v15.492l17.944-8.6065zm0 34.709 17.923-5.1577-17.923-10.315zm6.2753 0.40657h15.135l-1.5135-3.9198zm13.174-7.2082v-19.343l-18.332 8.7924zm2.4312-18.886v18.314l11.571-9.9892zm1.4945 24.548 6.5967-10.251-7.916 6.834zm0.1114-32.204-1.4571 5.0316 8.918 6.4158zm-25.918 30.752v-13.792h-8.8756zm-8.8756-15.891h8.8756v-13.793zm34.246-18.89c0.439 0 0.844 0.20441 1.0594 0.53483l12.312 18.89c0.207 0.3177 0.2083 0.70555 0 1.0243l-12.156 18.89c-0.2144 0.33315-0.6211 0.53973-1.0626 0.53973h-24.312c-0.4414 0-0.8483-0.20679-1.0626-0.53973l-12.156-18.89c-0.2039-0.31695-0.2039-0.70236 0-1.0193l12.156-18.89c0.2144-0.33321 0.6211-0.5398 1.0625-0.5398z"
         fill="none"
         stroke="#00dcff"
         stroke-width=".47881" />
      <path
         id="path1644-76-7"
         transform="matrix(3.2604 .39746 -.449 2.8862 793.01 721.37)"
         d="m5.7193 8.3158-7.9386 1.0483-4.8772-6.3509 3.0614-7.3992 7.9386-1.0483 4.8772 6.3509z"
         fill="#0062ff"
         style="paint-order:fill markers stroke" />
      <path
         id="path253-76-9"
         d="m803.89 715.35 1.7027-5.8798h-17.027zm-19.837-5.3144v15.492l17.944-8.6065zm0 34.709 17.923-5.1576-17.923-10.315zm6.2753 0.40657h15.135l-1.5135-3.9198zm13.174-7.2081v-19.343l-18.332 8.7924zm2.4312-18.886v18.314l11.571-9.9893zm1.4945 24.548 6.5966-10.251-7.9159 6.8339zm0.1114-32.204-1.4571 5.0316 8.918 6.4158zm-25.918 30.753v-13.792h-8.8756zm-8.8756-15.891h8.8756v-13.792zm34.246-18.89c0.439 0 0.844 0.20448 1.0594 0.53483l12.312 18.89c0.207 0.31776 0.2083 0.70562 0 1.0243l-12.156 18.89c-0.2145 0.33321-0.6213 0.5398-1.0627 0.5398h-24.312c-0.4415 0-0.8483-0.20679-1.0627-0.5398l-12.156-18.89c-0.204-0.31695-0.204-0.70236 0-1.0193l12.156-18.89c0.2145-0.33315 0.6212-0.53973 1.0626-0.53973z"
         fill="none"
         stroke="#00dcff"
         stroke-width=".47881" />
      <path
         id="path1644-341-5"
         transform="matrix(3.2604 .39746 -.449 2.8862 760.35 728.17)"
         d="m5.7193 8.3158-7.9386 1.0483-4.8772-6.3509 3.0614-7.3992 7.9386-1.0483 4.8772 6.3509z"
         fill="#0062ff"
         style="paint-order:fill markers stroke" />
      <path
         id="path253-66-5"
         d="m771.23 722.16 1.7027-5.8798h-17.027zm-19.837-5.3144v15.492l17.944-8.6065zm0 34.709 17.923-5.1577-17.923-10.315zm6.2752 0.40656h15.135l-1.5134-3.9198zm13.174-7.2082v-19.343l-18.332 8.7924zm2.4312-18.886v18.314l11.571-9.9892zm1.4945 24.548 6.5966-10.251-7.9159 6.8339zm0.1114-32.204-1.4571 5.0316 8.918 6.4158zm-25.918 30.753v-13.792h-8.8757zm-8.8757-15.891h8.8757v-13.793zm34.246-18.89c0.439 0 0.8439 0.20447 1.0594 0.53483l12.312 18.89c0.2071 0.31777 0.2084 0.70555 0 1.0243l-12.156 18.89c-0.2145 0.33321-0.6212 0.53972-1.0626 0.53972h-24.312c-0.4414 0-0.8482-0.20671-1.0626-0.53972l-12.156-18.89c-0.2039-0.31695-0.2039-0.70235 0-1.0193l12.156-18.89c0.2145-0.33322 0.6212-0.53973 1.0626-0.53973z"
         fill="none"
         stroke="#00dcff"
         stroke-width=".47881" />
      <path
         id="path1644-348-1"
         transform="matrix(3.2604 .39746 -.449 2.8862 722.25 737.7)"
         d="m5.7193 8.3158-7.9386 1.0483-4.8772-6.3509 3.0614-7.3992 7.9386-1.0483 4.8772 6.3509z"
         fill="#0062ff"
         style="paint-order:fill markers stroke" />
      <path
         id="path253-882-4"
         d="m733.13 731.68 1.7027-5.8798h-17.027zm-19.837-5.3144v15.492l17.944-8.6065zm0 34.709 17.923-5.1577-17.923-10.315zm6.2753 0.40657h15.135l-1.5135-3.9198zm13.174-7.2082v-19.343l-18.332 8.7924zm2.4311-18.886v18.314l11.571-9.9892zm1.4945 24.548 6.5966-10.251-7.9159 6.8339zm0.1114-32.204-1.4571 5.0316 8.918 6.4158zm-25.918 30.752v-13.792h-8.8757zm-8.8757-15.891h8.8757v-13.793zm34.246-18.89c0.4391 0 0.844 0.20441 1.0594 0.53483l12.312 18.89c0.207 0.3177 0.2083 0.70556 0 1.0243l-12.156 18.89c-0.2145 0.33314-0.6212 0.53973-1.0627 0.53973h-24.312c-0.4415 0-0.8483-0.20679-1.0626-0.53973l-12.156-18.89c-0.204-0.31695-0.204-0.70236 0-1.0193l12.156-18.89c0.2145-0.33322 0.6212-0.5398 1.0626-0.5398z"
         fill="none"
         stroke="#00dcff"
         stroke-width=".47881" />
      <path
         id="path1644-75-0"
         transform="matrix(3.2604 .39746 -.449 2.8862 685.5 744.51)"
         d="m5.7193 8.3158-7.9386 1.0483-4.8772-6.3509 3.0614-7.3992 7.9386-1.0483 4.8772 6.3509z"
         fill="#0062ff"
         style="paint-order:fill markers stroke" />
      <path
         id="path253-29-9"
         d="m696.38 738.49 1.7027-5.8799h-17.027zm-19.837-5.3144v15.492l17.944-8.6064zm0 34.709 17.923-5.1577-17.923-10.315zm6.2752 0.40657h15.135l-1.5135-3.9198zm13.174-7.2082v-19.343l-18.332 8.7924zm2.4312-18.886v18.314l11.571-9.9893zm1.4945 24.548 6.5966-10.251-7.9159 6.8339zm0.1114-32.204-1.4571 5.0316 8.918 6.4158zm-25.918 30.753v-13.792h-8.8757zm-8.8757-15.891h8.8757v-13.792zm34.246-18.89c0.4391 0 0.844 0.20447 1.0595 0.53483l12.312 18.89c0.2071 0.31777 0.2083 0.70562 0 1.0243l-12.156 18.89c-0.2145 0.33315-0.6212 0.53973-1.0626 0.53973h-24.312c-0.4414 0-0.8482-0.20678-1.0626-0.53973l-12.156-18.89c-0.204-0.31695-0.204-0.70242 0-1.0194l12.156-18.89c0.2145-0.33315 0.6213-0.53973 1.0627-0.53973z"
         fill="none"
         stroke="#00dcff"
         stroke-width=".47881" />
      <path
         id="path1644-57-3"
         transform="matrix(3.2604 .39746 -.449 2.8862 648.11 751.16)"
         d="m5.7193 8.3158-7.9386 1.0483-4.8772-6.3509 3.0614-7.3992 7.9386-1.0483 4.8772 6.3509z"
         fill="#0062ff"
         style="paint-order:fill markers stroke" />
      <path
         id="path253-06-4"
         d="m658.99 745.15 1.7026-5.8798h-17.027zm-19.837-5.3144v15.492l17.944-8.6065zm0 34.709 17.923-5.1576-17.923-10.315zm6.2753 0.40657h15.135l-1.5134-3.9198zm13.174-7.2081v-19.343l-18.332 8.7924zm2.4311-18.886v18.314l11.571-9.9893zm1.4946 24.548 6.5966-10.251-7.9159 6.8339zm0.1114-32.204-1.4571 5.0316 8.9179 6.4158zm-25.918 30.753v-13.792h-8.8757zm-8.8757-15.891h8.8757v-13.792zm34.246-18.89c0.439 0 0.844 0.20447 1.0593 0.53483l12.312 18.89c0.2071 0.31776 0.2084 0.70562 0 1.0243l-12.156 18.89c-0.2145 0.33322-0.6212 0.5398-1.0627 0.5398h-24.312c-0.4414 0-0.8482-0.20679-1.0626-0.5398l-12.156-18.89c-0.2039-0.31695-0.2039-0.70235 0-1.0193l12.156-18.89c0.2145-0.33314 0.6212-0.53973 1.0626-0.53973z"
         fill="none"
         stroke="#00dcff"
         stroke-width=".47881" />
      <path
         id="path1644-570-4"
         transform="matrix(3.2604 .39746 -.449 2.8862 610.01 755.25)"
         d="m5.7193 8.3158-7.9386 1.0483-4.8772-6.3509 3.0614-7.3992 7.9386-1.0483 4.8772 6.3509z"
         fill="#0062ff"
         style="paint-order:fill markers stroke" />
      <path
         id="path253-17-4"
         d="m620.88 749.23 1.7027-5.8798h-17.027zm-19.837-5.3144v15.492l17.944-8.6065zm0 34.709 17.923-5.1577-17.923-10.315zm6.2753 0.40657h15.135l-1.5135-3.9198zm13.174-7.2082v-19.343l-18.332 8.7924zm2.4312-18.886v18.314l11.571-9.9892zm1.4945 24.548 6.5967-10.251-7.916 6.8339zm0.1114-32.204-1.4571 5.0316 8.918 6.4158zm-25.918 30.753v-13.792h-8.8756zm-8.8756-15.891h8.8756v-13.793zm34.246-18.89c0.4391 0 0.844 0.20441 1.0594 0.53483l12.312 18.89c0.207 0.31777 0.2083 0.70556 0 1.0243l-12.156 18.89c-0.2145 0.33315-0.6212 0.53973-1.0626 0.53973h-24.312c-0.4414 0-0.8483-0.20679-1.0626-0.53973l-12.156-18.89c-0.2039-0.31695-0.2039-0.70236 0-1.0193l12.156-18.89c0.2145-0.33321 0.6212-0.5398 1.0626-0.5398z"
         fill="none"
         stroke="#00dcff"
         stroke-width=".47881" />
      <path
         id="path1644-62-6"
         transform="matrix(3.2604 .39746 -.449 2.8862 490.24 756.61)"
         d="m5.7193 8.3158-7.9386 1.0483-4.8772-6.3509 3.0614-7.3992 7.9386-1.0483 4.8772 6.3509z"
         fill="#0062ff"
         style="paint-order:fill markers stroke" />
      <path
         id="path253-83-3"
         d="m501.12 750.59 1.7027-5.8799h-17.027zm-19.837-5.3145v15.492l17.944-8.6064zm0 34.709 17.923-5.1577-17.923-10.315zm6.2753 0.4065h15.135l-1.5135-3.9198zm13.174-7.2081v-19.343l-18.332 8.7924zm2.4312-18.886v18.314l11.571-9.9893zm1.4946 24.548 6.5966-10.251-7.916 6.8339zm0.1113-32.204-1.4571 5.0316 8.918 6.4158zm-25.918 30.753v-13.792h-8.8757zm-8.8757-15.891h8.8757v-13.792zm34.246-18.89c0.4391 0 0.844 0.20448 1.0594 0.53483l12.312 18.89c0.207 0.31777 0.2083 0.70563 0 1.0243l-12.156 18.89c-0.2145 0.33314-0.6212 0.53973-1.0626 0.53973h-24.312c-0.4414 0-0.8482-0.20679-1.0626-0.53973l-12.156-18.89c-0.204-0.31695-0.204-0.70236 0-1.0193l12.156-18.89c0.2145-0.33315 0.6212-0.53973 1.0626-0.53973z"
         fill="none"
         stroke="#00dcff"
         stroke-width=".47881" />
      <path
         id="path1644-0-7"
         transform="matrix(3.2604 .39746 -.449 2.8862 570.54 757.97)"
         d="m5.7193 8.3158-7.9386 1.0483-4.8772-6.3509 3.0614-7.3992 7.9386-1.0483 4.8772 6.3509z"
         fill="#0062ff"
         style="paint-order:fill markers stroke" />
      <path
         id="path253-57-3"
         d="m581.42 751.95 1.7028-5.8798h-17.027zm-19.837-5.3144v15.492l17.944-8.6065zm0 34.709 17.923-5.1577-17.923-10.315zm6.2752 0.40656h15.135l-1.5135-3.9198zm13.174-7.2082v-19.343l-18.332 8.7924zm2.4313-18.886v18.314l11.571-9.9892zm1.4945 24.548 6.5966-10.251-7.916 6.8339zm0.1113-32.204-1.4571 5.0316 8.918 6.4158zm-25.918 30.753v-13.792h-8.8757zm-8.8757-15.891h8.8757v-13.793zm34.246-18.89c0.4391 0 0.844 0.20447 1.0594 0.53483l12.312 18.89c0.207 0.31777 0.2083 0.70556 0 1.0243l-12.156 18.89c-0.2145 0.33321-0.6213 0.53973-1.0627 0.53973h-24.312c-0.4415 0-0.8482-0.20672-1.0627-0.53973l-12.156-18.89c-0.2039-0.31696-0.2039-0.70236 0-1.0193l12.156-18.89c0.2145-0.33322 0.6212-0.53973 1.0627-0.53973z"
         fill="none"
         stroke="#00dcff"
         stroke-width=".47881" />
      <path
         id="path1644-70-0"
         transform="matrix(3.2604 .39746 -.449 2.8862 529.71 757.97)"
         d="m5.7193 8.3158-7.9386 1.0483-4.8772-6.3509 3.0614-7.3992 7.9386-1.0483 4.8772 6.3509z"
         fill="#0062ff"
         style="paint-order:fill markers stroke" />
      <path
         id="path253-48-7"
         d="m540.59 751.95 1.7027-5.8798h-17.027zm-19.837-5.3144v15.492l17.944-8.6065zm0 34.709 17.923-5.1577-17.923-10.315zm6.2753 0.40656h15.135l-1.5135-3.9198zm13.174-7.2082v-19.343l-18.332 8.7924zm2.4312-18.886v18.314l11.571-9.9892zm1.4945 24.548 6.5967-10.251-7.916 6.8339zm0.1114-32.204-1.4571 5.0316 8.918 6.4158zm-25.918 30.753v-13.792h-8.8757zm-8.8757-15.891h8.8757v-13.793zm34.246-18.89c0.4391 0 0.844 0.20447 1.0594 0.53483l12.312 18.89c0.207 0.31777 0.2083 0.70556 0 1.0243l-12.156 18.89c-0.2145 0.33321-0.6212 0.53973-1.0626 0.53973h-24.312c-0.4414 0-0.8483-0.20672-1.0626-0.53973l-12.156-18.89c-0.2039-0.31696-0.2039-0.70236 0-1.0193l12.156-18.89c0.2145-0.33322 0.6212-0.53973 1.0626-0.53973z"
         fill="none"
         stroke="#00dcff"
         stroke-width=".47881" />
      <path
         id="rect3300"
         d="m501.85 282.25h11.751v183.74s-3.7278 2.6438-5.8754 2.6438c-2.1477 0-5.8755-2.6438-5.8755-2.6438z"
         fill="url(#linearGradient10817)"
         stroke-linecap="round"
         stroke-linejoin="round"
         stroke-width="7.1904"
         style="paint-order:fill markers stroke" />
      <ellipse
         id="path4238"
         cx="508.8"
         cy="235.79"
         rx="5.8754"
         ry="42.196"
         fill="url(#linearGradient10825)"
         style="paint-order:fill markers stroke" />
      <path
         id="path8936"
         d="m1239.4 508.38v-31.021h20.979v5.9167h-13.229v5.4375h12.188v5.9167h-12.188v7.8333h13.229v5.9167zm-4.6042-15.479c0 2.8889-0.6319 5.4792-1.8958 7.7708-1.2639 2.2778-2.8611 4.0278-4.7917 5.25-1.6111 1.0417-3.3681 1.7153-5.2708 2.0208-1.8889 0.29167-3.9028 0.4375-6.0417 0.4375h-9.7083v-31.021h9.625c2.1806 0 4.2222 0.13889 6.125 0.41667s3.6875 0.95139 5.3542 2.0208c2.0417 1.3056 3.6528 3.0694 4.8333 5.2917 1.1806 2.2083 1.7708 4.8125 1.7708 7.8125zm-8-0.0625c-0.5327-1.971-0.3541-3.7847-1.0625-5.2292-0.6944-1.4583-1.7708-2.5972-3.2292-3.4167-1.0556-0.58333-2.1667-0.90278-3.3333-0.95833-1.1528-0.0555-2.5347-0.0833-4.1458-0.0833h-0.1458v19.417h0.1458c1.75 0 3.2222-0.0278 4.4167-0.0833 1.2083-0.0694 2.3542-0.44444 3.4375-1.125 1.2778-0.80555 2.25-1.9167 2.9167-3.3333s1.5327-3.2165 1-5.1875zm-25.208 4.75h-13.813v-5.7917h13.813zm-30.333 11.354c1.1784 2.0621-4.4653-0.22917-6.2708-0.6875-1.7917-0.45833-3.4583-1.0278-5-1.7083v-7.375h0.7084c1.5556 1.3194 3.2708 2.3333 5.1458 3.0417s3.6944 1.0625 5.4583 1.0625c0.4444 0 1.0278-0.0486 1.75-0.14583 0.7361-0.0972 1.3264-0.25001 1.7708-0.45834 0.5416-0.23611 1-0.56249 1.375-0.97916 0.375-0.43056 0.5625-0.99306 0.5625-1.6875 0-0.77777-0.3056-1.4097-0.9167-1.8958s-1.3403-0.84028-2.1875-1.0625c-1.0556-0.27778-2.1875-0.54167-3.3958-0.79167-1.1944-0.25-2.3125-0.55556-3.3542-0.91667-2.4028-0.84722-4.125-1.9861-5.1667-3.4167s-1.5625-3.2222-1.5625-5.375c0-2.9028 1.2292-5.25 3.6875-7.0417 2.4583-1.8056 5.5278-2.7083 9.2083-2.7083 1.8472 0 3.6806 0.1875 5.5 0.5625 1.8333 0.375 3.4722 0.88195 4.9167 1.5208v7.0833h-0.6875c-1.1528-0.98611-2.5625-1.8194-4.2292-2.5-1.6528-0.68056-3.3542-1.0208-5.1042-1.0208-0.6806 0-1.2917 0.0486-1.8333 0.14583-0.5417 0.0972-1.1111 0.28473-1.7083 0.56251-0.4861 0.22222-0.9097 0.55555-1.2708 1-0.3472 0.43055-0.5208 0.91666-0.5208 1.4583 0 0.79167 0.2777 1.4236 0.8333 1.8958 0.5694 0.45833 1.6597 0.875 3.2708 1.25 1.0417 0.23611 2.0417 0.46527 3 0.6875 0.9722 0.22222 2.0069 0.52777 3.1042 0.91666 2.1528 0.77778 3.75 1.8264 4.7917 3.1458 1.0556 1.3056 1.5833 3.0347 1.5833 5.1875 0 3.0833-1.2153 5.5625-3.6458 7.4375-2.4167 1.875-11.859-0.769-9.8125 2.8125zm-35.833-0.5625v-31.021h20.979v5.9167h-13.229v5.4375h12.188v5.9167h-12.188v7.8333h13.229v5.9167zm-15.646-23.396-11.813 31.979h-7.8333l3.5417-9.1458-8.5833-22.833h7.6667l4.9167 14.667 4.6042-14.667zm-33.313 11.521c-2.3333 0-0.3541-4-1.0625-5-0.7083-1-1.7986-1.5-3.2708-1.5-0.6527 0-1.3056 0.10417-1.9583 0.3125-0.6389 0.20833-1.2708 0.52083-1.8958 0.9375v11.75c0.4861 0.19444 0.9723 0.32638 1.4583 0.39583 0.5 0.0695 0.9931 0.10417 1.4792 0.10417 1.7639 0 3.0764-0.58333 3.9375-1.75 0.875-1.1667 3.6458-5.25 1.3125-5.25zm7.4583-0.14583c-0.5338 3.6837-0.9444 6.7361-2.8333 9.0417-1.8889 2.2917-4.2292 3.4375-7.0208 3.4375-1.1667 0-2.1806-0.13194-3.0417-0.39583s-1.7778-0.67361-2.75-1.2292l-0.3125 1.1667h-6.9792v-32.417h7.2917v11.458c1.0694-0.91667 2.1597-1.6597 3.2708-2.2292 1.1111-0.56944 2.3958-0.85416 3.8542-0.85416 2.7222 0 4.8194 1.0625 6.2917 3.1875 1.4861 2.125 2.7691 5.1083 2.2292 8.8333zm-41.021 12.021h-7.2917v-2.4375c-0.4722 0.38889-1.0139 0.80555-1.625 1.25-0.5972 0.44445-1.125 0.77778-1.5833 1-0.5833 0.27778-1.1597 0.48611-1.7292 0.625-0.5694 0.13889-1.25 0.20833-2.0417 0.20833-2.6667 0-4.7778-1.1042-6.3333-3.3125-1.5556-2.2083-2.3333-5.1597-2.3333-8.8542 0-2.0417 0.2639-3.8125 0.7917-5.3125s1.257-2.8056 2.1875-3.9167c0.8472-1.0139 1.875-1.8125 3.0833-2.3958 1.2083-0.59722 2.4861-0.89583 3.8333-0.89583 1.2222 0 2.2222 0.13194 3 0.39583 0.7917 0.25 1.7083 0.64583 2.75 1.1875v-9.9583h7.2917zm-7.2917-6.4583v-11.479c-0.3611-0.18056-0.8333-0.32639-1.4167-0.4375-0.5833-0.125-1.0833-0.1875-1.5-0.1875-1.75 0-3.0694 0.61111-3.9583 1.8333-0.875 1.2222-1.3125 2.9306-1.3125 5.125 0 2.3056 0.3472 3.9722 1.0417 5 0.7084 1.0278 1.8472 1.5417 3.4167 1.5417 0.6389 0 1.2847-0.125 1.9375-0.375s1.25-0.59028 1.7917-1.0208zm-27.333 7.0833c4.0596-1.7398-7.8056-1.0556-10.167-3.1667-2.3472-2.1111-3.5208-5.1181-3.5208-9.0208 0-3.8194 1.0972-6.8681 3.2917-9.1458s5.2639-3.4167 9.2083-3.4167c3.5833 0 6.2778 0.96528 8.0833 2.8958 1.8056 1.9306 2.7083 4.6944 2.7083 8.2917v2.625h-15.979c0.069 1.0833 0.2986 1.9931 0.6875 2.7292 0.3889 0.72223 0.9028 1.2986 1.5417 1.7292 0.625 0.43055 1.3542 0.74305 2.1875 0.9375 0.8334 0.18055 1.7431 0.27083 2.7292 0.27083 0.8473 0 1.6806-0.0903 2.5-0.27083 0.8195-0.19445 1.5694-0.44445 2.25-0.75 0.5973-0.26389 1.1458-0.54861 1.6458-0.85417 0.5139-0.30555 0.9306-0.57639 1.25-0.8125h0.7709v6.0208c-0.5973 0.23611-1.1458 0.45834-1.6458 0.66667-0.4862 0.19444-1.1597 0.39583-2.0208 0.60416-0.7917 0.20833-1.6111 0.36806-2.4583 0.47917-0.8334 0.125-4.1731 0.66348-3.0625 0.1875zm2.4167-15.333c-0.042-1.5417-0.4028-2.7153-1.0833-3.5208-0.6666-0.80555-1.6944-1.2083-3.0833-1.2083-1.4167 0-2.5278 0.42361-3.3333 1.2708-0.7916 0.84722-1.2292 2-1.3125 3.4583zm-17.188-1.7917h-0.6041c-0.2778-0.0972-0.6806-0.16667-1.2083-0.20834-0.5278-0.0555-1.1111-0.0833-1.75-0.0833-0.76389 0-1.5694 0.11111-2.4167 0.33334-0.83333 0.22222-1.6458 0.48611-2.4375 0.79166v15.667h-7.2917v-23.396h7.2917v3.3542c0.33333-0.30555 0.79167-0.6875 1.375-1.1458 0.59722-0.47222 1.1389-0.84722 1.625-1.125 0.52778-0.31944 1.1389-0.59027 1.8333-0.8125 0.70834-0.23611 1.375-0.35416 2-0.35416 0.2361 0 0.5 7e-3 0.7916 0.0208 0.2917 0.0139 0.5556 0.0347 0.7917 0.0625zm-29.063 17.125c3.9504-1.9752-7.8056-1.0556-10.167-3.1667-2.3472-2.1111-3.5208-5.1181-3.5208-9.0208 0-3.8194 1.0972-6.8681 3.2917-9.1458s5.2639-3.4167 9.2083-3.4167c3.5833 0 6.2778 0.96528 8.0833 2.8958 1.8056 1.9306 2.7083 4.6944 2.7083 8.2917v2.625h-15.979c0.0695 1.0833 0.29861 1.9931 0.6875 2.7292 0.38889 0.72223 0.90278 1.2986 1.5417 1.7292 0.625 0.43055 1.3542 0.74305 2.1875 0.9375 0.83333 0.18055 1.7431 0.27083 2.7292 0.27083 0.84723 0 1.6806-0.0903 2.5-0.27083 0.81945-0.19445 1.5694-0.44445 2.25-0.75 0.59722-0.26389 1.1458-0.54861 1.6458-0.85417 0.51389-0.30555 0.93055-0.57639 1.25-0.8125h0.77084v6.0208c-0.59723 0.23611-1.1458 0.45834-1.6458 0.66667-0.48611 0.19444-1.1597 0.39583-2.0208 0.60416-0.79167 0.20833-1.6111 0.36806-2.4583 0.47917-0.83333 0.125-4.1432 0.72787-3.0625 0.1875zm2.4167-15.333c-0.0417-1.5417-0.40278-2.7153-1.0833-3.5208-0.66667-0.80555-1.6944-1.2083-3.0833-1.2083-1.4167 0-2.5278 0.42361-3.3333 1.2708-0.79167 0.84722-1.2292 2-1.3125 3.4583zm-17.5-8.6875-6.8333 23.396h-7.75l-4.1042-15.125-4.125 15.125h-7.75l-6.7708-23.396h7.6667l3.5833 15.479 4.4375-15.479h6.4375l4.1875 15.479 3.5208-15.479zm-38.729 11.708c0 3.8472-1.0556 6.882-3.1667 9.1042-2.0972 2.2083-5.0694 3.3125-8.9167 3.3125-3.8194 0-6.7917-1.1042-8.9167-3.3125-2.1111-2.2222-3.1667-5.257-3.1667-9.1042 0-3.8889 1.0556-6.9306 3.1667-9.125 2.125-2.2083 5.0972-3.3125 8.9167-3.3125 3.8333 0 6.8056 1.1111 8.9167 3.3333 2.1111 2.2083 3.1667 5.2431 3.1667 9.1042zm-7.4792 0.0417c0.21119-1.3728-0.11805-2.5417-0.35416-3.4583-0.22223-0.93055-0.53473-1.6736-0.9375-2.2292-0.43056-0.58333-0.91667-0.98611-1.4583-1.2083-0.54167-0.23611-1.1597-0.35417-1.8542-0.35417-0.65277 0-1.243 0.10417-1.7708 0.3125-0.52778 0.19445-1.0139 0.57639-1.4583 1.1458-0.41667 0.54167-0.75 1.2847-1 2.2292-0.25 0.94444-0.375 2.1319-0.375 3.5625s0.11806 2.5903 0.35417 3.4792c0.23611 0.875 0.54167 1.5764 0.91667 2.1042 0.38889 0.54167 0.875 0.9375 1.4583 1.1875s1.2292 0.375 1.9375 0.375c0.58333 0 1.1736-0.125 1.7708-0.375 0.61111-0.25 1.0972-0.625 1.4583-1.125 0.43056-0.59723 0.75695-1.3125 0.97917-2.1458 0.22222-0.84722 0.10736-2.0312 0.33333-3.5zm-18.729-9.5834c0 1.4444-0.22917 2.8194-0.6875 4.125s-1.1181 2.3958-1.9792 3.2708c-0.52777 0.54167-1.1111 1.0417-1.75 1.5-0.625 0.45833-1.3194 0.84722-2.0833 1.1667-0.76389 0.31944-1.5972 0.56944-2.5 0.75-0.88889 0.18055-1.8889 0.27083-3 0.27083h-4.0833v10.146h-7.7917v-31.021h12.042c1.7917 0 3.3333 0.16667 4.625 0.5 1.3056 0.31945 2.4861 0.83334 3.5417 1.5417 1.1667 0.77778 2.0694 1.8194 2.7083 3.125 0.63889 1.2917 0.95833 2.8333 0.95833 4.625zm-8 0.1875c0-0.875-0.20833-1.625-0.625-2.25-0.41667-0.63889-0.91667-1.0764-1.5-1.3125-0.73611-0.31945-1.4444-0.5-2.125-0.54167-0.66667-0.0555-1.5764-0.0833-2.7292-0.0833h-1.1042v9.2917h0.54166c0.73611 0 1.4306-7e-3 2.0833-0.0208 0.65278-0.0139 1.2222-0.0625 1.7083-0.14584 0.41667-0.0694 0.85417-0.20138 1.3125-0.39583 0.47222-0.20833 0.83333-0.4375 1.0833-0.6875 0.52778-0.51389 0.88195-1.0486 1.0625-1.6042 0.19445-0.55555 0.29167-1.3056 0.29167-2.25zm224.99-88.206c-5.623-5.4513-9.9916-11.729-13.101-18.833-3.1144-7.1039-4.6691-14.776-4.6691-23.018v-61.037c0-8.2413 1.5261-15.839 4.5737-22.792 3.0428-6.9536 7.4449-13.306 13.197-19.058 5.7518-5.7518 12.114-10.151 19.092-13.199 6.9727-3.0476 14.561-4.5714 22.759-4.5714h111.52c8.1984 0 15.786 1.5238 22.759 4.5714 6.9775 3.0476 13.34 7.4472 19.092 13.199 5.7518 5.7518 10.154 12.104 13.201 19.058 3.0428 6.9536 4.569 14.551 4.569 22.792v61.037c0 8.2413-1.5548 15.914-4.6691 23.018-3.1096 7.1039-7.4783 13.382-13.101 18.833-2.7042 2.6183-5.6468 5.0221-8.8184 7.2112-3.1764 2.1891-6.5387 4.0668-10.078 5.6335-3.5436 1.5667-7.235 2.7796-11.074 3.638-3.8441 0.85847-7.8026 1.2877-11.88 1.2877h-111.52c-4.0778 0-8.0363-0.42924-11.88-1.2877-3.8393-0.85847-7.5307-2.0713-11.074-3.638-3.5388-1.5667-6.9012-3.4444-10.073-5.6335-3.1763-2.1891-6.119-4.5928-8.8232-7.2112zm19.831-38.696c0 2.833 0.62 5.5691 1.8695 8.2089 1.2448 2.6398 2.8854 4.9791 4.9219 7.018 2.0413 2.0389 4.3782 3.6809 7.0204 4.9257 2.6374 1.2448 5.375 1.8672 8.208 1.8672h111.52c2.8329 0 5.5705-0.62239 8.2079-1.8672 2.6422-1.2448 4.9792-2.8868 7.0204-4.9257 2.0365-2.0389 3.6771-4.3782 4.9267-7.018 1.2448-2.6398 1.8648-5.3759 1.8648-8.2089v-67.347c0-3.0476-0.5675-5.913-1.7074-8.5952-1.1351-2.6832-2.7042-5.0221-4.6978-7.018-1.9983-1.996-4.3352-3.5631-7.0204-4.7001-2.6803-1.138-5.5466-1.7064-8.5942-1.7064h-111.52c-3.0476 0-5.9139 0.56849-8.5943 1.7064-2.6851 1.137-5.0221 2.7042-7.0204 4.7001-1.9935 1.996-3.5626 4.3348-4.6977 7.018-1.1399 2.6822-1.7074 5.5476-1.7074 8.5952zm-279.24-123.81h160.77c6.0522 0 11.58 0.7297 16.578 2.1891 5.003 1.4594 9.51 3.4554 13.521 5.9878 4.0157 2.5325 7.5116 5.5371 10.497 9.014 2.9808 3.4768 5.4608 7.2431 7.4353 11.3 1.9745 4.0558 3.4577 8.3052 4.4402 12.748 0.992 4.4431 1.4594 8.9176 1.4213 13.425 0 4.5928-0.496 9.1427-1.4833 13.65-0.9872 4.507-2.4705 8.7884-4.4402 12.845-1.9745 4.0563-4.4545 7.8016-7.4401 11.236-2.9808 3.4339-6.4672 6.4061-10.464 8.9171-3.9871 2.511-8.4846 4.475-13.488 5.8915-4.9982 1.4165-10.526 2.1247-16.578 2.1247h-0.7107l57.952 70.953h-46.682l-57.947-70.953h-96.383v70.953h-37.606l-0.062-159.61c0-3.0905 0.49601-5.902 1.4832-8.4345 0.98248-2.5325 2.3894-4.7111 4.2161-6.5349 1.8219-1.8247 4.0014-3.2302 6.5339-4.2175 2.5325-0.98724 5.3464-1.4809 8.4369-1.4809zm160.06 74.88c2.7948 0 5.2367-0.57947 7.3447-1.7384 2.0985-1.1589 3.8584-2.6827 5.2797-4.5714 1.4164-1.8886 2.4752-4.0458 3.1858-6.471 0.7059-2.4252 1.0731-4.9038 1.0922-7.4363 0.024-2.5325-0.31-5.0116-0.9968-7.4368-0.6867-2.4252-1.7265-4.5819-3.1239-6.4705-1.3926-1.8886-3.1525-3.4124-5.2796-4.5714-2.1223-1.1589-4.6214-1.7384-7.5021-1.7384h-143.06v40.434zm-443.04-40.434v-34.446h230.76v34.446h-96.511v145.83h-37.668v-145.83zm-262.31 125.17v-138.94c0-3.0905 0.49362-5.902 1.4809-8.4345 0.98725-2.5325 2.3932-4.7111 4.217-6.5354 1.8247-1.8242 4.0029-3.2298 6.5354-4.217 2.5325-0.98724 5.344-1.4809 8.4345-1.4809h210.02v34.446h-193.03v36.507h169.59v34.446h-169.59v40.434h193.03v34.446h-210.02c-3.0905 0-5.902-0.49362-8.4345-1.4809-2.5325-0.98724-4.7106-2.3932-6.5354-4.2175-1.8238-1.8242-3.2298-4.0024-4.217-6.5349-0.98724-2.5325-1.4809-5.344-1.4809-8.4345zm-241.64-159.61h160.77c6.0522 0 11.579 0.7297 16.579 2.1891 5.0011 1.4594 9.5081 3.4554 13.521 5.9878 4.0138 2.5325 7.5121 5.5371 10.495 9.014 2.9837 3.4768 5.4623 7.2431 7.4368 11.299s3.4554 8.3057 4.4426 12.748c0.98724 4.4426 1.4594 8.9176 1.4165 13.425 0 4.5928-0.49362 9.1427-1.4809 13.65-0.98724 4.507-2.4681 8.7884-4.4426 12.845-1.9745 4.0563-4.4531 7.8016-7.4368 11.236-2.9827 3.4339-6.4705 6.4061-10.462 8.9171s-8.4879 4.475-13.489 5.8915c-5.0001 1.4165-10.527 2.1247-16.579 2.1247h-0.70824l57.947 70.953h-46.679l-57.947-70.953h-96.385v70.953h-37.601l-0.06439-159.61c0-3.0905 0.49362-5.902 1.4809-8.4345 0.98724-2.5325 2.3932-4.7111 4.217-6.5354 1.8247-1.8242 4.0029-3.2298 6.5354-4.217 2.5325-0.98724 5.344-1.4809 8.4345-1.4809zm160.06 74.88c2.79 0 5.2367-0.57947 7.3399-1.7384s3.8631-2.6827 5.2796-4.5714c1.4165-1.8886 2.4786-4.0458 3.1868-6.471 0.70824-2.4252 1.0736-4.9038 1.0946-7.4363 0.0219-2.5325-0.31096-5.0116-0.99774-7.4368-0.68677-2.4252-1.7274-4.5819-3.1229-6.4705-1.3945-1.8886-3.1549-3.4124-5.2796-4.5714s-4.6248-1.7384-7.5007-1.7384h-143.06v40.434z"
         fill="url(#linearGradient8947)"
         stroke="#000"
         stroke-width=".91502" />
    </g>
  </g>
  <g
     id="DECK"
     transform="matrix(.47693 0 0 .47693 26.642 191.14)"
     style="stroke:#000000;stroke-opacity:1">
    <path
       id="path20"
       d="m1317.6 564.23c15.624-2.7548 46.674-8.5726 46.674-8.5726 1.3331 14.515 4.544 29.631 9.6717 47.103 4.6703 15.914 11.185 34.352 15.786 48.324 5.1783 15.726 8.3286 26.743 10.705 36.847 2.1552 9.1645 3.0131 14.725 3.0131 14.725 11.772-17.012 22.081-33.62 34.807-54.931 12.508-20.946 23.109-39.134 35.732-58.149 12.431-18.725 23.549-33.201 33.86-45.624 9.7205-11.712 16.517-19.059 16.517-19.059 13.09-2.3371 28.204-4.9556 44.483-7.5624 14.945-2.3933 27.063-4.1404 27.063-4.1404-8.9686 8.7975-19.132 18.926-29.189 29.704-10.26 10.996-19.115 21.274-27.391 31.676-15.87 19.948-26.836 36.788-26.836 36.788 11.483 10.924 24.284 23.483 35.663 37.473 11.727 14.417 20.352 28.327 28.128 43.922 7.0327 14.106 13.708 30.561 17.996 40.936 4.6337 11.213 7.7704 18.531 7.7704 18.531-8.4654 1.3225-17.89 3.0778-28.629 5.4561-9.7282 2.1546-17.705 4.2007-17.705 4.2007-4.0835-10.566-9.3072-24.322-14.944-36.65-6.0229-13.173-12.442-24.698-20.404-35.992-7.766-11.016-15.857-20.143-22.551-27.185-6.5559-6.8968-11.063-11.144-11.063-11.144-12.196 18.934-27.761 42.854-46.944 67.574-17.898 23.064-35.321 41.57-35.321 41.57-1.4558 10.11-3.8756 20.978-7.7028 33.441-3.4494 11.233-6.961 20.384-6.961 20.384-8.4634 2.7168-18.466 5.8863-29.095 9.1698-9.8121 3.0311-17.779 5.4152-17.779 5.4152 8.4574-20.568 16.396-43.688 17.745-70.57 1.3886-27.667-4.2903-53.771-13.495-83.427-10.881-35.055-16.951-48.797-23.673-76.288-5.0471-20.64-5.9307-33.959-5.9307-33.959 4e-4 4e-3 7e-4 8e-3 0 0.0126zm-315.36 69.949c6.5537-12.148 14.524-21.536 23.658-28.217 9.11-6.6674 19.315-10.221 30.33-10.76 43.696-2.1306 90.192-5.9936 141.03-12.391 45.893-5.7743 81.707-11.878 81.707-11.878 1.077 11.895 3.3067 24.457 6.7372 38.394 3.0874 12.543 6.0932 22.231 6.0932 22.231-40.119 8.8564-86.978 17.993-139.03 24.945-47.717 6.3718-87.3 8.9304-87.3 8.9304-4.1987 0.29761-7.9357 1.6879-11.218 4.1807-3.2887 2.4927-5.9407 5.7884-7.9706 9.8772-2.0232 4.0885-3.3297 8.78-3.915 14.049-0.5918 5.2676-0.3272 10.775 0.7737 16.49 4.519 23.428 9.1201 48.602 10.731 72.242 1.4775 21.685-0.2501 36.615-0.2501 36.615-0.3658 3.8395 0.077 7.3952 1.3705 10.688 1.2857 3.2924 3.1194 6.0814 5.5601 8.4033 2.4472 2.3206 5.3798 4.0641 8.8613 5.2511 3.4702 1.1862 7.2727 1.5694 11.411 1.1555 21.567-2.1547 46.222-5.2474 73.552-9.7923 27.344-4.5474 53.514-9.907 78.54-15.802 48.885-11.515 85.416-23.123 85.416-23.123-1.8585 8.4784-4.5233 17.531-8.3666 27.749-3.4665 9.2161-6.8316 16.639-6.8316 16.639-41.62 11.535-90.894 23.542-146.03 32.716-50.548 8.4099-92.415 11.773-92.415 11.773-5.9387 0.52321-11.471 0.50078-16.609-0.051-5.1313-0.55235-9.8679-1.5538-14.223-2.9931-4.3493-1.44-8.3051-3.2741-11.871-5.5027-3.5743-2.229-6.7502-4.7498-9.5497-7.5724-5.8268-5.8859-9.724-12.953-12.108-21.5-2.395-8.5587-2.9137-18.292-1.9714-29.642 1.3398-16.066 0.92276-34.466-1.8894-58.448-2.5291-21.569-5.9965-40.825-5.9965-40.825-2.576-15.466-3.032-30.358-1.0028-44.446 2.0226-14.089 6.2263-27.236 12.781-39.385zm-401.36 178.37c4.8409-13.731 9.2531-30.11 10.983-50.832 1.7613-21.093 0.477-42.898-2.4547-67.176-2.8161-23.32-6.6212-46.132-8.9483-62.856-2.3347-16.778-3.3354-27.282-3.3354-27.282-0.56074-5.5916-0.25153-10.554 0.91402-14.916 1.1649-4.3592 3.0806-7.9876 5.695-10.897 2.6145-2.908 5.835-4.9954 9.5946-6.2606 3.7605-1.2655 7.9543-1.5899 12.537-0.95883 58.041 7.9998 123.64 15.73 192.8 20.622 63.263 4.4749 112.17 5.0648 112.17 5.0648 0.15383 13.72 1.159 28.475 2.9929 45.066 1.65 14.928 3.3793 26.544 3.3793 26.544-23.695-0.45242-51.354-1.5481-82.778-3.8257-31.494-2.2826-62.429-5.4366-92.763-9.2451-59.269-7.4414-106.48-16.16-106.48-16.16 1.3094 11.265 3.4758 27.863 5.126 41.165 1.6516 13.313 2.7069 23.402 2.7069 23.402 45.736 9.8532 98.532 19.473 155.92 26.092 52.485 6.0543 94.159 7.5962 94.159 7.5962 1.3852 11.445 2.6808 24.034 3.3661 36.613 0.62869 11.54 0.51628 20.059 0.51628 20.059-21.784-1.0246-47.069-2.8158-75.481-5.92-28.464-3.1098-56.14-7.1075-82.946-11.756-52.412-9.0892-92.74-19.175-92.74-19.175-0.21564 10.913-1.0764 22.357-3.067 34.164-1.804 10.7-4.0635 18.667-4.0635 18.667 51.279 12.649 111.34 24.743 177.61 32.153 30.798 3.4435 56.943 5.2042 77.196 6.1647 19.68 0.9333 31.764 1.0741 31.764 1.0741-2.1819 7.8668-5.0186 15.932-8.8358 24.779-3.4313 7.953-6.5932 14.173-6.5932 14.173-26.911-0.69777-58.142-2.4077-93.282-5.9715-35.206-3.5707-69.367-8.4969-102.42-14.402-32.508-5.8079-60.481-11.95-81.109-16.778-20.353-4.7633-32.641-7.9751-32.641-7.9751-4.3565-1.1081-8.0619-2.6788-11.128-4.7116-3.0671-2.0333-5.4223-4.4148-7.096-7.147-1.6731-2.733-2.6022-5.7146-2.8321-8.96-0.23001-3.2465 0.30917-6.6342 1.5633-10.194zm-101.63 67.678c-10.135 5.8774-20.12 10.143-30.463 12.291-10.365 2.1525-20.958 1.888-32.235-1.0765-32.522-8.5431-73.807-19.352-111.46-27.854-35.979-8.1231-63.049-12.555-63.049-12.555 3.5035-11.092 8.8802-22.213 16.285-34.028 6.6655-10.637 12.72-18.482 12.72-18.482 27.325 6.0397 57.754 14.244 96.202 25.277 34.393 9.8692 63.774 18.505 63.774 18.505 3.9829 1.1549 8.062 1.5069 12.237 1.0817 4.1738-0.42382 8.1436-1.5072 11.916-3.219 3.7703-1.7107 7.1847-3.9772 10.234-6.777 3.0491-2.7989 5.4633-5.9969 7.227-9.5978 6.5296-13.327 14.751-29.811 20.36-47.405 5.8891-18.471 8.4927-36.55 8.0857-56.688-0.39092-19.342-3.5884-38.175-6.3852-52.362-2.7962-14.184-4.977-23.256-4.977-23.256-1.0156-4.4954-2.8741-9.0993-5.5808-13.775-2.707-4.6758-5.8718-9.0133-9.4881-12.986-3.6182-3.975-7.51-7.389-11.681-10.247-4.1711-2.8579-8.2366-4.7207-12.186-5.6172-31.135-7.0615-76.696-17.667-112.6-25.598-35.977-7.9476-62.419-13.053-62.419-13.053-5.7496-8.7627-12.505-19.523-17.597-30.134-4.7904-9.9825-6.7732-17.67-6.7732-17.67 35.081 5.1971 71.748 11.196 117.01 18.771 40.087 6.7081 72.968 12.208 72.968 12.208 5.9763 0.992 11.809 2.6356 17.513 4.9701 5.7063 2.3354 11.221 5.2267 16.593 8.7115 5.3721 3.4846 10.539 7.4758 15.549 11.997 5.0086 4.5199 9.7608 9.3884 14.275 14.601 9.3706 10.832 17.395 22.969 23.955 36.054 6.5525 13.071 11.17 26.635 13.489 40.086 3.0924 17.925 6.3963 38.886 7.3539 59.412 0.98738 21.164-0.60258 39.193-4.5952 56.387-3.814 16.425-9.5187 30.46-13.858 40.444-4.3711 10.058-7.3662 16.276-7.3662 16.276-4.3695 9.44-10.628 17.87-18.278 25.298-7.6441 7.4226-16.68 14.166-26.758 20.009z"
       fill="#fff"
       stroke-width=".67224"
       style="stroke:#000000;stroke-opacity:1" />
  </g>
  <g
     id="g12031"
     transform="matrix(0.05122566,0.5043225,-0.5043225,0.05122566,230.72572,286.12789)"
     fill="url(#linearGradient12547)"
     stroke="url(#linearGradient12578)"
     style="fill:url(#linearGradient12547);stroke:url(#linearGradient12578)">
    <g
       id="g12029"
       fill="url(#linearGradient12547)"
       stroke="url(#linearGradient12578)"
       style="fill:url(#linearGradient1);stroke:url(#linearGradient2)">
      <path
         id="path12027"
         d="m 593.2,18.756 c -3.2,-3.2 -8,-3.2 -11.2,0 l -108.4,108 c -2,-0.4 -4.4,-1.6 -7.6,-2.8 -2.4,-1.2 -5.2,-2.8 -7.6,-4.8 L 570.8,6.756 c 3.2,-3.2 3.2,-8 0,-11.2 -3.2,-3.2 -8,-3.2 -11.2,0 l -114,113.6 c -2,-1.6 -4,-3.6 -6,-5.6 -2,-2 -4,-4 -5.6,-6 l 113.6,-113.6 c 3.2,-3.2 3.2,-8 0,-11.2 -3.2,-3.2 -8,-3.2 -11.2,0 l -112,112.4 c -4,-6 -6.8,-11.6 -7.6,-15.2 l 108.4,-108.4 c 3.2,-3.2 3.2,-8 0,-11.2 -3.2,-3.2 -8,-3.2 -11.2,0 l -111.6,111.2 c -10.8,10.8 -16.4,24.8 -16.4,39.6 0,6.4 1.2,12.4 3.2,18 l -296.4,288 c -12,12 -12.4,32 0,44 5.6,6 13.6,8.8 21.6,8.8 8,0 16,-3.2 22.4,-9.2 l 282.4,-298.4 c 7.2,3.2 15.2,5.2 23.2,5.2 14.4,0 28.8,-5.6 39.6,-16.4 l 111.2,-111.2 c 3.2,-3.2 3.2,-8 0,-11.2 z"
         fill="url(#linearGradient13084)"
         stroke="url(#linearGradient13086)"
         style="fill:url(#linearGradient13084);stroke:url(#linearGradient13086)" />
    </g>
  </g>
</svg>
