<?xml version="1.0" encoding="UTF-8" standalone="no"?>
<svg
   id="svg215"
   version="1.1"
   viewBox="0 0 1280 800"
   sodipodi:docname="chineseNYalt(optsvg).svg"
   inkscape:version="1.2.2 (732a01da63, 2022-12-09)"
   xmlns:inkscape="http://www.inkscape.org/namespaces/inkscape"
   xmlns:sodipodi="http://sodipodi.sourceforge.net/DTD/sodipodi-0.dtd"
   xmlns:xlink="http://www.w3.org/1999/xlink"
   xmlns="http://www.w3.org/2000/svg"
   xmlns:svg="http://www.w3.org/2000/svg">
  <sodipodi:namedview
     id="namedview47"
     pagecolor="#ffffff"
     bordercolor="#111111"
     borderopacity="1"
     inkscape:showpageshadow="0"
     inkscape:pageopacity="0"
     inkscape:pagecheckerboard="1"
     inkscape:deskcolor="#d1d1d1"
     showgrid="false"
     inkscape:zoom="0.95546875"
     inkscape:cx="560.98119"
     inkscape:cy="399.80376"
     inkscape:window-width="1920"
     inkscape:window-height="1009"
     inkscape:window-x="-8"
     inkscape:window-y="-8"
     inkscape:window-maximized="1"
     inkscape:current-layer="svg215" />
  <defs
     id="defs219">
    <linearGradient
       id="linearGradient2102">
      <stop
         id="stop2098"
         stop-color="#c00"
         offset="0" />
      <stop
         id="stop2100"
         stop-color="#ef2929"
         offset="1" />
    </linearGradient>
    <clipPath
       id="clipPath27143">
      <path
         id="path27145"
         d="m179.24 144.03-13.6 6e-3s1.3084 3.6603 2.76 3.6602h1.6795a2.5446 1.8416 0 0 0 2.3606 1.156 2.5446 1.8416 0 0 0 2.3601-1.156h1.3823c1.5913 0 3.0572-3.6664 3.0572-3.6664z"
         fill="#c00"
         stroke-linejoin="round"
         stroke-width=".34913" />
    </clipPath>
    <linearGradient
       id="linearGradient2104"
       x2="2683.8"
       y1="500"
       y2="500"
       gradientUnits="userSpaceOnUse"
       xlink:href="#linearGradient2102" />
  </defs>
  <g
     id="svgg"
     transform="matrix(3.1578 0 0 3.1578 13.594 43.987)"
     fill="#c00"
     fill-opacity=".42655">
    <path
       id="path0"
       d="m274.42 5.234c-4.215 1.042-7.467 6.755-7.931 13.933-1.148 17.754 8.049 25.241 34.7 28.245 7.898 0.891 8.497 1.064 12.997 3.76 3.831 2.294 6.768 3.161 10.707 3.161 4.484 0 5.21-0.707 4.621-4.502-0.558-3.596-2.112-4.695-8.112-5.735-7.285-1.263-8.163-2.185-9.398-9.871-0.645-4.007-3.129-5.392-6.212-3.464-1.957 1.224-2.604 3.091-2.617 7.55l-5e-3 1.894-1.042-0.069c-2.019-0.136-6.583-2.324-8.294-3.978-3.064-2.96-3.117-6.461-0.161-10.575 1.733-2.41 1.905-3.243 0.965-4.661-1.382-2.087-3.599-2.418-6.494-0.97-3.361 1.682-5.002 5.013-5.891 11.965-0.4 3.125-0.528 3.22-1.961 1.458-4.223-5.191-4.292-11.772-0.19-18.389 2.061-3.324 2.427-4.881 1.557-6.621-1.317-2.637-4.198-3.882-7.239-3.131m93.666 24.592c-8.249 1.77-12.294 13.318-7.152 20.421 2.051 2.834 3.06 3.378 7.109 3.837 1.837 0.208 2.558 0.362 3.176 0.681 0.95 0.49 1.214 0.406 0.862-0.275-0.361-0.699-1.358-1.299-2.507-1.51-2.022-0.37-3.129-0.67-3.881-1.053-6.066-3.082-6.913-12.37-1.612-17.686 2.533-2.541 4.716-3.137 5.01-1.368 0.321 1.934 1.678 2.701 3.092 1.748 3.095-2.086 0.025-5.679-4.097-4.795m-42.833 5.504c-1.857 0.262-6.506 1.651-9.208 2.751-1.655 0.674 0.238 2.96 3.31 4l1.398 0.473 7.083 0.119c6.73 0.114 7.134 0.139 8.084 0.488 4.479 1.648 4.281 1.652 3.414-0.078-2.488-4.964-8.887-8.487-14.081-7.753m-59.583 2.161c0 0.603 1.332 4.021 2.407 6.176 6.472 12.976 18.467 19.586 31.804 17.524 2.139-0.331 2.245-0.458 1.689-2.024-1.088-3.066-0.386-5.068 2.676-7.625l0.826-0.691-0.456-0.173c-0.639-0.243-4.622-0.63-9.53-0.926-14.73-0.889-18.088-2.187-26.855-10.377-2.341-2.186-2.561-2.348-2.561-1.884m109.38-0.078c-4.019 1.131-6.173 4.632-4.652 7.56 1.487 2.863 3.099 3.542 9.358 3.943 4.694 0.3 5.18 0.355 6.742 0.771 2.023 0.538 4.704 2.13 5.329 3.163 0.144 0.239 0.389 0.614 0.545 0.833 0.338 0.48 0.63 2.158 0.635 3.65 4e-3 0.97 0.194 1.707 0.385 1.496 1.589-1.753 0.643-6.01-1.893-8.518-2.109-2.085-3.705-2.581-9.576-2.972-6.843-0.456-8.565-1.029-9.165-3.052-0.811-2.728 0.709-4.662 3.863-4.915 1.201-0.096 1.23-0.051 0.637 0.986-1.428 2.498 1.922 4.009 3.747 1.689 2.207-2.806-1.686-5.835-5.955-4.634m-28.498 1.678c-0.094 0.179-0.223 0.956-0.288 1.726-0.222 2.62-0.228 2.622-2.368 0.746-1.663-1.457-3.068-2.392-3.598-2.395-0.368-2e-3 -0.382-0.126 0.214 1.879 0.556 1.869 0.994 4.136 0.994 5.141 0 0.852-0.05 0.848-3.272-0.283-4.379-1.537-7.778-2.158-9.186-1.677-0.551 0.188-0.493 0.308 0.845 1.762 2.919 3.169 3.551 6.832 1.871 10.825-2.43 5.772-7.876 9.128-16.258 10.019-2.901 0.309-3.051 0.433-1.463 1.209 1.35 0.659 3.855 1.283 6.457 1.61 2.607 0.327 2.719 0.425 1.731 1.519-2.876 3.183-7.813 5.164-17.517 7.027-1.042 0.2-1.15 0.541-0.25 0.795 3.276 0.923 7.108 1.377 11.584 1.372 3.113-4e-3 3.791 0.037 3.791 0.225 0 0.46-3.3 2.942-6.083 4.574-0.825 0.484-1.894 1.11-2.375 1.392-0.481 0.283-0.875 0.602-0.875 0.71 0 0.401 2.773 1.199 7.712 2.222 3.11 0.644 3.184 0.676 6.019 2.664 7.196 5.046 11.562 6.301 17.852 5.132 5.572-1.035 8.211-0.286 12.5 3.549 2.68 2.396 4.148 3.138 6.5 3.289 5.712 0.365 11.433-5.66 11.488-12.098 0.015-1.8-0.119-1.862-1.123-0.516-1.827 2.449-2.634 2.96-4.907 3.107-2.294 0.149-2.387 0.05-2.698-2.869-0.208-1.953-0.773-3.58-1.243-3.58-0.139 0-0.567 0.539-0.951 1.197-2.162 3.702-5.059 4.262-10.232 1.978-3.338-1.473-4.092-1.575-7.5-1.011-5.147 0.852-7.731 0.402-10.356-1.803-5.886-4.943-5.784-10.2 0.287-14.773 4.578-3.448 10.048-4.096 20.985-2.486 6.694 0.986 12.256 0.1 14.41-2.296 0.871-0.969 0.953-1.341 0.739-3.328-0.198-1.84-0.075-3.847 0.356-5.812 0.394-1.792 0.451-1.759-2.012-1.157-6.561 1.606-10.478 1.638-15.116 0.124-2.801-0.914-3.279-1.311-2.418-2.006 2.691-2.175 4.094-5.088 4.325-8.977 0.151-2.538-0.584-6.29-1.439-7.343l-0.317-0.391-0.079 0.417c-0.892 4.699-2.445 7.934-2.959 6.167-1.382-4.76-3.272-8.549-3.777-7.576m-85.803 7.511c-1.928 20.569 29.049 34.923 55.46 25.701 2.051-0.717 1.988-0.832-0.956-1.724-3.215-0.975-5.744-2.188-7.172-3.442-1.111-0.975-0.869-1.07 4.175-1.634 9.088-1.018 13.755-3.195 16.52-7.71 0.744-1.215 0.686-1.281-0.887-1.024-4.531 0.743-8.481-3e-3 -11.962-2.257-5.522-3.578-10.434-3.679-12.094-0.249-2.009 4.15 3.853 9.133 7.193 6.116 2.677-2.418 0.26-5.659-3.003-4.028-1.161 0.58-1.319 0.559-0.961-0.127 1.954-3.741 7.286-1.64 7.085 2.792-0.123 2.691-1.12 3.165-7.347 3.486-2.798 0.144-3.802 0.266-5.407 0.656-13.368 3.253-26.482-1.901-37.299-14.658-3.122-3.682-3.175-3.712-3.345-1.898m117.3 4.822c-2.512 0.677-3.969 2.252-4.64 5.016-0.152 0.629-0.47 1.481-0.706 1.893-4.153 7.258 1.593 12.679 7.478 7.057 1.475-1.41 1.198-1.346 3.443-0.795 5.526 1.358 9.153-3.93 4.976-7.254-1.188-0.946-1.688-1.548-2.319-2.793-1.334-2.633-4.953-4.007-8.232-3.124m-33.875 1.499c1.358 0.681 1.945 2.883 1.174 4.396-1.188 2.328-4.496 2.437-5.633 0.186-1.396-2.763 1.714-5.958 4.459-4.582m-84.111 8.157c0.138 1.625 0.755 4.341 1.535 6.753 7.213 22.316 35.098 35.307 55.076 25.658 3.07-1.483 3.073-1.681 0.034-2.146-4.467-0.685-9.418-2.026-11.667-3.161-1.375-0.694-1.326-0.982 0.216-1.26 2.521-0.455 7.085-2.964 6.497-3.572-0.094-0.096-0.994-0.29-2-0.43-3.735-0.52-6.986-1.255-11.83-2.675-1.375-0.403-5.275-1.488-8.667-2.411-15.22-4.143-18.183-5.862-26.833-15.566-2.504-2.808-2.497-2.805-2.361-1.19m129.61 3.67c-2.363 1.573-4.43 1.88-6.797 1.01l-1.215-0.447-1.202 1.119c-2.086 1.94-3.945 2.552-6.753 2.224-1.764-0.205-1.878-0.162-2.172 0.821-0.259 0.865-1.224 1.772-2.897 2.726-2.07 1.18-1.921 1.055-1.625 1.363 0.938 0.976 5.483 0.648 9.143-0.66 1.985-0.709 2.02-0.674 2.27 2.244 0.139 1.627 0.208 1.85 0.567 1.85 0.946 0 4.099-2.788 5.182-4.581 0.998-1.653 1.454-2.036 2.592-2.174 4.517-0.549 9.784-3.795 9.543-5.881-0.058-0.497-0.068-0.499-1.759-0.243-0.959 0.145-2.379 0.059-3.166-0.19-0.226-0.072-0.744 0.176-1.711 0.819m-49.385 7.097c-0.874 0.209-3.063 1.127-3.829 1.605-1.322 0.824-3.184 6.048-2.157 6.048 0.943 0 4.527-2.925 6.106-4.982 1.72-2.242 1.681-3.103-0.12-2.671m15.636 6.409c-2.665 0.494-4.946 1.149-10.75 3.083-8.277 2.759-10.987 3.245-13.084 2.346-1.448-0.621-1.638-0.495-1.052 0.699 2.431 4.957 9.336 5.949 15.027 2.16 1.235-0.823 1.939-1.238 3.359-1.983 0.458-0.24 0.856-0.497 0.884-0.57 0.085-0.217 3.361-1.774 4.522-2.148 5.886-1.896 12.259-1.018 17.558 2.417 2.188 1.418 2.167 0.805-0.048-1.443-3.552-3.606-10.764-5.609-16.416-4.561m-96.727 4.045c-4.011 4.089-5.918 7.249-7.212 11.949-0.919 3.338-0.732 10.274 0.374 13.856 0.426 1.377 0.529 1.282 1.14-1.047 0.929-3.542 1.918-5.306 3.262-5.819 3.162-1.208 4.169 2.396 2.822 10.093-1.19 6.8-0.369 9.27 4.721 14.209 1.624 1.575 1.792 1.604 1.95 0.339 0.315-2.52 1.308-4.158 2.755-4.548 1.861-0.501 2.92 0.728 5.862 6.806 3.088 6.38 5.094 8.753 9.101 10.764 1.126 0.565 1.179 0.518 1.157-1.03-0.04-2.939 2.023-4.944 4.792-4.659 2.413 0.249 3.885 2.076 6.14 7.619 1.379 3.392 1.578 3.804 2.545 5.27 1.715 2.599 7.172 7.032 6.49 5.272-1.512-3.905-1.241-7.152 0.702-8.384 3.92-2.486 8.89 1.336 8.873 6.823-9e-3 2.776-0.926 4.711-4.235 8.936-2.819 3.599-3.531 6.843-1.157 5.27 3.931-2.604 7.387 2.778 4.681 7.291-1.112 1.854-3.852 3.892-5.54 4.121-1.213 0.164-1.355 0.224-1.551 0.655-0.263 0.576-0.246 3.054 0.023 3.58 0.663 1.291 5.075-0.753 7.8-3.615 6.51-6.834 7.818-18.564 3.188-28.573-2.134-4.612-4.036-5.994-15.674-11.389-22.957-10.642-31.797-18.258-37.248-32.09-3.685-9.349-4.597-14.308-4.011-21.792 0.138-1.763 0.067-1.759-1.75 0.093m3.776-0.93c-0.392 0.687-0.276 6.458 0.181 9.046 0.797 4.51 3.494 13.298 4.342 14.146l0.336 0.336 0.879-0.628c0.484-0.346 1.604-1.114 2.491-1.707 2.658-1.779 7.054-6.934 7.404-8.684 0.123-0.614 0.013-0.703-2.923-2.376-4.994-2.844-7.464-4.862-10.924-8.921-1.383-1.621-1.505-1.704-1.786-1.212m58.054 13.456c-1.85 2.855-6.468 4.586-14.463 5.422-3.549 0.37-3.806 0.536-2.052 1.323 8.016 3.598 23.107 3.111 29.173-0.939 1.503-1.004 1.406-1.105-2.001-2.053-2.909-0.809-6.393-2.347-8.724-3.851-1.389-0.896-1.285-0.901-1.933 0.098m-41.006-0.035c-1.138 1.416-3.681 5.606-3.681 6.065 0 2.134 9.625 2.326 13.795 0.275 3.721-1.83 3.375-2.554-2.079-4.352-2.117-0.697-4.55-1.57-5.407-1.94-1.911-0.824-2.004-0.826-2.628-0.048m61.453 4.716c-1.686 0.186-1.905 0.315-4.234 2.51-2.411 2.272-3.258 2.9-6.059 4.491-2.345 1.332-2.508 1.545-1.244 1.629 4.716 0.313 18.104-3.006 20.075-4.976 1.64-1.641-4.182-4.132-8.538-3.654m-49.967 2.818c-0.596 0.252-1.942 0.788-2.99 1.191-2.182 0.839-3.176 1.594-3.178 2.416-1e-3 0.266-0.188 1.564-0.417 2.884-0.568 3.284-0.559 3.613 0.106 3.746 4.042 0.808 13.155-2.384 13.144-4.605-4e-3 -0.64-4.811-6.144-5.335-6.108-0.136 0.01-0.734 0.224-1.33 0.476m-19 1.193c-2.17 1.467-4 2.93-4 3.198 0 1.198 6.748 10.299 8.189 11.045 2.127 1.1 6.725-6.458 7.092-11.657 0.121-1.704 0.149-1.68-2.174-1.845-1.946-0.138-3.487-0.508-5.516-1.326-1.862-0.751-1.535-0.804-3.591 0.585m81.649 2.266c-0.239 0.164-0.974 0.936-1.633 1.715-0.66 0.779-1.889 2.066-2.732 2.859-1.782 1.677-1.771 1.736 0.339 1.689 5.627-0.126 10.292-1.593 14.189-4.462 1.365-1.005 1.22-1.142-0.957-0.906-2.229 0.243-5.093-0.017-6.76-0.614-1.649-0.59-1.946-0.624-2.446-0.281m-143.65 1.045c-1.054 0.069-2.01 0.136-2.125 0.148-0.479 0.051-0.144 0.514 0.786 1.088 2.294 1.416 3.523 4.094 2.679 5.838-1.455 3.005-5.792 3.284-13.432 0.866-8.166-2.585-12.194-2.888-16.408-1.234-2.429 0.953-6.321 3.539-5.917 3.93 0.092 0.088 1.029 0.36 2.084 0.603 6.565 1.515 9.086 5.556 4.75 7.614-1.806 0.857-3.057 1.092-10.154 1.907-6.832 0.785-12.17 3.431-14.01 6.945-0.674 1.286-0.538 1.546 0.707 1.359 4.993-0.752 8.213 0.319 8.495 2.824 0.268 2.378-2.465 4.147-8.149 5.277-6.541 1.299-9.6 2.988-11.698 6.46-1.153 1.907-1.083 1.996 1.841 2.36 6.695 0.833 5.83 9.435-0.949 9.435-2.13 0-2.962-0.54-6.218-4.04-1.883-2.025-4.985-3.07-3.733-1.258 2.676 3.875-0.857 9.29-4.811 7.375-2.657-1.286-2.718-5.132-0.186-11.744 3.378-8.821 3.602-15.657 0.667-20.291-0.575-0.909-1.023-1.367-1.057-1.084-3e-3 0.023-0.071 0.942-0.151 2.042-0.284 3.904-1.531 5.859-3.638 5.704-2.429-0.18-2.873-1.421-2.873-8.038 0-7.506-0.657-9.441-4.504-13.271-2.639-2.626-3.017-2.719-2.575-0.633 0.943 4.445-2.627 4.734-8.412 0.681-7.05-4.94-13.04-5.58-19.906-2.125-2.1 1.057-2.144 1.263-0.332 1.544 3.874 0.601 6.045 2.661 4.978 4.723-0.876 1.695-5.633 2.549-10.66 1.914-4.927-0.622-7.352-0.021-11.056 2.743-2.198 1.639-2.295 1.915-0.739 2.095 5.24 0.605 6.858 3.003 3.528 5.227-1.92 1.283-3.261 1.585-8.239 1.857-4.464 0.244-5.974 0.615-7.666 1.885-0.465 0.349-0.4 0.375 1.73 0.686 4.619 0.673 5.753 1.461 6.255 4.348 0.273 1.569 0.183 1.515 1.457 0.871 1.904-0.963 4.917-3.292 8.868-6.856 10.186-9.187 16.839-13.348 23.658-14.797 14.24-3.025 22.788 7.613 25.199 31.359 1.357 13.372 4.096 17.333 11.985 17.333 7.156 0 10.204-2.267 19.603-14.583 11.345-14.864 16.345-19.507 27.745-25.759 12.952-7.103 20.484-9.497 29.211-9.284 4.718 0.115 8.435 1.456 19.539 7.052 11.744 5.919 16.497 10.32 28.25 26.157 1.361 1.834 3.29 4.434 4.287 5.779 2.473 3.335 3.649 4.415 6.684 6.139 3.25 1.846 4.067 2.666 5.832 5.86 3.085 5.583 8.253 9.016 10.6 7.041 0.814-0.685 0.686-0.973-0.656-1.486-4.13-1.579-5.355-3.928-6.651-12.753-1.1-7.499-1.865-9.47-4.156-10.717-1.039-0.566-1.016-0.612-1.088 2.167-0.104 3.995-1.22 5.72-3.699 5.72-2.334 0-2.998-1.529-3.403-7.833-0.371-5.774-1.037-8.448-3.146-12.625-1.142-2.263-4.418-5.555-6.666-6.698-0.933-0.475-1.061-0.328-0.834 0.959 0.545 3.095-1.832 5.115-4.51 3.833-3.065-1.467-4.917-5.268-6.193-12.705-1.785-10.41-4.299-14.377-10.294-16.24-3.026-0.94-3.086-0.886-1.522 1.356 2.549 3.652 3.215 6.284 2.081 8.219-1.41 2.406-3.569 1.393-7.504-3.521-4.211-5.259-8.149-7.821-14.496-9.433-1.525-0.387-5.768-0.534-9.083-0.315m88.356 3.166c-3.619 2.493-3.615 2.486-2.718 4.464 0.854 1.883 0.957 2.235 1.354 4.605 0.43 2.572 0.458 2.602 2.409 2.601 5.323-2e-3 8.974-1.929 12.201-6.437 1.221-1.705 1.052-1.95-1.769-2.569-1.513-0.332-3.913-1.132-7.032-2.346-3.509-1.365-2.981-1.327-4.445-0.318m-289.56 2.614c-0.974 0.12-0.771 0.428 1.083 1.65 2.943 1.938 4.391 3.671 5.215 6.24 0.247 0.77 0.313 1.865 0.413 6.833 0.15 7.415 0.197 7.629 2.49 11.145 1.38 2.116 1.38 2.119 0.465 2.368-1.736 0.474-2.331 0.713-3.239 1.303-1.59 1.034-2.83 2.601-2.49 3.15 0.051 0.083 0.977 0.195 2.057 0.248 3.755 0.184 5.457 1.264 8.421 5.339 2.54 3.495 4.172 5.259 6.46 6.982 0.988 0.745 0.951 0.903-0.336 1.434-2.013 0.831-4.331 2.267-4.331 2.685 0 0.07 0.769 0.411 1.708 0.757 0.94 0.345 2.721 1.097 3.959 1.671 11.43 5.3 18.345 5.159 25.37-0.516 1.923-1.554 1.871-1.985-0.274-2.252-3.55-0.44-12.994-4.228-15.714-6.303-0.477-0.364-1.08-0.771-1.339-0.905-1.36-0.703-5.119-4.513-6.488-6.575-2.537-3.822-7.202-15.44-6.487-16.155 0.15-0.15 0.937 0.728 1.312 1.465 0.652 1.278 5.153 6.299 8.131 9.069 5.75 5.348 18.262 9.079 21.633 6.451l0.394-0.308-0.598-0.901c-0.858-1.294-1.371-2.668-2.035-5.453-0.322-1.347-0.781-3.269-1.022-4.272-0.854-3.559-2.599-6.005-5.498-7.704-0.975-0.571-0.997-0.497-0.325 1.132 2.075 5.026 0.693 9.887-2.366 8.326-1.605-0.819-2.823-2.77-4.931-7.899-2.482-6.04-4.787-8.766-8.559-10.12-1.36-0.489-1.414-0.383-0.491 0.968 2.375 3.476 2.382 6.427 0.016 6.16-1.492-0.168-2.389-1.227-5.003-5.9-2.231-3.989-3.084-5.144-4.8-6.502-3.326-2.633-8.619-4.126-12.801-3.611m364.29 3e-3c-2.04 0.174-4.857 0.852-5.5 1.324-0.301 0.221-0.333 0.439-0.336 2.279-3e-3 2.201-0.221 2.98-1.191 4.251l-0.434 0.569 0.456 1.44c2.022 6.39-1.382 9.888-5.421 5.571-2.315-2.475-2.364-4.026-0.209-6.703 1.323-1.643 1.183-1.855-0.673-1.022-4.01 1.799-6.275 4.869-6.275 8.505 0 0.779 5e-3 0.785 1.105 1.519 0.875 0.584 1.237 0.963 1.739 1.821 0.867 1.483 1.294 2 1.651 2 2.559 0 4.59 1.994 5.34 5.244 0.417 1.806 0.549 1.967 2.26 2.758 4.061 1.877 5.706 9.508 3.642 16.902-0.651 2.334-0.656 2.257 0.262 4.179 1.816 3.806 1.508 6.174-1.359 10.43-2.174 3.228-3.14 5.287-3.14 6.694 0 0.541-0.519 0.557-0.959 0.029-1.86-2.232-1.959-4.808-0.359-9.278 0.827-2.309 1.121-3.894 0.785-4.229-0.379-0.379-0.699 0.132-1.21 1.937-0.872 3.074-2.5 5.344-4.766 6.644-1.629 0.933-1.763 0.774-0.844-1.001 1.143-2.21 1.225-3.732 0.428-7.976-0.61-3.251 0.122-5.195 2.407-6.395 0.645-0.339 1.219-0.693 1.277-0.786 0.377-0.61-6.466-9.041-8.757-10.789-0.973-0.742-1.089-0.513-0.764 1.506 1.223 7.6 0.691 18.551-1.156 23.797-0.242 0.688-0.481 1.381-0.53 1.542-0.15 0.483 0.4 1.102 1.75 1.965 0.705 0.451 1.394 0.919 1.531 1.04 0.138 0.12 0.457 0.349 0.709 0.507 0.614 0.385 0.59 0.75-0.191 2.905-1.373 3.79-1.761 5.52-1.762 7.875-2e-3 3.071 0.461 3.406 2.514 1.816 2.701-2.09 3.954-2.385 4.73-1.112 1 1.64 0.202 2.716-3.503 4.723-6.138 3.325-7.266 5.994-5.009 11.847 0.866 2.246 0.991 2.255 2.019 0.144 1.779-3.651 3.297-4.496 10.577-5.888 3.151-0.602 5.453-1.829 7.271-3.874 1.232-1.387 1.311-1.404 1.315-0.281 5e-3 1.741 0.618 1.706 2.267-0.13 4.036-4.491 5.267-7.916 5.299-14.745 0.02-4.357-0.335-5.159-3.95-8.932l-1.745-1.821 0.223-2.249c0.224-2.266 0.46-7.111 0.716-14.703 0.178-5.262 0.123-5.176 2.175-3.393 0.674 0.586 1.222 0.931 1.479 0.931 1.27 0 7.884-5.927 7.284-6.527-0.039-0.038-0.805-6e-3 -1.702 0.073-5.616 0.495-8.649-2.259-6.487-5.889 0.849-1.424 0.855-1.499 0.239-2.858-0.485-1.071-0.551-1.385-0.55-2.632l1e-3 -1.417 1.783-3.377c2.746-5.201 3.863-6.645 5.951-7.699 1.164-0.588 3.423-1.225 3.855-1.088 0.153 0.048 0.375-0.028 0.493-0.17 0.876-1.056-5.402-3.013-8.063-2.514-1.387 0.26-4.241 3.629-4.859 5.736-1.118 3.811-3.506 6.071-4.795 4.538-0.669-0.795-0.867-1.958-0.867-5.093 0-5.169 0.791-6.503 5.512-9.301 1.524-0.903-0.237-1.462-3.679-1.169m-81.75 1.333c-1.584 0.467-4.447 0.601-6.89 0.321l-1.307-0.149-2.004 2.056c-2.144 2.201-2.865 3.133-2.714 3.508 0.351 0.872 13.522 9.282 14.669 9.366 1.289 0.096 2.364-3.621 2.183-7.548-0.193-4.189-1.333-8.056-2.353-7.983-0.092 7e-3 -0.805 0.2-1.584 0.429m23.155 0.52c-0.936 0.83-3.988 5.084-3.988 5.558 0 0.166 0.287 1.035 0.639 1.931 0.351 0.896 0.848 2.214 1.104 2.93 0.604 1.692 0.853 1.867 2.184 1.528 4.247-1.08 12.008-7.054 11.132-8.568-0.463-0.8-7.427-3.565-9.536-3.786-0.905-0.094-0.999-0.069-1.535 0.407m10.196 7.433-3.062 3.066 0.285 1.893c0.899 5.968 1.136 6.809 1.923 6.809 2.669 0 8.157-3.752 11.091-7.582 1.117-1.459 1.119-1.526 0.062-2.315-1.603-1.197-7.037-4.937-7.173-4.937-0.035 0-1.442 1.38-3.126 3.066m-16.767-0.464c-2.69 1.435-3.553 1.671-6.667 1.818-2.584 0.123-3.311 0.215-3.641 0.462-0.308 0.23-1.59 4.598-1.726 5.881l-0.09 0.846 4.228 1.718c5.517 2.241 8.181 3.12 8.716 2.876 2.152-0.98 2.347-11.261 0.256-13.505-0.405-0.434-0.436-0.437-1.076-0.096m-94.651 1.583c-0.541 0.078-1.122 0.268-1.291 0.422-1.022 0.924 0.549 5.655 2.597 7.82 1.044 1.105 1.34 1.138 1.746 0.198 0.739-1.707 3.335-3.304 6.413-3.944 1.681-0.349 2.556-0.805 2.946-1.534 0.865-1.615-7.674-3.654-12.411-2.962m-105.94 0.473c-0.834 0.253-1.163 0.531-1.562 1.319-1.002 1.978-1.378 5.345-0.7 6.273 0.176 0.24 0.336 0.241 1.774 8e-3 0.902-0.146 2.624-0.257 4.01-0.257l2.43-1e-3 1.251-1.291c2.126-2.194 2.155-2.346 0.658-3.445-2.415-1.773-6.329-3.07-7.861-2.606m100.01 0.276c-8.707 2.527-11.844 3.974-11.829 5.454 0.015 1.491 2.723 4.307 5.468 5.686 1.325 0.665 1.587 0.565 1.722-0.657 0.344-3.094 2.74-5.948 6.026-7.178 1.549-0.579 1.667-0.732 1.533-1.989-0.216-2.025-0.317-2.071-2.92-1.316m-104.58 0.253c-2.447 0.562-4.792 1.67-5.646 2.667-2.064 2.412-1.616 6.359 1.039 9.148 1.198 1.26 1.105 1.295 3.202-1.206 2.053-2.449 2.007-2.331 2.054-5.296 0.034-2.122 0.093-2.578 0.487-3.75 0.613-1.818 0.522-1.944-1.136-1.563m124.2 2.447c-1.261 1.394-1.8 6.265-0.892 8.064 0.474 0.94 0.838 0.977 2.334 0.239 1.54-0.76 3.587-1.253 5.746-1.384l1.718-0.104 0.657-0.918c1.061-1.481 0.967-1.574-4.243-4.2-3.947-1.991-4.806-2.264-5.32-1.697m107.22 3.042c-3.828 3.915-3.7 3.701-3.573 5.991 0.168 3.043 0.342 3.333 1.985 3.333 3.556 0 10.421-3.179 10.421-4.825 0-0.592-4.902-7.727-5.353-7.791-0.126-0.018-1.693 1.464-3.48 3.292m-15.75-2.741c-5.67 1.666-5.391 1.472-6.163 4.289-0.319 1.163-0.769 2.662-1 3.333-0.736 2.131-0.764 2.083 3.024 5.118 3.64 2.916 3.548 2.91 4.807 0.285 1.484-3.091 2.02-6.582 1.622-10.562-0.277-2.773-0.483-2.994-2.29-2.463m-226 1.833c-6.439 3.59-7.474 5.153-4.932 7.449 2.022 1.826 3.645 1.904 4.183 0.2 0.307-0.971 0.869-2.021 1.74-3.246 0.844-1.19 1.012-1.68 1.178-3.449 0.205-2.19 0.117-2.228-2.169-0.954m116.54-0.269c-5.441 2.756-6.417 8.419-2.163 12.55l0.651 0.633 1.902-1.89c1.919-1.906 3.17-2.747 4.902-3.296 0.841-0.266 0.911-0.379 0.914-1.476 3e-3 -0.862-0.757-2.02-1.325-2.02-0.213 0-1.908-2.302-2.516-3.416-0.978-1.794-0.971-1.791-2.365-1.085m13.792 0.495c-3.063 0.763-4.491 1.685-5.36 3.463-0.976 1.994-0.561 6.266 0.766 7.905l0.304 0.376 0.645-0.451c0.355-0.248 1.132-0.833 1.728-1.301 0.596-0.467 1.777-1.224 2.624-1.681 1.851-1 1.792-0.918 1.373-1.896-0.273-0.636-0.355-1.287-0.428-3.39-0.095-2.734-0.163-3.364-0.364-3.334-0.067 0.01-0.646 0.149-1.288 0.309m-106.28 0.899c-2.513 2.047-4.308 5.105-4.587 7.816l-0.092 0.891 1.889 0.465c2.231 0.551 3.11 0.965 4.286 2.022l0.87 0.783 1.475-0.365c2.283-0.564 2.584-0.804 2.476-1.974-0.295-3.191-3.175-9.279-4.783-10.11-0.631-0.327-0.507-0.365-1.534 0.472m75.92 0.116c-3.939 2.062-6.043 3.31-6.79 4.026l-0.818 0.784 0.103 0.872c0.222 1.874 1.706 3.828 4.263 5.614 1.978 1.381 1.965 1.395 2.153-2.388 0.148-2.973 0.285-3.34 2.022-5.396 1.394-1.651 1.445-1.788 1.082-2.942-0.422-1.34-0.502-1.363-2.015-0.57m46.189 2.298c-1.64 1.001-3.404 5.303-3.412 8.324-4e-3 1.273-0.359 1.156 3.83 1.264l3.417 0.088 2.333-2.336 2.333-2.337-0.5-0.416c-0.743-0.619-7.156-4.894-7.341-4.893-0.087 0-0.384 0.138-0.66 0.306m-130.83 0.339c-2.793 0.805-6.083 3.31-6.083 4.632 0 1.441 7.106 1.994 8.282 0.645 0.367-0.421 1.718-4.282 1.718-4.91 0-0.727-2.013-0.916-3.917-0.367m87.151 1.017c-0.802 0.324-1.91 2.175-2.229 3.723-0.534 2.585 0.875 5.527 3.2 6.686 1.52 0.757 1.765 0.614 2.124-1.238 0.255-1.318 0.822-2.435 1.853-3.646 1.365-1.606 1.369-1.614 1.158-2.007-0.293-0.549-5.295-3.763-5.71-3.67-0.026 6e-3 -0.204 0.074-0.396 0.152m131.98 0.862c-0.939 0.356-2.163 0.694-2.721 0.753-1.252 0.13-1.083-0.113-3.059 4.412-2.262 5.178-2.134 4.463-1.172 6.555 1.301 2.827 1.462 2.861 3.753 0.788 3.386-3.065 5.077-6.522 5.274-10.785 0.119-2.593 0.152-2.566-2.075-1.723m-232.87 0.248c-0.75 0.953-1.578 4.835-1.206 5.651 0.234 0.513 0.245 0.511 2.611-0.545 2.629-1.173 2.728-1.395 1.404-3.145-2.018-2.666-2.171-2.773-2.809-1.961m138.32 0.298c-5.128 1.138-7.198 4.364-5.935 9.251 0.468 1.809 0.702 1.873 2.781 0.759 0.772-0.415 2.058-1.089 2.856-1.499 1.798-0.923 1.828-0.98 1.978-3.788 0.103-1.927 0.196-2.478 0.586-3.471 0.615-1.566 0.195-1.798-2.266-1.252m-149.27 1.237c-0.538 0.454-1.838 1.694-2.888 2.756l-1.911 1.93 0.566 0.584c0.802 0.828 3.046 1.905 4.084 1.961l0.828 0.045 0.133-1c0.245-1.835 0.662-3.489 1.165-4.616l0.498-1.116-0.31-0.634c-0.465-0.953-0.954-0.932-2.165 0.09m98.845-0.083c-4.273 2.444-9.586 7.245-9.326 8.427 0.438 1.994 5.481 5.015 8.372 5.015 0.839 0 0.821 0.097 0.292-1.56-1.134-3.55-0.895-5.446 1.063-8.47 1.664-2.568 1.441-4.465-0.401-3.412m161.93-0.096c-0.652 0.219-4.38 2.979-4.601 3.406-0.135 0.261-0.432 1.119-0.66 1.907-0.229 0.787-0.792 2.373-1.251 3.523-1.026 2.565-1.019 2.645 0.262 3.285 3.431 1.716 13.267-1.113 11.327-3.257-0.141-0.156-1.179-2.15-2.306-4.43-2.071-4.189-2.319-4.586-2.771-4.434m-257.38 2.229c-1.097 0.614-1.121 6.907-0.029 7.812 0.377 0.314 0.882-5e-3 2.622-1.657 2.806-2.665 2.902-4.491 0.288-5.467-1.721-0.644-2.59-0.851-2.881-0.688m126.28 0.301c-2.496 1.432-4.898 5.297-4.898 7.883v1.316l0.875-0.092c0.482-0.05 2.29-0.139 4.018-0.197l3.143-0.106 0.39-0.856c0.402-0.884 1.241-3.624 1.241-4.053 0-0.331-1.611-3.296-2.119-3.899-0.563-0.669-1.48-0.667-2.65 4e-3m-11.337 1.058c-1.787 1.887-2.14 3.192-2.032 7.507 0.068 2.755 0.267 3.392 1.032 3.31 0.484-0.052 4.071-1.561 4.717-1.984 0.734-0.481 1.573-3.946 1.231-5.086-0.154-0.515-2.566-3.987-3.424-4.931-0.159-0.174-0.462 0.061-1.524 1.184m21.856-0.837c-3.184 1.71-6.378 7.214-4.942 8.514 0.725 0.656 6.188 1.757 6.783 1.367 0.956-0.627 1.003-1.102 0.314-3.154-0.593-1.769-0.626-1.984-0.702-4.565-0.09-3.055-0.011-2.937-1.453-2.162m24.209 0.277c-1.594 1.011-4.087 3.78-4.887 5.426-0.672 1.386-1.292 3.753-1.046 3.999 0.278 0.278 8.757 1.763 9.241 1.619 0.611-0.182 3.647-2.182 4.608-3.034l0.672-0.597-1.011-1.207c-1.569-1.874-5.876-6.496-6.151-6.602-0.427-0.164-0.634-0.106-1.426 0.396m-64.119 1.194c-3.19 4.403-0.262 10.483 5.048 10.483h0.708l0.277-2.292c0.153-1.26 0.425-2.717 0.605-3.237 0.393-1.131 0.389-1.137-1.228-2.196-0.642-0.421-1.839-1.367-2.66-2.103-1.753-1.571-2.038-1.639-2.75-0.655m-153.34-0.444c0 0.04 0.498 0.996 1.106 2.125 3.143 5.829 5.044 8.15 8.849 10.805 1.4 0.976 1.415 0.873 0.292-1.961-1.115-2.816-0.584-2.183-6.723-8.001-2.814-2.667-3.524-3.265-3.524-2.968m306.17 0.275c-0.797 0.218-1.733 0.299-3.541 0.307l-2.457 0.011-0.903 1.802c-1.221 2.433-1.689 3.021-4.881 6.119-3.564 3.458-3.566 3.476-0.481 3.543 6.726 0.146 11.55-3.702 13.378-10.671 0.367-1.398 0.274-1.491-1.115-1.111m-229.33 0.248c0 0.145 0.684 1.754 1.52 3.577 1.695 3.697 1.531 3.523 3.503 3.728l0.938 0.097 1.187-1.486c0.653-0.818 1.731-1.986 2.395-2.595l1.207-1.109-0.583-0.499c-0.321-0.275-0.783-0.606-1.026-0.734-1.772-0.937-9.141-1.726-9.141-0.979m14.584 2.217c-2.095 0.758-4.147 2.1-5.655 3.699-1.425 1.51-1.411 1.702 0.177 2.39 1.715 0.742 3.148 1.631 4.62 2.864l1.289 1.081 1.618-0.428c2.273-0.602 2.319-0.718 1.697-4.361-0.875-5.131-1.529-6.047-3.746-5.245m-47.584 1.771c-3.478 2.402-3.483 2.409-2.447 3.347 1.138 1.029 2.484 1.647 3.598 1.65l0.902 2e-3 0.486-1.167c1.609-3.858 1.828-5.279 0.871-5.646-0.483-0.185-0.626-0.109-3.41 1.814m163.58-0.815c-4.018 0.72-8.685 3.055-10.192 5.098-0.67 0.908-0.528 1.091 1.775 2.279l2.083 1.074 0.917-0.585c1.279-0.817 2.43-1.21 5.273-1.801 1.353-0.282 2.474-0.528 2.491-0.548 0.179-0.213 1.575-4.911 1.537-5.172-0.092-0.631-1.563-0.762-3.884-0.345m-45.409 0.886c-1.323 1.859-1.323 6.108 1e-3 8.803 0.847 1.724 1.032 1.687 5.047-1.005l0.973-0.652-0.114-1.026c-0.345-3.104-0.745-4.293-1.498-4.449-0.671-0.139-1.46-0.56-2.688-1.433-1.211-0.861-1.271-0.87-1.721-0.238m-112.66 0.438c-1.129 0.95-2.226 7.085-1.508 8.428 0.234 0.436 0.451 0.308 3.722-2.186 4.455-3.398 4.552-5.179 0.341-6.221-1.902-0.471-2.019-0.472-2.555-0.021m90.376 1.948c-2.917 3.023-5.895 7.087-5.895 8.044 0 1.706 5.929 3.787 8.916 3.13 0.899-0.198 0.897-0.469-0.011-1.638-2.07-2.662-2.31-4.477-1.011-7.662l0.58-1.422-0.443-0.538c-0.859-1.046-1.051-1.038-2.136 0.086m197.05 0.742c-0.05 0.257-0.137 1.404-0.194 2.55-0.304 6.11-1.401 8.857-4.325 10.83-2.502 1.689-2.946 2.699-2.622 5.975 0.106 1.07 0.239 2.564 0.297 3.32s0.166 1.375 0.242 1.375c0.261 0 0.95-1.756 1.308-3.333 0.729-3.211 1.957-4.347 3.799-3.511 1.844 0.838 1.935 2.627 0.348 6.844-1.355 3.6-1.361 4.038-0.039 2.708 3.617-3.639 4.425-7.373 2.435-11.252l-0.836-1.628 0.399-0.872c1.511-3.31 1.545-9.221 0.07-12.358-0.489-1.04-0.768-1.245-0.882-0.648m-300.44 0.65c-1.649 0.355-4.567 1.392-5.09 1.809l-0.466 0.371 0.71 0.77c1.628 1.766 3.853 3.283 4.814 3.283 0.592 0 0.785-0.215 1.786-2 0.437-0.779 1.084-1.822 1.437-2.318 1.351-1.897 0.13-2.629-3.191-1.915m189.43 0.406c-3.032 1.537-7.093 6.021-7.093 7.83 0 0.37 0.125 0.417 2.668 0.991 1.147 0.259 2.786 0.741 3.642 1.072 1.952 0.754 1.75 0.775 3.384-0.344 0.759-0.521 2.07-1.268 2.914-1.662 2.123-0.993 2.132-0.733-0.141-4.094-2.741-4.053-3.628-4.678-5.374-3.793m93.407-0.22c-3.333 1.145-4.005 1.628-6.022 4.325-1.779 2.377-2.487 3.07-4.103 4.016-1.323 0.773-1.292 0.926 0.375 1.822 4.11 2.21 10.522 2.889 11.421 1.209 0.529-0.989-0.443-10.344-1.16-11.16-0.144-0.164-0.374-0.259-0.511-0.212m-176.08 0.313c-0.315 0.315-0.584 1.238-0.704 2.413-0.38 3.73 3.268 6.421 8.014 5.912 1.767-0.189 1.762-0.173 1.244-3.805-0.253-1.777-0.357-1.87-2.728-2.452-1.442-0.355-2.5-0.746-3.79-1.402-1.576-0.802-1.82-0.882-2.036-0.666m-132.03 0.77c0.221 1.103 1.429 3.277 2.34 4.209 1.166 1.195 1.472 1.201 2.642 0.047 0.488-0.481 1.24-1.121 1.67-1.422 1.031-0.72 1.012-0.759-0.592-1.208-1.585-0.444-3.953-1.315-4.936-1.817-0.998-0.509-1.255-0.465-1.124 0.191m293.63-0.161c-0.284 0.207-0.951 0.719-1.483 1.14-1.813 1.434-3.997 2.422-6.227 2.816-2.763 0.488-2.92 0.726-1.259 1.911 5.38 3.839 12.594 2.449 16.376-3.156 0.913-1.353 0.865-1.402-1.535-1.594-1.444-0.116-2.017-0.252-3.42-0.815-1.982-0.795-1.802-0.773-2.452-0.302m-223.96 0.073c-0.323 0.064-0.364 0.243-0.542 2.361-0.511 6.102-0.377 6.357 3.485 6.621l1.573 0.108 1.852-2.06c1.019-1.134 2.104-2.353 2.412-2.709l0.561-0.648-0.663-0.575c-1.803-1.567-7.54-3.772-8.299-3.19-0.016 0.013-0.187 0.054-0.379 0.092m-39.904 1.511c-1.659 1.88-2.989 5.966-2.059 6.323 0.406 0.155 1.711-0.217 4.312-1.228 3.121-1.214 3.345-1.486 2.907-3.529-0.228-1.062-0.464-1.258-2.244-1.859-1.96-0.663-2.084-0.65-2.916 0.293m168.9-0.123c-3.749 0.476-7.234 1.701-7.234 2.544 0 1.298 4.577 5.627 5.692 5.383 0.215-0.048 1.629-0.385 3.141-0.75 1.513-0.364 3.31-0.755 3.995-0.868 1.486-0.245 1.608-0.355 2.815-2.533 1.033-1.867 1.228-2.657 0.721-2.929-1.376-0.736-6.357-1.198-9.13-0.847m-182.28 0.179c-0.344 0.081-1.544 0.303-2.667 0.492-2.557 0.433-2.623 0.453-2.623 0.807 0 0.322 1.85 3.114 2.299 3.469 0.491 0.389 1.323 0.115 2.737-0.899 3.333-2.392 3.621-3.014 1.755-3.794-0.68-0.284-0.627-0.281-1.501-0.075m125.65 0.623c-0.805 0.89 0.676 4.5 2.662 6.487 1.397 1.399 1.801 1.278 4.515-1.351l1.036-1.003-0.52-0.927c-0.973-1.733-1.256-1.903-4.758-2.849-2.862-0.773-2.588-0.74-2.935-0.357m-134.54 1.834c-3.117 2.021-2.94 2.672 1.21 4.465 3.936 1.701 5.153 1.391 3.762-0.959-2.331-3.937-3.278-4.605-4.972-3.506m74.472 0.446c-1.926 0.741-4.463 2.562-5.458 3.918-0.784 1.068-0.75 1.23 0.371 1.743 1.105 0.506 2.36 1.421 3.856 2.811 1.162 1.079 1.758 1.182 3.034 0.522 0.85-0.439 1.066-2.813 0.666-7.293-0.206-2.309-0.451-2.477-2.469-1.701m-62.936 0.703c-2.406 1.283-4.863 4.133-4.197 4.869 0.814 0.899 6.282 0.06 9.701-1.489 1.668-0.756 1.587-1.474-0.241-2.143-0.523-0.191-1.513-0.685-2.2-1.099-1.507-0.908-1.611-0.912-3.063-0.138m261.84-0.327c-0.043 0.07-0.013 0.913 0.066 1.875 0.08 0.961 0.148 2.927 0.152 4.367 9e-3 3.161-0.068 3.06 2.247 2.915 2.071-0.13 4.522-0.801 6.511-1.783 3.176-1.567 3.491-2.24 1.234-2.632-4.449-0.774-6.124-1.516-8.705-3.854-1.098-0.996-1.347-1.143-1.505-0.888m-34.069 1.415c-0.587 0.722-1.587 5.207-1.589 7.125-4e-3 3.69 1.133 5.621 6.02 10.234 2.507 2.366 3.329 3.288 3.448 3.866 0.045 0.22 0.119 0.58 0.165 0.799 0.566 2.751-2.956 6.664-6.697 7.44-4.457 0.926-7.608-1.764-9.965-8.506-2.311-6.61-4.69-9.438-8.546-10.158-1.095-0.205-1.019 0.038 0.53 1.684 2.517 2.673 2.87 3.848 3.099 10.302 0.301 8.485 1.551 10.061 9.913 12.51 4.466 1.307 5.968 2.563 6.332 5.29 0.374 2.81-1.142 4.088-5.124 4.319-1.952 0.113-1.957 0.117-1.541 1.111 1.297 3.106-3.081 6.323-6.373 4.682-1.5-0.747-2.498-2.122-3.381-4.657-2.398-6.886-5.724-8.854-12.726-7.53-5.371 1.016-7.66-0.244-8.676-4.777-0.435-1.937-0.628-2.111-1.109-0.998-1.35 3.121-0.912 6.019 1.312 8.682 1.528 1.831 2.555 2.232 6.716 2.619 5.666 0.528 8.035 2.002 7.594 4.724-0.431 2.656-3.518 2.712-9.024 0.164-6.312-2.922-8.642-2.915-11.489 0.033-1.364 1.414-1.364 1.414 0.606 1.156 3.542-0.463 5.3 0.389 11.372 5.511 3.495 2.948 4.56 3.494 7.545 3.871 3.807 0.481 8.393-0.806 10.77-3.024l0.805-0.75 1.445 0.372c2.927 0.754 5.082 0.451 9.795-1.379 3.713-1.442 3.748-1.461 5.098-2.907 3.924-4.203 4.365-10.602 1.085-15.758-1.18-1.854-1.184-1.803 0.189-2.494 5.941-2.992 9.522-10.118 7.382-14.691-0.973-2.08-2.387-3.428-6.581-6.276-5.341-3.627-6.922-5.875-7.701-10.946-0.281-1.834-0.372-2.047-0.699-1.643m-125.7 1.51c-0.458 0.22-4.958 6.153-5.112 6.742-0.417 1.585 4.996 2.377 7.721 1.129 1.038-0.475 1.077-0.656 0.384-1.781-0.622-1.012-0.824-1.867-0.83-3.509-5e-3 -1.612-0.818-2.951-1.693-2.788-0.033 6e-3 -0.245 0.099-0.47 0.207m99.43 0.692c-2.283 0.996-3.698 2.199-5.59 4.75-1.984 2.677-1.934 3.169 0.368 3.583 0.844 0.152 2.389 0.496 3.434 0.766 2.417 0.624 2.956 0.619 4.421-0.041 1.694-0.763 1.681-0.745 1.083-1.426-0.666-0.758-0.571-0.826 1.601-1.13 2.555-0.359 2.56-0.274-0.221-3.823-2.689-3.431-3-3.594-5.096-2.679m-45.571 0.881c-1.98 4.315-0.057 9.257 5.142 13.215 3.78 2.877 2.182 3.586-2.508 1.113-4.317-2.276-5.752-2.769-8.417-2.889-1.432-0.064-1.819-0.021-2.75 0.305-1.314 0.462-1.358 0.697-0.25 1.345 2.242 1.31 3.443 2.656 5.251 5.889 2.236 3.996 3.591 5.021 7.526 5.692 0.902 0.154 1.64 0.329 1.64 0.389s-1.083 1.106-2.407 2.324-4.051 3.947-6.06 6.063c-4.224 4.449-4.248 4.467-5.269 3.971-0.977-0.474-1.656-1.326-2.848-3.569l-1-1.883-1.75-0.203c-0.962-0.113-2.064-0.283-2.448-0.379-1.438-0.359-1.824-0.26-2.467 0.635-0.721 1.003-1.469 1.53-3.132 2.208-1.981 0.806-2.754 2.439-3.065 6.47-0.129 1.668-0.018 1.683 1.062 0.137 2.334-3.344 5.716-4.714 8.006-3.244 1.828 1.174 4.867 4.544 6.519 7.23 1.898 3.086 3.662 4.869 5.859 5.921 4.037 1.932 4.409 4.636 1.193 8.674-1.061 1.333-1.236 1.707-0.735 1.571 2.625-0.712 4.054-1.41 5.24-2.561 0.647-0.628 0.801-0.946 1.119-2.299 0.108-0.458 0.467-1.231 0.798-1.716l0.603-0.884-0.525-0.7c-0.576-0.767-1.526-2.578-1.527-2.908 0-0.325 0.298-0.249 1.054 0.269 1.765 1.211 3.71 1.942 6.916 2.601 1.037 0.214 1.931 0.433 1.987 0.489 0.207 0.207-0.336 2.402-0.968 3.917-0.361 0.862-0.655 1.631-0.655 1.708 0 0.863 4.256-2.468 5.542-4.338 0.649-0.942 0.664-1.557 0.061-2.463-0.576-0.868-0.937-2.045-0.937-3.059 0-1.162-0.209-1.276-3.011-1.652-3.973-0.532-6.894-1.431-6.097-1.876 0.158-0.089 1.354-0.271 2.657-0.405 1.302-0.133 2.78-0.325 3.285-0.424 4.358-0.865 7.063 0.243 8.619 3.528 0.723 1.527 1.196 1.228 1.803-1.143 0.51-1.988 0.418-3.001-0.324-3.596-1.497-1.201-2.338-2.068-2.802-2.89-0.272-0.481-0.506-0.882-0.521-0.891-0.014-8e-3 -0.888-0.072-1.942-0.141-1.51-0.099-2.137-0.22-2.953-0.567-1.376-0.587-1.663-0.567-4.25 0.295-3.092 1.029-6.38 1.441-6.583 0.824-0.143-0.436 3.359-2.217 13.763-7.001 4.404-2.025 3.865-2.096 7.106 0.937 5.224 4.888 9.509 7.742 13.258 8.828 0.683 0.198 2.79 0.885 4.681 1.526 5.046 1.71 6.696 1.737 6.156 0.1-0.485-1.469-1.727-1.895-6.678-2.29-3.731-0.297-4.651-0.651-6.515-2.504-3.603-3.583-3.578-9.212 0.057-12.888l1.135-1.147 0.916 0.107c1.565 0.184 2.024-0.234 3.086-2.806 0.301-0.729 1.172-2.255 1.934-3.389 1.933-2.876 1.909-2.904-2.427-2.916-4.942-0.013-6.894 0.949-6.126 3.02 0.339 0.915 0.293 0.97-0.601 0.705-2.765-0.819-3.576-1.534-4.113-3.621-1.637-6.371-5.469-9.074-14.961-10.552-7.55-1.176-10.301-2.522-12.696-6.215-0.903-1.392-1.016-1.392-1.656 3e-3m-34.783-0.188c-0.825 0.111-2.381 0.207-3.458 0.215l-1.959 0.015 2e-3 1.291c4e-3 2.374 0.783 4.301 2.338 5.785 1.693 1.614 1.859 1.561 4.409-1.41 3.083-3.59 3.14-3.761 1.707-5.096-1.116-1.039-1.164-1.051-3.039-0.8m154.48 0.521c-1.269 1.739-1.651 2.182-2.446 2.835-0.475 0.39-1.371 0.975-1.989 1.301-1.269 0.667-1.356 0.883-0.584 1.462 3.405 2.553 9.807 1.986 13.088-1.158 0.95-0.91 0.911-0.962-1.348-1.798-2.064-0.763-3.021-1.243-4.724-2.369-1.616-1.068-1.434-1.043-1.997-0.273m-90.175-0.287c-3.153 0.218-6.084 0.849-6.55 1.41-0.25 0.302 0.107 0.825 3.248 4.752 2.879 3.601 2.4 3.329 4.454 2.526 0.943-0.369 2.54-0.9 3.548-1.181 1.007-0.28 2.002-0.599 2.211-0.708 0.678-0.353 2.87-4.226 2.87-5.07 0-1.106-5.281-2.04-9.781-1.729m-79.719 1.334c0 2.667 2.266 4.323 5.917 4.325 2.702 3e-3 2.901-0.206 2.581-2.695-0.281-2.182-0.045-2.021-3.021-2.063-1.69-0.023-2.9-0.124-3.56-0.298-1.82-0.477-1.917-0.44-1.917 0.731m-55.485 0.147c-0.207 0.207-0.328 0.488-0.28 0.648 0.046 0.156 0.389 2.083 0.76 4.283 0.372 2.2 0.738 4.225 0.814 4.5l0.137 0.5 2.236-0.043c3.185-0.061 2.991 0.052 4.969-2.899 1.812-2.703 1.955-3.124 1.348-3.976-1.403-1.97-8.796-4.201-9.984-3.013m-34.776 1.973c-2.007 4.723-0.741 7.625 4.018 9.211 1.752 0.583 2.355 0.965 2.193 1.388-0.297 0.774-1.791 0.301-6.533-2.064-6.989-3.487-9.6-3.556-13.261-0.353-2.512 2.197-2.437 2.692 0.406 2.696 4.048 7e-3 5.086 0.35 7.605 2.512 2.839 2.437 5.28 3.934 7.023 4.308 0.77 0.165 2.144 0.758 2.144 0.926 0 0.199-1.073 0.58-2.584 0.919-2.092 0.469-2.318 0.612-2.674 1.701-0.646 1.972-1.754 3.542-2.92 4.137-1.229 0.626-1.243 0.512-0.226-1.736 1.325-2.931 1.192-3.628-0.883-4.608-2.436-1.151-5.019-1.445-7.361-0.837-1.735 0.451-2.007 0.981-0.638 1.242 3.696 0.706 4.1 3.481 0.693 4.756-2.412 0.902-10.544 1.877-11.953 1.432-3.711-1.17-4.683-5.826-1.895-9.081 1.333-1.557 0.351-1.7-2.83-0.412-1.078 0.436-2.189 0.84-2.469 0.897-0.651 0.133-0.715 0.487-0.273 1.515 0.521 1.211 0.602 2.51 0.263 4.219-0.355 1.789-0.279 2.324 0.516 3.612 0.744 1.205 0.647 1.451-0.453 1.159-4.22-1.123-6.136-5.179-4.447-9.414 0.329-0.825 0.54-1.562 0.469-1.639-0.243-0.26-1.493 0.558-2.674 1.751-1.692 1.708-1.744 1.842-1.331 3.417 0.256 0.978 0.336 1.813 0.336 3.507 0 2.137 0.02 2.262 0.498 3.21 0.56 1.109 0.469 1.3-0.44 0.921-1.602-0.67-2.555-1.961-3.093-4.192-0.196-0.811-0.379-1.504-0.407-1.54-0.217-0.284-1.891 2.338-1.891 2.961 0 0.208 0.237 0.722 0.527 1.143 0.289 0.421 0.885 1.782 1.323 3.025 0.909 2.579 0.857 2.523 2.979 3.203 2.466 0.79 3.104 0.784 8.171-0.078 5.398-0.919 6.692-1.051 12.457-1.278 2.497-0.098 4.942-0.243 5.433-0.323 1.351-0.22 3.746-0.334 10.61-0.506 6.984-0.175 7.732-0.249 11.75-1.169 7.527-1.723 8.644-1.659 16.417 0.938 14.783 4.939 25.151 6.25 29.751 3.763 1.616-0.873 1.359-0.982-2.534-1.075-4.661-0.111-6.46-0.571-13.198-3.373-3.724-1.55-4.385-1.701-8.019-1.838-10.433-0.392-13.873-3.002-15.091-11.453-0.157-1.092 0.123-1.048 1.601 0.25 4.973 4.369 5.647 4.563 11.073 3.171 6.815-1.749 9.744-1.335 15.316 2.163 4.118 2.586 9.651 3.322 12.494 1.661 1.472-0.859 0.754-1.197-2.56-1.203-8.143-0.016-9.455-0.577-12.833-5.485-4.005-5.82-4.147-5.883-9.975-4.437-6.874 1.706-8.81 1.716-8.113 0.043 1.004-2.411 1.117-2.852 1.058-4.121-0.223-4.768-5.86-7.118-14.826-6.18-3.98 0.417-5.822-0.302-7.471-2.913-0.788-1.248-0.91-1.291-1.268-0.449m272.44 0.149c-0.979 0.343-1.829 0.893-3.276 2.123-2.621 2.227-5.571 3.436-8.383 3.436-1.995 0-1.899 0.625 0.443 2.862 2.915 2.785 6.469 4.305 10.068 4.305 1.697 0 2.376-1.247 3.379-6.206 1.282-6.339 0.851-7.599-2.231-6.52m-153.35 0.358c-0.589 0.327-0.926 0.881-2.152 3.542-0.614 1.333-1.475 2.226-2.496 2.589-0.423 0.15-0.994 0.354-1.269 0.454-0.275 0.099-1.25 0.906-2.167 1.791-1.341 1.296-1.918 1.727-2.958 2.207-1.492 0.689-1.493 0.691-0.667 1.481 1.537 1.469 3.3 1.341 5.869-0.426 0.479-0.329 1.159-0.677 1.513-0.772 1.743-0.469 3.946-3.408 5.431-7.245 0.199-0.514 0.479-0.911 0.733-1.04 0.875-0.442 3.719-0.145 4.853 0.507 0.84 0.484 0.957 0.274 0.373-0.67-1.235-1.999-5.306-3.392-7.063-2.418m25.307 1.886c1.844 1.626 3.833 2.241 10.182 3.147 7.249 1.035 9.678 2.367 11.636 6.384 1.353 2.776 1.366 2.765-2.464 2.006-4.781-0.948-5.559-0.754-10.049 2.518-3.227 2.351-3.304 2.377-6.073 2.109-3.785-0.366-5.571-0.907-6.695-2.029-1.19-1.187-3.873-5.691-3.57-5.994 0.514-0.514 4.52 1.553 6.526 3.367 2.154 1.947 6.401 1.073 7.687-1.583 0.911-1.882 0.218-2.698-4.459-5.249-2.245-1.224-3.473-2.737-3.778-4.652-0.145-0.909 0.05-0.913 1.057-0.024m-94.898-0.196c-1.951 0.468-5.028 3.033-5.597 4.668-0.261 0.748 0.013 0.983 2.322 1.996 1.035 0.454 2.224 1.036 2.643 1.294 1.335 0.824 1.46 0.875 1.887 0.776 0.592-0.138 1.927-0.965 3.002-1.859 0.504-0.419 0.942-0.778 0.972-0.798 0.03-0.021-0.382-0.588-0.917-1.261-0.96-1.21-1.582-2.144-2.449-3.672-0.394-0.696-1.021-1.33-1.268-1.282-0.048 9e-3 -0.316 0.071-0.595 0.138m-46.96 1.779c1.592 1.212 4.439 1.73 7.074 1.289 5.459-0.913 11.096 0.662 11.579 3.236 0.176 0.938-0.046 2.948-0.418 3.789-0.385 0.87-0.325 0.865-2.018 0.166-4.432-1.833-6.286-1.448-10.057 2.09-2.674 2.507-2.657 2.496-3.759 2.496-2.343 0-5.068-1.384-8.85-4.492-3.1-2.548-3.94-2.995-6.302-3.357-1.751-0.268-1.911-0.376-1.329-0.891 1.718-1.522 5.845-0.923 10.439 1.514 4.917 2.608 5.476 2.822 7.023 2.681 4.536-0.411 4.127-3.302-0.725-5.122-3.601-1.351-4.441-2.23-4.017-4.205 0.179-0.835 0.278-0.895 0.478-0.286 0.107 0.329 0.472 0.78 0.882 1.092m246.38-1.427c-2.842 0.299-2.816 0.276-3.558 3.253-0.817 3.278-0.735 3.691 0.763 3.86 2.351 0.265 7.955-1.431 10.077-3.05 0.937-0.715 0.796-0.974-1.365-2.508-2.485-1.763-2.903-1.872-5.917-1.555m-156.63 0.856c-0.71 0.71 0.112 5.256 1.35 7.47 1.441 2.576 4.431 4.105 5.588 2.857 0.498-0.538 3.759-5.908 3.931-6.474 0.284-0.934-2.939-4.022-3.972-3.805-1.694 0.355-5.371 0.255-6.497-0.177-0.108-0.041-0.288 0.017-0.4 0.129m-14.227 1.751c-2.18 2.038-3.348 2.899-5.196 3.828-1.771 0.89-1.8 1.084-0.278 1.85 2.137 1.076 5.906 1.632 8.321 1.229 1.604-0.268 1.659-0.385 0.923-1.957-1.08-2.307-1.11-2.872-0.3-5.584 0.093-0.311-0.868-0.98-1.407-0.98-0.196 0-1.056 0.672-2.063 1.614m10.857-0.495c-0.513 0.183-1.618 0.298-3.5 0.366l-2.75 0.098v1.583c0 3.562 2.47 5.828 6.494 5.958 2.852 0.092 3.132-0.205 2.285-2.417-0.513-1.34-0.93-3.073-1.151-4.789-0.148-1.139-0.253-1.2-1.378-0.799m86.667 0.829c-2.15 0.362-4.721 1.455-5.033 2.14-0.219 0.481 0.232 1.754 1.413 3.995 0.801 1.519 1.121 1.678 2.237 1.108 1.056-0.538 2.339-0.84 4.716-1.11 1.237-0.14 2.445-0.333 2.683-0.428 0.706-0.282 3.317-3.959 3.317-4.672 0-0.748-6.65-1.484-9.333-1.033m14.826 0.124c-2.945 0.813-7.368 4.791-6.495 5.842 0.77 0.928 2.559 1.376 4 1.003 1.684-0.436 3.075-0.486 4.835-0.171 2.908 0.519 2.796 0.518 3.023 0.02 0.253-0.555-0.085-1.726-1.063-3.683-1.517-3.037-2.278-3.569-4.3-3.011m-69.414 1.779c-0.186 0.091-0.636 0.658-1 1.259-0.876 1.447-2.251 2.669-4.117 3.66-0.839 0.445-1.935 1.128-2.437 1.518-2.869 2.228-5.094 2.094-7.676-0.462-1.099-1.088-1.22-1.162-1.968-1.19-1.868-0.072-2.038 0.057-3.208 2.435-1.158 2.353-1.161 2.384-0.431 3.863 1.521 3.076 4.373 4.899 7.667 4.899 4.302 0 5.858 1.987 3.746 4.785-1.062 1.407-0.709 1.421 1.9 0.077 2.656-1.369 3.335-1.883 4.404-3.335 0.518-0.702 1.344-1.702 1.837-2.222l0.896-0.945-0.364-1.305c-0.563-2.02-0.588-2.03-2.784-1.11-1.772 0.742-4.278 1.007-4.482 0.475-0.143-0.372 0.032-0.473 1.896-1.098 1.801-0.603 3.354-1.58 5.375-3.382 1.998-1.78 2.284-1.918 3.105-1.492 0.995 0.516 1.201 1.028 1.401 3.481 0.211 2.579 0.237 2.687 0.591 2.394 1.352-1.123 1.982-7.953 0.968-10.488-0.458-1.144-4.135-2.4-5.319-1.817m134.66 1.098c-1.851 1.178-3.08 1.686-5.741 2.374-1.146 0.296-2.142 0.595-2.215 0.664-0.387 0.37 2.775 3.383 3.981 3.794 2.463 0.839 9.316-0.497 11.36-2.216l0.375-0.315-1.919-1.656c-1.056-0.911-2.299-2.093-2.762-2.625-1.057-1.215-1.2-1.216-3.079-0.02m-199.77 1.283c-2.343 0.837-4.287 3.115-4.5 5.275-0.073 0.733 0.363 0.806 2.385 0.397 0.913-0.184 2.451-0.3 4.474-0.337 1.696-0.03 3.137-0.058 3.202-0.061 0.364-0.019 0.761-3.12 0.47-3.664-0.549-1.025-4.623-2.113-6.031-1.61m-18.099 0.129c-0.804 0.18-0.894 0.459-0.435 1.355 0.375 0.734 1.217 1.784 1.43 1.784 0.097 0 0.709 0.403 1.361 0.895 2.663 2.012 5.82 3.168 7.83 2.867 1.117-0.168 1.247-0.341 1.619-2.161l0.336-1.646-0.369-0.392c-0.509-0.543-4.181-2.347-5.39-2.649-1.127-0.281-5.212-0.315-6.382-0.053m28.708 0.897c-1.1 0.119-2.168 0.222-2.375 0.229-1.602 0.053-1.254 3.703 0.584 6.131 0.814 1.075 1.39 2.131 1.708 3.132 0.726 2.283 1.061 2.335 1.681 0.26 0.694-2.322 0.704-2.324 1.938-0.312 1.349 2.199 1.596 2.375 3.433 2.437 3.126 0.107 3.507-0.264 2.027-1.973-1.616-1.865-2.141-3.167-2.243-5.565l-0.086-2.014-1.736-1.292c-1.96-1.458-1.636-1.39-4.931-1.033m177.2 0.579c-0.235 0.185-0.796 0.841-1.246 1.458-0.449 0.617-1.577 1.929-2.506 2.915-2.414 2.565-2.436 2.651-0.89 3.41 2.02 0.992 7.236 0.484 11.14-1.086 1.435-0.577 1.477-0.811 0.262-1.476-1.119-0.613-2.958-2.246-3.564-3.167-0.232-0.353-0.601-0.915-0.818-1.251-0.716-1.101-1.613-1.405-2.378-0.803m55.077 2.359c2.969 3.215 4.173 9.915 2.623 14.598-0.738 2.23-2.014 3.375-2.365 2.122-0.425-1.515-0.694-2.195-1.225-3.101-0.936-1.597-1.384-1.511-1.393 0.268-0.026 4.764-2.633 7.74-7.604 8.682-5.781 1.096-7.814 1.831-10.302 3.727-1.493 1.138-1.518 1.148-1.656 0.633-0.605-2.259 0.366-3.394 5.113-5.973 3.806-2.067 4.703-3.065 4.693-5.224-0.016-3.751-2.342-5.2-5.652-3.522-1.636 0.828-1.828 0.806-1.678-0.198 0.436-2.913 2.603-7.208 3.636-7.208 0.4 0 2.266 1.035 5.905 3.277 3.101 1.911 2.881 1.829 3.417 1.269 1.056-1.103 3.778-6.274 4.447-8.45 0.572-1.861 0.986-2.044 2.041-0.9m-214.62-0.173c-0.528 0.856-0.2 4.377 0.555 5.947 1.228 2.556 5.74 5.135 7.166 4.096 0.604-0.44 5.371-6.734 5.375-7.096 1e-3 -0.184-0.69-0.671-2.039-1.433l-2.042-1.154-1.25 0.153c-1.448 0.178-4.723-0.059-6.216-0.45-1.158-0.303-1.394-0.313-1.549-0.063m105.85-0.083c-1.987 0.302-3.939 1.407-5.583 3.161-1.149 1.226-2.394 3.381-2.218 3.84 0.108 0.281 0.023 0.284 2.801-0.102 0.642-0.089 1.977-0.164 2.968-0.167l1.801-6e-3 0.407-0.958c0.581-1.369 1.192-2.477 1.998-3.625 0.909-1.295 1.027-1.676 0.592-1.908-0.385-0.207-2.033-0.347-2.766-0.235m-114.5 0.228c-1.81 0.682-0.256 5.511 2.132 6.627 1.037 0.484 2.94 0.871 4.281 0.871 1.345 0 1.358-0.019 0.898-1.416-0.179-0.543-0.309-1.705-0.374-3.334l-0.098-2.5-1.584-0.105c-3.335-0.223-4.928-0.266-5.255-0.143m189.12 0.34c-0.211 0.085-0.698 0.37-1.083 0.634-1.736 1.189-3.547 1.839-6.392 2.29-2.644 0.42-2.603 0.327-1.305 2.955 2.102 4.254 4.195 5.952 7.405 6.008l1.241 0.021 1.561-2c2.72-3.485 5.373-7.678 5.373-8.49 0-0.167-0.453-0.386-1.375-0.666-2.943-0.892-4.529-1.112-5.425-0.752m-69.45 0.798c-2.204 1.345-4.969 7.357-3.734 8.12 0.228 0.141 2.509-0.988 4.109-2.034 1.393-0.911 1.331-0.654 0.871-3.642-0.472-3.064-0.415-2.951-1.246-2.444m12.525 1.652c-0.158 0.257 0.384 1.435 0.91 1.977 0.749 0.773 1.673 1.094 2.974 1.032 1.417-0.067 1.434-0.32 0.066-0.967-0.619-0.292-1.699-0.9-2.4-1.349-1.335-0.856-1.424-0.896-1.55-0.693m-153.44 1.051c-6.208 1.59-7.767 1.672-11.208 0.589-1.098-0.345-1.064-0.025 0.132 1.228 1.95 2.045 2.944 2.299 9.679 2.478 5.345 0.141 5.396 0.152 6.078 1.246 1.326 2.128-2.109 3.829-7.764 3.845-4.13 0.013-5.046-0.238-11.103-3.033-5.124-2.364-6.274-2.492-11.314-1.263-4.71 1.148-6.549 0.954-9.376-0.991-1.734-1.193-1.954-1.022-0.994 0.768 1.551 2.895 4.234 3.922 10.787 4.131 4.567 0.145 4.187 0.061 7.78 1.714 8.906 4.097 12.955 4.854 17.887 3.347 3.985-1.217 4.95-0.378 3.274 2.848-1.529 2.946-2.943 3.398-10.691 3.417-4.603 0.011-5.437 0.197-6.875 1.536-1.017 0.947-1.039 1.224-0.083 1.027 0.389-0.08 4.42-0.148 8.958-0.149 9.78-4e-3 9.319 0.086 13.347-2.608 5.479-3.663 8.454-9.746 6.693-13.681-0.372-0.831-0.707-1.038-0.707-0.437 0 0.828-1.512 3.312-2.016 3.312-0.377 0-0.38-6e-3 -0.633-1.667-0.465-3.054-3.206-6.907-5.767-8.106-1.269-0.595-2.306-0.518-6.084 0.449m196.99 1.823c-2.461 0.955-4.024 1.384-6.729 1.846-2.872 0.49-2.997 0.622-2.167 2.289 1.505 3.018 5.622 3.651 11.557 1.776 0.723-0.228 1.476-0.546 1.675-0.707l0.36-0.292-0.54-0.997c-1.07-1.976-1.306-2.512-1.502-3.414-0.309-1.424-0.285-1.42-2.654-0.501m-15.744 0.112c-0.879 0.191-5.204 1.448-5.478 1.592-1.231 0.646 1.347 5.236 3.897 6.939 1.559 1.041 1.481 1.105 1.834-1.509 0.21-1.555 0.713-2.81 1.734-4.326 0.902-1.339 0.769-1.851-0.648-2.494-0.69-0.314-0.769-0.326-1.339-0.202m-49.833 2.486c-3.148 0.551-6.384 1.868-6.862 2.791-0.514 0.995 0.37 3.553 1.617 4.68 0.963 0.87 4.521 0.788 6.782-0.156 1.347-0.563 2.844-4.128 2.478-5.901-0.36-1.743-0.951-1.951-4.015-1.414m53.097 0.603c-2.86 3.89-1.494 8.161 3.374 10.547 2.734 1.34 3.257 0.847 3.536-3.332l0.111-1.665-1.536-0.741c-2.393-1.155-3.036-1.83-3.668-3.851-0.621-1.984-0.939-2.152-1.817-0.958m-43.114-0.1c-1.87 0.991-4.402 3.471-5.089 4.982-0.584 1.286-0.484 1.386 1.823 1.808 2.735 0.5 3.916 1.727 6.277 6.527 2.279 4.63 3.609 6.072 5.727 6.207 2.024 0.13 2.398-0.648 1.612-3.358-0.667-2.303-0.872-2.125 2.292-1.997 3.391 0.136 3.542 0.066 3.542-1.658 0-1.651-0.469-2.03-4.37-3.538-5.094-1.969-7.39-3.825-9.342-7.552-1.073-2.049-1.176-2.108-2.472-1.421m-116.18 0.569c-2.062 0.83-0.833 9.834 1.342 9.83 0.843-1e-3 9.368-6.648 8.992-7.01-0.074-0.071-0.83-0.427-1.681-0.792s-1.942-0.936-2.424-1.268c-1.094-0.753-5.048-1.236-6.229-0.76m146.98 1.899c-1.913 1.592-3.909 3.39-4.056 3.653-0.187 0.334 1.489 3.779 1.839 3.779 0.072 0 0.313-0.392 0.535-0.871 0.501-1.081 1.943-3.048 3.295-4.492 1.145-1.225 1.216-1.507 0.615-2.46-0.604-0.956-0.61-0.955-2.228 0.391m-154.25-0.45c-0.282 0.072-0.297 0.225-0.194 2.022 0.242 4.219-0.51 6.904-2.618 9.342-0.348 0.402-0.633 0.796-0.633 0.875 0 0.578 5.959-0.822 8.601-2.02 1.253-0.567 1.273-0.647 0.581-2.278-0.775-1.828-0.992-2.825-1.161-5.344-0.088-1.302-0.207-2.446-0.266-2.541-0.107-0.173-3.681-0.219-4.31-0.056m183.47 1.816c-2.545 1.085-3.993 1.482-6.613 1.817-2.494 0.318-2.742 4.526-0.528 8.957 0.715 1.431 0.727 1.431 3.463-0.068 4.953-2.714 6.787-3.982 9.049-6.256 2.219-2.23 2.187-2.333-1.176-3.775-2.939-1.261-2.852-1.247-4.195-0.675m-26.748 1.941c-5.324 5.248-3.915 9.724 3.271 10.392l1.175 0.109 0.111-1.58c0.126-1.788 0.379-2.759 1.216-4.664 0.703-1.598 0.702-1.601-0.723-2.443-0.624-0.369-1.655-1.125-2.29-1.68-1.416-1.238-1.63-1.248-2.76-0.134m7.407 4.37c-2.052 2.691-1.177 10.132 1.333 11.323 0.612 0.291 0.772 0.255 1.925-0.431 0.412-0.246 2.056-0.981 3.653-1.634 4.197-1.717 4.286-1.817 3.487-3.953-0.526-1.405-0.955-1.748-2.971-2.374-2.126-0.661-3.938-1.554-5.409-2.668-1.319-0.998-1.444-1.015-2.018-0.263m-11.71 5.535c-0.088 0.167-0.283 0.866-0.435 1.553-0.465 2.108-1.081 3.754-1.94 5.182-1.188 1.977-1.225 1.892 0.843 1.953 3.322 0.098 9.238-0.804 10.993-1.676 0.959-0.476 0.974-0.953 0.088-2.746-0.71-1.436-0.786-1.483-3.442-2.116-2.697-0.644-3.953-1.136-5.502-2.158-0.428-0.283-0.453-0.282-0.605 8e-3"
       fill="#c00"
       fill-opacity=".42655"
       fill-rule="evenodd" />
  </g>
  <g
     id="DECK"
     transform="matrix(.42723 0 0 .42723 36.205 275)"
     fill="#fce94f"
     stroke="#c00"
     stroke-width="4.7743">
    <path
       id="path206"
       d="m1650 476.92h78.84v204.66l270.54-204.8h117.86l-163.89 124.06 180.62 254.2-97.06-0.27-146.34-206.28-161.73 122.58v83.835h-78.84zm-512.74 37.395c12.06-12.06 25.4-21.285 40.03-27.675 14.62-6.39 30.53-9.585 47.72-9.585h360.18v72.225h-360.18c-6.39 0-12.4 1.192-18.02 3.577-5.63 2.385-10.53 5.67-14.72 9.855-4.18 4.185-7.47 9.09-9.85 14.715-2.39 5.625-3.58 11.633-3.58 18.023v141.21c0 5.94 1.3 11.677 3.92 17.212 2.61 5.535 6.05 10.44 10.32 14.715 4.28 4.275 9.18 7.718 14.72 10.328 5.53 2.61 11.27 3.915 17.21 3.915h360.18v72.225h-360.18c-8.55 0-16.85-0.9-24.91-2.7-8.05-1.8-15.79-4.343-23.22-7.628-7.42-3.285-14.47-7.222-21.12-11.812-6.66-4.59-12.83-9.63-18.5-15.12-11.79-11.43-20.95-24.593-27.47-39.488-6.53-14.895-9.79-30.982-9.79-48.262v-127.98c0-17.28 3.19-33.21 9.59-47.79 6.39-14.58 15.61-27.9 27.67-39.96zm-587.26 297.4v-291.33c0-6.48 1.035-12.375 3.105-17.685s5.018-9.878 8.842-13.703c3.826-3.825 8.393-6.772 13.703-8.842s11.205-3.105 17.685-3.105h440.36v72.225h-404.72v76.545h355.59v72.225h-355.59v84.78h404.72v72.225h-440.36c-6.48 0-12.375-1.035-17.685-3.105s-9.877-5.018-13.703-8.843c-3.824-3.825-6.772-8.392-8.842-13.702s-3.105-11.205-3.105-17.685zm-102.07 151.02c-12.06 12.06-25.403 21.285-40.028 27.675s-30.532 9.585-47.722 9.585h-281.2v-72.225h281.2c6.39 0 12.397-1.192 18.022-3.578 5.625-2.384 10.53-5.67 14.715-9.855s7.47-9.089 9.855-14.715c2.385-5.624 3.578-11.632 3.578-18.022v-286.15c0-5.94-1.305-11.678-3.915-17.213s-6.053-10.44-10.328-14.715-9.18-7.717-14.715-10.327-11.272-3.915-17.212-3.915h-281.2v-72.225h281.2c8.55 0 16.852 0.9 24.907 2.7s15.795 4.342 23.22 7.627 14.468 7.223 21.128 11.813 12.825 9.63 18.495 15.12c11.79 11.43 20.947 24.592 27.472 39.487s9.788 30.983 9.788 48.263v272.92c0 17.28-3.195 33.21-9.585 47.79s-15.615 27.9-27.675 39.96z"
       fill="#fce94f"
       stroke="#c00"
       stroke-width="4.7743" />
  </g>
  <g
     id="RETRO"
     transform="matrix(.42082 0 0 .42725 44.153 274.99)"
     fill="url(#linearGradient2104)"
     stroke="#fce94f"
     stroke-width="4.7743">
    <path
       id="path212"
       d="m603.16 933.62c0 3.216-0.51 6.277-1.531 9.184-1.02 2.907-2.489 5.335-4.406 7.283-1.175 1.206-2.467 2.319-3.874 3.34-1.407 1.02-2.961 1.886-4.661 2.597-1.701 0.712-3.549 1.268-5.544 1.67-1.994 0.402-4.229 0.603-6.703 0.603h-9.091v22.591h-17.349v-69.07h26.812c3.989 0 7.429 0.363 10.321 1.09 2.891 0.727 5.512 1.879 7.862 3.456 2.598 1.732 4.608 4.043 6.03 6.935 1.423 2.891 2.134 6.331 2.134 10.321zm-17.812 0.417c0-1.948-0.464-3.626-1.392-5.033s-2.041-2.373-3.34-2.899c-1.639-0.711-3.208-1.121-4.708-1.229-1.5-0.109-3.533-0.163-6.1-0.163h-2.458v20.689h1.206c1.639 0 3.185-0.016 4.638-0.047 1.454-0.03 2.722-0.139 3.804-0.324 0.928-0.155 1.91-0.456 2.946-0.905 1.036-0.448 1.832-0.951 2.389-1.507 1.175-1.145 1.971-2.335 2.388-3.572 0.418-1.237 0.627-2.907 0.627-5.01zm76.167 20.828c0 8.566-2.343 15.315-7.028 20.248-4.685 4.932-11.311 7.398-19.877 7.398-8.504 0-15.114-2.466-19.83-7.398-4.716-4.933-7.074-11.682-7.074-20.248 0-8.659 2.358-15.439 7.074-20.341 4.716-4.901 11.326-7.352 19.83-7.352 8.536 0 15.153 2.466 19.854 7.399 4.7 4.932 7.051 11.697 7.051 20.294zm-16.653 0.092c0-3.092-0.255-5.666-0.766-7.723-0.51-2.056-1.213-3.703-2.11-4.94-0.959-1.299-2.041-2.203-3.247-2.714-1.206-0.51-2.582-0.765-4.129-0.765-1.453 0-2.767 0.224-3.942 0.673-1.176 0.448-2.258 1.306-3.248 2.574-0.927 1.206-1.669 2.861-2.226 4.963-0.557 2.103-0.835 4.747-0.835 7.932 0 3.186 0.263 5.76 0.788 7.724 0.526 1.964 1.207 3.533 2.041 4.708 0.866 1.206 1.949 2.088 3.248 2.644 1.298 0.557 2.736 0.835 4.314 0.835 1.298 0 2.62-0.278 3.966-0.835 1.345-0.556 2.419-1.391 3.223-2.505 0.959-1.329 1.686-2.93 2.181-4.801 0.494-1.871 0.742-4.461 0.742-7.77zm102.89-26.162-15.215 52.093h-17.256l-9.138-33.677-9.185 33.677h-17.256l-15.075-52.093h17.07l7.978 34.466 9.881-34.466h14.333l9.324 34.466 7.839-34.466zm33.584 53.484c-9.834 0-17.372-2.35-22.614-7.051-5.242-4.7-7.863-11.395-7.863-20.085 0-8.504 2.444-15.292 7.33-20.364 4.886-5.071 11.72-7.607 20.503-7.607 7.978 0 13.977 2.149 17.998 6.448 4.02 4.298 6.03 10.452 6.03 18.462v5.844h-35.579c0.155 2.412 0.665 4.43 1.531 6.054 0.866 1.623 2.01 2.914 3.433 3.873 1.391 0.959 3.015 1.647 4.87 2.064 1.856 0.418 3.881 0.626 6.077 0.626 1.886 0 3.742-0.208 5.566-0.626 1.825-0.417 3.495-0.966 5.01-1.647 1.33-0.587 2.559-1.221 3.688-1.901 1.129-0.681 2.049-1.284 2.76-1.809h1.716v13.405c-1.33 0.526-2.543 1.013-3.641 1.461-1.098 0.449-2.606 0.905-4.523 1.369-1.763 0.464-3.579 0.827-5.45 1.09s-4.152 0.394-6.842 0.394zm5.38-34.14c-0.092-3.433-0.889-6.046-2.388-7.84-1.5-1.793-3.796-2.69-6.889-2.69-3.154 0-5.62 0.943-7.399 2.829-1.778 1.887-2.76 4.454-2.945 7.701zm59.329-3.99h-1.345c-0.619-0.216-1.515-0.378-2.691-0.487-1.175-0.108-2.474-0.162-3.896-0.162-1.701 0-3.487 0.247-5.358 0.742s-3.688 1.083-5.45 1.763v34.883h-16.236v-52.093h16.236v7.469c0.742-0.681 1.77-1.539 3.085-2.575 1.314-1.036 2.512-1.863 3.594-2.482 1.176-0.711 2.544-1.322 4.106-1.832 1.561-0.51 3.038-0.765 4.43-0.765 0.525 0 1.113 0.015 1.762 0.046 0.65 0.031 1.237 0.078 1.763 0.139zm32.888 38.13c-9.834 0-17.372-2.35-22.613-7.051-5.242-4.7-7.863-11.395-7.863-20.085 0-8.504 2.443-15.292 7.329-20.364 4.886-5.071 11.721-7.607 20.503-7.607 7.979 0 13.978 2.149 17.998 6.448 4.02 4.298 6.03 10.452 6.03 18.462v5.844h-35.578c0.155 2.412 0.665 4.43 1.531 6.054 0.866 1.623 2.01 2.914 3.432 3.873 1.392 0.959 3.015 1.647 4.871 2.064 1.855 0.418 3.881 0.626 6.077 0.626 1.886 0 3.741-0.208 5.566-0.626 1.824-0.417 3.494-0.966 5.01-1.647 1.329-0.587 2.559-1.221 3.687-1.901 1.129-0.681 2.049-1.284 2.76-1.809h1.717v13.405c-1.33 0.526-2.544 1.013-3.642 1.461-1.097 0.449-2.605 0.905-4.522 1.369-1.763 0.464-3.58 0.827-5.451 1.09s-4.151 0.394-6.842 0.394zm5.381-34.14c-0.093-3.433-0.889-6.046-2.389-7.84-1.5-1.793-3.796-2.69-6.888-2.69-3.155 0-5.621 0.943-7.399 2.829-1.778 1.887-2.76 4.454-2.946 7.701zm71.714 32.749h-16.235v-5.428c-1.052 0.866-2.25 1.794-3.595 2.784-1.346 0.989-2.528 1.731-3.549 2.226-1.299 0.619-2.582 1.083-3.85 1.392s-2.783 0.464-4.546 0.464c-5.937 0-10.638-2.459-14.102-7.376-3.463-4.917-5.195-11.488-5.195-19.714 0-4.546 0.588-8.489 1.763-11.829s2.799-6.247 4.87-8.721c1.887-2.257 4.175-4.043 6.866-5.357 2.69-1.314 5.535-1.972 8.535-1.972 2.721 0 4.956 0.286 6.703 0.859 1.747 0.572 3.78 1.461 6.1 2.667v-22.173h16.235zm-16.235-14.38v-25.559c-0.804-0.402-1.856-0.735-3.155-0.998-1.299-0.262-2.412-0.394-3.34-0.394-3.896 0-6.826 1.361-8.79 4.082s-2.945 6.525-2.945 11.411c0 5.134 0.78 8.845 2.342 11.133s4.09 3.433 7.584 3.433c1.423 0 2.861-0.279 4.314-0.835 1.454-0.557 2.784-1.315 3.99-2.273zm90.962-12.061c0-5.195-0.79-8.906-2.36-11.133-1.58-2.226-4.01-3.339-7.29-3.339-1.45 0-2.9 0.232-4.33 0.695-1.44 0.464-2.86 1.16-4.25 2.088v26.162c1.08 0.433 2.17 0.727 3.27 0.881 1.1 0.155 2.19 0.232 3.27 0.232 3.93 0 6.86-1.299 8.79-3.896 1.94-2.598 2.9-6.494 2.9-11.69zm16.61-0.324c0 8.287-2.1 14.99-6.31 20.108s-9.42 7.677-15.63 7.677c-2.6 0-4.86-0.294-6.78-0.881-1.91-0.588-3.95-1.5-6.12-2.737l-0.69 2.598h-15.543v-72.178h16.233v25.513c2.38-2.041 4.81-3.696 7.29-4.964 2.47-1.268 5.33-1.902 8.58-1.902 6.06 0 10.73 2.366 14.03 7.098 3.29 4.731 4.94 11.287 4.94 19.668zm57.56-25.328-26.3 71.204h-17.44l7.89-20.364-19.11-50.84h17.07l10.94 32.657 10.25-32.657zm34.84 52.093v-69.07h46.71v13.174h-29.45v12.107h27.13v13.173h-27.13v17.442h29.45v13.174zm119.77 0v-26.023c0-2.567-0.04-4.732-0.14-6.494-0.09-1.763-0.37-3.201-0.83-4.314-0.47-1.114-1.19-1.925-2.16-2.436-0.97-0.51-2.34-0.765-4.1-0.765-1.24 0-2.46 0.271-3.67 0.812s-2.52 1.306-3.94 2.296v36.924h-16.33v-26.023c0-2.536-0.05-4.693-0.16-6.471s-0.4-3.224-0.86-4.337c-0.46-1.114-1.18-1.925-2.16-2.436-0.97-0.51-2.32-0.765-4.06-0.765-1.33 0-2.63 0.309-3.89 0.928-1.27 0.618-2.51 1.345-3.71 2.18v36.924h-16.24v-52.093h16.24v5.752c2.65-2.257 5.16-4.02 7.51-5.288s5-1.902 7.93-1.902c3.19 0 5.99 0.758 8.4 2.273 2.41 1.516 4.25 3.773 5.52 6.773 3.12-2.907 6.07-5.141 8.83-6.703 2.77-1.562 5.58-2.343 8.42-2.343 2.42 0 4.58 0.387 6.5 1.16s3.54 1.933 4.87 3.479c1.45 1.67 2.54 3.657 3.27 5.961s1.09 5.311 1.09 9.022v33.909zm76.73 0h-16.24v-5.752c-2.82 2.35-5.4 4.136-7.75 5.357-2.35 1.222-5.15 1.833-8.39 1.833-5.17 0-9.2-1.632-12.09-4.894-2.89-3.263-4.33-8.172-4.33-14.728v-33.909h16.32v25.838c0 2.69 0.07 4.886 0.21 6.587s0.47 3.139 1 4.314c0.5 1.082 1.26 1.902 2.3 2.458 1.03 0.557 2.48 0.835 4.33 0.835 1.15 0 2.5-0.278 4.06-0.835 1.56-0.556 3.01-1.314 4.34-2.273v-36.924h16.24zm28.66 0h-16.23v-72.178h16.23zm41.15-13.592v-10.854c-2.75 0.278-4.98 0.518-6.68 0.719s-3.37 0.595-5.01 1.183c-1.43 0.495-2.53 1.244-3.32 2.249-0.79 1.006-1.18 2.343-1.18 4.013 0 2.443 0.66 4.121 1.97 5.033s3.25 1.368 5.82 1.368c1.42 0 2.88-0.324 4.36-0.974 1.49-0.649 2.83-1.562 4.04-2.737zm0 8.072c-1.12 0.927-2.11 1.762-2.99 2.505-0.89 0.742-2.07 1.484-3.55 2.226-1.46 0.711-2.87 1.253-4.25 1.624-1.37 0.371-3.3 0.556-5.77 0.556-4.61 0-8.44-1.546-11.48-4.638-3.05-3.093-4.57-6.989-4.57-11.69 0-3.865 0.77-6.989 2.32-9.37 1.54-2.381 3.77-4.268 6.68-5.659 2.93-1.423 6.44-2.412 10.53-2.969 4.08-0.557 8.47-0.989 13.17-1.299v-0.278c0-2.876-1.06-4.863-3.18-5.961s-5.29-1.646-9.53-1.646c-1.92 0-4.16 0.347-6.73 1.043-2.56 0.696-5.07 1.585-7.51 2.667h-1.39v-12.57c1.6-0.464 4.2-1.013 7.79-1.647s7.21-0.951 10.85-0.951c8.97 0 15.51 1.492 19.6 4.476 4.1 2.985 6.15 7.538 6.15 13.661v35.44h-16.14zm48.1 6.54c-6.62 0-11.43-1.36-14.45-4.082-3.02-2.721-4.52-7.174-4.52-13.359v-24.353h-6.22v-11.319h6.22v-14.89h16.23v14.89h15.64v11.319h-15.64v18.462c0 1.824 0.02 3.417 0.05 4.777 0.03 1.361 0.28 2.583 0.74 3.665 0.43 1.082 1.2 1.941 2.3 2.575 1.1 0.633 2.7 0.95 4.8 0.95 0.86 0 2-0.185 3.41-0.556 1.4-0.371 2.39-0.711 2.94-1.021h1.4v11.458c-1.77 0.464-3.64 0.827-5.62 1.09s-4.4 0.394-7.28 0.394zm35.76-1.02h-16.23v-52.093h16.23zm0.47-59.514h-17.16v-12.664h17.16zm61.97 33.491c0 8.566-2.34 15.315-7.03 20.248-4.68 4.932-11.31 7.398-19.87 7.398-8.51 0-15.12-2.466-19.83-7.398-4.72-4.933-7.08-11.682-7.08-20.248 0-8.659 2.36-15.439 7.08-20.341 4.71-4.901 11.32-7.352 19.83-7.352 8.53 0 15.15 2.466 19.85 7.399 4.7 4.932 7.05 11.697 7.05 20.294zm-16.65 0.092c0-3.092-0.26-5.666-0.77-7.723-0.51-2.056-1.21-3.703-2.11-4.94-0.96-1.299-2.04-2.203-3.24-2.714-1.21-0.51-2.59-0.765-4.13-0.765-1.46 0-2.77 0.224-3.95 0.673-1.17 0.448-2.25 1.306-3.24 2.574-0.93 1.206-1.67 2.861-2.23 4.963-0.56 2.103-0.84 4.747-0.84 7.932 0 3.186 0.27 5.76 0.79 7.724 0.53 1.964 1.21 3.533 2.04 4.708 0.87 1.206 1.95 2.088 3.25 2.644 1.3 0.557 2.74 0.835 4.32 0.835 1.29 0 2.62-0.278 3.96-0.835 1.35-0.556 2.42-1.391 3.23-2.505 0.95-1.329 1.68-2.93 2.18-4.801 0.49-1.871 0.74-4.461 0.74-7.77zm74.08 25.931h-16.33v-25.838c0-2.103-0.09-4.198-0.26-6.285-0.17-2.088-0.48-3.626-0.95-4.616-0.55-1.175-1.36-2.017-2.41-2.528-1.05-0.51-2.46-0.765-4.22-0.765-1.33 0-2.68 0.247-4.04 0.742s-2.81 1.283-4.36 2.366v36.924h-16.23v-52.093h16.23v5.752c2.66-2.257 5.25-4.02 7.77-5.288s5.32-1.902 8.38-1.902c5.31 0 9.38 1.678 12.2 5.033 2.81 3.356 4.22 8.219 4.22 14.589zm34.28 1.252c-5.29 0-9.94-0.51-13.94-1.531-4.01-1.02-7.73-2.288-11.16-3.803v-16.421h1.58c3.46 2.938 7.28 5.195 11.46 6.772 4.17 1.577 8.22 2.366 12.15 2.366 0.99 0 2.3-0.108 3.92-0.325 1.62-0.216 2.93-0.556 3.92-1.02 1.21-0.526 2.23-1.26 3.06-2.204 0.84-0.943 1.25-2.188 1.25-3.734 0-1.732-0.68-3.139-2.04-4.221s-2.98-1.871-4.87-2.366c-2.35-0.618-4.86-1.206-7.54-1.762-2.67-0.557-5.17-1.237-7.49-2.041-5.35-1.887-9.18-4.423-11.5-7.608s-3.48-7.174-3.48-11.968c0-6.463 2.74-11.697 8.21-15.702 5.47-4.004 12.31-6.007 20.5-6.007 4.12 0 8.21 0.418 12.27 1.253 4.07 0.835 7.71 1.964 10.93 3.386v15.772h-1.53c-2.57-2.196-5.7-4.052-9.4-5.567-3.69-1.515-7.49-2.273-11.39-2.273-1.51 0-2.87 0.108-4.08 0.325-1.2 0.216-2.47 0.634-3.8 1.252-1.08 0.495-2.02 1.23-2.81 2.204s-1.18 2.064-1.18 3.27c0 1.763 0.63 3.162 1.88 4.198s3.67 1.971 7.26 2.806c2.32 0.526 4.55 1.036 6.7 1.531s4.45 1.175 6.89 2.041c4.79 1.732 8.36 4.059 10.69 6.981 2.34 2.923 3.5 6.781 3.5 11.574 0 6.865-2.69 12.385-8.09 16.56s-12.69 6.262-21.87 6.262zm57.84-0.232c-6.62 0-11.43-1.36-14.45-4.082-3.01-2.721-4.52-7.174-4.52-13.359v-24.353h-6.22v-11.319h6.22v-14.89h16.23v14.89h15.64v11.319h-15.64v18.462c0 1.824 0.02 3.417 0.05 4.777 0.03 1.361 0.28 2.583 0.74 3.665 0.44 1.082 1.2 1.941 2.3 2.575 1.1 0.633 2.7 0.95 4.8 0.95 0.87 0 2-0.185 3.41-0.556s2.39-0.711 2.94-1.021h1.4v11.458c-1.77 0.464-3.64 0.827-5.62 1.09-1.97 0.263-4.4 0.394-7.28 0.394zm48.24-14.612v-10.854c-2.75 0.278-4.98 0.518-6.68 0.719s-3.37 0.595-5.01 1.183c-1.42 0.495-2.52 1.244-3.31 2.249-0.79 1.006-1.18 2.343-1.18 4.013 0 2.443 0.65 4.121 1.97 5.033 1.31 0.912 3.25 1.368 5.82 1.368 1.42 0 2.87-0.324 4.36-0.974 1.48-0.649 2.83-1.562 4.03-2.737zm0 8.072c-1.11 0.927-2.11 1.762-2.99 2.505-0.88 0.742-2.06 1.484-3.55 2.226-1.45 0.711-2.86 1.253-4.24 1.624s-3.3 0.556-5.78 0.556c-4.6 0-8.43-1.546-11.48-4.638-3.04-3.093-4.57-6.989-4.57-11.69 0-3.865 0.78-6.989 2.32-9.37 1.55-2.381 3.78-4.268 6.68-5.659 2.94-1.423 6.45-2.412 10.53-2.969s8.48-0.989 13.18-1.299v-0.278c0-2.876-1.06-4.863-3.18-5.961s-5.3-1.646-9.53-1.646c-1.92 0-4.16 0.347-6.73 1.043s-5.07 1.585-7.51 2.667h-1.4v-12.57c1.61-0.464 4.21-1.013 7.8-1.647 3.58-0.634 7.2-0.951 10.85-0.951 8.97 0 15.5 1.492 19.6 4.476 4.1 2.985 6.15 7.538 6.15 13.661v35.44h-16.15zm48.11 6.54c-6.62 0-11.44-1.36-14.45-4.082-3.02-2.721-4.53-7.174-4.53-13.359v-24.353h-6.21v-11.319h6.21v-14.89h16.24v14.89h15.63v11.319h-15.63v18.462c0 1.824 0.02 3.417 0.05 4.777 0.03 1.361 0.27 2.583 0.74 3.665 0.43 1.082 1.2 1.941 2.3 2.575 1.09 0.633 2.69 0.95 4.8 0.95 0.86 0 2-0.185 3.41-0.556 1.4-0.371 2.38-0.711 2.94-1.021h1.39v11.458c-1.76 0.464-3.63 0.827-5.61 1.09s-4.41 0.394-7.28 0.394zm35.76-1.02h-16.23v-52.093h16.23zm0.47-59.514h-17.17v-12.664h17.17zm61.97 33.491c0 8.566-2.35 15.315-7.03 20.248-4.68 4.932-11.31 7.398-19.88 7.398-8.5 0-15.11-2.466-19.83-7.398-4.71-4.933-7.07-11.682-7.07-20.248 0-8.659 2.36-15.439 7.07-20.341 4.72-4.901 11.33-7.352 19.83-7.352 8.54 0 15.16 2.466 19.86 7.399 4.7 4.932 7.05 11.697 7.05 20.294zm-16.66 0.092c0-3.092-0.25-5.666-0.76-7.723-0.51-2.056-1.21-3.703-2.11-4.94-0.96-1.299-2.04-2.203-3.25-2.714-1.2-0.51-2.58-0.765-4.13-0.765-1.45 0-2.76 0.224-3.94 0.673-1.18 0.448-2.26 1.306-3.25 2.574-0.93 1.206-1.67 2.861-2.22 4.963-0.56 2.103-0.84 4.747-0.84 7.932 0 3.186 0.26 5.76 0.79 7.724s1.21 3.533 2.04 4.708c0.87 1.206 1.95 2.088 3.25 2.644 1.3 0.557 2.73 0.835 4.31 0.835 1.3 0 2.62-0.278 3.97-0.835 1.34-0.556 2.42-1.391 3.22-2.505 0.96-1.329 1.69-2.93 2.18-4.801 0.5-1.871 0.74-4.461 0.74-7.77zm74.08 25.931h-16.32v-25.838c0-2.103-0.09-4.198-0.26-6.285-0.17-2.088-0.49-3.626-0.95-4.616-0.56-1.175-1.36-2.017-2.41-2.528-1.05-0.51-2.46-0.765-4.22-0.765-1.33 0-2.68 0.247-4.04 0.742s-2.81 1.283-4.36 2.366v36.924h-16.23v-52.093h16.23v5.752c2.66-2.257 5.25-4.02 7.77-5.288s5.31-1.902 8.37-1.902c5.32 0 9.39 1.678 12.2 5.033 2.82 3.356 4.22 8.219 4.22 14.589zm41.66-24.029h-30.75v-12.895h30.75zm73.94-10.437c0 6.433-1.41 12.192-4.22 17.279-2.82 5.087-6.37 8.992-10.67 11.713-3.59 2.319-7.49 3.811-11.71 4.476s-8.72 0.998-13.48 0.998h-21.61v-69.07h21.43c4.85 0 9.4 0.309 13.63 0.928 4.24 0.618 8.21 2.118 11.92 4.499 4.55 2.907 8.14 6.827 10.77 11.759 2.63 4.933 3.94 10.739 3.94 17.418zm-17.81-0.139c0-4.546-0.78-8.434-2.34-11.666-1.57-3.232-3.97-5.76-7.22-7.584-2.35-1.299-4.81-2.01-7.4-2.134-2.58-0.124-5.66-0.186-9.25-0.186h-0.33v43.233h0.33c3.9 0 7.18-0.07 9.86-0.209 2.67-0.139 5.21-0.966 7.63-2.482 2.84-1.793 5.01-4.267 6.49-7.422 1.48-3.154 2.23-7.004 2.23-11.55zm28.06 34.605v-69.07h46.71v13.174h-29.45v12.107h27.13v13.173h-27.13v17.442h29.45v13.174zm157.52-640.15c-11.79-11.43-20.95-24.593-27.47-39.488-6.53-14.895-9.79-30.982-9.79-48.262v-127.98c0-17.28 3.2-33.21 9.59-47.79 6.38-14.58 15.61-27.9 27.67-39.96s25.4-21.285 40.03-27.675c14.62-6.39 30.53-9.585 47.72-9.585h233.82c17.19 0 33.1 3.195 47.72 9.585 14.63 6.39 27.97 15.615 40.03 27.675s21.29 25.38 27.68 39.96c6.38 14.58 9.58 30.51 9.58 47.79v127.98c0 17.28-3.26 33.367-9.79 48.262-6.52 14.895-15.68 28.058-27.47 39.488-5.67 5.49-11.84 10.53-18.49 15.12-6.66 4.59-13.71 8.527-21.13 11.812-7.43 3.285-15.17 5.828-23.22 7.628-8.06 1.8-16.36 2.7-24.91 2.7h-233.82c-8.55 0-16.85-0.9-24.91-2.7-8.05-1.8-15.79-4.343-23.22-7.628-7.42-3.285-14.47-7.222-21.12-11.812-6.66-4.59-12.83-9.63-18.5-15.12zm41.58-81.135c0 5.94 1.3 11.677 3.92 17.212 2.61 5.535 6.05 10.44 10.32 14.715 4.28 4.275 9.18 7.718 14.72 10.328 5.53 2.61 11.27 3.915 17.21 3.915h233.82c5.94 0 11.68-1.305 17.21-3.915 5.54-2.61 10.44-6.053 14.72-10.328 4.27-4.275 7.71-9.18 10.33-14.715 2.61-5.535 3.91-11.272 3.91-17.212v-141.21c0-6.39-1.19-12.398-3.58-18.022-2.38-5.626-5.67-10.53-9.85-14.715-4.19-4.185-9.09-7.471-14.72-9.855-5.62-2.386-11.63-3.578-18.02-3.578h-233.82c-6.39 0-12.4 1.192-18.02 3.578-5.63 2.384-10.53 5.67-14.72 9.855-4.18 4.185-7.47 9.089-9.85 14.715-2.39 5.624-3.58 11.632-3.58 18.022zm-585.5-259.6h337.09c12.69 0 24.28 1.53 34.76 4.59 10.49 3.06 19.94 7.245 28.35 12.555 8.42 5.31 15.75 11.61 22.01 18.9 6.25 7.29 11.45 15.187 15.59 23.693 4.14 8.504 7.25 17.414 9.31 26.729 2.08 9.316 3.06 18.698 2.98 28.148 0 9.63-1.04 19.17-3.11 28.62s-5.18 18.427-9.31 26.932c-4.14 8.505-9.34 16.358-15.6 23.558-6.25 7.2-13.56 13.432-21.94 18.697-8.36 5.265-17.79 9.383-28.28 12.353-10.48 2.97-22.07 4.455-34.76 4.455h-1.49l121.51 148.77h-97.88l-121.5-148.77h-202.09v148.77h-78.85l-0.13-334.66c0-6.48 1.04-12.375 3.11-17.685 2.06-5.31 5.01-9.878 8.84-13.702 3.82-3.826 8.39-6.773 13.7-8.843s11.21-3.105 17.69-3.105zm335.6 157c5.86 0 10.98-1.215 15.4-3.645 4.4-2.43 8.09-5.625 11.07-9.585 2.97-3.96 5.19-8.483 6.68-13.568 1.48-5.085 2.25-10.282 2.29-15.592 0.05-5.31-0.65-10.508-2.09-15.593s-3.62-9.607-6.55-13.567c-2.92-3.96-6.61-7.155-11.07-9.585-4.45-2.43-9.69-3.645-15.73-3.645h-299.96v84.78zm-928.94-84.78v-72.225h483.84v72.225h-202.36v305.78h-78.98v-305.78zm-550 262.44v-291.33c0-6.48 1.035-12.375 3.105-17.685s5.018-9.878 8.842-13.703c3.826-3.825 8.393-6.772 13.703-8.842s11.205-3.105 17.685-3.105h440.36v72.225h-404.72v76.545h355.59v72.225h-355.59v84.78h404.72v72.225h-440.36c-6.48 0-12.375-1.035-17.685-3.105s-9.877-5.018-13.703-8.843c-3.824-3.825-6.772-8.392-8.842-13.702s-3.105-11.205-3.105-17.685zm-506.66-334.66h337.1c12.69 0 24.278 1.53 34.762 4.59 10.486 3.06 19.936 7.245 28.35 12.555 8.416 5.31 15.751 11.61 22.005 18.9 6.256 7.29 11.453 15.187 15.593 23.692s7.245 17.415 9.315 26.73 3.06 18.698 2.97 28.148c0 9.63-1.035 19.17-3.105 28.62s-5.175 18.427-9.315 26.932-9.337 16.358-15.593 23.558c-6.254 7.2-13.567 13.432-21.937 18.697s-17.797 9.383-28.283 12.353c-10.484 2.97-22.072 4.455-34.762 4.455h-1.485l121.5 148.77h-97.875l-121.5-148.77h-202.1v148.77h-78.84l-0.135-334.66c0-6.48 1.035-12.375 3.105-17.685s5.018-9.878 8.842-13.703c3.826-3.825 8.393-6.772 13.703-8.842s11.205-3.105 17.685-3.105zm335.61 157c5.85 0 10.98-1.215 15.39-3.645s8.1-5.625 11.07-9.585 5.197-8.483 6.682-13.568 2.251-10.282 2.295-15.592c0.046-5.31-0.652-10.508-2.092-15.593s-3.622-9.607-6.548-13.567c-2.924-3.96-6.615-7.155-11.07-9.585s-9.697-3.645-15.727-3.645h-299.97v84.78z"
       fill="url(#linearGradient2104)"
       stroke="#fce94f"
       stroke-width="4.7743" />
  </g>
  <g
     id="g2839"
     transform="matrix(1.6418 -5.5939 5.5939 1.6418 -1035.6 1295.3)">
    <rect
       id="rect2827"
       x="165.64"
       y="144.03"
       width="13.56"
       height="22.008"
       fill="#ef2929" />
    <g
       fill="none"
       stroke="#fce94f"
       stroke-linejoin="round"
       id="g20">
      <path
         id="path2829"
         d="m166.53 145h11.834v18.437h-1.6468v1.6656h-8.5594v-1.6656h-1.6281z"
         stroke-width=".30089" />
      <rect
         id="rect2831"
         x="177.47"
         y="164.21"
         width=".93379"
         height=".93379"
         stroke-width=".21271" />
      <rect
         id="rect2833"
         x="166.48"
         y="164.21"
         width=".93338"
         height=".93338"
         stroke-width=".21262" />
    </g>
    <path
       id="path2835"
       d="m179.24 144.03-13.6 6e-3s1.3084 3.6603 2.76 3.6602h1.6795a2.5446 1.8416 0 0 0 2.3606 1.156 2.5446 1.8416 0 0 0 2.3601-1.156h1.3823c1.5913 0 3.0572-3.6664 3.0572-3.6664z"
       fill="#c00"
       stroke-linejoin="round"
       stroke-width=".34912" />
    <path
       id="path2837"
       d="m166.16 143.65s1.2093 3.3831 2.551 3.3831h1.5523c0.35758 0.64518 1.2213 1.0682 2.1818 1.0685 0.96034-4.5e-4 1.8238-0.4234 2.1814-1.0685h1.2777c1.4708 0 2.8257-3.3888 2.8257-3.3888"
       clip-path="url(#clipPath27143)"
       fill="none"
       stroke="#fce94f"
       stroke-linejoin="round"
       stroke-width=".223" />
  </g>
  <g
     id="g4808"
     transform="matrix(.06271 0 0 -.06271 66.919 334.68)"
     fill="#ea2323"
     stroke="#fce94f">
    <g
       stroke-width="17.078"
       id="g35">
      <path
         id="path4730"
         d="m3873.4 4604.3c-2-7-14-47-25-88-106-373-293-705-508-904-29-27-51-53-50-58 2-4 50-46 107-93l105-86 58 58c32 31 58 53 58 48 0-16 98 87 104 109 3 14-5 9-27-19-89-110-91-101-3 14 32 41 76 106 98 143s44 66 48 63c5-3 12 0 16 6 4 8 3 9-4 5-18-11-17-8 44 107l55 107h629v-393l-840 10v-747h-389l-3-126c-2-69-1-128 1-130s280-4 618-4c337 0 612-3 612-7-1-5-1-210 0-456l1-448 138 3 137 3 5 440c3 242 7 420 8 395 3-44 3-44 15-18 7 15 25 37 42 50l30 23-40 6c-22 3 203 7 499 8l539 1-6 98c-4 53-7 112-7 130v32h-1080l1 228c1 126 5 209 9 187s8-33 9-26c2 20 51 71 70 72 9 1 3 5-14 9-16 4 123 8 310 9s357 4 378 7l37 7v247h-317c-175 0-355 3-400 7l-83 6 2 181c1 114 4 162 8 131 4-27 8-42 8-33 1 10 18 33 37 52l35 35-48 4c-26 2 171 4 437 5l484 2-6 98c-4 53-7 112-7 130v32h-1759l19 65c10 36 22 90 25 120l7 55-103 50c-114 55-118 56-124 38zm153-1334c2 24 50 75 71 77 9 1-2 5-24 9s82 8 232 9l272 1 2-480h-571l2 243c1 142 4 217 8 182 4-33 7-51 8-41z" />
      <path
         id="path4732"
         d="m7968.4 4336.3v-270h-550v-247l92-7c50-3 172-6 271-6h180l-6-252c-4-139-10-274-13-300l-7-48h-687v-260h629l-26-92c-47-173-113-325-193-443s-284-300-482-430l-76-49 85-96c47-52 91-101 98-108 10-11 24-5 79 33 37 25 71 43 75 41 34-21 333 257 430 399 8 11-3 0-24-25-107-127-405-397-405-367 0 2 37 32 83 68 97 75 245 221 306 301 24 32 47 56 53 55 5-1 17 9 25 23l15 25-21-25c-31-38-25-17 13 42 45 71 116 215 154 313 17 44 40 105 52 135 18 48 21 37 4-17-3-10 5 0 17 22s25 41 30 43 6 18 3 35c-2 18 11-11 29-63 146-414 333-689 615-907 109-84 251-170 260-156 4 5 45 55 91 112 45 56 81 104 80 105-2 1-46 27-98 56-262 149-469 372-595 642-49 105-102 256-92 265 3 4 6 0 6-7s9-1 20 13 31 29 43 34c17 6 8 9-38 14-33 3 99 6 293 7l352 2v260h-250v303c0 166-3 359-7 430l-6 127h-637v540h-270zm634-567c3-21 6-156 6-300v-263h-392l7 88c4 48 11 175 15 282s8 177 9 155c1-35 3-38 13-20 21 39 62 75 87 77 14 1-5 4-44 8-50 5-19 7 111 8l181 2zm-444-910c-11-17-11-17-6 0 3 10 6 24 7 30 0 9 2 9 5 0 3-7 0-20-6-30zm-13-45c-3-8-6-5-6 6-1 11 2 17 5 13 3-3 4-12 1-19z" />
      <path
         id="path4734"
         d="m2393.4 4526.3c-226-109-461-183-707-222l-138-23v-653c0-770-9-887-85-1167-36-131-44-150-52-127-3 8-33 50-66 95-67 88-181 205-258 264-35 27-45 39-36 46 8 6 6 7-6 3-11-3-24-3-30 1-7 5 76 10 183 13l195 5 4 25c1 14 0 71-4 128l-7 102h-508l1 118c1 65 5 101 8 81l6-35 36 38c26 28 31 38 20 39-63 6 132 17 305 18 116 1 213 3 215 5s3 61 1 130l-3 126h-160c-87 0-159 2-159 4s16 39 37 82c50 110 114 287 105 295-4 4-50 23-102 43l-95 35 178 1h177v260l-272 1c-150 1-276 1-280 0-5 0-8 69-8 154v155h-280v-310h-591l3-127 3-128 173-5 172-5-85-35c-46-19-85-38-85-42 0-5 20-35 44-67 51-70 117-188 146-260l20-51h-420v-260h620v-260h-540v-247l61-7c34-3 118-6 186-6h123l-19-37c-72-143-273-354-439-465l-54-36 194-202 32 22c17 12 57 43 88 70 63 53 84 63 48 21-14-16 26 21 88 82 62 60 112 112 112 114 0 3-11-6-25-19s-25-19-25-13c0 11 50 61 54 53 1-3 26 16 55 42 37 34 52 53 49 69-2 17-11 9-46-41-24-34-46-59-49-57-2 3 21 37 51 77l56 72v-772h270l2 407 3 407 106-104c93-93 229-271 229-301 0-19 20-7 103 67l87 75-51-108c-27-59-75-145-106-191-30-46-53-84-52-86 2-1 54-37 116-79l112-77 65 98c125 188 227 437 276 672 36 177 50 332 52 595 0 138 3 235 5 218 2-18 7-33 10-33s23 15 44 34c35 32 36 35 16 39-12 2 38 5 111 6l132 1v-1640h270l2 823c1 452 4 791 8 752 4-38 7-58 8-43 2 31 46 87 70 89 10 1 1 5-18 9-22 5 19 8 115 10 173 3 172 3 180 11 3 3 2 62-1 130l-7 124-311-3c-171-2-384 0-473 3l-163 7v209c0 193 1 209 18 208 10 0 12-3 5-6-8-3-13-22-13-46l1-42 20 25c11 14 29 35 40 48l19 22-28 1c-15 1 11 10 58 21 140 33 289 76 403 119 59 22 112 37 119 33 6-4 8-3 5 3-3 5 34 29 82 53 48 23 98 51 111 60l24 18-57 73c-31 41-69 88-84 105l-28 32zm-1382-617c-29-105-86-260-119-325l-24-48h-187l-28 78c-51 145-161 342-209 374-6 4 125 8 290 8h302zm-43-1156c0-2-15-14-32-27-29-21-31-21-15-2 19 20 18 21-15 25-26 3-24 4 15 5 26 1 47 1 47-1zm-77-37c3-11 1-23-4-26s-9 6-9 20c0 31 6 34 13 6zm-453-433c0-1-30-32-67-67l-68-65 65 68c60 62 70 72 70 64z" />
      <path
         id="path4736"
         d="m6816.4 4247.3-3-319-240 76-17-131c-28-230-79-406-170-587-31-63-54-118-50-122 9-8 212-98 222-98 13 0 100 165 139 265 66 166 99 308 110 473 5 60 9-382 10-990l1-1098 100-2c55-1 112-2 128-2l27-1 10 2090 38-67c51-90 102-227 132-349 13-56 26-103 28-105 1-2 27 4 57 12 184 52 190 55 190 74 0 41-61 253-98 338-42 98-165 292-185 292-7 0-47-11-89-24l-78-24v618h-260z" />
      <path
         id="path4738"
         d="m3906.4 3911.3c-26-52-46-95-44-95s19 26 36 57c33 58 59 85 114 115l31 17h-45l-45 1z" />
      <path
         id="path4740"
         d="m1176.4 3979.3c7-3 16-2 19 1 4 3-2 6-13 5-11 0-14-3-6-6z" />
      <path
         id="path4744"
         d="m7089.4 3731.3c0-22 3-34 6-27 2 6 9 10 14 6 13-8 11 7-6 36-14 25-14 25-14-15z" />
      <path
         id="path4746"
         d="m3785.4 3701.3c-27-42-32-55-20-55 9 0 14 3 10 6-3 3 4 23 17 43 34 55 37 61 33 61-2 0-20-25-40-55z" />
      <path
         id="path4748"
         d="m6799.4 3640.3c0-11 3-14 6-6 3 7 2 16-1 19-3 4-6-2-5-13z" />
      <path
         id="path4752"
         d="m1163.4 3556.3c-3-5 1-10 10-10s13 5 10 10c-3 6-8 10-10 10s-7-4-10-10z" />
    </g>
    <path
       id="path4754"
       d="m10801 3227.6-787.27-14.9 151.64 581.56s569.3-9.2465 873.26 34.576c388.8 56.053 1073.9 335.51 1073.9 335.51l-69.197 383.54s-645.79-353.5-1030.6-406.34-1089.6-34.601-1089.6-34.601l-276.56-1178.6h844.69l-24.991-22.569c-50.981-46.266-207.92-152.34-314.88-212.15-149.94-84.633-333.88-161.37-494.82-206.51-73.972-21.44-135.95-38.367-137.95-39.496-1.9992-1.1284 121.95-246 132.95-261.8 1.9993-2.2569 46.982 9.0275 100.96 24.826 104.96 30.468 240.91 83.505 366.86 142.18 41.985 19.184 629.77 441.22 652.76 464.92l40.985 44.009 5.997-103.82c3.999-57.551 6.998-256.16 6.998-441.22l1.476-461.32-457.62-7.636 2.627-255.46 529.26 5.6406s133.12-9.9052 173.75 13.016c35.271 19.898 24.264 87.47 24.264 87.47l-3.853 705.18c2.999 230.2 6.998 394.96 7.997 366.74 1.999-28.211 5.998-42.881 8.997-33.853 2.999 9.0275 11.995 24.826 19.992 36.11 9.997 12.413 10.996 20.312 3.999 25.954-5.998 3.3854-10.996 12.413-10.996 18.055s27.99-15.798 62.977-48.523c275.9-264.06 613.77-457.02 966.64-551.81 46.983-12.413 89.966-24.826 96.964-27.083 5.998-2.2569 22.991 16.927 35.986 42.881 56.979 112.84 100.96 211.02 95.965 216.66-2.999 3.3853-61.977 22.569-129.95 44.009-263.9 82.376-537.8 211.02-700.74 332.89-42.984 31.596-77.97 59.807-77.97 63.193 0 3.3853 7.997 1.1284 17.993-4.5138 13.995-7.8991 20.992-5.6422 29.989 11.284 10.996 20.312 8.996 21.44-28.99 21.44-28.989 0-37.985-3.3853-32.987-13.541 4.998-9.0275 0-7.8991-10.996 2.2569-15.994 14.67 25.99 16.927 392.85 20.312l411.85 2.2569v293.4h-583.78l-536.1-1.4752-53.126 408.03-256.08-6.1538z"
       stroke-width="18.138" />
    <g
       stroke-width="17.078"
       id="g43">
      <path
         id="path4756"
         d="m8040.4 2521.3c-17-37-14-45 4-12 9 16 14 31 11 33-2 2-9-7-15-21z" />
      <path
         id="path4758"
         d="m888.38 2481.3c0-27 1-46 3-44 34 46 36 57 17 74-20 18-20 17-20-30z" />
      <path
         id="path4762"
         d="m7957.4 2354.3c-7-13-19-34-27-48-14-24-13-24 3-5 20 24 48 75 41 75-3 0-11-10-17-22z" />
      <path
         id="path4764"
         d="m1654.4 2121.3c-9-26-7-32 5-12 6 10 9 21 6 23-2 3-7-2-11-11z" />
      <path
         id="path4766"
         d="m1577.4 1964.3c-6-13-23-43-37-68s-21-40-15-35c15 14 76 125 69 125-3 0-11-10-17-22z" />
    </g>
  </g>
</svg>
