<?xml version="1.0" encoding="UTF-8" standalone="no"?>
<svg
   id="svg29"
   version="1.1"
   viewBox="0 0 1280 800"
   sodipodi:docname="pride.svg"
   xml:space="preserve"
   inkscape:version="1.2.2 (732a01da63, 2022-12-09)"
   xmlns:inkscape="http://www.inkscape.org/namespaces/inkscape"
   xmlns:sodipodi="http://sodipodi.sourceforge.net/DTD/sodipodi-0.dtd"
   xmlns:xlink="http://www.w3.org/1999/xlink"
   xmlns="http://www.w3.org/2000/svg"
   xmlns:svg="http://www.w3.org/2000/svg"><sodipodi:namedview
     id="namedview7787"
     pagecolor="#ffffff"
     bordercolor="#111111"
     borderopacity="1"
     inkscape:showpageshadow="0"
     inkscape:pageopacity="0"
     inkscape:pagecheckerboard="1"
     inkscape:deskcolor="#d1d1d1"
     showgrid="false"
     inkscape:zoom="3.821875"
     inkscape:cx="518.33197"
     inkscape:cy="611.21832"
     inkscape:window-width="1920"
     inkscape:window-height="1009"
     inkscape:window-x="-8"
     inkscape:window-y="-8"
     inkscape:window-maximized="1"
     inkscape:current-layer="svg29" /><defs
     id="defs33"><pattern
       inkscape:collect="always"
       xlink:href="#pattern12103"
       id="pattern13657"
       patternTransform="matrix(0.36219399,0,0,0.16092469,252.78774,598.9566)" /><pattern
       inkscape:collect="always"
       xlink:href="#pattern12103"
       id="pattern12124"
       patternTransform="rotate(1.1575076e-4,-114245660,-6200488.9)" /><linearGradient
       id="linearGradient8947"
       x1="44.404"
       x2="1324.4"
       y1="472.79"
       y2="472.79"
       gradientUnits="userSpaceOnUse"><stop
         id="stop8941"
         stop-color="#c957e6"
         offset="0" /><stop
         id="stop8943"
         stop-color="#1a9fff"
         offset="1" /></linearGradient><pattern
       patternUnits="userSpaceOnUse"
       width="1279.9397"
       height="203.31536"
       patternTransform="translate(0.03222386,155.71866)"
       id="pattern12103"><g
         id="g11731"
         transform="scale(2.0068042,0.47816859)"
         style="stroke-width:1.02084"><rect
           id="rect8806"
           style="fill:#980098;stroke-width:1.02084"
           height="70.865997"
           width="637.79999"
           y="354.32999"
           x="1.2495e-05" /><rect
           id="rect8807"
           style="fill:#0000ff;stroke-width:1.02084"
           height="70.865997"
           width="637.79999"
           y="283.45999"
           x="1.2495e-05" /><rect
           id="rect9429"
           style="fill:#009800;stroke-width:1.02084"
           height="70.865997"
           width="637.79999"
           y="212.60001"
           x="1.2495e-05" /><rect
           id="rect10051"
           style="fill:#ffff00;stroke-width:1.02084"
           height="70.865997"
           width="637.79999"
           y="141.73"
           x="1.2495e-05" /><rect
           id="rect10673"
           style="fill:#ff9800;stroke-width:1.02084"
           height="70.865997"
           width="637.79999"
           y="70.865997"
           x="0" /><rect
           id="rect11295"
           style="fill:#ff0000;stroke-width:1.02084"
           height="70.865997"
           width="637.79999"
           y="0"
           x="1.2495e-05" /></g></pattern></defs><linearGradient
     id="_Linear1"
     x2="1"
     gradientTransform="matrix(282.08 0 0 150 0 75)"
     gradientUnits="userSpaceOnUse"><stop
       id="stop2"
       stop-color="#c957e6"
       offset="0" /><stop
       id="stop4"
       stop-color="#c957e6"
       offset=".01" /><stop
       id="stop6"
       stop-color="#1a9fff"
       offset=".9" /><stop
       id="stop8"
       stop-color="#1a9fff"
       offset="1" /></linearGradient><g
     id="DECK"
     transform="matrix(.47693 0 0 .47693 1.1014e-13 161.54)"><path
       id="path20"
       d="m1650 476.92h78.84v204.66l270.54-204.8h117.86l-163.89 124.06 180.62 254.2-97.06-0.27-146.34-206.28-161.73 122.58v83.835h-78.84v-378zm-512.74 37.395c12.06-12.06 25.4-21.285 40.03-27.675 14.62-6.39 30.53-9.585 47.72-9.585h360.18v72.225h-360.18c-6.39 0-12.4 1.192-18.02 3.577-5.63 2.385-10.53 5.67-14.72 9.855-4.18 4.185-7.47 9.09-9.85 14.715-2.39 5.625-3.58 11.633-3.58 18.023v141.21c0 5.94 1.3 11.677 3.92 17.212 2.61 5.535 6.05 10.44 10.32 14.715 4.28 4.275 9.18 7.718 14.72 10.328 5.53 2.61 11.27 3.915 17.21 3.915h360.18v72.225h-360.18c-8.55 0-16.85-0.9-24.91-2.7-8.05-1.8-15.79-4.343-23.22-7.628-7.42-3.285-14.47-7.222-21.12-11.812-6.66-4.59-12.83-9.63-18.5-15.12-11.79-11.43-20.95-24.593-27.47-39.488-6.53-14.895-9.79-30.982-9.79-48.262v-127.98c0-17.28 3.19-33.21 9.59-47.79 6.39-14.58 15.61-27.9 27.67-39.96zm-587.26 297.4v-291.33c0-6.48 1.035-12.375 3.105-17.685s5.018-9.878 8.842-13.703c3.826-3.825 8.393-6.772 13.703-8.842s11.205-3.105 17.685-3.105h440.36v72.225h-404.72v76.545h355.59v72.225h-355.59v84.78h404.72v72.225h-440.36c-6.48 0-12.375-1.035-17.685-3.105s-9.877-5.018-13.703-8.843c-3.824-3.825-6.772-8.392-8.842-13.702s-3.105-11.205-3.105-17.685zm-102.07 151.02c-12.06 12.06-25.403 21.285-40.028 27.675s-30.532 9.585-47.722 9.585h-281.2v-72.225h281.2c6.39 0 12.397-1.192 18.022-3.578 5.625-2.384 10.53-5.67 14.715-9.855s7.47-9.089 9.855-14.715c2.385-5.624 3.578-11.632 3.578-18.022v-286.15c0-5.94-1.305-11.678-3.915-17.213s-6.053-10.44-10.328-14.715-9.18-7.717-14.715-10.327-11.272-3.915-17.212-3.915h-281.2v-72.225h281.2c8.55 0 16.852 0.9 24.907 2.7s15.795 4.342 23.22 7.627 14.468 7.223 21.128 11.813 12.825 9.63 18.495 15.12c11.79 11.43 20.947 24.592 27.472 39.487s9.788 30.983 9.788 48.263v272.92c0 17.28-3.195 33.21-9.585 47.79s-15.615 27.9-27.675 39.96z"
       fill="#fff" /></g><g
     id="Gamepad"
     transform="matrix(.47693 0 0 .47693 1.1098e-13 477.99)"><path
       id="path23"
       d="m282.08 100c0 27.596-22.404 50-50 50h-182.08c-27.596 0-50-22.404-50-50v-50c0-27.596 22.404-50 50-50h182.08c27.596 0 50 22.404 50 50zm-240.67-39.201h-12.702c-5.406 0-9.794 4.389-9.794 9.794v9.794c0 5.405 4.388 9.793 9.794 9.793h12.702v12.036c0 5.519 4.481 10 10 10h10c5.52 0 10-4.481 10-10v-12.036h12.71c5.406 0 9.794-4.388 9.794-9.793v-9.794c0-5.405-4.388-9.794-9.794-9.794h-12.71v-12.036c0-5.519-4.48-10-10-10h-10c-5.519 0-10 4.481-10 10zm146.75-3.672c0 10.134 8.402 18.363 18.75 18.363s18.75-8.229 18.75-18.363c0-10.135-8.402-18.364-18.75-18.364s-18.75 8.229-18.75 18.364zm37.5 36.726c0 10.135 8.402 18.363 18.75 18.363s18.75-8.228 18.75-18.363-8.402-18.363-18.75-18.363-18.75 8.228-18.75 18.363z"
       fill="url(#_Linear1)"
       style="fill:url(#pattern12103);fill-opacity:1.0" /></g><g
     id="RETRO"
     transform="matrix(.47693 0 0 .47693 1.1014e-13 161.54)"><g
       id="text750"
       transform="matrix(2.0967,0,0,2.0967,-93.103,-496.13)"
       fill="#008000"
       stroke-linecap="round"
       stroke-linejoin="round"
       stroke-width="2.315"
       style="white-space:pre;shape-inside:url(#rect752);fill:url(#pattern12124);fill-opacity:1;paint-order:fill markers stroke"
       aria-label="Powered by ES-DE Frontend"><path
         id="path8936"
         d="m 1111.4106,399.12877 c -5.623,-5.4513 -9.9916,-11.729 -13.101,-18.833 -3.1144,-7.1039 -4.6691,-14.776 -4.6691,-23.018 v -61.037 c 0,-8.2413 1.5261,-15.839 4.5737,-22.792 3.0428,-6.9536 7.4449,-13.306 13.197,-19.058 5.7518,-5.7518 12.114,-10.151 19.092,-13.199 6.9727,-3.0476 14.561,-4.5714 22.759,-4.5714 h 111.52 c 8.1984,0 15.786,1.5238 22.759,4.5714 6.9775,3.0476 13.34,7.4472 19.092,13.199 5.7518,5.7518 10.154,12.104 13.201,19.058 3.0428,6.9536 4.569,14.551 4.569,22.792 v 61.037 c 0,8.2413 -1.5548,15.914 -4.6691,23.018 -3.1096,7.1039 -7.4783,13.382 -13.101,18.833 -2.7042,2.6183 -5.6468,5.0221 -8.8184,7.2112 -3.1764,2.1891 -6.5387,4.0668 -10.078,5.6335 -3.5436,1.5667 -7.235,2.7796 -11.074,3.638 -3.8441,0.85847 -7.8026,1.2877 -11.88,1.2877 h -111.52 c -4.0778,0 -8.0363,-0.42924 -11.88,-1.2877 -3.8393,-0.85847 -7.5307,-2.0713 -11.074,-3.638 -3.5388,-1.5667 -6.9012,-3.4444 -10.073,-5.6335 -3.1763,-2.1891 -6.119,-4.5928 -8.8232,-7.2112 z m 19.831,-38.696 c 0,2.833 0.62,5.5691 1.8695,8.2089 1.2448,2.6398 2.8854,4.9791 4.9219,7.018 2.0413,2.0389 4.3782,3.6809 7.0204,4.9257 2.6374,1.2448 5.375,1.8672 8.208,1.8672 h 111.52 c 2.8329,0 5.5705,-0.62239 8.2079,-1.8672 2.6422,-1.2448 4.9792,-2.8868 7.0204,-4.9257 2.0365,-2.0389 3.6771,-4.3782 4.9267,-7.018 1.2448,-2.6398 1.8648,-5.3759 1.8648,-8.2089 v -67.347 c 0,-3.0476 -0.5675,-5.913 -1.7074,-8.5952 -1.1351,-2.6832 -2.7042,-5.0221 -4.6978,-7.018 -1.9983,-1.996 -4.3352,-3.5631 -7.0204,-4.7001 -2.6803,-1.138 -5.5466,-1.7064 -8.5942,-1.7064 h -111.52 c -3.0476,0 -5.9139,0.56849 -8.5943,1.7064 -2.6851,1.137 -5.0221,2.7042 -7.0204,4.7001 -1.9935,1.996 -3.5626,4.3348 -4.6977,7.018 -1.1399,2.6822 -1.7074,5.5476 -1.7074,8.5952 z m -279.24,-123.81 h 160.77 c 6.0522,0 11.58,0.7297 16.578,2.1891 5.003,1.4594 9.51,3.4554 13.521,5.9878 4.0157,2.5325 7.5116,5.5371 10.497,9.014 2.9808,3.4768 5.4608,7.2431 7.4353,11.3 1.9745,4.0558 3.4577,8.3052 4.4402,12.748 0.992,4.4431 1.4594,8.9176 1.4213,13.425 0,4.5928 -0.496,9.1427 -1.4833,13.65 -0.9872,4.507 -2.4705,8.7884 -4.4402,12.845 -1.9745,4.0563 -4.4545,7.8016 -7.4401,11.236 -2.9808,3.4339 -6.4672,6.4061 -10.464,8.9171 -3.9871,2.511 -8.4846,4.475 -13.488,5.8915 -4.9982,1.4165 -10.526,2.1247 -16.578,2.1247 h -0.7107 l 57.952,70.953 h -46.682 l -57.947,-70.953 h -96.383 v 70.953 h -37.606 l -0.062,-159.61 c 0,-3.0905 0.49601,-5.902 1.4832,-8.4345 0.98248,-2.5325 2.3894,-4.7111 4.2161,-6.5349 1.8219,-1.8247 4.0014,-3.2302 6.5339,-4.2175 2.5325,-0.98724 5.3464,-1.4809 8.4369,-1.4809 z m 160.06,74.88 c 2.7948,0 5.2367,-0.57947 7.3447,-1.7384 2.0985,-1.1589 3.8584,-2.6827 5.2797,-4.5714 1.4164,-1.8886 2.4752,-4.0458 3.1858,-6.471 0.7059,-2.4252 1.0731,-4.9038 1.0922,-7.4363 0.024,-2.5325 -0.31,-5.0116 -0.9968,-7.4368 -0.6867,-2.4252 -1.7265,-4.5819 -3.1239,-6.4705 -1.3926,-1.8886 -3.1525,-3.4124 -5.2796,-4.5714 -2.1223,-1.1589 -4.6214,-1.7384 -7.5021,-1.7384 h -143.06 v 40.434 z m -443.04,-40.434 v -34.446 h 230.76 v 34.446 h -96.511 v 145.83 h -37.668 v -145.83 z m -262.31,125.17 v -138.94 c 0,-3.0905 0.49362,-5.902 1.4809,-8.4345 0.98725,-2.5325 2.3932,-4.7111 4.217,-6.5354 1.8247,-1.8242 4.0029,-3.2298 6.5354,-4.217 2.5325,-0.98724 5.344,-1.4809 8.4345,-1.4809 h 210.02 v 34.446 h -193.03 v 36.507 h 169.59 v 34.446 h -169.59 v 40.434 h 193.03 v 34.446 h -210.02 c -3.0905,0 -5.902,-0.49362 -8.4345,-1.4809 -2.5325,-0.98724 -4.7106,-2.3932 -6.5354,-4.2175 -1.8238,-1.8242 -3.2298,-4.0024 -4.217,-6.5349 -0.98724,-2.5325 -1.4809,-5.344 -1.4809,-8.4345 z m -241.64,-159.61 h 160.77 c 6.0522,0 11.579,0.7297 16.579,2.1891 5.0011,1.4594 9.5081,3.4554 13.521,5.9878 4.0138,2.5325 7.5121,5.5371 10.495,9.014 2.9837,3.4768 5.4623,7.2431 7.4368,11.299 1.9745,4.0559 3.4554,8.3057 4.4426,12.748 0.98724,4.4426 1.4594,8.9176 1.4165,13.425 0,4.5928 -0.49362,9.1427 -1.4809,13.65 -0.98724,4.507 -2.4681,8.7884 -4.4426,12.845 -1.9745,4.0563 -4.4531,7.8016 -7.4368,11.236 -2.9827,3.4339 -6.4705,6.4061 -10.462,8.9171 -3.9915,2.511 -8.4879,4.475 -13.489,5.8915 -5.0001,1.4165 -10.527,2.1247 -16.579,2.1247 h -0.70824 l 57.947,70.953 h -46.679 l -57.947,-70.953 h -96.385 v 70.953 h -37.601 l -0.06439,-159.61 c 0,-3.0905 0.49362,-5.902 1.4809,-8.4345 0.98724,-2.5325 2.3932,-4.7111 4.217,-6.5354 1.8247,-1.8242 4.0029,-3.2298 6.5354,-4.217 2.5325,-0.98724 5.344,-1.4809 8.4345,-1.4809 z m 160.06,74.88 c 2.79,0 5.2367,-0.57947 7.3399,-1.7384 2.1032,-1.15893 3.8631,-2.6827 5.2796,-4.5714 1.4165,-1.8886 2.4786,-4.0458 3.1868,-6.471 0.70824,-2.4252 1.0736,-4.9038 1.0946,-7.4363 0.0219,-2.5325 -0.31096,-5.0116 -0.99774,-7.4368 -0.68677,-2.4252 -1.7274,-4.5819 -3.1229,-6.4705 -1.3945,-1.8886 -3.1549,-3.4124 -5.2796,-4.5714 -2.1247,-1.159 -4.6248,-1.7384 -7.5007,-1.7384 h -143.06 v 40.434 z"
         fill="url(#linearGradient8947)"
         style="fill:url(#pattern12124);fill-opacity:1"
         sodipodi:nodetypes="ccsscscsscscsscccccsscccccscccsscccsscccsscccsscsccccccsccccsccccccccccscccccccsccscccccccccccccsscssccccccccccsscssccscccsscsccscsccccccccccccccssscscssccc" /></g></g><path
     d="m 636.53061,629.88498 v -31.0197 h 20.97812 v 5.91645 h -13.22844 v 5.43727 h 12.18748 v 5.91646 h -12.18748 v 7.83297 h 13.22844 v 5.91645 z m -4.604,-15.47835 c 0,2.88878 -0.63192,5.47897 -1.89572,7.77047 -1.26386,2.27771 -2.86098,4.02764 -4.7915,5.24978 -1.61104,1.04166 -3.36796,1.71524 -5.27058,2.02072 -1.88884,0.29166 -3.90264,0.43748 -6.04146,0.43748 h -9.7079 v -31.0197 h 9.6246 c 2.18052,0 4.22204,0.13888 6.12476,0.41665 1.90272,0.27777 3.68734,0.95135 5.35396,2.02072 2.04162,1.30554 3.65266,3.06927 4.8331,5.29148 1.18056,2.2082 1.77074,4.8123 1.77074,7.81217 z m -7.99968,-0.0625 c 0,-2.04161 -0.35415,-3.78454 -1.06245,-5.22898 -0.69441,-1.45824 -1.77073,-2.59709 -3.22907,-3.41655 -1.05556,-0.58331 -2.1666,-0.90275 -3.33316,-0.95829 -1.15274,-0.0555 -2.5346,-0.0833 -4.14562,-0.0833 h -0.14583 v 19.41618 h 0.14583 c 1.74992,0 3.22206,-0.0278 4.41652,-0.0833 1.20824,-0.0694 2.3541,-0.44442 3.43734,-1.12495 1.27776,-0.80552 2.24992,-1.91662 2.91658,-3.33316 0.66668,-1.41654 0.99996,-3.14568 0.99996,-5.18729 z m -25.20694,4.74981 h -13.81242 v -5.79146 h 13.81242 z m -30.33174,11.35352 c -2.3749,0 -4.4651,-0.22916 -6.27054,-0.68747 -1.79162,-0.45831 -3.45815,-1.02776 -4.99978,-1.70823 v -7.37469 h 0.70829 c 1.55554,1.31934 3.27066,2.3332 5.14559,3.04157 1.87493,0.70837 3.69425,1.06246 5.45807,1.06246 0.44442,0 1.02776,-0.0486 1.74992,-0.14583 0.73609,-0.0972 1.32636,-0.24999 1.77074,-0.45832 0.54165,-0.2361 0.99996,-0.56247 1.37494,-0.97912 0.37498,-0.43054 0.56248,-0.99302 0.56248,-1.68742 0,-0.77775 -0.30555,-1.40965 -0.91662,-1.89573 -0.61109,-0.48608 -1.34026,-0.84025 -2.18742,-1.06245 -1.05556,-0.27777 -2.1874,-0.54165 -3.39566,-0.79164 -1.19434,-0.24999 -2.3124,-0.55554 -3.35406,-0.91663 -2.4027,-0.84719 -4.12482,-1.98602 -5.16648,-3.41656 -1.04166,-1.43054 -1.56244,-3.22207 -1.56244,-5.37477 0,-2.90268 1.22916,-5.24978 3.68736,-7.04141 2.45819,-1.80553 5.52756,-2.70819 9.2079,-2.70819 1.84714,0 3.68046,0.1875 5.49978,0.56248 1.83322,0.37498 3.47206,0.88191 4.9165,1.52074 v 7.083 h -0.68749 c -1.15274,-0.98607 -2.5624,-1.81932 -4.22902,-2.4999 -1.65274,-0.68053 -3.35406,-1.02076 -5.10398,-1.02076 -0.68053,0 -1.29166,0.0486 -1.83324,0.14583 -0.54163,0.0972 -1.11104,0.28472 -1.70822,0.56249 -0.48609,0.2222 -0.90968,0.55553 -1.27074,0.99996 -0.34722,0.43053 -0.52081,0.91662 -0.52081,1.45824 0,0.79163 0.27776,1.42354 0.83329,1.89572 0.56943,0.45831 1.65964,0.87496 3.27066,1.24994 1.04166,0.2361 2.04162,0.46525 2.99988,0.68748 0.97218,0.2222 2.00682,0.52774 3.10406,0.91662 2.15272,0.77774 3.74986,1.82632 4.7915,3.14566 1.05556,1.30555 1.58324,3.03458 1.58324,5.18729 0,3.08317 -1.21524,5.56227 -3.64564,7.43719 -2.4166,1.87492 -5.68726,2.81238 -9.8121,2.81238 z m -35.8315,-0.56248 v -31.0197 h 20.97812 v 5.91645 h -13.22844 v 5.43727 h 12.18748 v 5.91646 h -12.18748 v 7.83297 h 13.22844 v 5.91645 z m -15.64534,-23.39502 -11.81252,31.97766 h -7.83296 l 3.54154,-9.14542 -8.58294,-22.83204 h 7.66638 l 4.9165,14.66639 4.604,-14.66639 z m -33.31162,11.52052 c 0,-2.3332 -0.35415,-3.99984 -1.06246,-4.99979 -0.70829,-0.99996 -1.79852,-1.49994 -3.27066,-1.49994 -0.65273,0 -1.30554,0.10416 -1.95822,0.31249 -0.63885,0.20832 -1.27074,0.52081 -1.89572,0.93746 v 11.74951 c 0.48609,0.19443 0.97219,0.32637 1.45824,0.39581 0.49998,0.0695 0.99302,0.10416 1.47914,0.10416 1.76382,0 3.07628,-0.5833 3.93734,-1.74992 0.87496,-1.16665 1.31244,-2.91658 1.31244,-5.24978 z m 7.458,-0.14583 c 0,3.72205 -0.94441,6.73582 -2.83319,9.04133 -1.88883,2.2916 -4.22903,3.43735 -7.02051,3.43735 -1.16664,0 -2.1805,-0.13193 -3.04157,-0.39581 -0.86107,-0.26388 -1.77773,-0.67358 -2.74989,-1.22915 l -0.31248,1.16665 h -6.97892 v -32.41564 h 7.2914 v 11.45752 c 1.06936,-0.91663 2.15962,-1.65964 3.27066,-2.22911 1.11106,-0.56941 2.3957,-0.85413 3.85404,-0.85413 2.7221,0 4.8192,1.06246 6.29144,3.18738 1.48604,2.1249 2.22912,5.06918 2.22912,8.83292 z m -41.0193,12.0205 h -7.2914 v -2.4374 c -0.47221,0.38888 -1.01384,0.80552 -1.62492,1.24996 -0.59721,0.44443 -1.12496,0.77774 -1.58324,0.99995 -0.58331,0.27777 -1.15964,0.48609 -1.72912,0.62497 -0.56942,0.13889 -1.24996,0.20833 -2.04162,0.20833 -2.66658,0 -4.7776,-1.10416 -6.33304,-3.31236 -1.55554,-2.20822 -2.3332,-5.15949 -2.3332,-8.85384 0,-2.04161 0.26389,-3.81234 0.79163,-5.31228 0.52776,-1.49993 1.25696,-2.80548 2.18742,-3.91653 0.84719,-1.01386 1.87492,-1.81243 3.08316,-2.3957 1.20826,-0.59719 2.486,-0.8958 3.83314,-0.8958 1.22216,0 2.22212,0.13194 2.99988,0.39582 0.79164,0.24999 1.70824,0.6458 2.74988,1.18745 v -9.95788 h 7.2914 z m -7.2914,-6.45802 V 611.9486 c -0.36109,-0.18055 -0.8333,-0.32638 -1.41664,-0.43748 -0.58329,-0.12499 -1.08324,-0.18749 -1.49993,-0.18749 -1.74993,0 -3.06927,0.61108 -3.95813,1.83322 -0.87496,1.22215 -1.31245,2.93048 -1.31245,5.12479 0,2.3055 0.34721,3.97203 1.04165,4.99979 0.70831,1.02776 1.84712,1.54164 3.41656,1.54164 0.63887,0 1.28466,-0.125 1.93742,-0.37499 0.65278,-0.24999 1.24996,-0.59025 1.79162,-1.02075 z m -27.33186,7.083 c -4.4165,0 -7.80526,-1.05556 -10.16656,-3.16657 -2.3471,-2.11101 -3.52066,-5.11789 -3.52066,-9.02043 0,-3.81924 1.09716,-6.86781 3.29156,-9.14541 2.19442,-2.27761 5.26368,-3.41656 9.20792,-3.41656 3.58314,0 6.27754,0.96524 8.08296,2.89568 1.80552,1.93052 2.70818,4.69421 2.70818,8.29135 v 2.6249 h -15.97832 c 0.0694,1.08325 0.29859,1.99301 0.68746,2.72908 0.38888,0.7222 0.90274,1.29854 1.54164,1.72913 0.62498,0.43053 1.35414,0.74302 2.18742,0.93746 0.83329,0.18054 1.74302,0.27082 2.72908,0.27082 0.84719,0 1.68052,-0.0903 2.4999,-0.27082 0.81941,-0.19444 1.56932,-0.44444 2.2499,-0.74997 0.59721,-0.26388 1.14576,-0.54859 1.64573,-0.85413 0.51386,-0.30554 0.93052,-0.57637 1.24995,-0.81247 h 0.77079 v 6.02055 c -0.59718,0.2361 -1.14574,0.45832 -1.64572,0.66664 -0.48609,0.19443 -1.15966,0.39582 -2.02072,0.60413 -0.79163,0.20833 -1.61104,0.36805 -2.4582,0.47915 -0.83329,0.125 -1.85412,0.1875 -3.06238,0.1875 z m 2.4166,-15.33236 c -0.0417,-1.54164 -0.40276,-2.71519 -1.08324,-3.52066 -0.66665,-0.80551 -1.69434,-1.20824 -3.08318,-1.20824 -1.41664,0 -2.5277,0.42359 -3.33316,1.27074 -0.79163,0.84718 -1.22914,1.99992 -1.31244,3.45816 z m -17.18728,-1.79163 h -0.60413 c -0.27778,-0.0972 -0.68054,-0.16666 -1.20826,-0.20833 -0.52776,-0.0555 -1.11106,-0.0833 -1.74992,-0.0833 -0.76387,0 -1.56934,0.11111 -2.4166,0.33333 -0.8333,0.22221 -1.64574,0.48609 -2.4374,0.79163 v 15.66634 h -7.2914 v -23.39502 h 7.2914 v 3.35406 c 0.33331,-0.30554 0.79163,-0.68747 1.37494,-1.14575 0.5972,-0.47221 1.13886,-0.84719 1.62494,-1.12495 0.52774,-0.31943 1.13884,-0.59025 1.83322,-0.81247 0.70829,-0.2361 1.37494,-0.35415 1.99992,-0.35415 0.23609,0 0.49998,0.007 0.79163,0.0208 0.29165,0.0139 0.55554,0.0347 0.79163,0.0625 z m -29.06178,17.12429 c -4.41652,0 -7.80528,-1.05556 -10.16658,-3.16657 -2.3471,-2.11101 -3.52065,-5.11789 -3.52065,-9.02043 0,-3.81924 1.09715,-6.86781 3.29157,-9.14541 2.1944,-2.27761 5.26368,-3.41656 9.2079,-3.41656 3.58316,0 6.27754,0.96524 8.08298,2.89568 1.80552,1.93052 2.70818,4.69421 2.70818,8.29135 v 2.6249 h -15.97834 c 0.0695,1.08325 0.29861,1.99301 0.68748,2.72908 0.38887,0.7222 0.90274,1.29854 1.54164,1.72913 0.62496,0.43053 1.35414,0.74302 2.1874,0.93746 0.83329,0.18054 1.74302,0.27082 2.72908,0.27082 0.84721,0 1.68054,-0.0903 2.4999,-0.27082 0.81941,-0.19444 1.56934,-0.44444 2.2499,-0.74997 0.5972,-0.26388 1.14576,-0.54859 1.64574,-0.85413 0.51387,-0.30554 0.93051,-0.57637 1.24994,-0.81247 h 0.77082 v 6.02055 c -0.59721,0.2361 -1.14576,0.45832 -1.64574,0.66664 -0.48609,0.19443 -1.15964,0.39582 -2.02072,0.60413 -0.79163,0.20833 -1.61102,0.36805 -2.45818,0.47915 -0.83331,0.125 -1.85414,0.1875 -3.06238,0.1875 z m 2.4166,-15.33236 c -0.0417,-1.54164 -0.40276,-2.71519 -1.08326,-3.52066 -0.66663,-0.80551 -1.69432,-1.20824 -3.08316,-1.20824 -1.41664,0 -2.5277,0.42359 -3.33316,1.27074 -0.79165,0.84718 -1.22916,1.99992 -1.31246,3.45816 z m -17.49928,-8.68714 -6.833,23.39502 h -7.74968 l -4.10404,-15.12436 -4.12482,15.12436 h -7.74968 l -6.77052,-23.39502 h 7.66638 l 3.58316,15.47836 4.43732,-15.47836 h 6.43722 l 4.18732,15.47836 3.52066,-15.47836 z m -38.72738,11.70751 c 0,3.84704 -1.05556,6.88171 -3.16656,9.10382 -2.09712,2.20821 -5.0692,3.31237 -8.91634,3.31237 -3.81924,0 -6.7914,-1.10416 -8.91632,-3.31237 -2.11102,-2.22211 -3.16656,-5.25678 -3.16656,-9.10382 0,-3.88873 1.05554,-6.93031 3.16656,-9.12462 2.12492,-2.20821 5.09698,-3.31236 8.91632,-3.31236 3.83314,0 6.80532,1.11105 8.91634,3.33316 2.111,2.20821 3.16656,5.24288 3.16656,9.10382 z m -7.47888,0.0417 c 0,-1.38885 -0.11805,-2.54159 -0.35414,-3.45815 -0.22223,-0.93052 -0.53471,-1.67354 -0.93746,-2.22912 -0.43056,-0.5833 -0.91665,-0.98606 -1.45824,-1.20824 -0.54165,-0.23611 -1.15966,-0.35416 -1.85414,-0.35416 -0.65273,0 -1.24294,0.10417 -1.77072,0.31249 -0.52776,0.19444 -1.01386,0.57637 -1.45824,1.14575 -0.41665,0.54165 -0.74996,1.28465 -0.99996,2.22911 -0.24998,0.9444 -0.37498,2.13181 -0.37498,3.56235 0,1.43054 0.11806,2.59019 0.35415,3.47905 0.23611,0.87497 0.54165,1.57634 0.91663,2.10412 0.38889,0.54165 0.87498,0.93746 1.45824,1.18744 0.58328,0.25 1.22916,0.37499 1.93742,0.37499 0.58331,0 1.17356,-0.12499 1.77074,-0.37499 0.61107,-0.24998 1.09714,-0.62496 1.45824,-1.12494 0.43054,-0.59721 0.75691,-1.31245 0.97913,-2.14572 0.2222,-0.84718 0.33331,-2.01382 0.33331,-3.49985 z m -18.72822,-9.583 c 0,1.44434 -0.22917,2.81928 -0.68748,4.12483 -0.45831,1.30554 -1.11804,2.3957 -1.97911,3.27066 -0.52774,0.54165 -1.11105,1.04166 -1.74993,1.49994 -0.62498,0.45831 -1.31934,0.84718 -2.08321,1.16665 -0.76386,0.31943 -1.59713,0.56941 -2.49989,0.74997 -0.88885,0.18054 -1.88882,0.27081 -2.99988,0.27081 h -4.08313 v 10.14558 h -7.79137 v -31.0197 h 12.0415 c 1.79162,0 3.33316,0.16666 4.6248,0.49998 1.30554,0.31943 2.486,0.8333 3.54156,1.54164 1.16664,0.77774 2.0693,1.81932 2.70818,3.12486 0.63887,1.29165 0.95829,2.83318 0.95829,4.62481 z m -7.99966,0.18749 c 0,-0.87496 -0.20833,-1.62493 -0.62498,-2.2499 -0.41665,-0.63887 -0.91663,-1.07636 -1.49994,-1.31245 -0.73607,-0.31944 -1.44434,-0.49998 -2.12491,-0.54164 -0.66664,-0.0555 -1.57633,-0.0833 -2.72909,-0.0833 h -1.10415 v 9.29131 h 0.54163 c 0.73609,0 1.43054,-0.007 2.08322,-0.0208 0.65276,-0.0139 1.22214,-0.0625 1.70822,-0.14583 0.41667,-0.0694 0.85415,-0.20138 1.31246,-0.39582 0.4722,-0.20832 0.83329,-0.43748 1.08324,-0.68747 0.52776,-0.51387 0.88193,-1.04856 1.06246,-1.60413 0.19445,-0.55553 0.29167,-1.30555 0.29167,-2.24991 z"
     style="fill:url(#pattern13657);fill-opacity:1;stroke-width:0.999979"
     id="path13640" /></svg>
