<?xml version="1.0" encoding="UTF-8" standalone="no"?>
<svg
   viewBox="0 0 1280 800"
   version="1.1"
   id="svg10"
   sodipodi:docname="example-splash.svg"
   inkscape:version="1.4.3 (0d15f75042, 2025-12-25)"
   xml:space="preserve"
   xmlns:inkscape="http://www.inkscape.org/namespaces/inkscape"
   xmlns:sodipodi="http://sodipodi.sourceforge.net/DTD/sodipodi-0.dtd"
   xmlns:xlink="http://www.w3.org/1999/xlink"
   xmlns="http://www.w3.org/2000/svg"
   xmlns:svg="http://www.w3.org/2000/svg"><defs
     id="defs10"><linearGradient
       id="linearGradient26"
       inkscape:collect="always"><stop
         style="stop-color:#e6e6e6;stop-opacity:1;"
         offset="0"
         id="stop26" /><stop
         style="stop-color:#e11d1d;stop-opacity:1;"
         offset="0.65601218"
         id="stop27" /></linearGradient><linearGradient
       id="linearGradient24"
       inkscape:collect="always"><stop
         style="stop-color:#e6e6e6;stop-opacity:1;"
         offset="0.16133942"
         id="stop24" /><stop
         style="stop-color:#e11d1d;stop-opacity:1;"
         offset="0.62404871"
         id="stop25" /></linearGradient><style
       type="text/css"
       id="style1">.fil0 {fill:black}</style><linearGradient
       inkscape:collect="always"
       xlink:href="#linearGradient24"
       id="linearGradient25"
       x1="78.974998"
       y1="738.39447"
       x2="2133.97"
       y2="738.39447"
       gradientUnits="userSpaceOnUse" /><linearGradient
       inkscape:collect="always"
       xlink:href="#linearGradient26"
       id="linearGradient27"
       x1="0"
       y1="499.99898"
       x2="2150.4487"
       y2="499.99898"
       gradientUnits="userSpaceOnUse" /></defs><sodipodi:namedview
     id="namedview10"
     pagecolor="#ffffff"
     bordercolor="#000000"
     borderopacity="0.25"
     inkscape:showpageshadow="2"
     inkscape:pageopacity="0.0"
     inkscape:pagecheckerboard="0"
     inkscape:deskcolor="#d1d1d1"
     inkscape:zoom="1.165"
     inkscape:cx="488.41202"
     inkscape:cy="439.48498"
     inkscape:window-width="3840"
     inkscape:window-height="2082"
     inkscape:window-x="0"
     inkscape:window-y="0"
     inkscape:window-maximized="1"
     inkscape:current-layer="svg10" /><linearGradient
     id="_Linear1"
     x1="0"
     y1="0"
     x2="1"
     y2="0"
     gradientUnits="userSpaceOnUse"
     gradientTransform="matrix(282.082,0,0,150,0,75)"><stop
       offset="0"
       style="stop-color:rgb(201,87,230);stop-opacity:1"
       id="stop1" /><stop
       offset="0.89999998"
       style="stop-color:#e11d1d;stop-opacity:1;"
       id="stop3" /></linearGradient><linearGradient
     id="_Linear2"
     x1="0"
     y1="0"
     x2="1"
     y2="0"
     gradientUnits="userSpaceOnUse"
     gradientTransform="matrix(2683.84,0,0,1000,-2.30926e-13,500)"><stop
       offset="0"
       style="stop-color:rgb(201,87,230);stop-opacity:1"
       id="stop5" /><stop
       offset="0.01"
       style="stop-color:rgb(201,87,230);stop-opacity:1"
       id="stop6" /><stop
       offset="0.9"
       style="stop-color:rgb(26,159,255);stop-opacity:1"
       id="stop7" /><stop
       offset="1"
       style="stop-color:rgb(26,159,255);stop-opacity:1"
       id="stop8" /></linearGradient><g
     inkscape:groupmode="layer"
     id="layer1"
     inkscape:label="Layer 1"><path
       d="m 668.18008,432.66529 c -5.42,-4.71 0.54,0.47 0,0 -5.254,-4.574 -8.461,5.421 -7.025,9.632 1.461,-0.875 2.296,1.238 1.875,2.773 -0.332,1.209 -1.621,1.895 -2.573,2.445 -2.538,1.465 -4.253,3.279 -4.548,6.435 -0.366,3.918 -1.643,9.053 -0.634,12.88 0.7,2.655 5.006,2.349 4.978,-0.526 0.041,4.252 -0.524,8.495 -0.281,12.748 0.285,4.974 1.631,9.85696 3.214,14.51996 1.348,3.971 2.247,7.849 3.212,11.934 1.022,4.323 2.657,7.953 2.003,12.537 -0.305,2.13 -1.631,6.086 0.784,7.448 3.283,1.851 3.929,-1.577 3.603,-4.109 -1.234,-9.554 -0.354,-19.23 -1.466,-28.79 1.17,8.752 2.275,17.544 2.412,26.397 0.033,2.135 -0.462,5.291 1.205,6.918 2.11,2.063 4.245,-0.116 4.248,-2.54 0.006,-3.432 -1.333,-6.315 -0.826,-9.911 0.819,-5.807 0.718,-12.151 0.915,-17.955 0.198,-5.825 1.317,-12.32296 0.988,-18.11496 -0.03,-0.536 -3.417,-13.051 -0.325,-10.691 0.004,0.002 0.008,0.006 0.012,0.009 2.061,1.586 2.539,-0.919 2.511,-2.656 -0.014,-0.873 -0.086,-1.767 -0.271,-2.618 -0.266,-1.214 0.926,-1.885 0.778,-3.067 -0.284,-2.276 -1.931,-5.603 -2.932,-7.622 -1.398,-2.822 -3.447,-3.763 -6.185,-4.531 -1.352,-0.379 -4.983,-1.439 -4.331,-3.683 0.168,-0.579 1.99,-4.582 0.38,-4.244 2.056,-0.432 -1.747,-5.642 -2.615,-6.399 0.23,0.2 0.82,0.72 0.88,0.77 z"
       fill="#8d7b7d"
       id="path8-6"
       style="fill:#e11d1d;fill-opacity:1" /><path
       d="m 635.68695,409.50613 c -1.688,-1.895 -5.157,-2.312 -7.291,-1.119 -3.353,1.873 -0.341,5.64 -1.861,8.324 -1.413,2.495 1.511,5.548 2.285,7.855 1.143,3.401 -1.638,4.472 -4.004,5.897 -2.686,1.617 -3.852,3.124 -3.673,6.409 0.175,3.231 0.01,5.031 -0.984,7.93 -0.906,2.645 -1.278,6.314 0.245,8.774 1.682,2.714 4.095,-0.706 6.131,-1.08 1.092,6.258 -0.973,12.585 0.021,18.854 0.498,3.149 0.31,6.365 0.781,9.517 0.556,3.71 2.17,7.11102 3.137,10.70102 0.864,3.207 0.585,6.566 0.591,9.855 0.006,2.956 0.853,5.74 1.747,8.503 1.678,5.184 3.257,9.318 1.528,14.639 -0.938,2.891 0.884,7.331 3.998,7.497 1.357,0.073 3.714,0.1 4.17,-1.688 0.452,-1.774 -0.971,-6.745 -1.786,-8.221 -1.342,-2.43 -1.343,-5.184 -1.443,-7.91 -0.124,-3.319 -0.642,-6.607 -1.004,-9.902 -0.512,-4.653 -0.189,-9.184 -0.124,-13.833 0.048,-3.38302 0.032,-6.81602 0.437,-10.17802 0.397,-3.304 1.354,-1.779 1.762,0.607 0.564,3.3 0.748,6.68502 0.94,10.02902 0.28,4.859 1.59,9.354 2.698,14.056 0.602,2.554 1.39,5.03 -0.061,7.359 -1.325,2.126 -0.426,3.867 0.751,5.712 1.597,2.505 -0.762,12.148 5.147,10.191 4.076,-1.351 1.043,-11.623 -0.027,-14.345 -2.369,-6.028 0.988,-12.536 -0.279,-18.899 -1.687,-8.47202 0.308,-16.77302 -0.348,-25.30302 -0.32,-4.158 -1.516,-8.123 -2.321,-12.186 -0.637,-3.206 -0.727,-6.972 -2.444,-9.801 3.248,-0.548 9.521,7.213 12.209,2.983 3.146,-4.953 -3.931,-11.308 -5.839,-15.322 -1.35,-2.841 -1.651,-6.156 -4.663,-7.77 -2.353,-1.261 -5.256,-0.755 -7.657,-2.018 -3.631,-1.908 -0.938,-5.986 -0.791,-8.96 0.133,-2.672 -0.662,-5.683 -2.406,-7.64 0.07,0.11 0.79,0.92 0.4,0.48 -1.61,-1.81 0.69,0.77 0,0 z"
       fill="#8d7b7d"
       id="path9-0"
       style="fill:#e11d1d;fill-opacity:1" /><path
       d="m 548.38065,372.69322 c 0.488,-7.372 2.377,-14.738 5.164,-21.495 2.189,-5.31 2.865,-13.942 7.995,-16.964 4.566,-2.691 12.038,-1.649 15.812,-5.623 2.889,-3.043 -2.271,-8.892 -3.23,-11.868 -0.905,-2.808 -1.39,-5.809 -1.626,-8.761 -0.266,-3.315 1.83,-5.893 2.421,-9.008 0.958,-5.05 6.334,-5.839 10.154,-4.023 3.334,1.693 6.651,3.612 8.767,6.953 3.342,5.279 2.163,10.229 0.85,15.93 -1.262,5.471 -0.034,9.073 5.394,9.953 4.426,0.719 9.012,1.11 13.152,3.074 6.151,2.917 7.133,8.762 8.215,15.052 1.17,6.798 6.978,10.053 5.465,17.524 -0.68,3.355 -0.759,7.279 -2.341,10.335 -1.265,2.444 -2.632,4.38 -3.599,7.008 -1.895,5.15 -6,4.385 -8.773,0.454 -0.412,1.919 0.515,3.995 1.118,5.749 0.81,2.355 1.137,4.848 1.503,7.315 0.726,4.891 2.026,9.852 0.727,14.762 -1.321,4.986 0.052,10.273 -1.276,15.258 -0.594,2.229 0.34,4.37 0.464,6.584 0.118,2.113 -1.344,3.667 -1.786,5.623 -1.135,5.005 -3.065,9.78 -3.921,14.862 -0.91,5.4 0.323,10.447 1.504,15.673 1.185,5.236 2.627,10.568 2.456,16.007 -0.157,5.03503 -1.486,9.91303 -2.824,14.71103 4.792,0.311 5.733,4.357 5.589,8.75 -0.081,2.468 -0.531,4.419 -2.239,6.121 -1.106,1.101 0.505,4.01 0.881,5.15 1.415,4.292 2.106,10.401 -0.883,14.169 -1.8,2.269 -6.763,5.729 -9.011,2.235 -1.955,2.682 0.874,6.292 -0.067,9.162 -0.932,2.835 -6.59,2.071 -8.639,1.845 -1.583,-0.176 -3.419,-0.365 -4.553,-1.713 -1.491,-1.773 0.035,-4.072 -1.205,-5.88 -1.578,-2.298 -4.662,-3.754 -3.84,-7.096 1.052,-4.274 4.504,-6.675 7.568,-9.229 2.707,-2.256 2.905,-6.311 3.045,-9.662 0.189,-4.585 1.024,-9.581 -0.513,-14.006 -1.342,-3.862 -4.518,-6.589 -6.332,-10.16603 -4.734,-9.328 -6.117,-20.637 -9.282,-30.613 -1.546,-4.876 -2.526,-10.004 -4.793,-14.591 -1.947,-3.941 -4.197,-7.733 -5.648,-11.928 -3.238,-9.356 -3.183,-19.713 -1.848,-29.46 0.271,-1.985 1.103,-3.9 1.005,-5.938 -0.096,-2.006 -1.35,-3.711 -1.384,-5.758 -0.042,-2.487 0.373,-4.772 0.066,-7.292 -0.24,-1.967 -0.538,-3.935 -0.456,-5.926 -5.48,0.646 -8.626,6.685 -14.228,7.274 -5.64,0.64 -5.3,-6.36 -5.02,-10.49 z m 63.92,-7.37 c -0.07,-0.22 -0.14,-0.41 0,0 l 10e-4,0.003 c 0.382,1.145 1.535,2.062 2.482,2.635 0.766,-1.448 0.694,-4.146 0.02,-5.62 -0.294,-0.64 -2.106,-3.068 -1.847,-3.738 -0.61,1.58 -1.19,5.08 -0.65,6.72 z"
       fill="#867577"
       id="path10-6"
       style="fill:#e11d1d;fill-opacity:1" /><path
       d="m 410.09964,385.16613 c -0.712,-2.652 -0.42,-6.039 -0.864,-8.822 -0.496,-3.096 -0.585,-6.123 -0.526,-9.257 0.061,-3.155 -0.456,-6.397 -0.134,-9.527 0.303,-2.927 0.881,-5.79 1.108,-8.731 0.509,-6.582 2.23,-9.464 7.78,-12.375 1.756,-0.92 7.134,-3.152 7.045,-5.664 -0.087,-2.442 -3.211,-2.123 -4.387,-3.421 -0.917,-1.013 -0.365,-2.168 -0.042,-3.282 0.519,-1.789 -0.696,-1.135 -0.729,-2.607 -0.101,-4.594 -3.321,-7.005 -1.659,-11.625 0.602,-1.673 -0.658,-5.722 -1.492,-7.306 -0.948,-1.804 -3.244,-3.273 -2.314,-5.723 1.131,-2.983 3.898,-1.89 6.099,-1.747 2.089,0.135 2.49,-1.859 4.382,-2.348 4.373,-1.13 12.377,0.814 15.682,4.07 3.512,3.461 4.212,9.908 3.942,14.678 -0.106,1.898 -1.413,2.529 -2.575,3.673 -1.502,1.476 -1.242,3.534 -1.128,5.507 0.3,5.16 5.013,5.834 8.772,6.461 4.754,0.793 9.02,1.552 12.996,4.684 1.504,1.184 3.053,2.561 4.207,4.136 1.259,1.718 0.837,3.625 1.15,5.621 0.789,5.018 2.603,10.369 4.247,15.146 1.396,4.056 5.003,7.827 3.549,12.421 -1.493,4.72 -5.641,8.306 -6.86,13.138 -0.535,2.12 0.326,4.313 0.163,6.464 -0.167,2.181 -0.636,4.284 -0.691,6.482 -0.142,5.558 -0.398,10.838 -1.534,16.297 -0.544,2.619 -1.139,9.935 -3.547,11.417 -1.654,1.017 -2.811,1.03 -2.709,3.538 0.098,2.395 -0.021,4.792 0.134,7.184 0.292,4.485 0.982,8.974 1.32,13.472 0.375,4.994 -1.484,10.073 -2.845,14.789 -1.398,4.846 -2.491,8.755 -2.918,13.784 -0.486,5.722 -0.539,9.093 2.026,14.27002 1.935,3.902 4.095,7.114 4.244,11.666 3.997,-1.604 8.726,-2.049 12.2,1.183 3.868,3.6 1.506,7.262 0.328,11.444 -1.325,4.708 2.149,9.551 1.868,14.438 -0.223,3.87 -0.808,8.148 -2.738,11.517 -0.713,1.243 -3.663,2.857 -3.955,3.802 -0.313,1.015 0.36,2.573 0.661,3.506 0.698,2.166 2.375,4.807 2.079,7.15 -0.32,2.541 -6.995,3.368 -8.952,3.549 -2.104,0.196 -4.104,0.774 -6.188,1.072 -2.213,0.317 -4.336,-0.509 -6.556,-0.296 -5.114,0.489 -3.379,-4.671 -1.105,-7.521 2.487,-3.12 3.632,-8.608 3.771,-12.642 0.183,-5.284 -1.899,-10.692 -3.216,-15.702 -1.193,-4.539 -1.17,-9.845 -3.09,-14.112 -2,-4.448 -6.74,-5.403 -10.706,-6.906 -4.478,-1.696 -8.051,-4.833 -11.596,-8.082 -3.369,-3.087 -6.692,-5.472 -7.4,-10.44002 -0.617,-4.326 -0.058,-8.857 0.155,-13.198 0.686,-14.029 2.574,-28.086 1.742,-42.069 -2.168,-1.388 -4.877,-0.606 -6.621,-2.868 -1.41,-1.828 -2.257,-4.087 -2.793,-6.36 -1.166,-4.938 -1.011,-10.149 -0.256,-15.14 0.846,-5.59 2.784,-10.433 5.123,-15.361 3.05,-6.37 -4.1,-1.46 -4.63,-3.41 z m 29.44,101.82 c -1.114,-3.858 -1.997,-7.7 -1.997,-11.761 l 0.054,-0.04 c -4.51,2.41 1.03,8.61 1.95,11.8 z m -19.99,-74.83 h 0.073 c -0.003,-0.019 -0.006,-0.036 -0.009,-0.055 1.496,-1.264 0.822,-6.787 0.794,-8.428 -0.049,-2.78 -0.195,-5.558 -0.367,-8.332 -1.52,1.598 -4.84,6.087 -3.697,8.542 1.347,2.891 2.832,4.864 3.271,8.219 0,0.01 -0.02,0.03 -0.05,0.05 z m -1.08,13.76 c 1.243,-1.692 0.738,-5.135 0.939,-7.156 l -0.146,0.078 c -1.471,-0.309 -1.833,-3.857 -2.618,-4.967 -1.8,4.49 -1.49,8.46 1.83,12.05 z"
       fill="#867577"
       id="path11"
       style="fill:#e11d1d;fill-opacity:1" /><path
       d="m 516.03981,220.80216 c -4.247,-0.682 -8.782,0.137 -12.75,1.811 -2.854,1.204 -7.714,5.269 -8.659,8.525 -0.619,2.15 1.326,3.756 2.022,5.542 0.707,1.809 -0.177,3.581 -0.509,5.349 -0.353,1.874 0.703,3.965 1.06,5.78 0.258,1.317 0.234,4.227 1.04,5.313 1.068,1.442 2.638,0.369 2.791,2.876 0.134,2.15 0.084,4.445 0.021,6.6 -0.025,0.833 -0.393,5.879 -0.844,6.041 -1.043,0.375 -2.058,0.951 -3.031,1.491 -3.906,2.164 -7.536,4.517 -11.644,6.291 -3.583,1.547 -7.09,4.583 -9.15,8.062 -5.231,8.835 -3.737,19.54 -3.515,29.479 0.123,5.497 0.389,11.317 -0.585,16.746 -0.576,3.21 -1.261,7.585 -4.117,9.381 -3.177,1.998 -7.299,5.31 -7.844,9.532 -0.505,3.921 2.388,8.442 5.455,10.309 1.188,0.723 7.296,4.665 7.658,1.601 0.151,-1.288 -4.58,-4.929 -5.115,-4.403 0.841,-0.828 2.019,-0.19 2.972,-0.636 0.967,-0.452 1.319,-1.525 2.487,-1.596 1.905,-0.117 2.762,2.067 4.517,2.333 1.766,0.268 2.084,-2.291 1.219,-3.455 -0.984,-1.327 2.672,-3.387 3.59,-3.522 2.445,-0.361 0.93,5.529 0.756,6.692 -0.363,2.417 0.09,4.676 0.993,6.912 1.026,2.541 -0.602,6.043 -0.712,8.716 -0.248,5.998 -1.172,11.396 -3.26,17.018 -2.566,6.914 -3.992,13.554 -4.437,21 -0.377,6.324 0.681,12.415 1.116,18.692 0.245,3.519 0.272,7.049 0.479,10.57 0.216,3.695 1.343,6.892 1.89,10.487 0.96,6.306 1.006,12.284 3.435,18.263 2.415,5.945 5.792,11.174 8.635,16.84 2.594,5.16699 5.114,10.51599 8.155,15.41099 3.111,5.008 2.179,10.896 0.84,16.464 -1.295,5.382 -3.051,9.815 -5.79,14.58 -2.603,4.526 -5.259,8.763 -6.642,13.926 -1.046,3.904 -1.184,7.344 2.621,9.21 3.813,1.87 8.337,2.82 12.396,1.414 2.654,-0.92 6.827,-2.787 8.42,-5.439 1.669,-2.783 1.147,-6.537 1.22,-9.663 0.154,-6.614 9.641,-8.32 12.086,-13.984 2.551,-5.905 -2.142,-12.364 -3.987,-17.67 -0.623,-1.792 -1.2,-3.52 -2.675,-4.723 -1.074,-0.878 -2.45,-1.375 -2.967,-2.807 -0.496,-1.373 -1.708,-1.683 -2.381,-2.854 -1.099,-1.909 -1.4,-4.245 -2.014,-6.351 -2.459,-8.45699 -1.104,-16.84799 -2.182,-25.44499 -0.488,-3.907 -1.988,-7.745 -3.182,-11.456 -1.188,-3.694 -3.188,-6.442 -3.392,-10.495 -0.188,-3.715 0.706,-7.678 2.173,-11.026 1.408,-3.213 2.063,-7.164 3.779,-10.137 1.483,-2.567 4.097,-4.182 5.911,-6.461 2.12,-2.662 4.059,-6.501 7.407,-7.584 0.535,6.187 4.514,11.194 5.735,17.181 0.58,2.845 1.259,5.48 2.167,8.224 1.143,3.456 1.01,7.402 1.166,11.021 0.266,6.154 0.76,12.315 1.806,18.381 0.93,5.393 4.033,10.498 4.392,15.921 0.187,2.824 -0.635,5.616 -0.859,8.41699 -0.248,3.094 -0.238,6.208 -0.138,9.308 0.212,6.518 2.414,12.786 2.401,19.275 -0.004,2.571 -0.878,4.859 -1.616,7.261 -0.806,2.622 -0.323,4.675 -1.733,7.269 -1.443,2.659 -1.716,5.457 -2.354,8.39 -0.298,1.364 -0.664,2.747 -0.634,4.162 0.042,2.006 1.293,3.588 1.472,5.576 0.429,4.787 0.662,9.309 0.313,14.021 -0.391,5.277 11.859,2.63 14.673,2.559 2.281,-0.056 6.145,0.161 7.974,-1.598 1.375,-1.322 -0.459,-3.824 -0.327,-5.412 0.284,-3.413 -1.65,-2.435 -3.312,-4.681 -1.521,-2.057 -1.904,-4.994 -2.547,-7.448 -0.697,-2.66 -1.138,-5.257 -2.006,-7.872 -0.922,-2.776 0.327,-5.328 -0.286,-7.966 -0.663,-2.851 -0.937,-4.208 0.184,-7.138 1.279,-3.348 2.522,-6.547 3.537,-10.003 1.768,-6.02 2.925,-12.088 4.991,-18.019 2.442,-7.012 3.378,-12.85399 0.284,-19.74999 -2.453,-5.471 -1.579,-12.398 -1.961,-18.31 -0.36,-5.578 -0.206,-13.862 2.008,-19.05 2.296,-5.381 1.616,-13.179 1.748,-18.969 0.173,-7.558 0.278,-15.124 0.406,-22.683 0.117,-6.887 -0.117,-13.693 -1.322,-20.473 -0.537,-3.023 -1.118,-6.051 -1.389,-9.12 -0.27,-3.049 1.073,-6.125 0.225,-9.061 -0.768,-2.656 -1.968,-5.408 -1.22,-8.252 0.761,-2.893 0.177,-4.152 -0.582,-7.04 -0.75,-2.852 -1.252,-5.735 -2.253,-8.51 -0.897,-2.49 -3.203,-7.988 1.234,-6.433 2.628,0.921 5.314,1.807 7.919,2.802 2.249,0.859 4.799,3.241 7.255,3.163 5.748,-0.183 5.379,-10.014 4.451,-13.725 -0.602,-2.404 -0.21,-4.798 -1.312,-7.087 -1.324,-2.753 -2.545,-5.675 -3.518,-8.591 -2.082,-6.24 -2.064,-12.992 -4.416,-19.168 -4.011,-10.537 -11.698,-23.228 -23.058,-24.788 -3.094,-0.425 -6.201,-0.703 -9.295,-1.136 -1.913,-0.268 -5.04,1.112 -6.348,-0.887 -1.07,-1.635 -1.337,-4.065 -0.763,-5.936 0.817,-2.666 1.511,-6.258 2.929,-8.634 1.464,-2.452 2.424,-3.444 1.635,-6.447 -0.756,-2.874 0.326,-5.603 -1.004,-8.349 -2.52,-5.04 -7.08,-9.04 -12.47,-9.91 -4.11,-0.66 4.53,0.73 0,0 z"
       fill="#857374"
       id="path12"
       style="fill:#e11d1d;fill-opacity:1" /><path
       d="m 322.22818,546.89115 c 4.699,-0.135 11.413,0.013 13.806,-5.466 2.276,-5.209 4.688,-11.909 4.354,-17.711 -0.407,-7.083 -0.636,-14.179 -0.579,-21.275 0.116,-14.551 1.128,-28.79304 -0.292,-43.33304 -0.662,-6.779 -2.992,-13.353 -2.966,-20.186 0.023,-6.251 2.899,-12.233 2.459,-18.381 -0.476,-6.666 -4.325,-12.301 -5.024,-18.989 -0.312,-2.99 -0.268,-6.007 -0.625,-8.992 -0.342,-2.853 -1.436,-5.551 -1.66,-8.417 -0.941,-12.002 4.391,-25.313 1.927,-37.166 0,-0.003 -10e-4,-0.006 -10e-4,-0.008 -1.581,-7.57 -2.33,-15.969 -4.465,-23.335 -0.576,-1.988 -1.498,-3.678 -1.887,-5.691 -0.466,-2.413 -0.633,-4.859 -1.201,-7.267 -2.973,1.183 -4.51,11.614 -5.44,14.666 -1.212,3.977 -3.215,9.025 -7.646,9.711 -10.331,1.602 -10.81,-13.117 -8.565,-19.957 2.965,-9.038 7.99,-16.598 8.871,-26.364 0.705,-7.827 0.232,-18.765 7.271,-23.674 3.662,-2.554 8.275,-3.049 12.483,-3.835 2.611,-0.488 5.218,-0.988 7.816,-1.549 1.961,-0.424 2.957,-0.03 3.563,-2.228 0.273,-1.013 0.528,-2.032 0.763,-3.057 0.521,-2.219 1.65,-4.654 1.814,-6.928 0.169,-2.327 -2.087,-4.003 -2.867,-5.988 -1.439,-3.666 -4.699,-9.999 -2.687,-14.001 1.078,-2.143 0.243,-4.527 0.857,-6.768 0.452,-1.653 0.913,-3.303 1.46,-4.924 1.167,-3.452 2.68,-7.458 6.195,-8.778 6.635,-2.492 18.208,5.998 21.445,11.846 1.648,2.98 0.901,5.96 1.438,9.166 0.486,2.896 1.03,4.58 -0.341,7.376 -2.053,4.183 -4.563,7.999 -5.126,12.823 -0.749,6.413 5.235,7.568 10.004,8.681 5.137,1.198 11.893,-0.04 16.547,3.012 4.342,2.847 7.087,10.394 8.616,15.259 1.723,5.488 0.966,11.411 2.666,16.885 0.939,3.027 2.466,5.679 3.214,8.817 0.646,2.713 1.098,5.477 1.787,8.179 0.708,2.767 2.159,5.01 3.298,7.57 1.048,2.356 0.649,5.338 0.618,7.859 -0.08,6.524 -0.705,12.645 -4.033,18.266 -2.826,4.774 -0.875,9.929 -6.357,12.808 -2.348,1.233 -6.077,-0.033 -8.056,1.797 -1.789,1.654 -1.677,4.729 -2.201,6.965 -0.623,2.652 -0.871,5.921 -1.968,8.408 -0.778,1.767 -2.277,3.051 -3.225,4.749 -2.808,5.035 -3.689,11.014 -5.089,16.53 -1.501,5.92 -3.097,11.947 -1.867,18.096 1.022,5.118 3.935,9.148 -2.461,10.597 -4.735,1.074 -4.636,5.51 -5.879,9.651 -1.943,6.474 -0.287,13.196 1.263,19.544 1.433,5.867 1.534,11.938 2.938,17.756 0.864,3.582 3.008,5.897 4.638,9.029 1.384,2.659 2.209,5.597 3.609,8.249 3.121,5.91504 3.063,11.40204 4.243,17.78004 0.951,5.13 3.207,10.793 5.571,15.397 0.958,1.865 2.111,3.838 3.749,5.115 1.851,1.443 4.237,1.824 6.141,3.355 3.204,2.579 9.092,7.388 9.195,12.104 0.14,6.407 -6.098,7.364 -8.311,12.062 -1.276,2.708 0.502,5.983 -0.125,8.915 -0.567,2.659 -1.191,5.5 -2.28,7.978 -1.77,4.021 -5.384,5.976 -9.422,6.197 -3.414,0.188 -7.604,-0.899 -9.237,-4.449 -2.188,-4.752 1.26,-10.155 2.99,-14.402 2.522,-6.185 2.277,-12.623 2.018,-19.2 -0.209,-5.309 -4.137,-10.559 -6.896,-14.797 -3.505,-5.382 -7.157,-10.605 -10.742,-15.917 -3.523,-5.222 -5.64,-11.442 -8.854,-16.896 -2.795,11.965 -6.394,23.721 -9.554,35.572 -1.616,6.063 -2.046,12.514 -2.561,18.767 -0.491,5.958 0.885,11.665 1.353,17.576 0.355,4.507 3.688,17.254 -3.517,17.358 -4.82,0.069 -12.119,0.602 -16.241,-2.402 -3.808,-2.774 -6.995,-4.554 -11.593,-5.538 -4.646,-0.995 -11.332,-1.587 -14.43,-5.98 -2.43,-3.444 -1.345,-8.463 0.987,-11.622 3.04,-4.1 9.63,-6.9 14.34,-7.04 z m 69.28,-229.33004 c 0.486,6.108 0.471,12.068 0.756,18.197 1.264,-0.639 1.422,-2.503 2.752,-3.017 1.211,-0.469 2.085,0.773 2.786,-0.866 1.306,-3.053 0.454,-6.946 0.275,-10.16 -0.206,-3.692 -2.058,-6.037 -3.193,-9.394 -1.166,-3.449 -1.632,-7.148 -3.075,-10.493 l -0.146,-0.615 c -0.46,2.975 -0.007,5.996 0.056,8.982 0.04,2.44 -0.42,4.95 -0.22,7.36 z"
       fill="#857374"
       id="path13"
       style="fill:#e11d1d;fill-opacity:1" /></g><g
     id="DECK"
     transform="matrix(0.476929,0,0,0.476929,0,161.536)"
     style="fill:url(#linearGradient25)"><path
       d="M1650,476.924L1728.84,476.924L1728.84,681.584L1999.38,476.789L2117.24,476.789L1953.35,600.854L2133.97,855.059L2036.91,854.789L1890.57,648.509L1728.84,771.089L1728.84,854.924L1650,854.924L1650,476.924ZM1137.26,514.319C1149.32,502.259 1162.66,493.034 1177.29,486.644C1191.91,480.254 1207.82,477.059 1225.01,477.059L1585.19,477.059L1585.19,549.284L1225.01,549.284C1218.62,549.284 1212.61,550.476 1206.99,552.861C1201.36,555.246 1196.46,558.531 1192.27,562.716C1188.09,566.901 1184.8,571.806 1182.42,577.431C1180.03,583.056 1178.84,589.064 1178.84,595.454L1178.84,736.664C1178.84,742.604 1180.14,748.341 1182.76,753.876C1185.37,759.411 1188.81,764.316 1193.08,768.591C1197.36,772.866 1202.26,776.309 1207.8,778.919C1213.33,781.529 1219.07,782.834 1225.01,782.834L1585.19,782.834L1585.19,855.059L1225.01,855.059C1216.46,855.059 1208.16,854.159 1200.1,852.359C1192.05,850.559 1184.31,848.016 1176.88,844.731C1169.46,841.446 1162.41,837.509 1155.76,832.919C1149.1,828.329 1142.93,823.289 1137.26,817.799C1125.47,806.369 1116.31,793.206 1109.79,778.311C1103.26,763.416 1100,747.329 1100,730.049L1100,602.069C1100,584.789 1103.19,568.859 1109.59,554.279C1115.98,539.699 1125.2,526.379 1137.26,514.319ZM550,811.724L550,520.394C550,513.914 551.035,508.019 553.105,502.709C555.175,497.399 558.123,492.831 561.947,489.006C565.773,485.181 570.34,482.234 575.65,480.164C580.96,478.094 586.855,477.059 593.335,477.059L1033.7,477.059L1033.7,549.284L628.975,549.284L628.975,625.829L984.565,625.829L984.565,698.054L628.975,698.054L628.975,782.834L1033.7,782.834L1033.7,855.059L593.335,855.059C586.855,855.059 580.96,854.024 575.65,851.954C570.34,849.884 565.773,846.936 561.947,843.111C558.123,839.286 555.175,834.719 553.105,829.409C551.035,824.099 550,818.204 550,811.724ZM447.93,962.74C435.87,974.8 422.527,984.025 407.902,990.415C393.277,996.805 377.37,1000 360.18,1000L78.975,1000L78.975,927.775L360.18,927.775C366.57,927.775 372.577,926.583 378.202,924.197C383.827,921.813 388.732,918.527 392.917,914.342C397.102,910.157 400.387,905.253 402.772,899.627C405.157,894.003 406.35,887.995 406.35,881.605L406.35,595.454C406.35,589.514 405.045,583.776 402.435,578.241C399.825,572.706 396.382,567.801 392.107,563.526C387.832,559.251 382.927,555.809 377.392,553.199C371.857,550.589 366.12,549.284 360.18,549.284L78.975,549.284L78.975,477.059L360.18,477.059C368.73,477.059 377.032,477.959 385.087,479.759C393.142,481.559 400.882,484.101 408.307,487.386C415.732,490.671 422.775,494.609 429.435,499.199C436.095,503.789 442.26,508.829 447.93,514.319C459.72,525.749 468.877,538.911 475.402,553.806C481.927,568.701 485.19,584.789 485.19,602.069L485.19,874.99C485.19,892.27 481.995,908.2 475.605,922.78C469.215,937.36 459.99,950.68 447.93,962.74Z"
       style="fill:url(#linearGradient25)"
       id="path8" /></g><g
     id="RETRO"
     transform="matrix(0.476929,0,0,0.476929,0,161.536)"><path
       id="path10"
       d="m 43.335525,-0.00176913 c -6.48,0 -12.377217,1.03826533 -17.687217,3.10826533 -5.31,2.07 -9.876577,5.0165638 -13.702577,8.8415608 -3.823998,3.825 -6.7715609,8.392577 -8.8415609,13.702577 C 1.0341701,30.960634 0,36.853756 0,43.333756 L 0.13514197,377.99851 H 78.976149 V 229.23178 H 281.07073 L 402.57155,377.99851 H 500.443 L 378.94628,229.23178 h 1.48246 c 12.69,0 24.28025,-1.48559 34.76425,-4.45559 10.486,-2.97 19.91153,-7.09026 28.28153,-12.35526 8.37,-5.265 15.68405,-11.49464 21.93805,-18.69464 6.256,-7.2 11.45047,-15.05475 15.59047,-23.55975 4.14,-8.505 7.2466,-17.48011 9.3166,-26.93011 2.07,-9.45 3.10417,-18.99143 3.10417,-28.62143 0.09,-9.45 -0.89903,-18.831384 -2.96903,-28.146384 -2.07,-9.315 -5.1766,-18.228539 -9.3166,-26.733539 -4.14,-8.505 -9.33447,-16.400797 -15.59047,-23.690797 -6.254,-7.29 -13.59167,-13.5894 -22.00767,-18.8994 -8.414,-5.31 -17.86105,-9.4959173 -28.34705,-12.5559173 -10.484,-3.06 -22.07425,-4.59073183 -34.76425,-4.59073183 z m 549.999155,0 c -6.48,0 -12.37312,1.03826533 -17.68312,3.10826533 -5.31,2.07 -9.87658,5.0165638 -13.70258,8.8415608 -3.824,3.825 -6.77566,8.392577 -8.84566,13.702577 -2.07,5.31 -3.10417,11.203122 -3.10417,17.683122 V 334.66299 c 0,6.48 1.03417,12.37722 3.10417,17.68722 2.07,5.31 5.02166,9.87757 8.84566,13.70257 3.826,3.825 8.39258,6.77156 13.70258,8.84156 5.31,2.07 11.20312,3.10417 17.68312,3.10417 H 1033.7009 V 305.77537 H 628.9753 V 220.99631 H 984.56659 V 148.76906 H 628.9753 V 72.225471 h 404.7256 V -0.00176913 Z m 506.66362,0 V 72.225471 h 202.5 V 377.99851 h 78.9803 V 72.225471 h 202.3607 V -0.00176913 Z m 593.3429,0 c -6.48,0 -12.3813,1.03826533 -17.6913,3.10826533 -5.31,2.07 -9.8785,5.0155638 -13.6985,8.8415608 -3.83,3.824 -6.7816,8.392577 -8.8416,13.702577 -2.07,5.31 -3.1082,11.203122 -3.1082,17.683122 l 0.1269,334.664754 h 78.8533 V 229.23178 h 202.0864 l 121.5008,148.76673 h 97.8797 L 2028.9396,229.23178 h 1.4907 c 12.69,0 24.2802,-1.48559 34.7602,-4.45559 10.49,-2.97 19.9215,-7.09026 28.2815,-12.35526 8.38,-5.265 15.688,-11.49464 21.938,-18.69464 6.26,-7.2 11.4587,-15.05475 15.5987,-23.55975 4.13,-8.505 7.2425,-17.48011 9.3125,-26.93011 2.07,-9.45 3.1083,-18.99143 3.1083,-28.62143 0.08,-9.45 -0.9013,-18.830384 -2.9813,-28.146384 -2.06,-9.315 -5.1685,-18.225444 -9.3085,-26.729444 -4.14,-8.506 -9.3404,-16.404892 -15.5904,-23.694892 -6.26,-7.29 -13.5877,-13.5894 -22.0077,-18.8994 -8.41,-5.31 -17.8611,-9.4959173 -28.3511,-12.5559173 -10.48,-3.06 -22.0702,-4.59073183 -34.7602,-4.59073183 z M 78.976149,72.225471 H 378.94628 c 6.03,0 11.27061,1.214738 15.72561,3.644738 4.455,2.43 8.14535,5.622795 11.06935,9.582795 2.926,3.96 5.10825,8.482435 6.54825,13.567435 1.44,5.085001 2.13865,10.284561 2.09265,15.594561 -0.044,5.31 -0.80832,10.50547 -2.29332,15.59047 -1.485,5.085 -3.71338,9.61153 -6.68338,13.57153 -2.97,3.96 -6.65936,7.1528 -11.06936,9.5828 -4.41,2.43 -9.5398,3.64473 -15.3898,3.64473 H 78.976149 Z m 1650.005651,0 h 299.9578 c 6.04,0 11.2798,1.214738 15.7298,3.644738 4.46,2.43 8.1493,5.622795 11.0693,9.582795 2.93,3.96 5.1123,8.482435 6.5523,13.567435 1.44,5.085001 2.1386,10.284561 2.0886,15.594561 -0.04,5.31 -0.8092,10.50547 -2.2892,15.59047 -1.49,5.085 -3.7093,9.61153 -6.6793,13.57153 -2.98,3.96 -6.6694,7.1528 -11.0694,9.5828 -4.42,2.43 -9.5421,3.64473 -15.4021,3.64473 H 1728.9818 Z M 939.78955,908.70922 v 22.17557 c -2.32,-1.206 -4.35486,-2.09398 -6.10186,-2.66598 -1.747,-0.573 -3.98286,-0.85999 -6.70386,-0.85999 -3,0 -5.84443,0.65579 -8.53443,1.96979 -2.691,1.314 -4.97657,3.09954 -6.86357,5.35654 -2.071,2.474 -3.6983,5.3828 -4.8733,8.7228 -1.175,3.34 -1.76094,7.28506 -1.76094,11.83106 0,8.226 1.72973,14.79326 5.19273,19.71026 3.464,4.917 8.1669,7.37957 14.1039,7.37957 1.763,0 3.27769,-0.15786 4.54569,-0.46686 1.268,-0.309 2.5505,-0.77337 3.8495,-1.39237 1.021,-0.495 2.20455,-1.2347 3.55055,-2.2237 1.345,-0.99 2.54359,-1.91874 3.59559,-2.78474 v 5.42615 h 16.23342 v -72.1781 z m 56.49753,0 v 72.1781 h 15.54132 l 0.6921,-2.59636 c 2.17,1.237 4.2082,2.1476 6.1182,2.7356 1.92,0.587 4.1817,0.88047 6.7817,0.88047 6.21,0 11.4214,-2.55643 15.6314,-7.67443 4.21,-5.118 6.3067,-11.82048 6.3067,-20.10748 0,-8.381 -1.6489,-14.9383 -4.9389,-19.6693 -3.3,-4.732 -7.9702,-7.097 -14.0302,-7.097 -3.25,0 -6.1094,0.63217 -8.5794,1.90017 -2.48,1.268 -4.9095,2.9224 -7.2895,4.9634 v -25.51317 z m 352.40112,0 v 72.1781 h 16.2334 v -72.1781 z m 124.5518,0 v 12.66649 h 17.1589 v -12.66649 z m 344.0919,0 v 12.66649 h 17.1671 v -12.66649 z m -169.2223,1.85513 c -8.19,0 -15.0307,2.00368 -20.5007,6.00768 -5.47,4.005 -8.2109,9.23804 -8.2109,15.70104 0,4.794 1.161,8.7853 3.481,11.9703 2.32,3.185 6.1493,5.7219 11.4993,7.6089 2.32,0.804 4.8202,1.48242 7.4902,2.03942 2.68,0.556 5.1933,1.14294 7.5433,1.76094 1.89,0.495 3.5093,1.28503 4.8693,2.36703 1.36,1.082 2.0394,2.49016 2.0394,4.22216 0,1.546 -0.4091,2.79184 -1.2491,3.73484 -0.83,0.944 -1.8532,1.67722 -3.0632,2.20322 -0.99,0.464 -2.2991,0.80371 -3.9191,1.01971 -1.62,0.217 -2.9291,0.32352 -3.9191,0.32352 -3.93,0 -7.9805,-0.79003 -12.1505,-2.36703 -4.18,-1.577 -7.9984,-3.83139 -11.4584,-6.76939 h -1.5808 v 16.4218 c 3.43,1.515 7.1495,2.78036 11.1595,3.80036 4,1.021 8.6501,1.53161 13.9401,1.53161 9.18,0 16.4684,-2.08658 21.8684,-6.26158 5.4,-4.175 8.0921,-9.69604 8.0921,-16.56104 0,-4.793 -1.1614,-8.65006 -3.5014,-11.57306 -2.33,-2.922 -5.8985,-5.25034 -10.6885,-6.98234 -2.44,-0.866 -4.7422,-1.54441 -6.8922,-2.03941 -2.15,-0.495 -4.3798,-1.00561 -6.6998,-1.53161 -3.59,-0.835 -6.0067,-1.76922 -7.2567,-2.80522 -1.25,-1.036 -1.8838,-2.43459 -1.8838,-4.19759 0,-1.206 0.3935,-2.29808 1.1835,-3.27208 0.79,-0.974 1.7294,-1.70822 2.8094,-2.20322 1.33,-0.618 2.6003,-1.03714 3.8003,-1.25314 1.21,-0.217 2.5688,-0.32352 4.0788,-0.32352 3.9,0 7.6988,0.75784 11.3888,2.27284 3.7,1.515 6.8326,3.37349 9.4026,5.56949 h 1.5275 v -15.77475 c -3.22,-1.422 -6.8601,-2.55174 -10.9301,-3.38674 -4.06,-0.835 -8.1492,-1.25314 -12.2692,-1.25314 z m -1098.11045,1.25314 v 69.06983 h 17.35141 v -22.58918 h 9.09137 c 2.474,0 4.70577,-0.2 6.69977,-0.602 1.995,-0.402 3.84392,-0.95885 5.54492,-1.67085 1.7,-0.711 3.25335,-1.57636 4.66035,-2.59636 1.407,-1.021 2.69907,-2.13569 3.87407,-3.34169 1.917,-1.948 3.38644,-4.37429 4.40644,-7.28129 1.021,-2.907 1.53161,-5.96956 1.53161,-9.18556 0,-3.99 -0.7106,-7.42893 -2.1336,-10.31993 -1.422,-2.892 -3.43425,-5.20529 -6.03225,-6.93729 -2.35,-1.577 -4.96771,-2.72526 -7.85871,-3.45226 -2.892,-0.727 -6.33503,-1.09342 -10.32403,-1.09342 z m 589.75955,0 v 69.06983 h 46.71 V 967.71303 H 1157.02 v -17.44151 h 27.1308 v -13.1702 H 1157.02 v -12.10954 h 29.4487 v -13.17429 z m 868.0415,0 v 69.06983 h 21.6104 c 4.76,0 9.2614,-0.33013 13.4814,-0.99513 4.22,-0.665 8.1182,-2.15707 11.7082,-4.47607 4.3,-2.721 7.8481,-6.6253 10.6681,-11.7123 2.81,-5.087 4.2221,-10.8488 4.2221,-17.2818 0,-6.679 -1.3096,-12.48393 -3.9396,-17.41693 -2.63,-4.932 -6.2204,-8.85035 -10.7704,-11.75735 -3.71,-2.381 -7.6811,-3.88264 -11.9211,-4.50064 -4.23,-0.619 -8.7789,-0.92961 -13.6289,-0.92961 z m 71.9405,0 v 69.06983 h 46.71 v -13.17429 h -29.4527 v -17.44151 h 27.1307 v -13.1702 h -27.1307 v -12.10954 h 29.4527 v -13.17429 z m -644.5412,2.08856 v 14.89018 h -6.2206 v 11.31917 h 6.2206 v 24.35422 c 0,6.185 1.5012,10.63758 4.5212,13.35858 3.02,2.722 7.8279,4.07883 14.4479,4.07883 2.88,0 5.3012,-0.13014 7.2812,-0.39314 1.98,-0.263 3.8487,-0.62533 5.6187,-1.08933 v -11.4584 h -1.3965 c -0.55,0.31 -1.5404,0.6528 -2.9404,1.0238 -1.41,0.371 -2.5513,0.55286 -3.4113,0.55286 -2.1,0 -3.6996,-0.31709 -4.7996,-0.95009 -1.1,-0.634 -1.8715,-1.48979 -2.3015,-2.57179 -0.46,-1.082 -0.7112,-2.30422 -0.7412,-3.66522 -0.03,-1.36 -0.049,-2.95511 -0.049,-4.77911 V 940.1154 h 15.6396 v -11.31917 h -15.6396 v -14.89018 z m 247.7521,0 v 14.89018 h -6.2206 v 11.31917 h 6.2206 v 24.35422 c 0,6.185 1.507,10.63758 4.517,13.35858 3.02,2.722 7.832,4.07883 14.452,4.07883 2.88,0 5.3113,-0.13014 7.2813,-0.39314 1.98,-0.263 3.8487,-0.62533 5.6187,-1.08933 v -11.4584 h -1.4006 c -0.55,0.31 -1.5304,0.6528 -2.9404,1.0238 -1.41,0.371 -2.5413,0.55286 -3.4113,0.55286 -2.1,0 -3.6996,-0.31709 -4.7996,-0.95009 -1.1,-0.634 -1.8574,-1.48979 -2.2974,-2.57179 -0.46,-1.082 -0.7112,-2.30422 -0.7412,-3.66522 -0.03,-1.36 -0.049,-2.95511 -0.049,-4.77911 V 940.1154 h 15.6396 v -11.31917 h -15.6396 v -14.89018 z m 96.3399,0 v 14.89018 h -6.2125 v 11.31917 h 6.2125 v 24.35422 c 0,6.185 1.5093,10.63758 4.5293,13.35858 3.01,2.722 7.8279,4.07883 14.4479,4.07883 2.87,0 5.3013,-0.13014 7.2813,-0.39314 1.98,-0.263 3.8504,-0.62533 5.6104,-1.08933 v -11.4584 h -1.3924 c -0.56,0.31 -1.5362,0.6528 -2.9362,1.0238 -1.41,0.371 -2.5513,0.55286 -3.4113,0.55286 -2.11,0 -3.7096,-0.31709 -4.7996,-0.95009 -1.1,-0.634 -1.8715,-1.48979 -2.3015,-2.57179 -0.47,-1.082 -0.7113,-2.30422 -0.7413,-3.66522 -0.03,-1.36 -0.049,-2.95511 -0.049,-4.77911 V 940.1154 h 15.6314 V 928.79623 H 1795.529 V 913.90605 Z M 567.35056,924.71331 h 2.45713 c 2.567,0 4.59777,0.0548 6.09777,0.16381 1.5,0.108 3.07049,0.51756 4.70949,1.22856 1.299,0.526 2.4137,1.49241 3.3417,2.89941 0.928,1.407 1.39237,3.08501 1.39237,5.03301 0,2.103 -0.21266,3.77145 -0.63066,5.00845 -0.417,1.237 -1.21251,2.43012 -2.38751,3.57512 -0.557,0.556 -1.35151,1.05904 -2.38751,1.50704 -1.036,0.449 -2.01646,0.75004 -2.94446,0.90504 -1.082,0.185 -2.35045,0.29352 -3.80445,0.32352 -1.453,0.031 -3.00087,0.0451 -4.63987,0.0451 h -1.204 z m 1457.78874,0 h 0.3317 c 3.59,0 6.667,0.0644 9.247,0.18838 2.59,0.124 5.05,0.8346 7.4,2.1336 3.25,1.824 5.654,4.35233 7.224,7.58433 1.56,3.232 2.3384,7.11717 2.3384,11.66317 0,4.546 -0.7519,8.39859 -2.2319,11.55259 -1.48,3.155 -3.6469,5.62752 -6.4869,7.42052 -2.42,1.516 -4.9634,2.3427 -7.6334,2.4817 -2.68,0.139 -5.9572,0.20885 -9.8572,0.20885 h -0.3317 z m -1390.52899,2.46122 c -8.504,0 -15.1171,2.44991 -19.8331,7.35091 -4.716,4.902 -7.07243,11.68191 -7.07243,20.34091 0,8.566 2.35643,15.31372 7.07243,20.24672 4.716,4.932 11.3291,7.40005 19.8331,7.40005 8.566,0 15.18906,-2.46805 19.87406,-7.40005 4.685,-4.933 7.03148,-11.68072 7.03148,-20.24672 0,-8.597 -2.35195,-15.36387 -7.05195,-20.29587 -4.701,-4.933 -11.31759,-7.39595 -19.85359,-7.39595 z m 144.07773,0 c -8.783,0 -15.61873,2.53381 -20.50473,7.60481 -4.886,5.072 -7.33042,11.86148 -7.33042,20.36548 0,8.69 2.6208,15.38292 7.8628,20.08292 5.242,4.701 12.77976,7.05195 22.61376,7.05195 2.69,0 4.9721,-0.13014 6.8431,-0.39314 1.871,-0.263 3.68772,-0.62532 5.45072,-1.08932 1.917,-0.464 3.42311,-0.9229 4.52111,-1.3719 1.098,-0.448 2.31065,-0.93189 3.64065,-1.45789 v -13.40773 h -1.7159 c -0.711,0.525 -1.63117,1.12909 -2.76017,1.81009 -1.129,0.68 -2.35569,1.31318 -3.68569,1.90018 -1.515,0.681 -3.18344,1.22927 -5.00844,1.64627 -1.824,0.418 -3.68349,0.62657 -5.56949,0.62657 -2.196,0 -4.22129,-0.20857 -6.07729,-0.62657 -1.855,-0.417 -3.47821,-1.10499 -4.86921,-2.06399 -1.423,-0.959 -2.56579,-2.24697 -3.43179,-3.86997 -0.866,-1.624 -1.37661,-3.64482 -1.53161,-6.05682 h 35.5792 v -5.84386 c 0,-8.01 -2.00815,-14.16322 -6.02815,-18.46122 -4.021,-4.299 -10.02045,-6.44586 -17.99845,-6.44586 z m 97.59707,0 c -8.782,0 -15.61872,2.53381 -20.50472,7.60481 -4.886,5.072 -7.33043,11.86148 -7.33043,20.36548 0,8.69 2.6249,15.38292 7.8669,20.08292 5.241,4.701 12.77566,7.05195 22.60966,7.05195 2.691,0 4.9721,-0.13014 6.8431,-0.39314 1.871,-0.263 3.68773,-0.62532 5.45073,-1.08932 1.917,-0.464 3.42411,-0.9229 4.52111,-1.3719 1.098,-0.448 2.31474,-0.93189 3.64474,-1.45789 v -13.40773 h -1.71999 c -0.711,0.525 -1.63117,1.12909 -2.76017,1.81009 -1.128,0.68 -2.35669,1.31318 -3.68569,1.90018 -1.516,0.681 -3.18445,1.22927 -5.00845,1.64627 -1.825,0.418 -3.67939,0.62657 -5.56539,0.62657 -2.196,0 -4.22229,-0.20857 -6.07729,-0.62657 -1.856,-0.417 -3.4813,-1.10499 -4.8733,-2.06399 -1.422,-0.959 -2.56579,-2.24697 -3.43179,-3.86997 -0.866,-1.624 -1.37661,-3.64482 -1.53161,-6.05682 h 35.57919 v -5.84386 c 0,-8.01 -2.00815,-14.16322 -6.02815,-18.46122 -4.02,-4.299 -10.01945,-6.44586 -17.99845,-6.44586 z m 649.18519,0 c -8.51,0 -15.119,2.44991 -19.829,7.35091 -4.72,4.902 -7.0807,11.68191 -7.0807,20.34091 0,8.566 2.3607,15.31372 7.0807,20.24672 4.71,4.932 11.319,7.40005 19.829,7.40005 8.56,0 15.1899,-2.46805 19.8699,-7.40005 4.69,-4.933 7.0315,-11.68072 7.0315,-20.24672 0,-8.597 -2.3519,-15.36387 -7.0519,-20.29587 -4.7,-4.933 -11.3195,-7.39595 -19.8495,-7.39595 z m 344.0878,0 c -8.5,0 -15.109,2.44991 -19.829,7.35091 -4.71,4.902 -7.0683,11.68191 -7.0683,20.34091 0,8.566 2.3583,15.31372 7.0683,20.24672 4.72,4.932 11.329,7.40005 19.829,7.40005 8.57,0 15.2023,-2.46805 19.8823,-7.40005 4.68,-4.933 7.0314,-11.68072 7.0314,-20.24672 0,-8.597 -2.3519,-15.36387 -7.0519,-20.29587 -4.7,-4.933 -11.3218,-7.39595 -19.8618,-7.39595 z m -473.0993,0.13924 c -3.64,0 -7.2582,0.31609 -10.8482,0.95009 -3.59,0.634 -6.1891,1.18227 -7.7891,1.64627 v 12.56821 h 1.3883 c 2.44,-1.082 4.9506,-1.96999 7.5106,-2.66599 2.57,-0.696 4.8085,-1.04428 6.7285,-1.04428 4.24,0 7.4095,0.54828 9.5295,1.64628 2.12,1.098 3.182,3.08663 3.182,5.96263 v 0.27847 c -4.7,0.31 -9.0902,0.74118 -13.1702,1.29818 -4.09,0.557 -7.5988,1.54603 -10.5288,2.96903 -2.91,1.391 -5.1434,3.27858 -6.6834,5.65958 -1.55,2.381 -2.3179,5.50485 -2.3179,9.36985 0,4.701 1.5203,8.59882 4.5703,11.69182 3.04,3.092 6.8689,4.63578 11.4789,4.63578 2.47,0 4.4001,-0.18595 5.7701,-0.55695 1.38,-0.371 2.7908,-0.9107 4.2508,-1.6217 1.48,-0.742 2.6606,-1.48579 3.5506,-2.22779 0.88,-0.743 1.8695,-1.57927 2.9895,-2.50627 v 5.52034 h 16.1392 v -35.43996 c 0,-6.123 -2.051,-10.67253 -6.151,-13.65753 -4.09,-2.984 -10.6297,-4.47606 -19.5997,-4.47606 z m 344.1002,0 c -3.65,0 -7.2682,0.31609 -10.8482,0.95009 -3.59,0.634 -6.1914,1.18227 -7.8014,1.64627 v 12.56821 h 1.4005 c 2.44,-1.082 4.9407,-1.96999 7.5107,-2.66599 2.57,-0.696 4.8084,-1.04428 6.7284,-1.04428 4.23,0 7.4095,0.54828 9.5295,1.64628 2.12,1.098 3.182,3.08663 3.182,5.96263 v 0.27847 c -4.7,0.31 -9.1025,0.74118 -13.1825,1.29818 -4.08,0.557 -7.5888,1.54603 -10.5288,2.96903 -2.9,1.391 -5.1292,3.27858 -6.6792,5.65958 -1.54,2.381 -2.322,5.50485 -2.322,9.36985 0,4.701 1.5302,8.59882 4.5702,11.69182 3.05,3.092 6.883,4.63578 11.483,4.63578 2.48,0 4.3983,-0.18595 5.7783,-0.55695 1.38,-0.371 2.7886,-0.9107 4.2386,-1.6217 1.49,-0.742 2.6705,-1.48579 3.5505,-2.22779 0.88,-0.743 1.8795,-1.57927 2.9895,-2.50627 v 5.52034 h 16.1516 v -35.43996 c 0,-6.123 -2.0511,-10.67253 -6.1511,-13.65753 -4.1,-2.984 -10.6296,-4.47606 -19.5996,-4.47606 z m -511.5984,0.0451 c -2.93,0 -5.5824,0.63217 -7.9324,1.90017 -2.35,1.268 -4.8565,3.03402 -7.5065,5.29102 v -5.75378 h -16.2416 v 52.09109 h 16.2416 V 943.9649 c 1.2,-0.835 2.4402,-1.56066 3.7102,-2.17866 1.26,-0.619 2.5564,-0.92961 3.8864,-0.92961 1.74,0 3.0924,0.25581 4.0624,0.76581 0.98,0.511 1.6982,1.32265 2.1582,2.43665 0.46,1.113 0.75,2.55883 0.86,4.33683 0.11,1.778 0.1597,3.93443 0.1597,6.47043 v 26.02097 h 16.3317 V 943.9649 c 1.42,-0.99 2.7296,-1.75642 3.9396,-2.29742 1.21,-0.541 2.4293,-0.81085 3.6693,-0.81085 1.76,0 3.1293,0.25581 4.0993,0.76581 0.97,0.511 1.6923,1.32265 2.1623,2.43665 0.46,1.113 0.7372,2.54925 0.8272,4.31225 0.1,1.762 0.1434,3.92801 0.1434,6.49501 v 26.02097 h 16.3276 v -33.90835 c 0,-3.711 -0.3594,-6.71775 -1.0894,-9.02175 -0.73,-2.304 -1.8179,-4.28853 -3.2679,-5.95853 -1.33,-1.546 -2.9533,-2.70793 -4.8733,-3.48093 -1.92,-0.773 -4.0791,-1.15894 -6.4991,-1.15894 -2.84,0 -5.6498,0.78046 -8.4198,2.34246 -2.76,1.562 -5.7093,3.79686 -8.8293,6.70386 -1.27,-3 -3.1103,-5.25748 -5.5203,-6.77348 -2.41,-1.515 -5.2093,-2.27284 -8.3993,-2.27284 z m 364.4206,0 c -3.06,0 -5.8629,0.63217 -8.3829,1.90017 -2.52,1.268 -5.1086,3.03402 -7.7686,5.29102 v -5.75378 h -16.2294 v 52.09109 h 16.2294 V 943.9649 c 1.55,-1.083 3.0014,-1.87204 4.3614,-2.36704 1.36,-0.495 2.7078,-0.74123 4.0378,-0.74123 1.76,0 3.1722,0.25581 4.2222,0.76581 1.05,0.511 1.858,1.35174 2.408,2.52674 0.47,0.99 0.7801,2.5273 0.9501,4.6153 0.17,2.087 0.2621,4.18315 0.2621,6.28615 v 25.83669 h 16.3276 v -33.90835 c 0,-6.37 -1.4081,-11.23114 -4.2181,-14.58714 -2.82,-3.355 -6.8896,-5.03301 -12.1996,-5.03301 z m 344.0878,0 c -3.06,0 -5.8506,0.63217 -8.3706,1.90017 -2.52,1.268 -5.1086,3.03402 -7.7686,5.29102 v -5.75378 h -16.2293 v 52.09109 h 16.2293 V 943.9649 c 1.55,-1.083 3.0014,-1.87204 4.3614,-2.36704 1.36,-0.495 2.7079,-0.74123 4.0379,-0.74123 1.76,0 3.1721,0.25581 4.2221,0.76581 1.05,0.511 1.848,1.35174 2.408,2.52674 0.46,0.99 0.7801,2.5273 0.9501,4.6153 0.17,2.087 0.2621,4.18315 0.2621,6.28615 v 25.83669 h 16.3194 v -33.90835 c 0,-6.37 -1.4022,-11.23114 -4.2222,-14.58714 -2.81,-3.355 -6.8796,-5.03301 -12.1996,-5.03301 z m -1094.953,1.25313 c -1.392,0 -2.87002,0.2558 -4.43102,0.7658 -1.562,0.51 -2.9315,1.11956 -4.1075,1.83056 -1.082,0.619 -2.2775,1.4457 -3.5915,2.4817 -1.315,1.036 -2.34579,1.89489 -3.08779,2.57589 v -7.46967 h -16.23341 v 52.09109 h 16.23341 v -34.88301 c 1.762,-0.68 3.57973,-1.26594 5.45073,-1.76094 1.871,-0.495 3.65963,-0.74123 5.36063,-0.74123 1.422,0 2.71955,0.0517 3.89455,0.15971 1.176,0.109 2.07155,0.27133 2.69055,0.48733 h 1.34733 v -15.35295 c -0.526,-0.061 -1.11504,-0.10823 -1.76504,-0.13923 -0.649,-0.031 -1.23594,-0.0451 -1.76094,-0.0451 z m -177.89598,0.18428 15.07857,52.09109 h 17.25312 l 9.18556,-33.67492 9.14052,33.67492 h 17.25312 l 15.2178,-52.09109 h -16.70027 l -7.84233,34.4653 -9.3207,-34.4653 h -14.33324 l -9.88174,34.4653 -7.97747,-34.4653 z m 385.33888,0 19.1124,50.83796 -7.8915,20.36548 h 17.4415 l 26.2995,-71.20344 h -16.7003 l -10.2503,32.65522 -10.9383,-32.65522 z m 237.5018,0 v 33.90835 c 0,6.556 1.4386,11.46338 4.3286,14.72638 2.89,3.262 6.9191,4.89788 12.0891,4.89788 3.24,0 6.0411,-0.61266 8.3911,-1.83466 2.35,-1.221 4.9322,-3.00654 7.7522,-5.35654 v 5.74968 h 16.2375 v -52.09109 h -16.2375 v 36.92243 c -1.33,0.959 -2.7809,1.71684 -4.3409,2.27284 -1.56,0.557 -2.9124,0.83542 -4.0624,0.83542 -1.85,0 -3.2987,-0.27842 -4.3287,-0.83542 -1.04,-0.556 -1.8015,-1.37513 -2.3015,-2.45713 -0.53,-1.175 -0.8592,-2.61125 -0.9992,-4.31225 -0.14,-1.701 -0.2089,-3.8992 -0.2089,-6.5892 v -25.83669 z m 186.2379,0 v 52.09109 h 16.2334 v -52.09109 z m 344.1001,0 v 52.09109 h 16.2294 v -52.09109 z m -1040.3638,8.8129 c 3.093,0 5.38815,0.89755 6.88815,2.69055 1.499,1.794 2.2955,4.40933 2.3875,7.84233 H 767.0904 c 0.185,-3.247 1.16645,-5.81609 2.94445,-7.70309 1.779,-1.886 4.24605,-2.82979 7.40005,-2.82979 z m 97.59708,0 c 3.092,0 5.38814,0.89755 6.88814,2.69055 1.5,1.794 2.29451,4.40933 2.38751,7.84233 h -19.62016 c 0.186,-3.247 1.16646,-5.81609 2.94446,-7.70309 1.778,-1.886 4.24505,-2.82979 7.40005,-2.82979 z m -240.42167,1.20809 c 1.547,0 2.92198,0.2558 4.12798,0.7658 1.206,0.511 2.2885,1.41203 3.2475,2.71103 0.897,1.237 1.59903,2.88692 2.10903,4.94292 0.511,2.057 0.76581,4.62747 0.76581,7.71947 0,3.309 -0.24724,5.90171 -0.74124,7.77271 -0.495,1.871 -1.22374,3.47059 -2.18274,4.79959 -0.804,1.114 -1.87793,1.95027 -3.22293,2.50627 -1.346,0.557 -2.66617,0.83542 -3.96417,0.83542 -1.578,0 -3.01835,-0.27842 -4.31635,-0.83542 -1.299,-0.556 -2.3815,-1.4395 -3.2475,-2.6455 -0.834,-1.175 -1.51342,-2.7455 -2.03942,-4.7095 -0.525,-1.964 -0.78628,-4.53757 -0.78628,-7.72357 0,-3.185 0.27433,-5.82942 0.83133,-7.93242 0.557,-2.102 1.30079,-3.7533 2.22779,-4.9593 0.99,-1.268 2.07151,-2.12789 3.24751,-2.57589 1.175,-0.449 2.49068,-0.67161 3.94368,-0.67161 z m 890.85999,0 c 1.54,0 2.918,0.2558 4.128,0.7658 1.2,0.511 2.2834,1.41203 3.2434,2.71103 0.9,1.237 1.599,2.88692 2.109,4.94292 0.51,2.057 0.7699,4.62747 0.7699,7.71947 0,3.309 -0.2512,5.90171 -0.7412,7.77271 -0.5,1.871 -1.2287,3.47059 -2.1787,4.79959 -0.81,1.114 -1.8811,1.95027 -3.2311,2.50627 -1.34,0.557 -2.6701,0.83542 -3.9601,0.83542 -1.58,0 -3.0204,-0.27842 -4.3204,-0.83542 -1.3,-0.556 -2.3775,-1.4395 -3.2475,-2.6455 -0.83,-1.175 -1.5135,-2.7455 -2.0435,-4.7095 -0.52,-1.964 -0.7863,-4.53757 -0.7863,-7.72357 0,-3.185 0.2795,-5.82942 0.8395,-7.93242 0.56,-2.102 1.2978,-3.7533 2.2278,-4.9593 0.99,-1.268 2.0693,-2.12789 3.2393,-2.57589 1.18,-0.449 2.4919,-0.67161 3.9519,-0.67161 z m 344.0878,0 c 1.55,0 2.9321,0.2558 4.1321,0.7658 1.21,0.511 2.2916,1.41203 3.2516,2.71103 0.9,1.237 1.599,2.88692 2.109,4.94292 0.51,2.057 0.7576,4.62747 0.7576,7.71947 0,3.309 -0.2371,5.90171 -0.7371,7.77271 -0.49,1.871 -1.2228,3.47059 -2.1828,4.79959 -0.8,1.114 -1.8788,1.95027 -3.2188,2.50627 -1.35,0.557 -2.6682,0.83542 -3.9682,0.83542 -1.58,0 -3.0123,-0.27842 -4.3123,-0.83542 -1.3,-0.556 -2.3775,-1.4395 -3.2475,-2.6455 -0.83,-1.175 -1.5135,-2.7455 -2.0435,-4.7095 -0.53,-1.964 -0.7863,-4.53757 -0.7863,-7.72357 0,-3.185 0.2795,-5.82942 0.8395,-7.93242 0.55,-2.102 1.2896,-3.7533 2.2196,-4.9593 0.99,-1.268 2.0675,-2.12789 3.2475,-2.57589 1.18,-0.449 2.4896,-0.67161 3.9396,-0.67161 z m -936.26355,0.74123 c 0.928,0 2.03859,0.13114 3.33759,0.39314 1.299,0.263 2.35341,0.59723 3.15741,0.99923 v 25.55821 c -1.206,0.958 -2.53883,1.71585 -3.99283,2.27285 -1.453,0.556 -2.88926,0.83542 -4.31226,0.83542 -3.494,0 -6.02233,-1.14379 -7.58433,-3.43179 -1.562,-2.288 -2.34246,-6.00088 -2.34246,-11.13488 0,-4.886 0.98046,-8.68825 2.94446,-11.40925 1.964,-2.721 4.89642,-4.08293 8.79242,-4.08293 z m 87.80545,0.41771 c 3.28,0 5.7094,1.1116 7.2894,3.3376 1.57,2.227 2.3589,5.93988 2.3589,11.13488 0,5.196 -0.9594,9.08973 -2.8994,11.68773 -1.93,2.597 -4.8583,3.89864 -8.7883,3.89864 -1.08,0 -2.1721,-0.0784 -3.2721,-0.23343 -1.1,-0.154 -2.188,-0.44747 -3.268,-0.88047 V 942.7609 c 1.39,-0.928 2.8108,-1.62455 4.2508,-2.08855 1.43,-0.463 2.8787,-0.69619 4.3287,-0.69619 z m 943.7004,3.98874 v 12.89582 h 30.751 V 943.9649 Z m -558.7301,12.47811 v 10.85231 c -1.21,1.175 -2.552,2.09069 -4.042,2.73969 -1.48,0.65 -2.9373,0.97466 -4.3573,0.97466 -2.57,0 -4.5093,-0.4558 -5.8193,-1.3678 -1.31,-0.912 -1.9698,-2.59001 -1.9698,-5.03301 0,-1.67 0.3895,-3.00731 1.1795,-4.01331 0.79,-1.005 1.8871,-1.75737 3.3171,-2.25237 1.64,-0.588 3.3125,-0.97842 5.0125,-1.17942 1.7,-0.201 3.9293,-0.44275 6.6793,-0.72075 z m 344.0878,0 v 10.85231 c -1.2,1.175 -2.5496,2.09069 -4.0296,2.73969 -1.49,0.65 -2.9374,0.97466 -4.3574,0.97466 -2.57,0 -4.5092,-0.4558 -5.8192,-1.3678 -1.32,-0.912 -1.9739,-2.59001 -1.9739,-5.03301 0,-1.67 0.3935,-3.00731 1.1835,-4.01331 0.79,-1.005 1.8889,-1.75737 3.3089,-2.25237 1.64,-0.588 3.3085,-0.97842 5.0085,-1.17942 1.7,-0.201 3.9292,-0.44275 6.6792,-0.72075 z"
       style="fill:url(#linearGradient27)" /></g><g
     id="Gamepad"
     transform="matrix(0.476929,0,0,0.476929,0,477.992)"><path
       d="M 282.082 100 C 282.082 127.596 259.678 150 232.082 150 L 50 150 C 22.404 150 0 127.596 0 100 L 0 50 C 0 22.404 22.404 0 50 0 L 232.082 0 C 259.678 0 282.082 22.404 282.082 50 Z M 41.412 60.799 L 28.71 60.799 C 23.304 60.799 18.916 65.188 18.916 70.593 L 18.916 80.387 C 18.916 85.792 23.304 90.18 28.71 90.18 L 41.412 90.18 L 41.412 102.216 C 41.412 107.735 45.893 112.216 51.412 112.216 L 61.412 112.216 C 66.932 112.216 71.412 107.735 71.412 102.216 L 71.412 90.18 L 84.122 90.18 C 89.528 90.18 93.916 85.792 93.916 80.387 L 93.916 70.593 C 93.916 65.188 89.528 60.799 84.122 60.799 L 71.412 60.799 L 71.412 48.763 C 71.412 43.244 66.932 38.763 61.412 38.763 L 51.412 38.763 C 45.893 38.763 41.412 43.244 41.412 48.763 Z M 188.164 57.127 C 188.164 67.261 196.566 75.49 206.914 75.49 C 217.262 75.49 225.664 67.261 225.664 57.127 C 225.664 46.992 217.262 38.763 206.914 38.763 C 196.566 38.763 188.164 46.992 188.164 57.127 Z M 225.664 93.853 C 225.664 103.988 234.066 112.216 244.414 112.216 C 254.762 112.216 263.164 103.988 263.164 93.853 C 263.164 83.718 254.762 75.49 244.414 75.49 C 234.066 75.49 225.664 83.718 225.664 93.853 Z"
       fill="url(#_Linear1)"
       id="path9" /></g><g
     style="clip-rule:evenodd;fill-rule:evenodd;image-rendering:optimizeQuality;shape-rendering:geometricPrecision;text-rendering:geometricPrecision"
     id="g12"
     transform="matrix(0.34025699,0,0,0.31004895,-950.83506,1267.5794)"><path
       class="fil0"
       d="m 5864.4961,-3842.5082 c -13,-8 -34,-8 -57,-8 -23,-1 -47,-3 -63,-9 -17,-6 -25,-16 -27,-29 -3,-12 2,-27 8,-39 6,-11 14,-20 21,-28 -1,17 -1,34 -2,43 0,8 0,8 8,9 9,0 25,1 45,0 19,-1 41,-4 58,-6 18,-2 31,-3 44,-7 13,-3 27,-8 44,-13 16,-4 35,-7 54,-7 20,0 39,3 53,9 14,7 22,16 32,22 10,6 23,9 38,10 15,1 31,0 41,0 11,0 16,1 16,-9 -1,-10 -6,-31 -12,-52 18,27 36,54 37,78 1,24 -15,45 -9,42 6,-3 36,-30 71,-39 35,-9 76,1 104,10 28,10 43,21 57,33 13,13 26,27 38,47 12,20 22,45 27,78 5,34 5,76 -1,123 -6,48 -18,100 -32,141 -13,40 -29,69 -38,111 -10,43 -13,100 -14,139 0,40 2,62 5,82 2,20 3,37 -2,47 -5,10 -17,12 -27,14 -11,2 -19,3 -22,-1 -3,-4 -1,-13 -3,-12 -3,0 -11,10 -18,13 -7,3 -14,-1 -17,-7 -2,-6 -1,-14 3,-23 4,-9 10,-17 15,-47 6,-30 10,-80 11,-124 1,-43 -2,-79 -4,-108 -1,-29 -2,-51 -10,-51 -7,0 -21,22 -26,65 -6,42 -3,106 -1,147 3,41 5,59 5,72 0,14 -2,24 -4,32 -2,9 -4,17 -8,20 -5,3 -11,2 -16,-2 -5,-4 -9,-11 -12,-18 -2,8 -4,16 -10,17 -6,1 -17,-6 -18,-15 0,-8 8,-17 13,-55 5,-38 6,-104 -1,-117 -6,-12 -20,29 -29,63 -9,33 -14,59 -17,83 -3,24 -4,47 -1,66 3,19 10,34 15,49 5,15 6,30 6,43 0,13 -1,24 -7,30 -6,5 -16,5 -23,0 -6,-6 -8,-17 -10,-18 -3,-1 -6,7 -14,7 -8,0 -20,-8 -25,-21 -4,-12 0,-29 4,-55 3,-27 7,-63 8,-90 1,-26 -1,-43 1,-66 1,-23 6,-52 5,-74 -1,-23 -9,-40 -18,-49 -8,-9 -18,-10 -30,-6 -12,4 -26,14 -37,18 -11,4 -18,4 -18,37 -1,34 5,102 9,146 4,44 6,65 8,81 2,16 5,27 3,41 -1,14 -6,30 -18,42 -11,13 -29,22 -37,17 -7,-4 -4,-21 -9,-22 -4,-1 -17,13 -23,13 -6,0 -5,-14 -2,-29 3,-15 8,-30 13,-46 5,-17 9,-35 12,-56 4,-21 6,-45 6,-66 -1,-22 -4,-41 -10,-61 -5,-19 -13,-40 -24,-59 -10,-20 -24,-38 -34,-60 -10,-22 -16,-48 -17,-69 -1,-21 4,-37 5,-53 2,-16 1,-32 -3,-47 -4,-15 -12,-29 -18,-42 -5,-13 -9,-24 -12,-36 -3,-12 -5,-25 -7,-39 -2,-13 -3,-27 -1,-38 1,-12 4,-22 5,-39 0,-18 -2,-44 -5,-60 -3,-16 -7,-23 -10,-31 -4,-8 -7,-16 -9,-24 -3,-8 -3,-15 -6,-25 -3,-11 -7,-26 -20,-33 z"
       id="path1"
       style="fill:#e11d1d;fill-opacity:1" /></g></svg>
