<?xml version="1.0" encoding="UTF-8" standalone="no"?>
<svg
   id="svg29"
   version="1.1"
   viewBox="0 0 1280 800"
   sodipodi:docname="rd-retoro-dekku-splash.svg"
   inkscape:version="1.4.3 (0d15f75042, 2025-12-25)"
   xmlns:inkscape="http://www.inkscape.org/namespaces/inkscape"
   xmlns:sodipodi="http://sodipodi.sourceforge.net/DTD/sodipodi-0.dtd"
   xmlns:xlink="http://www.w3.org/1999/xlink"
   xmlns="http://www.w3.org/2000/svg"
   xmlns:svg="http://www.w3.org/2000/svg">
  <sodipodi:namedview
     id="namedview1"
     pagecolor="#ffffff"
     bordercolor="#000000"
     borderopacity="0.25"
     inkscape:showpageshadow="2"
     inkscape:pageopacity="0.0"
     inkscape:pagecheckerboard="0"
     inkscape:deskcolor="#d1d1d1"
     inkscape:zoom="0.99875"
     inkscape:cx="640.30038"
     inkscape:cy="400.50063"
     inkscape:window-width="3840"
     inkscape:window-height="2082"
     inkscape:window-x="0"
     inkscape:window-y="0"
     inkscape:window-maximized="1"
     inkscape:current-layer="svg29" />
  <defs
     id="defs33">
    <linearGradient
       id="linearGradient20"
       inkscape:collect="always">
      <stop
         style="stop-color:#c957e6;stop-opacity:1;"
         offset="0"
         id="stop20" />
      <stop
         style="stop-color:#1a9fff;stop-opacity:1;"
         offset="1"
         id="stop21" />
    </linearGradient>
    <linearGradient
       id="linearGradient14"
       inkscape:collect="always">
      <stop
         style="stop-color:#000000;stop-opacity:1;"
         offset="0"
         id="stop18" />
      <stop
         style="stop-color:#000000;stop-opacity:0;"
         offset="1"
         id="stop19" />
    </linearGradient>
    <linearGradient
       id="linearGradient8947"
       x1="44.404"
       x2="1324.4"
       y1="472.79"
       y2="472.79"
       gradientUnits="userSpaceOnUse">
      <stop
         id="stop8941"
         stop-color="#c957e6"
         offset="0" />
      <stop
         id="stop8943"
         stop-color="#1a9fff"
         offset="1" />
    </linearGradient>
    <linearGradient
       inkscape:collect="always"
       xlink:href="#linearGradient11"
       id="linearGradient12"
       x1="491.09894"
       y1="555.23328"
       x2="1261.6956"
       y2="555.23328"
       gradientUnits="userSpaceOnUse" />
    <linearGradient
       id="linearGradient11"
       inkscape:collect="always">
      <stop
         style="stop-color:#c957e6;stop-opacity:1;"
         offset="0"
         id="stop11" />
      <stop
         style="stop-color:#1a9fff;stop-opacity:1;"
         offset="1"
         id="stop12" />
    </linearGradient>
    <linearGradient
       inkscape:collect="always"
       xlink:href="#linearGradient11"
       id="linearGradient10"
       x1="5.3600779"
       y1="376.94724"
       x2="631.23297"
       y2="376.94724"
       gradientUnits="userSpaceOnUse" />
    <linearGradient
       id="_Linear1-7"
       x1="0"
       y1="0"
       x2="1"
       y2="0"
       gradientUnits="userSpaceOnUse"
       gradientTransform="matrix(282.082,0,0,150,0,75)">
      <stop
         offset="0"
         style="stop-color:rgb(201,87,230);stop-opacity:1"
         id="stop14" />
      <stop
         offset="0.01"
         style="stop-color:rgb(201,87,230);stop-opacity:1"
         id="stop15" />
      <stop
         offset="0.9"
         style="stop-color:rgb(26,159,255);stop-opacity:1"
         id="stop16" />
      <stop
         offset="1"
         style="stop-color:rgb(26,159,255);stop-opacity:1"
         id="stop17" />
    </linearGradient>
    <linearGradient
       inkscape:collect="always"
       xlink:href="#linearGradient11"
       id="linearGradient1"
       gradientUnits="userSpaceOnUse"
       x1="491.09894"
       y1="555.23328"
       x2="1261.6956"
       y2="555.23328" />
    <linearGradient
       inkscape:collect="always"
       xlink:href="#linearGradient14"
       id="linearGradient19"
       x1="490.06472"
       y1="555.23323"
       x2="1261.9341"
       y2="555.23323"
       gradientUnits="userSpaceOnUse" />
    <linearGradient
       inkscape:collect="always"
       xlink:href="#linearGradient20"
       id="linearGradient21"
       x1="370.12015"
       y1="588.429"
       x2="761.44635"
       y2="588.429"
       gradientUnits="userSpaceOnUse"
       gradientTransform="translate(-8.0100125,-111.13892)" />
  </defs>
  <linearGradient
     id="_Linear1"
     x2="1"
     gradientTransform="matrix(282.08 0 0 150 0 75)"
     gradientUnits="userSpaceOnUse">
    <stop
       id="stop2"
       stop-color="#c957e6"
       offset="0" />
    <stop
       id="stop4"
       stop-color="#c957e6"
       offset=".01" />
    <stop
       id="stop6"
       stop-color="#1a9fff"
       offset=".9" />
    <stop
       id="stop8"
       stop-color="#1a9fff"
       offset="1" />
  </linearGradient>
  <g
     id="g10"
     inkscape:label="Powered by"
     transform="translate(-433.24342,-81.61212)"
     style="fill:url(#linearGradient12);stroke:#000000;stroke-opacity:1;stroke-width:2.024;stroke-dasharray:none">
    <text
       xml:space="preserve"
       style="font-style:normal;font-variant:normal;font-weight:bold;font-stretch:normal;font-size:49.1904px;font-family:Dreams;-inkscape-font-specification:'Dreams Bold';letter-spacing:0px;display:inline;fill:url(#linearGradient1);fill-opacity:1;stroke:#000000;stroke-width:2.02400002;stroke-linecap:round;stroke-linejoin:bevel;stroke-opacity:1;stroke-dasharray:none"
       x="467.97031"
       y="595.7644"
       id="text10"
       inkscape:label="テイキョウ:"
       transform="scale(1.04013,0.96141827)"><tspan
         sodipodi:role="line"
         id="tspan10"
         x="467.97031"
         y="595.7644"
         style="font-style:normal;font-variant:normal;font-weight:bold;font-stretch:normal;font-size:49.1904px;font-family:Dreams;-inkscape-font-specification:'Dreams Bold';fill:url(#linearGradient1);stroke-width:2.02400002;stroke:#000000;stroke-opacity:1;stroke-dasharray:none">テイキョウ：</tspan></text>
  </g>
  <g
     id="g2"
     inkscape:label="レトロデック"
     transform="translate(2.7025168,-104.70307)"
     style="display:inline;stroke:#000000;stroke-opacity:1;stroke-width:2.024;stroke-dasharray:none">
    <text
       xml:space="preserve"
       style="font-style:normal;font-variant:normal;font-weight:normal;font-stretch:normal;font-size:233.013px;font-family:Dreams;-inkscape-font-specification:Dreams;letter-spacing:0px;display:inline;fill:url(#linearGradient10);fill-opacity:1;stroke:#000000;stroke-width:2.024;stroke-linecap:round;stroke-linejoin:bevel;stroke-opacity:1;stroke-dasharray:none"
       x="-40.077457"
       y="463.9776"
       id="text11"
       inkscape:label="レトロ"
       transform="scale(0.95004123,1.0525859)"><tspan
         sodipodi:role="line"
         id="tspan11"
         x="-40.077457"
         y="463.9776"
         style="font-style:normal;font-variant:normal;font-weight:bold;font-stretch:normal;font-family:Dreams;-inkscape-font-specification:'Dreams Bold';fill:url(#linearGradient10);fill-opacity:1;stroke:#000000;stroke-width:2.024;stroke-opacity:1;stroke-dasharray:none">レトロ</tspan></text>
    <text
       xml:space="preserve"
       style="font-style:normal;font-variant:normal;font-weight:normal;font-stretch:normal;font-size:233.013px;font-family:Dreams;-inkscape-font-specification:Dreams;letter-spacing:0px;display:inline;fill:#ffffff;fill-opacity:1;stroke:#000000;stroke-width:2.024;stroke-linecap:round;stroke-linejoin:bevel;stroke-opacity:1;stroke-dasharray:none"
       x="865.45129"
       y="463.12082"
       id="text1"
       inkscape:label="デック"
       transform="scale(0.95004123,1.0525859)"><tspan
         sodipodi:role="line"
         id="tspan1"
         x="865.45129"
         y="463.12082"
         style="font-style:normal;font-variant:normal;font-weight:bold;font-stretch:normal;font-family:Dreams;-inkscape-font-specification:'Dreams Bold';fill:#ffffff;fill-opacity:1;stroke:#000000;stroke-width:2.024;stroke-opacity:1;stroke-dasharray:none">ック</tspan></text>
    <path
       style="font-weight:bold;font-size:233.013px;font-family:Dreams;-inkscape-font-specification:'Dreams Bold';letter-spacing:0px;fill:#ffffff;stroke:#000000;stroke-width:2.024;stroke-linecap:round;stroke-linejoin:bevel;stroke-opacity:1;stroke-dasharray:none"
       d="m 673.47799,349.54325 v 30.52471 c 6.52436,-0.46603 15.61187,-0.93205 22.36924,-0.93205 h 64.07858 c -0.93205,19.57309 -4.89327,37.04906 -14.44681,51.49587 -9.32052,13.74777 -25.63143,27.02951 -42.17535,33.32086 l 27.26252,19.8061 c 20.73816,-10.48558 38.68016,-28.42758 46.83561,-44.73849 8.38847,-16.31091 13.51476,-35.88401 14.91284,-59.88434 h 56.15613 c 6.52436,0 15.37886,0.23301 21.20418,0.69903 v -30.29169 c -6.05834,0.93206 -16.31091,1.39808 -21.20418,1.39808 H 695.84723 c -7.2234,0 -15.37885,-0.46602 -22.36924,-1.39808 z"
       transform="scale(0.95004123,1.0525859)"
       id="path3"
       inkscape:label="half DE" />
    <path
       style="font-weight:bold;font-size:233.013px;font-family:Dreams;-inkscape-font-specification:'Dreams Bold';letter-spacing:0px;fill:#ffffff;stroke:#000000;stroke-width:2.024;stroke-linecap:round;stroke-linejoin:bevel;stroke-opacity:1;stroke-dasharray:none"
       d="m 845.67603,253.28205 -17.48837,8.09378 c 5.97704,9.32013 13.06094,23.54556 17.70975,33.84675 l 17.48838,-8.58433 c -3.76332,-8.58431 -11.95408,-24.03608 -17.70976,-33.3562 z"
       id="path2"
       inkscape:label="ten" />
    <path
       style="font-weight:bold;font-size:233.013px;font-family:Dreams;-inkscape-font-specification:'Dreams Bold';letter-spacing:0px;fill:#ffffff;stroke:#000000;stroke-width:2.024;stroke-linecap:round;stroke-linejoin:bevel;stroke-opacity:1;stroke-dasharray:none"
       d="m 819.55415,264.31903 -17.70976,8.09379 c 5.97704,9.32011 12.83957,24.03608 17.48839,34.092 l 17.70976,-8.58432 c -4.20607,-9.07485 -11.95409,-24.52662 -17.48839,-33.60147 z"
       id="text2"
       inkscape:label="ten" />
  </g>
  <path
     id="path2-6"
     style="white-space:pre;shape-inside:url(#rect752);display:inline;fill:url(#linearGradient21);stroke:#000000;stroke-width:2.024;stroke-dasharray:none;stroke-opacity:1;paint-order:fill markers stroke"
     inkscape:label="Powered by"
     d="m 563.29373,456.79005 v 32.41797 h 6.98047 l 0.3125,-1.16797 c 0.97218,0.55557 1.88892,0.96659 2.75,1.23047 0.86109,0.26389 1.87435,0.39453 3.04102,0.39453 2.79151,0 5.13262,-1.14587 7.02148,-3.4375 1.88881,-2.30555 2.83204,-5.31889 2.83204,-9.04102 0,-3.76379 -0.74248,-6.70903 -2.22852,-8.83398 -1.47227,-2.12496 -3.56887,-3.1875 -6.29102,-3.1875 -1.45837,0 -2.74439,0.28409 -3.85547,0.85352 -1.11107,0.56948 -2.20015,1.31384 -3.26953,2.23046 v -11.45898 z m -25.37305,0.002 v 9.95703 c -1.04167,-0.54166 -1.95837,-0.9375 -2.74999,-1.18749 -0.77778,-0.26389 -1.77783,-0.39649 -3.00001,-0.39649 -1.34717,0 -2.6257,0.29928 -3.83398,0.89649 -1.20827,0.58328 -2.23677,1.3826 -3.08398,2.39648 -0.93048,1.11107 -1.65974,2.41604 -2.18751,3.91601 -0.52777,1.49997 -0.79101,3.27085 -0.79101,5.3125 0,3.69443 0.77842,6.64526 2.33399,8.85352 1.55544,2.20825 3.66538,3.3125 6.33203,3.3125 0.79168,0 1.47354,-0.0681 2.04297,-0.20703 0.56948,-0.13888 1.14519,-0.34723 1.72851,-0.625 0.45829,-0.22222 0.98677,-0.55556 1.58399,-1 0.61108,-0.44444 1.15277,-0.86112 1.62499,-1.25 v 2.4375 h 7.29102 v -32.41602 z m 127.45506,0.83203 c -3.6804,0 -6.74876,0.90345 -9.207,2.70898 -2.45825,1.79167 -3.68751,4.13829 -3.68751,7.04103 0,2.15272 0.52082,3.94443 1.5625,5.375 1.04168,1.43057 2.76327,2.56881 5.16602,3.41601 1.04168,0.36111 2.15914,0.66797 3.35349,0.91797 1.2083,0.24999 2.3409,0.51324 3.3965,0.79102 0.8472,0.22221 1.5764,0.57641 2.1875,1.0625 0.6111,0.48609 0.916,1.11872 0.916,1.89648 0,0.69442 -0.1875,1.25695 -0.5625,1.6875 -0.375,0.41666 -0.8333,0.74241 -1.375,0.97851 -0.4444,0.20833 -1.0354,0.36179 -1.7715,0.45899 -0.7221,0.0972 -1.3055,0.14453 -1.75,0.14453 -1.76382,0 -3.58204,-0.35411 -5.457,-1.0625 -1.87493,-0.70838 -3.59091,-1.72164 -5.14648,-3.04102 h -0.70702 v 7.375 c 1.54166,0.68049 3.20833,1.24871 4.99999,1.70703 1.80546,0.45833 3.89461,0.68751 6.26951,0.68751 4.1249,0 7.3959,-0.93757 9.8125,-2.8125 2.4305,-1.87496 3.6465,-4.35232 3.6465,-7.43556 0,-2.15272 -0.5284,-3.88194 -1.584,-5.18749 -1.0417,-1.31937 -2.6383,-2.36872 -4.791,-3.14648 -1.0973,-0.38888 -2.1333,-0.69381 -3.1055,-0.91602 -0.9582,-0.22223 -1.9583,-0.45139 -3,-0.6875 -1.611,-0.37499 -2.70005,-0.79168 -3.26949,-1.25 -0.55554,-0.47219 -0.83398,-1.10483 -0.83398,-1.89648 0,-0.54163 0.17426,-1.02845 0.52148,-1.45899 0.36107,-0.44444 0.78343,-0.77779 1.26949,-1 0.5972,-0.27778 1.1674,-0.4653 1.709,-0.5625 0.5416,-0.0972 1.1535,-0.14453 1.834,-0.14453 1.75,0 3.4508,0.33899 5.1035,1.01953 1.6667,0.68059 3.0758,1.51391 4.2285,2.5 h 0.6875 v -7.08203 c -1.4444,-0.63884 -3.0827,-1.1465 -4.916,-1.52149 -1.8193,-0.37496 -3.6528,-0.5625 -5.5,-0.5625 z m -302.5156,0.5625 v 31.02149 h 7.79296 v -10.14649 h 4.08204 c 1.11108,0 2.11112,-0.0909 3,-0.27148 0.90278,-0.18056 1.73613,-0.43057 2.5,-0.75 0.76386,-0.31945 1.45899,-0.7077 2.08398,-1.16602 0.63889,-0.45826 1.22225,-0.95834 1.75,-1.5 0.86109,-0.87498 1.5202,-1.96396 1.97852,-3.26953 0.45832,-1.30554 0.6875,-2.68063 0.6875,-4.12499 0,-1.79167 -0.31815,-3.33334 -0.95703,-4.62501 -0.63889,-1.30557 -1.54231,-2.34723 -2.70898,-3.12499 -1.05558,-0.70835 -2.23545,-1.22356 -3.54102,-1.54297 -1.29167,-0.33332 -2.83334,-0.50001 -4.625,-0.50001 z m 264.87109,0 v 31.01953 h 20.97852 v -5.91601 h -13.22851 v -7.83203 h 12.18749 v -5.91797 h -12.18749 v -5.4375 h 13.22851 v -5.91602 z m 71.66411,0 v 31.02149 h 9.7089 c 2.1389,0 4.1522,-0.14583 6.0411,-0.4375 1.9026,-0.30549 3.6604,-0.97981 5.2714,-2.02149 1.9306,-1.22217 3.5272,-2.97224 4.7911,-5.25 1.2638,-2.29155 1.8945,-4.88265 1.8945,-7.77148 0,-2.99991 -0.589,-5.60425 -1.7695,-7.8125 -1.1805,-2.22226 -2.7924,-3.98547 -4.834,-5.29101 -1.6667,-1.06939 -3.4508,-1.74372 -5.3535,-2.02149 -1.9028,-0.27777 -3.9445,-0.41602 -6.125,-0.41602 z m 32.3125,0 v 31.01953 h 20.9785 v -5.91601 h -13.2285 v -7.83203 h 12.1875 v -5.91797 h -12.1875 v -5.4375 h 13.2285 v -5.91602 z m -24.5215,5.79102 h 0.1465 c 1.611,0 2.9937,0.0285 4.1464,0.084 1.1666,0.0555 2.2765,0.37566 3.3321,0.95898 1.4583,0.81948 2.536,1.95775 3.2304,3.41602 0.7083,1.44447 1.0625,3.18688 1.0625,5.22851 v 0.002 c 0,2.04162 -0.3333,3.77095 -1,5.18749 -0.6666,1.41657 -1.6401,2.52651 -2.9179,3.33204 -1.0833,0.68051 -2.2293,1.0556 -3.4375,1.125 -1.1945,0.0555 -2.6661,0.084 -4.416,0.084 h -0.1465 z m -336.53519,0.002 h 1.10547 c 1.15278,0 2.06187,0.0265 2.72852,0.082 0.68056,0.0417 1.38891,0.22352 2.125,0.54297 0.58332,0.23609 1.08334,0.67364 1.5,1.31249 0.41666,0.62499 0.625,1.37502 0.625,2.25 0,0.94438 -0.0966,1.69447 -0.29102,2.25 -0.18054,0.55559 -0.53473,1.08964 -1.0625,1.60352 -0.24996,0.25 -0.61177,0.47917 -1.08398,0.6875 -0.45832,0.19444 -0.89583,0.32708 -1.3125,0.39648 -0.48609,0.0833 -1.05624,0.13064 -1.70898,0.14454 -0.65269,0.0138 -1.34594,0.0215 -2.08204,0.0215 h -0.54297 z m 30.20899,1.10352 c -3.81942,0 -6.79106,1.10424 -8.91602,3.3125 -2.11103,2.19435 -3.16796,5.23621 -3.16796,9.125 0,3.84712 1.05693,6.88136 3.16796,9.10352 2.12496,2.20825 5.0967,3.3125 8.91602,3.3125 3.84719,0 6.81886,-1.10425 8.91602,-3.3125 2.11105,-2.22216 3.16601,-5.2564 3.16601,-9.10352 0,-3.86099 -1.05496,-6.89529 -3.16601,-9.10351 -2.11106,-2.22216 -5.08283,-3.33399 -8.91602,-3.33399 z m 64.70703,0 c -3.94431,0 -7.01453,1.13836 -9.20898,3.41601 -2.19446,2.27766 -3.29102,5.32717 -3.29102,9.14649 0,3.90259 1.17238,6.9085 3.51953,9.01953 2.36135,2.11105 5.75139,3.16797 10.16797,3.16797 1.20827,0 2.22919,-0.0625 3.0625,-0.1875 0.84719,-0.1111 1.66538,-0.27214 2.45703,-0.48047 0.86109,-0.20832 1.53539,-0.40908 2.02149,-0.60351 0.49996,-0.20833 1.04731,-0.42992 1.64453,-0.66602 v -6.02148 h -0.76954 c -0.31944,0.2361 -0.73611,0.50695 -1.24999,0.8125 -0.49999,0.30555 -1.04928,0.58963 -1.64649,0.85351 -0.68058,0.30554 -1.43057,0.55556 -2.25,0.75 -0.81938,0.1805 -1.65279,0.27149 -2.5,0.27149 -0.98608,0 -1.8952,-0.091 -2.72851,-0.27149 -0.83328,-0.19444 -1.56252,-0.50695 -2.1875,-0.9375 -0.63891,-0.43059 -1.15214,-1.0063 -1.54102,-1.72852 -0.38888,-0.73608 -0.618,-1.64524 -0.6875,-2.72851 h 15.97852 v -2.625 c 0,-3.59722 -0.90342,-6.36046 -2.70899,-8.29101 -1.80546,-1.93048 -4.49883,-2.89649 -8.08203,-2.89649 z m 43.83203,0 c -3.94429,0 -7.01258,1.13836 -9.20703,3.41601 -2.19445,2.27766 -3.29297,5.32717 -3.29297,9.14649 0,3.90259 1.17433,6.9085 3.52149,9.01953 2.36135,2.11105 5.74941,3.16797 10.16601,3.16797 1.20828,0 2.22919,-0.0625 3.0625,-0.1875 0.84718,-0.1111 1.66734,-0.27214 2.45899,-0.48047 0.86108,-0.20832 1.53538,-0.40908 2.02148,-0.60351 0.49999,-0.20833 1.04732,-0.42992 1.64453,-0.66602 v -6.02148 h -0.76953 c -0.31945,0.2361 -0.73612,0.50695 -1.25,0.8125 -0.49999,0.30555 -1.04926,0.58963 -1.64648,0.85351 -0.68059,0.30554 -1.43057,0.55556 -2.25,0.75 -0.81939,0.1805 -1.65279,0.27149 -2.5,0.27149 -0.98608,0 -1.8952,-0.091 -2.72852,-0.27149 -0.83328,-0.19444 -1.56251,-0.50695 -2.1875,-0.9375 -0.63891,-0.43059 -1.15409,-1.0063 -1.54297,-1.72852 -0.38888,-0.73608 -0.61812,-1.64524 -0.68749,-2.72851 h 15.9785 v -2.625 c 0,-3.59722 -0.90149,-6.36242 -2.70702,-8.29297 -1.80546,-1.93045 -4.50077,-2.89453 -8.08399,-2.89453 z m -15.16601,0.64648 c -0.62499,0 -1.29169,0.11741 -2,0.35351 -0.69439,0.22223 -1.30622,0.49307 -1.83398,0.81251 -0.48609,0.27777 -1.0278,0.65278 -1.62501,1.12499 -0.58332,0.45829 -1.04168,0.84095 -1.375,1.14649 v -3.35547 h -7.29101 v 23.39649 h 7.29101 V 473.5421 c 0.79168,-0.30554 1.60419,-0.57075 2.43751,-0.79296 0.84725,-0.22223 1.65411,-0.33204 2.41796,-0.33204 0.63888,0 1.22223,0.0265 1.75,0.082 0.52773,0.0417 0.92926,0.11179 1.20703,0.20899 h 0.60547 v -6.89649 c -0.2361,-0.0278 -0.50131,-0.0486 -0.79297,-0.0625 -0.29167,-0.0138 -0.55491,-0.0195 -0.79101,-0.0195 z m -79.89454,0.082 6.77149,23.39649 h 7.74805 l 4.12499,-15.125 4.10548,15.125 h 7.75 l 6.83202,-23.39649 h -7.49999 l -3.51954,15.48048 -4.1875,-15.48048 h -6.43749 l -4.4375,15.48048 -3.58399,-15.48048 z m 173.06055,0 8.58203,22.83203 -3.54101,9.14649 h 7.83203 l 11.8125,-31.97852 h -7.5 l -4.60352,14.66602 -4.91601,-14.66602 z m -122.39452,3.95899 c 1.38884,0 2.41536,0.40345 3.08202,1.20898 0.68051,0.80549 1.04229,1.97787 1.08399,3.51954 h -8.81251 c 0.0833,-1.45827 0.52085,-2.60984 1.3125,-3.45704 0.80549,-0.84717 1.91732,-1.27148 3.334,-1.27148 z m 43.83202,0 c 1.38887,0 2.41733,0.40345 3.08399,1.20898 0.6805,0.80549 1.04228,1.97787 1.08398,3.51954 h -8.8125 c 0.0833,-1.45827 0.52085,-2.60984 1.3125,-3.45704 0.80548,-0.84717 1.91536,-1.27148 3.33203,-1.27148 z m -107.97656,0.54102 c 0.69446,0 1.31186,0.11935 1.85352,0.35546 0.54161,0.22218 1.02845,0.62372 1.45897,1.20703 0.40277,0.55559 0.71528,1.29995 0.93751,2.23048 0.2361,0.91655 0.35352,2.06815 0.35352,3.45703 0,1.48606 -0.11177,2.65279 -0.33399,3.49999 -0.22221,0.83328 -0.54796,1.54927 -0.97851,2.14649 -0.3611,0.49999 -0.84792,0.87503 -1.45898,1.12499 -0.59719,0.25 -1.18622,0.37501 -1.76954,0.37501 -0.70828,0 -1.35421,-0.12501 -1.9375,-0.37501 -0.58328,-0.24996 -1.0701,-0.64583 -1.45899,-1.18749 -0.37499,-0.52779 -0.6799,-1.22854 -0.91601,-2.10352 -0.2361,-0.88888 -0.35352,-2.04989 -0.35352,-3.48046 0,-1.43058 0.12501,-2.61809 0.375,-3.56251 0.25,-0.94445 0.58334,-1.68686 1,-2.22851 0.44439,-0.5694 0.92926,-0.95204 1.45703,-1.14649 0.52779,-0.20833 1.11874,-0.31249 1.77149,-0.31249 z m 134.14257,0.33398 c 0.4167,0 0.91672,0.0625 1.5,0.1875 0.58335,0.1111 1.05687,0.25694 1.41797,0.4375 v 11.47852 c -0.54169,0.43051 -1.14017,0.77148 -1.79296,1.02148 -0.65279,0.24999 -1.29862,0.375 -1.9375,0.375 -1.56947,0 -2.7077,-0.51519 -3.41602,-1.54297 -0.69446,-1.02778 -1.04102,-2.69447 -1.04102,-5 0,-2.19435 0.43753,-3.90087 1.31251,-5.12305 0.88888,-1.22216 2.20709,-1.83398 3.95702,-1.83398 z m 39.43751,0.1875 c 1.47214,0 2.56317,0.50005 3.27148,1.49999 0.70832,0.99998 1.0625,2.66676 1.0625,5.00001 0,2.33325 -0.43752,4.08332 -1.3125,5.25 -0.86108,1.16665 -2.17364,1.74999 -3.9375,1.74999 -0.48613,0 -0.98048,-0.036 -1.48047,-0.10546 -0.48606,-0.0695 -0.97093,-0.2001 -1.45703,-0.39454 v -11.74999 c 0.62499,-0.41666 1.25566,-0.72918 1.89453,-0.9375 0.65269,-0.20833 1.30623,-0.3125 1.95899,-0.3125 z m 105.64262,1.79102 v 5.79101 h 13.8125 v -5.79101 z" />
  <g
     id="Gamepad-9"
     transform="matrix(0.476929,0,0,0.476929,666.86473,181.32364)"
     style="display:inline">
    <path
       d="m 282.082,100 c 0,27.596 -22.404,50 -50,50 H 50 C 22.404,150 0,127.596 0,100 V 50 C 0,22.404 22.404,0 50,0 h 182.082 c 27.596,0 50,22.404 50,50 z M 41.412,60.799 H 28.71 c -5.406,0 -9.794,4.389 -9.794,9.794 v 9.794 c 0,5.405 4.388,9.793 9.794,9.793 h 12.702 v 12.036 c 0,5.519 4.481,10 10,10 h 10 c 5.52,0 10,-4.481 10,-10 V 90.18 h 12.71 c 5.406,0 9.794,-4.388 9.794,-9.793 v -9.794 c 0,-5.405 -4.388,-9.794 -9.794,-9.794 H 71.412 V 48.763 c 0,-5.519 -4.48,-10 -10,-10 h -10 c -5.519,0 -10,4.481 -10,10 z m 146.752,-3.672 c 0,10.134 8.402,18.363 18.75,18.363 10.348,0 18.75,-8.229 18.75,-18.363 0,-10.135 -8.402,-18.364 -18.75,-18.364 -10.348,0 -18.75,8.229 -18.75,18.364 z m 37.5,36.726 c 0,10.135 8.402,18.363 18.75,18.363 10.348,0 18.75,-8.228 18.75,-18.363 0,-10.135 -8.402,-18.363 -18.75,-18.363 -10.348,0 -18.75,8.228 -18.75,18.363 z"
       fill="url(#_Linear1)"
       id="path9"
       style="fill:url(#_Linear1-7)" />
  </g>
</svg>
