<?xml version="1.0" encoding="UTF-8" standalone="no"?>
<svg
   viewBox="0 0 1280 800"
   version="1.1"
   id="svg10"
   sodipodi:docname="rd-running-bulls-splash.svg"
   inkscape:version="1.4.3 (0d15f75042, 2025-12-25)"
   xml:space="preserve"
   xmlns:inkscape="http://www.inkscape.org/namespaces/inkscape"
   xmlns:sodipodi="http://sodipodi.sourceforge.net/DTD/sodipodi-0.dtd"
   xmlns:xlink="http://www.w3.org/1999/xlink"
   xmlns="http://www.w3.org/2000/svg"
   xmlns:svg="http://www.w3.org/2000/svg"><defs
     id="defs10"><linearGradient
       id="linearGradient24"
       inkscape:collect="always"><stop
         style="stop-color:#e6e6e6;stop-opacity:1;"
         offset="0.16133942"
         id="stop24" /><stop
         style="stop-color:#e11d1d;stop-opacity:1;"
         offset="0.62404871"
         id="stop25" /></linearGradient><style
       type="text/css"
       id="style1">.fil0 {fill:black}</style><linearGradient
       inkscape:collect="always"
       xlink:href="#linearGradient24"
       id="linearGradient25"
       x1="78.974998"
       y1="738.39447"
       x2="2133.97"
       y2="738.39447"
       gradientUnits="userSpaceOnUse" /><linearGradient
       id="linearGradient8947"
       x1="44.403999"
       x2="1324.4"
       y1="472.79001"
       y2="472.79001"
       gradientUnits="userSpaceOnUse"
       gradientTransform="translate(-128.45761,6.0001251)"><stop
         id="stop8941"
         stop-color="#c957e6"
         offset="0"
         style="stop-color:#e6e6e6;stop-opacity:1;" /><stop
         id="stop8943"
         stop-color="#1a9fff"
         offset="0.53417695"
         style="stop-color:#e11d1d;stop-opacity:1;" /></linearGradient></defs><sodipodi:namedview
     id="namedview10"
     pagecolor="#ffffff"
     bordercolor="#000000"
     borderopacity="0.25"
     inkscape:showpageshadow="2"
     inkscape:pageopacity="0.0"
     inkscape:pagecheckerboard="0"
     inkscape:deskcolor="#d1d1d1"
     inkscape:zoom="0.8237794"
     inkscape:cx="745.95213"
     inkscape:cy="338.6829"
     inkscape:window-width="3840"
     inkscape:window-height="2082"
     inkscape:window-x="0"
     inkscape:window-y="0"
     inkscape:window-maximized="1"
     inkscape:current-layer="svg10" /><linearGradient
     id="_Linear1"
     x1="0"
     y1="0"
     x2="1"
     y2="0"
     gradientUnits="userSpaceOnUse"
     gradientTransform="matrix(282.082,0,0,150,0,75)"><stop
       offset="0"
       style="stop-color:rgb(201,87,230);stop-opacity:1"
       id="stop1" /><stop
       offset="0.89999998"
       style="stop-color:#e11d1d;stop-opacity:1;"
       id="stop3" /></linearGradient><linearGradient
     id="_Linear2"
     x1="0"
     y1="0"
     x2="1"
     y2="0"
     gradientUnits="userSpaceOnUse"
     gradientTransform="matrix(2683.84,0,0,1000,-2.30926e-13,500)"><stop
       offset="0"
       style="stop-color:rgb(201,87,230);stop-opacity:1"
       id="stop5" /><stop
       offset="0.01"
       style="stop-color:rgb(201,87,230);stop-opacity:1"
       id="stop6" /><stop
       offset="0.9"
       style="stop-color:rgb(26,159,255);stop-opacity:1"
       id="stop7" /><stop
       offset="1"
       style="stop-color:rgb(26,159,255);stop-opacity:1"
       id="stop8" /></linearGradient><g
     inkscape:groupmode="layer"
     id="layer1"
     inkscape:label="Layer 1"><path
       d="m 668.18008,432.66529 c -5.42,-4.71 0.54,0.47 0,0 -5.254,-4.574 -8.461,5.421 -7.025,9.632 1.461,-0.875 2.296,1.238 1.875,2.773 -0.332,1.209 -1.621,1.895 -2.573,2.445 -2.538,1.465 -4.253,3.279 -4.548,6.435 -0.366,3.918 -1.643,9.053 -0.634,12.88 0.7,2.655 5.006,2.349 4.978,-0.526 0.041,4.252 -0.524,8.495 -0.281,12.748 0.285,4.974 1.631,9.85696 3.214,14.51996 1.348,3.971 2.247,7.849 3.212,11.934 1.022,4.323 2.657,7.953 2.003,12.537 -0.305,2.13 -1.631,6.086 0.784,7.448 3.283,1.851 3.929,-1.577 3.603,-4.109 -1.234,-9.554 -0.354,-19.23 -1.466,-28.79 1.17,8.752 2.275,17.544 2.412,26.397 0.033,2.135 -0.462,5.291 1.205,6.918 2.11,2.063 4.245,-0.116 4.248,-2.54 0.006,-3.432 -1.333,-6.315 -0.826,-9.911 0.819,-5.807 0.718,-12.151 0.915,-17.955 0.198,-5.825 1.317,-12.32296 0.988,-18.11496 -0.03,-0.536 -3.417,-13.051 -0.325,-10.691 0.004,0.002 0.008,0.006 0.012,0.009 2.061,1.586 2.539,-0.919 2.511,-2.656 -0.014,-0.873 -0.086,-1.767 -0.271,-2.618 -0.266,-1.214 0.926,-1.885 0.778,-3.067 -0.284,-2.276 -1.931,-5.603 -2.932,-7.622 -1.398,-2.822 -3.447,-3.763 -6.185,-4.531 -1.352,-0.379 -4.983,-1.439 -4.331,-3.683 0.168,-0.579 1.99,-4.582 0.38,-4.244 2.056,-0.432 -1.747,-5.642 -2.615,-6.399 0.23,0.2 0.82,0.72 0.88,0.77 z"
       fill="#8d7b7d"
       id="path8-6"
       style="fill:#e11d1d;fill-opacity:1" /><path
       d="m 635.68695,409.50613 c -1.688,-1.895 -5.157,-2.312 -7.291,-1.119 -3.353,1.873 -0.341,5.64 -1.861,8.324 -1.413,2.495 1.511,5.548 2.285,7.855 1.143,3.401 -1.638,4.472 -4.004,5.897 -2.686,1.617 -3.852,3.124 -3.673,6.409 0.175,3.231 0.01,5.031 -0.984,7.93 -0.906,2.645 -1.278,6.314 0.245,8.774 1.682,2.714 4.095,-0.706 6.131,-1.08 1.092,6.258 -0.973,12.585 0.021,18.854 0.498,3.149 0.31,6.365 0.781,9.517 0.556,3.71 2.17,7.11102 3.137,10.70102 0.864,3.207 0.585,6.566 0.591,9.855 0.006,2.956 0.853,5.74 1.747,8.503 1.678,5.184 3.257,9.318 1.528,14.639 -0.938,2.891 0.884,7.331 3.998,7.497 1.357,0.073 3.714,0.1 4.17,-1.688 0.452,-1.774 -0.971,-6.745 -1.786,-8.221 -1.342,-2.43 -1.343,-5.184 -1.443,-7.91 -0.124,-3.319 -0.642,-6.607 -1.004,-9.902 -0.512,-4.653 -0.189,-9.184 -0.124,-13.833 0.048,-3.38302 0.032,-6.81602 0.437,-10.17802 0.397,-3.304 1.354,-1.779 1.762,0.607 0.564,3.3 0.748,6.68502 0.94,10.02902 0.28,4.859 1.59,9.354 2.698,14.056 0.602,2.554 1.39,5.03 -0.061,7.359 -1.325,2.126 -0.426,3.867 0.751,5.712 1.597,2.505 -0.762,12.148 5.147,10.191 4.076,-1.351 1.043,-11.623 -0.027,-14.345 -2.369,-6.028 0.988,-12.536 -0.279,-18.899 -1.687,-8.47202 0.308,-16.77302 -0.348,-25.30302 -0.32,-4.158 -1.516,-8.123 -2.321,-12.186 -0.637,-3.206 -0.727,-6.972 -2.444,-9.801 3.248,-0.548 9.521,7.213 12.209,2.983 3.146,-4.953 -3.931,-11.308 -5.839,-15.322 -1.35,-2.841 -1.651,-6.156 -4.663,-7.77 -2.353,-1.261 -5.256,-0.755 -7.657,-2.018 -3.631,-1.908 -0.938,-5.986 -0.791,-8.96 0.133,-2.672 -0.662,-5.683 -2.406,-7.64 0.07,0.11 0.79,0.92 0.4,0.48 -1.61,-1.81 0.69,0.77 0,0 z"
       fill="#8d7b7d"
       id="path9-0"
       style="fill:#e11d1d;fill-opacity:1" /><path
       d="m 548.38065,372.69322 c 0.488,-7.372 2.377,-14.738 5.164,-21.495 2.189,-5.31 2.865,-13.942 7.995,-16.964 4.566,-2.691 12.038,-1.649 15.812,-5.623 2.889,-3.043 -2.271,-8.892 -3.23,-11.868 -0.905,-2.808 -1.39,-5.809 -1.626,-8.761 -0.266,-3.315 1.83,-5.893 2.421,-9.008 0.958,-5.05 6.334,-5.839 10.154,-4.023 3.334,1.693 6.651,3.612 8.767,6.953 3.342,5.279 2.163,10.229 0.85,15.93 -1.262,5.471 -0.034,9.073 5.394,9.953 4.426,0.719 9.012,1.11 13.152,3.074 6.151,2.917 7.133,8.762 8.215,15.052 1.17,6.798 6.978,10.053 5.465,17.524 -0.68,3.355 -0.759,7.279 -2.341,10.335 -1.265,2.444 -2.632,4.38 -3.599,7.008 -1.895,5.15 -6,4.385 -8.773,0.454 -0.412,1.919 0.515,3.995 1.118,5.749 0.81,2.355 1.137,4.848 1.503,7.315 0.726,4.891 2.026,9.852 0.727,14.762 -1.321,4.986 0.052,10.273 -1.276,15.258 -0.594,2.229 0.34,4.37 0.464,6.584 0.118,2.113 -1.344,3.667 -1.786,5.623 -1.135,5.005 -3.065,9.78 -3.921,14.862 -0.91,5.4 0.323,10.447 1.504,15.673 1.185,5.236 2.627,10.568 2.456,16.007 -0.157,5.03503 -1.486,9.91303 -2.824,14.71103 4.792,0.311 5.733,4.357 5.589,8.75 -0.081,2.468 -0.531,4.419 -2.239,6.121 -1.106,1.101 0.505,4.01 0.881,5.15 1.415,4.292 2.106,10.401 -0.883,14.169 -1.8,2.269 -6.763,5.729 -9.011,2.235 -1.955,2.682 0.874,6.292 -0.067,9.162 -0.932,2.835 -6.59,2.071 -8.639,1.845 -1.583,-0.176 -3.419,-0.365 -4.553,-1.713 -1.491,-1.773 0.035,-4.072 -1.205,-5.88 -1.578,-2.298 -4.662,-3.754 -3.84,-7.096 1.052,-4.274 4.504,-6.675 7.568,-9.229 2.707,-2.256 2.905,-6.311 3.045,-9.662 0.189,-4.585 1.024,-9.581 -0.513,-14.006 -1.342,-3.862 -4.518,-6.589 -6.332,-10.16603 -4.734,-9.328 -6.117,-20.637 -9.282,-30.613 -1.546,-4.876 -2.526,-10.004 -4.793,-14.591 -1.947,-3.941 -4.197,-7.733 -5.648,-11.928 -3.238,-9.356 -3.183,-19.713 -1.848,-29.46 0.271,-1.985 1.103,-3.9 1.005,-5.938 -0.096,-2.006 -1.35,-3.711 -1.384,-5.758 -0.042,-2.487 0.373,-4.772 0.066,-7.292 -0.24,-1.967 -0.538,-3.935 -0.456,-5.926 -5.48,0.646 -8.626,6.685 -14.228,7.274 -5.64,0.64 -5.3,-6.36 -5.02,-10.49 z m 63.92,-7.37 c -0.07,-0.22 -0.14,-0.41 0,0 l 10e-4,0.003 c 0.382,1.145 1.535,2.062 2.482,2.635 0.766,-1.448 0.694,-4.146 0.02,-5.62 -0.294,-0.64 -2.106,-3.068 -1.847,-3.738 -0.61,1.58 -1.19,5.08 -0.65,6.72 z"
       fill="#867577"
       id="path10-6"
       style="fill:#e11d1d;fill-opacity:1" /><path
       d="m 410.09964,385.16613 c -0.712,-2.652 -0.42,-6.039 -0.864,-8.822 -0.496,-3.096 -0.585,-6.123 -0.526,-9.257 0.061,-3.155 -0.456,-6.397 -0.134,-9.527 0.303,-2.927 0.881,-5.79 1.108,-8.731 0.509,-6.582 2.23,-9.464 7.78,-12.375 1.756,-0.92 7.134,-3.152 7.045,-5.664 -0.087,-2.442 -3.211,-2.123 -4.387,-3.421 -0.917,-1.013 -0.365,-2.168 -0.042,-3.282 0.519,-1.789 -0.696,-1.135 -0.729,-2.607 -0.101,-4.594 -3.321,-7.005 -1.659,-11.625 0.602,-1.673 -0.658,-5.722 -1.492,-7.306 -0.948,-1.804 -3.244,-3.273 -2.314,-5.723 1.131,-2.983 3.898,-1.89 6.099,-1.747 2.089,0.135 2.49,-1.859 4.382,-2.348 4.373,-1.13 12.377,0.814 15.682,4.07 3.512,3.461 4.212,9.908 3.942,14.678 -0.106,1.898 -1.413,2.529 -2.575,3.673 -1.502,1.476 -1.242,3.534 -1.128,5.507 0.3,5.16 5.013,5.834 8.772,6.461 4.754,0.793 9.02,1.552 12.996,4.684 1.504,1.184 3.053,2.561 4.207,4.136 1.259,1.718 0.837,3.625 1.15,5.621 0.789,5.018 2.603,10.369 4.247,15.146 1.396,4.056 5.003,7.827 3.549,12.421 -1.493,4.72 -5.641,8.306 -6.86,13.138 -0.535,2.12 0.326,4.313 0.163,6.464 -0.167,2.181 -0.636,4.284 -0.691,6.482 -0.142,5.558 -0.398,10.838 -1.534,16.297 -0.544,2.619 -1.139,9.935 -3.547,11.417 -1.654,1.017 -2.811,1.03 -2.709,3.538 0.098,2.395 -0.021,4.792 0.134,7.184 0.292,4.485 0.982,8.974 1.32,13.472 0.375,4.994 -1.484,10.073 -2.845,14.789 -1.398,4.846 -2.491,8.755 -2.918,13.784 -0.486,5.722 -0.539,9.093 2.026,14.27002 1.935,3.902 4.095,7.114 4.244,11.666 3.997,-1.604 8.726,-2.049 12.2,1.183 3.868,3.6 1.506,7.262 0.328,11.444 -1.325,4.708 2.149,9.551 1.868,14.438 -0.223,3.87 -0.808,8.148 -2.738,11.517 -0.713,1.243 -3.663,2.857 -3.955,3.802 -0.313,1.015 0.36,2.573 0.661,3.506 0.698,2.166 2.375,4.807 2.079,7.15 -0.32,2.541 -6.995,3.368 -8.952,3.549 -2.104,0.196 -4.104,0.774 -6.188,1.072 -2.213,0.317 -4.336,-0.509 -6.556,-0.296 -5.114,0.489 -3.379,-4.671 -1.105,-7.521 2.487,-3.12 3.632,-8.608 3.771,-12.642 0.183,-5.284 -1.899,-10.692 -3.216,-15.702 -1.193,-4.539 -1.17,-9.845 -3.09,-14.112 -2,-4.448 -6.74,-5.403 -10.706,-6.906 -4.478,-1.696 -8.051,-4.833 -11.596,-8.082 -3.369,-3.087 -6.692,-5.472 -7.4,-10.44002 -0.617,-4.326 -0.058,-8.857 0.155,-13.198 0.686,-14.029 2.574,-28.086 1.742,-42.069 -2.168,-1.388 -4.877,-0.606 -6.621,-2.868 -1.41,-1.828 -2.257,-4.087 -2.793,-6.36 -1.166,-4.938 -1.011,-10.149 -0.256,-15.14 0.846,-5.59 2.784,-10.433 5.123,-15.361 3.05,-6.37 -4.1,-1.46 -4.63,-3.41 z m 29.44,101.82 c -1.114,-3.858 -1.997,-7.7 -1.997,-11.761 l 0.054,-0.04 c -4.51,2.41 1.03,8.61 1.95,11.8 z m -19.99,-74.83 h 0.073 c -0.003,-0.019 -0.006,-0.036 -0.009,-0.055 1.496,-1.264 0.822,-6.787 0.794,-8.428 -0.049,-2.78 -0.195,-5.558 -0.367,-8.332 -1.52,1.598 -4.84,6.087 -3.697,8.542 1.347,2.891 2.832,4.864 3.271,8.219 0,0.01 -0.02,0.03 -0.05,0.05 z m -1.08,13.76 c 1.243,-1.692 0.738,-5.135 0.939,-7.156 l -0.146,0.078 c -1.471,-0.309 -1.833,-3.857 -2.618,-4.967 -1.8,4.49 -1.49,8.46 1.83,12.05 z"
       fill="#867577"
       id="path11"
       style="fill:#e11d1d;fill-opacity:1" /><path
       d="m 516.03981,220.80216 c -4.247,-0.682 -8.782,0.137 -12.75,1.811 -2.854,1.204 -7.714,5.269 -8.659,8.525 -0.619,2.15 1.326,3.756 2.022,5.542 0.707,1.809 -0.177,3.581 -0.509,5.349 -0.353,1.874 0.703,3.965 1.06,5.78 0.258,1.317 0.234,4.227 1.04,5.313 1.068,1.442 2.638,0.369 2.791,2.876 0.134,2.15 0.084,4.445 0.021,6.6 -0.025,0.833 -0.393,5.879 -0.844,6.041 -1.043,0.375 -2.058,0.951 -3.031,1.491 -3.906,2.164 -7.536,4.517 -11.644,6.291 -3.583,1.547 -7.09,4.583 -9.15,8.062 -5.231,8.835 -3.737,19.54 -3.515,29.479 0.123,5.497 0.389,11.317 -0.585,16.746 -0.576,3.21 -1.261,7.585 -4.117,9.381 -3.177,1.998 -7.299,5.31 -7.844,9.532 -0.505,3.921 2.388,8.442 5.455,10.309 1.188,0.723 7.296,4.665 7.658,1.601 0.151,-1.288 -4.58,-4.929 -5.115,-4.403 0.841,-0.828 2.019,-0.19 2.972,-0.636 0.967,-0.452 1.319,-1.525 2.487,-1.596 1.905,-0.117 2.762,2.067 4.517,2.333 1.766,0.268 2.084,-2.291 1.219,-3.455 -0.984,-1.327 2.672,-3.387 3.59,-3.522 2.445,-0.361 0.93,5.529 0.756,6.692 -0.363,2.417 0.09,4.676 0.993,6.912 1.026,2.541 -0.602,6.043 -0.712,8.716 -0.248,5.998 -1.172,11.396 -3.26,17.018 -2.566,6.914 -3.992,13.554 -4.437,21 -0.377,6.324 0.681,12.415 1.116,18.692 0.245,3.519 0.272,7.049 0.479,10.57 0.216,3.695 1.343,6.892 1.89,10.487 0.96,6.306 1.006,12.284 3.435,18.263 2.415,5.945 5.792,11.174 8.635,16.84 2.594,5.16699 5.114,10.51599 8.155,15.41099 3.111,5.008 2.179,10.896 0.84,16.464 -1.295,5.382 -3.051,9.815 -5.79,14.58 -2.603,4.526 -5.259,8.763 -6.642,13.926 -1.046,3.904 -1.184,7.344 2.621,9.21 3.813,1.87 8.337,2.82 12.396,1.414 2.654,-0.92 6.827,-2.787 8.42,-5.439 1.669,-2.783 1.147,-6.537 1.22,-9.663 0.154,-6.614 9.641,-8.32 12.086,-13.984 2.551,-5.905 -2.142,-12.364 -3.987,-17.67 -0.623,-1.792 -1.2,-3.52 -2.675,-4.723 -1.074,-0.878 -2.45,-1.375 -2.967,-2.807 -0.496,-1.373 -1.708,-1.683 -2.381,-2.854 -1.099,-1.909 -1.4,-4.245 -2.014,-6.351 -2.459,-8.45699 -1.104,-16.84799 -2.182,-25.44499 -0.488,-3.907 -1.988,-7.745 -3.182,-11.456 -1.188,-3.694 -3.188,-6.442 -3.392,-10.495 -0.188,-3.715 0.706,-7.678 2.173,-11.026 1.408,-3.213 2.063,-7.164 3.779,-10.137 1.483,-2.567 4.097,-4.182 5.911,-6.461 2.12,-2.662 4.059,-6.501 7.407,-7.584 0.535,6.187 4.514,11.194 5.735,17.181 0.58,2.845 1.259,5.48 2.167,8.224 1.143,3.456 1.01,7.402 1.166,11.021 0.266,6.154 0.76,12.315 1.806,18.381 0.93,5.393 4.033,10.498 4.392,15.921 0.187,2.824 -0.635,5.616 -0.859,8.41699 -0.248,3.094 -0.238,6.208 -0.138,9.308 0.212,6.518 2.414,12.786 2.401,19.275 -0.004,2.571 -0.878,4.859 -1.616,7.261 -0.806,2.622 -0.323,4.675 -1.733,7.269 -1.443,2.659 -1.716,5.457 -2.354,8.39 -0.298,1.364 -0.664,2.747 -0.634,4.162 0.042,2.006 1.293,3.588 1.472,5.576 0.429,4.787 0.662,9.309 0.313,14.021 -0.391,5.277 11.859,2.63 14.673,2.559 2.281,-0.056 6.145,0.161 7.974,-1.598 1.375,-1.322 -0.459,-3.824 -0.327,-5.412 0.284,-3.413 -1.65,-2.435 -3.312,-4.681 -1.521,-2.057 -1.904,-4.994 -2.547,-7.448 -0.697,-2.66 -1.138,-5.257 -2.006,-7.872 -0.922,-2.776 0.327,-5.328 -0.286,-7.966 -0.663,-2.851 -0.937,-4.208 0.184,-7.138 1.279,-3.348 2.522,-6.547 3.537,-10.003 1.768,-6.02 2.925,-12.088 4.991,-18.019 2.442,-7.012 3.378,-12.85399 0.284,-19.74999 -2.453,-5.471 -1.579,-12.398 -1.961,-18.31 -0.36,-5.578 -0.206,-13.862 2.008,-19.05 2.296,-5.381 1.616,-13.179 1.748,-18.969 0.173,-7.558 0.278,-15.124 0.406,-22.683 0.117,-6.887 -0.117,-13.693 -1.322,-20.473 -0.537,-3.023 -1.118,-6.051 -1.389,-9.12 -0.27,-3.049 1.073,-6.125 0.225,-9.061 -0.768,-2.656 -1.968,-5.408 -1.22,-8.252 0.761,-2.893 0.177,-4.152 -0.582,-7.04 -0.75,-2.852 -1.252,-5.735 -2.253,-8.51 -0.897,-2.49 -3.203,-7.988 1.234,-6.433 2.628,0.921 5.314,1.807 7.919,2.802 2.249,0.859 4.799,3.241 7.255,3.163 5.748,-0.183 5.379,-10.014 4.451,-13.725 -0.602,-2.404 -0.21,-4.798 -1.312,-7.087 -1.324,-2.753 -2.545,-5.675 -3.518,-8.591 -2.082,-6.24 -2.064,-12.992 -4.416,-19.168 -4.011,-10.537 -11.698,-23.228 -23.058,-24.788 -3.094,-0.425 -6.201,-0.703 -9.295,-1.136 -1.913,-0.268 -5.04,1.112 -6.348,-0.887 -1.07,-1.635 -1.337,-4.065 -0.763,-5.936 0.817,-2.666 1.511,-6.258 2.929,-8.634 1.464,-2.452 2.424,-3.444 1.635,-6.447 -0.756,-2.874 0.326,-5.603 -1.004,-8.349 -2.52,-5.04 -7.08,-9.04 -12.47,-9.91 -4.11,-0.66 4.53,0.73 0,0 z"
       fill="#857374"
       id="path12"
       style="fill:#e11d1d;fill-opacity:1" /><path
       d="m 322.22818,546.89115 c 4.699,-0.135 11.413,0.013 13.806,-5.466 2.276,-5.209 4.688,-11.909 4.354,-17.711 -0.407,-7.083 -0.636,-14.179 -0.579,-21.275 0.116,-14.551 1.128,-28.79304 -0.292,-43.33304 -0.662,-6.779 -2.992,-13.353 -2.966,-20.186 0.023,-6.251 2.899,-12.233 2.459,-18.381 -0.476,-6.666 -4.325,-12.301 -5.024,-18.989 -0.312,-2.99 -0.268,-6.007 -0.625,-8.992 -0.342,-2.853 -1.436,-5.551 -1.66,-8.417 -0.941,-12.002 4.391,-25.313 1.927,-37.166 0,-0.003 -10e-4,-0.006 -10e-4,-0.008 -1.581,-7.57 -2.33,-15.969 -4.465,-23.335 -0.576,-1.988 -1.498,-3.678 -1.887,-5.691 -0.466,-2.413 -0.633,-4.859 -1.201,-7.267 -2.973,1.183 -4.51,11.614 -5.44,14.666 -1.212,3.977 -3.215,9.025 -7.646,9.711 -10.331,1.602 -10.81,-13.117 -8.565,-19.957 2.965,-9.038 7.99,-16.598 8.871,-26.364 0.705,-7.827 0.232,-18.765 7.271,-23.674 3.662,-2.554 8.275,-3.049 12.483,-3.835 2.611,-0.488 5.218,-0.988 7.816,-1.549 1.961,-0.424 2.957,-0.03 3.563,-2.228 0.273,-1.013 0.528,-2.032 0.763,-3.057 0.521,-2.219 1.65,-4.654 1.814,-6.928 0.169,-2.327 -2.087,-4.003 -2.867,-5.988 -1.439,-3.666 -4.699,-9.999 -2.687,-14.001 1.078,-2.143 0.243,-4.527 0.857,-6.768 0.452,-1.653 0.913,-3.303 1.46,-4.924 1.167,-3.452 2.68,-7.458 6.195,-8.778 6.635,-2.492 18.208,5.998 21.445,11.846 1.648,2.98 0.901,5.96 1.438,9.166 0.486,2.896 1.03,4.58 -0.341,7.376 -2.053,4.183 -4.563,7.999 -5.126,12.823 -0.749,6.413 5.235,7.568 10.004,8.681 5.137,1.198 11.893,-0.04 16.547,3.012 4.342,2.847 7.087,10.394 8.616,15.259 1.723,5.488 0.966,11.411 2.666,16.885 0.939,3.027 2.466,5.679 3.214,8.817 0.646,2.713 1.098,5.477 1.787,8.179 0.708,2.767 2.159,5.01 3.298,7.57 1.048,2.356 0.649,5.338 0.618,7.859 -0.08,6.524 -0.705,12.645 -4.033,18.266 -2.826,4.774 -0.875,9.929 -6.357,12.808 -2.348,1.233 -6.077,-0.033 -8.056,1.797 -1.789,1.654 -1.677,4.729 -2.201,6.965 -0.623,2.652 -0.871,5.921 -1.968,8.408 -0.778,1.767 -2.277,3.051 -3.225,4.749 -2.808,5.035 -3.689,11.014 -5.089,16.53 -1.501,5.92 -3.097,11.947 -1.867,18.096 1.022,5.118 3.935,9.148 -2.461,10.597 -4.735,1.074 -4.636,5.51 -5.879,9.651 -1.943,6.474 -0.287,13.196 1.263,19.544 1.433,5.867 1.534,11.938 2.938,17.756 0.864,3.582 3.008,5.897 4.638,9.029 1.384,2.659 2.209,5.597 3.609,8.249 3.121,5.91504 3.063,11.40204 4.243,17.78004 0.951,5.13 3.207,10.793 5.571,15.397 0.958,1.865 2.111,3.838 3.749,5.115 1.851,1.443 4.237,1.824 6.141,3.355 3.204,2.579 9.092,7.388 9.195,12.104 0.14,6.407 -6.098,7.364 -8.311,12.062 -1.276,2.708 0.502,5.983 -0.125,8.915 -0.567,2.659 -1.191,5.5 -2.28,7.978 -1.77,4.021 -5.384,5.976 -9.422,6.197 -3.414,0.188 -7.604,-0.899 -9.237,-4.449 -2.188,-4.752 1.26,-10.155 2.99,-14.402 2.522,-6.185 2.277,-12.623 2.018,-19.2 -0.209,-5.309 -4.137,-10.559 -6.896,-14.797 -3.505,-5.382 -7.157,-10.605 -10.742,-15.917 -3.523,-5.222 -5.64,-11.442 -8.854,-16.896 -2.795,11.965 -6.394,23.721 -9.554,35.572 -1.616,6.063 -2.046,12.514 -2.561,18.767 -0.491,5.958 0.885,11.665 1.353,17.576 0.355,4.507 3.688,17.254 -3.517,17.358 -4.82,0.069 -12.119,0.602 -16.241,-2.402 -3.808,-2.774 -6.995,-4.554 -11.593,-5.538 -4.646,-0.995 -11.332,-1.587 -14.43,-5.98 -2.43,-3.444 -1.345,-8.463 0.987,-11.622 3.04,-4.1 9.63,-6.9 14.34,-7.04 z m 69.28,-229.33004 c 0.486,6.108 0.471,12.068 0.756,18.197 1.264,-0.639 1.422,-2.503 2.752,-3.017 1.211,-0.469 2.085,0.773 2.786,-0.866 1.306,-3.053 0.454,-6.946 0.275,-10.16 -0.206,-3.692 -2.058,-6.037 -3.193,-9.394 -1.166,-3.449 -1.632,-7.148 -3.075,-10.493 l -0.146,-0.615 c -0.46,2.975 -0.007,5.996 0.056,8.982 0.04,2.44 -0.42,4.95 -0.22,7.36 z"
       fill="#857374"
       id="path13"
       style="fill:#e11d1d;fill-opacity:1" /></g><g
     id="DECK"
     transform="matrix(0.476929,0,0,0.476929,0,161.536)"
     style="fill:url(#linearGradient25);stroke-width:4.24381826;stroke-dasharray:none"><path
       d="M1650,476.924L1728.84,476.924L1728.84,681.584L1999.38,476.789L2117.24,476.789L1953.35,600.854L2133.97,855.059L2036.91,854.789L1890.57,648.509L1728.84,771.089L1728.84,854.924L1650,854.924L1650,476.924ZM1137.26,514.319C1149.32,502.259 1162.66,493.034 1177.29,486.644C1191.91,480.254 1207.82,477.059 1225.01,477.059L1585.19,477.059L1585.19,549.284L1225.01,549.284C1218.62,549.284 1212.61,550.476 1206.99,552.861C1201.36,555.246 1196.46,558.531 1192.27,562.716C1188.09,566.901 1184.8,571.806 1182.42,577.431C1180.03,583.056 1178.84,589.064 1178.84,595.454L1178.84,736.664C1178.84,742.604 1180.14,748.341 1182.76,753.876C1185.37,759.411 1188.81,764.316 1193.08,768.591C1197.36,772.866 1202.26,776.309 1207.8,778.919C1213.33,781.529 1219.07,782.834 1225.01,782.834L1585.19,782.834L1585.19,855.059L1225.01,855.059C1216.46,855.059 1208.16,854.159 1200.1,852.359C1192.05,850.559 1184.31,848.016 1176.88,844.731C1169.46,841.446 1162.41,837.509 1155.76,832.919C1149.1,828.329 1142.93,823.289 1137.26,817.799C1125.47,806.369 1116.31,793.206 1109.79,778.311C1103.26,763.416 1100,747.329 1100,730.049L1100,602.069C1100,584.789 1103.19,568.859 1109.59,554.279C1115.98,539.699 1125.2,526.379 1137.26,514.319ZM550,811.724L550,520.394C550,513.914 551.035,508.019 553.105,502.709C555.175,497.399 558.123,492.831 561.947,489.006C565.773,485.181 570.34,482.234 575.65,480.164C580.96,478.094 586.855,477.059 593.335,477.059L1033.7,477.059L1033.7,549.284L628.975,549.284L628.975,625.829L984.565,625.829L984.565,698.054L628.975,698.054L628.975,782.834L1033.7,782.834L1033.7,855.059L593.335,855.059C586.855,855.059 580.96,854.024 575.65,851.954C570.34,849.884 565.773,846.936 561.947,843.111C558.123,839.286 555.175,834.719 553.105,829.409C551.035,824.099 550,818.204 550,811.724ZM447.93,962.74C435.87,974.8 422.527,984.025 407.902,990.415C393.277,996.805 377.37,1000 360.18,1000L78.975,1000L78.975,927.775L360.18,927.775C366.57,927.775 372.577,926.583 378.202,924.197C383.827,921.813 388.732,918.527 392.917,914.342C397.102,910.157 400.387,905.253 402.772,899.627C405.157,894.003 406.35,887.995 406.35,881.605L406.35,595.454C406.35,589.514 405.045,583.776 402.435,578.241C399.825,572.706 396.382,567.801 392.107,563.526C387.832,559.251 382.927,555.809 377.392,553.199C371.857,550.589 366.12,549.284 360.18,549.284L78.975,549.284L78.975,477.059L360.18,477.059C368.73,477.059 377.032,477.959 385.087,479.759C393.142,481.559 400.882,484.101 408.307,487.386C415.732,490.671 422.775,494.609 429.435,499.199C436.095,503.789 442.26,508.829 447.93,514.319C459.72,525.749 468.877,538.911 475.402,553.806C481.927,568.701 485.19,584.789 485.19,602.069L485.19,874.99C485.19,892.27 481.995,908.2 475.605,922.78C469.215,937.36 459.99,950.68 447.93,962.74Z"
       style="fill:url(#linearGradient25);stroke:#000000;stroke-opacity:1;stroke-width:4.24381826;stroke-dasharray:none"
       id="path8" /></g><g
     id="Gamepad"
     transform="matrix(0.476929,0,0,0.476929,0,477.992)"><path
       d="M 282.082 100 C 282.082 127.596 259.678 150 232.082 150 L 50 150 C 22.404 150 0 127.596 0 100 L 0 50 C 0 22.404 22.404 0 50 0 L 232.082 0 C 259.678 0 282.082 22.404 282.082 50 Z M 41.412 60.799 L 28.71 60.799 C 23.304 60.799 18.916 65.188 18.916 70.593 L 18.916 80.387 C 18.916 85.792 23.304 90.18 28.71 90.18 L 41.412 90.18 L 41.412 102.216 C 41.412 107.735 45.893 112.216 51.412 112.216 L 61.412 112.216 C 66.932 112.216 71.412 107.735 71.412 102.216 L 71.412 90.18 L 84.122 90.18 C 89.528 90.18 93.916 85.792 93.916 80.387 L 93.916 70.593 C 93.916 65.188 89.528 60.799 84.122 60.799 L 71.412 60.799 L 71.412 48.763 C 71.412 43.244 66.932 38.763 61.412 38.763 L 51.412 38.763 C 45.893 38.763 41.412 43.244 41.412 48.763 Z M 188.164 57.127 C 188.164 67.261 196.566 75.49 206.914 75.49 C 217.262 75.49 225.664 67.261 225.664 57.127 C 225.664 46.992 217.262 38.763 206.914 38.763 C 196.566 38.763 188.164 46.992 188.164 57.127 Z M 225.664 93.853 C 225.664 103.988 234.066 112.216 244.414 112.216 C 254.762 112.216 263.164 103.988 263.164 93.853 C 263.164 83.718 254.762 75.49 244.414 75.49 C 234.066 75.49 225.664 83.718 225.664 93.853 Z"
       fill="url(#_Linear1)"
       id="path9"
       style="stroke:#000000;stroke-opacity:1" /></g><g
     style="clip-rule:evenodd;fill-rule:evenodd;image-rendering:optimizeQuality;shape-rendering:geometricPrecision;text-rendering:geometricPrecision;stroke-width:6.23148922;stroke-dasharray:none"
     id="g12"
     transform="matrix(0.34025699,0,0,0.31004895,-950.83506,1267.5794)"><path
       class="fil0"
       d="m 5864.4961,-3842.5082 c -13,-8 -34,-8 -57,-8 -23,-1 -47,-3 -63,-9 -17,-6 -25,-16 -27,-29 -3,-12 2,-27 8,-39 6,-11 14,-20 21,-28 -1,17 -1,34 -2,43 0,8 0,8 8,9 9,0 25,1 45,0 19,-1 41,-4 58,-6 18,-2 31,-3 44,-7 13,-3 27,-8 44,-13 16,-4 35,-7 54,-7 20,0 39,3 53,9 14,7 22,16 32,22 10,6 23,9 38,10 15,1 31,0 41,0 11,0 16,1 16,-9 -1,-10 -6,-31 -12,-52 18,27 36,54 37,78 1,24 -15,45 -9,42 6,-3 36,-30 71,-39 35,-9 76,1 104,10 28,10 43,21 57,33 13,13 26,27 38,47 12,20 22,45 27,78 5,34 5,76 -1,123 -6,48 -18,100 -32,141 -13,40 -29,69 -38,111 -10,43 -13,100 -14,139 0,40 2,62 5,82 2,20 3,37 -2,47 -5,10 -17,12 -27,14 -11,2 -19,3 -22,-1 -3,-4 -1,-13 -3,-12 -3,0 -11,10 -18,13 -7,3 -14,-1 -17,-7 -2,-6 -1,-14 3,-23 4,-9 10,-17 15,-47 6,-30 10,-80 11,-124 1,-43 -2,-79 -4,-108 -1,-29 -2,-51 -10,-51 -7,0 -21,22 -26,65 -6,42 -3,106 -1,147 3,41 5,59 5,72 0,14 -2,24 -4,32 -2,9 -4,17 -8,20 -5,3 -11,2 -16,-2 -5,-4 -9,-11 -12,-18 -2,8 -4,16 -10,17 -6,1 -17,-6 -18,-15 0,-8 8,-17 13,-55 5,-38 6,-104 -1,-117 -6,-12 -20,29 -29,63 -9,33 -14,59 -17,83 -3,24 -4,47 -1,66 3,19 10,34 15,49 5,15 6,30 6,43 0,13 -1,24 -7,30 -6,5 -16,5 -23,0 -6,-6 -8,-17 -10,-18 -3,-1 -6,7 -14,7 -8,0 -20,-8 -25,-21 -4,-12 0,-29 4,-55 3,-27 7,-63 8,-90 1,-26 -1,-43 1,-66 1,-23 6,-52 5,-74 -1,-23 -9,-40 -18,-49 -8,-9 -18,-10 -30,-6 -12,4 -26,14 -37,18 -11,4 -18,4 -18,37 -1,34 5,102 9,146 4,44 6,65 8,81 2,16 5,27 3,41 -1,14 -6,30 -18,42 -11,13 -29,22 -37,17 -7,-4 -4,-21 -9,-22 -4,-1 -17,13 -23,13 -6,0 -5,-14 -2,-29 3,-15 8,-30 13,-46 5,-17 9,-35 12,-56 4,-21 6,-45 6,-66 -1,-22 -4,-41 -10,-61 -5,-19 -13,-40 -24,-59 -10,-20 -24,-38 -34,-60 -10,-22 -16,-48 -17,-69 -1,-21 4,-37 5,-53 2,-16 1,-32 -3,-47 -4,-15 -12,-29 -18,-42 -5,-13 -9,-24 -12,-36 -3,-12 -5,-25 -7,-39 -2,-13 -3,-27 -1,-38 1,-12 4,-22 5,-39 0,-18 -2,-44 -5,-60 -3,-16 -7,-23 -10,-31 -4,-8 -7,-16 -9,-24 -3,-8 -3,-15 -6,-25 -3,-11 -7,-26 -20,-33 z"
       id="path1"
       style="fill:#e11d1d;fill-opacity:1;stroke:#000000;stroke-opacity:1;stroke-width:6.23148922;stroke-dasharray:none" /></g><g
     id="RETRO-6"
     transform="matrix(0.47693,0,0,0.47693,128.99997,158.00385)"
     style="stroke-width:4.24380936;stroke-dasharray:none"><g
       id="text750"
       transform="matrix(2.0967,0,0,2.0967,-93.103,-496.13)"
       fill="#008000"
       stroke-linecap="round"
       stroke-linejoin="round"
       stroke-width="2.315"
       style="white-space:pre;shape-inside:url(#rect752);paint-order:fill markers stroke;stroke-width:2.02404224;stroke-dasharray:none"
       aria-label="Powered by ES-DE Frontend"><path
         id="path8936"
         style="fill:url(#linearGradient8947);stroke:#000000;stroke-opacity:1;stroke-width:2.02404224;stroke-dasharray:none"
         d="m 440.56323,242.62245 v 34.44603 h 96.58209 v 145.83117 h 37.6668 V 277.06848 h 96.51178 v -34.44603 z m 282.98051,0 v 0.004 c -3.0905,0 -5.90322,0.49326 -8.43572,1.4805 -2.5325,0.9873 -4.71144,2.39219 -6.53334,4.21689 -1.8267,1.8238 -3.2344,4.00279 -4.21688,6.53529 -0.98719,2.5325 -1.48246,5.34522 -1.48246,8.43572 l 0.0605,159.6088 h 37.60626 V 351.9509 h 96.38287 l 57.94652,70.95265 h 46.68261 L 883.60177,351.9509 h 0.71095 c 6.052,0 11.58027,-0.70854 16.57847,-2.12504 5.0034,-1.4165 9.50147,-3.37975 13.48857,-5.89075 3.9968,-2.511 7.48231,-5.48426 10.46311,-8.91816 2.9856,-3.4344 5.4651,-7.17831 7.4396,-11.23461 1.9697,-4.0566 3.4543,-8.33897 4.4415,-12.84597 0.9873,-4.5073 1.48246,-9.05592 1.48246,-13.64872 0.0381,-4.5074 -0.42991,-8.98296 -1.42191,-13.42606 -0.9825,-4.4428 -2.46504,-8.69251 -4.43954,-12.74831 -1.9745,-4.0569 -4.45491,-7.82227 -7.43571,-11.29907 -2.9854,-3.4769 -6.48061,-6.48136 -10.49631,-9.01386 -4.011,-2.5324 -8.51877,-4.529 -13.52177,-5.9884 -4.998,-1.4594 -10.52431,-2.1895 -16.57651,-2.1895 z m -786.930482,0.006 0.002,0.004 c -3.0905,0 -5.903223,0.49326 -8.435723,1.4805 -2.5325,0.9872 -4.710593,2.39269 -6.535293,4.21689 -1.8238,1.8243 -3.229645,4.00279 -4.216885,6.53529 -0.98728,2.5325 -1.480499,5.34327 -1.480499,8.43377 l 0.06445,159.61075 h 37.600394 v -70.95265 h 96.384824 l 57.948476,70.95265 h 46.67871 L 96.677146,351.95676 h 0.707046 c 6.052008,0 11.578368,-0.70854 16.578468,-2.12504 5.0011,-1.4165 9.49902,-3.38171 13.49052,-5.89271 3.9915,-2.511 7.47845,-5.4823 10.46115,-8.9162 2.9837,-3.4344 5.46316,-7.18026 7.43766,-11.23656 1.9745,-4.0566 3.45426,-8.33702 4.4415,-12.84402 0.98728,-4.5073 1.4805,-9.05787 1.4805,-13.65067 0.0429,-4.5074 -0.42881,-8.98151 -1.41605,-13.42411 -0.9872,-4.4423 -2.467,-8.69241 -4.4415,-12.74831 -1.9745,-4.0559 -4.45395,-7.82227 -7.43765,-11.29907 -2.9829,-3.4769 -6.48056,-6.48136 -10.49436,-9.01386 -4.0129,-2.5324 -8.52067,-4.529 -13.52177,-5.9884 -5,-1.4594 -10.52626,-2.1895 -16.578468,-2.1895 z m 262.308212,0.002 c -3.0905,0 -5.90127,0.49521 -8.43377,1.48245 -2.5325,0.9872 -4.7106,2.39269 -6.5353,4.21689 -1.8238,1.8243 -3.22963,4.00279 -4.21688,6.53529 -0.98728,2.5325 -1.48245,5.34327 -1.48245,8.43377 v 138.9404 0.004 c 0,3.0905 0.49521,5.90127 1.48245,8.43377 0.9872,2.5325 2.39308,4.71109 4.21688,6.53529 1.8248,1.8243 4.0028,3.22964 6.5353,4.21688 2.5325,0.98728 5.34327,1.4805 8.43377,1.4805 h 210.02 V 388.46338 H 215.91206 V 348.0309 H 385.50153 V 313.58487 H 215.91206 v -36.50858 h 193.02941 v -34.44603 z m 541.62263,34.43822 h 143.05962 c 2.8807,0 5.37981,0.57942 7.50211,1.73832 2.1271,1.159 3.88681,2.68376 5.27941,4.57236 1.3974,1.8886 2.43837,4.04368 3.12507,6.46888 0.6868,2.4252 1.02011,4.90516 0.99611,7.43766 -0.0191,2.5325 -0.38592,5.0105 -1.09182,7.4357 -0.7106,2.4252 -1.76921,4.58224 -3.18561,6.47084 -1.4213,1.8887 -3.18091,3.41346 -5.27941,4.57236 -2.108,1.15893 -4.55106,1.73832 -7.34586,1.73832 H 740.5441 Z m -786.930487,0.006 H 96.673239 c 2.875902,0 5.377411,0.57932 7.502111,1.73832 2.1247,1.159 3.88491,2.68376 5.27941,4.57236 1.3955,1.8886 2.43634,4.04563 3.12311,6.47083 0.68678,2.4252 1.01801,4.90321 0.99611,7.43571 -0.021,2.5325 -0.38553,5.0105 -1.09377,7.4357 -0.7082,2.4252 -1.77107,4.58419 -3.18757,6.47279 -1.4165,1.8887 -3.1762,3.41148 -5.2794,4.57041 -2.1032,1.15893 -4.549999,1.73832 -7.340001,1.73832 H -46.386387 Z M 971.40829,310.85043 c -0.0416,0.22627 -0.0815,0.46113 -0.12305,0.70314 -0.001,0.006 -0.003,0.0108 -0.004,0.0137 v 0.002 h 0.002 c 0.01,-0.018 0.062,-0.19241 0.084,-0.25782 0.0144,-0.15351 0.027,-0.30742 0.041,-0.46095 z M 355.14152,673.96348 v 9.95919 c -1.0417,-0.54167 -1.95838,-0.93752 -2.75005,-1.18752 -0.7778,-0.26389 -1.77787,-0.39649 -3.00007,-0.39649 -1.3472,0 -2.62576,0.29928 -3.83406,0.8965 -1.2083,0.5833 -2.23682,1.38068 -3.08405,2.39458 -0.9305,1.1111 -1.65976,2.41805 -2.18754,3.91805 -0.52778,1.5 -0.79104,3.26896 -0.79104,5.31066 0,3.6945 0.77844,6.64735 2.33404,8.85565 1.5555,2.2083 3.66546,3.31257 6.33216,3.31257 0.7917,0 1.47357,-0.0701 2.04301,-0.20899 0.5695,-0.13889 1.14522,-0.34723 1.72855,-0.62501 0.4583,-0.22222 0.98679,-0.55557 1.58402,-1.00002 0.6111,-0.44445 1.1528,-0.86114 1.62503,-1.25003 v 2.43755 h 7.29117 v -32.41669 z m 25.37358,0 v 32.41669 h 6.98061 l 0.31251,-1.16604 c 0.9722,0.55559 1.88896,0.96465 2.75006,1.22854 0.8611,0.26389 1.87438,0.3965 3.04108,0.3965 2.7916,0 5.13273,-1.14588 7.02163,-3.43758 1.88885,-2.3056 2.83209,-5.32095 2.83209,-9.04315 0,-3.7639 -0.74246,-6.70722 -2.22856,-8.83222 -1.4723,-2.125 -3.56895,-3.18756 -6.29115,-3.18756 -1.4584,0 -2.74445,0.28409 -3.85555,0.85353 -1.1111,0.5695 -2.2002,1.31189 -3.2696,2.22856 v -11.45727 z m 102.08416,0.834 c -3.6805,0 -6.74892,0.90149 -9.20722,2.70709 -2.4583,1.7917 -3.68758,4.14032 -3.68758,7.04312 0,2.1528 0.52083,3.94451 1.56253,5.37511 1.0417,1.4306 2.76333,2.56886 5.16613,3.41608 1.0417,0.36111 2.15918,0.66604 3.35358,0.91604 1.2083,0.25 2.34096,0.51325 3.39656,0.79103 0.8472,0.22222 1.57643,0.57642 2.18754,1.06252 0.61111,0.4861 0.91604,1.11876 0.91604,1.89653 0,0.69444 -0.18751,1.25697 -0.56251,1.68753 -0.375,0.41667 -0.83336,0.74243 -1.37503,0.97854 -0.4444,0.20833 -1.03346,0.36179 -1.76957,0.45899 -0.7222,0.0972 -1.3056,0.14649 -1.75004,0.14649 -1.7639,0 -3.58409,-0.35412 -5.45909,-1.06252 -1.875,-0.7084 -3.591,-1.72363 -5.1466,-3.04303 h -0.70704 v 7.37515 c 1.5417,0.6805 3.2084,1.25069 5.0001,1.70902 1.8055,0.45833 3.89466,0.68751 6.26966,0.68751 4.125,0 7.39601,-0.93755 9.81271,-2.81255 2.4305,-1.875 3.64656,-4.35436 3.64656,-7.43766 0,-2.1528 -0.52842,-3.88201 -1.58402,-5.18761 -1.0417,-1.3194 -2.63831,-2.36877 -4.79111,-3.14655 -1.0973,-0.38889 -2.13332,-0.69381 -3.10554,-0.91603 -0.9583,-0.22223 -1.95641,-0.45141 -2.99811,-0.68752 -1.6111,-0.375 -2.7021,-0.79169 -3.27155,-1.25002 -0.55555,-0.4722 -0.834,-1.1029 -0.834,-1.89457 0,-0.54164 0.17427,-1.02847 0.52149,-1.45902 0.36108,-0.44445 0.78541,-0.7778 1.27152,-1.00002 0.5972,-0.27778 1.16539,-0.46531 1.70706,-0.56251 0.5416,-0.0972 1.15347,-0.14649 1.83402,-0.14649 1.75,0 3.45083,0.34095 5.10363,1.02151 1.6667,0.6806 3.0758,1.51394 4.2286,2.50005 h 0.68752 v -7.08413 c -1.4445,-0.63885 -3.08282,-1.14457 -4.91612,-1.51957 -1.8194,-0.375 -3.65292,-0.56251 -5.50012,-0.56251 z m -302.52194,0.56251 v 31.02018 h 7.79314 v -10.14474 h 4.08211 c 1.1111,0 2.11117,-0.0909 3.00006,-0.27149 0.9028,-0.18056 1.73617,-0.43058 2.50006,-0.75002 0.7639,-0.31948 1.45902,-0.70771 2.08402,-1.16604 0.6389,-0.4583 1.22227,-0.95836 1.75004,-1.50003 0.8611,-0.875 1.52023,-1.96595 1.97856,-3.27155 0.45833,-1.3056 0.68751,-2.68069 0.68751,-4.12509 0,-1.7917 -0.31816,-3.33339 -0.95705,-4.62509 -0.6389,-1.3056 -1.54234,-2.34729 -2.70904,-3.12507 -1.0556,-0.70836 -2.23549,-1.2216 -3.54109,-1.54105 -1.2917,-0.33333 -2.8334,-0.50001 -4.6251,-0.50001 z m 264.87663,0 v 31.02018 h 20.97895 v -5.91614 h -13.22879 v -7.83414 h 12.18775 v -5.91614 h -12.18775 v -5.43762 h 13.22879 v -5.91614 z m 71.66555,0 v 31.02018 h 9.70919 c 2.1389,0 4.15224,-0.14584 6.04114,-0.43751 1.9027,-0.3055 3.6605,-0.97982 5.2716,-2.02152 1.9306,-1.2222 3.52721,-2.97231 4.79111,-5.25011 1.26386,-2.2916 1.89653,-4.8808 1.89653,-7.7697 0,-3 -0.59093,-5.60436 -1.77153,-7.81266 -1.1805,-2.2223 -2.79238,-3.98553 -4.83408,-5.29113 -1.6667,-1.06941 -3.45083,-1.74374 -5.35363,-2.02152 -1.9028,-0.27778 -3.94453,-0.41603 -6.12513,-0.41603 z m 32.31318,0 v 31.02018 h 20.97895 v -5.91614 h -13.22879 v -7.83414 h 12.18775 v -5.91614 h -12.18775 v -5.43762 h 13.22879 v -5.91614 z m -361.06222,5.79114 h 1.10353 c 1.1528,0 2.06191,0.0285 2.72858,0.084 0.6806,0.0417 1.38893,0.22157 2.12504,0.54102 0.58333,0.2361 1.08336,0.67364 1.50003,1.31253 0.41667,0.625 0.62502,1.37505 0.62502,2.25005 0,0.9444 -0.0966,1.69449 -0.29103,2.25004 -0.18055,0.5556 -0.53474,1.08966 -1.06252,1.60355 -0.24997,0.25 -0.61179,0.47919 -1.08401,0.68752 -0.45833,0.19445 -0.89585,0.32709 -1.31252,0.39649 -0.4861,0.0833 -1.05429,0.13259 -1.70707,0.14649 -0.6527,0.0138 -1.34792,0.0195 -2.08403,0.0195 h -0.54102 z m 336.54022,0 h 0.14649 c 1.6111,0 2.99377,0.0285 4.14657,0.084 1.1666,0.0555 2.2765,0.37372 3.3321,0.95705 1.4584,0.8195 2.5361,1.95974 3.23054,3.41804 0.70833,1.4445 1.06252,3.18692 1.06252,5.22862 0,2.0417 -0.33332,3.77101 -1.00002,5.18761 -0.6667,1.4166 -1.64023,2.5285 -2.91803,3.33405 -1.0833,0.68056 -2.22927,1.05563 -3.43757,1.12503 -1.1945,0.0555 -2.66611,0.082 -4.41611,0.082 h -0.14649 z m -306.33256,1.10354 c -3.8195,0 -6.7912,1.10427 -8.9162,3.31257 -2.1111,2.1944 -3.16804,5.23629 -3.16804,9.12519 0,3.8472 1.05694,6.88346 3.16804,9.10566 2.125,2.2083 5.0968,3.31257 8.9162,3.31257 3.8473,0 6.819,-1.10427 8.9162,-3.31257 2.1111,-2.2222 3.16608,-5.25846 3.16608,-9.10566 0,-3.8611 -1.05498,-6.89541 -3.16608,-9.10371 -2.1111,-2.2222 -5.0829,-3.33405 -8.9162,-3.33405 z m 64.70838,0 c -3.9444,0 -7.01468,1.14034 -9.20918,3.41804 -2.1945,2.2777 -3.29108,5.32532 -3.29108,9.14472 0,3.9027 1.1724,6.91057 3.5196,9.02167 2.3614,2.1111 5.75148,3.16609 10.16818,3.16609 1.2083,0 2.22924,-0.0625 3.06257,-0.18751 0.8472,-0.11111 1.66541,-0.27019 2.45708,-0.47852 0.8611,-0.20833 1.53542,-0.40909 2.02153,-0.60353 0.5,-0.20833 1.04928,-0.43188 1.64651,-0.66799 v -6.01965 h -0.7715 c -0.31945,0.23611 -0.73613,0.50697 -1.25002,0.81252 -0.5,0.30556 -1.0493,0.58964 -1.64652,0.85353 -0.6806,0.30555 -1.4306,0.55556 -2.25005,0.75001 -0.8194,0.18053 -1.65282,0.27149 -2.50005,0.27149 -0.9861,0 -1.89524,-0.0909 -2.72857,-0.27149 -0.8333,-0.19445 -1.56255,-0.50697 -2.18755,-0.93752 -0.63892,-0.4306 -1.15216,-1.00632 -1.54105,-1.72855 -0.38889,-0.7361 -0.61801,-1.64722 -0.68751,-2.73052 h 15.97885 v -2.62506 c 0,-3.5973 -0.90344,-6.36059 -2.70904,-8.29119 -1.8055,-1.93052 -4.4989,-2.89654 -8.0822,-2.89654 z m 43.83294,0 c -3.9444,0 -7.01272,1.14034 -9.20722,3.41804 -2.1945,2.2777 -3.29304,5.32532 -3.29304,9.14472 0,3.9027 1.17436,6.91057 3.52156,9.02167 2.3614,2.1111 5.74953,3.16609 10.16623,3.16609 1.2083,0 2.22923,-0.0625 3.06256,-0.18751 0.8472,-0.11111 1.66737,-0.27019 2.45904,-0.47852 0.8611,-0.20833 1.53542,-0.41105 2.02153,-0.60549 0.5,-0.20833 1.04734,-0.42992 1.64456,-0.66603 v -6.01965 h -0.76955 c -0.31945,0.23611 -0.73613,0.50501 -1.25002,0.81056 -0.5,0.30556 -1.04929,0.5916 -1.64652,0.85549 -0.6806,0.30555 -1.4306,0.55556 -2.25005,0.75001 -0.8194,0.18053 -1.65282,0.26954 -2.50005,0.26954 -0.9861,0 -1.89524,-0.089 -2.72857,-0.26954 -0.8333,-0.19445 -1.56255,-0.50697 -2.18755,-0.93752 -0.63892,-0.4306 -1.15411,-1.00827 -1.543,-1.7305 -0.38889,-0.7361 -0.61811,-1.64527 -0.68751,-2.72857 h 15.97885 v -2.62506 c 0,-3.5973 -0.90149,-6.36059 -2.70709,-8.29119 -1.8055,-1.93052 -4.50086,-2.89654 -8.08416,-2.89654 z m -15.16633,0.6465 c -0.625,0 -1.29171,0.11936 -2.00004,0.35547 -0.6944,0.22223 -1.30624,0.49308 -1.83402,0.81252 -0.4861,0.27778 -1.02782,0.6528 -1.62504,1.12502 -0.58333,0.4583 -1.04169,0.83901 -1.37502,1.14456 v -3.35359 h -7.29117 v 23.39502 h 7.29117 v -15.66634 c 0.7917,-0.30555 1.60422,-0.56881 2.43755,-0.79103 0.8473,-0.22223 1.65413,-0.33399 2.41802,-0.33399 0.6389,0 1.22225,0.0285 1.75003,0.084 0.52774,0.0417 0.92928,0.10984 1.20706,0.20704 h 0.60548 v -6.89468 c -0.23611,-0.0278 -0.50132,-0.0486 -0.79299,-0.0625 -0.29167,-0.0138 -0.55492,-0.0215 -0.79103,-0.0215 z m 117.85598,0.082 -7.50211,0.002 -4.60361,14.66632 -4.91612,-14.66632 h -7.66618 l 8.58221,22.83251 -3.54109,9.14472 h 7.8322 z m -197.75218,0.002 6.77163,23.39502 h 7.74821 l 4.12508,-15.12336 4.10556,15.12336 h 7.75016 l 6.83217,-23.39502 h -7.50015 l -3.51961,15.47884 -4.18758,-15.47884 h -6.43764 l -4.43759,15.47884 -3.58406,-15.47884 z m 94.50002,3.95712 c 1.3889,0 2.41738,0.40346 3.08405,1.20901 0.68052,0.8055 1.04231,1.97985 1.08401,3.52155 h -8.81269 c 0.0833,-1.4583 0.52086,-2.61183 1.31253,-3.45905 0.8055,-0.84719 1.9154,-1.27151 3.3321,-1.27151 z m -43.83294,0.002 c 1.3889,0 2.41542,0.40151 3.08209,1.20706 0.68052,0.8055 1.04231,1.97985 1.08401,3.52155 h -8.81268 c 0.0833,-1.4583 0.52085,-2.61183 1.31252,-3.45905 0.8055,-0.84719 1.91736,-1.26956 3.33406,-1.26956 z m -64.14587,0.54103 c 0.6945,0 1.31188,0.11741 1.85355,0.35352 0.54163,0.22219 1.02846,0.62568 1.45902,1.20901 0.40277,0.5556 0.71529,1.29801 0.93752,2.22856 0.23611,0.9166 0.35352,2.07016 0.35352,3.45906 0,1.4861 -0.11177,2.65285 -0.33399,3.50007 -0.22222,0.8333 -0.54798,1.54735 -0.97854,2.14458 -0.3611,0.5 -0.84595,0.87502 -1.45706,1.12502 -0.5972,0.25 -1.18819,0.37501 -1.77152,0.37501 -0.7083,0 -1.35424,-0.12501 -1.93754,-0.37501 -0.5833,-0.25 -1.07013,-0.64585 -1.45902,-1.18752 -0.375,-0.5278 -0.67992,-1.22856 -0.91603,-2.10356 -0.23611,-0.8889 -0.35352,-2.04799 -0.35352,-3.47859 0,-1.4306 0.125,-2.61814 0.375,-3.56258 0.25,-0.9445 0.58335,-1.68884 1.00002,-2.23051 0.4444,-0.56941 0.92929,-0.95011 1.45707,-1.14456 0.5278,-0.20833 1.11875,-0.3125 1.77152,-0.3125 z m 134.14537,0.33203 c 0.4167,0 0.91671,0.0625 1.50004,0.18751 0.58336,0.11111 1.05688,0.25695 1.41799,0.43751 v 11.47875 0.002 c -0.5417,0.43052 -1.1402,0.76955 -1.793,1.01955 -0.6528,0.25 -1.29865,0.37501 -1.93754,0.37501 -1.5695,0 -2.70776,-0.51325 -3.41609,-1.54105 -0.69448,-1.0278 -1.04104,-2.69451 -1.04104,-5.00011 0,-2.1944 0.43753,-3.9029 1.31253,-5.1251 0.8889,-1.22219 2.20711,-1.83403 3.95711,-1.83403 z m 39.43833,0.18751 c 1.4722,0 2.56322,0.50003 3.27155,1.50003 0.70833,1 1.06252,2.6668 1.06252,5.0001 0,2.3333 -0.43753,4.08341 -1.31253,5.25011 -0.8611,1.16667 -2.17368,1.75004 -3.93758,1.75004 -0.48614,0 -0.9805,-0.034 -1.4805,-0.10352 -0.48607,-0.0695 -0.97095,-0.20205 -1.45706,-0.39649 v -11.75025 c 0.625,-0.41667 1.25568,-0.72918 1.89457,-0.93751 0.6527,-0.20833 1.30626,-0.31251 1.95903,-0.31251 z m 105.64478,1.79301 v 5.79113 h 13.81279 v -5.79113 z" /></g></g></svg>
