<?xml version="1.0" encoding="UTF-8" standalone="no"?>
<svg
   viewBox="0 0 1280 800"
   version="1.1"
   id="svg10"
   sodipodi:docname="japanese-retoro-dekku.svg"
   inkscape:version="1.3 (0e150ed6c4, 2023-07-21)"
   xmlns:inkscape="http://www.inkscape.org/namespaces/inkscape"
   xmlns:sodipodi="http://sodipodi.sourceforge.net/DTD/sodipodi-0.dtd"
   xmlns:xlink="http://www.w3.org/1999/xlink"
   xmlns="http://www.w3.org/2000/svg"
   xmlns:svg="http://www.w3.org/2000/svg">
  <defs
     id="defs10">
    <linearGradient
       id="linearGradient11"
       inkscape:collect="always">
      <stop
         style="stop-color:#c957e6;stop-opacity:1;"
         offset="0"
         id="stop11" />
      <stop
         style="stop-color:#1a9fff;stop-opacity:1;"
         offset="1"
         id="stop12" />
    </linearGradient>
    <linearGradient
       id="linearGradient3"
       inkscape:collect="always">
      <stop
         style="stop-color:#c957e6;stop-opacity:1;"
         offset="0"
         id="stop9" />
      <stop
         style="stop-color:#1a9fff;stop-opacity:1;"
         offset="1"
         id="stop10" />
    </linearGradient>
    <rect
       x="97.369124"
       y="257.12473"
       width="1047.5628"
       height="216.86031"
       id="rect10" />
    <linearGradient
       inkscape:collect="always"
       xlink:href="#linearGradient3"
       id="linearGradient10"
       x1="5.3600777"
       y1="376.94724"
       x2="631.233"
       y2="376.94724"
       gradientUnits="userSpaceOnUse" />
    <linearGradient
       inkscape:collect="always"
       xlink:href="#linearGradient11"
       id="linearGradient12"
       x1="491.09893"
       y1="555.23325"
       x2="1261.6956"
       y2="555.23325"
       gradientUnits="userSpaceOnUse" />
  </defs>
  <sodipodi:namedview
     id="namedview10"
     pagecolor="#000000"
     bordercolor="#000000"
     borderopacity="0.25"
     inkscape:showpageshadow="2"
     inkscape:pageopacity="0.0"
     inkscape:pagecheckerboard="0"
     inkscape:deskcolor="#d1d1d1"
     inkscape:zoom="0.82731493"
     inkscape:cx="632.16555"
     inkscape:cy="372.89307"
     inkscape:window-width="2106"
     inkscape:window-height="917"
     inkscape:window-x="26"
     inkscape:window-y="23"
     inkscape:window-maximized="0"
     inkscape:current-layer="svg10" />
  <linearGradient
     id="_Linear1"
     x1="0"
     y1="0"
     x2="1"
     y2="0"
     gradientUnits="userSpaceOnUse"
     gradientTransform="matrix(282.082,0,0,150,0,75)">
    <stop
       offset="0"
       style="stop-color:rgb(201,87,230);stop-opacity:1"
       id="stop1" />
    <stop
       offset="0.01"
       style="stop-color:rgb(201,87,230);stop-opacity:1"
       id="stop2" />
    <stop
       offset="0.9"
       style="stop-color:rgb(26,159,255);stop-opacity:1"
       id="stop3" />
    <stop
       offset="1"
       style="stop-color:rgb(26,159,255);stop-opacity:1"
       id="stop4" />
  </linearGradient>
  <linearGradient
     id="_Linear2"
     x1="0"
     y1="0"
     x2="1"
     y2="0"
     gradientUnits="userSpaceOnUse"
     gradientTransform="matrix(1280.0011,0,0,476.929,247.52987,341.61792)">
    <stop
       offset="0"
       style="stop-color:rgb(201,87,230);stop-opacity:1"
       id="stop5" />
    <stop
       offset="0.01"
       style="stop-color:rgb(201,87,230);stop-opacity:1"
       id="stop6" />
    <stop
       offset="0.9"
       style="stop-color:rgb(26,159,255);stop-opacity:1"
       id="stop7" />
    <stop
       offset="1"
       style="stop-color:rgb(26,159,255);stop-opacity:1"
       id="stop8" />
  </linearGradient>
  <g
     id="g10"
     inkscape:label="Powered by"
     transform="translate(-17.248004,-0.90654716)"
     style="fill:url(#linearGradient12)">
    <text
       xml:space="preserve"
       style="font-style:normal;font-variant:normal;font-weight:bold;font-stretch:normal;font-size:49.1904px;font-family:Dreams;-inkscape-font-specification:'Dreams Bold';letter-spacing:0px;display:inline;fill:url(#linearGradient12);fill-opacity:1;stroke:none;stroke-width:2.06833;stroke-linecap:round;stroke-linejoin:bevel;stroke-opacity:0.205396"
       x="467.97031"
       y="595.7644"
       id="text10"
       inkscape:label="テイキョウ:"
       transform="scale(1.04013,0.96141827)"><tspan
         sodipodi:role="line"
         id="tspan10"
         x="467.97031"
         y="595.7644"
         style="font-style:normal;font-variant:normal;font-weight:bold;font-stretch:normal;font-size:49.1904px;font-family:Dreams;-inkscape-font-specification:'Dreams Bold';stroke-width:2.06833;fill:url(#linearGradient12)">テイキョウ：</tspan></text>
    <path
       d="m 791.11447,570.96785 v -32.94149 h 22.27735 v 6.28306 h -14.04556 v 5.77418 h 12.93909 v 6.28259 h -12.93909 v 8.3186 h 14.04556 v 6.28306 z m 57.12179,0 v -12.41113 c 0,-1.22427 -0.0191,-2.25682 -0.0668,-3.09717 -0.0429,-0.84083 -0.17647,-1.52665 -0.39586,-2.05747 -0.22415,-0.5313 -0.56754,-0.91809 -1.03016,-1.1618 -0.46262,-0.24324 -1.11602,-0.36485 -1.95541,-0.36485 -0.59139,0 -1.17325,0.12924 -1.75033,0.38726 -0.57708,0.25802 -1.20186,0.62287 -1.8791,1.09503 v 17.61013 h -7.78825 v -12.41113 c 0,-1.20949 -0.0238,-2.23822 -0.0763,-3.0862 -0.0525,-0.84798 -0.19077,-1.53762 -0.41016,-2.06844 -0.21939,-0.5313 -0.56277,-0.91809 -1.03017,-1.1618 -0.46262,-0.24324 -1.10647,-0.36485 -1.93633,-0.36485 -0.63431,0 -1.25432,0.14737 -1.85525,0.44259 -0.6057,0.29474 -1.19709,0.64147 -1.76941,1.0397 v 17.61013 h -7.74532 v -24.84466 h 7.74532 v 2.74329 c 1.26386,-1.07643 2.46096,-1.91725 3.58174,-2.522 1.12078,-0.60475 2.38464,-0.90712 3.78205,-0.90712 1.5214,0 2.8568,0.36151 4.0062,1.08406 1.1494,0.72303 2.02695,1.79945 2.63265,3.23024 1.48802,-1.38643 2.89496,-2.45189 4.21128,-3.19685 1.32109,-0.74497 2.66127,-1.11745 4.01574,-1.11745 1.15417,0 2.18434,0.18457 3.10004,0.55324 0.91571,0.36867 1.68833,0.9219 2.32265,1.65924 0.69154,0.79647 1.2114,1.74412 1.55955,2.84297 0.34816,1.09884 0.51986,2.53297 0.51986,4.30285 v 16.17219 z m 36.59476,0 h -7.74533 v -2.7433 c -1.34494,1.12079 -2.57542,1.97258 -3.6962,2.55491 -1.12078,0.58281 -2.45618,0.87421 -4.00143,0.87421 -2.46573,0 -4.38775,-0.77835 -5.76607,-2.33409 -1.37833,-1.55622 -2.06511,-3.89746 -2.06511,-7.02421 v -16.17218 h 7.78348 v 12.32287 c 0,1.28294 0.0334,2.33027 0.10016,3.14153 0.0668,0.81125 0.22416,1.49708 0.47693,2.05747 0.23846,0.51604 0.60093,0.90712 1.09694,1.17229 0.49123,0.26565 1.18278,0.39824 2.0651,0.39824 0.54847,0 1.19232,-0.13259 1.93633,-0.39824 0.74401,-0.26517 1.43556,-0.62668 2.06987,-1.08406 v -17.61012 h 7.74533 z m 13.66878,0 h -7.74055 v -34.42378 h 7.74055 z m 19.62563,-6.48242 v -5.17659 c -1.31155,0.13259 -2.3751,0.24705 -3.18588,0.34291 -0.81078,0.0959 -1.60725,0.28378 -2.38942,0.56421 -0.68201,0.23608 -1.20663,0.5933 -1.5834,1.07261 -0.37678,0.47979 -0.56278,1.11745 -0.56278,1.91392 0,1.16514 0.31477,1.96542 0.93955,2.40038 0.62478,0.43496 1.55002,0.65244 2.77573,0.65244 0.67724,0 1.37355,-0.15452 2.07941,-0.46453 0.71062,-0.30952 1.34971,-0.74496 1.92679,-1.30535 z m 0,3.84977 c -0.53416,0.44211 -1.00632,0.84035 -1.42602,1.19471 -0.42446,0.35388 -0.98724,0.70776 -1.69309,1.06164 -0.69632,0.3391 -1.36879,0.59759 -2.02695,0.77453 -0.65339,0.17694 -1.57387,0.26518 -2.75188,0.26518 -2.19865,0 -4.02528,-0.73734 -5.47515,-2.212 -1.45463,-1.47514 -2.17956,-3.33326 -2.17956,-5.5753 0,-1.84333 0.36723,-3.33326 1.10647,-4.46883 0.73447,-1.13556 1.79802,-2.03553 3.18589,-2.69894 1.3974,-0.67867 3.07142,-1.15035 5.02206,-1.416 1.94587,-0.26565 4.03959,-0.47168 6.28116,-0.61953 v -0.13259 c 0,-1.37164 -0.50555,-2.3193 -1.51664,-2.84297 -1.01109,-0.52367 -2.52295,-0.78502 -4.54513,-0.78502 -0.91571,0 -1.98403,0.16549 -3.20973,0.49743 -1.22094,0.33194 -2.41803,0.75593 -3.58174,1.27197 h -0.66293 v -5.995 c 0.76308,-0.22129 2.0031,-0.48312 3.71527,-0.7855 1.71218,-0.30237 3.43866,-0.45356 5.17468,-0.45356 4.27806,0 7.39717,0.71158 9.34781,2.13474 1.95541,1.42363 2.93312,3.59509 2.93312,6.51532 v 16.90237 h -7.69764 z m 22.94029,3.11912 c -3.15727,0 -5.4513,-0.64863 -6.89163,-1.94683 -1.44032,-1.29772 -2.15572,-3.42149 -2.15572,-6.37129 v -11.61466 h -2.96649 v -5.39835 h 2.96649 v -7.10148 h 7.74056 v 7.10148 h 7.45917 v 5.39835 h -7.45917 v 8.80507 c 0,0.86992 0.01,1.62966 0.0239,2.27829 0.0143,0.6491 0.13354,1.23191 0.35293,1.74794 0.20507,0.51604 0.57231,0.92572 1.09693,1.22809 0.52462,0.3019 1.28771,0.45309 2.28926,0.45309 0.41016,0 0.95386,-0.0882 1.62633,-0.26518 0.6677,-0.17694 1.13986,-0.33909 1.40217,-0.48694 h 0.6677 v 5.46465 c -0.84416,0.2213 -1.73602,0.39442 -2.68034,0.51986 -0.94432,0.12543 -2.09849,0.18791 -3.47204,0.18791 z m 17.05498,-0.48647 h -7.74056 v -24.84466 h 7.74056 z m 0.22415,-28.38395 h -8.1841 v -6.03983 h 8.1841 z m 29.55529,15.97282 c 0,4.08538 -1.11601,7.30417 -3.35281,9.65686 -2.23202,2.35222 -5.39406,3.52832 -9.47658,3.52832 -4.05866,0 -7.21116,-1.1761 -9.4575,-3.52832 -2.2511,-2.35269 -3.37666,-5.57148 -3.37666,-9.65686 0,-4.12972 1.12556,-7.3633 3.37666,-9.70121 2.24634,-2.33743 5.39884,-3.50638 9.4575,-3.50638 4.06821,0 7.22548,1.17611 9.46705,3.5288 2.24156,2.35221 3.36234,5.57864 3.36234,9.67879 z m -7.94086,0.0439 c 0,-1.47466 -0.124,-2.70228 -0.36724,-3.68332 -0.24323,-0.98057 -0.57708,-1.76607 -1.00632,-2.35603 -0.45785,-0.61953 -0.97293,-1.05067 -1.54525,-1.29439 -0.57708,-0.24323 -1.23524,-0.36485 -1.96972,-0.36485 -0.69631,0 -1.32109,0.10684 -1.88387,0.32098 -0.558,0.21366 -1.07309,0.62287 -1.54525,1.22761 -0.44354,0.57518 -0.79647,1.3645 -1.06355,2.367 -0.26708,1.00298 -0.40062,2.26398 -0.40062,3.783 0,1.5195 0.12877,2.74711 0.37678,3.6838 0.25277,0.93669 0.57708,1.68499 0.97293,2.24538 0.41493,0.57518 0.93001,0.99583 1.55002,1.261 0.62001,0.26565 1.30679,0.39824 2.06033,0.39824 0.61524,0 1.24956,-0.13259 1.88864,-0.39824 0.64386,-0.26517 1.15417,-0.6634 1.54048,-1.1947 0.45309,-0.63384 0.80124,-1.39741 1.03971,-2.28974 0.23369,-0.89233 0.35293,-2.12758 0.35293,-3.70574 z m 35.33092,12.36725 h -7.7883 v -12.32289 c 0,-1.00299 -0.043,-2.00215 -0.124,-2.9975 -0.081,-0.99583 -0.2289,-1.72935 -0.453,-2.20151 -0.2624,-0.56039 -0.6487,-0.96196 -1.1494,-1.20567 -0.5008,-0.24324 -1.1733,-0.36485 -2.0127,-0.36485 -0.6343,0 -1.2782,0.1178 -1.9268,0.35388 -0.6486,0.23608 -1.3402,0.6119 -2.0794,1.12841 v 17.61013 h -7.74056 v -24.84466 h 7.74056 v 2.74329 c 1.2686,-1.07643 2.5039,-1.91725 3.7057,-2.522 1.2019,-0.60475 2.5373,-0.90712 3.9967,-0.90712 2.5325,0 4.4736,0.80029 5.8186,2.40039 1.3401,1.60057 2.0126,3.91987 2.0126,6.95791 z m 16.3491,0.59711 c -2.5229,0 -4.7407,-0.24323 -6.6484,-0.73018 -1.9125,-0.48646 -3.6866,-1.09121 -5.3225,-1.81376 v -7.83165 h 0.7535 c 1.6502,1.40122 3.4721,2.47765 5.4657,3.22977 1.9887,0.75211 3.9203,1.12841 5.7946,1.12841 0.4722,0 1.097,-0.0515 1.8696,-0.155 0.7726,-0.10302 1.3974,-0.26517 1.8696,-0.48647 0.577,-0.25086 1.0635,-0.60093 1.4594,-1.05115 0.4006,-0.44975 0.5961,-1.04352 0.5961,-1.78085 0,-0.82605 -0.3243,-1.49708 -0.9729,-2.01312 -0.6486,-0.51604 -1.4213,-0.89234 -2.3227,-1.12842 -1.1207,-0.29474 -2.3178,-0.57517 -3.596,-0.84034 -1.2734,-0.26565 -2.4657,-0.58997 -3.5722,-0.97342 -2.5516,-0.89996 -4.3782,-2.10945 -5.4847,-3.62847 -1.1065,-1.51902 -1.6597,-3.42149 -1.6597,-5.70789 0,-3.08239 1.3068,-5.57864 3.9156,-7.48874 2.6088,-1.90962 5.871,-2.86491 9.777,-2.86491 1.965,0 3.9156,0.19936 5.852,0.59759 1.9411,0.39824 3.6771,0.93669 5.2128,1.61488 v 7.52213 h -0.7297 c -1.2257,-1.04734 -2.7185,-1.93252 -4.4831,-2.65507 -1.7599,-0.72254 -3.5722,-1.08406 -5.4323,-1.08406 -0.7201,0 -1.3687,0.0515 -1.9458,0.15501 -0.5723,0.10301 -1.178,0.30237 -1.8124,0.59711 -0.515,0.23608 -0.9634,0.58662 -1.3401,1.05115 -0.3768,0.46453 -0.5628,0.98438 -0.5628,1.55956 0,0.84083 0.3005,1.50805 0.8966,2.00215 0.5962,0.4941 1.7503,0.94003 3.4625,1.33826 1.1065,0.25087 2.1701,0.4941 3.1954,0.73018 1.0254,0.23608 2.1224,0.56039 3.2861,0.97341 2.2845,0.82604 3.9871,1.93586 5.0984,3.32944 1.116,1.39407 1.6692,3.23406 1.6692,5.51998 0,3.27412 -1.2829,5.90677 -3.8583,7.89794 -2.5755,1.99118 -6.0523,2.98653 -10.4305,2.98653 z m 27.5856,-0.11064 c -3.1573,0 -5.4513,-0.64863 -6.8916,-1.94683 -1.4356,-1.29772 -2.1558,-3.42149 -2.1558,-6.37129 v -11.61466 h -2.9665 v -5.39835 h 2.9665 v -7.10148 h 7.7406 v 7.10148 h 7.4592 v 5.39835 h -7.4592 v 8.80507 c 0,0.86992 0.01,1.62966 0.024,2.27829 0.014,0.6491 0.1335,1.23191 0.3529,1.74794 0.2099,0.51604 0.5723,0.92572 1.097,1.22809 0.5246,0.3019 1.2877,0.45309 2.2892,0.45309 0.415,0 0.9539,-0.0882 1.6264,-0.26518 0.6724,-0.17694 1.1398,-0.33909 1.4021,-0.48694 h 0.6677 v 5.46465 c -0.8441,0.2213 -1.736,0.39442 -2.6803,0.51986 -0.9396,0.12543 -2.0985,0.18791 -3.4721,0.18791 z m 23.007,-6.96889 v -5.17659 c -1.3115,0.13259 -2.3751,0.24705 -3.1858,0.34291 -0.8108,0.0959 -1.6073,0.28378 -2.3895,0.56421 -0.6772,0.23608 -1.2018,0.5933 -1.5786,1.07261 -0.3768,0.47979 -0.5628,1.11745 -0.5628,1.91392 0,1.16514 0.31,1.96542 0.9396,2.40038 0.6248,0.43496 1.55,0.65244 2.7757,0.65244 0.6773,0 1.3688,-0.15452 2.0794,-0.46453 0.7059,-0.30952 1.3497,-0.74496 1.922,-1.30535 z m 0,3.84977 c -0.5293,0.44211 -1.0063,0.84035 -1.426,1.19471 -0.4197,0.35388 -0.9824,0.70776 -1.6931,1.06164 -0.6915,0.3391 -1.364,0.59759 -2.0221,0.77453 -0.6582,0.17694 -1.5739,0.26518 -2.7567,0.26518 -2.1939,0 -4.0205,-0.73734 -5.4751,-2.212 -1.4499,-1.47514 -2.1796,-3.33326 -2.1796,-5.5753 0,-1.84333 0.372,-3.33326 1.1065,-4.46883 0.7392,-1.13556 1.8028,-2.03553 3.1859,-2.69894 1.4021,-0.67867 3.0761,-1.15035 5.022,-1.416 1.9459,-0.26565 4.0444,-0.47168 6.2859,-0.61953 v -0.13259 c 0,-1.37164 -0.5055,-2.3193 -1.5166,-2.84297 -1.0111,-0.52367 -2.5277,-0.78502 -4.5451,-0.78502 -0.9157,0 -1.9841,0.16549 -3.2098,0.49743 -1.2257,0.33194 -2.418,0.75593 -3.5817,1.27197 h -0.6677 v -5.995 c 0.7679,-0.22129 2.0079,-0.48312 3.72,-0.7855 1.7075,-0.30237 3.4339,-0.45356 5.1747,-0.45356 4.2781,0 7.3924,0.71158 9.3478,2.13474 1.9554,1.42363 2.9331,3.59509 2.9331,6.51532 v 16.90237 h -7.7024 z m 22.9451,3.11912 c -3.1573,0 -5.4561,-0.64863 -6.8916,-1.94683 -1.4403,-1.29772 -2.1605,-3.42149 -2.1605,-6.37129 v -11.61466 h -2.9617 v -5.39835 h 2.9617 v -7.10148 h 7.7453 v 7.10148 h 7.4544 v 5.39835 h -7.4544 v 8.80507 c 0,0.86992 0.01,1.62966 0.024,2.27829 0.014,0.6491 0.1288,1.23191 0.3529,1.74794 0.2051,0.51604 0.5724,0.92572 1.097,1.22809 0.5198,0.3019 1.2829,0.45309 2.2892,0.45309 0.4102,0 0.9539,-0.0882 1.6264,-0.26518 0.6677,-0.17694 1.1351,-0.33909 1.4021,-0.48694 h 0.663 v 5.46465 c -0.8394,0.2213 -1.7313,0.39442 -2.6756,0.51986 -0.9443,0.12543 -2.1033,0.18791 -3.472,0.18791 z m 17.055,-0.48647 h -7.7406 v -24.84466 h 7.7406 z m 0.2241,-28.38395 h -8.1888 v -6.03983 h 8.1888 z m 29.5553,15.97282 c 0,4.08538 -1.1208,7.30417 -3.3528,9.65686 -2.232,2.35222 -5.394,3.52832 -9.4813,3.52832 -4.0539,0 -7.2064,-1.1761 -9.4575,-3.52832 -2.2464,-2.35269 -3.3719,-5.57148 -3.3719,-9.65686 0,-4.12972 1.1255,-7.3633 3.3719,-9.70121 2.2511,-2.33743 5.4036,-3.50638 9.4575,-3.50638 4.0729,0 7.2302,1.17611 9.4718,3.5288 2.2415,2.35221 3.3623,5.57864 3.3623,9.67879 z m -7.9456,0.0439 c 0,-1.47466 -0.1192,-2.70228 -0.3625,-3.68332 -0.2432,-0.98057 -0.5771,-1.76607 -1.0063,-2.35603 -0.4578,-0.61953 -0.9729,-1.05067 -1.55,-1.29439 -0.5723,-0.24323 -1.2305,-0.36485 -1.9697,-0.36485 -0.6916,0 -1.3164,0.10684 -1.8791,0.32098 -0.5628,0.21366 -1.0779,0.62287 -1.5501,1.22761 -0.4435,0.57518 -0.7964,1.3645 -1.0587,2.367 -0.2671,1.00298 -0.4007,2.26398 -0.4007,3.783 0,1.5195 0.124,2.74711 0.3768,3.6838 0.2528,0.93669 0.5771,1.68499 0.973,2.24538 0.4149,0.57518 0.93,0.99583 1.55,1.261 0.62,0.26565 1.302,0.39824 2.0555,0.39824 0.62,0 1.2496,-0.13259 1.8934,-0.39824 0.6391,-0.26517 1.1542,-0.6634 1.5358,-1.1947 0.4578,-0.63384 0.806,-1.39741 1.0397,-2.28974 0.2384,-0.89233 0.3529,-2.12758 0.3529,-3.70574 z m 35.3309,12.36725 h -7.7835 V 558.645 c 0,-1.00299 -0.043,-2.00215 -0.124,-2.9975 -0.081,-0.99583 -0.2337,-1.72935 -0.4531,-2.20151 -0.2671,-0.56039 -0.6486,-0.96196 -1.1494,-1.20567 -0.5007,-0.24324 -1.1732,-0.36485 -2.0126,-0.36485 -0.6343,0 -1.2782,0.1178 -1.9268,0.35388 -0.6486,0.23608 -1.3402,0.6119 -2.0794,1.12841 v 17.61013 h -7.7406 v -24.84466 h 7.7406 v 2.74329 c 1.2686,-1.07643 2.5039,-1.91725 3.7057,-2.522 1.2019,-0.60475 2.5325,-0.90712 3.9919,-0.90712 2.5373,0 4.4784,0.80029 5.8186,2.40039 1.3449,1.60057 2.0126,3.91987 2.0126,6.95791 z m 19.8689,-11.46013 H 1184.6 v -6.15 h 14.6656 z m 35.2641,-4.97771 c 0,3.06809 -0.6725,5.81472 -2.0127,8.24086 -1.3449,2.42614 -3.038,4.28854 -5.0888,5.58627 -1.7122,1.106 -3.5722,1.81757 -5.5848,2.13473 -2.0127,0.31716 -4.1588,0.47598 -6.429,0.47598 h -10.3065 V 538.0264 h 10.2206 c 2.3131,0 4.4832,0.14737 6.5006,0.44259 2.0221,0.29474 3.9156,1.01014 5.685,2.14571 2.17,1.38643 3.8822,3.25599 5.1365,5.6082 1.2543,2.35269 1.8791,5.12174 1.8791,8.30715 z m -8.4941,-0.0663 c 0,-2.16812 -0.372,-4.02242 -1.116,-5.56385 -0.7488,-1.54144 -1.8934,-2.74711 -3.4435,-3.61703 -1.1207,-0.61953 -2.294,-0.95863 -3.5292,-1.01777 -1.2305,-0.0591 -2.6995,-0.0887 -4.4116,-0.0887 h -0.1574 v 20.61907 h 0.1574 c 1.86,0 3.4243,-0.0334 4.7025,-0.0997 1.2734,-0.0663 2.4848,-0.46071 3.639,-1.18373 1.3544,-0.85514 2.3894,-2.03506 3.0952,-3.53977 0.7059,-1.50423 1.0636,-3.34041 1.0636,-5.50853 z m 13.3826,16.50413 v -32.94149 h 22.2774 v 6.28306 H 1247.65 v 5.77418 h 12.9391 v 6.28259 H 1247.65 v 8.3186 h 14.0456 v 6.28306 z"
       fill="url(#_Linear2)"
       id="path10"
       style="display:inline;fill:url(#linearGradient12);stroke-width:0.476929"
       sodipodi:nodetypes="scccccccccccscccsscccssccscccccccsscccsscssccccccscsccssccscccccccccccccccsssccccccscsccccsssccccsscscccsccccccccccccssccsccccssccccccccscscscscscssscssccsscccscccsccscccssccccccsscscsccsccscccsscccsscscccccsccssscsccsssscsccccccccccssccssccccsccscsscscccccsccsccscssssccccscscccscsccccccccccssccsccccssccccccccccscscssscsssccscccssccscccsccssccssccccccsscsccccccsccssscsccsssccssccsccssccccccccccccccccccc"
       inkscape:label="EmulationStation-DE" />
  </g>
  <g
     id="g2"
     inkscape:label="レトロデック"
     transform="translate(16.199809)"
     style="display:inline">
    <text
       xml:space="preserve"
       style="font-style:normal;font-variant:normal;font-weight:normal;font-stretch:normal;font-size:233.013px;font-family:Dreams;-inkscape-font-specification:Dreams;letter-spacing:0px;display:inline;fill:url(#linearGradient10);fill-opacity:1;stroke:none;stroke-width:2.74332;stroke-linecap:round;stroke-linejoin:bevel;stroke-opacity:0.205396"
       x="-40.077457"
       y="463.9776"
       id="text11"
       inkscape:label="レトロ"
       transform="scale(0.95004123,1.0525859)"><tspan
         sodipodi:role="line"
         id="tspan11"
         x="-40.077457"
         y="463.9776"
         style="font-style:normal;font-variant:normal;font-weight:bold;font-stretch:normal;font-family:Dreams;-inkscape-font-specification:'Dreams Bold';fill:url(#linearGradient10);fill-opacity:1;stroke:none;stroke-width:2.74332;stroke-opacity:0.205396">レトロ</tspan></text>
    <text
       xml:space="preserve"
       style="font-style:normal;font-variant:normal;font-weight:normal;font-stretch:normal;font-size:233.013px;font-family:Dreams;-inkscape-font-specification:Dreams;letter-spacing:0px;display:inline;fill:#ffffff;fill-opacity:1;stroke:#ffffff;stroke-width:2.74332;stroke-linecap:round;stroke-linejoin:bevel;stroke-opacity:0.205396"
       x="865.45129"
       y="463.12082"
       id="text1"
       inkscape:label="デック"
       transform="scale(0.95004123,1.0525859)"><tspan
         sodipodi:role="line"
         id="tspan1"
         x="865.45129"
         y="463.12082"
         style="font-style:normal;font-variant:normal;font-weight:bold;font-stretch:normal;font-family:Dreams;-inkscape-font-specification:'Dreams Bold';fill:#ffffff;fill-opacity:1;stroke:#ffffff;stroke-width:2.74332;stroke-opacity:0.205396">ック</tspan></text>
    <path
       style="font-weight:bold;font-size:233.013px;font-family:Dreams;-inkscape-font-specification:'Dreams Bold';letter-spacing:0px;fill:#ffffff;stroke:#ffffff;stroke-width:2.74332;stroke-linecap:round;stroke-linejoin:bevel;stroke-opacity:0.205396"
       d="m 673.47799,349.54325 v 30.52471 c 6.52436,-0.46603 15.61187,-0.93205 22.36924,-0.93205 h 64.07858 c -0.93205,19.57309 -4.89327,37.04906 -14.44681,51.49587 -9.32052,13.74777 -25.63143,27.02951 -42.17535,33.32086 l 27.26252,19.8061 c 20.73816,-10.48558 38.68016,-28.42758 46.83561,-44.73849 8.38847,-16.31091 13.51476,-35.88401 14.91284,-59.88434 h 56.15613 c 6.52436,0 15.37886,0.23301 21.20418,0.69903 v -30.29169 c -6.05834,0.93206 -16.31091,1.39808 -21.20418,1.39808 H 695.84723 c -7.2234,0 -15.37885,-0.46602 -22.36924,-1.39808 z"
       transform="scale(0.95004123,1.0525859)"
       id="path3"
       inkscape:label="half DE" />
    <path
       style="font-weight:bold;font-size:233.013px;font-family:Dreams;-inkscape-font-specification:'Dreams Bold';letter-spacing:0px;fill:#ffffff;stroke:#ffffff;stroke-width:2.74332;stroke-linecap:round;stroke-linejoin:bevel;stroke-opacity:0.205396"
       d="m 845.67603,253.28205 -17.48837,8.09378 c 5.97704,9.32013 13.06094,23.54556 17.70975,33.84675 l 17.48838,-8.58433 c -3.76332,-8.58431 -11.95408,-24.03608 -17.70976,-33.3562 z"
       id="path2"
       inkscape:label="ten" />
    <path
       style="font-weight:bold;font-size:233.013px;font-family:Dreams;-inkscape-font-specification:'Dreams Bold';letter-spacing:0px;fill:#ffffff;stroke:#ffffff;stroke-width:2.74332;stroke-linecap:round;stroke-linejoin:bevel;stroke-opacity:0.205396"
       d="m 819.55415,264.31903 -17.70976,8.09379 c 5.97704,9.32011 12.83957,24.03608 17.48839,34.092 l 17.70976,-8.58432 c -4.20607,-9.07485 -11.95409,-24.52662 -17.48839,-33.60147 z"
       id="text2"
       inkscape:label="ten" />
  </g>
  <g
     id="Gamepad"
     transform="matrix(0.476929,0,0,0.476929,687.36578,285.058)"
     style="display:inline">
    <path
       d="m 282.082,100 c 0,27.596 -22.404,50 -50,50 H 50 C 22.404,150 0,127.596 0,100 V 50 C 0,22.404 22.404,0 50,0 h 182.082 c 27.596,0 50,22.404 50,50 z M 41.412,60.799 H 28.71 c -5.406,0 -9.794,4.389 -9.794,9.794 v 9.794 c 0,5.405 4.388,9.793 9.794,9.793 h 12.702 v 12.036 c 0,5.519 4.481,10 10,10 h 10 c 5.52,0 10,-4.481 10,-10 V 90.18 h 12.71 c 5.406,0 9.794,-4.388 9.794,-9.793 v -9.794 c 0,-5.405 -4.388,-9.794 -9.794,-9.794 H 71.412 V 48.763 c 0,-5.519 -4.48,-10 -10,-10 h -10 c -5.519,0 -10,4.481 -10,10 z m 146.752,-3.672 c 0,10.134 8.402,18.363 18.75,18.363 10.348,0 18.75,-8.229 18.75,-18.363 0,-10.135 -8.402,-18.364 -18.75,-18.364 -10.348,0 -18.75,8.229 -18.75,18.364 z m 37.5,36.726 c 0,10.135 8.402,18.363 18.75,18.363 10.348,0 18.75,-8.228 18.75,-18.363 0,-10.135 -8.402,-18.363 -18.75,-18.363 -10.348,0 -18.75,8.228 -18.75,18.363 z"
       fill="url(#_Linear1)"
       id="path9"
       style="fill:url(#_Linear1)" />
  </g>
</svg>
