<?xml version="1.0" encoding="UTF-8" standalone="no"?>
<svg
   id="svg29"
   version="1.1"
   viewBox="0 0 1280 800"
   sodipodi:docname="rd-stpatricks-splash.svg"
   xml:space="preserve"
   inkscape:version="1.4.3 (0d15f75042, 2025-12-25)"
   xmlns:inkscape="http://www.inkscape.org/namespaces/inkscape"
   xmlns:sodipodi="http://sodipodi.sourceforge.net/DTD/sodipodi-0.dtd"
   xmlns:xlink="http://www.w3.org/1999/xlink"
   xmlns="http://www.w3.org/2000/svg"
   xmlns:svg="http://www.w3.org/2000/svg"><sodipodi:namedview
     id="namedview2"
     pagecolor="#ffffff"
     bordercolor="#000000"
     borderopacity="0.25"
     inkscape:showpageshadow="2"
     inkscape:pageopacity="0.0"
     inkscape:pagecheckerboard="0"
     inkscape:deskcolor="#d1d1d1"
     inkscape:zoom="0.82289552"
     inkscape:cx="659.86506"
     inkscape:cy="374.89571"
     inkscape:window-width="1920"
     inkscape:window-height="1080"
     inkscape:window-x="0"
     inkscape:window-y="0"
     inkscape:window-maximized="0"
     inkscape:current-layer="svg29" /><defs
     id="defs33"><linearGradient
       id="linearGradient312564"
       x2="2683.8"
       y1="500"
       y2="500"
       gradientUnits="userSpaceOnUse"
       x1="0"
       spreadMethod="pad"
       inkscape:label="Green-yellow"><stop
         id="stop312563"
         stop-color="#008000"
         offset="0" /><stop
         id="stop312564"
         stop-color="#808000"
         offset="0.88384897"
         style="stop-color:#caca00;stop-opacity:1;" /></linearGradient><linearGradient
       id="linearGradient312562"
       x2="2683.8"
       y1="500"
       y2="500"
       gradientUnits="userSpaceOnUse"
       x1="0"
       spreadMethod="pad"
       inkscape:label="Green-yellow"><stop
         id="stop312561"
         stop-color="#008000"
         offset="0" /><stop
         id="stop312562"
         stop-color="#808000"
         offset="0.72164565"
         style="stop-color:#caca00;stop-opacity:1;" /></linearGradient><linearGradient
       id="linearGradient312559"
       x2="2683.8"
       y1="500"
       y2="500"
       gradientUnits="userSpaceOnUse"
       x1="0"
       spreadMethod="pad"><stop
         id="stop312558"
         stop-color="#008000"
         offset="0" /><stop
         id="stop312559"
         stop-color="#808000"
         offset="0.85724372" /></linearGradient><linearGradient
       id="linearGradient312557"
       x2="2683.8"
       y1="500"
       y2="500"
       gradientUnits="userSpaceOnUse"
       x1="0"
       spreadMethod="pad"><stop
         id="stop312556"
         stop-color="#008000"
         offset="0" /><stop
         id="stop312557"
         stop-color="#808000"
         offset="0.85866243" /></linearGradient><linearGradient
       id="linearGradient312555"
       x2="2683.8"
       y1="500"
       y2="500"
       gradientUnits="userSpaceOnUse"
       x1="0"
       spreadMethod="pad"><stop
         id="stop312554"
         stop-color="#008000"
         offset="0" /><stop
         id="stop312555"
         stop-color="#808000"
         offset="0.86032081" /></linearGradient><linearGradient
       id="linearGradient312553"
       x2="2683.8"
       y1="500"
       y2="500"
       gradientUnits="userSpaceOnUse"
       x1="0"
       spreadMethod="pad"><stop
         id="stop312552"
         stop-color="#008000"
         offset="0" /><stop
         id="stop312553"
         stop-color="#808000"
         offset="0.888565" /></linearGradient><linearGradient
       id="linearGradient312551"
       x2="2683.8"
       y1="500"
       y2="500"
       gradientUnits="userSpaceOnUse"
       x1="0"
       spreadMethod="pad"><stop
         id="stop312550"
         stop-color="#008000"
         offset="0" /><stop
         id="stop312551"
         stop-color="#808000"
         offset="0.94185323" /></linearGradient><linearGradient
       id="linearGradient312549"
       x2="2683.8"
       y1="500"
       y2="500"
       gradientUnits="userSpaceOnUse"
       x1="0"
       spreadMethod="pad"><stop
         id="stop312548"
         stop-color="#008000"
         offset="0" /><stop
         id="stop312549"
         stop-color="#808000"
         offset="0.99438357" /></linearGradient><linearGradient
       id="linearGradient312547"
       x2="2683.8"
       y1="500"
       y2="500"
       gradientUnits="userSpaceOnUse"
       x1="0"
       spreadMethod="pad"><stop
         id="stop312546"
         stop-color="#008000"
         offset="0" /><stop
         id="stop312547"
         stop-color="#808000"
         offset="0.32974452" /></linearGradient><linearGradient
       id="linearGradient312545"
       x2="2683.8"
       y1="500"
       y2="500"
       gradientUnits="userSpaceOnUse"
       x1="0"
       spreadMethod="pad"><stop
         id="stop312544"
         stop-color="#008000"
         offset="0" /><stop
         id="stop312545"
         stop-color="#808000"
         offset="0.32029307" /></linearGradient><linearGradient
       id="linearGradient312543"
       x2="2683.8"
       y1="500"
       y2="500"
       gradientUnits="userSpaceOnUse"
       x1="0"
       spreadMethod="pad"><stop
         id="stop312542"
         stop-color="#008000"
         offset="0" /><stop
         id="stop312543"
         stop-color="#808000"
         offset="0.32526818" /></linearGradient><linearGradient
       id="linearGradient312541"
       x2="2683.8"
       y1="500"
       y2="500"
       gradientUnits="userSpaceOnUse"
       x1="0"
       spreadMethod="pad"><stop
         id="stop312540"
         stop-color="#008000"
         offset="0" /><stop
         id="stop312541"
         stop-color="#808000"
         offset="0.36311281" /></linearGradient><linearGradient
       id="linearGradient312539"
       x2="2683.8"
       y1="500"
       y2="500"
       gradientUnits="userSpaceOnUse"
       x1="0"
       spreadMethod="pad"><stop
         id="stop312538"
         stop-color="#008000"
         offset="0" /><stop
         id="stop312539"
         stop-color="#808000"
         offset="0.42605981" /></linearGradient><linearGradient
       id="linearGradient312537"
       x2="2683.8"
       y1="500"
       y2="500"
       gradientUnits="userSpaceOnUse"
       x1="0"
       spreadMethod="pad"><stop
         id="stop312536"
         stop-color="#008000"
         offset="0" /><stop
         id="stop312537"
         stop-color="#808000"
         offset="0.48165423" /></linearGradient><linearGradient
       id="linearGradient312535"
       x2="2683.8"
       y1="500"
       y2="500"
       gradientUnits="userSpaceOnUse"
       x1="0"
       spreadMethod="pad"><stop
         id="stop312534"
         stop-color="#008000"
         offset="0" /><stop
         id="stop312535"
         stop-color="#808000"
         offset="0.53505909" /></linearGradient><linearGradient
       id="linearGradient312533"
       x2="2683.8"
       y1="500"
       y2="500"
       gradientUnits="userSpaceOnUse"
       x1="0"
       spreadMethod="pad"><stop
         id="stop312532"
         stop-color="#008000"
         offset="0" /><stop
         id="stop312533"
         stop-color="#808000"
         offset="0.55908608" /></linearGradient><linearGradient
       id="linearGradient312531"
       x2="2683.8"
       y1="500"
       y2="500"
       gradientUnits="userSpaceOnUse"
       x1="0"
       spreadMethod="pad"><stop
         id="stop312530"
         stop-color="#008000"
         offset="0" /><stop
         id="stop312531"
         stop-color="#808000"
         offset="0.60945272" /></linearGradient><linearGradient
       id="linearGradient312529"
       x2="2683.8"
       y1="500"
       y2="500"
       gradientUnits="userSpaceOnUse"
       x1="0"
       spreadMethod="pad"><stop
         id="stop312528"
         stop-color="#008000"
         offset="0" /><stop
         id="stop312529"
         stop-color="#808000"
         offset="0.67669463" /></linearGradient><linearGradient
       id="linearGradient312527"
       x2="2683.8"
       y1="500"
       y2="500"
       gradientUnits="userSpaceOnUse"
       x1="0"
       spreadMethod="pad"><stop
         id="stop312526"
         stop-color="#008000"
         offset="0" /><stop
         id="stop312527"
         stop-color="#808000"
         offset="0.72923142" /></linearGradient><linearGradient
       id="linearGradient312525"
       x2="2683.8"
       y1="500"
       y2="500"
       gradientUnits="userSpaceOnUse"
       x1="0"
       spreadMethod="pad"><stop
         id="stop312524"
         stop-color="#008000"
         offset="0" /><stop
         id="stop312525"
         stop-color="#808000"
         offset="0.80698723" /></linearGradient><linearGradient
       id="linearGradient312523"
       x2="2683.8"
       y1="500"
       y2="500"
       gradientUnits="userSpaceOnUse"
       x1="0"
       spreadMethod="pad"><stop
         id="stop312522"
         stop-color="#008000"
         offset="0" /><stop
         id="stop312523"
         stop-color="#808000"
         offset="0.87423557" /></linearGradient><linearGradient
       id="linearGradient312521"
       x2="2683.8"
       y1="500"
       y2="500"
       gradientUnits="userSpaceOnUse"
       x1="0"
       spreadMethod="pad"><stop
         id="stop312520"
         stop-color="#008000"
         offset="0" /><stop
         id="stop312521"
         stop-color="#808000"
         offset="0.91282517" /></linearGradient><linearGradient
       id="linearGradient312519"
       x2="2683.8"
       y1="500"
       y2="500"
       gradientUnits="userSpaceOnUse"
       x1="0"
       spreadMethod="pad"><stop
         id="stop312518"
         stop-color="#008000"
         offset="0" /><stop
         id="stop312519"
         stop-color="#808000"
         offset="0.96282911" /></linearGradient><linearGradient
       id="linearGradient312517"
       x2="2683.8"
       y1="500"
       y2="500"
       gradientUnits="userSpaceOnUse"
       x1="0"
       spreadMethod="pad"><stop
         id="stop312516"
         stop-color="#008000"
         offset="0" /><stop
         id="stop312517"
         stop-color="#808000"
         offset="0.98726422" /></linearGradient><linearGradient
       id="linearGradient312515"
       x2="2683.8"
       y1="500"
       y2="500"
       gradientUnits="userSpaceOnUse"
       x1="0"
       spreadMethod="pad"><stop
         id="stop312514"
         stop-color="#008000"
         offset="0" /><stop
         id="stop312515"
         stop-color="#808000"
         offset="1"
         style="stop-color:#0e8000;stop-opacity:1;" /></linearGradient><linearGradient
       id="linearGradient312513"
       x2="2683.8"
       y1="500"
       y2="500"
       gradientUnits="userSpaceOnUse"
       x1="0"
       spreadMethod="pad"><stop
         id="stop312512"
         stop-color="#008000"
         offset="0" /><stop
         id="stop312513"
         stop-color="#808000"
         offset="1"
         style="stop-color:#1e8000;stop-opacity:1;" /></linearGradient><linearGradient
       id="linearGradient312511"
       x2="2683.8"
       y1="500"
       y2="500"
       gradientUnits="userSpaceOnUse"
       x1="0"
       spreadMethod="pad"><stop
         id="stop312510"
         stop-color="#008000"
         offset="0" /><stop
         id="stop312511"
         stop-color="#808000"
         offset="1"
         style="stop-color:#228000;stop-opacity:1;" /></linearGradient><linearGradient
       id="linearGradient312509"
       x2="2683.8"
       y1="500"
       y2="500"
       gradientUnits="userSpaceOnUse"
       x1="0"
       spreadMethod="pad"><stop
         id="stop312508"
         stop-color="#008000"
         offset="0" /><stop
         id="stop312509"
         stop-color="#808000"
         offset="1"
         style="stop-color:#238000;stop-opacity:1;" /></linearGradient><linearGradient
       id="linearGradient312507"
       x2="2683.8"
       y1="500"
       y2="500"
       gradientUnits="userSpaceOnUse"
       x1="0"
       spreadMethod="pad"><stop
         id="stop312506"
         stop-color="#008000"
         offset="0" /><stop
         id="stop312507"
         stop-color="#808000"
         offset="1"
         style="stop-color:#288000;stop-opacity:1;" /></linearGradient><linearGradient
       id="linearGradient312505"
       x2="2683.8"
       y1="500"
       y2="500"
       gradientUnits="userSpaceOnUse"
       x1="0"
       spreadMethod="pad"><stop
         id="stop312504"
         stop-color="#008000"
         offset="0" /><stop
         id="stop312505"
         stop-color="#808000"
         offset="1"
         style="stop-color:#368000;stop-opacity:1;" /></linearGradient><linearGradient
       id="linearGradient312503"
       x2="2683.8"
       y1="500"
       y2="500"
       gradientUnits="userSpaceOnUse"
       x1="0"
       spreadMethod="pad"><stop
         id="stop312502"
         stop-color="#008000"
         offset="0" /><stop
         id="stop312503"
         stop-color="#808000"
         offset="1"
         style="stop-color:#478000;stop-opacity:1;" /></linearGradient><linearGradient
       id="linearGradient312501"
       x2="2683.8"
       y1="500"
       y2="500"
       gradientUnits="userSpaceOnUse"
       x1="0"
       spreadMethod="pad"><stop
         id="stop312500"
         stop-color="#008000"
         offset="0" /><stop
         id="stop312501"
         stop-color="#808000"
         offset="1"
         style="stop-color:#4e8000;stop-opacity:1;" /></linearGradient><linearGradient
       id="linearGradient312499"
       x2="2683.8"
       y1="500"
       y2="500"
       gradientUnits="userSpaceOnUse"
       x1="0"
       spreadMethod="pad"><stop
         id="stop312498"
         stop-color="#008000"
         offset="0" /><stop
         id="stop312499"
         stop-color="#808000"
         offset="1"
         style="stop-color:#508000;stop-opacity:1;" /></linearGradient><linearGradient
       id="linearGradient312497"
       x2="2683.8"
       y1="500"
       y2="500"
       gradientUnits="userSpaceOnUse"
       x1="0"
       spreadMethod="pad"><stop
         id="stop312496"
         stop-color="#008000"
         offset="0" /><stop
         id="stop312497"
         stop-color="#808000"
         offset="1"
         style="stop-color:#4e4e32;stop-opacity:1;" /></linearGradient><linearGradient
       id="linearGradient312495"
       x2="2683.8"
       y1="500"
       y2="500"
       gradientUnits="userSpaceOnUse"
       x1="0"
       spreadMethod="pad"><stop
         id="stop312494"
         stop-color="#008000"
         offset="0" /><stop
         id="stop312495"
         stop-color="#808000"
         offset="1"
         style="stop-color:#4e4e32;stop-opacity:1;" /></linearGradient><linearGradient
       id="linearGradient312493"
       x2="2683.8"
       y1="500"
       y2="500"
       gradientUnits="userSpaceOnUse"
       x1="0"
       spreadMethod="pad"
       inkscape:label="Green-yellow"><stop
         id="stop312492"
         stop-color="#008000"
         offset="0" /><stop
         id="stop312493"
         stop-color="#808000"
         offset="0.37974191"
         style="stop-color:#caca00;stop-opacity:1;" /></linearGradient><linearGradient
       id="linearGradient312491"
       x2="2683.8"
       y1="500"
       y2="500"
       gradientUnits="userSpaceOnUse"
       x1="0"
       spreadMethod="pad"><stop
         id="stop312490"
         stop-color="#008000"
         offset="0" /><stop
         id="stop312491"
         stop-color="#808000"
         offset="1"
         style="stop-color:#c4c400;stop-opacity:1;" /></linearGradient><linearGradient
       id="linearGradient312489"
       x2="2683.8"
       y1="500"
       y2="500"
       gradientUnits="userSpaceOnUse"
       x1="0"
       spreadMethod="pad"><stop
         id="stop312488"
         stop-color="#008000"
         offset="0" /><stop
         id="stop312489"
         stop-color="#808000"
         offset="1"
         style="stop-color:#c0c000;stop-opacity:1;" /></linearGradient><linearGradient
       id="linearGradient312487"
       x2="2683.8"
       y1="500"
       y2="500"
       gradientUnits="userSpaceOnUse"
       x1="0"
       spreadMethod="pad"><stop
         id="stop312486"
         stop-color="#008000"
         offset="0" /><stop
         id="stop312487"
         stop-color="#808000"
         offset="1"
         style="stop-color:#b9b900;stop-opacity:1;" /></linearGradient><linearGradient
       id="linearGradient312485"
       x2="2683.8"
       y1="500"
       y2="500"
       gradientUnits="userSpaceOnUse"
       x1="0"
       spreadMethod="pad"><stop
         id="stop312484"
         stop-color="#008000"
         offset="0" /><stop
         id="stop312485"
         stop-color="#808000"
         offset="1"
         style="stop-color:#b0b000;stop-opacity:1;" /></linearGradient><linearGradient
       id="linearGradient312483"
       x2="2683.8"
       y1="500"
       y2="500"
       gradientUnits="userSpaceOnUse"
       x1="0"
       spreadMethod="pad"><stop
         id="stop312482"
         stop-color="#008000"
         offset="0" /><stop
         id="stop312483"
         stop-color="#808000"
         offset="1"
         style="stop-color:#aeae00;stop-opacity:1;" /></linearGradient><linearGradient
       id="linearGradient312481"
       x2="2683.8"
       y1="500"
       y2="500"
       gradientUnits="userSpaceOnUse"
       x1="0"
       spreadMethod="pad"><stop
         id="stop312480"
         stop-color="#008000"
         offset="0" /><stop
         id="stop312481"
         stop-color="#808000"
         offset="1"
         style="stop-color:#abab00;stop-opacity:1;" /></linearGradient><linearGradient
       id="linearGradient312479"
       x2="2683.8"
       y1="500"
       y2="500"
       gradientUnits="userSpaceOnUse"
       x1="0"
       spreadMethod="pad"><stop
         id="stop312478"
         stop-color="#008000"
         offset="0" /><stop
         id="stop312479"
         stop-color="#808000"
         offset="1"
         style="stop-color:#478000;stop-opacity:1;" /></linearGradient><linearGradient
       id="linearGradient312477"
       x2="2683.8"
       y1="500"
       y2="500"
       gradientUnits="userSpaceOnUse"
       x1="0"
       spreadMethod="pad"><stop
         id="stop312476"
         stop-color="#008000"
         offset="0" /><stop
         id="stop312477"
         stop-color="#808000"
         offset="1"
         style="stop-color:#5c8000;stop-opacity:1;" /></linearGradient><linearGradient
       id="linearGradient312475"
       x2="2683.8"
       y1="500"
       y2="500"
       gradientUnits="userSpaceOnUse"
       x1="0"
       spreadMethod="pad"><stop
         id="stop312474"
         stop-color="#008000"
         offset="0" /><stop
         id="stop312475"
         stop-color="#808000"
         offset="1"
         style="stop-color:#678000;stop-opacity:1;" /></linearGradient><linearGradient
       id="linearGradient312473"
       x2="2683.8"
       y1="500"
       y2="500"
       gradientUnits="userSpaceOnUse"
       x1="0"
       spreadMethod="pad"><stop
         id="stop312472"
         stop-color="#008000"
         offset="0" /><stop
         id="stop312473"
         stop-color="#808000"
         offset="1"
         style="stop-color:#638000;stop-opacity:1;" /></linearGradient><linearGradient
       id="linearGradient312471"
       x2="2683.8"
       y1="500"
       y2="500"
       gradientUnits="userSpaceOnUse"
       x1="0"
       spreadMethod="pad"><stop
         id="stop312470"
         stop-color="#008000"
         offset="0" /><stop
         id="stop312471"
         stop-color="#808000"
         offset="1"
         style="stop-color:#578000;stop-opacity:1;" /></linearGradient><linearGradient
       id="linearGradient312469"
       x2="2683.8"
       y1="500"
       y2="500"
       gradientUnits="userSpaceOnUse"
       x1="0"
       spreadMethod="pad"><stop
         id="stop312468"
         stop-color="#008000"
         offset="0" /><stop
         id="stop312469"
         stop-color="#808000"
         offset="1"
         style="stop-color:#4f8000;stop-opacity:1;" /></linearGradient><linearGradient
       id="linearGradient312467"
       x2="2683.8"
       y1="500"
       y2="500"
       gradientUnits="userSpaceOnUse"
       x1="0"
       spreadMethod="pad"><stop
         id="stop312466"
         stop-color="#008000"
         offset="0" /><stop
         id="stop312467"
         stop-color="#808000"
         offset="1"
         style="stop-color:#4b8000;stop-opacity:1;" /></linearGradient><linearGradient
       id="linearGradient312465"
       x2="2683.8"
       y1="500"
       y2="500"
       gradientUnits="userSpaceOnUse"
       x1="0"
       spreadMethod="pad"><stop
         id="stop312464"
         stop-color="#008000"
         offset="0" /><stop
         id="stop312465"
         stop-color="#808000"
         offset="1"
         style="stop-color:#438000;stop-opacity:1;" /></linearGradient><linearGradient
       id="linearGradient312463"
       x2="2683.8"
       y1="500"
       y2="500"
       gradientUnits="userSpaceOnUse"
       x1="0"
       spreadMethod="pad"><stop
         id="stop312462"
         stop-color="#008000"
         offset="0" /><stop
         id="stop312463"
         stop-color="#808000"
         offset="1"
         style="stop-color:#418000;stop-opacity:1;" /></linearGradient><linearGradient
       id="linearGradient312461"
       x2="2683.8"
       y1="500"
       y2="500"
       gradientUnits="userSpaceOnUse"
       x1="0"
       spreadMethod="pad"><stop
         id="stop312460"
         stop-color="#008000"
         offset="0" /><stop
         id="stop312461"
         stop-color="#808000"
         offset="1"
         style="stop-color:#408000;stop-opacity:1;" /></linearGradient><linearGradient
       id="linearGradient312459"
       x2="2683.8"
       y1="500"
       y2="500"
       gradientUnits="userSpaceOnUse"
       x1="0"
       spreadMethod="pad"><stop
         id="stop312458"
         stop-color="#008000"
         offset="0" /><stop
         id="stop312459"
         stop-color="#808000"
         offset="1"
         style="stop-color:#418000;stop-opacity:1;" /></linearGradient><linearGradient
       id="linearGradient312457"
       x2="2683.8"
       y1="500"
       y2="500"
       gradientUnits="userSpaceOnUse"
       x1="0"
       spreadMethod="pad"><stop
         id="stop312456"
         stop-color="#008000"
         offset="0" /><stop
         id="stop312457"
         stop-color="#808000"
         offset="1"
         style="stop-color:#438000;stop-opacity:1;" /></linearGradient><linearGradient
       id="linearGradient312455"
       x2="2683.8"
       y1="500"
       y2="500"
       gradientUnits="userSpaceOnUse"
       x1="0"
       spreadMethod="pad"><stop
         id="stop312454"
         stop-color="#008000"
         offset="0" /><stop
         id="stop312455"
         stop-color="#808000"
         offset="1"
         style="stop-color:#468000;stop-opacity:1;" /></linearGradient><linearGradient
       id="linearGradient312453"
       x2="2683.8"
       y1="500"
       y2="500"
       gradientUnits="userSpaceOnUse"
       x1="0"
       spreadMethod="pad"><stop
         id="stop312452"
         stop-color="#008000"
         offset="0" /><stop
         id="stop312453"
         stop-color="#808000"
         offset="1"
         style="stop-color:#4b8000;stop-opacity:1;" /></linearGradient><linearGradient
       id="linearGradient312451"
       x2="2683.8"
       y1="500"
       y2="500"
       gradientUnits="userSpaceOnUse"
       x1="0"
       spreadMethod="pad"><stop
         id="stop312450"
         stop-color="#008000"
         offset="0" /><stop
         id="stop312451"
         stop-color="#808000"
         offset="1"
         style="stop-color:#4c8000;stop-opacity:1;" /></linearGradient><linearGradient
       id="linearGradient312449"
       x2="2683.8"
       y1="500"
       y2="500"
       gradientUnits="userSpaceOnUse"
       x1="0"
       spreadMethod="pad"><stop
         id="stop312448"
         stop-color="#008000"
         offset="0" /><stop
         id="stop312449"
         stop-color="#808000"
         offset="1"
         style="stop-color:#228000;stop-opacity:1;" /></linearGradient><linearGradient
       id="linearGradient312447"
       x2="2683.8"
       y1="500"
       y2="500"
       gradientUnits="userSpaceOnUse"
       x1="0"
       spreadMethod="pad"><stop
         id="stop312446"
         stop-color="#008000"
         offset="0" /><stop
         id="stop312447"
         stop-color="#808000"
         offset="1"
         style="stop-color:#278000;stop-opacity:1;" /></linearGradient><linearGradient
       id="linearGradient312445"
       x2="2683.8"
       y1="500"
       y2="500"
       gradientUnits="userSpaceOnUse"
       x1="0"
       spreadMethod="pad"><stop
         id="stop312444"
         stop-color="#008000"
         offset="0" /><stop
         id="stop312445"
         stop-color="#808000"
         offset="1"
         style="stop-color:#2e8000;stop-opacity:1;" /></linearGradient><linearGradient
       id="linearGradient312443"
       x2="2683.8"
       y1="500"
       y2="500"
       gradientUnits="userSpaceOnUse"
       x1="0"
       spreadMethod="pad"><stop
         id="stop312442"
         stop-color="#008000"
         offset="0" /><stop
         id="stop312443"
         stop-color="#808000"
         offset="1"
         style="stop-color:#388000;stop-opacity:1;" /></linearGradient><linearGradient
       id="linearGradient312441"
       x2="2683.8"
       y1="500"
       y2="500"
       gradientUnits="userSpaceOnUse"
       x1="0"
       spreadMethod="pad"><stop
         id="stop312440"
         stop-color="#008000"
         offset="0" /><stop
         id="stop312441"
         stop-color="#808000"
         offset="1"
         style="stop-color:#3a8000;stop-opacity:1;" /></linearGradient><linearGradient
       id="linearGradient312439"
       x2="2683.8"
       y1="500"
       y2="500"
       gradientUnits="userSpaceOnUse"
       x1="0"
       spreadMethod="pad"><stop
         id="stop312438"
         stop-color="#008000"
         offset="0" /><stop
         id="stop312439"
         stop-color="#808000"
         offset="1"
         style="stop-color:#428000;stop-opacity:1;" /></linearGradient><linearGradient
       id="linearGradient312437"
       x2="2683.8"
       y1="500"
       y2="500"
       gradientUnits="userSpaceOnUse"
       x1="0"
       spreadMethod="pad"><stop
         id="stop312436"
         stop-color="#008000"
         offset="0" /><stop
         id="stop312437"
         stop-color="#808000"
         offset="1"
         style="stop-color:#458000;stop-opacity:1;" /></linearGradient><linearGradient
       id="linearGradient312435"
       x2="2683.8"
       y1="500"
       y2="500"
       gradientUnits="userSpaceOnUse"
       x1="0"
       spreadMethod="pad"><stop
         id="stop312434"
         stop-color="#008000"
         offset="0" /><stop
         id="stop312435"
         stop-color="#808000"
         offset="1"
         style="stop-color:#478000;stop-opacity:1;" /></linearGradient><linearGradient
       id="linearGradient312433"
       x2="2683.8"
       y1="500"
       y2="500"
       gradientUnits="userSpaceOnUse"
       x1="0"
       spreadMethod="pad"><stop
         id="stop312432"
         stop-color="#008000"
         offset="0" /><stop
         id="stop312433"
         stop-color="#808000"
         offset="1"
         style="stop-color:#488000;stop-opacity:1;" /></linearGradient><linearGradient
       id="linearGradient312431"
       x2="2683.8"
       y1="500"
       y2="500"
       gradientUnits="userSpaceOnUse"
       x1="0"
       spreadMethod="pad"><stop
         id="stop312430"
         stop-color="#008000"
         offset="0" /><stop
         id="stop312431"
         stop-color="#808000"
         offset="1"
         style="stop-color:#4d8000;stop-opacity:1;" /></linearGradient><linearGradient
       id="linearGradient312429"
       x2="2683.8"
       y1="500"
       y2="500"
       gradientUnits="userSpaceOnUse"
       x1="0"
       spreadMethod="pad"><stop
         id="stop312428"
         stop-color="#008000"
         offset="0" /><stop
         id="stop312429"
         stop-color="#808000"
         offset="1"
         style="stop-color:#508000;stop-opacity:1;" /></linearGradient><linearGradient
       id="linearGradient312427"
       x2="2683.8"
       y1="500"
       y2="500"
       gradientUnits="userSpaceOnUse"><stop
         id="stop312426"
         stop-color="#008000"
         offset="0" /><stop
         id="stop312427"
         stop-color="#808000"
         offset="1"
         style="stop-color:#528000;stop-opacity:1;" /></linearGradient><linearGradient
       id="linearGradient2836"
       x2="2683.8"
       y1="500"
       y2="500"
       gradientUnits="userSpaceOnUse"
       xlink:href="#linearGradient312559"><stop
         id="stop2830"
         stop-color="#008000"
         offset="0" /><stop
         id="stop2832"
         stop-color="#808000"
         offset="1" /></linearGradient><linearGradient
       id="linearGradient3051"
       x2="282.08"
       y1="75"
       y2="75"
       gradientUnits="userSpaceOnUse"><stop
         id="stop3045"
         stop-color="#008000"
         offset="0" /><stop
         id="stop3047"
         stop-color="#808000"
         offset="1" /></linearGradient><linearGradient
       inkscape:collect="always"
       xlink:href="#linearGradient312493"
       id="linearGradient13"
       gradientUnits="userSpaceOnUse"
       x1="-3.1209054"
       y1="495.17365"
       x2="2686.8916"
       y2="495.17365"
       gradientTransform="matrix(0.99997913,0,0,0.99997913,-56.19794,-234.52623)" /><linearGradient
       id="linearGradient11-1"
       inkscape:label="powered-by"><stop
         style="stop-color:#ff0b0b;stop-opacity:1;"
         offset="0"
         id="stop11" /><stop
         style="stop-color:#fbff07;stop-opacity:1;"
         offset="0.49705252"
         id="stop12" /></linearGradient><linearGradient
       inkscape:collect="always"
       xlink:href="#linearGradient312562"
       id="linearGradient312561"
       x1="-2.7802856"
       y1="456.71216"
       x2="2686.6357"
       y2="456.71216"
       gradientUnits="userSpaceOnUse" /><linearGradient
       inkscape:collect="always"
       xlink:href="#linearGradient312564"
       id="linearGradient312563"
       gradientUnits="userSpaceOnUse"
       y1="75"
       x2="282.07999"
       y2="75" /></defs><rect
     style="display:none;fill:#000000;stroke:#ffff7c;stroke-width:1.58499;stroke-linecap:round;stroke-linejoin:bevel"
     id="rect2"
     width="1305.4268"
     height="899.05359"
     x="-9.8997736"
     y="-89.387039"
     inkscape:label="black background" /><path
     id="path2-7"
     style="white-space:pre;shape-inside:url(#rect752);display:inline;fill:url(#linearGradient13);stroke:#000000;stroke-width:1.5;stroke-dasharray:none;stroke-opacity:1;paint-order:fill markers stroke"
     inkscape:label="Powered by"
     d="m 452.76427,433.42219 v 32.41797 h 6.98046 l 0.31251,-1.16797 c 0.97218,0.55558 1.88892,0.96659 2.75,1.23047 0.86108,0.26389 1.87434,0.39453 3.04101,0.39453 2.79152,0 5.13263,-1.14587 7.02149,-3.43749 1.88881,-2.30556 2.83203,-5.3189 2.83203,-9.04103 0,-3.76379 -0.74248,-6.70903 -2.22851,-8.83398 -1.47227,-2.12496 -3.56888,-3.1875 -6.29102,-3.1875 -1.45837,0 -2.7444,0.28409 -3.85547,0.85352 -1.11108,0.56949 -2.20016,1.31384 -3.26953,2.23046 v -11.45898 z m -25.37305,0.002 v 9.95703 c -1.04168,-0.54166 -1.95837,-0.9375 -2.75,-1.18749 -0.77778,-0.26389 -1.77783,-0.39649 -3,-0.39649 -1.34717,0 -2.62571,0.29928 -3.83398,0.89649 -1.20828,0.58328 -2.23678,1.3826 -3.08399,2.39648 -0.93048,1.11107 -1.65973,2.41605 -2.1875,3.91601 -0.52777,1.49997 -0.79102,3.27085 -0.79102,5.3125 0,3.69443 0.77843,6.64526 2.334,8.85352 1.55543,2.20825 3.66538,3.3125 6.33202,3.3125 0.79169,0 1.47354,-0.0681 2.04297,-0.20703 0.56949,-0.13888 1.1452,-0.34723 1.72851,-0.625 0.45829,-0.22222 0.98677,-0.55556 1.58399,-1 0.61109,-0.44444 1.15278,-0.86111 1.625,-1.25 v 2.4375 h 7.29102 v -32.41602 z m 127.45508,0.83203 c -3.68043,0 -6.74878,0.90345 -9.20703,2.70899 -2.45825,1.79166 -3.6875,4.13828 -3.6875,7.04102 0,2.15272 0.52082,3.94443 1.56249,5.375 1.04168,1.43057 2.76328,2.56881 5.16603,3.41602 1.04167,0.3611 2.15913,0.66796 3.35351,0.91796 1.20827,0.24999 2.34091,0.51325 3.39649,0.79102 0.84718,0.22221 1.57639,0.57641 2.18749,1.0625 0.6111,0.48609 0.91602,1.11872 0.91602,1.89648 0,0.69442 -0.18751,1.25695 -0.5625,1.6875 -0.37499,0.41666 -0.83334,0.74241 -1.375,0.97851 -0.44439,0.20833 -1.03539,0.36179 -1.77148,0.45899 -0.72219,0.0972 -1.30558,0.14453 -1.75001,0.14453 -1.76386,0 -3.58207,-0.35411 -5.45703,-1.0625 -1.87493,-0.70838 -3.59092,-1.72164 -5.14648,-3.04101 h -0.70703 v 7.37499 c 1.54167,0.68049 3.20833,1.24872 5,1.70704 1.80546,0.45832 3.8946,0.6875 6.26953,0.6875 4.12491,0 7.39585,-0.93757 9.8125,-2.8125 2.43045,-1.87496 3.64648,-4.35232 3.64648,-7.43555 0,-2.15273 -0.5284,-3.88195 -1.58398,-5.1875 -1.04168,-1.31937 -2.63829,-2.36872 -4.79101,-3.14648 -1.09728,-0.38888 -2.13328,-0.69381 -3.10548,-0.91602 -0.95828,-0.22223 -1.95832,-0.45139 -3,-0.6875 -1.61106,-0.37499 -2.70009,-0.79168 -3.26953,-1.25 -0.55554,-0.47219 -0.83398,-1.10483 -0.83398,-1.89648 0,-0.54163 0.17427,-1.02845 0.52148,-1.45899 0.36107,-0.44444 0.78343,-0.77779 1.26953,-1 0.59719,-0.27777 1.16733,-0.4653 1.70899,-0.5625 0.54159,-0.0972 1.15344,-0.14453 1.83398,-0.14453 1.74996,0 3.45076,0.33899 5.10352,1.01953 1.66664,0.68059 3.07574,1.51391 4.22851,2.5 h 0.6875 v -7.08203 c -1.44444,-0.63884 -3.08278,-1.1465 -4.91601,-1.52149 -1.81936,-0.37496 -3.65284,-0.5625 -5.5,-0.5625 z m -302.51563,0.5625 v 31.02149 h 7.79297 v -10.14649 h 4.08203 c 1.11108,0 2.11113,-0.0909 3,-0.27148 0.90278,-0.18056 1.73613,-0.43057 2.50001,-0.75 0.76385,-0.31945 1.45899,-0.7077 2.08397,-1.16602 0.63889,-0.45826 1.22225,-0.95834 1.75001,-1.5 0.86108,-0.87498 1.5202,-1.96396 1.97852,-3.26953 0.45832,-1.30554 0.68749,-2.68062 0.68749,-4.12499 0,-1.79167 -0.31815,-3.33333 -0.95703,-4.62501 -0.63888,-1.30557 -1.54231,-2.34723 -2.70898,-3.12499 -1.05558,-0.70835 -2.23544,-1.22356 -3.54102,-1.54297 -1.29167,-0.33332 -2.83334,-0.50001 -4.625,-0.50001 z m 264.87109,0 v 31.01953 h 20.97853 v -5.91601 h -13.22852 v -7.83203 h 12.1875 v -5.91797 h -12.1875 v -5.4375 h 13.22852 v -5.91602 z m 71.66407,0 v 31.02149 h 9.70898 c 2.13886,0 4.15216,-0.14583 6.04102,-0.4375 1.90266,-0.30549 3.66042,-0.97981 5.27149,-2.02149 1.93053,-1.22217 3.52713,-2.97224 4.79101,-5.25 1.26383,-2.29155 1.89453,-4.88264 1.89453,-7.77148 0,-2.99991 -0.58896,-5.60425 -1.76953,-7.8125 -1.18048,-2.22225 -2.79233,-3.98547 -4.83398,-5.29101 -1.66667,-1.06939 -3.45076,-1.74371 -5.35352,-2.02149 -1.90276,-0.27777 -3.94445,-0.41602 -6.125,-0.41602 z m 32.3125,0 v 31.01953 h 20.97854 v -5.91601 h -13.22854 v -7.83203 h 12.18754 v -5.91797 h -12.18754 v -5.4375 h 13.22854 v -5.91602 z m -24.52149,5.79102 h 0.14649 c 1.61107,0 2.99371,0.0285 4.14649,0.084 1.16657,0.0555 2.27645,0.37566 3.33203,0.95898 1.45837,0.81948 2.53604,1.95775 3.23047,3.41602 0.70828,1.44447 1.0625,3.18688 1.0625,5.22851 v 0.002 c 0,2.04162 -0.33332,3.77095 -1,5.18749 -0.66669,1.41657 -1.6402,2.52651 -2.91797,3.33204 -1.08328,0.68052 -2.22926,1.0556 -3.4375,1.125 -1.19448,0.0555 -2.66605,0.084 -4.41602,0.084 h -0.14649 z m -336.53515,0.002 h 1.10547 c 1.15277,0 2.06186,0.0265 2.72852,0.082 0.68055,0.0417 1.3889,0.22352 2.12499,0.54297 0.58332,0.23609 1.08334,0.67364 1.5,1.31249 0.41666,0.62499 0.625,1.37502 0.625,2.25 0,0.94438 -0.0966,1.69447 -0.29101,2.25001 -0.18055,0.55558 -0.53473,1.08963 -1.0625,1.60351 -0.24997,0.25 -0.61178,0.47917 -1.08399,0.6875 -0.45832,0.19444 -0.89583,0.32708 -1.31249,0.39648 -0.48609,0.0833 -1.05625,0.13064 -1.70899,0.14454 -0.65268,0.0138 -1.34594,0.0215 -2.08203,0.0215 h -0.54297 z m 30.20899,1.10352 c -3.81942,0 -6.79107,1.10424 -8.91603,3.3125 -2.11102,2.19435 -3.16796,5.23621 -3.16796,9.125 0,3.84712 1.05694,6.88136 3.16796,9.10352 2.12496,2.20825 5.09671,3.3125 8.91603,3.3125 3.84719,0 6.81886,-1.10425 8.91601,-3.3125 2.11106,-2.22216 3.16602,-5.2564 3.16602,-9.10352 0,-3.86099 -1.05496,-6.89529 -3.16602,-9.10351 -2.11105,-2.22216 -5.08282,-3.33399 -8.91601,-3.33399 z m 64.70703,0 c -3.94432,0 -7.01454,1.13836 -9.20899,3.41602 -2.19445,2.27765 -3.29101,5.32716 -3.29101,9.14648 0,3.90259 1.17237,6.9085 3.51952,9.01953 2.36136,2.11105 5.75139,3.16797 10.16797,3.16797 1.20828,0 2.2292,-0.0625 3.06251,-0.1875 0.84718,-0.1111 1.66537,-0.27214 2.45703,-0.48047 0.86108,-0.20832 1.53539,-0.40908 2.02149,-0.60351 0.49995,-0.20833 1.0473,-0.42991 1.64452,-0.66602 v -6.02148 h -0.76953 c -0.31945,0.2361 -0.73612,0.50696 -1.25,0.8125 -0.49999,0.30555 -1.04928,0.58963 -1.64648,0.85351 -0.68059,0.30554 -1.43057,0.55556 -2.25001,0.75001 -0.81938,0.18049 -1.65278,0.27148 -2.49999,0.27148 -0.98608,0 -1.8952,-0.091 -2.72852,-0.27148 -0.83328,-0.19445 -1.56251,-0.50696 -2.1875,-0.9375 -0.63891,-0.4306 -1.15214,-1.00631 -1.54102,-1.72853 -0.38888,-0.73608 -0.618,-1.64523 -0.68749,-2.72851 h 15.97851 v -2.625 c 0,-3.59722 -0.90342,-6.36045 -2.70898,-8.29101 -1.80546,-1.93048 -4.49884,-2.89649 -8.08203,-2.89649 z m 43.83202,0 c -3.94429,0 -7.01257,1.13836 -9.20703,3.41602 -2.19445,2.27765 -3.29297,5.32716 -3.29297,9.14648 0,3.90259 1.17434,6.9085 3.52149,9.01953 2.36135,2.11105 5.74941,3.16797 10.16602,3.16797 1.20827,0 2.22918,-0.0625 3.06249,-0.1875 0.84719,-0.1111 1.66734,-0.27214 2.45899,-0.48047 0.86108,-0.20832 1.53538,-0.40908 2.02148,-0.60351 0.49999,-0.20833 1.04733,-0.42991 1.64454,-0.66602 v -6.02148 h -0.76954 c -0.31944,0.2361 -0.73611,0.50696 -1.24999,0.8125 -0.49999,0.30555 -1.04927,0.58963 -1.64649,0.85351 -0.68058,0.30554 -1.43057,0.55556 -2.25,0.75001 -0.81938,0.18049 -1.65279,0.27148 -2.5,0.27148 -0.98608,0 -1.8952,-0.091 -2.72851,-0.27148 -0.83328,-0.19445 -1.56252,-0.50696 -2.18751,-0.9375 -0.6389,-0.4306 -1.15408,-1.00631 -1.54296,-1.72853 -0.38889,-0.73608 -0.61813,-1.64523 -0.6875,-2.72851 h 15.97851 v -2.625 c 0,-3.59722 -0.90149,-6.36241 -2.70703,-8.29297 -1.80546,-1.93045 -4.50076,-2.89453 -8.08399,-2.89453 z m -15.16601,0.64648 c -0.62499,0 -1.29168,0.11741 -2,0.35352 -0.69438,0.22222 -1.30621,0.49307 -1.83398,0.8125 -0.48609,0.27777 -1.0278,0.65279 -1.62501,1.125 -0.58331,0.45829 -1.04168,0.84094 -1.375,1.14648 v -3.35547 h -7.29101 v 23.39649 h 7.29101 v -15.66602 c 0.79169,-0.30554 1.6042,-0.57075 2.43751,-0.79296 0.84725,-0.22223 1.65412,-0.33204 2.41796,-0.33204 0.63889,0 1.22223,0.0265 1.75,0.082 0.52773,0.0417 0.92926,0.11179 1.20704,0.20899 h 0.60547 v -6.89649 c -0.23611,-0.0278 -0.50131,-0.0486 -0.79298,-0.0625 -0.29166,-0.0138 -0.55491,-0.0195 -0.79101,-0.0195 z m -79.89453,0.082 6.77149,23.39649 h 7.74804 l 4.125,-15.125 4.10547,15.125 h 7.75 l 6.83203,-23.39649 h -7.5 l -3.51953,15.48048 -4.18751,-15.48048 h -6.43749 l -4.4375,15.48048 -3.58398,-15.48048 z m 173.06054,0 8.58204,22.83203 -3.54102,9.14649 h 7.83204 l 11.81249,-31.97852 h -7.49999 l -4.60353,14.66603 -4.91601,-14.66603 z m -122.39452,3.95899 c 1.38884,0 2.41537,0.40345 3.08202,1.20898 0.68051,0.80549 1.04229,1.97787 1.08399,3.51954 h -8.8125 c 0.0833,-1.45827 0.52085,-2.60984 1.3125,-3.45704 0.80548,-0.84717 1.91732,-1.27148 3.33399,-1.27148 z m 43.83202,0 c 1.38888,0 2.41733,0.40345 3.08399,1.20898 0.68051,0.80549 1.04229,1.97787 1.08399,3.51954 h -8.81251 c 0.0833,-1.45827 0.52085,-2.60984 1.3125,-3.45704 0.80549,-0.84717 1.91536,-1.27148 3.33203,-1.27148 z m -107.97655,0.54102 c 0.69445,0 1.31185,0.11935 1.85351,0.35546 0.54162,0.22219 1.02846,0.62372 1.45898,1.20703 0.40276,0.55559 0.71527,1.29995 0.9375,2.23048 0.2361,0.91655 0.35352,2.06816 0.35352,3.45703 0,1.48607 -0.11177,2.65279 -0.33398,3.49999 -0.22222,0.83329 -0.54797,1.54927 -0.97852,2.14649 -0.36109,0.49999 -0.84791,0.87503 -1.45898,1.12499 -0.59719,0.25 -1.18622,0.37501 -1.76953,0.37501 -0.70829,0 -1.35422,-0.12501 -1.9375,-0.37501 -0.58329,-0.24996 -1.07011,-0.64583 -1.45899,-1.18749 -0.37499,-0.52779 -0.67991,-1.22853 -0.91601,-2.10352 -0.23611,-0.88888 -0.35353,-2.04989 -0.35353,-3.48046 0,-1.43057 0.12501,-2.61809 0.37501,-3.56251 0.24999,-0.94445 0.58333,-1.68685 1,-2.22851 0.44439,-0.5694 0.92926,-0.95204 1.45702,-1.14649 0.52779,-0.20832 1.11874,-0.31249 1.7715,-0.31249 z m 134.14257,0.33398 c 0.41669,0 0.91671,0.0625 1.5,0.1875 0.58334,0.1111 1.05686,0.25694 1.41797,0.4375 v 11.47852 c -0.54169,0.43051 -1.14018,0.77148 -1.79297,1.02148 -0.65278,0.24999 -1.29862,0.375 -1.93749,0.375 -1.56947,0 -2.70771,-0.51519 -3.41602,-1.54297 -0.69447,-1.02778 -1.04102,-2.69447 -1.04102,-4.99999 0,-2.19436 0.43752,-3.90088 1.3125,-5.12306 0.88888,-1.22216 2.20709,-1.83398 3.95703,-1.83398 z m 39.43751,0.1875 c 1.47213,0 2.56316,0.50005 3.27148,1.5 0.70831,0.99997 1.06249,2.66675 1.06249,5 0,2.33325 -0.43752,4.08333 -1.3125,5.25 -0.86108,1.16665 -2.17363,1.74999 -3.9375,1.74999 -0.48613,0 -0.98048,-0.036 -1.48046,-0.10546 -0.48606,-0.0695 -0.97093,-0.2001 -1.45703,-0.39453 v -11.75 c 0.62498,-0.41666 1.25565,-0.72917 1.89453,-0.9375 0.65268,-0.20833 1.30623,-0.3125 1.95899,-0.3125 z m 105.64257,1.79102 v 5.79101 h 13.8125 v -5.79101 z" /><g
     id="g312425"
     transform="matrix(0.22105226,0.8458198,-0.85572226,0.21849423,1154.4568,53.602857)"
     style="stroke:#ffffff;stroke-width:5.69032817;stroke-dasharray:none;stroke-opacity:1"
     inkscape:label="clover"><path
       style="fill:#008000;fill-opacity:1;stroke:none;stroke-width:5.69032817;stroke-dasharray:none;stroke-opacity:1"
       d="m 265.632,212.556 c 9.889,27.593 13.713,65.886 11.228,87.157 -3.876,33.22 -27.966,57.697 -53.821,54.684 -20.305,-2.369 -35.653,-21.001 -39.426,-44.988 -20.936,12.284 -45.078,12.232 -59.783,-1.983 -18.722,-18.078 -15.052,-52.237 8.189,-76.29 14.872,-15.4 46.92,-36.722 74.538,-46.559 -28.842,-5.215 -63.929,-21.052 -81.105,-33.838 -26.833,-19.97 -35.988,-53.087 -20.447,-73.972 12.206,-16.391 36.014,-20.37 58.675,-11.64 -0.167,-24.271 11.949,-45.156 31.597,-50.782 25.031,-7.172 52.778,13.082 61.984,45.233 5.897,20.589 8.344,58.997 3.052,87.839 18.94,-22.378 50.203,-44.834 69.864,-53.319 30.696,-13.262 63.954,-4.622 74.268,19.275 8.099,18.773 -0.361,41.37 -19.249,56.628 21.104,12 33.13,32.924 28.185,52.765 -6.309,25.25 -37.726,39.156 -70.173,31.057 -20.756,-5.176 -55.199,-22.237 -77.526,-41.216 -0.012,-0.025 -0.037,-0.038 -0.05,-0.051 z"
       id="path1"
       inkscape:label="inner" /><path
       d="m 359.136,473.433 c -0.545,0 -1.093,-0.033 -1.647,-0.106 -7.053,-0.9 -12.043,-7.348 -11.141,-14.403 7.52,-58.907 -4.844,-116.274 -36.746,-170.509 -24.512,-41.671 -52.083,-65.847 -52.36,-66.087 -0.242,-0.211 -0.476,-0.43 -0.702,-0.658 -0.004,-0.004 -0.009,-0.008 -0.013,-0.012 v 0 c -5.028,-5.028 -5.034,-13.187 -0.006,-18.215 4.922,-4.921 12.827,-5.032 17.874,-0.323 7.722,6.793 117.03,106.048 97.499,259.065 -0.832,6.502 -6.374,11.248 -12.758,11.248 z"
       id="path4"
       style="stroke:#c4d500;stroke-width:5.69032817;stroke-dasharray:none;stroke-opacity:1;fill:#008000;fill-opacity:1"
       inkscape:label="leg" /><path
       d="m 227.278,367.52 c -1.9,0 -3.81,-0.109 -5.731,-0.333 -20.789,-2.426 -38.151,-17.749 -46.457,-39.774 -22.3,7.539 -45.16,3.822 -60.21,-10.729 -11.971,-11.559 -17.475,-28.087 -15.494,-46.536 1.852,-17.243 10.153,-34.276 23.372,-47.957 9.944,-10.297 27.392,-23.542 46.94,-34.599 -21.08,-7.733 -40.45,-17.972 -51.936,-26.523 C 85.278,136.892 74.922,95.626 94.674,69.08 107.175,52.292 129.132,44.926 152.35,48.744 156.972,25.663 171.616,7.728 191.732,1.966 c 16.003,-4.585 33.076,-1.089 48.06,9.849 14.01,10.223 24.608,25.928 29.846,44.218 3.944,13.769 6.69,35.506 6.492,57.959 17.234,-14.384 35.79,-26.04 48.944,-31.717 17.461,-7.541 36.325,-9.296 53.116,-4.938 17.957,4.662 31.48,15.648 38.078,30.933 8.289,19.217 3.699,41.914 -11.221,60.114 17.671,15.546 25.886,37.197 20.828,57.495 -8.02,32.105 -46.505,50.239 -85.785,40.435 -13.884,-3.462 -34.088,-11.953 -53.435,-23.352 3.838,22.13 4.655,44.025 2.994,58.243 -4.419,37.86 -31.762,66.313 -62.371,66.315 z m -43.667,-70.986 c 1.879,0 3.761,0.411 5.508,1.237 3.849,1.822 6.549,5.43 7.212,9.636 2.963,18.834 14.295,32.577 28.198,34.201 18.416,2.146 36.544,-17.721 39.541,-43.388 2.197,-18.809 -1.215,-55.246 -10.561,-81.32 -2.399,-6.694 1.083,-14.066 7.777,-16.466 4.643,-1.664 9.616,-0.498 13.025,2.609 21.093,17.821 53.739,33.73 72.012,38.286 25.078,6.258 50.065,-3.671 54.565,-21.684 3.383,-13.571 -5.481,-29.026 -22.058,-38.451 -3.702,-2.105 -6.124,-5.904 -6.468,-10.149 -0.346,-4.244 1.429,-8.385 4.742,-11.06 14.828,-11.976 21.064,-28.658 15.519,-41.511 -3.38,-7.831 -10.805,-13.588 -20.904,-16.211 -11.27,-2.925 -24.208,-1.628 -36.436,3.654 -17.412,7.514 -47.267,28.696 -65.143,49.817 -3.767,4.452 -10.06,5.815 -15.334,3.321 -5.275,-2.495 -8.211,-8.225 -7.159,-13.963 4.996,-27.226 2.454,-63.747 -2.764,-81.97 -3.668,-12.81 -10.866,-23.644 -20.27,-30.507 -8.427,-6.151 -17.59,-8.247 -25.788,-5.893 -13.451,3.852 -22.4,19.249 -22.269,38.316 0.028,4.259 -2.05,8.257 -5.553,10.679 -3.504,2.421 -7.977,2.956 -11.951,1.424 -17.788,-6.854 -35.36,-3.913 -43.72,7.316 -11.082,14.894 -2.929,40.519 17.807,55.952 15.199,11.313 48.465,26.571 75.709,31.496 5.74,1.038 10.065,5.806 10.543,11.62 0.475,5.815 -3.018,11.221 -8.512,13.18 -26.089,9.293 -56.439,29.75 -69.597,43.375 -9.263,9.586 -15.048,21.239 -16.291,32.815 -1.112,10.373 1.651,19.346 7.783,25.268 10.068,9.733 27.878,9.788 44.323,0.14 2.004,-1.176 4.256,-1.769 6.514,-1.769 z"
       id="path2"
       style="stroke:#c4d500;stroke-width:5.69032817;stroke-dasharray:none;stroke-opacity:1"
       inkscape:label="outer" /></g><g
     id="DECK"
     transform="matrix(.41469 0 0 .41469 19.431 45.082)"
     style="stroke:#000000;stroke-opacity:1"><path
       id="path20"
       d="m1650 476.92h78.84v204.66l270.54-204.8h117.86l-163.89 124.06 180.62 254.2-97.06-0.27-146.34-206.28-161.73 122.58v83.835h-78.84zm-512.74 37.395c12.06-12.06 25.4-21.285 40.03-27.675 14.62-6.39 30.53-9.585 47.72-9.585h360.18v72.225h-360.18c-6.39 0-12.4 1.192-18.02 3.577-5.63 2.385-10.53 5.67-14.72 9.855-4.18 4.185-7.47 9.09-9.85 14.715-2.39 5.625-3.58 11.633-3.58 18.023v141.21c0 5.94 1.3 11.677 3.92 17.212 2.61 5.535 6.05 10.44 10.32 14.715 4.28 4.275 9.18 7.718 14.72 10.328 5.53 2.61 11.27 3.915 17.21 3.915h360.18v72.225h-360.18c-8.55 0-16.85-0.9-24.91-2.7-8.05-1.8-15.79-4.343-23.22-7.628-7.42-3.285-14.47-7.222-21.12-11.812-6.66-4.59-12.83-9.63-18.5-15.12-11.79-11.43-20.95-24.593-27.47-39.488-6.53-14.895-9.79-30.982-9.79-48.262v-127.98c0-17.28 3.19-33.21 9.59-47.79 6.39-14.58 15.61-27.9 27.67-39.96zm-587.26 297.4v-291.33c0-6.48 1.035-12.375 3.105-17.685s5.018-9.878 8.842-13.703c3.826-3.825 8.393-6.772 13.703-8.842s11.205-3.105 17.685-3.105h440.36v72.225h-404.72v76.545h355.59v72.225h-355.59v84.78h404.72v72.225h-440.36c-6.48 0-12.375-1.035-17.685-3.105s-9.877-5.018-13.703-8.843c-3.824-3.825-6.772-8.392-8.842-13.702s-3.105-11.205-3.105-17.685zm-102.07 151.02c-12.06 12.06-25.403 21.285-40.028 27.675s-30.532 9.585-47.722 9.585h-281.2v-72.225h281.2c6.39 0 12.397-1.192 18.022-3.578 5.625-2.384 10.53-5.67 14.715-9.855s7.47-9.089 9.855-14.715c2.385-5.624 3.578-11.632 3.578-18.022v-286.15c0-5.94-1.305-11.678-3.915-17.213s-6.053-10.44-10.328-14.715-9.18-7.717-14.715-10.327-11.272-3.915-17.212-3.915h-281.2v-72.225h281.2c8.55 0 16.852 0.9 24.907 2.7s15.795 4.342 23.22 7.627 14.468 7.223 21.128 11.813 12.825 9.63 18.495 15.12c11.79 11.43 20.947 24.592 27.472 39.487s9.788 30.983 9.788 48.263v272.92c0 17.28-3.195 33.21-9.585 47.79s-15.615 27.9-27.675 39.96z"
       fill="#fff"
       style="stroke:#000000;stroke-opacity:1" /></g><g
     id="g2"><g
       id="Gamepad"
       transform="matrix(.52633 0 0 .52633 17.338 313.96)"
       fill="url(#linearGradient3051)"><path
         id="path23"
         d="m282.08 100c0 27.596-22.404 50-50 50h-182.08c-27.596 0-50-22.404-50-50v-50c0-27.596 22.404-50 50-50h182.08c27.596 0 50 22.404 50 50zm-240.67-39.201h-12.702c-5.406 0-9.794 4.389-9.794 9.794v9.794c0 5.405 4.388 9.793 9.794 9.793h12.702v12.036c0 5.519 4.481 10 10 10h10c5.52 0 10-4.481 10-10v-12.036h12.71c5.406 0 9.794-4.388 9.794-9.793v-9.794c0-5.405-4.388-9.794-9.794-9.794h-12.71v-12.036c0-5.519-4.48-10-10-10h-10c-5.519 0-10 4.481-10 10zm146.75-3.672c0 10.134 8.402 18.363 18.75 18.363s18.75-8.229 18.75-18.363c0-10.135-8.402-18.364-18.75-18.364s-18.75 8.229-18.75 18.364zm37.5 36.726c0 10.135 8.402 18.363 18.75 18.363s18.75-8.228 18.75-18.363-8.402-18.363-18.75-18.363-18.75 8.228-18.75 18.363z"
         fill="url(#linearGradient3051)"
         style="fill:url(#linearGradient312563);stroke:#000000;stroke-opacity:1" /></g><g
       id="RETRO"
       transform="matrix(.41469 0 0 .41469 21.431 57.082)"
       fill="url(#linearGradient2836)"
       stroke="#000"
       stroke-width="5.5825"><path
         id="path26"
         style="fill:url(#linearGradient312561);fill-opacity:1"
         d="m 593.33821,7.5357496e-5 c -6.47998,0 -12.37548,1.033791042504 -17.68546,3.103786842504 -5.31,2.069996 -9.87494,5.0153844 -13.70094,8.8403758 -3.82398,3.824994 -6.77039,8.395655 -8.84037,13.705645 -2.07,5.30999 -3.1085,11.205476 -3.1085,17.685462 V 334.66271 c 0,6.48 1.0385,12.37547 3.1085,17.68547 2.06998,5.30998 5.01639,9.87595 8.84037,13.70093 3.826,3.825 8.39094,6.77509 13.70094,8.84509 5.30998,2.07 11.20548,3.10378 17.68546,3.10378 H 1033.6992 V 305.77253 H 628.9823 V 220.99535 H 984.57078 V 148.7699 H 628.9823 V 72.220816 h 404.7169 V 7.5357496e-5 Z m 506.66609,0 V 72.220816 h 202.4998 V 378.00269 h 78.9793 V 72.220816 h 202.3632 V 7.5357496e-5 Z m 1225.0115,0 c -17.19,0 -33.1003,3.194544342504 -47.7201,9.584531542504 -14.63,6.3899871 -27.969,15.6150641 -40.029,27.6750401 -12.06,12.059976 -21.2903,25.378342 -27.6703,39.958312 -6.39,14.579972 -9.5893,30.510821 -9.5893,47.790781 v 127.98058 c 0,17.27996 3.2571,33.36679 9.7871,48.26177 6.52,14.89496 15.6825,28.05734 27.4725,39.48732 5.67,5.49 11.8403,10.52862 18.5003,15.1186 6.65,4.59 13.6989,8.52729 21.1189,11.81229 7.43,3.28498 15.1695,5.82996 23.2195,7.62994 8.06,1.8 16.3604,2.69874 24.9104,2.69874 h 233.8202 c 8.55,0 16.8503,-0.89874 24.9103,-2.69874 8.05,-1.79998 15.7896,-4.34496 23.2196,-7.62994 7.42,-3.285 14.4683,-7.22229 21.1283,-11.81229 6.65,-4.58998 12.8209,-9.6286 18.4909,-15.1186 11.79,-11.42998 20.9478,-24.59236 27.4678,-39.48732 6.53,-14.89498 9.7917,-30.98181 9.7917,-48.26177 V 125.00874 c 0,-17.27996 -3.1998,-33.210809 -9.5798,-47.790781 -6.39,-14.57997 -15.6199,-27.898336 -27.6797,-39.958312 -12.06,-12.059976 -25.399,-21.285053 -40.029,-27.6750401 C 2591.9361,3.1946197 2576.026,7.5357496e-5 2558.836,7.5357496e-5 Z M 43.346235,0.0047852 v 0.00470984 c -6.479988,0 -12.375473,1.03379106 -17.685463,3.10378686 C 20.350784,5.1832777 15.78112,8.128666 11.955128,11.953658 8.1311348,15.77865 5.1847472,20.349313 3.1147514,25.659303 1.0447556,30.969291 0.01096452,36.864779 0.01096452,43.344765 L 0.14284013,378.00269 H 78.98562 V 229.23287 H 281.085 L 402.58484,378.00269 H 500.4601 L 378.96026,229.23287 h 1.4836 c 12.68998,0 24.27938,-1.48553 34.76336,-4.45551 10.48598,-2.97 19.91263,-7.08894 28.28261,-12.35392 8.36998,-5.265 15.68447,-11.49339 21.93845,-18.69337 6.25598,-7.19998 11.4496,-15.05366 15.58958,-23.55864 4.14,-8.50498 7.24607,-17.48561 9.31607,-26.93559 2.07,-9.44998 3.10379,-18.98703 3.10379,-28.61701 0.09,-9.44998 -0.8972,-18.835756 -2.9672,-28.150738 -2.07,-9.314982 -5.17609,-18.223378 -9.31607,-26.728362 -4.14,-8.504982 -9.3383,-16.400527 -15.5943,-23.690513 -6.25398,-7.289984 -13.5884,-13.590613 -22.00438,-18.900601 -8.414,-5.30999 -17.86257,-9.4964494 -28.34855,-12.5564432 -10.48398,-3.059994 -22.07338,-4.5873876 -34.76336,-4.5873876 z m 1649.999465,0 v 0.00470984 c -6.48,0 -12.3802,1.03379106 -17.6902,3.10378686 -5.31,2.0699958 -9.8809,5.0143841 -13.7009,8.8403761 -3.83,3.823992 -6.7804,8.395655 -8.8404,13.705645 -2.07,5.309988 -3.1085,11.205476 -3.1085,17.685462 l 0.1272,334.657925 h 78.8522 V 229.23287 h 202.09 l 121.4998,148.76982 h 97.88 L 2028.9456,229.23287 h 1.4883 c 12.69,0 24.2834,-1.48553 34.7634,-4.45551 10.49,-2.97 19.9179,-7.08894 28.2779,-12.35392 8.38,-5.265 15.6884,-11.49339 21.9384,-18.69337 6.26,-7.19998 11.4637,-15.05366 15.6037,-23.55864 4.13,-8.50498 7.2367,-17.48561 9.3067,-26.93559 2.07,-9.44998 3.1132,-18.98703 3.1132,-28.61701 0.08,-9.44998 -0.9013,-18.834756 -2.9813,-28.150738 -2.06,-9.314982 -5.1714,-18.224378 -9.3114,-26.728362 -4.14,-8.505982 -9.3396,-16.400527 -15.5896,-23.690513 -6.26,-7.289984 -13.5891,-13.590613 -22.0091,-18.900601 -8.41,-5.30999 -17.8585,-9.4964494 -28.3485,-12.5564432 -10.48,-3.059994 -22.0734,-4.5873876 -34.7634,-4.5873876 z M 78.98562,72.220816 h 299.96993 c 6.03,0 11.27117,1.215424 15.72617,3.645418 4.455,2.429996 8.14415,5.62454 11.06813,9.584532 2.926,3.959992 5.11141,8.484069 6.55139,13.569059 1.44,5.084985 2.13718,10.284295 2.09118,15.594295 -0.044,5.30998 -0.8087,10.50458 -2.2937,15.58958 -1.485,5.08498 -3.71327,9.60906 -6.68327,13.56906 -2.96998,3.95998 -6.65813,7.15453 -11.06813,9.58453 -4.40998,2.43 -9.54177,3.64542 -15.39177,3.64542 H 78.98562 Z m 1649.99948,0 h 299.9605 c 6.04,0 11.2809,1.215424 15.7309,3.645418 4.46,2.429996 8.1481,5.62454 11.0681,9.584532 2.93,3.959992 5.1114,8.484069 6.5514,13.569059 1.44,5.084985 2.1412,10.284295 2.0912,15.594295 -0.04,5.30998 -0.8137,10.50458 -2.2937,15.58958 -1.49,5.08498 -3.7086,9.60906 -6.6786,13.56906 -2.98,3.95998 -6.6681,7.15453 -11.0681,9.58453 -4.42,2.43 -9.5412,3.64542 -15.4012,3.64542 h -299.9605 z m 596.0307,0 h 233.8202 c 6.39,0 12.3998,1.193485 18.0198,3.579481 5.63,2.383994 10.5283,5.67271 14.7183,9.857702 4.18,4.184992 7.473,9.087563 9.853,14.713551 2.39,5.62398 3.5795,11.62988 3.5795,18.01986 v 141.21053 c 0,5.93998 -1.3039,11.67948 -3.9139,17.21448 -2.62,5.53498 -6.0587,10.43855 -10.3287,14.71355 -4.28,4.27498 -9.1783,7.7187 -14.7183,10.32868 -5.53,2.61 -11.2697,3.91388 -17.2097,3.91388 h -233.8202 c -5.94,0 -11.6798,-1.30388 -17.2098,-3.91388 -5.54,-2.60998 -10.443,-6.0537 -14.723,-10.32868 -4.2698,-4.275 -7.7092,-9.17857 -10.3192,-14.71355 -2.62,-5.535 -3.9186,-11.2745 -3.9186,-17.21448 V 118.39141 c 0,-6.38998 1.1895,-12.39588 3.5795,-18.01986 2.38,-5.625988 5.6683,-10.528559 9.8483,-14.713551 4.19,-4.184992 9.0929,-7.473708 14.7229,-9.857702 5.62,-2.385996 11.6299,-3.579481 18.0199,-3.579481 z" /></g><text
       id="text2440"
       transform="matrix(1.1047,0,0,1.1047,3.0489,-61.099)"
       x="136.59386"
       fill="#008000"
       font-family="Pristina"
       font-size="85.333px"
       stroke="#fce94f"
       stroke-linecap="round"
       stroke-linejoin="round"
       stroke-width="2.277"
       text-align="center"
       style="white-space:pre;shape-inside:url(#rect2442);display:inline;paint-order:fill markers stroke"
       xml:space="preserve" /></g><g
     id="g1"
     transform="matrix(0.24221847,0,0,0.24927192,821.69477,-103.84458)"
     inkscape:label="hat"><path
       id="path869-6"
       d="m 734.88,99.521 c -84.888,5.5152 -162.3,17.11 -158.2,61.62 l 38.83,421.97 c 0,0 -66.82,-43.8 -102.15,-36.247 -10.89,2.3278 -19.436,12.987 -24.167,23.069 -4.5216,9.6356 -5.9662,21.899 -2.197,31.853 12.378,32.689 43.925,57.014 74.695,73.597 190.74,81.509 457.48,90.179 637.11,0 30.77,-16.583 62.317,-40.908 74.695,-73.597 3.7691,-9.954 2.3246,-22.218 -2.197,-31.853 -4.7307,-10.081 -13.277,-20.741 -24.167,-23.069 -35.334,-7.5528 -102.15,36.247 -102.15,36.247 l 38.83,-421.97 c 4.0557,-44.072 -71.8,-55.874 -155.7,-61.456 -100.04,-10.857 -201.33,-5.9873 -293.22,-0.16414 z"
       fill="#008000"
       style="stroke:#ffffff;stroke-opacity:1" /><path
       id="path869-6-7"
       d="m 618.36,505.44 7.1473,77.674 v 16.269 c 197.52,42.469 338.73,47.034 529.46,0 v -16.269 l 7.0848,-76.986 c -159.07,41.241 -337.33,46.571 -543.69,-0.6883 z"
       fill="#1a1a1a" /><path
       id="rect3560"
       d="m 760.52,506.34 v 159.45 h 259.36 V 502.78 H 760.52 v 3.5606 z m 220.19,35.606 v 84.679 H 799.68 v -84.679 z"
       fill="#808000"
       fill-rule="evenodd"
       stop-color="#000000"
       style="paint-order:markers fill stroke" /></g></svg>
