<?xml version="1.0" encoding="UTF-8"?>
<svg id="svg29" version="1.1" viewBox="0 0 1280 800" xmlns="http://www.w3.org/2000/svg" xmlns:xlink="http://www.w3.org/1999/xlink">
 <defs id="defs33">
  <linearGradient id="linearGradient1108" x1="-869.01" x2="-586.93" y1="-605.29" y2="-605.29" gradientUnits="userSpaceOnUse">
   <stop id="stop1102" stop-color="#ee3da8" offset="0"/>
   <stop id="stop1104" stop-color="#f00" offset="1"/>
  </linearGradient>
 </defs>
 <linearGradient id="_Linear2" x2="1" gradientTransform="matrix(2683.8 0 0 1e3 0 500)" gradientUnits="userSpaceOnUse">
  <stop id="stop11" stop-color="#f00" stop-opacity=".086331" offset="0"/>
  <stop id="stop13" stop-color="#f00" offset=".01"/>
  <stop id="stop15" stop-color="#ee3da8" offset=".9"/>
  <stop id="stop17" stop-color="#ee3da8" offset="1"/>
 </linearGradient>
 <g id="DECK" transform="matrix(.47693 0 0 .47693 124 161.54)" fill="#ee3da8" fill-opacity=".47175">
  <g id="g1475" transform="matrix(3.1969 0 0 3.1969 639.33 -391.99)" fill="#ee3da8" fill-opacity=".47175">
   <path id="path1473" d="m518.6 292.99c-22.195-0.669-38.346-6.053-48.435 14.803s-39.685 26.909-57.174 9.419c-17.49-17.489 1.348-25.561-20.856-36.997-22.194-11.437 22.195-4.705 30.944 9.419 8.74 14.124 15.473-6.722 5.384-18.159-10.088-11.437 39.015 20.856 20.855-8.07-18.158-28.927 94.182 23.543 16.821-22.195 40.028 0.335 27.912-16.82 18.503-18.503-9.419-1.683 34.646-10.088 1.014-20.521-16.142-6.723 53.817-27.913-11.771-23.877-19.88 0.134-21.859-22.874-46.082-39.35-24.222-16.477-47.765-7.736-64.575 22.194s-46.082 38.011-50.117 16.142c-4.035-21.86 32.293-19.842 27.913-50.117-4.37-30.275 22.194-42.716-13.454-57.174-35.649-14.458-31.948-34.31-56.17-22.874-24.212 11.437-39.015 3.031-41.367 28.257-2.353 25.226-27.187 9.715-13.12 38.011 15.472 31.116 1.31 28.926 2.018 35.314 0 0 2.218 22.204 13.454 29.261 14.812 9.304 22.539 10.088 23.878 10.768-2.018 10.423-30.438 21.697-39.35 7.401l-39.015-77.361s18.159-78.365-31.614-49.782c-22.874 17.825 34.979 25.895-4.37 52.804-22.194 11.437-62.443 29.921-71.862 77.686l-33.277-9.342v-21.525l-36.779 21.17 36.777 30.849v-19.728l30.973 11.045s-2.582 35.286 12.555 54.793c21.468 27.674 53.674 44.398 53.674 65.924s-25.972 18.159-13.187 39.015 40.153-8.749 30.064-51.8l50.012-52.47s14.287-12.784 46.531 16.199l29.654 26.852s-3.338 63.237 16.17 84.762 43.92 38.709 67.281 49.104c43.061 19.173 15.816 53.139 37.007 54.487 0 0 37.342-7.066 28.593-47.42-8.74-40.364-18.494-35.994-31.614-36.998-23.878-5.049-25.896-28.257-22.873-46.751 3.031-18.503 57.519 78.03 112.68-8.74 29.901-42.122 43.729-37.666 53.817-40.363 10.1-2.688 2.698-24.883-19.505-25.562zm-369.97 11.772c-1.683-4.035-0.334-2.018-15.807-22.873-15.472-20.856-8.97-48.549-8.97-48.549 34.645 21.19 65.14 28.362 65.14 28.362zm43.385-84.083-67.052-14.42c-9.419-65.255 44.179-77.064 44.179-77.064l35.314 73.66c-12.106 4.37-12.441 17.824-12.441 17.824z" fill="#ee3da8" fill-opacity=".47175"/>
  </g>
 </g>
 <g id="Gamepad" transform="matrix(.24624 -.40845 .40845 .24624 497.93 284.88)">
  <path id="path20" transform="rotate(58.916 620.98 -564.78)" d="m1650 476.92h78.84v204.66l270.54-204.8h117.86l-163.89 124.06 180.62 254.2-97.06-0.27-146.34-206.28-161.73 122.58v83.835h-78.84zm-512.74 37.395c12.06-12.06 25.4-21.285 40.03-27.675 14.62-6.39 30.53-9.585 47.72-9.585h360.18v72.225h-360.18c-6.39 0-12.4 1.192-18.02 3.577-5.63 2.385-10.53 5.67-14.72 9.855-4.18 4.185-7.47 9.09-9.85 14.715-2.39 5.625-3.58 11.633-3.58 18.023v141.21c0 5.94 1.3 11.677 3.92 17.212 2.61 5.535 6.05 10.44 10.32 14.715 4.28 4.275 9.18 7.718 14.72 10.328 5.53 2.61 11.27 3.915 17.21 3.915h360.18v72.225h-360.18c-8.55 0-16.85-0.9-24.91-2.7-8.05-1.8-15.79-4.343-23.22-7.628-7.42-3.285-14.47-7.222-21.12-11.812-6.66-4.59-12.83-9.63-18.5-15.12-11.79-11.43-20.95-24.593-27.47-39.488-6.53-14.895-9.79-30.982-9.79-48.262v-127.98c0-17.28 3.19-33.21 9.59-47.79 6.39-14.58 15.61-27.9 27.67-39.96zm-587.26 297.4v-291.33c0-6.48 1.035-12.375 3.105-17.685s5.018-9.878 8.842-13.703c3.826-3.825 8.393-6.772 13.703-8.842s11.205-3.105 17.685-3.105h440.36v72.225h-404.72v76.545h355.59v72.225h-355.59v84.78h404.72v72.225h-440.36c-6.48 0-12.375-1.035-17.685-3.105s-9.877-5.018-13.703-8.843c-3.824-3.825-6.772-8.392-8.842-13.702s-3.105-11.205-3.105-17.685z" fill="#ee3da8"/>
  <path id="path23" d="m-586.93-580.29c0 27.596-22.404 50-50 50h-182.08c-27.596 0-50-22.404-50-50v-50c0-27.596 22.404-50 50-50h182.08c27.596 0 50 22.404 50 50zm-240.67-39.201h-12.702c-5.406 0-9.794 4.389-9.794 9.794v9.794c0 5.405 4.388 9.793 9.794 9.793h12.702v12.036c0 5.519 4.481 10 10 10h10c5.52 0 10-4.481 10-10v-12.036h12.71c5.406 0 9.794-4.388 9.794-9.793v-9.794c0-5.405-4.388-9.794-9.794-9.794h-12.71v-12.036c0-5.519-4.48-10-10-10h-10c-5.519 0-10 4.481-10 10zm146.75-3.672c0 10.134 8.402 18.363 18.75 18.363s18.75-8.229 18.75-18.363c0-10.135-8.402-18.364-18.75-18.364s-18.75 8.229-18.75 18.364zm37.5 36.726c0 10.135 8.402 18.363 18.75 18.363s18.75-8.228 18.75-18.363-8.402-18.363-18.75-18.363-18.75 8.228-18.75 18.363z" fill="url(#linearGradient1108)"/>
 </g>
 <g id="RETRO" transform="matrix(.47693 0 0 .47693 2 161.54)">
  <path id="path26" d="m603.16 933.62c0 3.216-0.51 6.277-1.531 9.184-1.02 2.907-2.489 5.335-4.406 7.283-1.175 1.206-2.467 2.319-3.874 3.34-1.407 1.02-2.961 1.886-4.661 2.597-1.701 0.712-3.549 1.268-5.544 1.67-1.994 0.402-4.229 0.603-6.703 0.603h-9.091v22.591h-17.349v-69.07h26.812c3.989 0 7.429 0.363 10.321 1.09 2.891 0.727 5.512 1.879 7.862 3.456 2.598 1.732 4.608 4.043 6.03 6.935 1.423 2.891 2.134 6.331 2.134 10.321zm-17.812 0.417c0-1.948-0.464-3.626-1.392-5.033s-2.041-2.373-3.34-2.899c-1.639-0.711-3.208-1.121-4.708-1.229-1.5-0.109-3.533-0.163-6.1-0.163h-2.458v20.689h1.206c1.639 0 3.185-0.016 4.638-0.047 1.454-0.03 2.722-0.139 3.804-0.324 0.928-0.155 1.91-0.456 2.946-0.905 1.036-0.448 1.832-0.951 2.389-1.507 1.175-1.145 1.971-2.335 2.388-3.572 0.418-1.237 0.627-2.907 0.627-5.01zm76.167 20.828c0 8.566-2.343 15.315-7.028 20.248-4.685 4.932-11.311 7.398-19.877 7.398-8.504 0-15.114-2.466-19.83-7.398-4.716-4.933-7.074-11.682-7.074-20.248 0-8.659 2.358-15.439 7.074-20.341 4.716-4.901 11.326-7.352 19.83-7.352 8.536 0 15.153 2.466 19.854 7.399 4.7 4.932 7.051 11.697 7.051 20.294zm-16.653 0.092c0-3.092-0.255-5.666-0.766-7.723-0.51-2.056-1.213-3.703-2.11-4.94-0.959-1.299-2.041-2.203-3.247-2.714-1.206-0.51-2.582-0.765-4.129-0.765-1.453 0-2.767 0.224-3.942 0.673-1.176 0.448-2.258 1.306-3.248 2.574-0.927 1.206-1.669 2.861-2.226 4.963-0.557 2.103-0.835 4.747-0.835 7.932 0 3.186 0.263 5.76 0.788 7.724 0.526 1.964 1.207 3.533 2.041 4.708 0.866 1.206 1.949 2.088 3.248 2.644 1.298 0.557 2.736 0.835 4.314 0.835 1.298 0 2.62-0.278 3.966-0.835 1.345-0.556 2.419-1.391 3.223-2.505 0.959-1.329 1.686-2.93 2.181-4.801 0.494-1.871 0.742-4.461 0.742-7.77zm102.89-26.162-15.215 52.093h-17.256l-9.138-33.677-9.185 33.677h-17.256l-15.075-52.093h17.07l7.978 34.466 9.881-34.466h14.333l9.324 34.466 7.839-34.466zm33.584 53.484c-9.834 0-17.372-2.35-22.614-7.051-5.242-4.7-7.863-11.395-7.863-20.085 0-8.504 2.444-15.292 7.33-20.364 4.886-5.071 11.72-7.607 20.503-7.607 7.978 0 13.977 2.149 17.998 6.448 4.02 4.298 6.03 10.452 6.03 18.462v5.844h-35.579c0.155 2.412 0.665 4.43 1.531 6.054 0.866 1.623 2.01 2.914 3.433 3.873 1.391 0.959 3.015 1.647 4.87 2.064 1.856 0.418 3.881 0.626 6.077 0.626 1.886 0 3.742-0.208 5.566-0.626 1.825-0.417 3.495-0.966 5.01-1.647 1.33-0.587 2.559-1.221 3.688-1.901 1.129-0.681 2.049-1.284 2.76-1.809h1.716v13.405c-1.33 0.526-2.543 1.013-3.641 1.461-1.098 0.449-2.606 0.905-4.523 1.369-1.763 0.464-3.579 0.827-5.45 1.09s-4.152 0.394-6.842 0.394zm5.38-34.14c-0.092-3.433-0.889-6.046-2.388-7.84-1.5-1.793-3.796-2.69-6.889-2.69-3.154 0-5.62 0.943-7.399 2.829-1.778 1.887-2.76 4.454-2.945 7.701zm59.329-3.99h-1.345c-0.619-0.216-1.515-0.378-2.691-0.487-1.175-0.108-2.474-0.162-3.896-0.162-1.701 0-3.487 0.247-5.358 0.742s-3.688 1.083-5.45 1.763v34.883h-16.236v-52.093h16.236v7.469c0.742-0.681 1.77-1.539 3.085-2.575 1.314-1.036 2.512-1.863 3.594-2.482 1.176-0.711 2.544-1.322 4.106-1.832 1.561-0.51 3.038-0.765 4.43-0.765 0.525 0 1.113 0.015 1.762 0.046 0.65 0.031 1.237 0.078 1.763 0.139zm32.888 38.13c-9.834 0-17.372-2.35-22.613-7.051-5.242-4.7-7.863-11.395-7.863-20.085 0-8.504 2.443-15.292 7.329-20.364 4.886-5.071 11.721-7.607 20.503-7.607 7.979 0 13.978 2.149 17.998 6.448 4.02 4.298 6.03 10.452 6.03 18.462v5.844h-35.578c0.155 2.412 0.665 4.43 1.531 6.054 0.866 1.623 2.01 2.914 3.432 3.873 1.392 0.959 3.015 1.647 4.871 2.064 1.855 0.418 3.881 0.626 6.077 0.626 1.886 0 3.741-0.208 5.566-0.626 1.824-0.417 3.494-0.966 5.01-1.647 1.329-0.587 2.559-1.221 3.687-1.901 1.129-0.681 2.049-1.284 2.76-1.809h1.717v13.405c-1.33 0.526-2.544 1.013-3.642 1.461-1.097 0.449-2.605 0.905-4.522 1.369-1.763 0.464-3.58 0.827-5.451 1.09s-4.151 0.394-6.842 0.394zm5.381-34.14c-0.093-3.433-0.889-6.046-2.389-7.84-1.5-1.793-3.796-2.69-6.888-2.69-3.155 0-5.621 0.943-7.399 2.829-1.778 1.887-2.76 4.454-2.946 7.701zm71.714 32.749h-16.235v-5.428c-1.052 0.866-2.25 1.794-3.595 2.784-1.346 0.989-2.528 1.731-3.549 2.226-1.299 0.619-2.582 1.083-3.85 1.392s-2.783 0.464-4.546 0.464c-5.937 0-10.638-2.459-14.102-7.376-3.463-4.917-5.195-11.488-5.195-19.714 0-4.546 0.588-8.489 1.763-11.829s2.799-6.247 4.87-8.721c1.887-2.257 4.175-4.043 6.866-5.357 2.69-1.314 5.535-1.972 8.535-1.972 2.721 0 4.956 0.286 6.703 0.859 1.747 0.572 3.78 1.461 6.1 2.667v-22.173h16.235zm-16.235-14.38v-25.559c-0.804-0.402-1.856-0.735-3.155-0.998-1.299-0.262-2.412-0.394-3.34-0.394-3.896 0-6.826 1.361-8.79 4.082s-2.945 6.525-2.945 11.411c0 5.134 0.78 8.845 2.342 11.133s4.09 3.433 7.584 3.433c1.423 0 2.861-0.279 4.314-0.835 1.454-0.557 2.784-1.315 3.99-2.273zm90.962-12.061c0-5.195-0.79-8.906-2.36-11.133-1.58-2.226-4.01-3.339-7.29-3.339-1.45 0-2.9 0.232-4.33 0.695-1.44 0.464-2.86 1.16-4.25 2.088v26.162c1.08 0.433 2.17 0.727 3.27 0.881 1.1 0.155 2.19 0.232 3.27 0.232 3.93 0 6.86-1.299 8.79-3.896 1.94-2.598 2.9-6.494 2.9-11.69zm16.61-0.324c0 8.287-2.1 14.99-6.31 20.108s-9.42 7.677-15.63 7.677c-2.6 0-4.86-0.294-6.78-0.881-1.91-0.588-3.95-1.5-6.12-2.737l-0.69 2.598h-15.543v-72.178h16.233v25.513c2.38-2.041 4.81-3.696 7.29-4.964 2.47-1.268 5.33-1.902 8.58-1.902 6.06 0 10.73 2.366 14.03 7.098 3.29 4.731 4.94 11.287 4.94 19.668zm57.56-25.328-26.3 71.204h-17.44l7.89-20.364-19.11-50.84h17.07l10.94 32.657 10.25-32.657zm34.84 52.093v-69.07h46.71v13.174h-29.45v12.107h27.13v13.173h-27.13v17.442h29.45v13.174zm119.77 0v-26.023c0-2.567-0.04-4.732-0.14-6.494-0.09-1.763-0.37-3.201-0.83-4.314-0.47-1.114-1.19-1.925-2.16-2.436-0.97-0.51-2.34-0.765-4.1-0.765-1.24 0-2.46 0.271-3.67 0.812s-2.52 1.306-3.94 2.296v36.924h-16.33v-26.023c0-2.536-0.05-4.693-0.16-6.471s-0.4-3.224-0.86-4.337c-0.46-1.114-1.18-1.925-2.16-2.436-0.97-0.51-2.32-0.765-4.06-0.765-1.33 0-2.63 0.309-3.89 0.928-1.27 0.618-2.51 1.345-3.71 2.18v36.924h-16.24v-52.093h16.24v5.752c2.65-2.257 5.16-4.02 7.51-5.288s5-1.902 7.93-1.902c3.19 0 5.99 0.758 8.4 2.273 2.41 1.516 4.25 3.773 5.52 6.773 3.12-2.907 6.07-5.141 8.83-6.703 2.77-1.562 5.58-2.343 8.42-2.343 2.42 0 4.58 0.387 6.5 1.16s3.54 1.933 4.87 3.479c1.45 1.67 2.54 3.657 3.27 5.961s1.09 5.311 1.09 9.022v33.909zm76.73 0h-16.24v-5.752c-2.82 2.35-5.4 4.136-7.75 5.357-2.35 1.222-5.15 1.833-8.39 1.833-5.17 0-9.2-1.632-12.09-4.894-2.89-3.263-4.33-8.172-4.33-14.728v-33.909h16.32v25.838c0 2.69 0.07 4.886 0.21 6.587s0.47 3.139 1 4.314c0.5 1.082 1.26 1.902 2.3 2.458 1.03 0.557 2.48 0.835 4.33 0.835 1.15 0 2.5-0.278 4.06-0.835 1.56-0.556 3.01-1.314 4.34-2.273v-36.924h16.24zm28.66 0h-16.23v-72.178h16.23zm41.15-13.592v-10.854c-2.75 0.278-4.98 0.518-6.68 0.719s-3.37 0.595-5.01 1.183c-1.43 0.495-2.53 1.244-3.32 2.249-0.79 1.006-1.18 2.343-1.18 4.013 0 2.443 0.66 4.121 1.97 5.033s3.25 1.368 5.82 1.368c1.42 0 2.88-0.324 4.36-0.974 1.49-0.649 2.83-1.562 4.04-2.737zm0 8.072c-1.12 0.927-2.11 1.762-2.99 2.505-0.89 0.742-2.07 1.484-3.55 2.226-1.46 0.711-2.87 1.253-4.25 1.624-1.37 0.371-3.3 0.556-5.77 0.556-4.61 0-8.44-1.546-11.48-4.638-3.05-3.093-4.57-6.989-4.57-11.69 0-3.865 0.77-6.989 2.32-9.37 1.54-2.381 3.77-4.268 6.68-5.659 2.93-1.423 6.44-2.412 10.53-2.969 4.08-0.557 8.47-0.989 13.17-1.299v-0.278c0-2.876-1.06-4.863-3.18-5.961s-5.29-1.646-9.53-1.646c-1.92 0-4.16 0.347-6.73 1.043-2.56 0.696-5.07 1.585-7.51 2.667h-1.39v-12.57c1.6-0.464 4.2-1.013 7.79-1.647s7.21-0.951 10.85-0.951c8.97 0 15.51 1.492 19.6 4.476 4.1 2.985 6.15 7.538 6.15 13.661v35.44h-16.14zm48.1 6.54c-6.62 0-11.43-1.36-14.45-4.082-3.02-2.721-4.52-7.174-4.52-13.359v-24.353h-6.22v-11.319h6.22v-14.89h16.23v14.89h15.64v11.319h-15.64v18.462c0 1.824 0.02 3.417 0.05 4.777 0.03 1.361 0.28 2.583 0.74 3.665 0.43 1.082 1.2 1.941 2.3 2.575 1.1 0.633 2.7 0.95 4.8 0.95 0.86 0 2-0.185 3.41-0.556 1.4-0.371 2.39-0.711 2.94-1.021h1.4v11.458c-1.77 0.464-3.64 0.827-5.62 1.09s-4.4 0.394-7.28 0.394zm35.76-1.02h-16.23v-52.093h16.23zm0.47-59.514h-17.16v-12.664h17.16zm61.97 33.491c0 8.566-2.34 15.315-7.03 20.248-4.68 4.932-11.31 7.398-19.87 7.398-8.51 0-15.12-2.466-19.83-7.398-4.72-4.933-7.08-11.682-7.08-20.248 0-8.659 2.36-15.439 7.08-20.341 4.71-4.901 11.32-7.352 19.83-7.352 8.53 0 15.15 2.466 19.85 7.399 4.7 4.932 7.05 11.697 7.05 20.294zm-16.65 0.092c0-3.092-0.26-5.666-0.77-7.723-0.51-2.056-1.21-3.703-2.11-4.94-0.96-1.299-2.04-2.203-3.24-2.714-1.21-0.51-2.59-0.765-4.13-0.765-1.46 0-2.77 0.224-3.95 0.673-1.17 0.448-2.25 1.306-3.24 2.574-0.93 1.206-1.67 2.861-2.23 4.963-0.56 2.103-0.84 4.747-0.84 7.932 0 3.186 0.27 5.76 0.79 7.724 0.53 1.964 1.21 3.533 2.04 4.708 0.87 1.206 1.95 2.088 3.25 2.644 1.3 0.557 2.74 0.835 4.32 0.835 1.29 0 2.62-0.278 3.96-0.835 1.35-0.556 2.42-1.391 3.23-2.505 0.95-1.329 1.68-2.93 2.18-4.801 0.49-1.871 0.74-4.461 0.74-7.77zm74.08 25.931h-16.33v-25.838c0-2.103-0.09-4.198-0.26-6.285-0.17-2.088-0.48-3.626-0.95-4.616-0.55-1.175-1.36-2.017-2.41-2.528-1.05-0.51-2.46-0.765-4.22-0.765-1.33 0-2.68 0.247-4.04 0.742s-2.81 1.283-4.36 2.366v36.924h-16.23v-52.093h16.23v5.752c2.66-2.257 5.25-4.02 7.77-5.288s5.32-1.902 8.38-1.902c5.31 0 9.38 1.678 12.2 5.033 2.81 3.356 4.22 8.219 4.22 14.589zm34.28 1.252c-5.29 0-9.94-0.51-13.94-1.531-4.01-1.02-7.73-2.288-11.16-3.803v-16.421h1.58c3.46 2.938 7.28 5.195 11.46 6.772 4.17 1.577 8.22 2.366 12.15 2.366 0.99 0 2.3-0.108 3.92-0.325 1.62-0.216 2.93-0.556 3.92-1.02 1.21-0.526 2.23-1.26 3.06-2.204 0.84-0.943 1.25-2.188 1.25-3.734 0-1.732-0.68-3.139-2.04-4.221s-2.98-1.871-4.87-2.366c-2.35-0.618-4.86-1.206-7.54-1.762-2.67-0.557-5.17-1.237-7.49-2.041-5.35-1.887-9.18-4.423-11.5-7.608s-3.48-7.174-3.48-11.968c0-6.463 2.74-11.697 8.21-15.702 5.47-4.004 12.31-6.007 20.5-6.007 4.12 0 8.21 0.418 12.27 1.253 4.07 0.835 7.71 1.964 10.93 3.386v15.772h-1.53c-2.57-2.196-5.7-4.052-9.4-5.567-3.69-1.515-7.49-2.273-11.39-2.273-1.51 0-2.87 0.108-4.08 0.325-1.2 0.216-2.47 0.634-3.8 1.252-1.08 0.495-2.02 1.23-2.81 2.204s-1.18 2.064-1.18 3.27c0 1.763 0.63 3.162 1.88 4.198s3.67 1.971 7.26 2.806c2.32 0.526 4.55 1.036 6.7 1.531s4.45 1.175 6.89 2.041c4.79 1.732 8.36 4.059 10.69 6.981 2.34 2.923 3.5 6.781 3.5 11.574 0 6.865-2.69 12.385-8.09 16.56s-12.69 6.262-21.87 6.262zm57.84-0.232c-6.62 0-11.43-1.36-14.45-4.082-3.01-2.721-4.52-7.174-4.52-13.359v-24.353h-6.22v-11.319h6.22v-14.89h16.23v14.89h15.64v11.319h-15.64v18.462c0 1.824 0.02 3.417 0.05 4.777 0.03 1.361 0.28 2.583 0.74 3.665 0.44 1.082 1.2 1.941 2.3 2.575 1.1 0.633 2.7 0.95 4.8 0.95 0.87 0 2-0.185 3.41-0.556s2.39-0.711 2.94-1.021h1.4v11.458c-1.77 0.464-3.64 0.827-5.62 1.09-1.97 0.263-4.4 0.394-7.28 0.394zm48.24-14.612v-10.854c-2.75 0.278-4.98 0.518-6.68 0.719s-3.37 0.595-5.01 1.183c-1.42 0.495-2.52 1.244-3.31 2.249-0.79 1.006-1.18 2.343-1.18 4.013 0 2.443 0.65 4.121 1.97 5.033 1.31 0.912 3.25 1.368 5.82 1.368 1.42 0 2.87-0.324 4.36-0.974 1.48-0.649 2.83-1.562 4.03-2.737zm0 8.072c-1.11 0.927-2.11 1.762-2.99 2.505-0.88 0.742-2.06 1.484-3.55 2.226-1.45 0.711-2.86 1.253-4.24 1.624s-3.3 0.556-5.78 0.556c-4.6 0-8.43-1.546-11.48-4.638-3.04-3.093-4.57-6.989-4.57-11.69 0-3.865 0.78-6.989 2.32-9.37 1.55-2.381 3.78-4.268 6.68-5.659 2.94-1.423 6.45-2.412 10.53-2.969s8.48-0.989 13.18-1.299v-0.278c0-2.876-1.06-4.863-3.18-5.961s-5.3-1.646-9.53-1.646c-1.92 0-4.16 0.347-6.73 1.043s-5.07 1.585-7.51 2.667h-1.4v-12.57c1.61-0.464 4.21-1.013 7.8-1.647 3.58-0.634 7.2-0.951 10.85-0.951 8.97 0 15.5 1.492 19.6 4.476 4.1 2.985 6.15 7.538 6.15 13.661v35.44h-16.15zm48.11 6.54c-6.62 0-11.44-1.36-14.45-4.082-3.02-2.721-4.53-7.174-4.53-13.359v-24.353h-6.21v-11.319h6.21v-14.89h16.24v14.89h15.63v11.319h-15.63v18.462c0 1.824 0.02 3.417 0.05 4.777 0.03 1.361 0.27 2.583 0.74 3.665 0.43 1.082 1.2 1.941 2.3 2.575 1.09 0.633 2.69 0.95 4.8 0.95 0.86 0 2-0.185 3.41-0.556 1.4-0.371 2.38-0.711 2.94-1.021h1.39v11.458c-1.76 0.464-3.63 0.827-5.61 1.09s-4.41 0.394-7.28 0.394zm35.76-1.02h-16.23v-52.093h16.23zm0.47-59.514h-17.17v-12.664h17.17zm61.97 33.491c0 8.566-2.35 15.315-7.03 20.248-4.68 4.932-11.31 7.398-19.88 7.398-8.5 0-15.11-2.466-19.83-7.398-4.71-4.933-7.07-11.682-7.07-20.248 0-8.659 2.36-15.439 7.07-20.341 4.72-4.901 11.33-7.352 19.83-7.352 8.54 0 15.16 2.466 19.86 7.399 4.7 4.932 7.05 11.697 7.05 20.294zm-16.66 0.092c0-3.092-0.25-5.666-0.76-7.723-0.51-2.056-1.21-3.703-2.11-4.94-0.96-1.299-2.04-2.203-3.25-2.714-1.2-0.51-2.58-0.765-4.13-0.765-1.45 0-2.76 0.224-3.94 0.673-1.18 0.448-2.26 1.306-3.25 2.574-0.93 1.206-1.67 2.861-2.22 4.963-0.56 2.103-0.84 4.747-0.84 7.932 0 3.186 0.26 5.76 0.79 7.724s1.21 3.533 2.04 4.708c0.87 1.206 1.95 2.088 3.25 2.644 1.3 0.557 2.73 0.835 4.31 0.835 1.3 0 2.62-0.278 3.97-0.835 1.34-0.556 2.42-1.391 3.22-2.505 0.96-1.329 1.69-2.93 2.18-4.801 0.5-1.871 0.74-4.461 0.74-7.77zm74.08 25.931h-16.32v-25.838c0-2.103-0.09-4.198-0.26-6.285-0.17-2.088-0.49-3.626-0.95-4.616-0.56-1.175-1.36-2.017-2.41-2.528-1.05-0.51-2.46-0.765-4.22-0.765-1.33 0-2.68 0.247-4.04 0.742s-2.81 1.283-4.36 2.366v36.924h-16.23v-52.093h16.23v5.752c2.66-2.257 5.25-4.02 7.77-5.288s5.31-1.902 8.37-1.902c5.32 0 9.39 1.678 12.2 5.033 2.82 3.356 4.22 8.219 4.22 14.589zm41.66-24.029h-30.75v-12.895h30.75zm73.94-10.437c0 6.433-1.41 12.192-4.22 17.279-2.82 5.087-6.37 8.992-10.67 11.713-3.59 2.319-7.49 3.811-11.71 4.476s-8.72 0.998-13.48 0.998h-21.61v-69.07h21.43c4.85 0 9.4 0.309 13.63 0.928 4.24 0.618 8.21 2.118 11.92 4.499 4.55 2.907 8.14 6.827 10.77 11.759 2.63 4.933 3.94 10.739 3.94 17.418zm-17.81-0.139c0-4.546-0.78-8.434-2.34-11.666-1.57-3.232-3.97-5.76-7.22-7.584-2.35-1.299-4.81-2.01-7.4-2.134-2.58-0.124-5.66-0.186-9.25-0.186h-0.33v43.233h0.33c3.9 0 7.18-0.07 9.86-0.209 2.67-0.139 5.21-0.966 7.63-2.482 2.84-1.793 5.01-4.267 6.49-7.422 1.48-3.154 2.23-7.004 2.23-11.55zm28.06 34.605v-69.07h46.71v13.174h-29.45v12.107h27.13v13.173h-27.13v17.442h29.45v13.174zm157.52-640.15c-11.79-11.43-20.95-24.593-27.47-39.488-6.53-14.895-9.79-30.982-9.79-48.262v-127.98c0-17.28 3.2-33.21 9.59-47.79 6.38-14.58 15.61-27.9 27.67-39.96s25.4-21.285 40.03-27.675c14.62-6.39 30.53-9.585 47.72-9.585h233.82c17.19 0 33.1 3.195 47.72 9.585 14.63 6.39 27.97 15.615 40.03 27.675s21.29 25.38 27.68 39.96c6.38 14.58 9.58 30.51 9.58 47.79v127.98c0 17.28-3.26 33.367-9.79 48.262-6.52 14.895-15.68 28.058-27.47 39.488-5.67 5.49-11.84 10.53-18.49 15.12-6.66 4.59-13.71 8.527-21.13 11.812-7.43 3.285-15.17 5.828-23.22 7.628-8.06 1.8-16.36 2.7-24.91 2.7h-233.82c-8.55 0-16.85-0.9-24.91-2.7-8.05-1.8-15.79-4.343-23.22-7.628-7.42-3.285-14.47-7.222-21.12-11.812-6.66-4.59-12.83-9.63-18.5-15.12zm41.58-81.135c0 5.94 1.3 11.677 3.92 17.212 2.61 5.535 6.05 10.44 10.32 14.715 4.28 4.275 9.18 7.718 14.72 10.328 5.53 2.61 11.27 3.915 17.21 3.915h233.82c5.94 0 11.68-1.305 17.21-3.915 5.54-2.61 10.44-6.053 14.72-10.328 4.27-4.275 7.71-9.18 10.33-14.715 2.61-5.535 3.91-11.272 3.91-17.212v-141.21c0-6.39-1.19-12.398-3.58-18.022-2.38-5.626-5.67-10.53-9.85-14.715-4.19-4.185-9.09-7.471-14.72-9.855-5.62-2.386-11.63-3.578-18.02-3.578h-233.82c-6.39 0-12.4 1.192-18.02 3.578-5.63 2.384-10.53 5.67-14.72 9.855-4.18 4.185-7.47 9.089-9.85 14.715-2.39 5.624-3.58 11.632-3.58 18.022zm-585.5-259.6h337.09c12.69 0 24.28 1.53 34.76 4.59 10.49 3.06 19.94 7.245 28.35 12.555 8.42 5.31 15.75 11.61 22.01 18.9 6.25 7.29 11.45 15.187 15.59 23.693 4.14 8.504 7.25 17.414 9.31 26.729 2.08 9.316 3.06 18.698 2.98 28.148 0 9.63-1.04 19.17-3.11 28.62s-5.18 18.427-9.31 26.932c-4.14 8.505-9.34 16.358-15.6 23.558-6.25 7.2-13.56 13.432-21.94 18.697-8.36 5.265-17.79 9.383-28.28 12.353-10.48 2.97-22.07 4.455-34.76 4.455h-1.49l121.51 148.77h-97.88l-121.5-148.77h-202.09v148.77h-78.85l-0.13-334.66c0-6.48 1.04-12.375 3.11-17.685 2.06-5.31 5.01-9.878 8.84-13.702 3.82-3.826 8.39-6.773 13.7-8.843s11.21-3.105 17.69-3.105zm335.6 157c5.86 0 10.98-1.215 15.4-3.645 4.4-2.43 8.09-5.625 11.07-9.585 2.97-3.96 5.19-8.483 6.68-13.568 1.48-5.085 2.25-10.282 2.29-15.592 0.05-5.31-0.65-10.508-2.09-15.593s-3.62-9.607-6.55-13.567c-2.92-3.96-6.61-7.155-11.07-9.585-4.45-2.43-9.69-3.645-15.73-3.645h-299.96v84.78zm-928.94-84.78v-72.225h483.84v72.225h-202.36v305.78h-78.98v-305.78zm-550 262.44v-291.33c0-6.48 1.035-12.375 3.105-17.685s5.018-9.878 8.842-13.703c3.826-3.825 8.393-6.772 13.703-8.842s11.205-3.105 17.685-3.105h440.36v72.225h-404.72v76.545h355.59v72.225h-355.59v84.78h404.72v72.225h-440.36c-6.48 0-12.375-1.035-17.685-3.105s-9.877-5.018-13.703-8.843c-3.824-3.825-6.772-8.392-8.842-13.702s-3.105-11.205-3.105-17.685zm-506.66-334.66h337.1c12.69 0 24.278 1.53 34.762 4.59 10.486 3.06 19.936 7.245 28.35 12.555 8.416 5.31 15.751 11.61 22.005 18.9 6.256 7.29 11.453 15.187 15.593 23.692s7.245 17.415 9.315 26.73 3.06 18.698 2.97 28.148c0 9.63-1.035 19.17-3.105 28.62s-5.175 18.427-9.315 26.932-9.337 16.358-15.593 23.558c-6.254 7.2-13.567 13.432-21.937 18.697s-17.797 9.383-28.283 12.353c-10.484 2.97-22.072 4.455-34.762 4.455h-1.485l121.5 148.77h-97.875l-121.5-148.77h-202.1v148.77h-78.84l-0.135-334.66c0-6.48 1.035-12.375 3.105-17.685s5.018-9.878 8.842-13.703c3.826-3.825 8.393-6.772 13.703-8.842s11.205-3.105 17.685-3.105zm335.61 157c5.85 0 10.98-1.215 15.39-3.645s8.1-5.625 11.07-9.585 5.197-8.483 6.682-13.568 2.251-10.282 2.295-15.592c0.046-5.31-0.652-10.508-2.092-15.593s-3.622-9.607-6.548-13.567c-2.924-3.96-6.615-7.155-11.07-9.585s-9.697-3.645-15.727-3.645h-299.97v84.78z" fill="url(#_Linear2)"/>
 </g>
 <g>
  <path id="path443" d="m263.33 576.94c-5.9841 2.1872-11.957 3.2119-17.917 3.0745-5.9605-0.13747-11.852-1.5591-17.676-4.2651l-95.265-44.267 11.369-24.468 95.265 44.267c2.1648 1.0059 4.3874 1.5477 6.6686 1.6248 2.2809 0.0778 4.4598-0.26326 6.5364-1.0222 2.0766-0.75898 3.9614-1.9032 5.655-3.4337 1.6933-1.5298 3.0432-3.3774 4.0491-5.5422l45.045-96.941c0.93506-2.0123 1.3962-4.1616 1.3833-6.4476-0.0129-2.286-0.40717-4.4897-1.1825-6.6109-0.77531-2.1212-1.8952-4.0594-3.3594-5.8149-1.4643-1.7555-3.2024-3.1007-5.2147-4.0358l-52.265-25.515 9.1559-20.619 54.479 21.665c2.9679 1.1803 5.5674 2.9577 8.0129 4.8355 2.4455 1.8778 4.6674 3.9574 6.6657 6.2391 1.9983 2.2817 3.7644 4.7245 5.2981 7.3279 1.5337 2.6034 2.8289 5.2813 3.8855 8.0337 2.1949 5.7282 3.2252 11.629 3.0909 17.702-0.13422 6.0732-1.5613 12.037-4.2815 17.891l-42.963 92.459c-2.7202 5.854-6.3102 10.748-10.77 14.681-4.4599 3.9335-9.6819 6.9938-15.666 9.1809z" fill="#f00" stroke-width=".78327"/>
  <path id="path488" d="m146.72 508.32c-1.9765-1.0085-3.6461-4.861-5.0447-6.6692-1.3986-1.8082-2.4462-3.7867-3.1428-5.935-0.69665-2.1483-1.0092-4.3649-0.93788-6.6498 0.0713-2.2849 0.61113-4.4154 1.6197-6.392l37.109-64.685-21.547-15.102-39.596 67.523c-1.4517 2.845-2.5618 5.7603-3.3305 8.7462-0.76869 2.9859-1.237 5.993-1.4046 9.0214-0.16759 3.0284-0.053 6.0406 0.3435 9.036 0.39653 2.9954 1.0268 5.9025 1.891 8.7214 1.8015 5.8638 4.6264 11.145 8.4748 15.846 3.8484 4.7002 8.6476 8.5174 14.398 11.451" fill="#f00" stroke-width=".78327"/>
  <path id="path488-1" d="m255.25 376.8c-0.85886 1.2599-16.684 30.92-26 46.885-3.0232 5.1813-3.2643 8.5395-12.55 10.678-8.3661 1.9264-12.219-1.8186-18.152-5.0042-14.767-7.9294-42.777-26.43-42.777-26.43l-11.124 18.405s45.869 29.698 55.564 35.716c9.6954 6.0173 31.226 1.5916 38.164-9.6827 8.5788-13.941 33.59-61.315 35.105-62.983" fill="#ff0001" stroke-width=".53824"/>
 </g>
</svg>
