<?xml version="1.0" encoding="UTF-8" standalone="no"?>
<svg
   id="svg29"
   version="1.1"
   viewBox="0 0 1280 800"
   sodipodi:docname="rd-valentines-splash.svg"
   inkscape:version="1.4.3 (0d15f75042, 2025-12-25)"
   xmlns:inkscape="http://www.inkscape.org/namespaces/inkscape"
   xmlns:sodipodi="http://sodipodi.sourceforge.net/DTD/sodipodi-0.dtd"
   xmlns:xlink="http://www.w3.org/1999/xlink"
   xmlns="http://www.w3.org/2000/svg"
   xmlns:svg="http://www.w3.org/2000/svg">
  <sodipodi:namedview
     id="namedview1"
     pagecolor="#ffffff"
     bordercolor="#000000"
     borderopacity="0.25"
     inkscape:showpageshadow="2"
     inkscape:pageopacity="0.0"
     inkscape:pagecheckerboard="0"
     inkscape:deskcolor="#d1d1d1"
     inkscape:zoom="0.99875"
     inkscape:cx="636.29537"
     inkscape:cy="454.56821"
     inkscape:window-width="3840"
     inkscape:window-height="2082"
     inkscape:window-x="0"
     inkscape:window-y="0"
     inkscape:window-maximized="1"
     inkscape:current-layer="svg29" />
  <defs
     id="defs33">
    <linearGradient
       id="linearGradient3"
       inkscape:collect="always">
      <stop
         style="stop-color:#000000;stop-opacity:1;"
         offset="0"
         id="stop3" />
      <stop
         style="stop-color:#000000;stop-opacity:0;"
         offset="1"
         id="stop4" />
    </linearGradient>
    <linearGradient
       id="linearGradient1108"
       x1="-869.01"
       x2="-586.93"
       y1="-605.29"
       y2="-605.29"
       gradientUnits="userSpaceOnUse">
      <stop
         id="stop1102"
         stop-color="#ee3da8"
         offset="0" />
      <stop
         id="stop1104"
         stop-color="#f00"
         offset="1" />
    </linearGradient>
    <linearGradient
       id="linearGradient8947"
       x1="44.403999"
       x2="1324.4"
       y1="472.79001"
       y2="472.79001"
       gradientUnits="userSpaceOnUse">
      <stop
         id="stop8941"
         stop-color="#c957e6"
         offset="0"
         style="stop-color:#ff0000;stop-opacity:1;" />
      <stop
         id="stop8943"
         stop-color="#1a9fff"
         offset="1"
         style="stop-color:#ee3da8;stop-opacity:1;" />
    </linearGradient>
    <linearGradient
       inkscape:collect="always"
       xlink:href="#linearGradient3"
       id="linearGradient4"
       x1="6.1919e-05"
       y1="495.17233"
       x2="2683.7732"
       y2="495.17233"
       gradientUnits="userSpaceOnUse" />
  </defs>
  <linearGradient
     id="_Linear2"
     x2="1"
     gradientTransform="matrix(2683.8 0 0 1e3 0 500)"
     gradientUnits="userSpaceOnUse">
    <stop
       id="stop13"
       stop-color="#f00"
       offset=".01" />
    <stop
       id="stop17"
       stop-color="#ee3da8"
       offset="1" />
  </linearGradient>
  <g
     id="DECK"
     transform="matrix(.47693 0 0 .47693 124 161.54)"
     fill="#ee3da8"
     fill-opacity=".47175">
    <g
       id="g1475"
       transform="matrix(3.1969 0 0 3.1969 639.33 -391.99)"
       fill="#ee3da8"
       fill-opacity=".47175">
      <path
         id="path1473"
         d="m518.6 292.99c-22.195-0.669-38.346-6.053-48.435 14.803s-39.685 26.909-57.174 9.419c-17.49-17.489 1.348-25.561-20.856-36.997-22.194-11.437 22.195-4.705 30.944 9.419 8.74 14.124 15.473-6.722 5.384-18.159-10.088-11.437 39.015 20.856 20.855-8.07-18.158-28.927 94.182 23.543 16.821-22.195 40.028 0.335 27.912-16.82 18.503-18.503-9.419-1.683 34.646-10.088 1.014-20.521-16.142-6.723 53.817-27.913-11.771-23.877-19.88 0.134-21.859-22.874-46.082-39.35-24.222-16.477-47.765-7.736-64.575 22.194s-46.082 38.011-50.117 16.142c-4.035-21.86 32.293-19.842 27.913-50.117-4.37-30.275 22.194-42.716-13.454-57.174-35.649-14.458-31.948-34.31-56.17-22.874-24.212 11.437-39.015 3.031-41.367 28.257-2.353 25.226-27.187 9.715-13.12 38.011 15.472 31.116 1.31 28.926 2.018 35.314 0 0 2.218 22.204 13.454 29.261 14.812 9.304 22.539 10.088 23.878 10.768-2.018 10.423-30.438 21.697-39.35 7.401l-39.015-77.361s18.159-78.365-31.614-49.782c-22.874 17.825 34.979 25.895-4.37 52.804-22.194 11.437-62.443 29.921-71.862 77.686l-33.277-9.342v-21.525l-36.779 21.17 36.777 30.849v-19.728l30.973 11.045s-2.582 35.286 12.555 54.793c21.468 27.674 53.674 44.398 53.674 65.924s-25.972 18.159-13.187 39.015 40.153-8.749 30.064-51.8l50.012-52.47s14.287-12.784 46.531 16.199l29.654 26.852s-3.338 63.237 16.17 84.762 43.92 38.709 67.281 49.104c43.061 19.173 15.816 53.139 37.007 54.487 0 0 37.342-7.066 28.593-47.42-8.74-40.364-18.494-35.994-31.614-36.998-23.878-5.049-25.896-28.257-22.873-46.751 3.031-18.503 57.519 78.03 112.68-8.74 29.901-42.122 43.729-37.666 53.817-40.363 10.1-2.688 2.698-24.883-19.505-25.562zm-369.97 11.772c-1.683-4.035-0.334-2.018-15.807-22.873-15.472-20.856-8.97-48.549-8.97-48.549 34.645 21.19 65.14 28.362 65.14 28.362zm43.385-84.083-67.052-14.42c-9.419-65.255 44.179-77.064 44.179-77.064l35.314 73.66c-12.106 4.37-12.441 17.824-12.441 17.824z"
         fill="#ee3da8"
         fill-opacity=".47175" />
    </g>
  </g>
  <g
     id="Gamepad"
     transform="matrix(.24624 -.40845 .40845 .24624 497.93 284.88)"
     style="stroke:#000000;stroke-opacity:1;stroke-width:4.24377844;stroke-dasharray:none">
    <path
       id="path20"
       transform="rotate(58.916 620.98 -564.78)"
       d="m1650 476.92h78.84v204.66l270.54-204.8h117.86l-163.89 124.06 180.62 254.2-97.06-0.27-146.34-206.28-161.73 122.58v83.835h-78.84zm-512.74 37.395c12.06-12.06 25.4-21.285 40.03-27.675 14.62-6.39 30.53-9.585 47.72-9.585h360.18v72.225h-360.18c-6.39 0-12.4 1.192-18.02 3.577-5.63 2.385-10.53 5.67-14.72 9.855-4.18 4.185-7.47 9.09-9.85 14.715-2.39 5.625-3.58 11.633-3.58 18.023v141.21c0 5.94 1.3 11.677 3.92 17.212 2.61 5.535 6.05 10.44 10.32 14.715 4.28 4.275 9.18 7.718 14.72 10.328 5.53 2.61 11.27 3.915 17.21 3.915h360.18v72.225h-360.18c-8.55 0-16.85-0.9-24.91-2.7-8.05-1.8-15.79-4.343-23.22-7.628-7.42-3.285-14.47-7.222-21.12-11.812-6.66-4.59-12.83-9.63-18.5-15.12-11.79-11.43-20.95-24.593-27.47-39.488-6.53-14.895-9.79-30.982-9.79-48.262v-127.98c0-17.28 3.19-33.21 9.59-47.79 6.39-14.58 15.61-27.9 27.67-39.96zm-587.26 297.4v-291.33c0-6.48 1.035-12.375 3.105-17.685s5.018-9.878 8.842-13.703c3.826-3.825 8.393-6.772 13.703-8.842s11.205-3.105 17.685-3.105h440.36v72.225h-404.72v76.545h355.59v72.225h-355.59v84.78h404.72v72.225h-440.36c-6.48 0-12.375-1.035-17.685-3.105s-9.877-5.018-13.703-8.843c-3.824-3.825-6.772-8.392-8.842-13.702s-3.105-11.205-3.105-17.685z"
       fill="#ee3da8"
       style="stroke:#000000;stroke-opacity:1;stroke-width:4.24377844;stroke-dasharray:none" />
    <path
       id="path23"
       d="m-586.93-580.29c0 27.596-22.404 50-50 50h-182.08c-27.596 0-50-22.404-50-50v-50c0-27.596 22.404-50 50-50h182.08c27.596 0 50 22.404 50 50zm-240.67-39.201h-12.702c-5.406 0-9.794 4.389-9.794 9.794v9.794c0 5.405 4.388 9.793 9.794 9.793h12.702v12.036c0 5.519 4.481 10 10 10h10c5.52 0 10-4.481 10-10v-12.036h12.71c5.406 0 9.794-4.388 9.794-9.793v-9.794c0-5.405-4.388-9.794-9.794-9.794h-12.71v-12.036c0-5.519-4.48-10-10-10h-10c-5.519 0-10 4.481-10 10zm146.75-3.672c0 10.134 8.402 18.363 18.75 18.363s18.75-8.229 18.75-18.363c0-10.135-8.402-18.364-18.75-18.364s-18.75 8.229-18.75 18.364zm37.5 36.726c0 10.135 8.402 18.363 18.75 18.363s18.75-8.228 18.75-18.363-8.402-18.363-18.75-18.363-18.75 8.228-18.75 18.363z"
       fill="url(#linearGradient1108)"
       style="stroke:#000000;stroke-opacity:1;stroke-width:4.24377844;stroke-dasharray:none" />
  </g>
  <g
     id="RETRO-8"
     transform="matrix(0.47693,0,0,0.47693,2.1238749,162.21036)"
     style="stroke:url(#linearGradient4);stroke-width:4.24380936;stroke-dasharray:none">
    <g
       id="text750"
       transform="matrix(2.0967,0,0,2.0967,-93.103,-496.13)"
       fill="#008000"
       stroke-linecap="round"
       stroke-linejoin="round"
       stroke-width="2.315"
       style="white-space:pre;shape-inside:url(#rect752);paint-order:fill markers stroke;stroke:url(#linearGradient4);stroke-width:2.02404224;stroke-dasharray:none"
       aria-label="Powered by ES-DE Frontend">
      <path
         id="path8936"
         d="m 677.39,700.38 v -31.021 h 20.979 v 5.9167 H 685.14 v 5.4375 h 12.188 v 5.9167 H 685.14 v 7.8333 h 13.229 v 5.9167 z m -4.6042,-15.479 c 0,2.8889 -0.63194,5.4792 -1.8958,7.7708 -1.2639,2.2778 -2.8611,4.0278 -4.7917,5.25 -1.6111,1.0417 -3.3681,1.7153 -5.2708,2.0208 -1.8889,0.29167 -3.9028,0.4375 -6.0417,0.4375 h -9.7083 v -31.021 h 9.625 c 2.1806,0 4.2222,0.13889 6.125,0.41667 1.9028,0.27778 3.6875,0.95139 5.3542,2.0208 2.0417,1.3056 3.6528,3.0694 4.8333,5.2917 1.1806,2.2083 1.7708,4.8125 1.7708,7.8125 z m -8,-0.0625 c 0,-2.0417 -0.35417,-3.7847 -1.0625,-5.2292 -0.69444,-1.4583 -1.7708,-2.5972 -3.2292,-3.4167 -1.0556,-0.58333 -2.1667,-0.90278 -3.3333,-0.95833 -1.1528,-0.0555 -2.5347,-0.0833 -4.1458,-0.0833 h -0.14583 v 19.417 h 0.14583 c 1.75,0 3.2222,-0.0278 4.4167,-0.0833 1.2083,-0.0694 2.3542,-0.44444 3.4375,-1.125 1.2778,-0.80555 2.25,-1.9167 2.9167,-3.3333 0.6667,-1.4166 1,-3.1458 1,-5.1875 z m -25.208,4.75 h -13.813 v -5.7917 h 13.813 z m -30.333,11.354 c -2.375,0 -4.4653,-0.22917 -6.2708,-0.6875 -1.7917,-0.45833 -3.4583,-1.0278 -5,-1.7083 v -7.375 h 0.70833 c 1.5556,1.3194 3.2708,2.3333 5.1458,3.0417 1.875,0.7084 3.6944,1.0625 5.4583,1.0625 0.44444,0 1.0278,-0.0486 1.75,-0.14583 0.73611,-0.0972 1.3264,-0.25001 1.7708,-0.45834 0.54167,-0.23611 1,-0.56249 1.375,-0.97916 0.375,-0.43056 0.5625,-0.99306 0.5625,-1.6875 0,-0.77777 -0.30555,-1.4097 -0.91666,-1.8958 -0.61111,-0.4861 -1.3403,-0.84028 -2.1875,-1.0625 -1.0556,-0.27778 -2.1875,-0.54167 -3.3958,-0.79167 -1.1944,-0.25 -2.3125,-0.55556 -3.3542,-0.91667 -2.4028,-0.84722 -4.125,-1.9861 -5.1667,-3.4167 -1.0417,-1.4306 -1.5625,-3.2222 -1.5625,-5.375 0,-2.9028 1.2292,-5.25 3.6875,-7.0417 2.4583,-1.8056 5.5278,-2.7083 9.2083,-2.7083 1.8472,0 3.6806,0.1875 5.5,0.5625 1.8333,0.375 3.4722,0.88195 4.9167,1.5208 v 7.0833 h -0.68751 c -1.1528,-0.98611 -2.5625,-1.8194 -4.2292,-2.5 -1.6528,-0.68056 -3.3542,-1.0208 -5.1042,-1.0208 -0.68055,0 -1.2917,0.0486 -1.8333,0.14583 -0.54167,0.0972 -1.1111,0.28473 -1.7083,0.56251 -0.48611,0.22222 -0.90972,0.55555 -1.2708,1 -0.34722,0.43055 -0.52083,0.91666 -0.52083,1.4583 0,0.79167 0.27778,1.4236 0.83333,1.8958 0.56945,0.45833 1.6597,0.875 3.2708,1.25 1.0417,0.23611 2.0417,0.46527 3,0.6875 0.97222,0.22222 2.0069,0.52777 3.1042,0.91666 2.1528,0.77778 3.75,1.8264 4.7917,3.1458 1.0556,1.3056 1.5833,3.0347 1.5833,5.1875 0,3.0833 -1.2153,5.5625 -3.6458,7.4375 -2.4167,1.875 -5.6875,2.8125 -9.8125,2.8125 z m -35.833,-0.5625 v -31.021 h 20.979 v 5.9167 h -13.229 v 5.4375 h 12.188 v 5.9167 h -12.188 v 7.8333 h 13.229 v 5.9167 z m -15.646,-23.396 -11.813,31.979 h -7.8333 l 3.5417,-9.1458 -8.5833,-22.833 h 7.6667 l 4.9167,14.667 4.6042,-14.667 z m -33.313,11.521 c 0,-2.3333 -0.35417,-4 -1.0625,-5 -0.70833,-1 -1.7986,-1.5 -3.2708,-1.5 -0.65277,0 -1.3056,0.10417 -1.9583,0.3125 -0.63889,0.20833 -1.2708,0.52083 -1.8958,0.9375 v 11.75 c 0.48611,0.19444 0.97223,0.32638 1.4583,0.39583 0.5,0.0695 0.99306,0.10417 1.4792,0.10417 1.7639,0 3.0764,-0.58333 3.9375,-1.75 0.875,-1.1667 1.3125,-2.9167 1.3125,-5.25 z m 7.4583,-0.14583 c 0,3.7222 -0.94445,6.7361 -2.8333,9.0417 -1.8889,2.2917 -4.2292,3.4375 -7.0208,3.4375 -1.1667,0 -2.1806,-0.13194 -3.0417,-0.39583 -0.8611,-0.26389 -1.7778,-0.67361 -2.75,-1.2292 l -0.3125,1.1667 h -6.9792 v -32.417 h 7.2917 v 11.458 c 1.0694,-0.91667 2.1597,-1.6597 3.2708,-2.2292 1.1111,-0.56944 2.3958,-0.85416 3.8542,-0.85416 2.7222,0 4.8194,1.0625 6.2917,3.1875 1.4861,2.125 2.2292,5.0694 2.2292,8.8333 z m -41.021,12.021 h -7.2917 v -2.4375 c -0.47223,0.38889 -1.0139,0.80555 -1.625,1.25 -0.59723,0.44445 -1.125,0.77778 -1.5833,1 -0.58333,0.27778 -1.1597,0.48611 -1.7292,0.625 -0.56944,0.13889 -1.25,0.20833 -2.0417,0.20833 -2.6667,0 -4.7778,-1.1042 -6.3333,-3.3125 -1.5556,-2.2083 -2.3333,-5.1597 -2.3333,-8.8542 0,-2.0417 0.26389,-3.8125 0.79167,-5.3125 0.52778,-1.5 1.257,-2.8056 2.1875,-3.9167 0.84723,-1.0139 1.875,-1.8125 3.0833,-2.3958 1.2083,-0.59722 2.4861,-0.89583 3.8333,-0.89583 1.2222,0 2.2222,0.13194 3,0.39583 0.79167,0.25 1.7083,0.64583 2.75,1.1875 v -9.9583 h 7.2917 z m -7.2917,-6.4583 v -11.479 c -0.36111,-0.18056 -0.83334,-0.32639 -1.4167,-0.4375 -0.58333,-0.125 -1.0833,-0.1875 -1.5,-0.1875 -1.75,0 -3.0694,0.61111 -3.9583,1.8333 -0.875,1.2222 -1.3125,2.9306 -1.3125,5.125 0,2.3056 0.34722,3.9722 1.0417,5 0.70833,1.0278 1.8472,1.5417 3.4167,1.5417 0.63889,0 1.2847,-0.125 1.9375,-0.375 0.6528,-0.25 1.25,-0.59028 1.7917,-1.0208 z m -27.333,7.0833 c -4.4167,0 -7.8056,-1.0556 -10.167,-3.1667 -2.3472,-2.1111 -3.5208,-5.1181 -3.5208,-9.0208 0,-3.8194 1.0972,-6.8681 3.2917,-9.1458 2.1945,-2.2777 5.2639,-3.4167 9.2083,-3.4167 3.5833,0 6.2778,0.96528 8.0833,2.8958 1.8056,1.9306 2.7083,4.6944 2.7083,8.2917 v 2.625 h -15.979 c 0.0694,1.0833 0.29861,1.9931 0.6875,2.7292 0.38889,0.72223 0.90278,1.2986 1.5417,1.7292 0.625,0.43055 1.3542,0.74305 2.1875,0.9375 0.83333,0.18055 1.7431,0.27083 2.7292,0.27083 0.84723,0 1.6806,-0.0903 2.5,-0.27083 0.81945,-0.19445 1.5694,-0.44445 2.25,-0.75 0.59723,-0.26389 1.1458,-0.54861 1.6458,-0.85417 0.51389,-0.30555 0.93055,-0.57639 1.25,-0.8125 h 0.77083 v 6.0208 c -0.59722,0.23611 -1.1458,0.45834 -1.6458,0.66667 -0.48611,0.19444 -1.1597,0.39583 -2.0208,0.60416 -0.79167,0.20833 -1.6111,0.36806 -2.4583,0.47917 -0.83333,0.125 -1.8542,0.1875 -3.0625,0.1875 z m 2.4167,-15.333 c -0.0417,-1.5417 -0.40278,-2.7153 -1.0833,-3.5208 -0.66667,-0.80555 -1.6944,-1.2083 -3.0833,-1.2083 -1.4167,0 -2.5278,0.42361 -3.3333,1.2708 -0.79167,0.84722 -1.2292,2 -1.3125,3.4583 z m -17.188,-1.7917 h -0.60417 c -0.27778,-0.0972 -0.68056,-0.16667 -1.2083,-0.20834 -0.52778,-0.0555 -1.1111,-0.0833 -1.75,-0.0833 -0.76389,0 -1.5694,0.11111 -2.4167,0.33334 -0.83333,0.22222 -1.6458,0.48611 -2.4375,0.79166 v 15.667 h -7.2917 v -23.396 h 7.2917 v 3.3542 c 0.33333,-0.30555 0.79167,-0.6875 1.375,-1.1458 0.59722,-0.47222 1.1389,-0.84722 1.625,-1.125 0.52778,-0.31944 1.1389,-0.59027 1.8333,-0.8125 0.70833,-0.23611 1.375,-0.35416 2,-0.35416 0.23611,0 0.5,0.007 0.79167,0.0208 0.29167,0.0139 0.55556,0.0347 0.79167,0.0625 z m -29.063,17.125 c -4.4167,0 -7.8056,-1.0556 -10.167,-3.1667 -2.3472,-2.1111 -3.5208,-5.1181 -3.5208,-9.0208 0,-3.8194 1.0972,-6.8681 3.2917,-9.1458 2.1945,-2.2777 5.2639,-3.4167 9.2083,-3.4167 3.5833,0 6.2778,0.96528 8.0833,2.8958 1.8056,1.9306 2.7083,4.6944 2.7083,8.2917 v 2.625 h -15.979 c 0.0695,1.0833 0.29861,1.9931 0.6875,2.7292 0.38889,0.72223 0.90278,1.2986 1.5417,1.7292 0.625,0.43055 1.3542,0.74305 2.1875,0.9375 0.83333,0.18055 1.7431,0.27083 2.7292,0.27083 0.84723,0 1.6806,-0.0903 2.5,-0.27083 0.81945,-0.19445 1.5694,-0.44445 2.25,-0.75 0.59722,-0.26389 1.1458,-0.54861 1.6458,-0.85417 0.51389,-0.30555 0.93055,-0.57639 1.25,-0.8125 h 0.77084 v 6.0208 c -0.59723,0.23611 -1.1458,0.45834 -1.6458,0.66667 -0.48611,0.19444 -1.1597,0.39583 -2.0208,0.60416 -0.79167,0.20833 -1.6111,0.36806 -2.4583,0.47917 -0.83333,0.125 -1.8542,0.1875 -3.0625,0.1875 z m 2.4167,-15.333 c -0.0417,-1.5417 -0.40278,-2.7153 -1.0833,-3.5208 -0.66667,-0.80555 -1.6944,-1.2083 -3.0833,-1.2083 -1.4167,0 -2.5278,0.42361 -3.3333,1.2708 -0.79167,0.84722 -1.2292,2 -1.3125,3.4583 z m -17.5,-8.6875 -6.8333,23.396 h -7.75 l -4.1042,-15.125 -4.125,15.125 h -7.75 l -6.7708,-23.396 h 7.6667 l 3.5833,15.479 4.4375,-15.479 h 6.4375 l 4.1875,15.479 3.5208,-15.479 z m -38.729,11.708 c 0,3.8472 -1.0556,6.882 -3.1667,9.1042 -2.0972,2.2083 -5.0694,3.3125 -8.9167,3.3125 -3.8194,0 -6.7917,-1.1042 -8.9167,-3.3125 -2.1111,-2.2222 -3.1667,-5.257 -3.1667,-9.1042 0,-3.8889 1.0556,-6.9306 3.1667,-9.125 2.125,-2.2083 5.0972,-3.3125 8.9167,-3.3125 3.8333,0 6.8056,1.1111 8.9167,3.3333 2.1111,2.2083 3.1667,5.2431 3.1667,9.1042 z m -7.4792,0.0417 c 0,-1.3889 -0.11805,-2.5417 -0.35416,-3.4583 -0.22223,-0.93055 -0.53473,-1.6736 -0.9375,-2.2292 -0.43056,-0.58333 -0.91667,-0.98611 -1.4583,-1.2083 -0.54167,-0.23611 -1.1597,-0.35417 -1.8542,-0.35417 -0.65277,0 -1.243,0.10417 -1.7708,0.3125 -0.52778,0.19445 -1.0139,0.57639 -1.4583,1.1458 -0.41667,0.54167 -0.75,1.2847 -1,2.2292 -0.25,0.94444 -0.375,2.1319 -0.375,3.5625 0,1.4306 0.11806,2.5903 0.35417,3.4792 0.23611,0.875 0.54167,1.5764 0.91667,2.1042 0.38889,0.54167 0.875,0.9375 1.4583,1.1875 0.5833,0.25 1.2292,0.375 1.9375,0.375 0.58333,0 1.1736,-0.125 1.7708,-0.375 0.61111,-0.25 1.0972,-0.625 1.4583,-1.125 0.43056,-0.59723 0.75695,-1.3125 0.97917,-2.1458 0.22222,-0.84722 0.33333,-2.0139 0.33333,-3.5 z m -18.729,-9.5834 c 0,1.4444 -0.22917,2.8194 -0.6875,4.125 -0.45833,1.3056 -1.1181,2.3958 -1.9792,3.2708 -0.52777,0.54167 -1.1111,1.0417 -1.75,1.5 -0.625,0.45833 -1.3194,0.84722 -2.0833,1.1667 -0.76389,0.31944 -1.5972,0.56944 -2.5,0.75 -0.88889,0.18055 -1.8889,0.27083 -3,0.27083 h -4.0833 v 10.146 h -7.7917 v -31.021 h 12.042 c 1.7917,0 3.3333,0.16667 4.625,0.5 1.3056,0.31945 2.4861,0.83334 3.5417,1.5417 1.1667,0.77778 2.0694,1.8194 2.7083,3.125 0.63889,1.2917 0.95833,2.8333 0.95833,4.625 z m -8,0.1875 c 0,-0.875 -0.20833,-1.625 -0.625,-2.25 -0.41667,-0.63889 -0.91667,-1.0764 -1.5,-1.3125 -0.73611,-0.31945 -1.4444,-0.5 -2.125,-0.54167 -0.66667,-0.0555 -1.5764,-0.0833 -2.7292,-0.0833 h -1.1042 v 9.2917 h 0.54166 c 0.73611,0 1.4306,-0.007 2.0833,-0.0208 0.65278,-0.0139 1.2222,-0.0625 1.7083,-0.14584 0.41667,-0.0694 0.85417,-0.20138 1.3125,-0.39583 0.47222,-0.20833 0.83333,-0.4375 1.0833,-0.6875 0.52778,-0.51389 0.88195,-1.0486 1.0625,-1.6042 0.19445,-0.55555 0.29167,-1.3056 0.29167,-2.25 z m 787,-280.21 c -5.623,-5.4513 -9.9916,-11.729 -13.101,-18.833 -3.1144,-7.1039 -4.6691,-14.776 -4.6691,-23.018 v -61.037 c 0,-8.2413 1.5261,-15.839 4.5737,-22.792 3.0428,-6.9536 7.4449,-13.306 13.197,-19.058 5.7518,-5.7518 12.114,-10.151 19.092,-13.199 6.9727,-3.0476 14.561,-4.5714 22.759,-4.5714 h 111.52 c 8.1984,0 15.786,1.5238 22.759,4.5714 6.9775,3.0476 13.34,7.4472 19.092,13.199 5.7518,5.7518 10.154,12.104 13.201,19.058 3.0428,6.9536 4.569,14.551 4.569,22.792 v 61.037 c 0,8.2413 -1.5548,15.914 -4.6691,23.018 -3.1096,7.1039 -7.4783,13.382 -13.101,18.833 -2.7042,2.6183 -5.6468,5.0221 -8.8184,7.2112 -3.1764,2.1891 -6.5387,4.0668 -10.078,5.6335 -3.5436,1.5667 -7.235,2.7796 -11.074,3.638 -3.8441,0.85847 -7.8026,1.2877 -11.88,1.2877 h -111.52 c -4.0778,0 -8.0363,-0.42924 -11.88,-1.2877 -3.8393,-0.85847 -7.5307,-2.0713 -11.074,-3.638 -3.5388,-1.5667 -6.9012,-3.4444 -10.073,-5.6335 -3.1763,-2.1891 -6.119,-4.5928 -8.8232,-7.2112 z m 19.831,-38.696 c 0,2.833 0.62,5.5691 1.8695,8.2089 1.2448,2.6398 2.8854,4.9791 4.9219,7.018 2.0413,2.0389 4.3782,3.6809 7.0204,4.9257 2.6374,1.2448 5.375,1.8672 8.208,1.8672 h 111.52 c 2.8329,0 5.5705,-0.62239 8.2079,-1.8672 2.6422,-1.2448 4.9792,-2.8868 7.0204,-4.9257 2.0365,-2.0389 3.6771,-4.3782 4.9267,-7.018 1.2448,-2.6398 1.8648,-5.3759 1.8648,-8.2089 v -67.347 c 0,-3.0476 -0.5675,-5.913 -1.7074,-8.5952 -1.1351,-2.6832 -2.7042,-5.0221 -4.6978,-7.018 -1.9983,-1.996 -4.3352,-3.5631 -7.0204,-4.7001 -2.6803,-1.138 -5.5466,-1.7064 -8.5942,-1.7064 h -111.52 c -3.0476,0 -5.9139,0.56849 -8.5943,1.7064 -2.6851,1.137 -5.0221,2.7042 -7.0204,4.7001 -1.9935,1.996 -3.5626,4.3348 -4.6977,7.018 -1.1399,2.6822 -1.7074,5.5476 -1.7074,8.5952 z m -279.24,-123.81 h 160.77 c 6.0522,0 11.58,0.7297 16.578,2.1891 5.003,1.4594 9.51,3.4554 13.521,5.9878 4.0157,2.5325 7.5116,5.5371 10.497,9.014 2.9808,3.4768 5.4608,7.2431 7.4353,11.3 1.9745,4.0558 3.4577,8.3052 4.4402,12.748 0.992,4.4431 1.4594,8.9176 1.4213,13.425 0,4.5928 -0.496,9.1427 -1.4833,13.65 -0.9872,4.507 -2.4705,8.7884 -4.4402,12.845 -1.9745,4.0563 -4.4545,7.8016 -7.4401,11.236 -2.9808,3.4339 -6.4672,6.4061 -10.464,8.9171 -3.9871,2.511 -8.4846,4.475 -13.488,5.8915 -4.9982,1.4165 -10.526,2.1247 -16.578,2.1247 h -0.7107 l 57.952,70.953 h -46.682 l -57.947,-70.953 h -96.383 v 70.953 h -37.606 l -0.062,-159.61 c 0,-3.0905 0.49601,-5.902 1.4832,-8.4345 0.98248,-2.5325 2.3894,-4.7111 4.2161,-6.5349 1.8219,-1.8247 4.0014,-3.2302 6.5339,-4.2175 2.5325,-0.98724 5.3464,-1.4809 8.4369,-1.4809 z m 160.06,74.88 c 2.7948,0 5.2367,-0.57947 7.3447,-1.7384 2.0985,-1.1589 3.8584,-2.6827 5.2797,-4.5714 1.4164,-1.8886 2.4752,-4.0458 3.1858,-6.471 0.7059,-2.4252 1.0731,-4.9038 1.0922,-7.4363 0.024,-2.5325 -0.31,-5.0116 -0.9968,-7.4368 -0.6867,-2.4252 -1.7265,-4.5819 -3.1239,-6.4705 -1.3926,-1.8886 -3.1525,-3.4124 -5.2796,-4.5714 -2.1223,-1.1589 -4.6214,-1.7384 -7.5021,-1.7384 h -143.06 v 40.434 z m -443.04,-40.434 v -34.446 h 230.76 v 34.446 h -96.511 v 145.83 h -37.668 v -145.83 z m -262.31,125.17 v -138.94 c 0,-3.0905 0.49362,-5.902 1.4809,-8.4345 0.98725,-2.5325 2.3932,-4.7111 4.217,-6.5354 1.8247,-1.8242 4.0029,-3.2298 6.5354,-4.217 2.5325,-0.98724 5.344,-1.4809 8.4345,-1.4809 h 210.02 v 34.446 h -193.03 v 36.507 h 169.59 v 34.446 h -169.59 v 40.434 h 193.03 v 34.446 h -210.02 c -3.0905,0 -5.902,-0.49362 -8.4345,-1.4809 -2.5325,-0.98724 -4.7106,-2.3932 -6.5354,-4.2175 -1.8238,-1.8242 -3.2298,-4.0024 -4.217,-6.5349 -0.98724,-2.5325 -1.4809,-5.344 -1.4809,-8.4345 z m -241.64,-159.61 h 160.77 c 6.0522,0 11.579,0.7297 16.579,2.1891 5.0011,1.4594 9.5081,3.4554 13.521,5.9878 4.0138,2.5325 7.5121,5.5371 10.495,9.014 2.9837,3.4768 5.4623,7.2431 7.4368,11.299 1.9745,4.0559 3.4554,8.3057 4.4426,12.748 0.98724,4.4426 1.4594,8.9176 1.4165,13.425 0,4.5928 -0.49362,9.1427 -1.4809,13.65 -0.98724,4.507 -2.4681,8.7884 -4.4426,12.845 -1.9745,4.0563 -4.4531,7.8016 -7.4368,11.236 -2.9827,3.4339 -6.4705,6.4061 -10.462,8.9171 -3.9915,2.511 -8.4879,4.475 -13.489,5.8915 -5.0001,1.4165 -10.527,2.1247 -16.579,2.1247 h -0.70824 l 57.947,70.953 h -46.679 l -57.947,-70.953 h -96.385 v 70.953 h -37.601 l -0.06439,-159.61 c 0,-3.0905 0.49362,-5.902 1.4809,-8.4345 0.98724,-2.5325 2.3932,-4.7111 4.217,-6.5354 1.8247,-1.8242 4.0029,-3.2298 6.5354,-4.217 2.5325,-0.98724 5.344,-1.4809 8.4345,-1.4809 z m 160.06,74.88 c 2.79,0 5.2367,-0.57947 7.3399,-1.7384 2.1032,-1.15893 3.8631,-2.6827 5.2796,-4.5714 1.4165,-1.8886 2.4786,-4.0458 3.1868,-6.471 0.70824,-2.4252 1.0736,-4.9038 1.0946,-7.4363 0.0219,-2.5325 -0.31096,-5.0116 -0.99774,-7.4368 -0.68677,-2.4252 -1.7274,-4.5819 -3.1229,-6.4705 -1.3945,-1.8886 -3.1549,-3.4124 -5.2796,-4.5714 -2.1247,-1.159 -4.6248,-1.7384 -7.5007,-1.7384 h -143.06 v 40.434 z"
         fill="url(#linearGradient8947)"
         sodipodi:nodetypes="cccccccccccccscccsccssccssscccsccsccssscccccsccccsscccsscccsscscccccssccscccccscssccccccccccccccccccccccsssccccscssscssccccccsscsscccccsssssccsccccccccscscssccscssssscccccscccccccccssccsccccccsccccccccccssccscssssscccccscccccccccssccscccccccccccccccccscscscscsscccsccssccsscccsscsccscsccccscccccccccsccssccccccccsscscsscscsscccccsscccccscccsscccsscccsscccsscsccccccsccccsccccccccccscccccccsccscccccccccccccsscssccccccccccsscssccscccsscsccscsccccccccccccccssscscssccc"
         style="fill:url(#linearGradient8947);stroke:url(#linearGradient4);stroke-width:2.02404224;stroke-dasharray:none" />
    </g>
  </g>
  <g
     id="g1"
     style="stroke-width:2.024;stroke-dasharray:none;stroke:none;stroke-opacity:1">
    <path
       id="path443"
       d="m263.33 576.94c-5.9841 2.1872-11.957 3.2119-17.917 3.0745-5.9605-0.13747-11.852-1.5591-17.676-4.2651l-95.265-44.267 11.369-24.468 95.265 44.267c2.1648 1.0059 4.3874 1.5477 6.6686 1.6248 2.2809 0.0778 4.4598-0.26326 6.5364-1.0222 2.0766-0.75898 3.9614-1.9032 5.655-3.4337 1.6933-1.5298 3.0432-3.3774 4.0491-5.5422l45.045-96.941c0.93506-2.0123 1.3962-4.1616 1.3833-6.4476-0.0129-2.286-0.40717-4.4897-1.1825-6.6109-0.77531-2.1212-1.8952-4.0594-3.3594-5.8149-1.4643-1.7555-3.2024-3.1007-5.2147-4.0358l-52.265-25.515 9.1559-20.619 54.479 21.665c2.9679 1.1803 5.5674 2.9577 8.0129 4.8355 2.4455 1.8778 4.6674 3.9574 6.6657 6.2391 1.9983 2.2817 3.7644 4.7245 5.2981 7.3279 1.5337 2.6034 2.8289 5.2813 3.8855 8.0337 2.1949 5.7282 3.2252 11.629 3.0909 17.702-0.13422 6.0732-1.5613 12.037-4.2815 17.891l-42.963 92.459c-2.7202 5.854-6.3102 10.748-10.77 14.681-4.4599 3.9335-9.6819 6.9938-15.666 9.1809z"
       fill="#f00"
       stroke-width=".78327"
       style="stroke-width:2.024;stroke-dasharray:none;stroke:none;stroke-opacity:1" />
    <path
       id="path488"
       d="m146.72 508.32c-1.9765-1.0085-3.6461-4.861-5.0447-6.6692-1.3986-1.8082-2.4462-3.7867-3.1428-5.935-0.69665-2.1483-1.0092-4.3649-0.93788-6.6498 0.0713-2.2849 0.61113-4.4154 1.6197-6.392l37.109-64.685-21.547-15.102-39.596 67.523c-1.4517 2.845-2.5618 5.7603-3.3305 8.7462-0.76869 2.9859-1.237 5.993-1.4046 9.0214-0.16759 3.0284-0.053 6.0406 0.3435 9.036 0.39653 2.9954 1.0268 5.9025 1.891 8.7214 1.8015 5.8638 4.6264 11.145 8.4748 15.846 3.8484 4.7002 8.6476 8.5174 14.398 11.451"
       fill="#f00"
       stroke-width=".78327"
       style="stroke-width:2.024;stroke-dasharray:none;stroke:none;stroke-opacity:1" />
    <path
       id="path488-1"
       d="m255.25 376.8c-0.85886 1.2599-16.684 30.92-26 46.885-3.0232 5.1813-3.2643 8.5395-12.55 10.678-8.3661 1.9264-12.219-1.8186-18.152-5.0042-14.767-7.9294-42.777-26.43-42.777-26.43l-11.124 18.405s45.869 29.698 55.564 35.716c9.6954 6.0173 31.226 1.5916 38.164-9.6827 8.5788-13.941 33.59-61.315 35.105-62.983"
       fill="#ff0001"
       stroke-width=".53824"
       style="stroke-width:2.024;stroke-dasharray:none;stroke:none;stroke-opacity:1" />
  </g>
</svg>
