<?xml version="1.0" encoding="UTF-8" standalone="no"?>
<svg
   viewBox="0 0 1280 800"
   version="1.1"
   id="svg10"
   sodipodi:docname="rd-walpurgis-splash.svg"
   xml:space="preserve"
   inkscape:version="1.4.3 (0d15f75042, 2025-12-25)"
   xmlns:inkscape="http://www.inkscape.org/namespaces/inkscape"
   xmlns:sodipodi="http://sodipodi.sourceforge.net/DTD/sodipodi-0.dtd"
   xmlns="http://www.w3.org/2000/svg"
   xmlns:svg="http://www.w3.org/2000/svg"><defs
     id="defs10"><style
       type="text/css"
       id="style1">.fil5 {fill:#FFED00} .fil4 {fill:#EF7F1A} .fil6 {fill:#EF7F1A} .fil3 {fill:#E31E24} .fil2 {fill:#E31E24} .fil0 {fill:#FCEE5E} .fil1 {fill:#FFED00;fill-opacity:0.501961}</style><mask
       id="dj"><linearGradient
         id="dk"
         x1="9832.2"
         x2="10414"
         y1="27477"
         y2="9613.5"
         gradientUnits="userSpaceOnUse"
         spreadMethod="reflect"><stop
           stop-color="#fff"
           offset="0"
           id="stop1-3" /><stop
           stop-color="#fff"
           stop-opacity="0"
           offset="1"
           id="stop2-6" /></linearGradient><rect
         x="3346"
         y="9442"
         width="13554"
         height="18207"
         fill="url(#dk)"
         id="rect2" /></mask><mask
       id="dw"><linearGradient
         id="eh"
         x1="9601.2"
         x2="10024"
         y1="24784"
         y2="13255"
         gradientUnits="userSpaceOnUse"><stop
           stop-color="#fff"
           offset="0"
           id="stop3-7" /><stop
           stop-color="#fff"
           stop-opacity="-97.886"
           offset=".21176"
           id="stop4-5" /><stop
           stop-color="#fff"
           stop-opacity="0"
           offset="1"
           id="stop5-3" /></linearGradient><rect
         x="3820"
         y="10483"
         width="11985"
         height="17073"
         fill="url(#eh)"
         id="rect5" /></mask><mask
       id="es"><linearGradient
         id="t"
         x1="10135"
         x2="10899"
         y1="24854"
         y2="17253"
         gradientUnits="userSpaceOnUse"
         spreadMethod="reflect"><stop
           stop-color="#fff"
           offset="0"
           id="stop6-5" /><stop
           stop-color="#fff"
           stop-opacity="0"
           offset="1"
           id="stop7" /></linearGradient><rect
         x="5638"
         y="14677"
         width="9758"
         height="12752"
         fill="url(#t)"
         id="rect7" /></mask><mask
       id="i"><linearGradient
         id="cp"
         x1="11008"
         x2="10858"
         y1="22991"
         y2="19109"
         gradientUnits="userSpaceOnUse"><stop
           stop-color="#fff"
           offset="0"
           id="stop8" /><stop
           stop-color="#fff"
           stop-opacity="0"
           offset="1"
           id="stop9" /></linearGradient><rect
         x="4514"
         y="14345"
         width="12837"
         height="13411"
         fill="url(#cp)"
         id="rect9" /></mask><mask
       id="da"><linearGradient
         id="ae"
         x1="9546.9"
         x2="10874"
         y1="26839"
         y2="18022"
         gradientUnits="userSpaceOnUse"><stop
           stop-color="#fff"
           offset="0"
           id="stop10" /><stop
           stop-color="#fff"
           stop-opacity="0"
           offset="1"
           id="stop11" /></linearGradient><rect
         x="7767"
         y="17544"
         width="4887"
         height="9773"
         fill="url(#ae)"
         id="rect11" /></mask><mask
       id="dl"><linearGradient
         id="dm"
         x1="8419.4"
         x2="8350.3"
         y1="27135"
         y2="21063"
         gradientUnits="userSpaceOnUse"><stop
           stop-color="#fff"
           offset="0"
           id="stop12" /><stop
           stop-color="#fff"
           stop-opacity="0"
           offset="1"
           id="stop13" /></linearGradient><rect
         x="6807"
         y="21070"
         width="3155"
         height="6058"
         fill="url(#dm)"
         id="rect13" /></mask><mask
       id="dn"><linearGradient
         id="do"
         x1="9066.8"
         x2="12626"
         y1="26322"
         y2="15665"
         gradientUnits="userSpaceOnUse"><stop
           stop-color="#fff"
           offset="0"
           id="stop14" /><stop
           stop-color="#fff"
           stop-opacity="-97.886"
           offset=".3098"
           id="stop15" /><stop
           stop-color="#fff"
           stop-opacity="0"
           offset="1"
           id="stop16" /></linearGradient><rect
         x="8246"
         y="14445"
         width="5200"
         height="13097"
         fill="url(#do)"
         id="rect16" /></mask><mask
       id="dp"><linearGradient
         id="dq"
         x1="10754"
         x2="16643"
         y1="26915"
         y2="19734"
         gradientUnits="userSpaceOnUse"><stop
           stop-color="#fff"
           offset="0"
           id="stop17" /><stop
           stop-color="#fff"
           stop-opacity="0"
           offset="1"
           id="stop18" /></linearGradient><rect
         x="10903"
         y="19593"
         width="5590"
         height="7463"
         fill="url(#dq)"
         id="rect18" /></mask><mask
       id="dr"><linearGradient
         id="ds"
         x1="9561.8"
         x2="11800"
         y1="27136"
         y2="20293"
         gradientUnits="userSpaceOnUse"><stop
           stop-color="#fff"
           offset="0"
           id="stop19" /><stop
           stop-color="#fff"
           stop-opacity="0"
           offset="1"
           id="stop20" /></linearGradient><rect
         x="8607"
         y="19975"
         width="4146"
         height="7478"
         fill="url(#ds)"
         id="rect20" /></mask><mask
       id="dt"><linearGradient
         id="du"
         x1="6290.8"
         x2="6299.8"
         y1="16346"
         y2="15637"
         gradientUnits="userSpaceOnUse"><stop
           stop-color="#fff"
           offset="0"
           id="stop21" /><stop
           stop-color="#fff"
           stop-opacity="0"
           offset="1"
           id="stop22" /></linearGradient><rect
         x="6045"
         y="15630"
         width="500"
         height="723"
         fill="url(#du)"
         id="rect22" /></mask><mask
       id="dx"><linearGradient
         id="dy"
         x1="7220.8"
         x2="7241.5"
         y1="16224"
         y2="15446"
         gradientUnits="userSpaceOnUse"><stop
           stop-color="#fff"
           offset="0"
           id="stop23" /><stop
           stop-color="#fff"
           stop-opacity="0"
           offset="1"
           id="stop24" /></linearGradient><rect
         x="7095"
         y="15439"
         width="272"
         height="792"
         fill="url(#dy)"
         id="rect24" /></mask><mask
       id="dz"><linearGradient
         id="ea"
         x1="8156.4"
         x2="8258.9"
         y1="14427"
         y2="11758"
         gradientUnits="userSpaceOnUse"><stop
           stop-color="#fff"
           offset="0"
           id="stop25" /><stop
           stop-color="#fff"
           stop-opacity="0"
           offset="1"
           id="stop26" /></linearGradient><rect
         x="7899"
         y="11758"
         width="617"
         height="2670"
         fill="url(#ea)"
         id="rect26" /></mask><mask
       id="eb"><linearGradient
         id="ec"
         x1="13830"
         x2="13984"
         y1="13164"
         y2="8916.7"
         gradientUnits="userSpaceOnUse"><stop
           stop-color="#fff"
           offset="0"
           id="stop27" /><stop
           stop-color="#fff"
           stop-opacity="0"
           offset="1"
           id="stop28" /></linearGradient><rect
         x="13391"
         y="8922"
         width="1033"
         height="4237"
         fill="url(#ec)"
         id="rect28" /></mask><mask
       id="ed"><linearGradient
         id="ee"
         x1="10926"
         x2="11006"
         y1="9960.8"
         y2="7891.6"
         gradientUnits="userSpaceOnUse"><stop
           stop-color="#fff"
           offset="0"
           id="stop29" /><stop
           stop-color="#fff"
           stop-opacity="0"
           offset="1"
           id="stop30" /></linearGradient><rect
         x="10724"
         y="7889"
         width="483"
         height="2074"
         fill="url(#ee)"
         id="rect30" /></mask><mask
       id="ef"><linearGradient
         id="eg"
         x1="12305"
         x2="12339"
         y1="10654"
         y2="9676.9"
         gradientUnits="userSpaceOnUse"><stop
           stop-color="#fff"
           offset="0"
           id="stop31" /><stop
           stop-color="#fff"
           stop-opacity="0"
           offset="1"
           id="stop32" /></linearGradient><rect
         x="12192"
         y="9671"
         width="261"
         height="990"
         fill="url(#eg)"
         id="rect32" /></mask><mask
       id="ei"><linearGradient
         id="ej"
         x1="4655.8"
         x2="4693.4"
         y1="18822"
         y2="17529"
         gradientUnits="userSpaceOnUse"><stop
           stop-color="#fff"
           offset="0"
           id="stop33" /><stop
           stop-color="#fff"
           stop-opacity="0"
           offset="1"
           id="stop34" /></linearGradient><rect
         x="4473"
         y="17524"
         width="403"
         height="1303"
         fill="url(#ej)"
         id="rect34" /></mask><mask
       id="ek"><linearGradient
         id="el"
         x1="15845"
         x2="15896"
         y1="19643"
         y2="17616"
         gradientUnits="userSpaceOnUse"><stop
           stop-color="#fff"
           offset="0"
           id="stop35" /><stop
           stop-color="#fff"
           stop-opacity="0"
           offset="1"
           id="stop36" /></linearGradient><rect
         x="15518"
         y="17614"
         width="706"
         height="2031"
         fill="url(#el)"
         id="rect36" /></mask><mask
       id="em"><linearGradient
         id="en"
         x1="14121"
         x2="14148"
         y1="17513"
         y2="16228"
         gradientUnits="userSpaceOnUse"><stop
           stop-color="#fff"
           offset="0"
           id="stop37" /><stop
           stop-color="#fff"
           stop-opacity="0"
           offset="1"
           id="stop38" /></linearGradient><rect
         x="13865"
         y="16223"
         width="539"
         height="1295"
         fill="url(#en)"
         id="rect38" /></mask><mask
       id="eo"><linearGradient
         id="ep"
         x1="8023.7"
         x2="8101.6"
         y1="9688.6"
         y2="7488.7"
         gradientUnits="userSpaceOnUse"><stop
           stop-color="#fff"
           offset="0"
           id="stop39" /><stop
           stop-color="#fff"
           stop-opacity="0"
           offset="1"
           id="stop40" /></linearGradient><rect
         x="7786"
         y="7487"
         width="554"
         height="2204"
         fill="url(#ep)"
         id="rect40" /></mask><mask
       id="eq"><linearGradient
         id="er"
         x1="6348.5"
         x2="6377.7"
         y1="12224"
         y2="11068"
         gradientUnits="userSpaceOnUse"><stop
           stop-color="#fff"
           offset="0"
           id="stop41" /><stop
           stop-color="#fff"
           stop-opacity="0"
           offset="1"
           id="stop42" /></linearGradient><rect
         x="6156"
         y="11062"
         width="414"
         height="1168"
         fill="url(#er)"
         id="rect42" /></mask><mask
       id="e"><linearGradient
         id="d"
         x1="9819.5"
         x2="9910.6"
         y1="5720.6"
         y2="3238"
         gradientUnits="userSpaceOnUse"><stop
           stop-color="#fff"
           offset="0"
           id="stop43" /><stop
           stop-color="#fff"
           stop-opacity="0"
           offset="1"
           id="stop44" /></linearGradient><rect
         x="9564"
         y="3237"
         width="601"
         height="2485"
         fill="url(#d)"
         id="rect44" /></mask><mask
       id="c"><linearGradient
         id="a"
         x1="16236"
         x2="16256"
         y1="15642"
         y2="15067"
         gradientUnits="userSpaceOnUse"><stop
           stop-color="#fff"
           offset="0"
           id="stop45" /><stop
           stop-color="#fff"
           stop-opacity="0"
           offset="1"
           id="stop46" /></linearGradient><rect
         x="16163"
         y="15059"
         width="165"
         height="591"
         fill="url(#a)"
         id="rect46" /></mask><mask
       id="z"><linearGradient
         id="y"
         x1="15225"
         x2="15238"
         y1="14420"
         y2="13768"
         gradientUnits="userSpaceOnUse"><stop
           stop-color="#fff"
           offset="0"
           id="stop47" /><stop
           stop-color="#fff"
           stop-opacity="0"
           offset="1"
           id="stop48" /></linearGradient><rect
         x="15078"
         y="13761"
         width="307"
         height="666"
         fill="url(#y)"
         id="rect48" /></mask><mask
       id="x"><linearGradient
         id="w"
         x1="13877"
         x2="13886"
         y1="14191"
         y2="13646"
         gradientUnits="userSpaceOnUse"><stop
           stop-color="#fff"
           offset="0"
           id="stop49" /><stop
           stop-color="#fff"
           stop-opacity="0"
           offset="1"
           id="stop50" /></linearGradient><rect
         x="13735"
         y="13638"
         width="293"
         height="561"
         fill="url(#w)"
         id="rect50" /></mask><mask
       id="v"><linearGradient
         id="u"
         x1="5148.3"
         x2="5155.7"
         y1="14465"
         y2="13880"
         gradientUnits="userSpaceOnUse"><stop
           stop-color="#fff"
           offset="0"
           id="stop51" /><stop
           stop-color="#fff"
           stop-opacity="0"
           offset="1"
           id="stop52" /></linearGradient><rect
         x="4944"
         y="13872"
         width="416"
         height="600"
         fill="url(#u)"
         id="rect52" /></mask><mask
       id="s"><linearGradient
         id="r"
         x1="3410"
         x2="3414.1"
         y1="17043"
         y2="16632"
         gradientUnits="userSpaceOnUse"><stop
           stop-color="#fff"
           offset="0"
           id="stop53" /><stop
           stop-color="#fff"
           stop-opacity="0"
           offset="1"
           id="stop54" /></linearGradient><rect
         x="3226"
         y="16624"
         width="372"
         height="427"
         fill="url(#r)"
         id="rect54" /></mask><mask
       id="q"><linearGradient
         id="p"
         x1="3137.3"
         x2="3137.3"
         y1="18309"
         y2="18134"
         gradientUnits="userSpaceOnUse"><stop
           stop-color="#fff"
           offset="0"
           id="stop55" /><stop
           stop-color="#fff"
           stop-opacity="0"
           offset="1"
           id="stop56" /></linearGradient><rect
         x="2852"
         y="18124"
         width="570"
         height="195"
         fill="url(#p)"
         id="rect56" /></mask><mask
       id="o"><linearGradient
         id="n"
         x1="6162.2"
         x2="6171.2"
         y1="16617"
         y2="15906"
         gradientUnits="userSpaceOnUse"><stop
           stop-color="#fff"
           offset="0"
           id="stop57" /><stop
           stop-color="#fff"
           stop-opacity="0"
           offset="1"
           id="stop58" /></linearGradient><rect
         x="5913"
         y="15899"
         width="507"
         height="725"
         fill="url(#n)"
         id="rect58" /></mask><mask
       id="m"><linearGradient
         id="l"
         x1="7105.7"
         x2="7126.1"
         y1="16495"
         y2="15715"
         gradientUnits="userSpaceOnUse"><stop
           stop-color="#fff"
           offset="0"
           id="stop59" /><stop
           stop-color="#fff"
           stop-opacity="0"
           offset="1"
           id="stop60" /></linearGradient><rect
         x="6978"
         y="15708"
         width="276"
         height="794"
         fill="url(#l)"
         id="rect60" /></mask><mask
       id="k"><linearGradient
         id="j"
         x1="8055.6"
         x2="8157.1"
         y1="14694"
         y2="12019"
         gradientUnits="userSpaceOnUse"><stop
           stop-color="#fff"
           offset="0"
           id="stop61" /><stop
           stop-color="#fff"
           stop-opacity="0"
           offset="1"
           id="stop62" /></linearGradient><rect
         x="7793"
         y="12019"
         width="626"
         height="2675"
         fill="url(#j)"
         id="rect62" /></mask><mask
       id="h"><linearGradient
         id="g"
         x1="13811"
         x2="13963"
         y1="13429"
         y2="9172"
         gradientUnits="userSpaceOnUse"><stop
           stop-color="#fff"
           offset="0"
           id="stop63" /><stop
           stop-color="#fff"
           stop-opacity="0"
           offset="1"
           id="stop64" /></linearGradient><rect
         x="13363"
         y="9178"
         width="1048"
         height="4246"
         fill="url(#g)"
         id="rect64" /></mask><mask
       id="f"><linearGradient
         id="aa"
         x1="10864"
         x2="10943"
         y1="10218"
         y2="8144.9"
         gradientUnits="userSpaceOnUse"><stop
           stop-color="#fff"
           offset="0"
           id="stop65" /><stop
           stop-color="#fff"
           stop-opacity="0"
           offset="1"
           id="stop66" /></linearGradient><rect
         x="10659"
         y="8142"
         width="490"
         height="2079"
         fill="url(#aa)"
         id="rect66" /></mask><mask
       id="ab"><linearGradient
         id="ac"
         x1="12262"
         x2="12296"
         y1="10913"
         y2="9933.9"
         gradientUnits="userSpaceOnUse"><stop
           stop-color="#fff"
           offset="0"
           id="stop67" /><stop
           stop-color="#fff"
           stop-opacity="0"
           offset="1"
           id="stop68" /></linearGradient><rect
         x="12147"
         y="9927"
         width="264"
         height="992"
         fill="url(#ac)"
         id="rect68" /></mask><mask
       id="ad"><linearGradient
         id="cm"
         x1="4504.4"
         x2="4541.6"
         y1="19098"
         y2="17802"
         gradientUnits="userSpaceOnUse"><stop
           stop-color="#fff"
           offset="0"
           id="stop69" /><stop
           stop-color="#fff"
           stop-opacity="0"
           offset="1"
           id="stop70" /></linearGradient><rect
         x="4319"
         y="17797"
         width="408"
         height="1306"
         fill="url(#cm)"
         id="rect70" /></mask><mask
       id="cn"><linearGradient
         id="co"
         x1="15853"
         x2="15904"
         y1="19921"
         y2="17890"
         gradientUnits="userSpaceOnUse"><stop
           stop-color="#fff"
           offset="0"
           id="stop71" /><stop
           stop-color="#fff"
           stop-opacity="0"
           offset="1"
           id="stop72" /></linearGradient><rect
         x="15521"
         y="17888"
         width="716"
         height="2035"
         fill="url(#co)"
         id="rect72" /></mask><mask
       id="cq"><linearGradient
         id="cr"
         x1="14104"
         x2="14131"
         y1="17787"
         y2="16498"
         gradientUnits="userSpaceOnUse"><stop
           stop-color="#fff"
           offset="0"
           id="stop73" /><stop
           stop-color="#fff"
           stop-opacity="0"
           offset="1"
           id="stop74" /></linearGradient><rect
         x="13844"
         y="16493"
         width="547"
         height="1298"
         fill="url(#cr)"
         id="rect74" /></mask><mask
       id="cs"><linearGradient
         id="ct"
         x1="7920.7"
         x2="7997.9"
         y1="9945.6"
         y2="7741"
         gradientUnits="userSpaceOnUse"><stop
           stop-color="#fff"
           offset="0"
           id="stop75" /><stop
           stop-color="#fff"
           stop-opacity="0"
           offset="1"
           id="stop76" /></linearGradient><rect
         x="7678"
         y="7739"
         width="562"
         height="2208"
         fill="url(#ct)"
         id="rect76" /></mask><mask
       id="cu"><linearGradient
         id="cv"
         x1="6221.1"
         x2="6250"
         y1="12487"
         y2="11328"
         gradientUnits="userSpaceOnUse"><stop
           stop-color="#fff"
           offset="0"
           id="stop77" /><stop
           stop-color="#fff"
           stop-opacity="0"
           offset="1"
           id="stop78" /></linearGradient><rect
         x="6026"
         y="11322"
         width="420"
         height="1170"
         fill="url(#cv)"
         id="rect78" /></mask><mask
       id="cw"><linearGradient
         id="cx"
         x1="9742.2"
         x2="9832.5"
         y1="5969.4"
         y2="3481.5"
         gradientUnits="userSpaceOnUse"><stop
           stop-color="#fff"
           offset="0"
           id="stop79" /><stop
           stop-color="#fff"
           stop-opacity="0"
           offset="1"
           id="stop80" /></linearGradient><rect
         x="9483"
         y="3481"
         width="610"
         height="2490"
         fill="url(#cx)"
         id="rect80" /></mask><mask
       id="cy"><linearGradient
         id="cz"
         x1="16249"
         x2="16269"
         y1="15911"
         y2="15335"
         gradientUnits="userSpaceOnUse"><stop
           stop-color="#fff"
           offset="0"
           id="stop81" /><stop
           stop-color="#fff"
           stop-opacity="0"
           offset="1"
           id="stop82" /></linearGradient><rect
         x="16176"
         y="15327"
         width="167"
         height="592"
         fill="url(#cz)"
         id="rect82" /></mask><mask
       id="db"><linearGradient
         id="dc"
         x1="15224"
         x2="15237"
         y1="14687"
         y2="14034"
         gradientUnits="userSpaceOnUse"><stop
           stop-color="#fff"
           offset="0"
           id="stop83" /><stop
           stop-color="#fff"
           stop-opacity="0"
           offset="1"
           id="stop84" /></linearGradient><rect
         x="15075"
         y="14027"
         width="311"
         height="668"
         fill="url(#dc)"
         id="rect84" /></mask><mask
       id="dd"><linearGradient
         id="de"
         x1="13856"
         x2="13866"
         y1="14458"
         y2="13911"
         gradientUnits="userSpaceOnUse"><stop
           stop-color="#fff"
           offset="0"
           id="stop85" /><stop
           stop-color="#fff"
           stop-opacity="0"
           offset="1"
           id="stop86" /></linearGradient><rect
         x="13713"
         y="13903"
         width="297"
         height="562"
         fill="url(#de)"
         id="rect86" /></mask><mask
       id="df"><linearGradient
         id="dg"
         x1="5003.4"
         x2="5010.8"
         y1="14732"
         y2="14146"
         gradientUnits="userSpaceOnUse"><stop
           stop-color="#fff"
           offset="0"
           id="stop87" /><stop
           stop-color="#fff"
           stop-opacity="0"
           offset="1"
           id="stop88" /></linearGradient><rect
         x="4796"
         y="14138"
         width="422"
         height="601"
         fill="url(#dg)"
         id="rect88" /></mask><mask
       id="dh"><linearGradient
         id="di"
         x1="3240.4"
         x2="3244.5"
         y1="17315"
         y2="16904"
         gradientUnits="userSpaceOnUse"><stop
           stop-color="#fff"
           offset="0"
           id="stop89" /><stop
           stop-color="#fff"
           stop-opacity="0"
           offset="1"
           id="stop90" /></linearGradient><rect
         x="3054"
         y="16895"
         width="377"
         height="428"
         fill="url(#di)"
         id="rect90" /></mask><mask
       id="dv"><linearGradient
         id="b"
         x1="2963.7"
         x2="2963.7"
         y1="18584"
         y2="18408"
         gradientUnits="userSpaceOnUse"><stop
           stop-color="#fff"
           offset="0"
           id="stop91" /><stop
           stop-color="#fff"
           stop-opacity="0"
           offset="1"
           id="stop92" /></linearGradient><rect
         x="2675"
         y="18398"
         width="577"
         height="196"
         fill="url(#b)"
         id="rect92" /></mask><linearGradient
       id="linearGradient8947"
       x1="44.403999"
       x2="1324.4"
       y1="472.79001"
       y2="472.79001"
       gradientUnits="userSpaceOnUse"><stop
         id="stop8941"
         stop-color="#c957e6"
         offset="0"
         style="stop-color:#f9f544;stop-opacity:1;" /><stop
         id="stop8943"
         stop-color="#1a9fff"
         offset="0.5034166"
         style="stop-color:#df790a;stop-opacity:1;" /></linearGradient></defs><sodipodi:namedview
     id="namedview10"
     pagecolor="#ffffff"
     bordercolor="#000000"
     borderopacity="0.25"
     inkscape:showpageshadow="2"
     inkscape:pageopacity="0.0"
     inkscape:pagecheckerboard="0"
     inkscape:deskcolor="#d1d1d1"
     inkscape:zoom="0.84863535"
     inkscape:cx="513.76601"
     inkscape:cy="257.47219"
     inkscape:window-width="1920"
     inkscape:window-height="1008"
     inkscape:window-x="0"
     inkscape:window-y="0"
     inkscape:window-maximized="1"
     inkscape:current-layer="DECK" /><linearGradient
     id="_Linear1"
     x1="0"
     y1="0"
     x2="1"
     y2="0"
     gradientUnits="userSpaceOnUse"
     gradientTransform="matrix(282.082,0,0,150,0,75)"><stop
       offset="0"
       style="stop-color:rgb(201,87,230);stop-opacity:1"
       id="stop1" /><stop
       offset="0.01"
       style="stop-color:rgb(201,87,230);stop-opacity:1"
       id="stop2" /><stop
       offset="0.9"
       style="stop-color:rgb(26,159,255);stop-opacity:1"
       id="stop3" /><stop
       offset="1"
       style="stop-color:rgb(26,159,255);stop-opacity:1"
       id="stop4" /></linearGradient><linearGradient
     id="_Linear2"
     x1="0"
     y1="0"
     x2="1"
     y2="0"
     gradientUnits="userSpaceOnUse"
     gradientTransform="matrix(2683.84,0,0,1000,-2.30926e-13,500)"><stop
       offset="0"
       style="stop-color:#f9f544;stop-opacity:1;"
       id="stop5" /><stop
       offset="0.4378075"
       style="stop-color:#df790a;stop-opacity:1;"
       id="stop6" /></linearGradient><g
     id="DECK"
     transform="matrix(0.476929,0,0,0.476929,1.10135e-13,161.536)"><g
       style="clip-rule:evenodd;fill-rule:evenodd;image-rendering:optimizeQuality;shape-rendering:geometricPrecision;text-rendering:geometricPrecision"
       id="g10"
       transform="matrix(0.04553949,0,0,0.04470545,-125.43847,-208.80237)"><path
         class="fil0"
         d="m 9813,13945 c 485,-368 26,-964 26,-1789 0,-100 -329,-544 156,-58 0,-571 -721,-921 52,-2010 1017,-1436 215,-44 732,320 203,143 100,1824 542,1261 350,-445 -134,-854 365,542 201,561 -161,2971 599,1377 108,-225 90,-1273 249,95 43,365 576,233 576,2031 262,21 328,-1477 328,-112 0,788 190,1718 51,2225 -313,1144 955,-617 528,218 -296,581 666,1624 436,2577 -308,1276 359,-66 413,368 102,831 808,-357 1360,2035 190,-171 549,-1185 443,-1708 365,0 372,3547 -706,4510 -1871,1671 -10311,2995 -11874,148 -63,-115 -404,-742 -406,-762 127,9 536,414 225,-247 -298,-635 -126,-711 -465,-1246 -334,-528 410,305 259,45 -112,-195 -280,-1318 -141,-1603 205,-422 327,-1690 327,-2184 286,-184 -164,1884 630,327 11,-22 -37,-824 111,-1225 110,-298 -96,690 118,874 5,4 168,858 225,924 313,361 40,1060 424,1416 175,162 -123,180 104,-230 23,-43 57,-1017 -94,-1205 -370,-462 -107,-1452 -107,-1309 0,759 504,457 741,1088 45,119 704,424 854,424 295,0 -266,-447 -266,-840 0,-14 5,-1110 99,-825 132,402 -213,564 589,923 46,-65 -204,-414 14,-876 137,-288 18,-1196 172,-1394 5,-6 24,-658 118,-771 79,-98 -154,-921 107,-287 53,129 -72,376 285,1043 462,866 326,984 354,-167 11,-441 -441,-1013 -39,-1543 79,-104 87,-1464 254,-1677 4,2 200,450 206,489 131,67 745,-1382 745,-1376 0,619 189,190 281,184 z"
         mask="url(#dj)"
         id="path92" /><path
         class="fil1"
         d="m 5309,25366 c -212,-1359 1697,-1859 1697,-3585 0,632 667,2068 985,235 255,-1463 -585,-1912 -44,-3275 120,24 -110,560 286,940 955,916 87,550 689,-821 439,-1001 -1128,-1644 869,-4305 598,-797 676,-2243 222,-3087 -141,-262 44,-805 258,-975 3,5 -10,843 409,1346 575,691 49,2401 648,3528 332,625 -125,3034 698,920 9,-22 261,-1496 409,-1947 112,-339 93,273 93,567 0,500 -143,1346 115,1744 221,341 -169,2029 308,2842 230,393 -129,1773 654,478 242,-399 53,-1318 235,160 165,1344 -623,1168 194,2676 23,44 -3,923 7,1069 614,294 1378,-1216 907,-2146 -223,-441 1436,420 677,3272 -632,2377 -4224,2282 -4982,2607 -1947,832 -4198,-861 -5481,-729 -805,82 -314,-2204 -906,-2757 -1108,-1039 296,-2768 296,-3746 0,897 849,1706 -214,2719 -149,142 746,2155 971,2270 z"
         id="path93" /><path
         class="fil2"
         d="m 5305,25364 c -211,-1359 1693,-1859 1693,-3584 0,631 665,2067 983,234 253,-1462 -584,-1911 -44,-3274 119,24 -110,560 285,940 952,916 86,550 687,-821 437,-1001 -1125,-1644 867,-4305 596,-797 675,-2242 221,-3086 -140,-262 44,-805 258,-975 2,5 -10,843 408,1346 573,691 48,2401 645,3527 332,625 -124,3034 697,920 9,-22 261,-1496 408,-1947 112,-339 92,273 92,567 0,500 -142,1346 116,1744 220,341 -169,2029 306,2842 230,393 -128,1772 653,478 241,-400 53,-1318 234,160 165,1344 -621,1167 194,2675 23,44 -3,923 7,1069 613,294 1374,-1216 904,-2146 -222,-440 1433,421 676,3272 -1163,4382 -9191,1749 -10436,1877 -803,83 -314,-2203 -904,-2756 -1106,-1039 296,-2768 296,-3746 0,897 846,1706 -215,2720 -148,142 745,2154 969,2269 z"
         mask="url(#dw)"
         id="path94" /><path
         class="fil3"
         d="m 6091,25893 c 0,-941 -657,-1425 -371,-2696 98,-439 -177,-226 216,-886 85,-143 12,90 12,387 0,879 532,-181 532,-476 0,-612 -234,-1116 -225,-1916 3,-306 -760,-1690 -430,-1991 17,-16 -61,801 456,1470 70,92 632,718 686,750 52,-521 -455,-1166 -184,-2302 10,-42 -6,-1410 91,-380 55,590 335,1080 608,1583 346,638 688,78 1232,762 176,221 42,-334 -63,-518 -540,-947 -12,-1551 -256,-2812 -48,-250 273,-1449 273,-876 0,741 404,1633 1026,2035 651,420 468,1217 997,139 236,-482 -331,-1620 530,-2479 339,-339 86,-1583 286,-673 174,793 -148,758 371,1604 269,437 -277,2292 888,1119 60,-60 839,-1643 924,-1883 91,-254 0,-1038 29,520 10,571 -663,838 -216,2234 148,464 24,980 311,1837 241,716 -489,637 113,1912 239,506 -387,1052 925,53 210,-160 843,-1117 352,-224 -899,1633 -269,2073 -412,2344 -163,307 -230,57 -497,715 -200,494 -446,241 -845,1094 -236,502 -632,184 -1306,411 -754,254 -1353,436 -2132,610 -372,84 -1211,98 -1546,-85 -415,-226 -2375,-820 -2375,-1382 z"
         mask="url(#es)"
         id="path95" /><path
         class="fil4"
         d="m 5064,26271 c 212,-20 -471,-729 -466,-1406 5,-550 -252,-1564 166,-1883 9,10 135,598 172,690 155,394 110,66 230,-463 303,-1344 332,-1167 312,-2584 -9,-628 140,-512 5,-1353 -92,-575 490,-1721 309,-1165 -249,758 259,1573 703,2133 6,7 139,-1246 286,-1673 313,-909 -240,-1810 -240,-2222 0,886 742,1257 844,1910 0,2 279,580 260,136 -8,-195 266,-1344 266,-1731 0,-900 -12,-701 254,-1564 84,-271 -45,352 92,734 260,726 682,889 1127,1583 283,443 1607,-262 1859,-724 609,-1116 1323,-1146 1164,-2290 -57,-29 -15,176 -63,409 -183,868 -329,1376 -101,2294 68,275 -40,157 157,512 388,701 -396,539 281,-245 553,-639 2040,-2094 2040,-3014 54,554 -703,1631 -379,3176 98,467 -16,2121 -173,2585 -184,545 1050,-1325 1141,-1484 484,-837 436,-697 299,216 -167,1110 -766,924 -60,2313 164,322 57,1222 92,1636 477,-687 1361,-1409 1684,-1947 129,83 -549,1452 -283,2205 475,1350 -1040,1883 -1641,2802 -593,905 -1223,650 -2016,1222 -1230,885 -1746,637 -3359,625 -357,-2 -572,-165 -1244,-165 -637,0 -3856,-248 -3856,-1041 0,-72 45,-218 138,-227 z"
         mask="url(#i)"
         id="path96" /><path
         class="fil0"
         d="m 8278,27087 c -225,-1305 -487,-413 -487,-2304 0,-1159 -100,-244 233,61 245,226 98,316 125,-378 13,-330 346,-700 319,-1677 0,-6 192,-2028 170,-1201 -4,146 211,881 306,794 659,-599 889,-2295 858,-3163 -7,-183 381,-882 381,-1349 0,701 175,941 148,1494 0,3 113,765 286,23 196,-843 518,-1039 518,-1833 0,1152 -30,2181 424,3248 230,541 -46,78 444,-992 417,-911 -330,601 -169,1180 264,949 211,1072 211,2067 0,782 326,545 411,-100 18,-137 402,-1220 18,62 -3,11 -66,648 -72,700 -51,441 -272,863 -272,1503 0,359 -125,950 383,330 6,108 -689,1409 -1251,1409 -658,0 40,469 -1145,314 -488,-64 -1397,195 -1744,-162 z"
         mask="url(#da)"
         id="path97" /><path
         class="fil3"
         d="m 7389,25872 c -379,-610 0,-1346 0,-2019 0,46 287,1204 231,192 -31,-559 297,-549 97,-1646 -58,-318 -74,-1159 102,-213 2,6 476,1468 480,1473 4,-5 464,-1423 550,-1614 221,-488 212,-450 212,-965 0,694 -124,1440 17,2118 76,359 -3,369 166,896 150,467 325,1655 325,1648 0,-318 543,-1474 337,-424 -39,199 -145,308 -215,740 -52,316 -301,823 -641,818 -611,-8 -793,505 -1300,60 -18,-16 -324,152 -770,-558 -86,-137 -163,-515 -163,-687 130,991 1343,1426 572,181 z"
         mask="url(#dl)"
         id="path98" /><path
         class="fil5"
         d="m 8373,27113 c -280,-303 19,-2962 122,-2560 241,946 444,-1034 538,-1181 126,-200 536,-1410 536,-1637 0,-1049 35,1330 259,-23 134,-806 519,-850 519,-1990 0,-849 301,-1138 301,-2156 0,-609 88,-1222 322,-1767 -58,-48 17,1543 165,1637 38,-611 501,-1200 424,-2314 -4,-60 211,-1076 211,-480 0,732 -1,1335 -21,2067 -8,306 261,1513 254,1399 0,-4 224,-638 249,-758 160,-769 29,870 84,1095 25,101 383,1514 387,1518 170,-32 296,-903 296,-79 0,401 -81,2121 53,2351 177,306 -343,1153 347,291 72,-89 -104,872 -104,1193 0,701 -244,1076 -292,1895 -86,1451 -1740,1919 -2904,1919 -471,0 -1402,-48 -1746,-420 z"
         mask="url(#dn)"
         id="path99" /><path
         class="fil4"
         d="m 10913,26612 c 708,-917 713,-1767 1249,-2825 36,-72 413,-2015 413,-1047 0,1340 -89,873 559,-261 151,-263 562,-1227 562,-1559 0,-1263 192,-598 -35,328 -35,145 -142,2079 -72,2076 259,-13 1100,-1769 1206,-2091 407,-1227 677,-1192 1683,-1630 59,73 -403,165 -409,525 -2,138 -211,816 -92,1197 77,247 -244,83 -227,706 6,249 -296,731 -231,945 362,-256 -39,250 -64,764 -13,259 -1596,1528 -1649,1718 -316,1138 -419,158 -123,348 108,69 166,351 -89,504 -837,504 -1009,671 -2062,736 -328,20 -283,-684 -619,-434 z"
         mask="url(#dp)"
         id="path100" /><path
         class="fil3"
         d="m 9020,25289 c -651,-1361 -480,-951 281,-19 197,241 77,-219 77,-581 0,-822 466,-1236 466,-2288 0,152 141,1567 245,1655 164,-276 708,-1699 708,-2071 0,-1036 201,-1179 448,-2000 -338,774 -9,2191 -152,2700 -12,41 911,-1347 931,-1501 92,-676 168,-190 9,245 -356,971 12,2422 -72,2611 -171,382 1360,-1050 540,120 -434,619 -119,1011 -408,1872 -170,508 85,438 -640,924 -2272,1519 -2080,-930 -2433,-1667 z"
         mask="url(#dr)"
         id="path101" /><path
         class="fil6"
         d="m 6534,16184 c -6,-91 -29,-104 -87,-177 -88,-110 -237,-329 -360,-361 -93,-24 48,23 60,126 24,212 -29,183 84,422 55,115 151,169 270,142 38,-9 35,-122 33,-152 z"
         mask="url(#dt)"
         id="path102" /><path
         class="fil6"
         d="m 7292,16221 c 36,-92 96,-340 46,-428 -79,-138 -126,-172 -130,-340 -1,-32 -42,129 -59,159 -120,217 35,376 124,549 14,27 30,31 19,60 z"
         mask="url(#dx)"
         id="path103" /><path
         class="fil6"
         d="m 8086,14417 c 892,-990 87,-1586 87,-2597 0,-260 -57,522 -164,691 -264,421 93,1048 -51,1514 -12,41 -53,392 128,392 z"
         mask="url(#dz)"
         id="path104" /><path
         class="fil6"
         d="m 13401,13093 c 7,-1689 960,-2460 667,-3571 -36,-139 20,-1093 71,-238 9,160 178,598 213,951 39,386 113,81 7,712 -167,997 185,1039 -598,1849 -81,84 -243,502 -360,297 z"
         mask="url(#eb)"
         id="path105" /><path
         class="fil6"
         d="m 10904,9940 c 144,121 231,-628 138,-888 -114,-320 -54,-899 155,-1151 -65,-30 -361,353 -357,662 6,369 -99,627 -106,980 -1,78 121,356 170,397 z"
         mask="url(#ed)"
         id="path106" /><path
         class="fil6"
         d="m 12422,10650 c 83,-531 -120,-616 -101,-945 8,-130 -36,291 -110,408 -64,103 224,455 211,537 z"
         mask="url(#ef)"
         id="path107" /><path
         class="fil6"
         d="m 4808,18680 c 131,-700 0,-1466 0,-1007 0,59 -636,1201 -127,1142 92,-11 112,-56 127,-135 z"
         mask="url(#ei)"
         id="path108" /><path
         class="fil6"
         d="m 15528,19635 c 246,-745 -255,12 450,-876 121,-152 133,-1527 133,-1025 0,656 301,1291 -127,1722 -160,161 -227,179 -456,179 z"
         mask="url(#ek)"
         id="path109" /><path
         class="fil6"
         d="m 13974,17508 c -331,-493 274,-426 274,-1275 22,0 451,983 -274,1275 z"
         mask="url(#em)"
         id="path110" /><path
         class="fil6"
         d="m 8208,9681 c 363,-650 -200,-1213 -200,-1960 0,-743 -347,558 -154,1029 75,182 -75,750 354,931 z"
         mask="url(#eo)"
         id="path111" /><path
         class="fil6"
         d="m 6516,12219 c 183,-390 -265,-616 -265,-1147 0,302 -259,905 127,983 53,11 132,177 138,164 z"
         mask="url(#eq)"
         id="path112" /><path
         class="fil6"
         d="m 9924,5712 c 67,-709 396,-773 129,-1254 -130,-234 -288,-1389 -288,-1188 0,536 -191,515 -191,1361 0,663 373,835 350,1081 z"
         mask="url(#e)"
         id="path113" /><path
         class="fil6"
         d="m 16186,15640 c 338,-45 -89,-1262 0,0 z"
         mask="url(#c)"
         id="path114" /><path
         class="fil6"
         d="m 15088,14417 c 554,-245 144,-1201 94,-195 -6,110 13,148 -94,195 z"
         mask="url(#z)"
         id="path115" /><path
         class="fil6"
         d="m 13907,14189 c 402,-457 -451,-876 -53,-141 53,99 50,144 53,141 z"
         mask="url(#x)"
         id="path116" /><path
         class="fil6"
         d="m 5350,13919 c -413,-53 -546,-126 -192,418 257,395 153,-259 2,-359 z"
         mask="url(#v)"
         id="path117" /><path
         class="fil6"
         d="m 3532,16870 c 130,267 -445,-480 -258,-151 76,135 454,555 258,151 z"
         mask="url(#s)"
         id="path118" /><path
         class="fil6"
         d="m 3412,18175 c -52,-1 -928,-146 -357,114 60,27 302,54 357,-114 z"
         mask="url(#q)"
         id="path119" /><path
         class="fil0"
         d="m 6409,16455 c -6,-91 -29,-105 -88,-177 -90,-111 -241,-331 -366,-363 -94,-24 49,23 61,127 24,212 -30,183 86,423 56,115 152,169 273,142 39,-9 36,-122 34,-152 z"
         mask="url(#o)"
         id="path120" /><path
         class="fil0"
         d="m 7178,16492 c 36,-93 97,-341 46,-429 -79,-138 -127,-172 -132,-340 -1,-33 -42,129 -59,159 -122,217 35,377 125,549 14,28 31,32 20,61 z"
         mask="url(#m)"
         id="path121" /><path
         class="fil0"
         d="m 7982,14684 c 906,-992 89,-1590 89,-2602 0,-262 -58,522 -166,692 -268,421 95,1050 -52,1517 -13,41 -53,393 129,393 z"
         mask="url(#k)"
         id="path122" /><path
         class="fil0"
         d="m 13373,13357 c 8,-1692 974,-2465 678,-3578 -37,-140 20,-1095 71,-239 9,161 181,599 216,953 39,387 115,81 8,713 -170,1000 187,1041 -607,1854 -82,84 -246,503 -366,297 z"
         mask="url(#h)"
         id="path123" /><path
         class="fil0"
         d="m 10841,10198 c 146,121 235,-629 140,-890 -116,-321 -55,-901 158,-1154 -66,-29 -367,354 -363,663 6,370 -100,629 -107,982 -1,79 122,358 172,399 z"
         mask="url(#f)"
         id="path124" /><path
         class="fil0"
         d="m 12381,10909 c 83,-532 -122,-618 -103,-947 8,-131 -37,292 -111,409 -66,103 227,456 214,538 z"
         mask="url(#ab)"
         id="path125" /><path
         class="fil0"
         d="m 4658,18956 c 133,-702 0,-1470 0,-1009 0,59 -645,1204 -129,1144 93,-11 114,-56 129,-135 z"
         mask="url(#ad)"
         id="path126" /><path
         class="fil0"
         d="m 15531,19913 c 250,-747 -259,12 457,-878 123,-152 134,-1530 134,-1027 0,657 306,1293 -129,1725 -161,161 -230,180 -462,180 z"
         mask="url(#cn)"
         id="path127" /><path
         class="fil0"
         d="m 13955,17781 c -336,-493 278,-427 278,-1278 22,0 458,986 -278,1278 z"
         mask="url(#cq)"
         id="path128" /><path
         class="fil0"
         d="m 8106,9937 c 369,-650 -202,-1215 -202,-1963 0,-744 -352,559 -156,1031 76,182 -77,752 358,932 z"
         mask="url(#cs)"
         id="path129" /><path
         class="fil0"
         d="m 6391,12481 c 185,-391 -269,-617 -269,-1149 0,303 -263,907 129,985 53,11 134,177 140,164 z"
         mask="url(#cu)"
         id="path130" /><path
         class="fil0"
         d="m 9847,5960 c 68,-709 402,-774 131,-1256 -132,-234 -292,-1392 -292,-1190 0,536 -193,515 -193,1363 0,664 377,837 354,1083 z"
         mask="url(#cw)"
         id="path131" /><path
         class="fil0"
         d="m 16198,15909 c 343,-45 -90,-1264 0,0 z"
         mask="url(#cy)"
         id="path132" /><path
         class="fil0"
         d="m 15085,14684 c 561,-245 146,-1204 95,-195 -6,110 14,148 -95,195 z"
         mask="url(#db)"
         id="path133" /><path
         class="fil0"
         d="m 13887,14455 c 408,-458 -458,-878 -54,-141 54,99 51,145 54,141 z"
         mask="url(#dd)"
         id="path134" /><path
         class="fil0"
         d="m 5208,14184 c -419,-53 -553,-126 -195,419 260,396 156,-258 2,-359 z"
         mask="url(#df)"
         id="path135" /><path
         class="fil0"
         d="m 3365,17142 c 130,267 -452,-481 -263,-151 78,135 461,555 263,151 z"
         mask="url(#dh)"
         id="path136" /><path
         class="fil0"
         d="m 3242,18450 c -52,-1 -941,-147 -362,114 61,27 307,54 362,-114 z"
         mask="url(#dv)"
         id="path137" /></g><path
       d="m 1953.3258,-219.94259 c 36.4995,-0.44877 14.828,-63.11472 44.155,-68.03964 11.6358,-1.95231 16.2171,4.21148 25.5623,8.77969 0.5522,9.29748 -6.7784,11.15775 -9.2966,17.55935 8.3624,6.79668 14.6698,-2.39723 23.2432,-2.19396 2.8836,15.42293 -21.6187,12.1128 -27.8853,6.58572 -4.7355,-8.14298 1.8033,-12.85307 4.6463,-19.75332 -32.7143,-13.9769 -20.3068,19.59605 -25.5622,37.31268 -7.8505,26.46177 -51.7051,41.54717 -55.7746,4.39176 -2.4895,-22.74509 30.1433,-50.30002 4.6502,-63.65172 -19.4376,14.65965 -30.0825,39.288 -41.832,61.45391 -20.7413,39.13843 -43.0503,87.85817 -67.398,125.10564 1.6934,10.83939 14.6694,11.02349 18.5928,19.753306 2.2703,10.19118 -13.8899,2.976428 -11.6195,13.171429 13.1992,2.489305 27.1217,-5.13203 34.8586,-13.171429 4.313,-4.479976 3.3506,-10.310076 6.9733,-15.365386 13.4147,-18.72155 32.5558,-24.287 60.4248,-32.92092 6.6607,-15.5265 25.0059,-22.04317 44.1552,-19.75333 8.1104,-3.31396 9.3329,-13.13307 13.9466,-19.75331 10.5392,-9.06735 29.254,-10.41364 39.5089,-19.75332 -1.7058,-8.01641 -11.579,-10.70516 -2.3232,-17.55935 13.5488,-1.82191 11.8714,10.73582 11.6196,21.95111 -12.0296,11.31884 -33.9286,13.32102 -41.832,28.53299 6.2952,3.38301 10.5231,-0.007 18.5888,4.38792 7.5786,-4.54902 6.2993,-17.46346 13.9468,-21.94728 27.6984,-0.90903 27.6903,-27.98834 37.1857,-46.09234 16.668,4.95559 -3.0257,36.17734 -9.2965,41.70058 -7.7409,6.81969 -17.289,7.84763 -23.243,8.77969 -3.6511,11.91335 -9.1259,22.10837 -18.593,28.53299 -8.2283,1.18903 -5.7102,-7.77091 -13.9426,-6.58572 -11.989,11.35722 -17.9674,28.39108 -44.159,26.33904 -7.2008,18.80208 -41.9051,11.63335 -58.1018,21.95111 -1.0965,37.090215 -41.832,48.167422 -76.6905,46.092371 22.5607,36.737324 73.0027,8.123781 99.9336,-8.779687 5.6696,-3.559435 12.2695,-5.220242 18.5929,-8.779685 11.3597,-6.393944 21.054,-16.657989 32.5354,-21.951119 27.9788,-12.88759 91.3035,-22.88316 127.8232,-4.39174 -7.481,23.320424 -53.5044,-1.75671 -62.748,17.559352 14.4706,9.213102 33.0148,0.705742 48.8054,2.193956 24.8596,2.343546 50.1049,15.119913 83.668,13.167609 9.3938,3.563265 12.1151,13.428413 25.5622,13.17143 4.8247,18.123185 39.0619,8.468995 37.1856,32.920916 -26.4394,2.872855 -46.6486,-16.899625 -72.0443,-17.559352 -8.3379,-0.214797 -17.013,4.974769 -25.5662,4.391744 -11.2988,-0.774781 -21.4401,-9.642679 -32.5356,-10.973623 -31.2967,-3.7589 -56.3025,17.870042 -88.3142,17.559352 -12.9923,-0.126587 -26.7115,-9.88433 -39.5088,-2.193966 8.9471,19.350575 48.9231,9.397206 72.0444,15.361573 8.5978,-1.53808 5.7957,7.694195 9.2963,10.973624 14.6372,-1.388482 22.1264,3.9775176 23.2391,15.3615632 2.7699,9.1977608 -9.7958,3.9161507 -11.6155,8.7796758 12.099,17.099095 48.3141,11.437754 53.4516,35.118713 -18.9544,9.086537 -39.1148,-5.738041 -58.1016,-6.585721 -5.6128,-0.24932 -13.0819,2.796146 -18.5929,2.193959 -18.7432,-2.040535 -33.7906,-11.982397 -46.4782,-19.753312 -35.1146,-4.495313 -64.7788,6.20984 -92.9645,0 -22.6299,-4.986267 -35.6952,-29.0661495 -55.7745,-32.9209124 -5.6008,14.5752515 9.8732,26.8836884 23.243,30.7269494 19.328,21.981799 45.873,37.151576 69.7213,54.872038 2.7131,9.140224 8.5411,15.346214 11.6154,24.141232 2.5748,11.94021 -7.8913,11.56817 -6.9691,21.94729 39.9555,1.00491 101.4891,-1.22739 137.1154,0 3.0824,3.67449 6.161,7.35284 4.6502,15.36538 -1.9048,-23.49301 23.7102,-28.59053 46.4782,-21.94727 4.0127,1.33096 -0.1782,10.4098 4.6503,10.97366 7.5052,1.96381 3.2694,-7.15725 6.9734,-8.77969 7.9927,0.96272 13.0245,-0.86685 18.5928,-2.19397 5.7021,1.9293 13.4025,1.97533 13.9466,8.77966 7.0425,0.069 2.2501,-11.04267 9.2925,-10.97361 23.7913,-4.56436 45.605,-7.09969 62.7478,-17.559378 10.4501,-6.370925 16.5664,-21.851377 30.2125,-17.559345 8.2485,-0.425757 3.2693,8.956118 4.6502,13.167608 2.5751,7.870621 7.7776,14.475515 9.2965,26.339035 0.3494,5.45038 -1.202,9.10953 -4.6502,10.97364 10.6408,9.49694 -0.5889,13.92704 4.6502,28.53299 2.0349,7.04598 -6.0271,4.55286 -6.9733,8.77967 -1.5027,8.73366 6.1488,8.82187 4.6502,17.55937 -25.3997,18.49907 -39.9272,-14.76704 -76.6947,-26.33904 -6.632,-2.08661 -13.2764,-0.62137 -18.5928,-2.19399 -11.7293,-3.47122 -20.4409,-8.6953 -41.832,-4.39177 -5.6413,-2.72326 -10.8194,-5.87614 -13.9467,-10.97364 -6.3803,14.82842 -44.35,14.37965 -53.4515,2.19396 -93.5656,-0.24545 -182.5864,0.85535 -264.9386,-2.19396 9.2722,20.50511 36.6984,23.86892 46.4824,43.89456 23.6979,9.53147 50.3242,14.76705 72.0443,24.14508 28.4782,12.29308 47.1443,32.78282 60.4248,61.45391 7.542,-1.27342 10.8114,1.49588 16.2658,2.194 16.018,30.96092 84.4274,12.44651 109.2302,35.11488 5.9947,-0.52932 -3.1882,-3.77427 0,-8.77969 10.6854,6.38243 12.7039,18.49908 20.9159,26.33904 8.1919,7.81311 21.3791,10.46351 30.2124,17.55557 4.6829,3.7626 22.4511,22.48806 25.5623,28.53291 15.628,30.38563 1.194,73.88892 -25.5623,87.79299 -15.0756,7.83224 -43.4809,12.51556 -72.0443,10.97364 -60.3314,-3.25261 -116.2807,-44.56962 -190.571,-48.28629 -46.2101,-2.31283 -96.1121,11.46077 -132.4692,21.95109 -30.5455,8.81042 -53.0252,18.97465 -76.6906,37.31265 -6.2504,9.45859 -16.0546,15.56491 -27.8893,19.74947 -6.3845,-17.76644 18.6822,-24.7664 23.239,-39.50656 22.7396,-10.71663 45.5969,-21.32207 67.3982,-32.92093 30.513,-6.39009 62.5447,-16.93797 95.2834,-19.75337 14.7225,-1.26567 29.1688,3.29482 41.8319,-4.39172 20.0104,7.57142 34.2658,2.3781 53.4516,4.39172 7.5542,0.79398 16.8019,5.50417 25.5664,6.58573 31.7394,3.91612 52.4157,11.96706 88.3101,19.75337 23.8523,5.17418 59.9334,24.49406 92.9643,13.16756 17.342,-5.94518 26.0579,-27.63927 23.2391,-50.4803 -3.0541,-24.77406 -34.9195,-58.76131 -62.7479,-70.23356 -14.7508,-6.08326 -31.4349,-3.34848 -41.8319,-13.17144 -7.4609,-1.92547 -4.8209,5.68817 -9.2965,6.58571 -53.5693,-5.30463 -95.7749,-14.46786 -123.1728,-41.70443 -14.4015,-14.31443 -28.9616,-31.98502 -51.1283,-41.70058 -0.4266,20.37083 38.3878,22.11986 44.159,43.89454 -16.1724,-4.77532 -32.4096,-15.72976 -51.1286,-19.74949 -16.0137,-3.44436 -34.2209,-2.1556 -48.8052,-6.5857 -23.2676,-7.06517 -36.004,-23.12481 -55.7745,-30.7308 -4.0452,-14.46404 -17.4233,-20.12537 -20.9161,-35.11488 -22.7639,-7.76325 -38.3147,-22.34618 -44.159,-46.09234 -33.0067,1.84108 -61.7693,0.32218 -92.9605,0 -81.4017,-0.84 -170.4346,6.32105 -262.6153,-2.19397 -2.5465,-5.90681 -0.4346,-11.25748 2.323,-17.55937 23.0848,3.55176 40.2806,-0.12659 65.071,0 27.922,-16.06346 54.9462,-32.974604 72.0445,-59.259951 -6.5712,-11.353354 -31.9912,-4.905721 -34.8588,-19.753304 -6.4493,0.494789 -6.5752,6.957767 -11.6192,8.77968 -7.534,-0.932049 -4.6259,-11.729259 -9.2966,-15.365409 5.9824,-5.998863 22.3252,-0.230125 25.5662,-13.167584 -0.2356,-10.75119 -16.1519,-6.696951 -11.6196,-21.9472906 12.2046,-1.28492804 10.5068,10.5593976 16.2659,15.3615646 18.2679,3.352317 12.5375,-15.9637337 27.8893,-15.3615646 1.3809,13.6240386 2.1526,21.5675606 13.9427,21.9472906 15.1,0.487105 18.5278,-20.7083995 18.5927,-30.7269564 17.7481,-3.5977896 33.3478,-5.8569646 48.8053,-6.5857286 -9.536,-12.94512 -11.4001,-33.131874 -18.5928,-48.286302 6.3477,-9.427901 1.9414,-20.056339 4.6502,-28.533004 4.5001,-14.088151 16.1155,-23.608101 23.2392,-37.312671 1.0316,-4.15012 -3.1599,-13.22898 4.6502,-10.97364 -2.1362,-5.79175 -4.9061,-9.07118 -4.6502,-15.36541 0.2029,-5.01694 7.6638,-13.93089 11.6194,-19.7533 0.2234,-0.32603 1.8155,-8.37695 2.3231,-8.77969 4.4311,-3.52107 16.5176,-2.006 18.5928,-4.39175 5.3732,23.93412 3.3021,55.77723 -9.2963,79.01327 -4.4148,8.15064 -3.8379,17.152787 -11.6196,24.14508 0.8976,9.20159 8.1959,20.543442 0,32.920917 6.5512,16.151697 5.1296,30.04422 2.3231,48.2863101 -0.3329,2.15177126 2.3677,6.3862732 2.3232,6.5818795 -2.4369,11.2574794 -11.4043,15.7221014 -13.9468,26.3390324 -1.5188,6.344069 0.6742,13.881018 0,19.753312 -3.7687,32.924755 -29.002,44.366336 -44.155,70.233599 26.7685,10.84324 24.7581,-4.84819 41.8319,-17.55935 6.4293,-4.783003 15.4657,-5.887647 18.5929,-8.779689 9.2966,-8.59174 12.2939,-23.57356 25.5621,-30.726952 6.2181,-3.352323 15.8151,-5.78791 23.2392,-8.779689 17.3947,-7.007627 41.4786,-15.426756 58.1017,-30.72696 10.1209,-9.320472 12.0785,-19.9642609 25.5623,-26.3390331 1.5636,-10.9621199 7.0708,-18.1998939 9.2964,-28.5329729 10.5352,-6.148462 18.0487,-15.146766 23.2391,-26.339037 -8.6264,-7.04984 -8.6912,8.04324 -20.9161,4.387922 -6.758,-6.785175 -10.7179,-16.216917 -20.9158,-19.753329 -14.3733,2.895878 -26.212,18.633314 -44.1591,10.973644 3.2611,-20.332485 27.544,-20.811948 44.1591,-28.532995 -0.6825,-14.717179 -27.654,-4.614232 -30.2125,-17.559349 6.6404,-14.21473 35.1023,-7.81696 48.8053,-15.36157 58.378,-58.23586 107.3255,-125.40864 162.6696,-186.54036 11.8713,6.81969 23.4868,11.1539 25.5621,21.94727 3.8623,20.07168 -31.8614,50.50712 -4.6422,68.03964 z m 4.6422,79.01711 c 5.0441,-4.01588 19.0355,0.41425 23.2431,-4.39177 -8.6589,-1.63012 -20.985,-5.06681 -23.2431,4.39177 z M 1851.0649,71.969246 c -17.4678,-16.431695 -38.6845,-40.208549 -62.748,-32.920928 -21.586,6.539702 -40.244,51.531246 -69.7213,50.484115 -1.0315,7.069008 -4.4512,11.890347 -4.6502,19.753327 7.2496,3.39449 8.3218,12.62677 20.9159,10.97363 4.427,-34.689119 40.6666,-48.305481 83.668,-43.89454 19.6733,2.017522 37.9412,16.174691 53.4515,8.779664 -2.6966,-8.430639 -10.6975,-11.848143 -20.9159,-13.175268 z M 1569.8607,39.048318 c -9.0894,16.293616 -20.392,30.492994 -39.5088,37.31269 -9.5158,22.468908 -38.1931,26.849172 -48.8055,48.286292 16.2253,-2.23613 34.3876,-2.63887 53.4515,-2.19399 23.495,-18.51825 65.9686,-47.672605 48.8055,-83.405016 h -13.9427 z m 146.4119,26.339041 c -12.9354,14.126512 -40.4959,14.429519 -58.1018,24.145074 1.3443,17.363737 -13.5649,19.381277 -16.2699,32.920917 9.325,3.34847 21.5578,-4.23833 27.8894,-8.77966 17.9552,-12.87227 31.7883,-33.841467 51.1285,-43.898411 -0.26,-2.677278 -0.6946,-5.193375 -4.6462,-4.38792 z m -104.58,57.065991 c 8.7726,4.37643 18.467,1.10466 16.2699,-10.97363 -8.3014,0.93588 -12.7568,5.51174 -16.2699,10.97363 z m 72.0443,0 c 8.3422,-1.81808 11.2459,4.95177 16.2659,0 0.7068,-11.3265 -16.2292,-10.3446 -16.2659,0 z m 199.8635,89.98693 c 3.3223,-6.63559 1.9333,-12.66897 -6.9692,-13.17145 1.8032,4.88271 1.3401,11.90186 6.9692,13.17145 z m 20.916,24.14123 c -1.3607,-8.95611 -5.0929,-15.67224 -13.9426,-17.55935 -5.2067,7.63666 6.3276,15.07005 13.9426,17.55935 z"
       fill="#ff7f00"
       fill-rule="evenodd"
       id="path1"
       style="stroke-width:3.94687;fill:#ff0000;fill-opacity:1" /><path
       d="M1650,476.924L1728.84,476.924L1728.84,681.584L1999.38,476.789L2117.24,476.789L1953.35,600.854L2133.97,855.059L2036.91,854.789L1890.57,648.509L1728.84,771.089L1728.84,854.924L1650,854.924L1650,476.924ZM1137.26,514.319C1149.32,502.259 1162.66,493.034 1177.29,486.644C1191.91,480.254 1207.82,477.059 1225.01,477.059L1585.19,477.059L1585.19,549.284L1225.01,549.284C1218.62,549.284 1212.61,550.476 1206.99,552.861C1201.36,555.246 1196.46,558.531 1192.27,562.716C1188.09,566.901 1184.8,571.806 1182.42,577.431C1180.03,583.056 1178.84,589.064 1178.84,595.454L1178.84,736.664C1178.84,742.604 1180.14,748.341 1182.76,753.876C1185.37,759.411 1188.81,764.316 1193.08,768.591C1197.36,772.866 1202.26,776.309 1207.8,778.919C1213.33,781.529 1219.07,782.834 1225.01,782.834L1585.19,782.834L1585.19,855.059L1225.01,855.059C1216.46,855.059 1208.16,854.159 1200.1,852.359C1192.05,850.559 1184.31,848.016 1176.88,844.731C1169.46,841.446 1162.41,837.509 1155.76,832.919C1149.1,828.329 1142.93,823.289 1137.26,817.799C1125.47,806.369 1116.31,793.206 1109.79,778.311C1103.26,763.416 1100,747.329 1100,730.049L1100,602.069C1100,584.789 1103.19,568.859 1109.59,554.279C1115.98,539.699 1125.2,526.379 1137.26,514.319ZM550,811.724L550,520.394C550,513.914 551.035,508.019 553.105,502.709C555.175,497.399 558.123,492.831 561.947,489.006C565.773,485.181 570.34,482.234 575.65,480.164C580.96,478.094 586.855,477.059 593.335,477.059L1033.7,477.059L1033.7,549.284L628.975,549.284L628.975,625.829L984.565,625.829L984.565,698.054L628.975,698.054L628.975,782.834L1033.7,782.834L1033.7,855.059L593.335,855.059C586.855,855.059 580.96,854.024 575.65,851.954C570.34,849.884 565.773,846.936 561.947,843.111C558.123,839.286 555.175,834.719 553.105,829.409C551.035,824.099 550,818.204 550,811.724ZM447.93,962.74C435.87,974.8 422.527,984.025 407.902,990.415C393.277,996.805 377.37,1000 360.18,1000L78.975,1000L78.975,927.775L360.18,927.775C366.57,927.775 372.577,926.583 378.202,924.197C383.827,921.813 388.732,918.527 392.917,914.342C397.102,910.157 400.387,905.253 402.772,899.627C405.157,894.003 406.35,887.995 406.35,881.605L406.35,595.454C406.35,589.514 405.045,583.776 402.435,578.241C399.825,572.706 396.382,567.801 392.107,563.526C387.832,559.251 382.927,555.809 377.392,553.199C371.857,550.589 366.12,549.284 360.18,549.284L78.975,549.284L78.975,477.059L360.18,477.059C368.73,477.059 377.032,477.959 385.087,479.759C393.142,481.559 400.882,484.101 408.307,487.386C415.732,490.671 422.775,494.609 429.435,499.199C436.095,503.789 442.26,508.829 447.93,514.319C459.72,525.749 468.877,538.911 475.402,553.806C481.927,568.701 485.19,584.789 485.19,602.069L485.19,874.99C485.19,892.27 481.995,908.2 475.605,922.78C469.215,937.36 459.99,950.68 447.93,962.74Z"
       style="fill:white;stroke:#000000;stroke-opacity:1"
       id="path8" /><g
       id="RETRO-7"
       transform="matrix(1.0000021,0,0,1.0000021,-0.69905161,17.025346)"
       style="stroke:#000000;stroke-opacity:1"><g
         id="text750"
         transform="matrix(2.0967,0,0,2.0967,-93.103,-496.13)"
         fill="#008000"
         stroke-linecap="round"
         stroke-linejoin="round"
         stroke-width="2.315"
         style="white-space:pre;shape-inside:url(#rect752);paint-order:fill markers stroke;stroke:#000000;stroke-opacity:1"
         aria-label="Powered by ES-DE Frontend"><path
           id="path8936"
           d="m 677.39,700.38 v -31.021 h 20.979 v 5.9167 H 685.14 v 5.4375 h 12.188 v 5.9167 H 685.14 v 7.8333 h 13.229 v 5.9167 z m -4.6042,-15.479 c 0,2.8889 -0.63194,5.4792 -1.8958,7.7708 -1.2639,2.2778 -2.8611,4.0278 -4.7917,5.25 -1.6111,1.0417 -3.3681,1.7153 -5.2708,2.0208 -1.8889,0.29167 -3.9028,0.4375 -6.0417,0.4375 h -9.7083 v -31.021 h 9.625 c 2.1806,0 4.2222,0.13889 6.125,0.41667 1.9028,0.27778 3.6875,0.95139 5.3542,2.0208 2.0417,1.3056 3.6528,3.0694 4.8333,5.2917 1.1806,2.2083 1.7708,4.8125 1.7708,7.8125 z m -8,-0.0625 c 0,-2.0417 -0.35417,-3.7847 -1.0625,-5.2292 -0.69444,-1.4583 -1.7708,-2.5972 -3.2292,-3.4167 -1.0556,-0.58333 -2.1667,-0.90278 -3.3333,-0.95833 -1.1528,-0.0555 -2.5347,-0.0833 -4.1458,-0.0833 h -0.14583 v 19.417 h 0.14583 c 1.75,0 3.2222,-0.0278 4.4167,-0.0833 1.2083,-0.0694 2.3542,-0.44444 3.4375,-1.125 1.2778,-0.80555 2.25,-1.9167 2.9167,-3.3333 0.6667,-1.4166 1,-3.1458 1,-5.1875 z m -25.208,4.75 h -13.813 v -5.7917 h 13.813 z m -30.333,11.354 c -2.375,0 -4.4653,-0.22917 -6.2708,-0.6875 -1.7917,-0.45833 -3.4583,-1.0278 -5,-1.7083 v -7.375 h 0.70833 c 1.5556,1.3194 3.2708,2.3333 5.1458,3.0417 1.875,0.7084 3.6944,1.0625 5.4583,1.0625 0.44444,0 1.0278,-0.0486 1.75,-0.14583 0.73611,-0.0972 1.3264,-0.25001 1.7708,-0.45834 0.54167,-0.23611 1,-0.56249 1.375,-0.97916 0.375,-0.43056 0.5625,-0.99306 0.5625,-1.6875 0,-0.77777 -0.30555,-1.4097 -0.91666,-1.8958 -0.61111,-0.4861 -1.3403,-0.84028 -2.1875,-1.0625 -1.0556,-0.27778 -2.1875,-0.54167 -3.3958,-0.79167 -1.1944,-0.25 -2.3125,-0.55556 -3.3542,-0.91667 -2.4028,-0.84722 -4.125,-1.9861 -5.1667,-3.4167 -1.0417,-1.4306 -1.5625,-3.2222 -1.5625,-5.375 0,-2.9028 1.2292,-5.25 3.6875,-7.0417 2.4583,-1.8056 5.5278,-2.7083 9.2083,-2.7083 1.8472,0 3.6806,0.1875 5.5,0.5625 1.8333,0.375 3.4722,0.88195 4.9167,1.5208 v 7.0833 h -0.68751 c -1.1528,-0.98611 -2.5625,-1.8194 -4.2292,-2.5 -1.6528,-0.68056 -3.3542,-1.0208 -5.1042,-1.0208 -0.68055,0 -1.2917,0.0486 -1.8333,0.14583 -0.54167,0.0972 -1.1111,0.28473 -1.7083,0.56251 -0.48611,0.22222 -0.90972,0.55555 -1.2708,1 -0.34722,0.43055 -0.52083,0.91666 -0.52083,1.4583 0,0.79167 0.27778,1.4236 0.83333,1.8958 0.56945,0.45833 1.6597,0.875 3.2708,1.25 1.0417,0.23611 2.0417,0.46527 3,0.6875 0.97222,0.22222 2.0069,0.52777 3.1042,0.91666 2.1528,0.77778 3.75,1.8264 4.7917,3.1458 1.0556,1.3056 1.5833,3.0347 1.5833,5.1875 0,3.0833 -1.2153,5.5625 -3.6458,7.4375 -2.4167,1.875 -5.6875,2.8125 -9.8125,2.8125 z m -35.833,-0.5625 v -31.021 h 20.979 v 5.9167 h -13.229 v 5.4375 h 12.188 v 5.9167 h -12.188 v 7.8333 h 13.229 v 5.9167 z m -15.646,-23.396 -11.813,31.979 h -7.8333 l 3.5417,-9.1458 -8.5833,-22.833 h 7.6667 l 4.9167,14.667 4.6042,-14.667 z m -33.313,11.521 c 0,-2.3333 -0.35417,-4 -1.0625,-5 -0.70833,-1 -1.7986,-1.5 -3.2708,-1.5 -0.65277,0 -1.3056,0.10417 -1.9583,0.3125 -0.63889,0.20833 -1.2708,0.52083 -1.8958,0.9375 v 11.75 c 0.48611,0.19444 0.97223,0.32638 1.4583,0.39583 0.5,0.0695 0.99306,0.10417 1.4792,0.10417 1.7639,0 3.0764,-0.58333 3.9375,-1.75 0.875,-1.1667 1.3125,-2.9167 1.3125,-5.25 z m 7.4583,-0.14583 c 0,3.7222 -0.94445,6.7361 -2.8333,9.0417 -1.8889,2.2917 -4.2292,3.4375 -7.0208,3.4375 -1.1667,0 -2.1806,-0.13194 -3.0417,-0.39583 -0.8611,-0.26389 -1.7778,-0.67361 -2.75,-1.2292 l -0.3125,1.1667 h -6.9792 v -32.417 h 7.2917 v 11.458 c 1.0694,-0.91667 2.1597,-1.6597 3.2708,-2.2292 1.1111,-0.56944 2.3958,-0.85416 3.8542,-0.85416 2.7222,0 4.8194,1.0625 6.2917,3.1875 1.4861,2.125 2.2292,5.0694 2.2292,8.8333 z m -41.021,12.021 h -7.2917 v -2.4375 c -0.47223,0.38889 -1.0139,0.80555 -1.625,1.25 -0.59723,0.44445 -1.125,0.77778 -1.5833,1 -0.58333,0.27778 -1.1597,0.48611 -1.7292,0.625 -0.56944,0.13889 -1.25,0.20833 -2.0417,0.20833 -2.6667,0 -4.7778,-1.1042 -6.3333,-3.3125 -1.5556,-2.2083 -2.3333,-5.1597 -2.3333,-8.8542 0,-2.0417 0.26389,-3.8125 0.79167,-5.3125 0.52778,-1.5 1.257,-2.8056 2.1875,-3.9167 0.84723,-1.0139 1.875,-1.8125 3.0833,-2.3958 1.2083,-0.59722 2.4861,-0.89583 3.8333,-0.89583 1.2222,0 2.2222,0.13194 3,0.39583 0.79167,0.25 1.7083,0.64583 2.75,1.1875 v -9.9583 h 7.2917 z m -7.2917,-6.4583 v -11.479 c -0.36111,-0.18056 -0.83334,-0.32639 -1.4167,-0.4375 -0.58333,-0.125 -1.0833,-0.1875 -1.5,-0.1875 -1.75,0 -3.0694,0.61111 -3.9583,1.8333 -0.875,1.2222 -1.3125,2.9306 -1.3125,5.125 0,2.3056 0.34722,3.9722 1.0417,5 0.70833,1.0278 1.8472,1.5417 3.4167,1.5417 0.63889,0 1.2847,-0.125 1.9375,-0.375 0.6528,-0.25 1.25,-0.59028 1.7917,-1.0208 z m -27.333,7.0833 c -4.4167,0 -7.8056,-1.0556 -10.167,-3.1667 -2.3472,-2.1111 -3.5208,-5.1181 -3.5208,-9.0208 0,-3.8194 1.0972,-6.8681 3.2917,-9.1458 2.1945,-2.2777 5.2639,-3.4167 9.2083,-3.4167 3.5833,0 6.2778,0.96528 8.0833,2.8958 1.8056,1.9306 2.7083,4.6944 2.7083,8.2917 v 2.625 h -15.979 c 0.0694,1.0833 0.29861,1.9931 0.6875,2.7292 0.38889,0.72223 0.90278,1.2986 1.5417,1.7292 0.625,0.43055 1.3542,0.74305 2.1875,0.9375 0.83333,0.18055 1.7431,0.27083 2.7292,0.27083 0.84723,0 1.6806,-0.0903 2.5,-0.27083 0.81945,-0.19445 1.5694,-0.44445 2.25,-0.75 0.59723,-0.26389 1.1458,-0.54861 1.6458,-0.85417 0.51389,-0.30555 0.93055,-0.57639 1.25,-0.8125 h 0.77083 v 6.0208 c -0.59722,0.23611 -1.1458,0.45834 -1.6458,0.66667 -0.48611,0.19444 -1.1597,0.39583 -2.0208,0.60416 -0.79167,0.20833 -1.6111,0.36806 -2.4583,0.47917 -0.83333,0.125 -1.8542,0.1875 -3.0625,0.1875 z m 2.4167,-15.333 c -0.0417,-1.5417 -0.40278,-2.7153 -1.0833,-3.5208 -0.66667,-0.80555 -1.6944,-1.2083 -3.0833,-1.2083 -1.4167,0 -2.5278,0.42361 -3.3333,1.2708 -0.79167,0.84722 -1.2292,2 -1.3125,3.4583 z m -17.188,-1.7917 h -0.60417 c -0.27778,-0.0972 -0.68056,-0.16667 -1.2083,-0.20834 -0.52778,-0.0555 -1.1111,-0.0833 -1.75,-0.0833 -0.76389,0 -1.5694,0.11111 -2.4167,0.33334 -0.83333,0.22222 -1.6458,0.48611 -2.4375,0.79166 v 15.667 h -7.2917 v -23.396 h 7.2917 v 3.3542 c 0.33333,-0.30555 0.79167,-0.6875 1.375,-1.1458 0.59722,-0.47222 1.1389,-0.84722 1.625,-1.125 0.52778,-0.31944 1.1389,-0.59027 1.8333,-0.8125 0.70833,-0.23611 1.375,-0.35416 2,-0.35416 0.23611,0 0.5,0.007 0.79167,0.0208 0.29167,0.0139 0.55556,0.0347 0.79167,0.0625 z m -29.063,17.125 c -4.4167,0 -7.8056,-1.0556 -10.167,-3.1667 -2.3472,-2.1111 -3.5208,-5.1181 -3.5208,-9.0208 0,-3.8194 1.0972,-6.8681 3.2917,-9.1458 2.1945,-2.2777 5.2639,-3.4167 9.2083,-3.4167 3.5833,0 6.2778,0.96528 8.0833,2.8958 1.8056,1.9306 2.7083,4.6944 2.7083,8.2917 v 2.625 h -15.979 c 0.0695,1.0833 0.29861,1.9931 0.6875,2.7292 0.38889,0.72223 0.90278,1.2986 1.5417,1.7292 0.625,0.43055 1.3542,0.74305 2.1875,0.9375 0.83333,0.18055 1.7431,0.27083 2.7292,0.27083 0.84723,0 1.6806,-0.0903 2.5,-0.27083 0.81945,-0.19445 1.5694,-0.44445 2.25,-0.75 0.59722,-0.26389 1.1458,-0.54861 1.6458,-0.85417 0.51389,-0.30555 0.93055,-0.57639 1.25,-0.8125 h 0.77084 v 6.0208 c -0.59723,0.23611 -1.1458,0.45834 -1.6458,0.66667 -0.48611,0.19444 -1.1597,0.39583 -2.0208,0.60416 -0.79167,0.20833 -1.6111,0.36806 -2.4583,0.47917 -0.83333,0.125 -1.8542,0.1875 -3.0625,0.1875 z m 2.4167,-15.333 c -0.0417,-1.5417 -0.40278,-2.7153 -1.0833,-3.5208 -0.66667,-0.80555 -1.6944,-1.2083 -3.0833,-1.2083 -1.4167,0 -2.5278,0.42361 -3.3333,1.2708 -0.79167,0.84722 -1.2292,2 -1.3125,3.4583 z m -17.5,-8.6875 -6.8333,23.396 h -7.75 l -4.1042,-15.125 -4.125,15.125 h -7.75 l -6.7708,-23.396 h 7.6667 l 3.5833,15.479 4.4375,-15.479 h 6.4375 l 4.1875,15.479 3.5208,-15.479 z m -38.729,11.708 c 0,3.8472 -1.0556,6.882 -3.1667,9.1042 -2.0972,2.2083 -5.0694,3.3125 -8.9167,3.3125 -3.8194,0 -6.7917,-1.1042 -8.9167,-3.3125 -2.1111,-2.2222 -3.1667,-5.257 -3.1667,-9.1042 0,-3.8889 1.0556,-6.9306 3.1667,-9.125 2.125,-2.2083 5.0972,-3.3125 8.9167,-3.3125 3.8333,0 6.8056,1.1111 8.9167,3.3333 2.1111,2.2083 3.1667,5.2431 3.1667,9.1042 z m -7.4792,0.0417 c 0,-1.3889 -0.11805,-2.5417 -0.35416,-3.4583 -0.22223,-0.93055 -0.53473,-1.6736 -0.9375,-2.2292 -0.43056,-0.58333 -0.91667,-0.98611 -1.4583,-1.2083 -0.54167,-0.23611 -1.1597,-0.35417 -1.8542,-0.35417 -0.65277,0 -1.243,0.10417 -1.7708,0.3125 -0.52778,0.19445 -1.0139,0.57639 -1.4583,1.1458 -0.41667,0.54167 -0.75,1.2847 -1,2.2292 -0.25,0.94444 -0.375,2.1319 -0.375,3.5625 0,1.4306 0.11806,2.5903 0.35417,3.4792 0.23611,0.875 0.54167,1.5764 0.91667,2.1042 0.38889,0.54167 0.875,0.9375 1.4583,1.1875 0.5833,0.25 1.2292,0.375 1.9375,0.375 0.58333,0 1.1736,-0.125 1.7708,-0.375 0.61111,-0.25 1.0972,-0.625 1.4583,-1.125 0.43056,-0.59723 0.75695,-1.3125 0.97917,-2.1458 0.22222,-0.84722 0.33333,-2.0139 0.33333,-3.5 z m -18.729,-9.5834 c 0,1.4444 -0.22917,2.8194 -0.6875,4.125 -0.45833,1.3056 -1.1181,2.3958 -1.9792,3.2708 -0.52777,0.54167 -1.1111,1.0417 -1.75,1.5 -0.625,0.45833 -1.3194,0.84722 -2.0833,1.1667 -0.76389,0.31944 -1.5972,0.56944 -2.5,0.75 -0.88889,0.18055 -1.8889,0.27083 -3,0.27083 h -4.0833 v 10.146 h -7.7917 v -31.021 h 12.042 c 1.7917,0 3.3333,0.16667 4.625,0.5 1.3056,0.31945 2.4861,0.83334 3.5417,1.5417 1.1667,0.77778 2.0694,1.8194 2.7083,3.125 0.63889,1.2917 0.95833,2.8333 0.95833,4.625 z m -8,0.1875 c 0,-0.875 -0.20833,-1.625 -0.625,-2.25 -0.41667,-0.63889 -0.91667,-1.0764 -1.5,-1.3125 -0.73611,-0.31945 -1.4444,-0.5 -2.125,-0.54167 -0.66667,-0.0555 -1.5764,-0.0833 -2.7292,-0.0833 h -1.1042 v 9.2917 h 0.54166 c 0.73611,0 1.4306,-0.007 2.0833,-0.0208 0.65278,-0.0139 1.2222,-0.0625 1.7083,-0.14584 0.41667,-0.0694 0.85417,-0.20138 1.3125,-0.39583 0.47222,-0.20833 0.83333,-0.4375 1.0833,-0.6875 0.52778,-0.51389 0.88195,-1.0486 1.0625,-1.6042 0.19445,-0.55555 0.29167,-1.3056 0.29167,-2.25 z m 787,-280.21 c -5.623,-5.4513 -9.9916,-11.729 -13.101,-18.833 -3.1144,-7.1039 -4.6691,-14.776 -4.6691,-23.018 v -61.037 c 0,-8.2413 1.5261,-15.839 4.5737,-22.792 3.0428,-6.9536 7.4449,-13.306 13.197,-19.058 5.7518,-5.7518 12.114,-10.151 19.092,-13.199 6.9727,-3.0476 14.561,-4.5714 22.759,-4.5714 h 111.52 c 8.1984,0 15.786,1.5238 22.759,4.5714 6.9775,3.0476 13.34,7.4472 19.092,13.199 5.7518,5.7518 10.154,12.104 13.201,19.058 3.0428,6.9536 4.569,14.551 4.569,22.792 v 61.037 c 0,8.2413 -1.5548,15.914 -4.6691,23.018 -3.1096,7.1039 -7.4783,13.382 -13.101,18.833 -2.7042,2.6183 -5.6468,5.0221 -8.8184,7.2112 -3.1764,2.1891 -6.5387,4.0668 -10.078,5.6335 -3.5436,1.5667 -7.235,2.7796 -11.074,3.638 -3.8441,0.85847 -7.8026,1.2877 -11.88,1.2877 h -111.52 c -4.0778,0 -8.0363,-0.42924 -11.88,-1.2877 -3.8393,-0.85847 -7.5307,-2.0713 -11.074,-3.638 -3.5388,-1.5667 -6.9012,-3.4444 -10.073,-5.6335 -3.1763,-2.1891 -6.119,-4.5928 -8.8232,-7.2112 z m 19.831,-38.696 c 0,2.833 0.62,5.5691 1.8695,8.2089 1.2448,2.6398 2.8854,4.9791 4.9219,7.018 2.0413,2.0389 4.3782,3.6809 7.0204,4.9257 2.6374,1.2448 5.375,1.8672 8.208,1.8672 h 111.52 c 2.8329,0 5.5705,-0.62239 8.2079,-1.8672 2.6422,-1.2448 4.9792,-2.8868 7.0204,-4.9257 2.0365,-2.0389 3.6771,-4.3782 4.9267,-7.018 1.2448,-2.6398 1.8648,-5.3759 1.8648,-8.2089 v -67.347 c 0,-3.0476 -0.5675,-5.913 -1.7074,-8.5952 -1.1351,-2.6832 -2.7042,-5.0221 -4.6978,-7.018 -1.9983,-1.996 -4.3352,-3.5631 -7.0204,-4.7001 -2.6803,-1.138 -5.5466,-1.7064 -8.5942,-1.7064 h -111.52 c -3.0476,0 -5.9139,0.56849 -8.5943,1.7064 -2.6851,1.137 -5.0221,2.7042 -7.0204,4.7001 -1.9935,1.996 -3.5626,4.3348 -4.6977,7.018 -1.1399,2.6822 -1.7074,5.5476 -1.7074,8.5952 z m -279.24,-123.81 h 160.77 c 6.0522,0 11.58,0.7297 16.578,2.1891 5.003,1.4594 9.51,3.4554 13.521,5.9878 4.0157,2.5325 7.5116,5.5371 10.497,9.014 2.9808,3.4768 5.4608,7.2431 7.4353,11.3 1.9745,4.0558 3.4577,8.3052 4.4402,12.748 0.992,4.4431 1.4594,8.9176 1.4213,13.425 0,4.5928 -0.496,9.1427 -1.4833,13.65 -0.9872,4.507 -2.4705,8.7884 -4.4402,12.845 -1.9745,4.0563 -4.4545,7.8016 -7.4401,11.236 -2.9808,3.4339 -6.4672,6.4061 -10.464,8.9171 -3.9871,2.511 -8.4846,4.475 -13.488,5.8915 -4.9982,1.4165 -10.526,2.1247 -16.578,2.1247 h -0.7107 l 57.952,70.953 h -46.682 l -57.947,-70.953 h -96.383 v 70.953 h -37.606 l -0.062,-159.61 c 0,-3.0905 0.49601,-5.902 1.4832,-8.4345 0.98248,-2.5325 2.3894,-4.7111 4.2161,-6.5349 1.8219,-1.8247 4.0014,-3.2302 6.5339,-4.2175 2.5325,-0.98724 5.3464,-1.4809 8.4369,-1.4809 z m 160.06,74.88 c 2.7948,0 5.2367,-0.57947 7.3447,-1.7384 2.0985,-1.1589 3.8584,-2.6827 5.2797,-4.5714 1.4164,-1.8886 2.4752,-4.0458 3.1858,-6.471 0.7059,-2.4252 1.0731,-4.9038 1.0922,-7.4363 0.024,-2.5325 -0.31,-5.0116 -0.9968,-7.4368 -0.6867,-2.4252 -1.7265,-4.5819 -3.1239,-6.4705 -1.3926,-1.8886 -3.1525,-3.4124 -5.2796,-4.5714 -2.1223,-1.1589 -4.6214,-1.7384 -7.5021,-1.7384 h -143.06 v 40.434 z m -443.04,-40.434 v -34.446 h 230.76 v 34.446 h -96.511 v 145.83 h -37.668 v -145.83 z m -262.31,125.17 v -138.94 c 0,-3.0905 0.49362,-5.902 1.4809,-8.4345 0.98725,-2.5325 2.3932,-4.7111 4.217,-6.5354 1.8247,-1.8242 4.0029,-3.2298 6.5354,-4.217 2.5325,-0.98724 5.344,-1.4809 8.4345,-1.4809 h 210.02 v 34.446 h -193.03 v 36.507 h 169.59 v 34.446 h -169.59 v 40.434 h 193.03 v 34.446 h -210.02 c -3.0905,0 -5.902,-0.49362 -8.4345,-1.4809 -2.5325,-0.98724 -4.7106,-2.3932 -6.5354,-4.2175 -1.8238,-1.8242 -3.2298,-4.0024 -4.217,-6.5349 -0.98724,-2.5325 -1.4809,-5.344 -1.4809,-8.4345 z m -241.64,-159.61 h 160.77 c 6.0522,0 11.579,0.7297 16.579,2.1891 5.0011,1.4594 9.5081,3.4554 13.521,5.9878 4.0138,2.5325 7.5121,5.5371 10.495,9.014 2.9837,3.4768 5.4623,7.2431 7.4368,11.299 1.9745,4.0559 3.4554,8.3057 4.4426,12.748 0.98724,4.4426 1.4594,8.9176 1.4165,13.425 0,4.5928 -0.49362,9.1427 -1.4809,13.65 -0.98724,4.507 -2.4681,8.7884 -4.4426,12.845 -1.9745,4.0563 -4.4531,7.8016 -7.4368,11.236 -2.9827,3.4339 -6.4705,6.4061 -10.462,8.9171 -3.9915,2.511 -8.4879,4.475 -13.489,5.8915 -5.0001,1.4165 -10.527,2.1247 -16.579,2.1247 h -0.70824 l 57.947,70.953 h -46.679 l -57.947,-70.953 h -96.385 v 70.953 h -37.601 l -0.06439,-159.61 c 0,-3.0905 0.49362,-5.902 1.4809,-8.4345 0.98724,-2.5325 2.3932,-4.7111 4.217,-6.5354 1.8247,-1.8242 4.0029,-3.2298 6.5354,-4.217 2.5325,-0.98724 5.344,-1.4809 8.4345,-1.4809 z m 160.06,74.88 c 2.79,0 5.2367,-0.57947 7.3399,-1.7384 2.1032,-1.15893 3.8631,-2.6827 5.2796,-4.5714 1.4165,-1.8886 2.4786,-4.0458 3.1868,-6.471 0.70824,-2.4252 1.0736,-4.9038 1.0946,-7.4363 0.0219,-2.5325 -0.31096,-5.0116 -0.99774,-7.4368 -0.68677,-2.4252 -1.7274,-4.5819 -3.1229,-6.4705 -1.3945,-1.8886 -3.1549,-3.4124 -5.2796,-4.5714 -2.1247,-1.159 -4.6248,-1.7384 -7.5007,-1.7384 h -143.06 v 40.434 z"
           fill="url(#linearGradient8947)"
           sodipodi:nodetypes="cccccccccccccscccsccssccssscccsccsccssscccccsccccsscccsscccsscscccccssccscccccscssccccccccccccccccccccccsssccccscssscssccccccsscsscccccsssssccsccccccccscscssccscssssscccccscccccccccssccsccccccsccccccccccssccscssssscccccscccccccccssccscccccccccccccccccscscscscsscccsccssccsscccsscsccscsccccscccccccccsccssccccccccsscscsscscsscccccsscccccscccsscccsscccsscccsscsccccccsccccsccccccccccscccccccsccscccccccccccccsscssccccccccccsscssccscccsscsccscsccccccccccccccssscscssccc"
           style="fill:url(#linearGradient8947);stroke:#000000;stroke-opacity:1" /></g></g></g></svg>
