<?xml version="1.0" encoding="UTF-8" standalone="no"?>
<svg
   viewBox="0 0 1280 800"
   version="1.1"
   id="svg10"
   sodipodi:docname="rd-walpurgis-splash.svg"
   xml:space="preserve"
   inkscape:version="1.4.3 (0d15f75042, 2025-12-25)"
   xmlns:inkscape="http://www.inkscape.org/namespaces/inkscape"
   xmlns:sodipodi="http://sodipodi.sourceforge.net/DTD/sodipodi-0.dtd"
   xmlns="http://www.w3.org/2000/svg"
   xmlns:svg="http://www.w3.org/2000/svg"><defs
     id="defs10"><style
       type="text/css"
       id="style1">.fil5 {fill:#FFED00} .fil4 {fill:#EF7F1A} .fil6 {fill:#EF7F1A} .fil3 {fill:#E31E24} .fil2 {fill:#E31E24} .fil0 {fill:#FCEE5E} .fil1 {fill:#FFED00;fill-opacity:0.501961}</style><mask
       id="dj"><linearGradient
         id="dk"
         x1="9832.2"
         x2="10414"
         y1="27477"
         y2="9613.5"
         gradientUnits="userSpaceOnUse"
         spreadMethod="reflect"><stop
           stop-color="#fff"
           offset="0"
           id="stop1-3" /><stop
           stop-color="#fff"
           stop-opacity="0"
           offset="1"
           id="stop2-6" /></linearGradient><rect
         x="3346"
         y="9442"
         width="13554"
         height="18207"
         fill="url(#dk)"
         id="rect2" /></mask><mask
       id="dw"><linearGradient
         id="eh"
         x1="9601.2"
         x2="10024"
         y1="24784"
         y2="13255"
         gradientUnits="userSpaceOnUse"><stop
           stop-color="#fff"
           offset="0"
           id="stop3-7" /><stop
           stop-color="#fff"
           stop-opacity="-97.886"
           offset=".21176"
           id="stop4-5" /><stop
           stop-color="#fff"
           stop-opacity="0"
           offset="1"
           id="stop5-3" /></linearGradient><rect
         x="3820"
         y="10483"
         width="11985"
         height="17073"
         fill="url(#eh)"
         id="rect5" /></mask><mask
       id="es"><linearGradient
         id="t"
         x1="10135"
         x2="10899"
         y1="24854"
         y2="17253"
         gradientUnits="userSpaceOnUse"
         spreadMethod="reflect"><stop
           stop-color="#fff"
           offset="0"
           id="stop6-5" /><stop
           stop-color="#fff"
           stop-opacity="0"
           offset="1"
           id="stop7" /></linearGradient><rect
         x="5638"
         y="14677"
         width="9758"
         height="12752"
         fill="url(#t)"
         id="rect7" /></mask><mask
       id="i"><linearGradient
         id="cp"
         x1="11008"
         x2="10858"
         y1="22991"
         y2="19109"
         gradientUnits="userSpaceOnUse"><stop
           stop-color="#fff"
           offset="0"
           id="stop8" /><stop
           stop-color="#fff"
           stop-opacity="0"
           offset="1"
           id="stop9" /></linearGradient><rect
         x="4514"
         y="14345"
         width="12837"
         height="13411"
         fill="url(#cp)"
         id="rect9" /></mask><mask
       id="da"><linearGradient
         id="ae"
         x1="9546.9"
         x2="10874"
         y1="26839"
         y2="18022"
         gradientUnits="userSpaceOnUse"><stop
           stop-color="#fff"
           offset="0"
           id="stop10" /><stop
           stop-color="#fff"
           stop-opacity="0"
           offset="1"
           id="stop11" /></linearGradient><rect
         x="7767"
         y="17544"
         width="4887"
         height="9773"
         fill="url(#ae)"
         id="rect11" /></mask><mask
       id="dl"><linearGradient
         id="dm"
         x1="8419.4"
         x2="8350.3"
         y1="27135"
         y2="21063"
         gradientUnits="userSpaceOnUse"><stop
           stop-color="#fff"
           offset="0"
           id="stop12" /><stop
           stop-color="#fff"
           stop-opacity="0"
           offset="1"
           id="stop13" /></linearGradient><rect
         x="6807"
         y="21070"
         width="3155"
         height="6058"
         fill="url(#dm)"
         id="rect13" /></mask><mask
       id="dn"><linearGradient
         id="do"
         x1="9066.8"
         x2="12626"
         y1="26322"
         y2="15665"
         gradientUnits="userSpaceOnUse"><stop
           stop-color="#fff"
           offset="0"
           id="stop14" /><stop
           stop-color="#fff"
           stop-opacity="-97.886"
           offset=".3098"
           id="stop15" /><stop
           stop-color="#fff"
           stop-opacity="0"
           offset="1"
           id="stop16" /></linearGradient><rect
         x="8246"
         y="14445"
         width="5200"
         height="13097"
         fill="url(#do)"
         id="rect16" /></mask><mask
       id="dp"><linearGradient
         id="dq"
         x1="10754"
         x2="16643"
         y1="26915"
         y2="19734"
         gradientUnits="userSpaceOnUse"><stop
           stop-color="#fff"
           offset="0"
           id="stop17" /><stop
           stop-color="#fff"
           stop-opacity="0"
           offset="1"
           id="stop18" /></linearGradient><rect
         x="10903"
         y="19593"
         width="5590"
         height="7463"
         fill="url(#dq)"
         id="rect18" /></mask><mask
       id="dr"><linearGradient
         id="ds"
         x1="9561.8"
         x2="11800"
         y1="27136"
         y2="20293"
         gradientUnits="userSpaceOnUse"><stop
           stop-color="#fff"
           offset="0"
           id="stop19" /><stop
           stop-color="#fff"
           stop-opacity="0"
           offset="1"
           id="stop20" /></linearGradient><rect
         x="8607"
         y="19975"
         width="4146"
         height="7478"
         fill="url(#ds)"
         id="rect20" /></mask><mask
       id="dt"><linearGradient
         id="du"
         x1="6290.8"
         x2="6299.8"
         y1="16346"
         y2="15637"
         gradientUnits="userSpaceOnUse"><stop
           stop-color="#fff"
           offset="0"
           id="stop21" /><stop
           stop-color="#fff"
           stop-opacity="0"
           offset="1"
           id="stop22" /></linearGradient><rect
         x="6045"
         y="15630"
         width="500"
         height="723"
         fill="url(#du)"
         id="rect22" /></mask><mask
       id="dx"><linearGradient
         id="dy"
         x1="7220.8"
         x2="7241.5"
         y1="16224"
         y2="15446"
         gradientUnits="userSpaceOnUse"><stop
           stop-color="#fff"
           offset="0"
           id="stop23" /><stop
           stop-color="#fff"
           stop-opacity="0"
           offset="1"
           id="stop24" /></linearGradient><rect
         x="7095"
         y="15439"
         width="272"
         height="792"
         fill="url(#dy)"
         id="rect24" /></mask><mask
       id="dz"><linearGradient
         id="ea"
         x1="8156.4"
         x2="8258.9"
         y1="14427"
         y2="11758"
         gradientUnits="userSpaceOnUse"><stop
           stop-color="#fff"
           offset="0"
           id="stop25" /><stop
           stop-color="#fff"
           stop-opacity="0"
           offset="1"
           id="stop26" /></linearGradient><rect
         x="7899"
         y="11758"
         width="617"
         height="2670"
         fill="url(#ea)"
         id="rect26" /></mask><mask
       id="eb"><linearGradient
         id="ec"
         x1="13830"
         x2="13984"
         y1="13164"
         y2="8916.7"
         gradientUnits="userSpaceOnUse"><stop
           stop-color="#fff"
           offset="0"
           id="stop27" /><stop
           stop-color="#fff"
           stop-opacity="0"
           offset="1"
           id="stop28" /></linearGradient><rect
         x="13391"
         y="8922"
         width="1033"
         height="4237"
         fill="url(#ec)"
         id="rect28" /></mask><mask
       id="ed"><linearGradient
         id="ee"
         x1="10926"
         x2="11006"
         y1="9960.8"
         y2="7891.6"
         gradientUnits="userSpaceOnUse"><stop
           stop-color="#fff"
           offset="0"
           id="stop29" /><stop
           stop-color="#fff"
           stop-opacity="0"
           offset="1"
           id="stop30" /></linearGradient><rect
         x="10724"
         y="7889"
         width="483"
         height="2074"
         fill="url(#ee)"
         id="rect30" /></mask><mask
       id="ef"><linearGradient
         id="eg"
         x1="12305"
         x2="12339"
         y1="10654"
         y2="9676.9"
         gradientUnits="userSpaceOnUse"><stop
           stop-color="#fff"
           offset="0"
           id="stop31" /><stop
           stop-color="#fff"
           stop-opacity="0"
           offset="1"
           id="stop32" /></linearGradient><rect
         x="12192"
         y="9671"
         width="261"
         height="990"
         fill="url(#eg)"
         id="rect32" /></mask><mask
       id="ei"><linearGradient
         id="ej"
         x1="4655.8"
         x2="4693.4"
         y1="18822"
         y2="17529"
         gradientUnits="userSpaceOnUse"><stop
           stop-color="#fff"
           offset="0"
           id="stop33" /><stop
           stop-color="#fff"
           stop-opacity="0"
           offset="1"
           id="stop34" /></linearGradient><rect
         x="4473"
         y="17524"
         width="403"
         height="1303"
         fill="url(#ej)"
         id="rect34" /></mask><mask
       id="ek"><linearGradient
         id="el"
         x1="15845"
         x2="15896"
         y1="19643"
         y2="17616"
         gradientUnits="userSpaceOnUse"><stop
           stop-color="#fff"
           offset="0"
           id="stop35" /><stop
           stop-color="#fff"
           stop-opacity="0"
           offset="1"
           id="stop36" /></linearGradient><rect
         x="15518"
         y="17614"
         width="706"
         height="2031"
         fill="url(#el)"
         id="rect36" /></mask><mask
       id="em"><linearGradient
         id="en"
         x1="14121"
         x2="14148"
         y1="17513"
         y2="16228"
         gradientUnits="userSpaceOnUse"><stop
           stop-color="#fff"
           offset="0"
           id="stop37" /><stop
           stop-color="#fff"
           stop-opacity="0"
           offset="1"
           id="stop38" /></linearGradient><rect
         x="13865"
         y="16223"
         width="539"
         height="1295"
         fill="url(#en)"
         id="rect38" /></mask><mask
       id="eo"><linearGradient
         id="ep"
         x1="8023.7"
         x2="8101.6"
         y1="9688.6"
         y2="7488.7"
         gradientUnits="userSpaceOnUse"><stop
           stop-color="#fff"
           offset="0"
           id="stop39" /><stop
           stop-color="#fff"
           stop-opacity="0"
           offset="1"
           id="stop40" /></linearGradient><rect
         x="7786"
         y="7487"
         width="554"
         height="2204"
         fill="url(#ep)"
         id="rect40" /></mask><mask
       id="eq"><linearGradient
         id="er"
         x1="6348.5"
         x2="6377.7"
         y1="12224"
         y2="11068"
         gradientUnits="userSpaceOnUse"><stop
           stop-color="#fff"
           offset="0"
           id="stop41" /><stop
           stop-color="#fff"
           stop-opacity="0"
           offset="1"
           id="stop42" /></linearGradient><rect
         x="6156"
         y="11062"
         width="414"
         height="1168"
         fill="url(#er)"
         id="rect42" /></mask><mask
       id="e"><linearGradient
         id="d"
         x1="9819.5"
         x2="9910.6"
         y1="5720.6"
         y2="3238"
         gradientUnits="userSpaceOnUse"><stop
           stop-color="#fff"
           offset="0"
           id="stop43" /><stop
           stop-color="#fff"
           stop-opacity="0"
           offset="1"
           id="stop44" /></linearGradient><rect
         x="9564"
         y="3237"
         width="601"
         height="2485"
         fill="url(#d)"
         id="rect44" /></mask><mask
       id="c"><linearGradient
         id="a"
         x1="16236"
         x2="16256"
         y1="15642"
         y2="15067"
         gradientUnits="userSpaceOnUse"><stop
           stop-color="#fff"
           offset="0"
           id="stop45" /><stop
           stop-color="#fff"
           stop-opacity="0"
           offset="1"
           id="stop46" /></linearGradient><rect
         x="16163"
         y="15059"
         width="165"
         height="591"
         fill="url(#a)"
         id="rect46" /></mask><mask
       id="z"><linearGradient
         id="y"
         x1="15225"
         x2="15238"
         y1="14420"
         y2="13768"
         gradientUnits="userSpaceOnUse"><stop
           stop-color="#fff"
           offset="0"
           id="stop47" /><stop
           stop-color="#fff"
           stop-opacity="0"
           offset="1"
           id="stop48" /></linearGradient><rect
         x="15078"
         y="13761"
         width="307"
         height="666"
         fill="url(#y)"
         id="rect48" /></mask><mask
       id="x"><linearGradient
         id="w"
         x1="13877"
         x2="13886"
         y1="14191"
         y2="13646"
         gradientUnits="userSpaceOnUse"><stop
           stop-color="#fff"
           offset="0"
           id="stop49" /><stop
           stop-color="#fff"
           stop-opacity="0"
           offset="1"
           id="stop50" /></linearGradient><rect
         x="13735"
         y="13638"
         width="293"
         height="561"
         fill="url(#w)"
         id="rect50" /></mask><mask
       id="v"><linearGradient
         id="u"
         x1="5148.3"
         x2="5155.7"
         y1="14465"
         y2="13880"
         gradientUnits="userSpaceOnUse"><stop
           stop-color="#fff"
           offset="0"
           id="stop51" /><stop
           stop-color="#fff"
           stop-opacity="0"
           offset="1"
           id="stop52" /></linearGradient><rect
         x="4944"
         y="13872"
         width="416"
         height="600"
         fill="url(#u)"
         id="rect52" /></mask><mask
       id="s"><linearGradient
         id="r"
         x1="3410"
         x2="3414.1"
         y1="17043"
         y2="16632"
         gradientUnits="userSpaceOnUse"><stop
           stop-color="#fff"
           offset="0"
           id="stop53" /><stop
           stop-color="#fff"
           stop-opacity="0"
           offset="1"
           id="stop54" /></linearGradient><rect
         x="3226"
         y="16624"
         width="372"
         height="427"
         fill="url(#r)"
         id="rect54" /></mask><mask
       id="q"><linearGradient
         id="p"
         x1="3137.3"
         x2="3137.3"
         y1="18309"
         y2="18134"
         gradientUnits="userSpaceOnUse"><stop
           stop-color="#fff"
           offset="0"
           id="stop55" /><stop
           stop-color="#fff"
           stop-opacity="0"
           offset="1"
           id="stop56" /></linearGradient><rect
         x="2852"
         y="18124"
         width="570"
         height="195"
         fill="url(#p)"
         id="rect56" /></mask><mask
       id="o"><linearGradient
         id="n"
         x1="6162.2"
         x2="6171.2"
         y1="16617"
         y2="15906"
         gradientUnits="userSpaceOnUse"><stop
           stop-color="#fff"
           offset="0"
           id="stop57" /><stop
           stop-color="#fff"
           stop-opacity="0"
           offset="1"
           id="stop58" /></linearGradient><rect
         x="5913"
         y="15899"
         width="507"
         height="725"
         fill="url(#n)"
         id="rect58" /></mask><mask
       id="m"><linearGradient
         id="l"
         x1="7105.7"
         x2="7126.1"
         y1="16495"
         y2="15715"
         gradientUnits="userSpaceOnUse"><stop
           stop-color="#fff"
           offset="0"
           id="stop59" /><stop
           stop-color="#fff"
           stop-opacity="0"
           offset="1"
           id="stop60" /></linearGradient><rect
         x="6978"
         y="15708"
         width="276"
         height="794"
         fill="url(#l)"
         id="rect60" /></mask><mask
       id="k"><linearGradient
         id="j"
         x1="8055.6"
         x2="8157.1"
         y1="14694"
         y2="12019"
         gradientUnits="userSpaceOnUse"><stop
           stop-color="#fff"
           offset="0"
           id="stop61" /><stop
           stop-color="#fff"
           stop-opacity="0"
           offset="1"
           id="stop62" /></linearGradient><rect
         x="7793"
         y="12019"
         width="626"
         height="2675"
         fill="url(#j)"
         id="rect62" /></mask><mask
       id="h"><linearGradient
         id="g"
         x1="13811"
         x2="13963"
         y1="13429"
         y2="9172"
         gradientUnits="userSpaceOnUse"><stop
           stop-color="#fff"
           offset="0"
           id="stop63" /><stop
           stop-color="#fff"
           stop-opacity="0"
           offset="1"
           id="stop64" /></linearGradient><rect
         x="13363"
         y="9178"
         width="1048"
         height="4246"
         fill="url(#g)"
         id="rect64" /></mask><mask
       id="f"><linearGradient
         id="aa"
         x1="10864"
         x2="10943"
         y1="10218"
         y2="8144.9"
         gradientUnits="userSpaceOnUse"><stop
           stop-color="#fff"
           offset="0"
           id="stop65" /><stop
           stop-color="#fff"
           stop-opacity="0"
           offset="1"
           id="stop66" /></linearGradient><rect
         x="10659"
         y="8142"
         width="490"
         height="2079"
         fill="url(#aa)"
         id="rect66" /></mask><mask
       id="ab"><linearGradient
         id="ac"
         x1="12262"
         x2="12296"
         y1="10913"
         y2="9933.9"
         gradientUnits="userSpaceOnUse"><stop
           stop-color="#fff"
           offset="0"
           id="stop67" /><stop
           stop-color="#fff"
           stop-opacity="0"
           offset="1"
           id="stop68" /></linearGradient><rect
         x="12147"
         y="9927"
         width="264"
         height="992"
         fill="url(#ac)"
         id="rect68" /></mask><mask
       id="ad"><linearGradient
         id="cm"
         x1="4504.4"
         x2="4541.6"
         y1="19098"
         y2="17802"
         gradientUnits="userSpaceOnUse"><stop
           stop-color="#fff"
           offset="0"
           id="stop69" /><stop
           stop-color="#fff"
           stop-opacity="0"
           offset="1"
           id="stop70" /></linearGradient><rect
         x="4319"
         y="17797"
         width="408"
         height="1306"
         fill="url(#cm)"
         id="rect70" /></mask><mask
       id="cn"><linearGradient
         id="co"
         x1="15853"
         x2="15904"
         y1="19921"
         y2="17890"
         gradientUnits="userSpaceOnUse"><stop
           stop-color="#fff"
           offset="0"
           id="stop71" /><stop
           stop-color="#fff"
           stop-opacity="0"
           offset="1"
           id="stop72" /></linearGradient><rect
         x="15521"
         y="17888"
         width="716"
         height="2035"
         fill="url(#co)"
         id="rect72" /></mask><mask
       id="cq"><linearGradient
         id="cr"
         x1="14104"
         x2="14131"
         y1="17787"
         y2="16498"
         gradientUnits="userSpaceOnUse"><stop
           stop-color="#fff"
           offset="0"
           id="stop73" /><stop
           stop-color="#fff"
           stop-opacity="0"
           offset="1"
           id="stop74" /></linearGradient><rect
         x="13844"
         y="16493"
         width="547"
         height="1298"
         fill="url(#cr)"
         id="rect74" /></mask><mask
       id="cs"><linearGradient
         id="ct"
         x1="7920.7"
         x2="7997.9"
         y1="9945.6"
         y2="7741"
         gradientUnits="userSpaceOnUse"><stop
           stop-color="#fff"
           offset="0"
           id="stop75" /><stop
           stop-color="#fff"
           stop-opacity="0"
           offset="1"
           id="stop76" /></linearGradient><rect
         x="7678"
         y="7739"
         width="562"
         height="2208"
         fill="url(#ct)"
         id="rect76" /></mask><mask
       id="cu"><linearGradient
         id="cv"
         x1="6221.1"
         x2="6250"
         y1="12487"
         y2="11328"
         gradientUnits="userSpaceOnUse"><stop
           stop-color="#fff"
           offset="0"
           id="stop77" /><stop
           stop-color="#fff"
           stop-opacity="0"
           offset="1"
           id="stop78" /></linearGradient><rect
         x="6026"
         y="11322"
         width="420"
         height="1170"
         fill="url(#cv)"
         id="rect78" /></mask><mask
       id="cw"><linearGradient
         id="cx"
         x1="9742.2"
         x2="9832.5"
         y1="5969.4"
         y2="3481.5"
         gradientUnits="userSpaceOnUse"><stop
           stop-color="#fff"
           offset="0"
           id="stop79" /><stop
           stop-color="#fff"
           stop-opacity="0"
           offset="1"
           id="stop80" /></linearGradient><rect
         x="9483"
         y="3481"
         width="610"
         height="2490"
         fill="url(#cx)"
         id="rect80" /></mask><mask
       id="cy"><linearGradient
         id="cz"
         x1="16249"
         x2="16269"
         y1="15911"
         y2="15335"
         gradientUnits="userSpaceOnUse"><stop
           stop-color="#fff"
           offset="0"
           id="stop81" /><stop
           stop-color="#fff"
           stop-opacity="0"
           offset="1"
           id="stop82" /></linearGradient><rect
         x="16176"
         y="15327"
         width="167"
         height="592"
         fill="url(#cz)"
         id="rect82" /></mask><mask
       id="db"><linearGradient
         id="dc"
         x1="15224"
         x2="15237"
         y1="14687"
         y2="14034"
         gradientUnits="userSpaceOnUse"><stop
           stop-color="#fff"
           offset="0"
           id="stop83" /><stop
           stop-color="#fff"
           stop-opacity="0"
           offset="1"
           id="stop84" /></linearGradient><rect
         x="15075"
         y="14027"
         width="311"
         height="668"
         fill="url(#dc)"
         id="rect84" /></mask><mask
       id="dd"><linearGradient
         id="de"
         x1="13856"
         x2="13866"
         y1="14458"
         y2="13911"
         gradientUnits="userSpaceOnUse"><stop
           stop-color="#fff"
           offset="0"
           id="stop85" /><stop
           stop-color="#fff"
           stop-opacity="0"
           offset="1"
           id="stop86" /></linearGradient><rect
         x="13713"
         y="13903"
         width="297"
         height="562"
         fill="url(#de)"
         id="rect86" /></mask><mask
       id="df"><linearGradient
         id="dg"
         x1="5003.4"
         x2="5010.8"
         y1="14732"
         y2="14146"
         gradientUnits="userSpaceOnUse"><stop
           stop-color="#fff"
           offset="0"
           id="stop87" /><stop
           stop-color="#fff"
           stop-opacity="0"
           offset="1"
           id="stop88" /></linearGradient><rect
         x="4796"
         y="14138"
         width="422"
         height="601"
         fill="url(#dg)"
         id="rect88" /></mask><mask
       id="dh"><linearGradient
         id="di"
         x1="3240.4"
         x2="3244.5"
         y1="17315"
         y2="16904"
         gradientUnits="userSpaceOnUse"><stop
           stop-color="#fff"
           offset="0"
           id="stop89" /><stop
           stop-color="#fff"
           stop-opacity="0"
           offset="1"
           id="stop90" /></linearGradient><rect
         x="3054"
         y="16895"
         width="377"
         height="428"
         fill="url(#di)"
         id="rect90" /></mask><mask
       id="dv"><linearGradient
         id="b"
         x1="2963.7"
         x2="2963.7"
         y1="18584"
         y2="18408"
         gradientUnits="userSpaceOnUse"><stop
           stop-color="#fff"
           offset="0"
           id="stop91" /><stop
           stop-color="#fff"
           stop-opacity="0"
           offset="1"
           id="stop92" /></linearGradient><rect
         x="2675"
         y="18398"
         width="577"
         height="196"
         fill="url(#b)"
         id="rect92" /></mask></defs><sodipodi:namedview
     id="namedview10"
     pagecolor="#ffffff"
     bordercolor="#000000"
     borderopacity="0.25"
     inkscape:showpageshadow="2"
     inkscape:pageopacity="0.0"
     inkscape:pagecheckerboard="0"
     inkscape:deskcolor="#d1d1d1"
     inkscape:zoom="1.6972707"
     inkscape:cx="540.86835"
     inkscape:cy="338.77919"
     inkscape:window-width="3840"
     inkscape:window-height="2082"
     inkscape:window-x="0"
     inkscape:window-y="0"
     inkscape:window-maximized="1"
     inkscape:current-layer="DECK" /><linearGradient
     id="_Linear1"
     x1="0"
     y1="0"
     x2="1"
     y2="0"
     gradientUnits="userSpaceOnUse"
     gradientTransform="matrix(282.082,0,0,150,0,75)"><stop
       offset="0"
       style="stop-color:rgb(201,87,230);stop-opacity:1"
       id="stop1" /><stop
       offset="0.01"
       style="stop-color:rgb(201,87,230);stop-opacity:1"
       id="stop2" /><stop
       offset="0.9"
       style="stop-color:rgb(26,159,255);stop-opacity:1"
       id="stop3" /><stop
       offset="1"
       style="stop-color:rgb(26,159,255);stop-opacity:1"
       id="stop4" /></linearGradient><linearGradient
     id="_Linear2"
     x1="0"
     y1="0"
     x2="1"
     y2="0"
     gradientUnits="userSpaceOnUse"
     gradientTransform="matrix(2683.84,0,0,1000,-2.30926e-13,500)"><stop
       offset="0"
       style="stop-color:#f9f544;stop-opacity:1;"
       id="stop5" /><stop
       offset="0.4378075"
       style="stop-color:#df790a;stop-opacity:1;"
       id="stop6" /></linearGradient><g
     id="DECK"
     transform="matrix(0.476929,0,0,0.476929,1.10135e-13,161.536)"><g
       style="clip-rule:evenodd;fill-rule:evenodd;image-rendering:optimizeQuality;shape-rendering:geometricPrecision;text-rendering:geometricPrecision"
       id="g10"
       transform="matrix(0.04553949,0,0,0.04470545,-125.43847,-208.80237)"><path
         class="fil0"
         d="m 9813,13945 c 485,-368 26,-964 26,-1789 0,-100 -329,-544 156,-58 0,-571 -721,-921 52,-2010 1017,-1436 215,-44 732,320 203,143 100,1824 542,1261 350,-445 -134,-854 365,542 201,561 -161,2971 599,1377 108,-225 90,-1273 249,95 43,365 576,233 576,2031 262,21 328,-1477 328,-112 0,788 190,1718 51,2225 -313,1144 955,-617 528,218 -296,581 666,1624 436,2577 -308,1276 359,-66 413,368 102,831 808,-357 1360,2035 190,-171 549,-1185 443,-1708 365,0 372,3547 -706,4510 -1871,1671 -10311,2995 -11874,148 -63,-115 -404,-742 -406,-762 127,9 536,414 225,-247 -298,-635 -126,-711 -465,-1246 -334,-528 410,305 259,45 -112,-195 -280,-1318 -141,-1603 205,-422 327,-1690 327,-2184 286,-184 -164,1884 630,327 11,-22 -37,-824 111,-1225 110,-298 -96,690 118,874 5,4 168,858 225,924 313,361 40,1060 424,1416 175,162 -123,180 104,-230 23,-43 57,-1017 -94,-1205 -370,-462 -107,-1452 -107,-1309 0,759 504,457 741,1088 45,119 704,424 854,424 295,0 -266,-447 -266,-840 0,-14 5,-1110 99,-825 132,402 -213,564 589,923 46,-65 -204,-414 14,-876 137,-288 18,-1196 172,-1394 5,-6 24,-658 118,-771 79,-98 -154,-921 107,-287 53,129 -72,376 285,1043 462,866 326,984 354,-167 11,-441 -441,-1013 -39,-1543 79,-104 87,-1464 254,-1677 4,2 200,450 206,489 131,67 745,-1382 745,-1376 0,619 189,190 281,184 z"
         mask="url(#dj)"
         id="path92" /><path
         class="fil1"
         d="m 5309,25366 c -212,-1359 1697,-1859 1697,-3585 0,632 667,2068 985,235 255,-1463 -585,-1912 -44,-3275 120,24 -110,560 286,940 955,916 87,550 689,-821 439,-1001 -1128,-1644 869,-4305 598,-797 676,-2243 222,-3087 -141,-262 44,-805 258,-975 3,5 -10,843 409,1346 575,691 49,2401 648,3528 332,625 -125,3034 698,920 9,-22 261,-1496 409,-1947 112,-339 93,273 93,567 0,500 -143,1346 115,1744 221,341 -169,2029 308,2842 230,393 -129,1773 654,478 242,-399 53,-1318 235,160 165,1344 -623,1168 194,2676 23,44 -3,923 7,1069 614,294 1378,-1216 907,-2146 -223,-441 1436,420 677,3272 -632,2377 -4224,2282 -4982,2607 -1947,832 -4198,-861 -5481,-729 -805,82 -314,-2204 -906,-2757 -1108,-1039 296,-2768 296,-3746 0,897 849,1706 -214,2719 -149,142 746,2155 971,2270 z"
         id="path93" /><path
         class="fil2"
         d="m 5305,25364 c -211,-1359 1693,-1859 1693,-3584 0,631 665,2067 983,234 253,-1462 -584,-1911 -44,-3274 119,24 -110,560 285,940 952,916 86,550 687,-821 437,-1001 -1125,-1644 867,-4305 596,-797 675,-2242 221,-3086 -140,-262 44,-805 258,-975 2,5 -10,843 408,1346 573,691 48,2401 645,3527 332,625 -124,3034 697,920 9,-22 261,-1496 408,-1947 112,-339 92,273 92,567 0,500 -142,1346 116,1744 220,341 -169,2029 306,2842 230,393 -128,1772 653,478 241,-400 53,-1318 234,160 165,1344 -621,1167 194,2675 23,44 -3,923 7,1069 613,294 1374,-1216 904,-2146 -222,-440 1433,421 676,3272 -1163,4382 -9191,1749 -10436,1877 -803,83 -314,-2203 -904,-2756 -1106,-1039 296,-2768 296,-3746 0,897 846,1706 -215,2720 -148,142 745,2154 969,2269 z"
         mask="url(#dw)"
         id="path94" /><path
         class="fil3"
         d="m 6091,25893 c 0,-941 -657,-1425 -371,-2696 98,-439 -177,-226 216,-886 85,-143 12,90 12,387 0,879 532,-181 532,-476 0,-612 -234,-1116 -225,-1916 3,-306 -760,-1690 -430,-1991 17,-16 -61,801 456,1470 70,92 632,718 686,750 52,-521 -455,-1166 -184,-2302 10,-42 -6,-1410 91,-380 55,590 335,1080 608,1583 346,638 688,78 1232,762 176,221 42,-334 -63,-518 -540,-947 -12,-1551 -256,-2812 -48,-250 273,-1449 273,-876 0,741 404,1633 1026,2035 651,420 468,1217 997,139 236,-482 -331,-1620 530,-2479 339,-339 86,-1583 286,-673 174,793 -148,758 371,1604 269,437 -277,2292 888,1119 60,-60 839,-1643 924,-1883 91,-254 0,-1038 29,520 10,571 -663,838 -216,2234 148,464 24,980 311,1837 241,716 -489,637 113,1912 239,506 -387,1052 925,53 210,-160 843,-1117 352,-224 -899,1633 -269,2073 -412,2344 -163,307 -230,57 -497,715 -200,494 -446,241 -845,1094 -236,502 -632,184 -1306,411 -754,254 -1353,436 -2132,610 -372,84 -1211,98 -1546,-85 -415,-226 -2375,-820 -2375,-1382 z"
         mask="url(#es)"
         id="path95" /><path
         class="fil4"
         d="m 5064,26271 c 212,-20 -471,-729 -466,-1406 5,-550 -252,-1564 166,-1883 9,10 135,598 172,690 155,394 110,66 230,-463 303,-1344 332,-1167 312,-2584 -9,-628 140,-512 5,-1353 -92,-575 490,-1721 309,-1165 -249,758 259,1573 703,2133 6,7 139,-1246 286,-1673 313,-909 -240,-1810 -240,-2222 0,886 742,1257 844,1910 0,2 279,580 260,136 -8,-195 266,-1344 266,-1731 0,-900 -12,-701 254,-1564 84,-271 -45,352 92,734 260,726 682,889 1127,1583 283,443 1607,-262 1859,-724 609,-1116 1323,-1146 1164,-2290 -57,-29 -15,176 -63,409 -183,868 -329,1376 -101,2294 68,275 -40,157 157,512 388,701 -396,539 281,-245 553,-639 2040,-2094 2040,-3014 54,554 -703,1631 -379,3176 98,467 -16,2121 -173,2585 -184,545 1050,-1325 1141,-1484 484,-837 436,-697 299,216 -167,1110 -766,924 -60,2313 164,322 57,1222 92,1636 477,-687 1361,-1409 1684,-1947 129,83 -549,1452 -283,2205 475,1350 -1040,1883 -1641,2802 -593,905 -1223,650 -2016,1222 -1230,885 -1746,637 -3359,625 -357,-2 -572,-165 -1244,-165 -637,0 -3856,-248 -3856,-1041 0,-72 45,-218 138,-227 z"
         mask="url(#i)"
         id="path96" /><path
         class="fil0"
         d="m 8278,27087 c -225,-1305 -487,-413 -487,-2304 0,-1159 -100,-244 233,61 245,226 98,316 125,-378 13,-330 346,-700 319,-1677 0,-6 192,-2028 170,-1201 -4,146 211,881 306,794 659,-599 889,-2295 858,-3163 -7,-183 381,-882 381,-1349 0,701 175,941 148,1494 0,3 113,765 286,23 196,-843 518,-1039 518,-1833 0,1152 -30,2181 424,3248 230,541 -46,78 444,-992 417,-911 -330,601 -169,1180 264,949 211,1072 211,2067 0,782 326,545 411,-100 18,-137 402,-1220 18,62 -3,11 -66,648 -72,700 -51,441 -272,863 -272,1503 0,359 -125,950 383,330 6,108 -689,1409 -1251,1409 -658,0 40,469 -1145,314 -488,-64 -1397,195 -1744,-162 z"
         mask="url(#da)"
         id="path97" /><path
         class="fil3"
         d="m 7389,25872 c -379,-610 0,-1346 0,-2019 0,46 287,1204 231,192 -31,-559 297,-549 97,-1646 -58,-318 -74,-1159 102,-213 2,6 476,1468 480,1473 4,-5 464,-1423 550,-1614 221,-488 212,-450 212,-965 0,694 -124,1440 17,2118 76,359 -3,369 166,896 150,467 325,1655 325,1648 0,-318 543,-1474 337,-424 -39,199 -145,308 -215,740 -52,316 -301,823 -641,818 -611,-8 -793,505 -1300,60 -18,-16 -324,152 -770,-558 -86,-137 -163,-515 -163,-687 130,991 1343,1426 572,181 z"
         mask="url(#dl)"
         id="path98" /><path
         class="fil5"
         d="m 8373,27113 c -280,-303 19,-2962 122,-2560 241,946 444,-1034 538,-1181 126,-200 536,-1410 536,-1637 0,-1049 35,1330 259,-23 134,-806 519,-850 519,-1990 0,-849 301,-1138 301,-2156 0,-609 88,-1222 322,-1767 -58,-48 17,1543 165,1637 38,-611 501,-1200 424,-2314 -4,-60 211,-1076 211,-480 0,732 -1,1335 -21,2067 -8,306 261,1513 254,1399 0,-4 224,-638 249,-758 160,-769 29,870 84,1095 25,101 383,1514 387,1518 170,-32 296,-903 296,-79 0,401 -81,2121 53,2351 177,306 -343,1153 347,291 72,-89 -104,872 -104,1193 0,701 -244,1076 -292,1895 -86,1451 -1740,1919 -2904,1919 -471,0 -1402,-48 -1746,-420 z"
         mask="url(#dn)"
         id="path99" /><path
         class="fil4"
         d="m 10913,26612 c 708,-917 713,-1767 1249,-2825 36,-72 413,-2015 413,-1047 0,1340 -89,873 559,-261 151,-263 562,-1227 562,-1559 0,-1263 192,-598 -35,328 -35,145 -142,2079 -72,2076 259,-13 1100,-1769 1206,-2091 407,-1227 677,-1192 1683,-1630 59,73 -403,165 -409,525 -2,138 -211,816 -92,1197 77,247 -244,83 -227,706 6,249 -296,731 -231,945 362,-256 -39,250 -64,764 -13,259 -1596,1528 -1649,1718 -316,1138 -419,158 -123,348 108,69 166,351 -89,504 -837,504 -1009,671 -2062,736 -328,20 -283,-684 -619,-434 z"
         mask="url(#dp)"
         id="path100" /><path
         class="fil3"
         d="m 9020,25289 c -651,-1361 -480,-951 281,-19 197,241 77,-219 77,-581 0,-822 466,-1236 466,-2288 0,152 141,1567 245,1655 164,-276 708,-1699 708,-2071 0,-1036 201,-1179 448,-2000 -338,774 -9,2191 -152,2700 -12,41 911,-1347 931,-1501 92,-676 168,-190 9,245 -356,971 12,2422 -72,2611 -171,382 1360,-1050 540,120 -434,619 -119,1011 -408,1872 -170,508 85,438 -640,924 -2272,1519 -2080,-930 -2433,-1667 z"
         mask="url(#dr)"
         id="path101" /><path
         class="fil6"
         d="m 6534,16184 c -6,-91 -29,-104 -87,-177 -88,-110 -237,-329 -360,-361 -93,-24 48,23 60,126 24,212 -29,183 84,422 55,115 151,169 270,142 38,-9 35,-122 33,-152 z"
         mask="url(#dt)"
         id="path102" /><path
         class="fil6"
         d="m 7292,16221 c 36,-92 96,-340 46,-428 -79,-138 -126,-172 -130,-340 -1,-32 -42,129 -59,159 -120,217 35,376 124,549 14,27 30,31 19,60 z"
         mask="url(#dx)"
         id="path103" /><path
         class="fil6"
         d="m 8086,14417 c 892,-990 87,-1586 87,-2597 0,-260 -57,522 -164,691 -264,421 93,1048 -51,1514 -12,41 -53,392 128,392 z"
         mask="url(#dz)"
         id="path104" /><path
         class="fil6"
         d="m 13401,13093 c 7,-1689 960,-2460 667,-3571 -36,-139 20,-1093 71,-238 9,160 178,598 213,951 39,386 113,81 7,712 -167,997 185,1039 -598,1849 -81,84 -243,502 -360,297 z"
         mask="url(#eb)"
         id="path105" /><path
         class="fil6"
         d="m 10904,9940 c 144,121 231,-628 138,-888 -114,-320 -54,-899 155,-1151 -65,-30 -361,353 -357,662 6,369 -99,627 -106,980 -1,78 121,356 170,397 z"
         mask="url(#ed)"
         id="path106" /><path
         class="fil6"
         d="m 12422,10650 c 83,-531 -120,-616 -101,-945 8,-130 -36,291 -110,408 -64,103 224,455 211,537 z"
         mask="url(#ef)"
         id="path107" /><path
         class="fil6"
         d="m 4808,18680 c 131,-700 0,-1466 0,-1007 0,59 -636,1201 -127,1142 92,-11 112,-56 127,-135 z"
         mask="url(#ei)"
         id="path108" /><path
         class="fil6"
         d="m 15528,19635 c 246,-745 -255,12 450,-876 121,-152 133,-1527 133,-1025 0,656 301,1291 -127,1722 -160,161 -227,179 -456,179 z"
         mask="url(#ek)"
         id="path109" /><path
         class="fil6"
         d="m 13974,17508 c -331,-493 274,-426 274,-1275 22,0 451,983 -274,1275 z"
         mask="url(#em)"
         id="path110" /><path
         class="fil6"
         d="m 8208,9681 c 363,-650 -200,-1213 -200,-1960 0,-743 -347,558 -154,1029 75,182 -75,750 354,931 z"
         mask="url(#eo)"
         id="path111" /><path
         class="fil6"
         d="m 6516,12219 c 183,-390 -265,-616 -265,-1147 0,302 -259,905 127,983 53,11 132,177 138,164 z"
         mask="url(#eq)"
         id="path112" /><path
         class="fil6"
         d="m 9924,5712 c 67,-709 396,-773 129,-1254 -130,-234 -288,-1389 -288,-1188 0,536 -191,515 -191,1361 0,663 373,835 350,1081 z"
         mask="url(#e)"
         id="path113" /><path
         class="fil6"
         d="m 16186,15640 c 338,-45 -89,-1262 0,0 z"
         mask="url(#c)"
         id="path114" /><path
         class="fil6"
         d="m 15088,14417 c 554,-245 144,-1201 94,-195 -6,110 13,148 -94,195 z"
         mask="url(#z)"
         id="path115" /><path
         class="fil6"
         d="m 13907,14189 c 402,-457 -451,-876 -53,-141 53,99 50,144 53,141 z"
         mask="url(#x)"
         id="path116" /><path
         class="fil6"
         d="m 5350,13919 c -413,-53 -546,-126 -192,418 257,395 153,-259 2,-359 z"
         mask="url(#v)"
         id="path117" /><path
         class="fil6"
         d="m 3532,16870 c 130,267 -445,-480 -258,-151 76,135 454,555 258,151 z"
         mask="url(#s)"
         id="path118" /><path
         class="fil6"
         d="m 3412,18175 c -52,-1 -928,-146 -357,114 60,27 302,54 357,-114 z"
         mask="url(#q)"
         id="path119" /><path
         class="fil0"
         d="m 6409,16455 c -6,-91 -29,-105 -88,-177 -90,-111 -241,-331 -366,-363 -94,-24 49,23 61,127 24,212 -30,183 86,423 56,115 152,169 273,142 39,-9 36,-122 34,-152 z"
         mask="url(#o)"
         id="path120" /><path
         class="fil0"
         d="m 7178,16492 c 36,-93 97,-341 46,-429 -79,-138 -127,-172 -132,-340 -1,-33 -42,129 -59,159 -122,217 35,377 125,549 14,28 31,32 20,61 z"
         mask="url(#m)"
         id="path121" /><path
         class="fil0"
         d="m 7982,14684 c 906,-992 89,-1590 89,-2602 0,-262 -58,522 -166,692 -268,421 95,1050 -52,1517 -13,41 -53,393 129,393 z"
         mask="url(#k)"
         id="path122" /><path
         class="fil0"
         d="m 13373,13357 c 8,-1692 974,-2465 678,-3578 -37,-140 20,-1095 71,-239 9,161 181,599 216,953 39,387 115,81 8,713 -170,1000 187,1041 -607,1854 -82,84 -246,503 -366,297 z"
         mask="url(#h)"
         id="path123" /><path
         class="fil0"
         d="m 10841,10198 c 146,121 235,-629 140,-890 -116,-321 -55,-901 158,-1154 -66,-29 -367,354 -363,663 6,370 -100,629 -107,982 -1,79 122,358 172,399 z"
         mask="url(#f)"
         id="path124" /><path
         class="fil0"
         d="m 12381,10909 c 83,-532 -122,-618 -103,-947 8,-131 -37,292 -111,409 -66,103 227,456 214,538 z"
         mask="url(#ab)"
         id="path125" /><path
         class="fil0"
         d="m 4658,18956 c 133,-702 0,-1470 0,-1009 0,59 -645,1204 -129,1144 93,-11 114,-56 129,-135 z"
         mask="url(#ad)"
         id="path126" /><path
         class="fil0"
         d="m 15531,19913 c 250,-747 -259,12 457,-878 123,-152 134,-1530 134,-1027 0,657 306,1293 -129,1725 -161,161 -230,180 -462,180 z"
         mask="url(#cn)"
         id="path127" /><path
         class="fil0"
         d="m 13955,17781 c -336,-493 278,-427 278,-1278 22,0 458,986 -278,1278 z"
         mask="url(#cq)"
         id="path128" /><path
         class="fil0"
         d="m 8106,9937 c 369,-650 -202,-1215 -202,-1963 0,-744 -352,559 -156,1031 76,182 -77,752 358,932 z"
         mask="url(#cs)"
         id="path129" /><path
         class="fil0"
         d="m 6391,12481 c 185,-391 -269,-617 -269,-1149 0,303 -263,907 129,985 53,11 134,177 140,164 z"
         mask="url(#cu)"
         id="path130" /><path
         class="fil0"
         d="m 9847,5960 c 68,-709 402,-774 131,-1256 -132,-234 -292,-1392 -292,-1190 0,536 -193,515 -193,1363 0,664 377,837 354,1083 z"
         mask="url(#cw)"
         id="path131" /><path
         class="fil0"
         d="m 16198,15909 c 343,-45 -90,-1264 0,0 z"
         mask="url(#cy)"
         id="path132" /><path
         class="fil0"
         d="m 15085,14684 c 561,-245 146,-1204 95,-195 -6,110 14,148 -95,195 z"
         mask="url(#db)"
         id="path133" /><path
         class="fil0"
         d="m 13887,14455 c 408,-458 -458,-878 -54,-141 54,99 51,145 54,141 z"
         mask="url(#dd)"
         id="path134" /><path
         class="fil0"
         d="m 5208,14184 c -419,-53 -553,-126 -195,419 260,396 156,-258 2,-359 z"
         mask="url(#df)"
         id="path135" /><path
         class="fil0"
         d="m 3365,17142 c 130,267 -452,-481 -263,-151 78,135 461,555 263,151 z"
         mask="url(#dh)"
         id="path136" /><path
         class="fil0"
         d="m 3242,18450 c -52,-1 -941,-147 -362,114 61,27 307,54 362,-114 z"
         mask="url(#dv)"
         id="path137" /></g><path
       d="m 1953.3258,-219.94259 c 36.4995,-0.44877 14.828,-63.11472 44.155,-68.03964 11.6358,-1.95231 16.2171,4.21148 25.5623,8.77969 0.5522,9.29748 -6.7784,11.15775 -9.2966,17.55935 8.3624,6.79668 14.6698,-2.39723 23.2432,-2.19396 2.8836,15.42293 -21.6187,12.1128 -27.8853,6.58572 -4.7355,-8.14298 1.8033,-12.85307 4.6463,-19.75332 -32.7143,-13.9769 -20.3068,19.59605 -25.5622,37.31268 -7.8505,26.46177 -51.7051,41.54717 -55.7746,4.39176 -2.4895,-22.74509 30.1433,-50.30002 4.6502,-63.65172 -19.4376,14.65965 -30.0825,39.288 -41.832,61.45391 -20.7413,39.13843 -43.0503,87.85817 -67.398,125.10564 1.6934,10.83939 14.6694,11.02349 18.5928,19.753306 2.2703,10.19118 -13.8899,2.976428 -11.6195,13.171429 13.1992,2.489305 27.1217,-5.13203 34.8586,-13.171429 4.313,-4.479976 3.3506,-10.310076 6.9733,-15.365386 13.4147,-18.72155 32.5558,-24.287 60.4248,-32.92092 6.6607,-15.5265 25.0059,-22.04317 44.1552,-19.75333 8.1104,-3.31396 9.3329,-13.13307 13.9466,-19.75331 10.5392,-9.06735 29.254,-10.41364 39.5089,-19.75332 -1.7058,-8.01641 -11.579,-10.70516 -2.3232,-17.55935 13.5488,-1.82191 11.8714,10.73582 11.6196,21.95111 -12.0296,11.31884 -33.9286,13.32102 -41.832,28.53299 6.2952,3.38301 10.5231,-0.007 18.5888,4.38792 7.5786,-4.54902 6.2993,-17.46346 13.9468,-21.94728 27.6984,-0.90903 27.6903,-27.98834 37.1857,-46.09234 16.668,4.95559 -3.0257,36.17734 -9.2965,41.70058 -7.7409,6.81969 -17.289,7.84763 -23.243,8.77969 -3.6511,11.91335 -9.1259,22.10837 -18.593,28.53299 -8.2283,1.18903 -5.7102,-7.77091 -13.9426,-6.58572 -11.989,11.35722 -17.9674,28.39108 -44.159,26.33904 -7.2008,18.80208 -41.9051,11.63335 -58.1018,21.95111 -1.0965,37.090215 -41.832,48.167422 -76.6905,46.092371 22.5607,36.737324 73.0027,8.123781 99.9336,-8.779687 5.6696,-3.559435 12.2695,-5.220242 18.5929,-8.779685 11.3597,-6.393944 21.054,-16.657989 32.5354,-21.951119 27.9788,-12.88759 91.3035,-22.88316 127.8232,-4.39174 -7.481,23.320424 -53.5044,-1.75671 -62.748,17.559352 14.4706,9.213102 33.0148,0.705742 48.8054,2.193956 24.8596,2.343546 50.1049,15.119913 83.668,13.167609 9.3938,3.563265 12.1151,13.428413 25.5622,13.17143 4.8247,18.123185 39.0619,8.468995 37.1856,32.920916 -26.4394,2.872855 -46.6486,-16.899625 -72.0443,-17.559352 -8.3379,-0.214797 -17.013,4.974769 -25.5662,4.391744 -11.2988,-0.774781 -21.4401,-9.642679 -32.5356,-10.973623 -31.2967,-3.7589 -56.3025,17.870042 -88.3142,17.559352 -12.9923,-0.126587 -26.7115,-9.88433 -39.5088,-2.193966 8.9471,19.350575 48.9231,9.397206 72.0444,15.361573 8.5978,-1.53808 5.7957,7.694195 9.2963,10.973624 14.6372,-1.388482 22.1264,3.9775176 23.2391,15.3615632 2.7699,9.1977608 -9.7958,3.9161507 -11.6155,8.7796758 12.099,17.099095 48.3141,11.437754 53.4516,35.118713 -18.9544,9.086537 -39.1148,-5.738041 -58.1016,-6.585721 -5.6128,-0.24932 -13.0819,2.796146 -18.5929,2.193959 -18.7432,-2.040535 -33.7906,-11.982397 -46.4782,-19.753312 -35.1146,-4.495313 -64.7788,6.20984 -92.9645,0 -22.6299,-4.986267 -35.6952,-29.0661495 -55.7745,-32.9209124 -5.6008,14.5752515 9.8732,26.8836884 23.243,30.7269494 19.328,21.981799 45.873,37.151576 69.7213,54.872038 2.7131,9.140224 8.5411,15.346214 11.6154,24.141232 2.5748,11.94021 -7.8913,11.56817 -6.9691,21.94729 39.9555,1.00491 101.4891,-1.22739 137.1154,0 3.0824,3.67449 6.161,7.35284 4.6502,15.36538 -1.9048,-23.49301 23.7102,-28.59053 46.4782,-21.94727 4.0127,1.33096 -0.1782,10.4098 4.6503,10.97366 7.5052,1.96381 3.2694,-7.15725 6.9734,-8.77969 7.9927,0.96272 13.0245,-0.86685 18.5928,-2.19397 5.7021,1.9293 13.4025,1.97533 13.9466,8.77966 7.0425,0.069 2.2501,-11.04267 9.2925,-10.97361 23.7913,-4.56436 45.605,-7.09969 62.7478,-17.559378 10.4501,-6.370925 16.5664,-21.851377 30.2125,-17.559345 8.2485,-0.425757 3.2693,8.956118 4.6502,13.167608 2.5751,7.870621 7.7776,14.475515 9.2965,26.339035 0.3494,5.45038 -1.202,9.10953 -4.6502,10.97364 10.6408,9.49694 -0.5889,13.92704 4.6502,28.53299 2.0349,7.04598 -6.0271,4.55286 -6.9733,8.77967 -1.5027,8.73366 6.1488,8.82187 4.6502,17.55937 -25.3997,18.49907 -39.9272,-14.76704 -76.6947,-26.33904 -6.632,-2.08661 -13.2764,-0.62137 -18.5928,-2.19399 -11.7293,-3.47122 -20.4409,-8.6953 -41.832,-4.39177 -5.6413,-2.72326 -10.8194,-5.87614 -13.9467,-10.97364 -6.3803,14.82842 -44.35,14.37965 -53.4515,2.19396 -93.5656,-0.24545 -182.5864,0.85535 -264.9386,-2.19396 9.2722,20.50511 36.6984,23.86892 46.4824,43.89456 23.6979,9.53147 50.3242,14.76705 72.0443,24.14508 28.4782,12.29308 47.1443,32.78282 60.4248,61.45391 7.542,-1.27342 10.8114,1.49588 16.2658,2.194 16.018,30.96092 84.4274,12.44651 109.2302,35.11488 5.9947,-0.52932 -3.1882,-3.77427 0,-8.77969 10.6854,6.38243 12.7039,18.49908 20.9159,26.33904 8.1919,7.81311 21.3791,10.46351 30.2124,17.55557 4.6829,3.7626 22.4511,22.48806 25.5623,28.53291 15.628,30.38563 1.194,73.88892 -25.5623,87.79299 -15.0756,7.83224 -43.4809,12.51556 -72.0443,10.97364 -60.3314,-3.25261 -116.2807,-44.56962 -190.571,-48.28629 -46.2101,-2.31283 -96.1121,11.46077 -132.4692,21.95109 -30.5455,8.81042 -53.0252,18.97465 -76.6906,37.31265 -6.2504,9.45859 -16.0546,15.56491 -27.8893,19.74947 -6.3845,-17.76644 18.6822,-24.7664 23.239,-39.50656 22.7396,-10.71663 45.5969,-21.32207 67.3982,-32.92093 30.513,-6.39009 62.5447,-16.93797 95.2834,-19.75337 14.7225,-1.26567 29.1688,3.29482 41.8319,-4.39172 20.0104,7.57142 34.2658,2.3781 53.4516,4.39172 7.5542,0.79398 16.8019,5.50417 25.5664,6.58573 31.7394,3.91612 52.4157,11.96706 88.3101,19.75337 23.8523,5.17418 59.9334,24.49406 92.9643,13.16756 17.342,-5.94518 26.0579,-27.63927 23.2391,-50.4803 -3.0541,-24.77406 -34.9195,-58.76131 -62.7479,-70.23356 -14.7508,-6.08326 -31.4349,-3.34848 -41.8319,-13.17144 -7.4609,-1.92547 -4.8209,5.68817 -9.2965,6.58571 -53.5693,-5.30463 -95.7749,-14.46786 -123.1728,-41.70443 -14.4015,-14.31443 -28.9616,-31.98502 -51.1283,-41.70058 -0.4266,20.37083 38.3878,22.11986 44.159,43.89454 -16.1724,-4.77532 -32.4096,-15.72976 -51.1286,-19.74949 -16.0137,-3.44436 -34.2209,-2.1556 -48.8052,-6.5857 -23.2676,-7.06517 -36.004,-23.12481 -55.7745,-30.7308 -4.0452,-14.46404 -17.4233,-20.12537 -20.9161,-35.11488 -22.7639,-7.76325 -38.3147,-22.34618 -44.159,-46.09234 -33.0067,1.84108 -61.7693,0.32218 -92.9605,0 -81.4017,-0.84 -170.4346,6.32105 -262.6153,-2.19397 -2.5465,-5.90681 -0.4346,-11.25748 2.323,-17.55937 23.0848,3.55176 40.2806,-0.12659 65.071,0 27.922,-16.06346 54.9462,-32.974604 72.0445,-59.259951 -6.5712,-11.353354 -31.9912,-4.905721 -34.8588,-19.753304 -6.4493,0.494789 -6.5752,6.957767 -11.6192,8.77968 -7.534,-0.932049 -4.6259,-11.729259 -9.2966,-15.365409 5.9824,-5.998863 22.3252,-0.230125 25.5662,-13.167584 -0.2356,-10.75119 -16.1519,-6.696951 -11.6196,-21.9472906 12.2046,-1.28492804 10.5068,10.5593976 16.2659,15.3615646 18.2679,3.352317 12.5375,-15.9637337 27.8893,-15.3615646 1.3809,13.6240386 2.1526,21.5675606 13.9427,21.9472906 15.1,0.487105 18.5278,-20.7083995 18.5927,-30.7269564 17.7481,-3.5977896 33.3478,-5.8569646 48.8053,-6.5857286 -9.536,-12.94512 -11.4001,-33.131874 -18.5928,-48.286302 6.3477,-9.427901 1.9414,-20.056339 4.6502,-28.533004 4.5001,-14.088151 16.1155,-23.608101 23.2392,-37.312671 1.0316,-4.15012 -3.1599,-13.22898 4.6502,-10.97364 -2.1362,-5.79175 -4.9061,-9.07118 -4.6502,-15.36541 0.2029,-5.01694 7.6638,-13.93089 11.6194,-19.7533 0.2234,-0.32603 1.8155,-8.37695 2.3231,-8.77969 4.4311,-3.52107 16.5176,-2.006 18.5928,-4.39175 5.3732,23.93412 3.3021,55.77723 -9.2963,79.01327 -4.4148,8.15064 -3.8379,17.152787 -11.6196,24.14508 0.8976,9.20159 8.1959,20.543442 0,32.920917 6.5512,16.151697 5.1296,30.04422 2.3231,48.2863101 -0.3329,2.15177126 2.3677,6.3862732 2.3232,6.5818795 -2.4369,11.2574794 -11.4043,15.7221014 -13.9468,26.3390324 -1.5188,6.344069 0.6742,13.881018 0,19.753312 -3.7687,32.924755 -29.002,44.366336 -44.155,70.233599 26.7685,10.84324 24.7581,-4.84819 41.8319,-17.55935 6.4293,-4.783003 15.4657,-5.887647 18.5929,-8.779689 9.2966,-8.59174 12.2939,-23.57356 25.5621,-30.726952 6.2181,-3.352323 15.8151,-5.78791 23.2392,-8.779689 17.3947,-7.007627 41.4786,-15.426756 58.1017,-30.72696 10.1209,-9.320472 12.0785,-19.9642609 25.5623,-26.3390331 1.5636,-10.9621199 7.0708,-18.1998939 9.2964,-28.5329729 10.5352,-6.148462 18.0487,-15.146766 23.2391,-26.339037 -8.6264,-7.04984 -8.6912,8.04324 -20.9161,4.387922 -6.758,-6.785175 -10.7179,-16.216917 -20.9158,-19.753329 -14.3733,2.895878 -26.212,18.633314 -44.1591,10.973644 3.2611,-20.332485 27.544,-20.811948 44.1591,-28.532995 -0.6825,-14.717179 -27.654,-4.614232 -30.2125,-17.559349 6.6404,-14.21473 35.1023,-7.81696 48.8053,-15.36157 58.378,-58.23586 107.3255,-125.40864 162.6696,-186.54036 11.8713,6.81969 23.4868,11.1539 25.5621,21.94727 3.8623,20.07168 -31.8614,50.50712 -4.6422,68.03964 z m 4.6422,79.01711 c 5.0441,-4.01588 19.0355,0.41425 23.2431,-4.39177 -8.6589,-1.63012 -20.985,-5.06681 -23.2431,4.39177 z M 1851.0649,71.969246 c -17.4678,-16.431695 -38.6845,-40.208549 -62.748,-32.920928 -21.586,6.539702 -40.244,51.531246 -69.7213,50.484115 -1.0315,7.069008 -4.4512,11.890347 -4.6502,19.753327 7.2496,3.39449 8.3218,12.62677 20.9159,10.97363 4.427,-34.689119 40.6666,-48.305481 83.668,-43.89454 19.6733,2.017522 37.9412,16.174691 53.4515,8.779664 -2.6966,-8.430639 -10.6975,-11.848143 -20.9159,-13.175268 z M 1569.8607,39.048318 c -9.0894,16.293616 -20.392,30.492994 -39.5088,37.31269 -9.5158,22.468908 -38.1931,26.849172 -48.8055,48.286292 16.2253,-2.23613 34.3876,-2.63887 53.4515,-2.19399 23.495,-18.51825 65.9686,-47.672605 48.8055,-83.405016 h -13.9427 z m 146.4119,26.339041 c -12.9354,14.126512 -40.4959,14.429519 -58.1018,24.145074 1.3443,17.363737 -13.5649,19.381277 -16.2699,32.920917 9.325,3.34847 21.5578,-4.23833 27.8894,-8.77966 17.9552,-12.87227 31.7883,-33.841467 51.1285,-43.898411 -0.26,-2.677278 -0.6946,-5.193375 -4.6462,-4.38792 z m -104.58,57.065991 c 8.7726,4.37643 18.467,1.10466 16.2699,-10.97363 -8.3014,0.93588 -12.7568,5.51174 -16.2699,10.97363 z m 72.0443,0 c 8.3422,-1.81808 11.2459,4.95177 16.2659,0 0.7068,-11.3265 -16.2292,-10.3446 -16.2659,0 z m 199.8635,89.98693 c 3.3223,-6.63559 1.9333,-12.66897 -6.9692,-13.17145 1.8032,4.88271 1.3401,11.90186 6.9692,13.17145 z m 20.916,24.14123 c -1.3607,-8.95611 -5.0929,-15.67224 -13.9426,-17.55935 -5.2067,7.63666 6.3276,15.07005 13.9426,17.55935 z"
       fill="#ff7f00"
       fill-rule="evenodd"
       id="path1"
       style="stroke-width:3.94687;fill:#ff0000;fill-opacity:1" /><path
       d="M1650,476.924L1728.84,476.924L1728.84,681.584L1999.38,476.789L2117.24,476.789L1953.35,600.854L2133.97,855.059L2036.91,854.789L1890.57,648.509L1728.84,771.089L1728.84,854.924L1650,854.924L1650,476.924ZM1137.26,514.319C1149.32,502.259 1162.66,493.034 1177.29,486.644C1191.91,480.254 1207.82,477.059 1225.01,477.059L1585.19,477.059L1585.19,549.284L1225.01,549.284C1218.62,549.284 1212.61,550.476 1206.99,552.861C1201.36,555.246 1196.46,558.531 1192.27,562.716C1188.09,566.901 1184.8,571.806 1182.42,577.431C1180.03,583.056 1178.84,589.064 1178.84,595.454L1178.84,736.664C1178.84,742.604 1180.14,748.341 1182.76,753.876C1185.37,759.411 1188.81,764.316 1193.08,768.591C1197.36,772.866 1202.26,776.309 1207.8,778.919C1213.33,781.529 1219.07,782.834 1225.01,782.834L1585.19,782.834L1585.19,855.059L1225.01,855.059C1216.46,855.059 1208.16,854.159 1200.1,852.359C1192.05,850.559 1184.31,848.016 1176.88,844.731C1169.46,841.446 1162.41,837.509 1155.76,832.919C1149.1,828.329 1142.93,823.289 1137.26,817.799C1125.47,806.369 1116.31,793.206 1109.79,778.311C1103.26,763.416 1100,747.329 1100,730.049L1100,602.069C1100,584.789 1103.19,568.859 1109.59,554.279C1115.98,539.699 1125.2,526.379 1137.26,514.319ZM550,811.724L550,520.394C550,513.914 551.035,508.019 553.105,502.709C555.175,497.399 558.123,492.831 561.947,489.006C565.773,485.181 570.34,482.234 575.65,480.164C580.96,478.094 586.855,477.059 593.335,477.059L1033.7,477.059L1033.7,549.284L628.975,549.284L628.975,625.829L984.565,625.829L984.565,698.054L628.975,698.054L628.975,782.834L1033.7,782.834L1033.7,855.059L593.335,855.059C586.855,855.059 580.96,854.024 575.65,851.954C570.34,849.884 565.773,846.936 561.947,843.111C558.123,839.286 555.175,834.719 553.105,829.409C551.035,824.099 550,818.204 550,811.724ZM447.93,962.74C435.87,974.8 422.527,984.025 407.902,990.415C393.277,996.805 377.37,1000 360.18,1000L78.975,1000L78.975,927.775L360.18,927.775C366.57,927.775 372.577,926.583 378.202,924.197C383.827,921.813 388.732,918.527 392.917,914.342C397.102,910.157 400.387,905.253 402.772,899.627C405.157,894.003 406.35,887.995 406.35,881.605L406.35,595.454C406.35,589.514 405.045,583.776 402.435,578.241C399.825,572.706 396.382,567.801 392.107,563.526C387.832,559.251 382.927,555.809 377.392,553.199C371.857,550.589 366.12,549.284 360.18,549.284L78.975,549.284L78.975,477.059L360.18,477.059C368.73,477.059 377.032,477.959 385.087,479.759C393.142,481.559 400.882,484.101 408.307,487.386C415.732,490.671 422.775,494.609 429.435,499.199C436.095,503.789 442.26,508.829 447.93,514.319C459.72,525.749 468.877,538.911 475.402,553.806C481.927,568.701 485.19,584.789 485.19,602.069L485.19,874.99C485.19,892.27 481.995,908.2 475.605,922.78C469.215,937.36 459.99,950.68 447.93,962.74Z"
       style="fill:white;"
       id="path8" /></g><g
     id="RETRO"
     transform="matrix(0.476929,0,0,0.476929,1.10135e-13,161.536)"><path
       d="M603.159,933.621C603.159,936.837 602.649,939.898 601.628,942.805C600.608,945.712 599.139,948.14 597.222,950.088C596.047,951.294 594.755,952.407 593.348,953.428C591.941,954.448 590.387,955.314 588.687,956.025C586.986,956.737 585.138,957.293 583.143,957.695C581.149,958.097 578.914,958.298 576.44,958.298L567.349,958.298L567.349,980.889L550,980.889L550,911.819L576.812,911.819C580.801,911.819 584.241,912.182 587.133,912.909C590.024,913.636 592.645,914.788 594.995,916.365C597.593,918.097 599.603,920.408 601.025,923.3C602.448,926.191 603.159,929.631 603.159,933.621ZM585.347,934.038C585.347,932.09 584.883,930.412 583.955,929.005C583.027,927.598 581.914,926.632 580.615,926.106C578.976,925.395 577.407,924.985 575.907,924.877C574.407,924.768 572.374,924.714 569.807,924.714L567.349,924.714L567.349,945.403L568.555,945.403C570.194,945.403 571.74,945.387 573.193,945.356C574.647,945.326 575.915,945.217 576.997,945.032C577.925,944.877 578.907,944.576 579.943,944.127C580.979,943.679 581.775,943.176 582.332,942.62C583.507,941.475 584.303,940.285 584.72,939.048C585.138,937.811 585.347,936.141 585.347,934.038ZM661.514,954.866C661.514,963.432 659.171,970.181 654.486,975.114C649.801,980.046 643.175,982.512 634.609,982.512C626.105,982.512 619.495,980.046 614.779,975.114C610.063,970.181 607.705,963.432 607.705,954.866C607.705,946.207 610.063,939.427 614.779,934.525C619.495,929.624 626.105,927.173 634.609,927.173C643.145,927.173 649.762,929.639 654.463,934.572C659.163,939.504 661.514,946.269 661.514,954.866ZM644.861,954.958C644.861,951.866 644.606,949.292 644.095,947.235C643.585,945.179 642.882,943.532 641.985,942.295C641.026,940.996 639.944,940.092 638.738,939.581C637.532,939.071 636.156,938.816 634.609,938.816C633.156,938.816 631.842,939.04 630.667,939.489C629.491,939.937 628.409,940.795 627.419,942.063C626.492,943.269 625.75,944.924 625.193,947.026C624.636,949.129 624.358,951.773 624.358,954.958C624.358,958.144 624.621,960.718 625.146,962.682C625.672,964.646 626.353,966.215 627.187,967.39C628.053,968.596 629.136,969.478 630.435,970.034C631.733,970.591 633.171,970.869 634.749,970.869C636.047,970.869 637.369,970.591 638.715,970.034C640.06,969.478 641.134,968.643 641.938,967.529C642.897,966.2 643.624,964.599 644.119,962.728C644.613,960.857 644.861,958.267 644.861,954.958ZM747.747,928.796L732.532,980.889L715.276,980.889L706.138,947.212L696.953,980.889L679.697,980.889L664.622,928.796L681.692,928.796L689.67,963.262L699.551,928.796L713.884,928.796L723.208,963.262L731.047,928.796L747.747,928.796ZM781.331,982.28C771.497,982.28 763.959,979.93 758.717,975.229C753.475,970.529 750.854,963.834 750.854,955.144C750.854,946.64 753.298,939.852 758.184,934.78C763.07,929.709 769.904,927.173 778.687,927.173C786.665,927.173 792.664,929.322 796.685,933.621C800.705,937.919 802.715,944.073 802.715,952.083L802.715,957.927L767.136,957.927C767.291,960.339 767.801,962.357 768.667,963.981C769.533,965.604 770.677,966.895 772.1,967.854C773.491,968.813 775.115,969.501 776.97,969.918C778.826,970.336 780.851,970.544 783.047,970.544C784.933,970.544 786.789,970.336 788.613,969.918C790.438,969.501 792.108,968.952 793.623,968.271C794.953,967.684 796.182,967.05 797.311,966.37C798.44,965.689 799.36,965.086 800.071,964.561L801.787,964.561L801.787,977.966C800.457,978.492 799.244,978.979 798.146,979.427C797.048,979.876 795.54,980.332 793.623,980.796C791.86,981.26 790.044,981.623 788.173,981.886C786.302,982.149 784.021,982.28 781.331,982.28ZM786.711,948.14C786.619,944.707 785.822,942.094 784.323,940.3C782.823,938.507 780.527,937.61 777.434,937.61C774.28,937.61 771.814,938.553 770.035,940.439C768.257,942.326 767.275,944.893 767.09,948.14L786.711,948.14ZM846.04,944.15L844.695,944.15C844.076,943.934 843.18,943.772 842.004,943.663C840.829,943.555 839.53,943.501 838.108,943.501C836.407,943.501 834.621,943.748 832.75,944.243C830.879,944.738 829.062,945.326 827.3,946.006L827.3,980.889L811.064,980.889L811.064,928.796L827.3,928.796L827.3,936.265C828.042,935.584 829.07,934.726 830.385,933.69C831.699,932.654 832.897,931.827 833.979,931.208C835.155,930.497 836.523,929.886 838.085,929.376C839.646,928.866 841.123,928.611 842.515,928.611C843.04,928.611 843.628,928.626 844.277,928.657C844.927,928.688 845.514,928.735 846.04,928.796L846.04,944.15ZM878.928,982.28C869.094,982.28 861.556,979.93 856.315,975.229C851.073,970.529 848.452,963.834 848.452,955.144C848.452,946.64 850.895,939.852 855.781,934.78C860.667,929.709 867.502,927.173 876.284,927.173C884.263,927.173 890.262,929.322 894.282,933.621C898.302,937.919 900.312,944.073 900.312,952.083L900.312,957.927L864.734,957.927C864.889,960.339 865.399,962.357 866.265,963.981C867.131,965.604 868.275,966.895 869.697,967.854C871.089,968.813 872.712,969.501 874.568,969.918C876.423,970.336 878.449,970.544 880.645,970.544C882.531,970.544 884.386,970.336 886.211,969.918C888.035,969.501 889.705,968.952 891.221,968.271C892.55,967.684 893.78,967.05 894.908,966.37C896.037,965.689 896.957,965.086 897.668,964.561L899.385,964.561L899.385,977.966C898.055,978.492 896.841,978.979 895.743,979.427C894.646,979.876 893.138,980.332 891.221,980.796C889.458,981.26 887.641,981.623 885.77,981.886C883.899,982.149 881.619,982.28 878.928,982.28ZM884.309,948.14C884.216,944.707 883.42,942.094 881.92,940.3C880.42,938.507 878.124,937.61 875.032,937.61C871.877,937.61 869.411,938.553 867.633,940.439C865.855,942.326 864.873,944.893 864.687,948.14L884.309,948.14ZM956.023,980.889L939.788,980.889L939.788,975.461C938.736,976.327 937.538,977.255 936.193,978.245C934.847,979.234 933.665,979.976 932.644,980.471C931.345,981.09 930.062,981.554 928.794,981.863C927.526,982.172 926.011,982.327 924.248,982.327C918.311,982.327 913.61,979.868 910.146,974.951C906.683,970.034 904.951,963.463 904.951,955.237C904.951,950.691 905.539,946.748 906.714,943.408C907.889,940.068 909.513,937.161 911.584,934.687C913.471,932.43 915.759,930.644 918.45,929.33C921.14,928.016 923.985,927.358 926.985,927.358C929.706,927.358 931.941,927.644 933.688,928.217C935.435,928.789 937.468,929.678 939.788,930.884L939.788,908.711L956.023,908.711L956.023,980.889ZM939.788,966.509L939.788,940.95C938.984,940.548 937.932,940.215 936.633,939.952C935.334,939.69 934.221,939.558 933.293,939.558C929.397,939.558 926.467,940.919 924.503,943.64C922.539,946.361 921.558,950.165 921.558,955.051C921.558,960.185 922.338,963.896 923.9,966.184C925.462,968.472 927.99,969.617 931.484,969.617C932.907,969.617 934.345,969.338 935.798,968.782C937.252,968.225 938.582,967.467 939.788,966.509ZM1030.75,954.448C1030.75,949.253 1029.96,945.542 1028.39,943.315C1026.81,941.089 1024.38,939.976 1021.1,939.976C1019.65,939.976 1018.2,940.208 1016.77,940.671C1015.33,941.135 1013.91,941.831 1012.52,942.759L1012.52,968.921C1013.6,969.354 1014.69,969.648 1015.79,969.802C1016.89,969.957 1017.98,970.034 1019.06,970.034C1022.99,970.034 1025.92,968.735 1027.85,966.138C1029.79,963.54 1030.75,959.644 1030.75,954.448ZM1047.36,954.124C1047.36,962.411 1045.26,969.114 1041.05,974.232C1036.84,979.35 1031.63,981.909 1025.42,981.909C1022.82,981.909 1020.56,981.615 1018.64,981.028C1016.73,980.44 1014.69,979.528 1012.52,978.291L1011.83,980.889L996.287,980.889L996.287,908.711L1012.52,908.711L1012.52,934.224C1014.9,932.183 1017.33,930.528 1019.81,929.26C1022.28,927.992 1025.14,927.358 1028.39,927.358C1034.45,927.358 1039.12,929.724 1042.42,934.456C1045.71,939.187 1047.36,945.743 1047.36,954.124ZM1104.92,928.796L1078.62,1000L1061.18,1000L1069.07,979.636L1049.96,928.796L1067.03,928.796L1077.97,961.453L1088.22,928.796L1104.92,928.796ZM1139.76,980.889L1139.76,911.819L1186.47,911.819L1186.47,924.993L1157.02,924.993L1157.02,937.1L1184.15,937.1L1184.15,950.273L1157.02,950.273L1157.02,967.715L1186.47,967.715L1186.47,980.889L1139.76,980.889ZM1259.53,980.889L1259.53,954.866C1259.53,952.299 1259.49,950.134 1259.39,948.372C1259.3,946.609 1259.02,945.171 1258.56,944.058C1258.09,942.944 1257.37,942.133 1256.4,941.622C1255.43,941.112 1254.06,940.857 1252.3,940.857C1251.06,940.857 1249.84,941.128 1248.63,941.669C1247.42,942.21 1246.11,942.975 1244.69,943.965L1244.69,980.889L1228.36,980.889L1228.36,954.866C1228.36,952.33 1228.31,950.173 1228.2,948.395C1228.09,946.617 1227.8,945.171 1227.34,944.058C1226.88,942.944 1226.16,942.133 1225.18,941.622C1224.21,941.112 1222.86,940.857 1221.12,940.857C1219.79,940.857 1218.49,941.166 1217.23,941.785C1215.96,942.403 1214.72,943.13 1213.52,943.965L1213.52,980.889L1197.28,980.889L1197.28,928.796L1213.52,928.796L1213.52,934.548C1216.17,932.291 1218.68,930.528 1221.03,929.26C1223.38,927.992 1226.03,927.358 1228.96,927.358C1232.15,927.358 1234.95,928.116 1237.36,929.631C1239.77,931.147 1241.61,933.404 1242.88,936.404C1246,933.497 1248.95,931.263 1251.71,929.701C1254.48,928.139 1257.29,927.358 1260.13,927.358C1262.55,927.358 1264.71,927.745 1266.63,928.518C1268.55,929.291 1270.17,930.451 1271.5,931.997C1272.95,933.667 1274.04,935.654 1274.77,937.958C1275.5,940.262 1275.86,943.269 1275.86,946.98L1275.86,980.889L1259.53,980.889ZM1336.26,980.889L1320.02,980.889L1320.02,975.137C1317.2,977.487 1314.62,979.273 1312.27,980.494C1309.92,981.716 1307.12,982.327 1303.88,982.327C1298.71,982.327 1294.68,980.695 1291.79,977.433C1288.9,974.17 1287.46,969.261 1287.46,962.705L1287.46,928.796L1303.78,928.796L1303.78,954.634C1303.78,957.324 1303.85,959.52 1303.99,961.221C1304.13,962.922 1304.46,964.36 1304.99,965.535C1305.49,966.617 1306.25,967.437 1307.29,967.993C1308.32,968.55 1309.77,968.828 1311.62,968.828C1312.77,968.828 1314.12,968.55 1315.68,967.993C1317.24,967.437 1318.69,966.679 1320.02,965.72L1320.02,928.796L1336.26,928.796L1336.26,980.889ZM1364.92,980.889L1348.69,980.889L1348.69,908.711L1364.92,908.711L1364.92,980.889ZM1406.07,967.297L1406.07,956.443C1403.32,956.721 1401.09,956.961 1399.39,957.162C1397.69,957.363 1396.02,957.757 1394.38,958.345C1392.95,958.84 1391.85,959.589 1391.06,960.594C1390.27,961.6 1389.88,962.937 1389.88,964.607C1389.88,967.05 1390.54,968.728 1391.85,969.64C1393.16,970.552 1395.1,971.008 1397.67,971.008C1399.09,971.008 1400.55,970.684 1402.03,970.034C1403.52,969.385 1404.86,968.472 1406.07,967.297ZM1406.07,975.369C1404.95,976.296 1403.96,977.131 1403.08,977.874C1402.19,978.616 1401.01,979.358 1399.53,980.1C1398.07,980.811 1396.66,981.353 1395.28,981.724C1393.91,982.095 1391.98,982.28 1389.51,982.28C1384.9,982.28 1381.07,980.734 1378.03,977.642C1374.98,974.549 1373.46,970.653 1373.46,965.952C1373.46,962.087 1374.23,958.963 1375.78,956.582C1377.32,954.201 1379.55,952.314 1382.46,950.923C1385.39,949.5 1388.9,948.511 1392.99,947.954C1397.07,947.397 1401.46,946.965 1406.16,946.655L1406.16,946.377C1406.16,943.501 1405.1,941.514 1402.98,940.416C1400.86,939.318 1397.69,938.77 1393.45,938.77C1391.53,938.77 1389.29,939.117 1386.72,939.813C1384.16,940.509 1381.65,941.398 1379.21,942.48L1377.82,942.48L1377.82,929.91C1379.42,929.446 1382.02,928.897 1385.61,928.263C1389.2,927.629 1392.82,927.312 1396.46,927.312C1405.43,927.312 1411.97,928.804 1416.06,931.788C1420.16,934.773 1422.21,939.326 1422.21,945.449L1422.21,980.889L1406.07,980.889L1406.07,975.369ZM1454.17,981.909C1447.55,981.909 1442.74,980.549 1439.72,977.827C1436.7,975.106 1435.2,970.653 1435.2,964.468L1435.2,940.115L1428.98,940.115L1428.98,928.796L1435.2,928.796L1435.2,913.906L1451.43,913.906L1451.43,928.796L1467.07,928.796L1467.07,940.115L1451.43,940.115L1451.43,958.577C1451.43,960.401 1451.45,961.994 1451.48,963.354C1451.51,964.715 1451.76,965.937 1452.22,967.019C1452.65,968.101 1453.42,968.96 1454.52,969.594C1455.62,970.227 1457.22,970.544 1459.32,970.544C1460.18,970.544 1461.32,970.359 1462.73,969.988C1464.13,969.617 1465.12,969.277 1465.67,968.967L1467.07,968.967L1467.07,980.425C1465.3,980.889 1463.43,981.252 1461.45,981.515C1459.47,981.778 1457.05,981.909 1454.17,981.909ZM1489.93,980.889L1473.7,980.889L1473.7,928.796L1489.93,928.796L1489.93,980.889ZM1490.4,921.375L1473.24,921.375L1473.24,908.711L1490.4,908.711L1490.4,921.375ZM1552.37,954.866C1552.37,963.432 1550.03,970.181 1545.34,975.114C1540.66,980.046 1534.03,982.512 1525.47,982.512C1516.96,982.512 1510.35,980.046 1505.64,975.114C1500.92,970.181 1498.56,963.432 1498.56,954.866C1498.56,946.207 1500.92,939.427 1505.64,934.525C1510.35,929.624 1516.96,927.173 1525.47,927.173C1534,927.173 1540.62,929.639 1545.32,934.572C1550.02,939.504 1552.37,946.269 1552.37,954.866ZM1535.72,954.958C1535.72,951.866 1535.46,949.292 1534.95,947.235C1534.44,945.179 1533.74,943.532 1532.84,942.295C1531.88,940.996 1530.8,940.092 1529.6,939.581C1528.39,939.071 1527.01,938.816 1525.47,938.816C1524.01,938.816 1522.7,939.04 1521.52,939.489C1520.35,939.937 1519.27,940.795 1518.28,942.063C1517.35,943.269 1516.61,944.924 1516.05,947.026C1515.49,949.129 1515.21,951.773 1515.21,954.958C1515.21,958.144 1515.48,960.718 1516,962.682C1516.53,964.646 1517.21,966.215 1518.04,967.39C1518.91,968.596 1519.99,969.478 1521.29,970.034C1522.59,970.591 1524.03,970.869 1525.61,970.869C1526.9,970.869 1528.23,970.591 1529.57,970.034C1530.92,969.478 1531.99,968.643 1532.8,967.529C1533.75,966.2 1534.48,964.599 1534.98,962.728C1535.47,960.857 1535.72,958.267 1535.72,954.958ZM1609.8,980.889L1593.47,980.889L1593.47,955.051C1593.47,952.948 1593.38,950.853 1593.21,948.766C1593.04,946.678 1592.73,945.14 1592.26,944.15C1591.71,942.975 1590.9,942.133 1589.85,941.622C1588.8,941.112 1587.39,940.857 1585.63,940.857C1584.3,940.857 1582.95,941.104 1581.59,941.599C1580.23,942.094 1578.78,942.882 1577.23,943.965L1577.23,980.889L1561,980.889L1561,928.796L1577.23,928.796L1577.23,934.548C1579.89,932.291 1582.48,930.528 1585,929.26C1587.52,927.992 1590.32,927.358 1593.38,927.358C1598.69,927.358 1602.76,929.036 1605.58,932.391C1608.39,935.747 1609.8,940.61 1609.8,946.98L1609.8,980.889ZM1644.08,982.141C1638.79,982.141 1634.14,981.631 1630.14,980.61C1626.13,979.59 1622.41,978.322 1618.98,976.807L1618.98,960.386L1620.56,960.386C1624.02,963.324 1627.84,965.581 1632.02,967.158C1636.19,968.735 1640.24,969.524 1644.17,969.524C1645.16,969.524 1646.47,969.416 1648.09,969.199C1649.71,968.983 1651.02,968.643 1652.01,968.179C1653.22,967.653 1654.24,966.919 1655.07,965.975C1655.91,965.032 1656.32,963.787 1656.32,962.241C1656.32,960.509 1655.64,959.102 1654.28,958.02C1652.92,956.938 1651.3,956.149 1649.41,955.654C1647.06,955.036 1644.55,954.448 1641.87,953.892C1639.2,953.335 1636.7,952.655 1634.38,951.851C1629.03,949.964 1625.2,947.428 1622.88,944.243C1620.56,941.058 1619.4,937.069 1619.4,932.275C1619.4,925.812 1622.14,920.578 1627.61,916.573C1633.08,912.569 1639.92,910.566 1648.11,910.566C1652.23,910.566 1656.32,910.984 1660.38,911.819C1664.45,912.654 1668.09,913.783 1671.31,915.205L1671.31,930.977L1669.78,930.977C1667.21,928.781 1664.08,926.925 1660.38,925.41C1656.69,923.895 1652.89,923.137 1648.99,923.137C1647.48,923.137 1646.12,923.245 1644.91,923.462C1643.71,923.678 1642.44,924.096 1641.11,924.714C1640.03,925.209 1639.09,925.944 1638.3,926.918C1637.51,927.892 1637.12,928.982 1637.12,930.188C1637.12,931.951 1637.75,933.35 1639,934.386C1640.25,935.422 1642.67,936.357 1646.26,937.192C1648.58,937.718 1650.81,938.228 1652.96,938.723C1655.11,939.218 1657.41,939.898 1659.85,940.764C1664.64,942.496 1668.21,944.823 1670.54,947.745C1672.88,950.668 1674.04,954.526 1674.04,959.319C1674.04,966.184 1671.35,971.704 1665.95,975.879C1660.55,980.054 1653.26,982.141 1644.08,982.141ZM1701.92,981.909C1695.3,981.909 1690.49,980.549 1687.47,977.827C1684.46,975.106 1682.95,970.653 1682.95,964.468L1682.95,940.115L1676.73,940.115L1676.73,928.796L1682.95,928.796L1682.95,913.906L1699.18,913.906L1699.18,928.796L1714.82,928.796L1714.82,940.115L1699.18,940.115L1699.18,958.577C1699.18,960.401 1699.2,961.994 1699.23,963.354C1699.26,964.715 1699.51,965.937 1699.97,967.019C1700.41,968.101 1701.17,968.96 1702.27,969.594C1703.37,970.227 1704.97,970.544 1707.07,970.544C1707.94,970.544 1709.07,970.359 1710.48,969.988C1711.89,969.617 1712.87,969.277 1713.42,968.967L1714.82,968.967L1714.82,980.425C1713.05,980.889 1711.18,981.252 1709.2,981.515C1707.23,981.778 1704.8,981.909 1701.92,981.909ZM1750.16,967.297L1750.16,956.443C1747.41,956.721 1745.18,956.961 1743.48,957.162C1741.78,957.363 1740.11,957.757 1738.47,958.345C1737.05,958.84 1735.95,959.589 1735.16,960.594C1734.37,961.6 1733.98,962.937 1733.98,964.607C1733.98,967.05 1734.63,968.728 1735.95,969.64C1737.26,970.552 1739.2,971.008 1741.77,971.008C1743.19,971.008 1744.64,970.684 1746.13,970.034C1747.61,969.385 1748.96,968.472 1750.16,967.297ZM1750.16,975.369C1749.05,976.296 1748.05,977.131 1747.17,977.874C1746.29,978.616 1745.11,979.358 1743.62,980.1C1742.17,980.811 1740.76,981.353 1739.38,981.724C1738,982.095 1736.08,982.28 1733.6,982.28C1729,982.28 1725.17,980.734 1722.12,977.642C1719.08,974.549 1717.55,970.653 1717.55,965.952C1717.55,962.087 1718.33,958.963 1719.87,956.582C1721.42,954.201 1723.65,952.314 1726.55,950.923C1729.49,949.5 1733,948.511 1737.08,947.954C1741.16,947.397 1745.56,946.965 1750.26,946.655L1750.26,946.377C1750.26,943.501 1749.2,941.514 1747.08,940.416C1744.96,939.318 1741.78,938.77 1737.55,938.77C1735.63,938.77 1733.39,939.117 1730.82,939.813C1728.25,940.509 1725.75,941.398 1723.31,942.48L1721.91,942.48L1721.91,929.91C1723.52,929.446 1726.12,928.897 1729.71,928.263C1733.29,927.629 1736.91,927.312 1740.56,927.312C1749.53,927.312 1756.06,928.804 1760.16,931.788C1764.26,934.773 1766.31,939.326 1766.31,945.449L1766.31,980.889L1750.16,980.889L1750.16,975.369ZM1798.27,981.909C1791.65,981.909 1786.83,980.549 1783.82,977.827C1780.8,975.106 1779.29,970.653 1779.29,964.468L1779.29,940.115L1773.08,940.115L1773.08,928.796L1779.29,928.796L1779.29,913.906L1795.53,913.906L1795.53,928.796L1811.16,928.796L1811.16,940.115L1795.53,940.115L1795.53,958.577C1795.53,960.401 1795.55,961.994 1795.58,963.354C1795.61,964.715 1795.85,965.937 1796.32,967.019C1796.75,968.101 1797.52,968.96 1798.62,969.594C1799.71,970.227 1801.31,970.544 1803.42,970.544C1804.28,970.544 1805.42,970.359 1806.83,969.988C1808.23,969.617 1809.21,969.277 1809.77,968.967L1811.16,968.967L1811.16,980.425C1809.4,980.889 1807.53,981.252 1805.55,981.515C1803.57,981.778 1801.14,981.909 1798.27,981.909ZM1834.03,980.889L1817.8,980.889L1817.8,928.796L1834.03,928.796L1834.03,980.889ZM1834.5,921.375L1817.33,921.375L1817.33,908.711L1834.5,908.711L1834.5,921.375ZM1896.47,954.866C1896.47,963.432 1894.12,970.181 1889.44,975.114C1884.76,980.046 1878.13,982.512 1869.56,982.512C1861.06,982.512 1854.45,980.046 1849.73,975.114C1845.02,970.181 1842.66,963.432 1842.66,954.866C1842.66,946.207 1845.02,939.427 1849.73,934.525C1854.45,929.624 1861.06,927.173 1869.56,927.173C1878.1,927.173 1884.72,929.639 1889.42,934.572C1894.12,939.504 1896.47,946.269 1896.47,954.866ZM1879.81,954.958C1879.81,951.866 1879.56,949.292 1879.05,947.235C1878.54,945.179 1877.84,943.532 1876.94,942.295C1875.98,940.996 1874.9,940.092 1873.69,939.581C1872.49,939.071 1871.11,938.816 1869.56,938.816C1868.11,938.816 1866.8,939.04 1865.62,939.489C1864.44,939.937 1863.36,940.795 1862.37,942.063C1861.44,943.269 1860.7,944.924 1860.15,947.026C1859.59,949.129 1859.31,951.773 1859.31,954.958C1859.31,958.144 1859.57,960.718 1860.1,962.682C1860.63,964.646 1861.31,966.215 1862.14,967.39C1863.01,968.596 1864.09,969.478 1865.39,970.034C1866.69,970.591 1868.12,970.869 1869.7,970.869C1871,970.869 1872.32,970.591 1873.67,970.034C1875.01,969.478 1876.09,968.643 1876.89,967.529C1877.85,966.2 1878.58,964.599 1879.07,962.728C1879.57,960.857 1879.81,958.267 1879.81,954.958ZM1953.89,980.889L1937.57,980.889L1937.57,955.051C1937.57,952.948 1937.48,950.853 1937.31,948.766C1937.14,946.678 1936.82,945.14 1936.36,944.15C1935.8,942.975 1935,942.133 1933.95,941.622C1932.9,941.112 1931.49,940.857 1929.73,940.857C1928.4,940.857 1927.05,941.104 1925.69,941.599C1924.33,942.094 1922.88,942.882 1921.33,943.965L1921.33,980.889L1905.1,980.889L1905.1,928.796L1921.33,928.796L1921.33,934.548C1923.99,932.291 1926.58,930.528 1929.1,929.26C1931.62,927.992 1934.41,927.358 1937.47,927.358C1942.79,927.358 1946.86,929.036 1949.67,932.391C1952.49,935.747 1953.89,940.61 1953.89,946.98L1953.89,980.889ZM1995.55,956.86L1964.8,956.86L1964.8,943.965L1995.55,943.965L1995.55,956.86ZM2069.49,946.423C2069.49,952.856 2068.08,958.615 2065.27,963.702C2062.45,968.789 2058.9,972.694 2054.6,975.415C2051.01,977.734 2047.11,979.226 2042.89,979.891C2038.67,980.556 2034.17,980.889 2029.41,980.889L2007.8,980.889L2007.8,911.819L2029.23,911.819C2034.08,911.819 2038.63,912.128 2042.86,912.747C2047.1,913.365 2051.07,914.865 2054.78,917.246C2059.33,920.153 2062.92,924.073 2065.55,929.005C2068.18,933.938 2069.49,939.744 2069.49,946.423ZM2051.68,946.284C2051.68,941.738 2050.9,937.85 2049.34,934.618C2047.77,931.386 2045.37,928.858 2042.12,927.034C2039.77,925.735 2037.31,925.024 2034.72,924.9C2032.14,924.776 2029.06,924.714 2025.47,924.714L2025.14,924.714L2025.14,967.947L2025.47,967.947C2029.37,967.947 2032.65,967.877 2035.33,967.738C2038,967.599 2040.54,966.772 2042.96,965.256C2045.8,963.463 2047.97,960.989 2049.45,957.834C2050.93,954.68 2051.68,950.83 2051.68,946.284ZM2079.74,980.889L2079.74,911.819L2126.45,911.819L2126.45,924.993L2097,924.993L2097,937.1L2124.13,937.1L2124.13,950.273L2097,950.273L2097,967.715L2126.45,967.715L2126.45,980.889L2079.74,980.889ZM2237.26,340.74C2225.47,329.31 2216.31,316.147 2209.79,301.252C2203.26,286.357 2200,270.27 2200,252.99L2200,125.01C2200,107.73 2203.2,91.8 2209.59,77.22C2215.97,62.64 2225.2,49.32 2237.26,37.26C2249.32,25.2 2262.66,15.975 2277.29,9.585C2291.91,3.195 2307.82,0 2325.01,0L2558.83,0C2576.02,0 2591.93,3.195 2606.55,9.585C2621.18,15.975 2634.52,25.2 2646.58,37.26C2658.64,49.32 2667.87,62.64 2674.26,77.22C2680.64,91.8 2683.84,107.73 2683.84,125.01L2683.84,252.99C2683.84,270.27 2680.58,286.357 2674.05,301.252C2667.53,316.147 2658.37,329.31 2646.58,340.74C2640.91,346.23 2634.74,351.27 2628.09,355.86C2621.43,360.45 2614.38,364.387 2606.96,367.672C2599.53,370.957 2591.79,373.5 2583.74,375.3C2575.68,377.1 2567.38,378 2558.83,378L2325.01,378C2316.46,378 2308.16,377.1 2300.1,375.3C2292.05,373.5 2284.31,370.957 2276.88,367.672C2269.46,364.387 2262.41,360.45 2255.76,355.86C2249.1,351.27 2242.93,346.23 2237.26,340.74ZM2278.84,259.605C2278.84,265.545 2280.14,271.282 2282.76,276.817C2285.37,282.352 2288.81,287.257 2293.08,291.532C2297.36,295.807 2302.26,299.25 2307.8,301.86C2313.33,304.47 2319.07,305.775 2325.01,305.775L2558.83,305.775C2564.77,305.775 2570.51,304.47 2576.04,301.86C2581.58,299.25 2586.48,295.807 2590.76,291.532C2595.03,287.257 2598.47,282.352 2601.09,276.817C2603.7,271.282 2605,265.545 2605,259.605L2605,118.395C2605,112.005 2603.81,105.997 2601.42,100.373C2599.04,94.747 2595.75,89.843 2591.57,85.658C2587.38,81.473 2582.48,78.187 2576.85,75.803C2571.23,73.417 2565.22,72.225 2558.83,72.225L2325.01,72.225C2318.62,72.225 2312.61,73.417 2306.99,75.803C2301.36,78.187 2296.46,81.473 2292.27,85.658C2288.09,89.843 2284.8,94.747 2282.42,100.373C2280.03,105.997 2278.84,112.005 2278.84,118.395L2278.84,259.605ZM1693.34,0L2030.43,0C2043.12,0 2054.71,1.53 2065.19,4.59C2075.68,7.65 2085.13,11.835 2093.54,17.145C2101.96,22.455 2109.29,28.755 2115.55,36.045C2121.8,43.335 2127,51.232 2131.14,59.738C2135.28,68.242 2138.39,77.152 2140.45,86.467C2142.53,95.783 2143.51,105.165 2143.43,114.615C2143.43,124.245 2142.39,133.785 2140.32,143.235C2138.25,152.685 2135.14,161.662 2131.01,170.167C2126.87,178.672 2121.67,186.525 2115.41,193.725C2109.16,200.925 2101.85,207.157 2093.47,212.422C2085.11,217.687 2075.68,221.805 2065.19,224.775C2054.71,227.745 2043.12,229.23 2030.43,229.23L2028.94,229.23L2150.45,378L2052.57,378L1931.07,229.23L1728.98,229.23L1728.98,378L1650.13,378L1650,43.335C1650,36.855 1651.04,30.96 1653.11,25.65C1655.17,20.34 1658.12,15.772 1661.95,11.948C1665.77,8.122 1670.34,5.175 1675.65,3.105C1680.96,1.035 1686.86,0 1693.34,0ZM2028.94,157.005C2034.8,157.005 2039.92,155.79 2044.34,153.36C2048.74,150.93 2052.43,147.735 2055.41,143.775C2058.38,139.815 2060.6,135.292 2062.09,130.207C2063.57,125.122 2064.34,119.925 2064.38,114.615C2064.43,109.305 2063.73,104.107 2062.29,99.022C2060.85,93.937 2058.67,89.415 2055.74,85.455C2052.82,81.495 2049.13,78.3 2044.67,75.87C2040.22,73.44 2034.98,72.225 2028.94,72.225L1728.98,72.225L1728.98,157.005L2028.94,157.005ZM1100,72.225L1100,-0L1583.84,-0L1583.84,72.225L1381.48,72.225L1381.48,378L1302.5,378L1302.5,72.225L1100,72.225ZM550,334.665L550,43.335C550,36.855 551.035,30.96 553.105,25.65C555.175,20.34 558.123,15.772 561.947,11.947C565.773,8.122 570.34,5.175 575.65,3.105C580.96,1.035 586.855,-0 593.335,-0L1033.7,-0L1033.7,72.225L628.975,72.225L628.975,148.77L984.565,148.77L984.565,220.995L628.975,220.995L628.975,305.775L1033.7,305.775L1033.7,378L593.335,378C586.855,378 580.96,376.965 575.65,374.895C570.34,372.825 565.773,369.877 561.947,366.052C558.123,362.227 555.175,357.66 553.105,352.35C551.035,347.04 550,341.145 550,334.665ZM43.335,0L380.43,0C393.12,0 404.708,1.53 415.192,4.59C425.678,7.65 435.128,11.835 443.542,17.145C451.958,22.455 459.293,28.755 465.547,36.045C471.803,43.335 477,51.232 481.14,59.737C485.28,68.242 488.385,77.152 490.455,86.467C492.525,95.782 493.515,105.165 493.425,114.615C493.425,124.245 492.39,133.785 490.32,143.235C488.25,152.685 485.145,161.662 481.005,170.167C476.865,178.672 471.668,186.525 465.412,193.725C459.158,200.925 451.845,207.157 443.475,212.422C435.105,217.687 425.678,221.805 415.192,224.775C404.708,227.745 393.12,229.23 380.43,229.23L378.945,229.23L500.445,378L402.57,378L281.07,229.23L78.975,229.23L78.975,378L0.135,378L-0,43.335C-0,36.855 1.035,30.96 3.105,25.65C5.175,20.34 8.123,15.772 11.947,11.947C15.773,8.122 20.34,5.175 25.65,3.105C30.96,1.035 36.855,0 43.335,0ZM378.945,157.005C384.795,157.005 389.925,155.79 394.335,153.36C398.745,150.93 402.435,147.735 405.405,143.775C408.375,139.815 410.602,135.292 412.087,130.207C413.572,125.122 414.338,119.925 414.382,114.615C414.428,109.305 413.73,104.107 412.29,99.022C410.85,93.937 408.668,89.415 405.742,85.455C402.818,81.495 399.127,78.3 394.672,75.87C390.217,73.44 384.975,72.225 378.945,72.225L78.975,72.225L78.975,157.005L378.945,157.005Z"
       fill="url(#_Linear2)"
       id="path10" /></g></svg>
